<svg width="45" height="45" viewBox="0 0 45 45" fill="none" xmlns="http://www.w3.org/2000/svg">
<path fill-rule="evenodd" clip-rule="evenodd" d="M15.7284 0.802845L6.97855 0.818904L0.802845 7.01732L0.818904 15.7671L7.01732 21.9428L15.7671 21.9268L21.9428 15.7284L21.9268 6.97855L15.7284 0.802845ZM22.7284 6.64478L16.0592 0L6.64478 0.0172785L0 6.68649L0.0172782 16.1009L6.68649 22.7457L16.1009 22.7284L22.7457 16.0592L22.7284 6.64478Z" fill="#F8F2E7"/>
<path d="M9.02856 16.3365L4.21425 16.3298L0.805263 19.7292L0.798537 22.269L0 22.5984L0.00765004 19.3975L3.88479 15.5312L9.36025 15.5389L13.2266 19.416L13.2189 22.6169L12.4213 22.2852L12.428 19.7455L9.02856 16.3365Z" fill="#F8F2E7"/>
<path d="M18.5284 16.3298L13.7149 16.3386L10.3176 19.7484L10.3264 22.2873L9.52909 22.6193L9.51904 19.4194L13.383 15.5413L18.8574 15.5312L22.7356 19.3951L22.7456 22.595L21.9471 22.266L21.9382 19.7271L18.5284 16.3298Z" fill="#F8F2E7"/>
<path d="M0.798377 0.179317L0.807211 2.8197L4.21707 6.21706L9.03051 6.20823L12.4279 2.79837L12.419 0.0441197L13.2164 0.0441132L13.2264 3.12742L9.36248 7.00555L3.88802 7.0156L0.0098877 3.15167L0.00993996 0.179317H0.798377Z" fill="#F8F2E7"/>
<path d="M9.51904 0.021286L10.3269 0.0213058V2.81818L13.7368 6.21555L18.5502 6.20671L21.9476 2.79685V0.165367H22.7461V3.1259L18.8822 7.00404L13.4077 7.01408L9.52959 3.15016L9.51904 0.021286Z" fill="#F8F2E7"/>
<path d="M0.00304791 21.947L2.81882 21.9382L6.21619 18.5283L6.20736 13.7149L2.79749 10.3175L0.00297911 10.3264V9.52906L3.12654 9.51901L7.00468 13.3829L7.01473 18.8574L3.1508 22.7355L0.00268555 22.7456L0.00304791 21.947Z" fill="#F8F2E7"/>
<path d="M0 12.5282L2.81825 12.5194L6.21562 9.10953L6.20679 4.29609L2.79693 0.898726L3.74593e-05 0.907561V0.110238L3.12598 0.100189L7.00411 3.96411L7.01416 9.43857L3.15023 13.3167L3.74593e-05 13.3268L0 12.5282Z" fill="#F8F2E7"/>
<path d="M16.6304 13.7362L16.6393 18.5496L20.0491 21.947L22.7458 21.9382V22.7355L19.7201 22.7455L15.842 18.8816L15.8319 13.4072L19.6958 9.52903L22.7458 9.52782V10.3264L20.0278 10.3263L16.6304 13.7362Z" fill="#F8F2E7"/>
<path d="M16.6307 4.31835L16.6396 9.13302L20.0507 12.5313L22.7458 12.5235V13.321L19.7216 13.33L15.842 9.46508L15.8319 3.98921L19.6973 0.110087L22.7443 0.103424L22.7458 0.901559L20.0294 0.907615L16.6307 4.31835Z" fill="#F8F2E7"/>
<path fill-rule="evenodd" clip-rule="evenodd" d="M29.2716 0.802845L38.0215 0.818904L44.1972 7.01732L44.1811 15.7671L37.9827 21.9428L29.2329 21.9268L23.0572 15.7284L23.0732 6.97855L29.2716 0.802845ZM22.2716 6.64478L28.9408 0L38.3552 0.0172785L45 6.68649L44.9827 16.1009L38.3135 22.7457L28.8991 22.7284L22.2543 16.0592L22.2716 6.64478Z" fill="#F8F2E7"/>
<path d="M35.9714 16.3365L40.7857 16.3298L44.1947 19.7292L44.2015 22.269L45 22.5984L44.9923 19.3976L41.1152 15.5312L35.6398 15.5389L31.7734 19.416L31.7811 22.6169L32.5787 22.2852L32.572 19.7455L35.9714 16.3365Z" fill="#F8F2E7"/>
<path d="M26.4716 16.3298L31.2851 16.3386L34.6824 19.7485L34.6736 22.2873L35.4709 22.6193L35.481 19.4194L31.617 15.5413L26.1426 15.5312L22.2644 19.3952L22.2544 22.595L23.0529 22.266L23.0618 19.7271L26.4716 16.3298Z" fill="#F8F2E7"/>
<path d="M44.2017 0.17895L44.1928 2.81933L40.783 6.2167L35.9696 6.20786L32.5722 2.798L32.581 0.0437535L31.7837 0.0437469L31.7737 3.12705L35.6376 7.00518L41.112 7.01523L44.9902 3.15131L44.9901 0.17895H44.2017Z" fill="#F8F2E7"/>
<path d="M35.481 0.021286L34.6731 0.0213058V2.81818L31.2632 6.21555L26.4498 6.20671L23.0524 2.79685V0.165367H22.2539V3.1259L26.1178 7.00404L31.5923 7.01408L35.4704 3.15016L35.481 0.021286Z" fill="#F8F2E7"/>
<path d="M44.997 21.947L42.1812 21.9382L38.7838 18.5283L38.7926 13.7149L42.2025 10.3175L44.997 10.3264V9.52906L41.8735 9.51901L37.9953 13.3829L37.9853 18.8574L41.8492 22.7355L44.9973 22.7456L44.997 21.947Z" fill="#F8F2E7"/>
<path d="M45 12.5282L42.1817 12.5194L38.7844 9.10953L38.7932 4.29609L42.2031 0.898726L45 0.907561V0.110238L41.874 0.100189L37.9959 3.96411L37.9858 9.43857L41.8498 13.3167L45 13.3268L45 12.5282Z" fill="#F8F2E7"/>
<path d="M28.3696 13.7362L28.3607 18.5496L24.9509 21.947L22.2542 21.9382V22.7355L25.2799 22.7455L29.158 18.8816L29.1681 13.4072L25.3042 9.52903L22.2542 9.52782V10.3264L24.9722 10.3263L28.3696 13.7362Z" fill="#F8F2E7"/>
<path d="M28.3693 4.31835L28.3604 9.13302L24.9493 12.5313L22.2542 12.5235V13.321L25.2784 13.33L29.158 9.46508L29.1681 3.98921L25.3027 0.110087L22.2557 0.103424L22.2542 0.901559L24.9706 0.907615L28.3693 4.31835Z" fill="#F8F2E7"/>
<path fill-rule="evenodd" clip-rule="evenodd" d="M15.7284 22.8109L6.97855 22.827L0.802845 29.0254L0.818904 37.7752L7.01732 43.9509L15.7671 43.9348L21.9428 37.7364L21.9268 28.9866L15.7284 22.8109ZM22.7284 28.6528L16.0592 22.0081L6.64478 22.0253L0 28.6946L0.0172782 38.109L6.68649 44.7537L16.1009 44.7365L22.7457 38.0673L22.7284 28.6528Z" fill="#F8F2E7"/>
<path d="M9.02856 38.3445L4.21425 38.3378L0.805263 41.7373L0.798537 44.277L0 44.6065L0.00765004 41.4056L3.88479 37.5393L9.36025 37.5469L13.2266 41.4241L13.2189 44.6249L12.4213 44.2933L12.428 41.7535L9.02856 38.3445Z" fill="#F8F2E7"/>
<path d="M18.5284 38.3378L13.7149 38.3466L10.3176 41.7565L10.3264 44.2954L9.52909 44.6273L9.51904 41.4275L13.383 37.5493L18.8574 37.5393L22.7356 41.4032L22.7456 44.6031L21.9471 44.274L21.9382 41.7352L18.5284 38.3378Z" fill="#F8F2E7"/>
<path d="M0.798071 22.1861L0.806906 24.8264L4.21676 28.2238L9.0302 28.215L12.4276 24.8051L12.4187 22.0509L13.2161 22.0509L13.2261 25.1342L9.36218 29.0123L3.88772 29.0223L0.00958252 25.1584L0.00963479 22.1861H0.798071Z" fill="#F8F2E7"/>
<path d="M9.51904 22.0293L10.3269 22.0294V24.8262L13.7368 28.2236L18.5502 28.2148L21.9476 24.8049V22.1734H22.7461V25.134L18.8822 29.0121L13.4077 29.0221L9.52959 25.1582L9.51904 22.0293Z" fill="#F8F2E7"/>
<path d="M0.00304791 43.9551L2.81882 43.9463L6.21619 40.5364L6.20736 35.723L2.79749 32.3256L0.00297911 32.3344V31.5371L3.12654 31.5271L7.00468 35.391L7.01473 40.8655L3.1508 44.7436L0.00268555 44.7536L0.00304791 43.9551Z" fill="#F8F2E7"/>
<path d="M0 34.5363L2.81825 34.5274L6.21562 31.1176L6.20679 26.3041L2.79693 22.9068L3.74593e-05 22.9156V22.1183L3.12598 22.1082L7.00411 25.9722L7.01416 31.4466L3.15023 35.3248L3.74593e-05 35.3348L0 34.5363Z" fill="#F8F2E7"/>
<path d="M16.6304 35.7443L16.6393 40.5577L20.0491 43.9551L22.7458 43.9462V44.7436L19.7201 44.7536L15.842 40.8897L15.8319 35.4152L19.6958 31.5371L22.7458 31.5359V32.3344L20.0278 32.3344L16.6304 35.7443Z" fill="#F8F2E7"/>
<path d="M16.6307 26.3264L16.6396 31.1411L20.0507 34.5393L22.7458 34.5315V35.3291L19.7216 35.338L15.842 31.4731L15.8319 25.9973L19.6973 22.1181L22.7443 22.1115L22.7458 22.9096L20.0294 22.9157L16.6307 26.3264Z" fill="#F8F2E7"/>
</svg>
