<svg width="71" height="70" viewBox="0 0 71 70" fill="none" xmlns="http://www.w3.org/2000/svg">
<path fill-rule="evenodd" clip-rule="evenodd" d="M24.601 68.7443L10.9153 68.7191L1.25574 59.0241L1.28086 45.3384L10.9759 35.6789L24.6616 35.704L34.3211 45.399L34.296 59.0847L24.601 68.7443ZM35.5498 59.6068L25.1184 70L10.3932 69.973L0 59.5416L0.0270251 44.8163L10.4584 34.4231L25.1837 34.4502L35.5769 44.8816L35.5498 59.6068Z" fill="#E7CB97"/>
<path d="M14.1217 44.4479L6.59157 44.4584L1.25952 39.1412L1.249 35.1688L0 34.6535L0.0119655 39.66L6.07626 45.7074L14.6405 45.6954L20.6879 39.6311L20.6759 34.6246L19.4283 35.1434L19.4389 39.1158L14.1217 44.4479Z" fill="#E7CB97"/>
<path d="M28.9808 44.4584L21.452 44.4446L16.1382 39.1112L16.152 35.1401L14.9049 34.6209L14.8892 39.6258L20.9328 45.6917L29.4955 45.7074L35.5613 39.6638L35.577 34.6588L34.328 35.1735L34.3142 39.1445L28.9808 44.4584Z" fill="#E7CB97"/>
<path d="M1.24842 69.7189L1.26224 65.5891L6.59565 60.2752L14.1244 60.289L19.4383 65.6224L19.4245 69.9304L20.6716 69.9304L20.6873 65.1078L14.6437 59.0419L6.08098 59.0262L0.0151367 65.0698L0.0152185 69.7189H1.24842Z" fill="#E7CB97"/>
<path d="M14.8892 69.9668L16.1528 69.9668V65.5921L21.4862 60.2783L29.0149 60.2921L34.3288 65.6255V69.7414H35.5778V65.1108L29.5342 59.045L20.9715 59.0293L14.9057 65.0729L14.8892 69.9668Z" fill="#E7CB97"/>
<path d="M0.00447302 35.6723L4.40866 35.6862L9.72254 41.0196L9.70872 48.5483L4.3753 53.8622L0.00436541 53.8484V55.0955L4.88997 55.1112L10.9558 49.0676L10.9715 40.5049L4.92791 34.4391L0.00390625 34.4233L0.00447302 35.6723Z" fill="#E7CB97"/>
<path d="M0 50.4044L4.40807 50.4182L9.72194 55.7516L9.70812 63.2804L4.37471 68.5943L5.85906e-05 68.5804V69.8275L4.88938 69.8433L10.9552 63.7996L10.9709 55.237L4.92732 49.1711L5.85906e-05 49.1554L0 50.4044Z" fill="#E7CB97"/>
<path d="M26.0122 48.515L26.026 40.9862L31.3594 35.6724L35.5773 35.6862V34.4391L30.8447 34.4234L24.7789 40.467L24.7632 49.0297L30.8068 55.0955L35.5773 55.0974V53.8484L31.3261 53.8484L26.0122 48.515Z" fill="#E7CB97"/>
<path d="M26.0127 63.2456L26.0265 55.7149L31.3619 50.3997L35.5773 50.4119V49.1645L30.8471 49.1504L24.7789 55.1956L24.7632 63.7604L30.8091 69.8278L35.575 69.8383L35.5773 68.5899L31.3286 68.5804L26.0127 63.2456Z" fill="#E7CB97"/>
<path fill-rule="evenodd" clip-rule="evenodd" d="M45.7843 68.7443L59.47 68.7191L69.1295 59.0241L69.1044 45.3384L59.4094 35.6789L45.7236 35.704L36.0641 45.399L36.0892 59.0847L45.7843 68.7443ZM34.8354 59.6068L45.2668 70L59.9921 69.973L70.3853 59.5416L70.3582 44.8163L59.9268 34.4231L45.2016 34.4502L34.8084 44.8816L34.8354 59.6068Z" fill="#E7CB97"/>
<path d="M56.2636 44.4479L63.7937 44.4584L69.1257 39.1412L69.1363 35.1688L70.3853 34.6535L70.3733 39.66L64.309 45.7074L55.7448 45.6954L49.6974 39.6311L49.7093 34.6246L50.9569 35.1434L50.9464 39.1158L56.2636 44.4479Z" fill="#E7CB97"/>
<path d="M41.4045 44.4584L48.9332 44.4446L54.2471 39.1112L54.2333 35.1401L55.4804 34.6209L55.4961 39.6258L49.4525 45.6917L40.8898 45.7074L34.8239 39.6638L34.8082 34.6588L36.0572 35.1735L36.071 39.1445L41.4045 44.4584Z" fill="#E7CB97"/>
<path d="M69.1368 69.7196L69.123 65.5897L63.7896 60.2758L56.2608 60.2896L50.947 65.6231L50.9608 69.931L49.7137 69.931L49.698 65.1084L55.7416 59.0425L64.3043 59.0268L70.3701 65.0704L70.37 69.7196H69.1368Z" fill="#E7CB97"/>
<path d="M55.4961 69.9668L54.2325 69.9668V65.5921L48.8991 60.2783L41.3703 60.2921L36.0564 65.6255V69.7414H34.8074V65.1108L40.8511 59.045L49.4137 59.0293L55.4796 65.0729L55.4961 69.9668Z" fill="#E7CB97"/>
<path d="M70.3808 35.6723L65.9766 35.6862L60.6627 41.0196L60.6765 48.5483L66.01 53.8622L70.3809 53.8484V55.0955L65.4953 55.1112L59.4294 49.0676L59.4137 40.5049L65.4573 34.4391L70.3813 34.4233L70.3808 35.6723Z" fill="#E7CB97"/>
<path d="M70.3853 50.4044L65.9772 50.4182L60.6633 55.7516L60.6771 63.2804L66.0105 68.5943L70.3852 68.5804V69.8275L65.4959 69.8433L59.43 63.7996L59.4143 55.237L65.4579 49.1711L70.3852 49.1554L70.3853 50.4044Z" fill="#E7CB97"/>
<path d="M44.3731 48.515L44.3592 40.9862L39.0258 35.6724L34.808 35.6862V34.4391L39.5405 34.4234L45.6064 40.467L45.6221 49.0297L39.5784 55.0955L34.808 55.0974V53.8484L39.0592 53.8484L44.3731 48.515Z" fill="#E7CB97"/>
<path d="M44.3726 63.2456L44.3588 55.7149L39.0233 50.3997L34.808 50.4119V49.1645L39.5382 49.1504L45.6063 55.1956L45.6221 63.7604L39.5762 69.8278L34.8102 69.8383L34.808 68.5899L39.0567 68.5804L44.3726 63.2456Z" fill="#E7CB97"/>
<path fill-rule="evenodd" clip-rule="evenodd" d="M24.601 34.3212L10.9153 34.296L1.25574 24.601L1.28086 10.9153L10.9759 1.25578L24.6616 1.28089L34.3211 10.9759L34.296 24.6617L24.601 34.3212ZM35.5498 25.1837L25.1184 35.5769L10.3932 35.5499L0 25.1185L0.0270251 10.3932L10.4584 3.43323e-05L25.1837 0.0270576L35.5769 10.4585L35.5498 25.1837Z" fill="#E7CB97"/>
<path d="M14.1217 10.0247L6.59157 10.0352L1.25952 4.71801L1.249 0.745581L0 0.23027L0.0119655 5.23681L6.07626 11.2842L14.6405 11.2722L20.6879 5.20792L20.6759 0.201382L19.4283 0.72018L19.4389 4.69261L14.1217 10.0247Z" fill="#E7CB97"/>
<path d="M28.9808 10.0352L21.452 10.0214L16.1382 4.68795L16.152 0.716885L14.9049 0.197634L14.8892 5.20262L20.9328 11.2685L29.4955 11.2842L35.5613 5.24056L35.577 0.235573L34.328 0.750244L34.3142 4.72131L28.9808 10.0352Z" fill="#E7CB97"/>
<path d="M1.24842 35.2978L1.26224 31.1679L6.59565 25.8541L14.1244 25.8679L19.4383 31.2013L19.4245 35.5093L20.6716 35.5093L20.6873 30.6866L14.6437 24.6208L6.08098 24.6051L0.0151367 30.6487L0.0152185 35.2978H1.24842Z" fill="#E7CB97"/>
<path d="M14.8892 35.5436L16.1528 35.5435V31.1689L21.4862 25.855L29.0149 25.8689L34.3288 31.2023V35.3182H35.5778V30.6876L29.5342 24.6218L20.9715 24.606L14.9057 30.6497L14.8892 35.5436Z" fill="#E7CB97"/>
<path d="M0.00447302 1.24912L4.40866 1.26294L9.72254 6.59635L9.70872 14.1251L4.3753 19.439L0.00436541 19.4252V20.6723L4.88997 20.688L10.9558 14.6444L10.9715 6.08168L4.92791 0.0158367L0.00390625 0.000120163L0.00447302 1.24912Z" fill="#E7CB97"/>
<path d="M0 15.9813L4.40807 15.9951L9.72194 21.3285L9.70812 28.8573L4.37471 34.1712L5.85906e-05 34.1573V35.4044L4.88938 35.4202L10.9552 29.3765L10.9709 20.8139L4.92732 14.748L5.85906e-05 14.7323L0 15.9813Z" fill="#E7CB97"/>
<path d="M26.0122 14.0919L26.026 6.56315L31.3594 1.24928L35.5773 1.26309V0.0159855L30.8447 0.000276566L24.7789 6.04389L24.7632 14.6066L30.8068 20.6724L35.5773 20.6743V19.4253L31.3261 19.4253L26.0122 14.0919Z" fill="#E7CB97"/>
<path d="M26.0127 28.8225L26.0265 21.2918L31.3619 15.9766L35.5773 15.9888V14.7414L30.8471 14.7273L24.7789 20.7725L24.7632 29.3373L30.8091 35.4047L35.575 35.4152L35.5773 34.1668L31.3286 34.1573L26.0127 28.8225Z" fill="#E7CB97"/>
</svg>
