<svg width="399" height="352" viewBox="0 0 399 352" fill="none" xmlns="http://www.w3.org/2000/svg">
<g clip-path="url(#clip0)">
<path fill-rule="evenodd" clip-rule="evenodd" d="M46.5893 333.305L20.3931 333.353L1.90364 351.911L1.95172 378.107L20.5092 396.596L46.7053 396.548L65.1948 377.991L65.1467 351.795L46.5893 333.305ZM67.5467 350.795L47.5797 330.901L19.3938 330.953L-0.5 350.92L-0.448271 379.106L19.5187 399L47.7046 398.948L67.5984 378.981L67.5467 350.795Z" fill="#F8F2E7"/>
<path d="M1.88996 331.436L1.91641 339.341L12.1252 349.512L26.5362 349.486L36.7076 339.277L36.6811 331.031L39.0682 331.031L39.0983 340.262L27.5301 351.873L11.1401 351.903L-0.470703 340.335L-0.470547 331.436H1.88996Z" fill="#F8F2E7"/>
<path d="M27.999 330.964L30.4177 330.965V339.338L40.6265 349.51L55.0375 349.483L65.2089 339.274V331.396H67.5996V340.259L56.0314 351.87L39.6414 351.9L28.0306 340.332L27.999 330.964Z" fill="#F8F2E7"/>
<path d="M-0.5 368.409L7.93759 368.383L18.109 358.174L18.0825 343.763L7.87373 333.592L-0.499888 333.618V331.231L8.85888 331.201L20.4696 342.769L20.4997 359.159L8.9315 370.77L-0.499888 370.8L-0.5 368.409Z" fill="#F8F2E7"/>
<path d="M49.2906 343.831L49.317 358.245L59.5297 368.419L67.5985 368.396V370.784L58.5442 370.811L46.929 359.239L46.8989 342.845L58.4715 331.231L67.5941 331.211L67.5985 333.601L59.4658 333.619L49.2906 343.831Z" fill="#F8F2E7"/>
<path fill-rule="evenodd" clip-rule="evenodd" d="M112.984 333.305L86.7881 333.353L68.2987 351.911L68.3467 378.107L86.9042 396.596L113.1 396.548L131.59 377.991L131.542 351.795L112.984 333.305ZM133.942 350.795L113.975 330.901L85.7889 330.953L65.895 350.92L65.9467 379.106L85.9137 399L114.1 398.948L133.993 378.981L133.942 350.795Z" fill="#F8F2E7"/>
<path d="M68.285 331.436L68.3114 339.341L78.5202 349.512L92.9312 349.486L103.103 339.277L103.076 331.031L105.463 331.031L105.493 340.262L93.9251 351.873L77.5351 351.903L65.9243 340.335L65.9245 331.436H68.285Z" fill="#F8F2E7"/>
<path d="M94.394 330.964L96.8127 330.965V339.338L107.022 349.51L121.433 349.483L131.604 339.274V331.396H133.995V340.259L122.426 351.87L106.036 351.9L94.4256 340.332L94.394 330.964Z" fill="#F8F2E7"/>
<path d="M65.895 368.409L74.3326 368.383L84.504 358.174L84.4775 343.763L74.2688 333.592L65.8951 333.618V331.231L75.2539 331.201L86.8647 342.769L86.8947 359.159L75.3265 370.77L65.8951 370.8L65.895 368.409Z" fill="#F8F2E7"/>
<path d="M115.686 343.831L115.713 358.245L125.925 368.419L133.994 368.396V370.784L124.94 370.811L113.325 359.239L113.294 342.845L124.867 331.231L133.99 331.211L133.994 333.601L125.861 333.619L115.686 343.831Z" fill="#F8F2E7"/>
<path fill-rule="evenodd" clip-rule="evenodd" d="M46.5893 266.91L20.3931 266.958L1.90364 285.515L1.95172 311.711L20.5092 330.201L46.7053 330.153L65.1948 311.595L65.1467 285.399L46.5893 266.91ZM67.5467 284.4L47.5797 264.506L19.3938 264.558L-0.5 284.525L-0.448271 312.711L19.5187 332.605L47.7046 332.553L67.5984 312.586L67.5467 284.4Z" fill="#F8F2E7"/>
<path d="M26.5306 313.415L12.1171 313.395L1.91088 323.573L1.89074 331.176L-0.5 332.163L-0.477096 322.58L11.1307 311.004L27.5237 311.027L39.0991 322.635L39.0762 332.218L36.6882 331.225L36.7084 323.621L26.5306 313.415Z" fill="#F8F2E7"/>
<path d="M54.9721 313.395L40.5612 313.421L30.3898 323.63L30.4162 331.231L28.0291 332.225L27.999 322.645L39.5672 311.034L55.9573 311.004L67.568 322.572L67.5981 332.153L65.2074 331.168L65.1809 323.566L54.9721 313.395Z" fill="#F8F2E7"/>
<path d="M1.88996 265.041L1.91641 272.946L12.1252 283.117L26.5362 283.091L36.7076 272.882L36.6811 264.636L39.0682 264.636L39.0983 273.867L27.5301 285.478L11.1401 285.508L-0.470703 273.939L-0.470547 265.041H1.88996Z" fill="#F8F2E7"/>
<path d="M27.999 264.569L30.4177 264.569V272.942L40.6265 283.114L55.0375 283.087L65.2089 272.878V265H67.5996V273.864L56.0314 285.474L39.6414 285.504L28.0306 273.936L27.999 264.569Z" fill="#F8F2E7"/>
<path d="M-0.491103 330.213L7.93905 330.186L18.1105 319.977L18.084 305.567L7.8752 295.395L-0.491309 295.422V293.034L8.86034 293.004L20.4711 304.573L20.5012 320.963L8.93296 332.573L-0.492188 332.603L-0.491103 330.213Z" fill="#F8F2E7"/>
<path d="M-0.5 302.014L7.93759 301.987L18.109 291.778L18.0825 277.367L7.87373 267.196L-0.499888 267.222V264.835L8.85888 264.805L20.4696 276.373L20.4997 292.763L8.9315 304.374L-0.499888 304.404L-0.5 302.014Z" fill="#F8F2E7"/>
<path d="M49.2897 305.63L49.3161 320.041L59.5249 330.213L67.5985 330.186V332.573L58.5398 332.603L46.929 321.035L46.8989 304.645L58.4671 293.034L67.5985 293.031V295.422L59.4611 295.421L49.2897 305.63Z" fill="#F8F2E7"/>
<path d="M49.2906 277.434L49.317 291.849L59.5297 302.023L67.5985 301.999V304.387L58.5442 304.414L46.929 292.843L46.8989 276.449L58.4715 264.835L67.5941 264.815L67.5985 267.204L59.4658 267.223L49.2906 277.434Z" fill="#F8F2E7"/>
<path fill-rule="evenodd" clip-rule="evenodd" d="M112.614 266.911L86.418 266.959L67.9285 285.517L67.9766 311.713L86.5341 330.202L112.73 330.154L131.22 311.597L131.172 285.4L112.614 266.911ZM133.572 284.401L113.605 264.507L85.4187 264.559L65.5249 284.526L65.5766 312.712L85.5436 332.606L113.73 332.554L133.623 312.587L133.572 284.401Z" fill="#F8F2E7"/>
<path d="M92.5556 313.418L78.142 313.398L67.9358 323.576L67.9156 331.18L65.5249 332.166L65.5478 322.583L77.1556 311.008L93.5486 311.03L105.124 322.638L105.101 332.221L102.713 331.228L102.733 323.625L92.5556 313.418Z" fill="#F8F2E7"/>
<path d="M120.997 313.398L106.586 313.425L96.4147 323.634L96.4411 331.235L94.054 332.229L94.0239 322.648L105.592 311.038L121.982 311.008L133.593 322.576L133.623 332.156L131.232 331.171L131.206 323.57L120.997 313.398Z" fill="#F8F2E7"/>
<path d="M67.9149 265.041L67.9413 272.946L78.1501 283.117L92.5611 283.091L102.732 272.882L102.706 264.636L105.093 264.636L105.123 273.867L93.555 285.478L77.165 285.508L65.5542 273.939L65.5544 265.041H67.9149Z" fill="#F8F2E7"/>
<path d="M94.0239 264.572L96.4426 264.572V272.946L106.651 283.117L121.062 283.091L131.234 272.882V265.003H133.625V273.867L122.056 285.478L105.666 285.508L94.0555 273.94L94.0239 264.572Z" fill="#F8F2E7"/>
<path d="M65.5338 330.216L73.964 330.189L84.1354 319.981L84.1089 305.57L73.9001 295.398L65.5336 295.425V293.038L74.8852 293.008L86.496 304.576L86.5261 320.966L74.9579 332.577L65.5327 332.607L65.5338 330.216Z" fill="#F8F2E7"/>
<path d="M65.5249 302.017L73.9625 301.99L84.1339 291.782L84.1074 277.371L73.8986 267.199L65.525 267.226V264.839L74.8838 264.809L86.4945 276.377L86.5246 292.767L74.9564 304.378L65.525 304.408L65.5249 302.017Z" fill="#F8F2E7"/>
<path d="M115.315 305.633L115.342 320.044L125.55 330.216L133.624 330.189V332.576L124.565 332.607L112.954 321.038L112.924 304.648L124.493 293.038L133.624 293.034V295.425L125.486 295.425L115.315 305.633Z" fill="#F8F2E7"/>
<path d="M115.316 277.437L115.342 291.852L125.555 302.026L133.624 302.003V304.39L124.57 304.417L112.954 292.846L112.924 276.452L124.497 264.838L133.619 264.818L133.624 267.208L125.491 267.226L115.316 277.437Z" fill="#F8F2E7"/>
<path fill-rule="evenodd" clip-rule="evenodd" d="M178.843 333.305L152.647 333.353L134.158 351.911L134.206 378.107L152.763 396.596L178.959 396.548L197.449 377.991L197.401 351.795L178.843 333.305ZM199.801 350.795L179.834 330.901L151.648 330.953L131.754 350.92L131.806 379.106L151.773 399L179.959 398.948L199.852 378.981L199.801 350.795Z" fill="#F8F2E7"/>
<path d="M134.143 331.436L134.17 339.341L144.379 349.512L158.79 349.486L168.961 339.277L168.935 331.031L171.322 331.031L171.352 340.262L159.784 351.873L143.393 351.903L131.783 340.335L131.783 331.436H134.143Z" fill="#F8F2E7"/>
<path d="M160.252 330.964L162.671 330.965V339.338L172.88 349.51L187.291 349.483L197.462 339.274V331.396H199.853V340.259L188.285 351.87L171.895 351.9L160.284 340.332L160.252 330.964Z" fill="#F8F2E7"/>
<path d="M131.753 368.409L140.191 368.383L150.362 358.174L150.336 343.763L140.127 333.592L131.754 333.618V331.231L141.112 331.201L152.723 342.769L152.753 359.159L141.185 370.77L131.754 370.8L131.753 368.409Z" fill="#F8F2E7"/>
<path d="M181.544 343.831L181.57 358.245L191.783 368.419L199.852 368.396V370.784L190.798 370.811L179.182 359.239L179.152 342.845L190.725 331.231L199.847 331.211L199.852 333.601L191.719 333.619L181.544 343.831Z" fill="#F8F2E7"/>
<path fill-rule="evenodd" clip-rule="evenodd" d="M245.238 333.305L219.042 333.353L200.553 351.911L200.601 378.107L219.158 396.596L245.354 396.548L263.844 377.991L263.796 351.795L245.238 333.305ZM266.196 350.795L246.229 330.901L218.043 330.953L198.149 350.92L198.201 379.106L218.168 399L246.354 398.948L266.247 378.981L266.196 350.795Z" fill="#F8F2E7"/>
<path d="M200.538 331.436L200.565 339.341L210.774 349.512L225.185 349.486L235.356 339.277L235.33 331.031L237.717 331.031L237.747 340.262L226.179 351.873L209.789 351.903L198.178 340.335L198.178 331.436H200.538Z" fill="#F8F2E7"/>
<path d="M226.647 330.964L229.066 330.965V339.338L239.275 349.51L253.686 349.483L263.857 339.274V331.396H266.248V340.259L254.68 351.87L238.29 351.9L226.679 340.332L226.647 330.964Z" fill="#F8F2E7"/>
<path d="M198.148 368.409L206.586 368.383L216.757 358.174L216.731 343.763L206.522 333.592L198.149 333.618V331.231L207.507 331.201L219.118 342.769L219.148 359.159L207.58 370.77L198.149 370.8L198.148 368.409Z" fill="#F8F2E7"/>
<path d="M247.939 343.831L247.965 358.245L258.178 368.419L266.247 368.396V370.784L257.193 370.811L245.577 359.239L245.547 342.845L257.12 331.231L266.243 331.211L266.247 333.601L258.114 333.619L247.939 343.831Z" fill="#F8F2E7"/>
<path fill-rule="evenodd" clip-rule="evenodd" d="M178.843 266.91L152.647 266.958L134.157 285.515L134.205 311.711L152.763 330.201L178.959 330.153L197.448 311.595L197.4 285.399L178.843 266.91ZM199.8 284.4L179.833 264.506L151.647 264.558L131.753 284.525L131.805 312.711L151.772 332.605L179.958 332.553L199.852 312.586L199.8 284.4Z" fill="#F8F2E7"/>
<path d="M158.784 313.415L144.37 313.395L134.164 323.573L134.144 331.176L131.753 332.163L131.776 322.58L143.384 311.004L159.777 311.027L171.353 322.635L171.33 332.218L168.942 331.225L168.962 323.621L158.784 313.415Z" fill="#F8F2E7"/>
<path d="M187.226 313.395L172.815 313.421L162.643 323.63L162.67 331.231L160.283 332.225L160.252 322.645L171.821 311.034L188.211 311.004L199.821 322.572L199.852 332.153L197.461 331.168L197.434 323.566L187.226 313.395Z" fill="#F8F2E7"/>
<path d="M134.143 265.04L134.17 272.945L144.379 283.116L158.79 283.09L168.961 272.881L168.935 264.635L171.322 264.635L171.352 273.866L159.784 285.477L143.393 285.507L131.783 273.939L131.783 265.04H134.143Z" fill="#F8F2E7"/>
<path d="M160.252 264.569L162.671 264.569V272.942L172.88 283.114L187.291 283.087L197.462 272.878V265H199.853V273.864L188.285 285.474L171.895 285.504L160.284 273.936L160.252 264.569Z" fill="#F8F2E7"/>
<path d="M131.762 330.213L140.192 330.186L150.364 319.977L150.337 305.567L140.129 295.395L131.762 295.422V293.034L141.114 293.004L152.725 304.573L152.755 320.963L141.186 332.573L131.761 332.603L131.762 330.213Z" fill="#F8F2E7"/>
<path d="M131.753 302.014L140.191 301.987L150.362 291.778L150.336 277.367L140.127 267.196L131.754 267.222V264.835L141.112 264.805L152.723 276.373L152.753 292.763L141.185 304.374L131.754 304.404L131.753 302.014Z" fill="#F8F2E7"/>
<path d="M181.543 305.63L181.57 320.041L191.778 330.213L199.852 330.186V332.573L190.793 332.603L179.182 321.035L179.152 304.645L190.721 293.034L199.852 293.031V295.422L191.714 295.421L181.543 305.63Z" fill="#F8F2E7"/>
<path d="M181.544 277.434L181.57 291.849L191.783 302.023L199.852 301.999V304.387L190.798 304.414L179.182 292.843L179.152 276.449L190.725 264.835L199.847 264.815L199.852 267.204L191.719 267.223L181.544 277.434Z" fill="#F8F2E7"/>
<path fill-rule="evenodd" clip-rule="evenodd" d="M244.868 266.911L218.671 266.959L200.182 285.517L200.23 311.713L218.788 330.202L244.984 330.154L263.473 311.597L263.425 285.4L244.868 266.911ZM265.825 284.401L245.858 264.507L217.672 264.559L197.778 284.526L197.83 312.712L217.797 332.606L245.983 332.554L265.877 312.587L265.825 284.401Z" fill="#F8F2E7"/>
<path d="M224.809 313.418L210.395 313.398L200.189 323.576L200.169 331.18L197.778 332.166L197.801 322.583L209.409 311.008L225.802 311.03L237.377 322.638L237.355 332.221L234.967 331.228L234.987 323.625L224.809 313.418Z" fill="#F8F2E7"/>
<path d="M253.25 313.398L238.839 313.425L228.668 323.634L228.695 331.235L226.307 332.229L226.277 322.648L237.846 311.038L254.236 311.008L265.846 322.576L265.876 332.156L263.486 331.171L263.459 323.57L253.25 313.398Z" fill="#F8F2E7"/>
<path d="M200.168 265.041L200.195 272.946L210.404 283.117L224.814 283.091L234.986 272.882L234.959 264.636L237.347 264.636L237.377 273.867L225.808 285.478L209.418 285.508L197.808 273.939L197.808 265.041H200.168Z" fill="#F8F2E7"/>
<path d="M226.277 264.572L228.696 264.572V272.946L238.905 283.117L253.316 283.091L263.487 272.882V265.003H265.878V273.867L254.31 285.478L237.92 285.508L226.309 273.94L226.277 264.572Z" fill="#F8F2E7"/>
<path d="M197.788 330.216L206.218 330.189L216.389 319.981L216.363 305.57L206.154 295.398L197.787 295.425V293.038L207.139 293.008L218.75 304.576L218.78 320.966L207.212 332.577L197.787 332.607L197.788 330.216Z" fill="#F8F2E7"/>
<path d="M197.778 302.017L206.216 301.99L216.387 291.782L216.361 277.371L206.152 267.199L197.778 267.226V264.839L207.137 264.809L218.748 276.377L218.778 292.767L207.21 304.378L197.778 304.408L197.778 302.017Z" fill="#F8F2E7"/>
<path d="M247.568 305.633L247.595 320.044L257.804 330.216L265.877 330.189V332.576L256.819 332.607L245.208 321.038L245.178 304.648L256.746 293.038L265.877 293.034V295.425L257.74 295.425L247.568 305.633Z" fill="#F8F2E7"/>
<path d="M247.569 277.437L247.596 291.852L257.809 302.026L265.877 302.003V304.39L256.823 304.417L245.208 292.846L245.178 276.452L256.75 264.838L265.873 264.818L265.877 267.208L257.745 267.226L247.569 277.437Z" fill="#F8F2E7"/>
<path fill-rule="evenodd" clip-rule="evenodd" d="M311.095 333.305L284.899 333.353L266.41 351.911L266.458 378.107L285.015 396.596L311.211 396.548L329.701 377.991L329.653 351.795L311.095 333.305ZM332.053 350.795L312.086 330.901L283.9 330.953L264.006 350.92L264.058 379.106L284.025 399L312.21 398.948L332.104 378.981L332.053 350.795Z" fill="#F8F2E7"/>
<path d="M266.396 331.437L266.423 339.342L276.632 349.513L291.043 349.487L301.214 339.278L301.187 331.032L303.575 331.032L303.605 340.263L292.036 351.874L275.646 351.904L264.036 340.336L264.036 331.437H266.396Z" fill="#F8F2E7"/>
<path d="M292.505 330.964L294.924 330.965V339.338L305.132 349.51L319.543 349.483L329.715 339.274V331.396H332.105V340.259L320.537 351.87L304.147 351.9L292.536 340.332L292.505 330.964Z" fill="#F8F2E7"/>
<path d="M264.006 368.409L272.443 368.383L282.615 358.174L282.588 343.763L272.38 333.592L264.006 333.618V331.231L273.365 331.201L284.975 342.769L285.006 359.159L273.437 370.77L264.006 370.8L264.006 368.409Z" fill="#F8F2E7"/>
<path d="M313.796 343.831L313.823 358.245L324.036 368.419L332.104 368.396V370.784L323.05 370.811L311.435 359.239L311.405 342.845L322.977 331.231L332.1 331.211L332.104 333.601L323.972 333.619L313.796 343.831Z" fill="#F8F2E7"/>
<path fill-rule="evenodd" clip-rule="evenodd" d="M377.49 333.305L351.294 333.353L332.805 351.911L332.853 378.107L351.41 396.596L377.606 396.548L396.096 377.991L396.048 351.795L377.49 333.305ZM398.448 350.795L378.481 330.901L350.295 330.953L330.401 350.92L330.453 379.106L350.42 399L378.605 398.948L398.499 378.981L398.448 350.795Z" fill="#F8F2E7"/>
<path d="M332.791 331.436L332.817 339.341L343.026 349.512L357.437 349.486L367.608 339.277L367.582 331.031L369.969 331.031L369.999 340.262L358.431 351.873L342.041 351.903L330.43 340.335L330.43 331.436H332.791Z" fill="#F8F2E7"/>
<path d="M358.9 330.964L361.319 330.965V339.338L371.527 349.51L385.938 349.483L396.11 339.274V331.396H398.5V340.259L386.932 351.87L370.542 351.9L358.931 340.332L358.9 330.964Z" fill="#F8F2E7"/>
<path d="M330.401 368.409L338.838 368.383L349.01 358.174L348.983 343.763L338.775 333.592L330.401 333.618V331.231L339.76 331.201L351.371 342.769L351.401 359.159L339.832 370.77L330.401 370.8L330.401 368.409Z" fill="#F8F2E7"/>
<path d="M380.191 343.831L380.218 358.245L390.431 368.419L398.499 368.396V370.784L389.445 370.811L377.83 359.239L377.8 342.845L389.372 331.231L398.495 331.211L398.499 333.601L390.367 333.619L380.191 343.831Z" fill="#F8F2E7"/>
<path fill-rule="evenodd" clip-rule="evenodd" d="M311.095 266.91L284.899 266.958L266.41 285.515L266.458 311.711L285.015 330.201L311.211 330.153L329.701 311.595L329.653 285.399L311.095 266.91ZM332.053 284.4L312.086 264.506L283.9 264.558L264.006 284.525L264.058 312.711L284.025 332.605L312.21 332.553L332.104 312.586L332.053 284.4Z" fill="#F8F2E7"/>
<path d="M291.037 313.415L276.623 313.395L266.417 323.573L266.397 331.176L264.006 332.163L264.029 322.58L275.637 311.004L292.03 311.027L303.605 322.635L303.582 332.218L301.194 331.225L301.214 323.621L291.037 313.415Z" fill="#F8F2E7"/>
<path d="M319.478 313.395L305.067 313.421L294.896 323.63L294.922 331.231L292.535 332.225L292.505 322.645L304.073 311.034L320.463 311.004L332.074 322.572L332.104 332.153L329.713 331.167L329.687 323.566L319.478 313.395Z" fill="#F8F2E7"/>
<path d="M266.396 265.041L266.423 272.946L276.632 283.117L291.043 283.091L301.214 272.882L301.187 264.636L303.575 264.636L303.605 273.867L292.036 285.478L275.646 285.508L264.036 273.939L264.036 265.041H266.396Z" fill="#F8F2E7"/>
<path d="M292.505 264.569L294.924 264.569V272.942L305.132 283.114L319.543 283.087L329.715 272.878V265H332.105V273.864L320.537 285.474L304.147 285.504L292.536 273.936L292.505 264.569Z" fill="#F8F2E7"/>
<path d="M264.015 330.212L272.445 330.186L282.616 319.977L282.59 305.566L272.381 295.395L264.015 295.421V293.034L273.366 293.004L284.977 304.572L285.007 320.962L273.439 332.573L264.014 332.603L264.015 330.212Z" fill="#F8F2E7"/>
<path d="M264.006 302.014L272.443 301.987L282.615 291.778L282.588 277.367L272.38 267.196L264.006 267.222V264.835L273.365 264.805L284.975 276.373L285.006 292.763L273.437 304.374L264.006 304.404L264.006 302.014Z" fill="#F8F2E7"/>
<path d="M313.796 305.63L313.822 320.041L324.031 330.212L332.105 330.186V332.573L323.046 332.603L311.435 321.035L311.405 304.645L322.973 293.034L332.105 293.031V295.421L323.967 295.421L313.796 305.63Z" fill="#F8F2E7"/>
<path d="M313.797 277.434L313.823 291.848L324.036 302.022L332.105 301.999V304.387L323.051 304.414L311.435 292.843L311.405 276.448L322.978 264.835L332.1 264.815L332.105 267.204L323.972 267.222L313.797 277.434Z" fill="#F8F2E7"/>
<path fill-rule="evenodd" clip-rule="evenodd" d="M377.121 266.911L350.924 266.959L332.435 285.517L332.483 311.713L351.04 330.202L377.237 330.154L395.726 311.597L395.678 285.4L377.121 266.911ZM398.078 284.401L378.111 264.507L349.925 264.559L330.031 284.526L330.083 312.712L350.05 332.606L378.236 332.554L398.13 312.587L398.078 284.401Z" fill="#F8F2E7"/>
<path d="M357.061 313.418L342.648 313.398L332.442 323.576L332.422 331.18L330.031 332.166L330.054 322.583L341.661 311.008L358.054 311.03L369.63 322.638L369.607 332.221L367.219 331.228L367.239 323.625L357.061 313.418Z" fill="#F8F2E7"/>
<path d="M385.503 313.398L371.092 313.425L360.921 323.634L360.947 331.235L358.56 332.229L358.53 322.648L370.098 311.038L386.488 311.008L398.099 322.576L398.129 332.156L395.738 331.171L395.712 323.57L385.503 313.398Z" fill="#F8F2E7"/>
<path d="M332.421 265.041L332.448 272.946L342.656 283.117L357.067 283.091L367.239 272.882L367.212 264.636L369.599 264.636L369.63 273.867L358.061 285.478L341.671 285.508L330.061 273.939L330.061 265.041H332.421Z" fill="#F8F2E7"/>
<path d="M358.53 264.572L360.948 264.572V272.946L371.157 283.117L385.568 283.091L395.74 272.882V265.003H398.13V273.867L386.562 285.478L370.172 285.508L358.561 273.94L358.53 264.572Z" fill="#F8F2E7"/>
<path d="M330.04 330.216L338.47 330.189L348.641 319.981L348.615 305.57L338.406 295.398L330.039 295.425V293.038L339.391 293.008L351.002 304.576L351.032 320.966L339.464 332.577L330.039 332.607L330.04 330.216Z" fill="#F8F2E7"/>
<path d="M330.031 302.017L338.468 301.99L348.64 291.782L348.613 277.371L338.404 267.199L330.031 267.226V264.839L339.39 264.809L351 276.377L351.03 292.767L339.462 304.378L330.031 304.408L330.031 302.017Z" fill="#F8F2E7"/>
<path d="M379.821 305.633L379.847 320.044L390.056 330.216L398.13 330.189V332.576L389.071 332.607L377.46 321.038L377.43 304.648L388.998 293.038L398.13 293.034V295.425L389.992 295.425L379.821 305.633Z" fill="#F8F2E7"/>
<path d="M379.822 277.437L379.848 291.852L390.061 302.026L398.13 302.003V304.39L389.075 304.417L377.46 292.846L377.43 276.452L389.003 264.838L398.125 264.818L398.13 267.208L389.997 267.226L379.822 277.437Z" fill="#F8F2E7"/>
<path fill-rule="evenodd" clip-rule="evenodd" d="M46.5893 201.052L20.3931 201.1L1.90364 219.658L1.95172 245.854L20.5092 264.343L46.7053 264.295L65.1948 245.738L65.1467 219.542L46.5893 201.052ZM67.5467 218.542L47.5797 198.648L19.3938 198.7L-0.5 218.667L-0.448271 246.853L19.5187 266.747L47.7046 266.695L67.5984 246.728L67.5467 218.542Z" fill="#F8F2E7"/>
<path d="M26.5306 247.558L12.1171 247.538L1.91088 257.716L1.89074 265.32L-0.5 266.306L-0.477096 256.723L11.1307 245.147L27.5237 245.17L39.0991 256.778L39.0762 266.361L36.6882 265.368L36.7084 257.765L26.5306 247.558Z" fill="#F8F2E7"/>
<path d="M54.9721 247.538L40.5612 247.565L30.3898 257.773L30.4162 265.375L28.0291 266.368L27.999 256.788L39.5672 245.178L55.9573 245.147L67.568 256.716L67.5981 266.296L65.2074 265.311L65.1809 257.71L54.9721 247.538Z" fill="#F8F2E7"/>
<path d="M1.88996 199.183L1.91641 207.088L12.1252 217.26L26.5362 217.233L36.7076 207.024L36.6811 198.778L39.0682 198.778L39.0983 208.009L27.5301 219.62L11.1401 219.65L-0.470703 208.082L-0.470547 199.183H1.88996Z" fill="#F8F2E7"/>
<path d="M27.999 198.711L30.4177 198.711V207.085L40.6265 217.256L55.0375 217.23L65.2089 207.021V199.143H67.5996V208.006L56.0314 219.617L39.6414 219.647L28.0306 208.079L27.999 198.711Z" fill="#F8F2E7"/>
<path d="M-0.491103 264.356L7.93905 264.329L18.1105 254.121L18.084 239.71L7.8752 229.538L-0.491309 229.565V227.178L8.86034 227.147L20.4711 238.716L20.5012 255.106L8.93296 266.716L-0.492188 266.747L-0.491103 264.356Z" fill="#F8F2E7"/>
<path d="M-0.5 236.156L7.93759 236.13L18.109 225.921L18.0825 211.51L7.87373 201.338L-0.499888 201.365V198.978L8.85888 198.948L20.4696 210.516L20.4997 226.906L8.9315 238.517L-0.499888 238.547L-0.5 236.156Z" fill="#F8F2E7"/>
<path d="M49.2897 239.773L49.3161 254.184L59.5249 264.355L67.5985 264.329V266.716L58.5398 266.746L46.929 255.178L46.8989 238.788L58.4671 227.177L67.5985 227.174V229.564L59.4611 229.564L49.2897 239.773Z" fill="#F8F2E7"/>
<path d="M49.2906 211.577L49.317 225.992L59.5297 236.166L67.5985 236.142V238.53L58.5442 238.557L46.929 226.986L46.8989 210.592L58.4715 198.978L67.5941 198.958L67.5985 201.348L59.4658 201.366L49.2906 211.577Z" fill="#F8F2E7"/>
<path fill-rule="evenodd" clip-rule="evenodd" d="M112.984 201.052L86.7881 201.1L68.2987 219.658L68.3467 245.854L86.9042 264.343L113.1 264.295L131.59 245.738L131.542 219.542L112.984 201.052ZM133.942 218.542L113.975 198.648L85.7889 198.7L65.895 218.667L65.9467 246.853L85.9137 266.747L114.1 266.695L133.993 246.728L133.942 218.542Z" fill="#F8F2E7"/>
<path d="M92.9257 247.558L78.5121 247.538L68.3059 257.716L68.2858 265.32L65.895 266.306L65.9179 256.723L77.5257 245.147L93.9187 245.17L105.494 256.778L105.471 266.361L103.083 265.368L103.103 257.765L92.9257 247.558Z" fill="#F8F2E7"/>
<path d="M121.367 247.538L106.956 247.565L96.7848 257.773L96.8112 265.375L94.4241 266.368L94.394 256.788L105.962 245.178L122.352 245.147L133.963 256.716L133.993 266.296L131.602 265.311L131.576 257.71L121.367 247.538Z" fill="#F8F2E7"/>
<path d="M68.285 199.183L68.3114 207.088L78.5202 217.26L92.9312 217.233L103.103 207.024L103.076 198.778L105.463 198.778L105.493 208.009L93.9251 219.62L77.5351 219.65L65.9243 208.082L65.9245 199.183H68.285Z" fill="#F8F2E7"/>
<path d="M94.394 198.711L96.8127 198.711V207.085L107.022 217.256L121.433 217.23L131.604 207.021V199.143H133.995V208.006L122.426 219.617L106.036 219.647L94.4256 208.079L94.394 198.711Z" fill="#F8F2E7"/>
<path d="M65.9044 264.356L74.3346 264.329L84.506 254.121L84.4795 239.71L74.2707 229.538L65.9042 229.565V227.178L75.2558 227.147L86.8666 238.716L86.8967 255.106L75.3285 266.716L65.9033 266.747L65.9044 264.356Z" fill="#F8F2E7"/>
<path d="M65.895 236.156L74.3326 236.13L84.504 225.921L84.4775 211.51L74.2688 201.338L65.8951 201.365V198.978L75.2539 198.948L86.8647 210.516L86.8947 226.906L75.3265 238.517L65.8951 238.547L65.895 236.156Z" fill="#F8F2E7"/>
<path d="M115.685 239.773L115.712 254.184L125.92 264.355L133.994 264.329V266.716L124.935 266.746L113.325 255.178L113.294 238.788L124.863 227.177L133.994 227.174V229.564L125.857 229.564L115.685 239.773Z" fill="#F8F2E7"/>
<path d="M115.686 211.577L115.713 225.992L125.925 236.166L133.994 236.142V238.53L124.94 238.557L113.325 226.986L113.294 210.592L124.867 198.978L133.99 198.958L133.994 201.348L125.861 201.366L115.686 211.577Z" fill="#F8F2E7"/>
<path fill-rule="evenodd" clip-rule="evenodd" d="M46.5893 134.657L20.3931 134.705L1.90364 153.262L1.95172 179.458L20.5092 197.948L46.7053 197.9L65.1948 179.342L65.1467 153.146L46.5893 134.657ZM67.5467 152.147L47.5797 132.253L19.3938 132.305L-0.5 152.272L-0.448271 180.458L19.5187 200.352L47.7046 200.3L67.5984 180.333L67.5467 152.147Z" fill="#F8F2E7"/>
<path d="M26.5306 181.162L12.1171 181.142L1.91088 191.319L1.89074 198.923L-0.5 199.91L-0.477096 190.326L11.1307 178.751L27.5237 178.774L39.0991 190.382L39.0762 199.965L36.6882 198.972L36.7084 191.368L26.5306 181.162Z" fill="#F8F2E7"/>
<path d="M54.9721 181.142L40.5612 181.168L30.3898 191.377L30.4162 198.978L28.0291 199.972L27.999 190.392L39.5672 178.781L55.9573 178.751L67.568 190.319L67.5981 199.899L65.2074 198.914L65.1809 191.313L54.9721 181.142Z" fill="#F8F2E7"/>
<path d="M1.88996 132.788L1.91641 140.693L12.1252 150.864L26.5362 150.838L36.7076 140.629L36.6811 132.383L39.0682 132.383L39.0983 141.614L27.5301 153.225L11.1401 153.255L-0.470703 141.687L-0.470547 132.788H1.88996Z" fill="#F8F2E7"/>
<path d="M27.999 132.316L30.4177 132.316V140.689L40.6265 150.861L55.0375 150.834L65.2089 140.625V132.747H67.5996V141.611L56.0314 153.221L39.6414 153.251L28.0306 141.683L27.999 132.316Z" fill="#F8F2E7"/>
<path d="M-0.491103 197.959L7.93905 197.933L18.1105 187.724L18.084 173.313L7.8752 163.142L-0.491309 163.168V160.781L8.86034 160.751L20.4711 172.319L20.5012 188.709L8.93296 200.32L-0.492188 200.35L-0.491103 197.959Z" fill="#F8F2E7"/>
<path d="M-0.5 169.76L7.93759 169.734L18.109 159.525L18.0825 145.114L7.87373 134.943L-0.499888 134.969V132.582L8.85888 132.552L20.4696 144.12L20.4997 160.51L8.9315 172.121L-0.499888 172.151L-0.5 169.76Z" fill="#F8F2E7"/>
<path d="M49.2897 173.377L49.3161 187.788L59.5249 197.959L67.5985 197.933V200.32L58.5398 200.35L46.929 188.782L46.8989 172.392L58.4671 160.781L67.5985 160.778V163.168L59.4611 163.168L49.2897 173.377Z" fill="#F8F2E7"/>
<path d="M49.2906 145.181L49.317 159.596L59.5297 169.77L67.5985 169.746V172.134L58.5442 172.161L46.929 160.59L46.8989 144.195L58.4715 132.582L67.5941 132.562L67.5985 134.951L59.4658 134.969L49.2906 145.181Z" fill="#F8F2E7"/>
<path fill-rule="evenodd" clip-rule="evenodd" d="M112.614 134.658L86.418 134.706L67.9285 153.264L67.9766 179.46L86.5341 197.949L112.73 197.901L131.22 179.344L131.172 153.148L112.614 134.658ZM133.572 152.148L113.605 132.254L85.4187 132.306L65.5249 152.273L65.5766 180.459L85.5436 200.353L113.73 200.301L133.623 180.334L133.572 152.148Z" fill="#F8F2E7"/>
<path d="M92.5556 181.166L78.142 181.145L67.9358 191.323L67.9156 198.927L65.5249 199.913L65.5478 190.33L77.1556 178.755L93.5486 178.778L105.124 190.385L105.101 199.968L102.713 198.975L102.733 191.372L92.5556 181.166Z" fill="#F8F2E7"/>
<path d="M120.997 181.145L106.586 181.172L96.4147 191.381L96.4411 198.982L94.054 199.976L94.0239 190.395L105.592 178.785L121.982 178.755L133.593 190.323L133.623 199.903L131.232 198.918L131.206 191.317L120.997 181.145Z" fill="#F8F2E7"/>
<path d="M67.9149 132.788L67.9413 140.693L78.1501 150.864L92.5611 150.838L102.732 140.629L102.706 132.383L105.093 132.383L105.123 141.614L93.555 153.225L77.165 153.255L65.5542 141.687L65.5544 132.788H67.9149Z" fill="#F8F2E7"/>
<path d="M94.0239 132.319L96.4426 132.319V140.693L106.651 150.864L121.062 150.838L131.234 140.629V132.75H133.625V141.614L122.056 153.225L105.666 153.255L94.0555 141.687L94.0239 132.319Z" fill="#F8F2E7"/>
<path d="M65.5338 197.963L73.964 197.937L84.1354 187.728L84.1089 173.317L73.9001 163.145L65.5336 163.172V160.785L74.8852 160.755L86.496 172.323L86.5261 188.713L74.9579 200.324L65.5327 200.354L65.5338 197.963Z" fill="#F8F2E7"/>
<path d="M65.5249 169.764L73.9625 169.737L84.1339 159.529L84.1074 145.118L73.8986 134.946L65.525 134.973V132.586L74.8838 132.555L86.4945 144.124L86.5246 160.514L74.9564 172.124L65.525 172.155L65.5249 169.764Z" fill="#F8F2E7"/>
<path d="M115.315 173.381L115.342 187.792L125.55 197.963L133.624 197.937V200.324L124.565 200.354L112.954 188.786L112.924 172.396L124.493 160.785L133.624 160.781V163.172L125.486 163.172L115.315 173.381Z" fill="#F8F2E7"/>
<path d="M115.316 145.184L115.342 159.599L125.555 169.773L133.624 169.75V172.137L124.57 172.164L112.954 160.593L112.924 144.199L124.497 132.585L133.619 132.565L133.624 134.955L125.491 134.973L115.316 145.184Z" fill="#F8F2E7"/>
<path fill-rule="evenodd" clip-rule="evenodd" d="M46.5893 68.7989L20.3931 68.847L1.90364 87.4044L1.95172 113.601L20.5092 132.09L46.7053 132.042L65.1948 113.485L65.1467 87.2884L46.5893 68.7989ZM67.5467 86.2891L47.5797 66.3953L19.3938 66.447L-0.5 86.414L-0.448271 114.6L19.5187 134.494L47.7046 134.442L67.5984 114.475L67.5467 86.2891Z" fill="#F8F2E7"/>
<path d="M26.5306 115.305L12.1171 115.285L1.91088 125.463L1.89074 133.066L-0.5 134.053L-0.477096 124.47L11.1307 112.894L27.5237 112.917L39.0991 124.525L39.0762 134.108L36.6882 133.115L36.7084 125.511L26.5306 115.305Z" fill="#F8F2E7"/>
<path d="M54.9721 115.285L40.5612 115.311L30.3898 125.52L30.4162 133.121L28.0291 134.115L27.999 124.535L39.5672 112.924L55.9573 112.894L67.568 124.463L67.5981 134.043L65.2074 133.058L65.1809 125.456L54.9721 115.285Z" fill="#F8F2E7"/>
<path d="M1.88996 66.9304L1.91641 74.8355L12.1252 85.0069L26.5362 84.9804L36.7076 74.7716L36.6811 66.5257L39.0682 66.5256L39.0983 75.7568L27.5301 87.3675L11.1401 87.3976L-0.470703 75.8294L-0.470547 66.9304H1.88996Z" fill="#F8F2E7"/>
<path d="M27.999 66.458L30.4177 66.4581V74.8316L40.6265 85.003L55.0375 84.9766L65.2089 74.7678V66.8894H67.5996V75.7529L56.0314 87.3637L39.6414 87.3938L28.0306 75.8256L27.999 66.458Z" fill="#F8F2E7"/>
<path d="M-0.491103 132.103L7.93905 132.076L18.1105 121.868L18.084 107.457L7.8752 97.2853L-0.491309 97.3117V94.9246L8.86034 94.8945L20.4711 106.463L20.5012 122.853L8.93296 134.464L-0.492188 134.494L-0.491103 132.103Z" fill="#F8F2E7"/>
<path d="M-0.5 103.903L7.93759 103.876L18.109 93.6677L18.0825 79.2567L7.87373 69.0853L-0.499888 69.1118V66.7247L8.85888 66.6946L20.4696 78.2628L20.4997 94.6528L8.9315 106.264L-0.499888 106.294L-0.5 103.903Z" fill="#F8F2E7"/>
<path d="M49.2897 107.52L49.3161 121.931L59.5249 132.103L67.5985 132.076V134.463L58.5398 134.493L46.929 122.925L46.8989 106.535L58.4671 94.9243L67.5985 94.9207V97.3114L59.4611 97.3114L49.2897 107.52Z" fill="#F8F2E7"/>
<path d="M49.2906 79.3242L49.317 93.7388L59.5297 103.913L67.5985 103.89V106.277L58.5442 106.304L46.929 94.733L46.8989 78.3388L58.4715 66.725L67.5941 66.7051L67.5985 69.0946L59.4658 69.1127L49.2906 79.3242Z" fill="#F8F2E7"/>
<path fill-rule="evenodd" clip-rule="evenodd" d="M112.984 68.7989L86.7881 68.847L68.2987 87.4044L68.3467 113.601L86.9042 132.09L113.1 132.042L131.59 113.485L131.542 87.2884L112.984 68.7989ZM133.942 86.2891L113.975 66.3953L85.7889 66.447L65.895 86.414L65.9467 114.6L85.9137 134.494L114.1 134.442L133.993 114.475L133.942 86.2891Z" fill="#F8F2E7"/>
<path d="M92.9257 115.305L78.5121 115.285L68.3059 125.463L68.2858 133.066L65.895 134.053L65.9179 124.47L77.5257 112.894L93.9187 112.917L105.494 124.525L105.471 134.108L103.083 133.115L103.103 125.511L92.9257 115.305Z" fill="#F8F2E7"/>
<path d="M121.367 115.285L106.956 115.311L96.7848 125.52L96.8112 133.121L94.4241 134.115L94.394 124.535L105.962 112.924L122.352 112.894L133.963 124.463L133.993 134.043L131.602 133.058L131.576 125.456L121.367 115.285Z" fill="#F8F2E7"/>
<path d="M68.285 66.9304L68.3114 74.8355L78.5202 85.0069L92.9312 84.9804L103.103 74.7716L103.076 66.5257L105.463 66.5256L105.493 75.7568L93.9251 87.3675L77.5351 87.3976L65.9243 75.8294L65.9245 66.9304H68.285Z" fill="#F8F2E7"/>
<path d="M94.394 66.458L96.8127 66.4581V74.8316L107.022 85.003L121.433 84.9766L131.604 74.7678V66.8894H133.995V75.7529L122.426 87.3637L106.036 87.3938L94.4256 75.8256L94.394 66.458Z" fill="#F8F2E7"/>
<path d="M65.9044 132.103L74.3346 132.076L84.506 121.868L84.4795 107.457L74.2707 97.2853L65.9042 97.3117V94.9246L75.2558 94.8945L86.8666 106.463L86.8967 122.853L75.3285 134.464L65.9033 134.494L65.9044 132.103Z" fill="#F8F2E7"/>
<path d="M65.895 103.903L74.3326 103.876L84.504 93.6677L84.4775 79.2567L74.2688 69.0853L65.8951 69.1118V66.7247L75.2539 66.6946L86.8647 78.2628L86.8947 94.6528L75.3265 106.264L65.8951 106.294L65.895 103.903Z" fill="#F8F2E7"/>
<path d="M115.685 107.52L115.712 121.931L125.92 132.103L133.994 132.076V134.463L124.935 134.493L113.325 122.925L113.294 106.535L124.863 94.9243L133.994 94.9207V97.3114L125.857 97.3114L115.685 107.52Z" fill="#F8F2E7"/>
<path d="M115.686 79.3242L115.713 93.7388L125.925 103.913L133.994 103.89V106.277L124.94 106.304L113.325 94.733L113.294 78.3388L124.867 66.725L133.99 66.7051L133.994 69.0946L125.861 69.1127L115.686 79.3242Z" fill="#F8F2E7"/>
<path fill-rule="evenodd" clip-rule="evenodd" d="M46.5893 2.40364L20.3931 2.45172L1.90364 21.0092L1.95172 47.2053L20.5092 65.6948L46.7053 65.6467L65.1948 47.0893L65.1467 20.8931L46.5893 2.40364ZM67.5467 19.8938L47.5797 0L19.3938 0.0517302L-0.5 20.0187L-0.448271 48.2046L19.5187 68.0984L47.7046 68.0467L67.5984 48.0797L67.5467 19.8938Z" fill="#F8F2E7"/>
<path d="M26.5306 48.9089L12.1171 48.8888L1.91088 59.0665L1.89074 66.6702L-0.5 67.6566L-0.477096 58.0734L11.1307 46.498L27.5237 46.521L39.0991 58.1287L39.0762 67.7119L36.6882 66.7188L36.7084 59.1151L26.5306 48.9089Z" fill="#F8F2E7"/>
<path d="M54.9721 48.8888L40.5612 48.9152L30.3898 59.124L30.4162 66.7251L28.0291 67.719L27.999 58.1389L39.5672 46.5281L55.9573 46.498L67.568 58.0663L67.5981 67.6464L65.2074 66.6613L65.1809 59.0602L54.9721 48.8888Z" fill="#F8F2E7"/>
<path d="M1.88996 0.534425L1.91641 8.43947L12.1252 18.6109L26.5362 18.5844L36.7076 8.37562L36.6811 0.129658L39.0682 0.129639L39.0983 9.36076L27.5301 20.9715L11.1401 21.0016L-0.470703 9.43338L-0.470547 0.534425H1.88996Z" fill="#F8F2E7"/>
<path d="M27.999 0.0625L30.4177 0.0625593V8.43614L40.6265 18.6075L55.0375 18.5811L65.2089 8.37229V0.493865H67.5996V9.35743L56.0314 20.9682L39.6414 20.9983L28.0306 9.43005L27.999 0.0625Z" fill="#F8F2E7"/>
<path d="M-0.491103 65.7064L7.93905 65.6799L18.1105 55.4711L18.084 41.0602L7.8752 30.8888L-0.491309 30.9152V28.5281L8.86034 28.498L20.4711 40.0663L20.5012 56.4563L8.93296 68.0671L-0.492188 68.0971L-0.491103 65.7064Z" fill="#F8F2E7"/>
<path d="M-0.5 37.5074L7.93759 37.481L18.109 27.2722L18.0825 12.8612L7.87373 2.68981L-0.499888 2.71627V0.329156L8.85888 0.299072L20.4696 11.8673L20.4997 28.2573L8.9315 39.8681L-0.499888 39.8982L-0.5 37.5074Z" fill="#F8F2E7"/>
<path d="M49.2897 41.1239L49.3161 55.5349L59.5249 65.7063L67.5985 65.6799V68.067L58.5398 68.097L46.929 56.5288L46.8989 40.1388L58.4671 28.528L67.5985 28.5244V30.9152L59.4611 30.9151L49.2897 41.1239Z" fill="#F8F2E7"/>
<path d="M49.2906 12.9277L49.317 27.3423L59.5297 37.5163L67.5985 37.493V39.8807L58.5442 39.9077L46.929 28.3365L46.8989 11.9423L58.4715 0.328542L67.5941 0.308597L67.5985 2.69814L59.4658 2.71626L49.2906 12.9277Z" fill="#F8F2E7"/>
<path fill-rule="evenodd" clip-rule="evenodd" d="M112.614 2.40486L86.418 2.45294L67.9285 21.0104L67.9766 47.2065L86.5341 65.696L112.73 65.6479L131.22 47.0905L131.172 20.8943L112.614 2.40486ZM133.572 19.8951L113.605 0.0012207L85.4187 0.0529509L65.5249 20.02L65.5766 48.2058L85.5436 68.0997L113.73 68.0479L133.623 48.0809L133.572 19.8951Z" fill="#F8F2E7"/>
<path d="M92.5556 48.9123L78.142 48.8922L67.9358 59.0699L67.9156 66.6736L65.5249 67.66L65.5478 58.0769L77.1556 46.5015L93.5486 46.5244L105.124 58.1322L105.101 67.7153L102.713 66.7222L102.733 59.1185L92.5556 48.9123Z" fill="#F8F2E7"/>
<path d="M120.997 48.8922L106.586 48.9187L96.4147 59.1275L96.4411 66.7286L94.054 67.7225L94.0239 58.1423L105.592 46.5315L121.982 46.5015L133.593 58.0697L133.623 67.6498L131.232 66.6647L131.206 59.0636L120.997 48.8922Z" fill="#F8F2E7"/>
<path d="M67.9149 0.534425L67.9413 8.43947L78.1501 18.6109L92.5611 18.5844L102.732 8.37562L102.706 0.129658L105.093 0.129639L105.123 9.36076L93.555 20.9715L77.165 21.0016L65.5542 9.43338L65.5544 0.534425H67.9149Z" fill="#F8F2E7"/>
<path d="M94.0239 0.0654297L96.4426 0.0654889V8.43907L106.651 18.6105L121.062 18.584L131.234 8.37522V0.496795H133.625V9.36036L122.056 20.9711L105.666 21.0012L94.0555 9.43298L94.0239 0.0654297Z" fill="#F8F2E7"/>
<path d="M65.5338 65.7098L73.964 65.6834L84.1354 55.4746L84.1089 41.0636L73.9001 30.8922L65.5336 30.9187V28.5315L74.8852 28.5015L86.496 40.0697L86.5261 56.4597L74.9579 68.0705L65.5327 68.1006L65.5338 65.7098Z" fill="#F8F2E7"/>
<path d="M65.5249 37.5103L73.9625 37.4839L84.1339 27.2751L84.1074 12.8641L73.8986 2.69274L65.525 2.7192V0.332086L74.8838 0.302002L86.4945 11.8702L86.5246 28.2602L74.9564 39.871L65.525 39.9011L65.5249 37.5103Z" fill="#F8F2E7"/>
<path d="M115.315 41.1269L115.342 55.5378L125.55 65.7092L133.624 65.6828V68.0699L124.565 68.1L112.954 56.5317L112.924 40.1417L124.493 28.531L133.624 28.5273V30.9181L125.486 30.9181L115.315 41.1269Z" fill="#F8F2E7"/>
<path d="M115.316 12.9311L115.342 27.3458L125.555 37.5197L133.624 37.4964V39.8842L124.57 39.9111L112.954 28.3399L112.924 11.9457L124.497 0.33196L133.619 0.312015L133.624 2.70155L125.491 2.71968L115.316 12.9311Z" fill="#F8F2E7"/>
<path fill-rule="evenodd" clip-rule="evenodd" d="M178.843 201.052L152.647 201.1L134.158 219.658L134.206 245.854L152.763 264.343L178.959 264.295L197.449 245.738L197.401 219.542L178.843 201.052ZM199.801 218.542L179.834 198.648L151.648 198.7L131.754 218.667L131.806 246.853L151.773 266.747L179.959 266.695L199.852 246.728L199.801 218.542Z" fill="#F8F2E7"/>
<path d="M158.784 247.558L144.37 247.538L134.164 257.716L134.144 265.32L131.753 266.306L131.776 256.723L143.384 245.147L159.777 245.17L171.353 256.778L171.33 266.361L168.942 265.368L168.962 257.765L158.784 247.558Z" fill="#F8F2E7"/>
<path d="M187.226 247.538L172.815 247.565L162.643 257.773L162.67 265.375L160.283 266.368L160.252 256.788L171.821 245.178L188.211 245.147L199.821 256.716L199.852 266.296L197.461 265.311L197.434 257.71L187.226 247.538Z" fill="#F8F2E7"/>
<path d="M134.143 199.183L134.17 207.088L144.379 217.26L158.79 217.233L168.961 207.024L168.935 198.778L171.322 198.778L171.352 208.009L159.784 219.62L143.393 219.65L131.783 208.082L131.783 199.183H134.143Z" fill="#F8F2E7"/>
<path d="M160.252 198.711L162.671 198.711V207.085L172.88 217.256L187.291 217.23L197.462 207.021V199.143H199.853V208.006L188.285 219.617L171.895 219.647L160.284 208.079L160.252 198.711Z" fill="#F8F2E7"/>
<path d="M131.762 264.356L140.192 264.329L150.364 254.121L150.337 239.71L140.129 229.538L131.762 229.565V227.178L141.114 227.147L152.725 238.716L152.755 255.106L141.186 266.716L131.761 266.747L131.762 264.356Z" fill="#F8F2E7"/>
<path d="M131.753 236.156L140.191 236.13L150.362 225.921L150.336 211.51L140.127 201.338L131.754 201.365V198.978L141.112 198.948L152.723 210.516L152.753 226.906L141.185 238.517L131.754 238.547L131.753 236.156Z" fill="#F8F2E7"/>
<path d="M181.543 239.773L181.57 254.184L191.778 264.355L199.852 264.329V266.716L190.793 266.746L179.182 255.178L179.152 238.788L190.721 227.177L199.852 227.174V229.564L191.714 229.564L181.543 239.773Z" fill="#F8F2E7"/>
<path d="M181.544 211.577L181.57 225.992L191.783 236.166L199.852 236.142V238.53L190.798 238.557L179.182 226.986L179.152 210.592L190.725 198.978L199.847 198.958L199.852 201.348L191.719 201.366L181.544 211.577Z" fill="#F8F2E7"/>
<path fill-rule="evenodd" clip-rule="evenodd" d="M245.238 201.052L219.042 201.1L200.553 219.658L200.601 245.854L219.158 264.343L245.354 264.295L263.844 245.738L263.796 219.542L245.238 201.052ZM266.196 218.542L246.229 198.648L218.043 198.7L198.149 218.667L198.201 246.853L218.168 266.747L246.354 266.695L266.247 246.728L266.196 218.542Z" fill="#F8F2E7"/>
<path d="M225.179 247.558L210.766 247.538L200.559 257.716L200.539 265.32L198.148 266.306L198.171 256.723L209.779 245.147L226.172 245.17L237.748 256.778L237.725 266.361L235.337 265.368L235.357 257.765L225.179 247.558Z" fill="#F8F2E7"/>
<path d="M253.621 247.538L239.21 247.565L229.038 257.773L229.065 265.375L226.678 266.368L226.647 256.788L238.216 245.178L254.606 245.147L266.216 256.716L266.247 266.296L263.856 265.311L263.829 257.71L253.621 247.538Z" fill="#F8F2E7"/>
<path d="M200.538 199.183L200.565 207.088L210.774 217.26L225.185 217.233L235.356 207.024L235.33 198.778L237.717 198.778L237.747 208.009L226.179 219.62L209.789 219.65L198.178 208.082L198.178 199.183H200.538Z" fill="#F8F2E7"/>
<path d="M226.647 198.711L229.066 198.711V207.085L239.275 217.256L253.686 217.23L263.857 207.021V199.143H266.248V208.006L254.68 219.617L238.29 219.647L226.679 208.079L226.647 198.711Z" fill="#F8F2E7"/>
<path d="M198.157 264.356L206.587 264.329L216.759 254.121L216.732 239.71L206.524 229.538L198.157 229.565V227.178L207.509 227.147L219.12 238.716L219.15 255.106L207.581 266.716L198.156 266.747L198.157 264.356Z" fill="#F8F2E7"/>
<path d="M198.148 236.156L206.586 236.13L216.757 225.921L216.731 211.51L206.522 201.338L198.149 201.365V198.978L207.507 198.948L219.118 210.516L219.148 226.906L207.58 238.517L198.149 238.547L198.148 236.156Z" fill="#F8F2E7"/>
<path d="M247.938 239.773L247.965 254.184L258.173 264.355L266.247 264.329V266.716L257.188 266.746L245.577 255.178L245.547 238.788L257.116 227.177L266.247 227.174V229.564L258.109 229.564L247.938 239.773Z" fill="#F8F2E7"/>
<path d="M247.939 211.577L247.965 225.992L258.178 236.166L266.247 236.142V238.53L257.193 238.557L245.577 226.986L245.547 210.592L257.12 198.978L266.243 198.958L266.247 201.348L258.114 201.366L247.939 211.577Z" fill="#F8F2E7"/>
<path fill-rule="evenodd" clip-rule="evenodd" d="M178.843 134.657L152.647 134.705L134.157 153.262L134.205 179.458L152.763 197.948L178.959 197.9L197.448 179.342L197.4 153.146L178.843 134.657ZM199.8 152.147L179.833 132.253L151.647 132.305L131.753 152.272L131.805 180.458L151.772 200.352L179.958 200.3L199.852 180.333L199.8 152.147Z" fill="#F8F2E7"/>
<path d="M158.784 181.162L144.37 181.142L134.164 191.319L134.144 198.923L131.753 199.91L131.776 190.326L143.384 178.751L159.777 178.774L171.353 190.382L171.33 199.965L168.942 198.972L168.962 191.368L158.784 181.162Z" fill="#F8F2E7"/>
<path d="M187.226 181.142L172.815 181.168L162.643 191.377L162.67 198.978L160.283 199.972L160.252 190.392L171.821 178.781L188.211 178.751L199.821 190.319L199.852 199.899L197.461 198.914L197.434 191.313L187.226 181.142Z" fill="#F8F2E7"/>
<path d="M134.143 132.787L134.17 140.692L144.379 150.863L158.79 150.837L168.961 140.628L168.935 132.382L171.322 132.382L171.352 141.613L159.784 153.224L143.393 153.254L131.783 141.686L131.783 132.787H134.143Z" fill="#F8F2E7"/>
<path d="M160.252 132.316L162.671 132.316V140.689L172.88 150.861L187.291 150.834L197.462 140.625V132.747H199.853V141.611L188.285 153.221L171.895 153.251L160.284 141.683L160.252 132.316Z" fill="#F8F2E7"/>
<path d="M131.762 197.959L140.192 197.933L150.364 187.724L150.337 173.313L140.129 163.142L131.762 163.168V160.781L141.114 160.751L152.725 172.319L152.755 188.709L141.186 200.32L131.761 200.35L131.762 197.959Z" fill="#F8F2E7"/>
<path d="M131.753 169.76L140.191 169.734L150.362 159.525L150.336 145.114L140.127 134.943L131.754 134.969V132.582L141.112 132.552L152.723 144.12L152.753 160.51L141.185 172.121L131.754 172.151L131.753 169.76Z" fill="#F8F2E7"/>
<path d="M181.543 173.377L181.57 187.788L191.778 197.959L199.852 197.933V200.32L190.793 200.35L179.182 188.782L179.152 172.392L190.721 160.781L199.852 160.778V163.168L191.714 163.168L181.543 173.377Z" fill="#F8F2E7"/>
<path d="M181.544 145.181L181.57 159.596L191.783 169.77L199.852 169.746V172.134L190.798 172.161L179.182 160.59L179.152 144.195L190.725 132.582L199.847 132.562L199.852 134.951L191.719 134.969L181.544 145.181Z" fill="#F8F2E7"/>
<path fill-rule="evenodd" clip-rule="evenodd" d="M244.868 134.658L218.671 134.706L200.182 153.264L200.23 179.46L218.788 197.949L244.984 197.901L263.473 179.344L263.425 153.148L244.868 134.658ZM265.825 152.148L245.858 132.254L217.672 132.306L197.778 152.273L197.83 180.459L217.797 200.353L245.983 200.301L265.877 180.334L265.825 152.148Z" fill="#F8F2E7"/>
<path d="M224.809 181.166L210.395 181.145L200.189 191.323L200.169 198.927L197.778 199.913L197.801 190.33L209.409 178.755L225.802 178.778L237.377 190.385L237.355 199.968L234.967 198.975L234.987 191.372L224.809 181.166Z" fill="#F8F2E7"/>
<path d="M253.25 181.145L238.839 181.172L228.668 191.381L228.695 198.982L226.307 199.976L226.277 190.395L237.846 178.785L254.236 178.755L265.846 190.323L265.876 199.903L263.486 198.918L263.459 191.317L253.25 181.145Z" fill="#F8F2E7"/>
<path d="M200.168 132.788L200.195 140.693L210.404 150.864L224.814 150.838L234.986 140.629L234.959 132.383L237.347 132.383L237.377 141.614L225.808 153.225L209.418 153.255L197.808 141.687L197.808 132.788H200.168Z" fill="#F8F2E7"/>
<path d="M226.277 132.319L228.696 132.319V140.693L238.905 150.864L253.316 150.838L263.487 140.629V132.75H265.878V141.614L254.31 153.225L237.92 153.255L226.309 141.687L226.277 132.319Z" fill="#F8F2E7"/>
<path d="M197.788 197.963L206.218 197.937L216.389 187.728L216.363 173.317L206.154 163.145L197.787 163.172V160.785L207.139 160.755L218.75 172.323L218.78 188.713L207.212 200.324L197.787 200.354L197.788 197.963Z" fill="#F8F2E7"/>
<path d="M197.778 169.764L206.216 169.737L216.387 159.529L216.361 145.118L206.152 134.946L197.778 134.973V132.586L207.137 132.555L218.748 144.124L218.778 160.514L207.21 172.124L197.778 172.155L197.778 169.764Z" fill="#F8F2E7"/>
<path d="M247.568 173.381L247.595 187.792L257.804 197.963L265.877 197.937V200.324L256.819 200.354L245.208 188.786L245.178 172.396L256.746 160.785L265.877 160.781V163.172L257.74 163.172L247.568 173.381Z" fill="#F8F2E7"/>
<path d="M247.569 145.184L247.596 159.599L257.809 169.773L265.877 169.75V172.137L256.823 172.164L245.208 160.593L245.178 144.199L256.75 132.585L265.873 132.565L265.877 134.955L257.745 134.973L247.569 145.184Z" fill="#F8F2E7"/>
<path fill-rule="evenodd" clip-rule="evenodd" d="M311.095 201.052L284.899 201.1L266.41 219.658L266.458 245.854L285.015 264.343L311.211 264.295L329.701 245.738L329.653 219.542L311.095 201.052ZM332.053 218.542L312.086 198.648L283.9 198.7L264.006 218.667L264.058 246.853L284.025 266.747L312.21 266.695L332.104 246.728L332.053 218.542Z" fill="#F8F2E7"/>
<path d="M291.037 247.558L276.623 247.538L266.417 257.716L266.397 265.32L264.006 266.306L264.029 256.723L275.637 245.147L292.03 245.17L303.605 256.778L303.582 266.361L301.194 265.368L301.214 257.765L291.037 247.558Z" fill="#F8F2E7"/>
<path d="M319.478 247.538L305.067 247.565L294.896 257.773L294.922 265.375L292.535 266.368L292.505 256.788L304.073 245.178L320.463 245.147L332.074 256.716L332.104 266.296L329.713 265.311L329.687 257.71L319.478 247.538Z" fill="#F8F2E7"/>
<path d="M266.396 199.183L266.422 207.088L276.631 217.26L291.042 217.233L301.213 207.024L301.187 198.778L303.574 198.778L303.604 208.009L292.036 219.62L275.646 219.65L264.035 208.082L264.035 199.183H266.396Z" fill="#F8F2E7"/>
<path d="M292.505 198.711L294.924 198.711V207.085L305.132 217.256L319.543 217.23L329.715 207.021V199.143H332.105V208.006L320.537 219.617L304.147 219.647L292.536 208.079L292.505 198.711Z" fill="#F8F2E7"/>
<path d="M264.015 264.356L272.445 264.329L282.616 254.121L282.59 239.71L272.381 229.538L264.015 229.565V227.178L273.366 227.147L284.977 238.716L285.007 255.106L273.439 266.716L264.014 266.747L264.015 264.356Z" fill="#F8F2E7"/>
<path d="M264.006 236.156L272.443 236.13L282.615 225.921L282.588 211.51L272.38 201.338L264.006 201.365V198.978L273.365 198.948L284.975 210.516L285.006 226.906L273.437 238.517L264.006 238.547L264.006 236.156Z" fill="#F8F2E7"/>
<path d="M313.796 239.773L313.822 254.184L324.031 264.355L332.104 264.329V266.716L323.046 266.746L311.435 255.178L311.405 238.788L322.973 227.177L332.104 227.174V229.564L323.967 229.564L313.796 239.773Z" fill="#F8F2E7"/>
<path d="M313.796 211.577L313.823 225.992L324.036 236.166L332.104 236.142V238.53L323.05 238.557L311.435 226.986L311.405 210.592L322.977 198.978L332.1 198.958L332.104 201.348L323.972 201.366L313.796 211.577Z" fill="#F8F2E7"/>
<path fill-rule="evenodd" clip-rule="evenodd" d="M377.49 201.052L351.294 201.1L332.805 219.658L332.853 245.854L351.41 264.343L377.606 264.295L396.096 245.738L396.048 219.542L377.49 201.052ZM398.448 218.542L378.481 198.648L350.295 198.7L330.401 218.667L330.453 246.853L350.42 266.747L378.605 266.695L398.499 246.728L398.448 218.542Z" fill="#F8F2E7"/>
<path d="M357.432 247.558L343.018 247.538L332.812 257.716L332.792 265.32L330.401 266.306L330.424 256.723L342.032 245.147L358.425 245.17L370 256.778L369.977 266.361L367.589 265.368L367.609 257.765L357.432 247.558Z" fill="#F8F2E7"/>
<path d="M385.873 247.538L371.462 247.565L361.291 257.773L361.317 265.375L358.93 266.368L358.9 256.788L370.468 245.178L386.858 245.147L398.469 256.716L398.499 266.296L396.108 265.311L396.082 257.71L385.873 247.538Z" fill="#F8F2E7"/>
<path d="M332.791 199.183L332.817 207.088L343.026 217.26L357.437 217.233L367.608 207.024L367.582 198.778L369.969 198.778L369.999 208.009L358.431 219.62L342.041 219.65L330.43 208.082L330.43 199.183H332.791Z" fill="#F8F2E7"/>
<path d="M358.9 198.711L361.319 198.711V207.085L371.527 217.256L385.938 217.23L396.11 207.021V199.143H398.5V208.006L386.932 219.617L370.542 219.647L358.931 208.079L358.9 198.711Z" fill="#F8F2E7"/>
<path d="M330.409 264.356L338.839 264.329L349.011 254.121L348.984 239.71L338.776 229.538L330.409 229.565V227.178L339.761 227.147L351.372 238.716L351.402 255.106L339.833 266.716L330.408 266.747L330.409 264.356Z" fill="#F8F2E7"/>
<path d="M330.401 236.156L338.838 236.13L349.01 225.921L348.983 211.51L338.775 201.338L330.401 201.365V198.978L339.76 198.948L351.371 210.516L351.401 226.906L339.832 238.517L330.401 238.547L330.401 236.156Z" fill="#F8F2E7"/>
<path d="M380.191 239.773L380.217 254.184L390.426 264.355L398.499 264.329V266.716L389.441 266.746L377.83 255.178L377.8 238.788L389.368 227.177L398.499 227.174V229.564L390.362 229.564L380.191 239.773Z" fill="#F8F2E7"/>
<path d="M380.191 211.577L380.218 225.992L390.431 236.166L398.499 236.142V238.53L389.445 238.557L377.83 226.986L377.8 210.592L389.372 198.978L398.495 198.958L398.499 201.348L390.367 201.366L380.191 211.577Z" fill="#F8F2E7"/>
<path fill-rule="evenodd" clip-rule="evenodd" d="M311.095 134.657L284.899 134.705L266.41 153.262L266.458 179.458L285.015 197.948L311.211 197.9L329.701 179.342L329.653 153.146L311.095 134.657ZM332.053 152.147L312.086 132.253L283.9 132.305L264.006 152.272L264.058 180.458L284.025 200.352L312.21 200.3L332.104 180.333L332.053 152.147Z" fill="#F8F2E7"/>
<path d="M291.037 181.162L276.623 181.142L266.417 191.319L266.397 198.923L264.006 199.91L264.029 190.326L275.637 178.751L292.03 178.774L303.605 190.382L303.582 199.965L301.194 198.972L301.214 191.368L291.037 181.162Z" fill="#F8F2E7"/>
<path d="M319.478 181.142L305.067 181.168L294.896 191.377L294.922 198.978L292.535 199.972L292.505 190.392L304.073 178.781L320.463 178.751L332.074 190.319L332.104 199.899L329.713 198.914L329.687 191.313L319.478 181.142Z" fill="#F8F2E7"/>
<path d="M266.396 132.788L266.423 140.693L276.632 150.864L291.043 150.838L301.214 140.629L301.187 132.383L303.575 132.383L303.605 141.614L292.036 153.225L275.646 153.255L264.036 141.687L264.036 132.788H266.396Z" fill="#F8F2E7"/>
<path d="M292.505 132.316L294.924 132.316V140.689L305.132 150.861L319.543 150.834L329.715 140.625V132.747H332.105V141.611L320.537 153.221L304.147 153.251L292.536 141.683L292.505 132.316Z" fill="#F8F2E7"/>
<path d="M264.015 197.959L272.445 197.933L282.616 187.724L282.59 173.313L272.381 163.142L264.015 163.168V160.781L273.366 160.751L284.977 172.319L285.007 188.709L273.439 200.32L264.014 200.35L264.015 197.959Z" fill="#F8F2E7"/>
<path d="M264.006 169.76L272.443 169.734L282.615 159.525L282.588 145.114L272.38 134.943L264.006 134.969V132.582L273.365 132.552L284.975 144.12L285.006 160.51L273.437 172.121L264.006 172.151L264.006 169.76Z" fill="#F8F2E7"/>
<path d="M313.796 173.377L313.822 187.788L324.031 197.959L332.105 197.933V200.32L323.046 200.35L311.435 188.782L311.405 172.392L322.973 160.781L332.105 160.778V163.168L323.967 163.168L313.796 173.377Z" fill="#F8F2E7"/>
<path d="M313.797 145.181L313.823 159.596L324.036 169.77L332.105 169.746V172.134L323.051 172.161L311.435 160.59L311.405 144.195L322.978 132.582L332.1 132.562L332.105 134.951L323.972 134.969L313.797 145.181Z" fill="#F8F2E7"/>
<path fill-rule="evenodd" clip-rule="evenodd" d="M377.121 134.658L350.924 134.706L332.435 153.264L332.483 179.46L351.04 197.949L377.237 197.901L395.726 179.344L395.678 153.148L377.121 134.658ZM398.078 152.148L378.111 132.254L349.925 132.306L330.031 152.273L330.083 180.459L350.05 200.353L378.236 200.301L398.13 180.334L398.078 152.148Z" fill="#F8F2E7"/>
<path d="M357.061 181.166L342.648 181.145L332.442 191.323L332.422 198.927L330.031 199.913L330.054 190.33L341.661 178.755L358.054 178.778L369.63 190.385L369.607 199.968L367.219 198.975L367.239 191.372L357.061 181.166Z" fill="#F8F2E7"/>
<path d="M385.503 181.145L371.092 181.172L360.921 191.381L360.947 198.982L358.56 199.976L358.53 190.395L370.098 178.785L386.488 178.755L398.099 190.323L398.129 199.903L395.738 198.918L395.712 191.317L385.503 181.145Z" fill="#F8F2E7"/>
<path d="M332.421 132.787L332.448 140.692L342.656 150.864L357.067 150.837L367.239 140.629L367.212 132.383L369.599 132.383L369.63 141.614L358.061 153.224L341.671 153.255L330.061 141.686L330.061 132.787H332.421Z" fill="#F8F2E7"/>
<path d="M358.53 132.319L360.948 132.319V140.693L371.157 150.864L385.568 150.838L395.74 140.629V132.75H398.13V141.614L386.562 153.225L370.172 153.255L358.561 141.687L358.53 132.319Z" fill="#F8F2E7"/>
<path d="M330.04 197.963L338.47 197.937L348.641 187.728L348.615 173.317L338.406 163.145L330.039 163.172V160.785L339.391 160.755L351.002 172.323L351.032 188.713L339.464 200.324L330.039 200.354L330.04 197.963Z" fill="#F8F2E7"/>
<path d="M330.031 169.764L338.468 169.737L348.64 159.529L348.613 145.118L338.404 134.946L330.031 134.973V132.586L339.39 132.555L351 144.124L351.03 160.514L339.462 172.124L330.031 172.155L330.031 169.764Z" fill="#F8F2E7"/>
<path d="M379.821 173.381L379.847 187.792L390.056 197.963L398.13 197.937V200.324L389.071 200.354L377.46 188.786L377.43 172.396L388.998 160.785L398.13 160.781V163.172L389.992 163.172L379.821 173.381Z" fill="#F8F2E7"/>
<path d="M379.822 145.184L379.848 159.599L390.061 169.773L398.13 169.75V172.137L389.075 172.164L377.46 160.593L377.43 144.199L389.003 132.585L398.125 132.565L398.13 134.955L389.997 134.973L379.822 145.184Z" fill="#F8F2E7"/>
<path fill-rule="evenodd" clip-rule="evenodd" d="M178.843 68.7989L152.647 68.847L134.158 87.4044L134.206 113.601L152.763 132.09L178.959 132.042L197.449 113.485L197.401 87.2884L178.843 68.7989ZM199.801 86.2891L179.834 66.3953L151.648 66.447L131.754 86.414L131.806 114.6L151.773 134.494L179.959 134.442L199.852 114.475L199.801 86.2891Z" fill="#F8F2E7"/>
<path d="M158.784 115.305L144.37 115.285L134.164 125.463L134.144 133.066L131.753 134.053L131.776 124.47L143.384 112.894L159.777 112.917L171.353 124.525L171.33 134.108L168.942 133.115L168.962 125.511L158.784 115.305Z" fill="#F8F2E7"/>
<path d="M187.226 115.285L172.815 115.311L162.643 125.52L162.67 133.121L160.283 134.115L160.252 124.535L171.821 112.924L188.211 112.894L199.821 124.463L199.852 134.043L197.461 133.058L197.434 125.456L187.226 115.285Z" fill="#F8F2E7"/>
<path d="M134.143 66.9304L134.17 74.8355L144.379 85.0069L158.79 84.9804L168.961 74.7716L168.935 66.5257L171.322 66.5256L171.352 75.7568L159.784 87.3675L143.393 87.3976L131.783 75.8294L131.783 66.9304H134.143Z" fill="#F8F2E7"/>
<path d="M160.252 66.458L162.671 66.4581V74.8316L172.88 85.003L187.291 84.9766L197.462 74.7678V66.8894H199.853V75.7529L188.285 87.3637L171.895 87.3938L160.284 75.8256L160.252 66.458Z" fill="#F8F2E7"/>
<path d="M131.762 132.103L140.192 132.076L150.364 121.868L150.337 107.457L140.129 97.2853L131.762 97.3117V94.9246L141.114 94.8945L152.725 106.463L152.755 122.853L141.186 134.464L131.761 134.494L131.762 132.103Z" fill="#F8F2E7"/>
<path d="M131.753 103.903L140.191 103.876L150.362 93.6677L150.336 79.2567L140.127 69.0853L131.754 69.1118V66.7247L141.112 66.6946L152.723 78.2628L152.753 94.6528L141.185 106.264L131.754 106.294L131.753 103.903Z" fill="#F8F2E7"/>
<path d="M181.543 107.52L181.57 121.931L191.778 132.103L199.852 132.076V134.463L190.793 134.493L179.182 122.925L179.152 106.535L190.721 94.9243L199.852 94.9207V97.3114L191.714 97.3114L181.543 107.52Z" fill="#F8F2E7"/>
<path d="M181.544 79.3242L181.57 93.7388L191.783 103.913L199.852 103.89V106.277L190.798 106.304L179.182 94.733L179.152 78.3388L190.725 66.725L199.847 66.7051L199.852 69.0946L191.719 69.1127L181.544 79.3242Z" fill="#F8F2E7"/>
<path fill-rule="evenodd" clip-rule="evenodd" d="M245.238 68.7989L219.042 68.847L200.553 87.4044L200.601 113.601L219.158 132.09L245.354 132.042L263.844 113.485L263.796 87.2884L245.238 68.7989ZM266.196 86.2891L246.229 66.3953L218.043 66.447L198.149 86.414L198.201 114.6L218.168 134.494L246.354 134.442L266.247 114.475L266.196 86.2891Z" fill="#F8F2E7"/>
<path d="M225.179 115.305L210.766 115.285L200.559 125.463L200.539 133.066L198.148 134.053L198.171 124.47L209.779 112.894L226.172 112.917L237.748 124.525L237.725 134.108L235.337 133.115L235.357 125.511L225.179 115.305Z" fill="#F8F2E7"/>
<path d="M253.621 115.285L239.21 115.311L229.038 125.52L229.065 133.121L226.678 134.115L226.647 124.535L238.216 112.924L254.606 112.894L266.216 124.463L266.247 134.043L263.856 133.058L263.829 125.456L253.621 115.285Z" fill="#F8F2E7"/>
<path d="M200.538 66.9304L200.565 74.8355L210.774 85.0069L225.185 84.9804L235.356 74.7716L235.33 66.5257L237.717 66.5256L237.747 75.7568L226.179 87.3675L209.789 87.3976L198.178 75.8294L198.178 66.9304H200.538Z" fill="#F8F2E7"/>
<path d="M226.647 66.458L229.066 66.4581V74.8316L239.275 85.003L253.686 84.9766L263.857 74.7678V66.8894H266.248V75.7529L254.68 87.3637L238.29 87.3938L226.679 75.8256L226.647 66.458Z" fill="#F8F2E7"/>
<path d="M198.157 132.103L206.587 132.076L216.759 121.868L216.732 107.457L206.524 97.2853L198.157 97.3117V94.9246L207.509 94.8945L219.12 106.463L219.15 122.853L207.581 134.464L198.156 134.494L198.157 132.103Z" fill="#F8F2E7"/>
<path d="M198.148 103.903L206.586 103.876L216.757 93.6677L216.731 79.2567L206.522 69.0853L198.149 69.1118V66.7247L207.507 66.6946L219.118 78.2628L219.148 94.6528L207.58 106.264L198.149 106.294L198.148 103.903Z" fill="#F8F2E7"/>
<path d="M247.938 107.52L247.965 121.931L258.173 132.103L266.247 132.076V134.463L257.188 134.493L245.577 122.925L245.547 106.535L257.116 94.9243L266.247 94.9207V97.3114L258.109 97.3114L247.938 107.52Z" fill="#F8F2E7"/>
<path d="M247.939 79.3242L247.965 93.7388L258.178 103.913L266.247 103.89V106.277L257.193 106.304L245.577 94.733L245.547 78.3388L257.12 66.725L266.243 66.7051L266.247 69.0946L258.114 69.1127L247.939 79.3242Z" fill="#F8F2E7"/>
<path fill-rule="evenodd" clip-rule="evenodd" d="M178.843 2.40364L152.647 2.45172L134.157 21.0092L134.205 47.2053L152.763 65.6948L178.959 65.6467L197.448 47.0893L197.4 20.8931L178.843 2.40364ZM199.8 19.8938L179.833 0L151.647 0.0517302L131.753 20.0187L131.805 48.2046L151.772 68.0984L179.958 68.0467L199.852 48.0797L199.8 19.8938Z" fill="#F8F2E7"/>
<path d="M158.784 48.9089L144.37 48.8888L134.164 59.0665L134.144 66.6702L131.753 67.6566L131.776 58.0734L143.384 46.498L159.777 46.521L171.353 58.1287L171.33 67.7119L168.942 66.7188L168.962 59.1151L158.784 48.9089Z" fill="#F8F2E7"/>
<path d="M187.226 48.8888L172.815 48.9152L162.643 59.124L162.67 66.7251L160.283 67.719L160.252 58.1389L171.821 46.5281L188.211 46.498L199.821 58.0663L199.852 67.6464L197.461 66.6613L197.434 59.0602L187.226 48.8888Z" fill="#F8F2E7"/>
<path d="M134.143 0.534425L134.17 8.43947L144.379 18.6109L158.79 18.5844L168.961 8.37562L168.935 0.129658L171.322 0.129639L171.352 9.36076L159.784 20.9715L143.393 21.0016L131.783 9.43338L131.783 0.534425H134.143Z" fill="#F8F2E7"/>
<path d="M160.252 0.0625L162.671 0.0625593V8.43614L172.88 18.6075L187.291 18.5811L197.462 8.37229V0.493865H199.853V9.35743L188.285 20.9682L171.895 20.9983L160.284 9.43005L160.252 0.0625Z" fill="#F8F2E7"/>
<path d="M131.762 65.7064L140.192 65.6799L150.364 55.4711L150.337 41.0602L140.129 30.8888L131.762 30.9152V28.5281L141.114 28.498L152.725 40.0663L152.755 56.4563L141.186 68.0671L131.761 68.0971L131.762 65.7064Z" fill="#F8F2E7"/>
<path d="M131.753 37.5074L140.191 37.481L150.362 27.2722L150.336 12.8612L140.127 2.68981L131.754 2.71627V0.329156L141.112 0.299072L152.723 11.8673L152.753 28.2573L141.185 39.8681L131.754 39.8982L131.753 37.5074Z" fill="#F8F2E7"/>
<path d="M181.543 41.1239L181.57 55.5349L191.778 65.7063L199.852 65.6799V68.067L190.793 68.097L179.182 56.5288L179.152 40.1388L190.721 28.528L199.852 28.5244V30.9152L191.714 30.9151L181.543 41.1239Z" fill="#F8F2E7"/>
<path d="M181.544 12.9277L181.57 27.3423L191.783 37.5163L199.852 37.493V39.8807L190.798 39.9077L179.182 28.3365L179.152 11.9423L190.725 0.328542L199.847 0.308597L199.852 2.69814L191.719 2.71626L181.544 12.9277Z" fill="#F8F2E7"/>
<path fill-rule="evenodd" clip-rule="evenodd" d="M244.868 2.40486L218.671 2.45294L200.182 21.0104L200.23 47.2065L218.788 65.696L244.984 65.6479L263.473 47.0905L263.425 20.8943L244.868 2.40486ZM265.825 19.8951L245.858 0.0012207L217.672 0.0529509L197.778 20.02L197.83 48.2058L217.797 68.0997L245.983 68.0479L265.877 48.0809L265.825 19.8951Z" fill="#F8F2E7"/>
<path d="M224.809 48.9123L210.395 48.8922L200.189 59.0699L200.169 66.6736L197.778 67.66L197.801 58.0769L209.409 46.5015L225.802 46.5244L237.377 58.1322L237.355 67.7153L234.967 66.7222L234.987 59.1185L224.809 48.9123Z" fill="#F8F2E7"/>
<path d="M253.25 48.8922L238.839 48.9187L228.668 59.1275L228.695 66.7286L226.307 67.7225L226.277 58.1423L237.846 46.5315L254.236 46.5015L265.846 58.0697L265.876 67.6498L263.486 66.6647L263.459 59.0636L253.25 48.8922Z" fill="#F8F2E7"/>
<path d="M200.168 0.534425L200.195 8.43947L210.404 18.6109L224.814 18.5844L234.986 8.37562L234.959 0.129658L237.347 0.129639L237.377 9.36076L225.808 20.9715L209.418 21.0016L197.808 9.43338L197.808 0.534425H200.168Z" fill="#F8F2E7"/>
<path d="M226.277 0.0654297L228.696 0.0654889V8.43907L238.905 18.6105L253.316 18.584L263.487 8.37522V0.496795H265.878V9.36036L254.31 20.9711L237.92 21.0012L226.309 9.43298L226.277 0.0654297Z" fill="#F8F2E7"/>
<path d="M197.788 65.7098L206.218 65.6834L216.389 55.4746L216.363 41.0636L206.154 30.8922L197.787 30.9187V28.5315L207.139 28.5015L218.75 40.0697L218.78 56.4597L207.212 68.0705L197.787 68.1006L197.788 65.7098Z" fill="#F8F2E7"/>
<path d="M197.778 37.5103L206.216 37.4839L216.387 27.2751L216.361 12.8641L206.152 2.69274L197.778 2.7192V0.332086L207.137 0.302002L218.748 11.8702L218.778 28.2602L207.21 39.871L197.778 39.9011L197.778 37.5103Z" fill="#F8F2E7"/>
<path d="M247.568 41.1269L247.595 55.5378L257.804 65.7092L265.877 65.6828V68.0699L256.819 68.1L245.208 56.5317L245.178 40.1417L256.746 28.531L265.877 28.5273V30.9181L257.74 30.9181L247.568 41.1269Z" fill="#F8F2E7"/>
<path d="M247.569 12.9311L247.596 27.3458L257.809 37.5197L265.877 37.4964V39.8842L256.823 39.9111L245.208 28.3399L245.178 11.9457L256.75 0.33196L265.873 0.312015L265.877 2.70155L257.745 2.71968L247.569 12.9311Z" fill="#F8F2E7"/>
<path fill-rule="evenodd" clip-rule="evenodd" d="M311.095 68.7989L284.899 68.847L266.41 87.4044L266.458 113.601L285.015 132.09L311.211 132.042L329.701 113.485L329.653 87.2884L311.095 68.7989ZM332.053 86.2891L312.086 66.3953L283.9 66.447L264.006 86.414L264.058 114.6L284.025 134.494L312.21 134.442L332.104 114.475L332.053 86.2891Z" fill="#F8F2E7"/>
<path d="M291.037 115.305L276.623 115.285L266.417 125.463L266.397 133.066L264.006 134.053L264.029 124.47L275.637 112.894L292.03 112.917L303.605 124.525L303.582 134.108L301.194 133.115L301.214 125.511L291.037 115.305Z" fill="#F8F2E7"/>
<path d="M319.478 115.285L305.067 115.311L294.896 125.52L294.922 133.121L292.535 134.115L292.505 124.535L304.073 112.924L320.463 112.894L332.074 124.463L332.104 134.043L329.713 133.058L329.687 125.456L319.478 115.285Z" fill="#F8F2E7"/>
<path d="M266.396 66.9297L266.422 74.8347L276.631 85.0061L291.042 84.9797L301.213 74.7709L301.187 66.5249L303.574 66.5249L303.604 75.756L292.036 87.3668L275.646 87.3969L264.035 75.8286L264.035 66.9297H266.396Z" fill="#F8F2E7"/>
<path d="M292.505 66.458L294.924 66.4581V74.8316L305.132 85.003L319.543 84.9766L329.715 74.7678V66.8894H332.105V75.7529L320.537 87.3637L304.147 87.3938L292.536 75.8256L292.505 66.458Z" fill="#F8F2E7"/>
<path d="M264.015 132.103L272.445 132.076L282.616 121.868L282.59 107.457L272.381 97.2853L264.015 97.3117V94.9246L273.366 94.8945L284.977 106.463L285.007 122.853L273.439 134.464L264.014 134.494L264.015 132.103Z" fill="#F8F2E7"/>
<path d="M264.006 103.903L272.443 103.876L282.615 93.6677L282.588 79.2567L272.38 69.0853L264.006 69.1118V66.7247L273.365 66.6946L284.975 78.2628L285.006 94.6528L273.437 106.264L264.006 106.294L264.006 103.903Z" fill="#F8F2E7"/>
<path d="M313.796 107.52L313.822 121.931L324.031 132.103L332.104 132.076V134.463L323.046 134.493L311.435 122.925L311.405 106.535L322.973 94.9243L332.104 94.9207V97.3114L323.967 97.3114L313.796 107.52Z" fill="#F8F2E7"/>
<path d="M313.796 79.3242L313.823 93.7388L324.036 103.913L332.104 103.89V106.277L323.05 106.304L311.435 94.733L311.405 78.3388L322.977 66.725L332.1 66.7051L332.104 69.0946L323.972 69.1127L313.796 79.3242Z" fill="#F8F2E7"/>
<path fill-rule="evenodd" clip-rule="evenodd" d="M377.49 68.7989L351.294 68.847L332.805 87.4044L332.853 113.601L351.41 132.09L377.606 132.042L396.096 113.485L396.048 87.2884L377.49 68.7989ZM398.448 86.2891L378.481 66.3953L350.295 66.447L330.401 86.414L330.453 114.6L350.42 134.494L378.605 134.442L398.499 114.475L398.448 86.2891Z" fill="#F8F2E7"/>
<path d="M357.432 115.305L343.018 115.285L332.812 125.463L332.792 133.066L330.401 134.053L330.424 124.47L342.032 112.894L358.425 112.917L370 124.525L369.977 134.108L367.589 133.115L367.609 125.511L357.432 115.305Z" fill="#F8F2E7"/>
<path d="M385.873 115.285L371.462 115.311L361.291 125.52L361.317 133.121L358.93 134.115L358.9 124.535L370.468 112.924L386.858 112.894L398.469 124.463L398.499 134.043L396.108 133.058L396.082 125.456L385.873 115.285Z" fill="#F8F2E7"/>
<path d="M332.791 66.9304L332.817 74.8355L343.026 85.0069L357.437 84.9804L367.608 74.7716L367.582 66.5257L369.969 66.5256L369.999 75.7568L358.431 87.3675L342.041 87.3976L330.43 75.8294L330.43 66.9304H332.791Z" fill="#F8F2E7"/>
<path d="M358.9 66.458L361.319 66.4581V74.8316L371.527 85.003L385.938 84.9766L396.11 74.7678V66.8894H398.5V75.7529L386.932 87.3637L370.542 87.3938L358.931 75.8256L358.9 66.458Z" fill="#F8F2E7"/>
<path d="M330.409 132.103L338.839 132.076L349.011 121.868L348.984 107.457L338.776 97.2853L330.409 97.3117V94.9246L339.761 94.8945L351.372 106.463L351.402 122.853L339.833 134.464L330.408 134.494L330.409 132.103Z" fill="#F8F2E7"/>
<path d="M330.401 103.903L338.838 103.876L349.01 93.6677L348.983 79.2567L338.775 69.0853L330.401 69.1118V66.7247L339.76 66.6946L351.371 78.2628L351.401 94.6528L339.832 106.264L330.401 106.294L330.401 103.903Z" fill="#F8F2E7"/>
<path d="M380.191 107.52L380.217 121.931L390.426 132.103L398.499 132.076V134.463L389.441 134.493L377.83 122.925L377.8 106.535L389.368 94.9243L398.499 94.9207V97.3114L390.362 97.3114L380.191 107.52Z" fill="#F8F2E7"/>
<path d="M380.191 79.3242L380.218 93.7388L390.431 103.913L398.499 103.89V106.277L389.445 106.304L377.83 94.733L377.8 78.3388L389.372 66.725L398.495 66.7051L398.499 69.0946L390.367 69.1127L380.191 79.3242Z" fill="#F8F2E7"/>
<path fill-rule="evenodd" clip-rule="evenodd" d="M311.095 2.40364L284.899 2.45172L266.41 21.0092L266.458 47.2053L285.015 65.6948L311.211 65.6467L329.701 47.0893L329.653 20.8931L311.095 2.40364ZM332.053 19.8938L312.086 0L283.9 0.0517302L264.006 20.0187L264.058 48.2046L284.025 68.0984L312.21 68.0467L332.104 48.0797L332.053 19.8938Z" fill="#F8F2E7"/>
<path d="M291.037 48.9089L276.623 48.8888L266.417 59.0665L266.397 66.6702L264.006 67.6566L264.029 58.0734L275.637 46.498L292.03 46.521L303.605 58.1287L303.582 67.7119L301.194 66.7188L301.214 59.1151L291.037 48.9089Z" fill="#F8F2E7"/>
<path d="M319.478 48.8888L305.067 48.9152L294.896 59.124L294.922 66.7251L292.535 67.719L292.505 58.1389L304.073 46.5281L320.463 46.498L332.074 58.0663L332.104 67.6464L329.713 66.6613L329.687 59.0602L319.478 48.8888Z" fill="#F8F2E7"/>
<path d="M266.396 0.534425L266.423 8.43947L276.632 18.6109L291.043 18.5844L301.214 8.37562L301.187 0.129658L303.575 0.129639L303.605 9.36076L292.036 20.9715L275.646 21.0016L264.036 9.43338L264.036 0.534425H266.396Z" fill="#F8F2E7"/>
<path d="M292.505 0.0625L294.924 0.0625593V8.43614L305.132 18.6075L319.543 18.5811L329.715 8.37229V0.493865H332.105V9.35743L320.537 20.9682L304.147 20.9983L292.536 9.43005L292.505 0.0625Z" fill="#F8F2E7"/>
<path d="M264.015 65.7064L272.445 65.6799L282.616 55.4711L282.59 41.0602L272.381 30.8888L264.015 30.9152V28.5281L273.366 28.498L284.977 40.0663L285.007 56.4563L273.439 68.0671L264.014 68.0971L264.015 65.7064Z" fill="#F8F2E7"/>
<path d="M264.006 37.5074L272.443 37.481L282.615 27.2722L282.588 12.8612L272.38 2.68981L264.006 2.71627V0.329156L273.365 0.299072L284.975 11.8673L285.006 28.2573L273.437 39.8681L264.006 39.8982L264.006 37.5074Z" fill="#F8F2E7"/>
<path d="M313.796 41.1239L313.822 55.5349L324.031 65.7063L332.105 65.6799V68.067L323.046 68.097L311.435 56.5288L311.405 40.1388L322.973 28.528L332.105 28.5244V30.9152L323.967 30.9151L313.796 41.1239Z" fill="#F8F2E7"/>
<path d="M313.797 12.9277L313.823 27.3423L324.036 37.5163L332.105 37.493V39.8807L323.051 39.9077L311.435 28.3365L311.405 11.9423L322.978 0.328542L332.1 0.308597L332.105 2.69814L323.972 2.71626L313.797 12.9277Z" fill="#F8F2E7"/>
<path fill-rule="evenodd" clip-rule="evenodd" d="M377.121 2.40486L350.924 2.45294L332.435 21.0104L332.483 47.2065L351.04 65.696L377.237 65.6479L395.726 47.0905L395.678 20.8943L377.121 2.40486ZM398.078 19.8951L378.111 0.0012207L349.925 0.0529509L330.031 20.02L330.083 48.2058L350.05 68.0997L378.236 68.0479L398.13 48.0809L398.078 19.8951Z" fill="#F8F2E7"/>
<path d="M357.061 48.9123L342.648 48.8922L332.442 59.0699L332.422 66.6736L330.031 67.66L330.054 58.0769L341.661 46.5015L358.054 46.5244L369.63 58.1322L369.607 67.7153L367.219 66.7222L367.239 59.1185L357.061 48.9123Z" fill="#F8F2E7"/>
<path d="M385.503 48.8922L371.092 48.9187L360.921 59.1275L360.947 66.7286L358.56 67.7225L358.53 58.1423L370.098 46.5315L386.488 46.5015L398.099 58.0697L398.129 67.6498L395.738 66.6647L395.712 59.0636L385.503 48.8922Z" fill="#F8F2E7"/>
<path d="M332.421 0.534181L332.448 8.43923L342.656 18.6106L357.067 18.5842L367.239 8.37538L367.212 0.129414L369.599 0.129395L369.63 9.36052L358.061 20.9713L341.671 21.0014L330.061 9.43314L330.061 0.534181H332.421Z" fill="#F8F2E7"/>
<path d="M358.53 0.0654297L360.948 0.0654889V8.43907L371.157 18.6105L385.568 18.584L395.74 8.37522V0.496795H398.13V9.36036L386.562 20.9711L370.172 21.0012L358.561 9.43298L358.53 0.0654297Z" fill="#F8F2E7"/>
<path d="M330.04 65.7098L338.47 65.6834L348.641 55.4746L348.615 41.0636L338.406 30.8922L330.039 30.9187V28.5315L339.391 28.5015L351.002 40.0697L351.032 56.4597L339.464 68.0705L330.039 68.1006L330.04 65.7098Z" fill="#F8F2E7"/>
<path d="M330.031 37.5103L338.468 37.4839L348.64 27.2751L348.613 12.8641L338.404 2.69274L330.031 2.7192V0.332086L339.39 0.302002L351 11.8702L351.03 28.2602L339.462 39.871L330.031 39.9011L330.031 37.5103Z" fill="#F8F2E7"/>
<path d="M379.821 41.1269L379.847 55.5378L390.056 65.7092L398.13 65.6828V68.0699L389.071 68.1L377.46 56.5317L377.43 40.1417L388.998 28.531L398.13 28.5273V30.9181L389.992 30.9181L379.821 41.1269Z" fill="#F8F2E7"/>
<path d="M379.822 12.9311L379.848 27.3458L390.061 37.5197L398.13 37.4964V39.8842L389.075 39.9111L377.46 28.3399L377.43 11.9457L389.003 0.33196L398.125 0.312015L398.13 2.70155L389.997 2.71968L379.822 12.9311Z" fill="#F8F2E7"/>
</g>
<defs>
<clipPath id="clip0">
<rect width="399" height="352" fill="white"/>
</clipPath>
</defs>
</svg>
