<svg width="71" height="70" viewBox="0 0 71 70" fill="none" xmlns="http://www.w3.org/2000/svg">
<path fill-rule="evenodd" clip-rule="evenodd" d="M46.399 68.7443L60.0847 68.7191L69.7443 59.0241L69.7191 45.3384L60.0241 35.6789L46.3384 35.704L36.6789 45.399L36.704 59.0847L46.399 68.7443ZM35.4502 59.6068L45.8816 70L60.6068 69.973L71 59.5416L70.973 44.8163L60.5416 34.4231L45.8163 34.4502L35.4231 44.8816L35.4502 59.6068Z" fill="#E7CB97"/>
<path d="M56.8783 44.4479L64.4084 44.4584L69.7405 39.1412L69.751 35.1688L71 34.6535L70.988 39.66L64.9237 45.7074L56.3595 45.6954L50.3121 39.6311L50.3241 34.6246L51.5717 35.1434L51.5611 39.1158L56.8783 44.4479Z" fill="#E7CB97"/>
<path d="M42.0197 44.4584L49.5485 44.4446L54.8623 39.1112L54.8485 35.1401L56.0956 34.6208L56.1113 39.6258L50.0677 45.6917L41.505 45.7074L35.4392 39.6638L35.4235 34.6588L36.6725 35.1735L36.6863 39.1445L42.0197 44.4584Z" fill="#E7CB97"/>
<path d="M69.7516 69.7205L69.7378 65.5907L64.4043 60.2768L56.8756 60.2906L51.5617 65.624L51.5755 69.932L50.3284 69.932L50.3127 65.1094L56.3563 59.0435L64.919 59.0278L70.9849 65.0714L70.9848 69.7205H69.7516Z" fill="#E7CB97"/>
<path d="M56.1113 69.9668L54.8477 69.9668V65.5921L49.5143 60.2783L41.9855 60.2921L36.6717 65.6255V69.7414H35.4227V65.1108L41.4663 59.045L50.029 59.0293L56.0948 65.0729L56.1113 69.9668Z" fill="#E7CB97"/>
<path d="M70.9955 35.6722L66.5913 35.686L61.2775 41.0194L61.2913 48.5482L66.6247 53.8621L70.9956 53.8483V55.0954L66.11 55.1111L60.0442 49.0675L60.0285 40.5048L66.0721 34.4389L70.9961 34.4232L70.9955 35.6722Z" fill="#E7CB97"/>
<path d="M71 50.4044L66.5919 50.4182L61.2781 55.7516L61.2919 63.2804L66.6253 68.5943L70.9999 68.5804V69.8275L66.1106 69.8433L60.0448 63.7996L60.0291 55.237L66.0727 49.1711L70.9999 49.1554L71 50.4044Z" fill="#E7CB97"/>
<path d="M44.9878 48.515L44.974 40.9862L39.6406 35.6724L35.4227 35.6862V34.4391L40.1553 34.4234L46.2211 40.467L46.2368 49.0297L40.1932 55.0955L35.4227 55.0974V53.8484L39.6739 53.8484L44.9878 48.515Z" fill="#E7CB97"/>
<path d="M44.9873 63.2456L44.9735 55.7149L39.6381 50.3997L35.4227 50.4119V49.1645L40.1529 49.1504L46.2211 55.1956L46.2368 63.7604L40.1909 69.8278L35.425 69.8383L35.4227 68.5899L39.6714 68.5804L44.9873 63.2456Z" fill="#E7CB97"/>
<path fill-rule="evenodd" clip-rule="evenodd" d="M25.2157 68.7443L11.53 68.7191L1.87049 59.0241L1.89561 45.3384L11.5906 35.6789L25.2764 35.704L34.9359 45.399L34.9108 59.0847L25.2157 68.7443ZM36.1646 59.6068L25.7332 70L11.0079 69.973L0.614746 59.5416L0.641771 44.8163L11.0732 34.4231L25.7984 34.4502L36.1916 44.8816L36.1646 59.6068Z" fill="#E7CB97"/>
<path d="M14.7364 44.4479L7.20632 44.4584L1.87427 39.1412L1.86375 35.1688L0.614746 34.6535L0.626712 39.66L6.69101 45.7074L15.2552 45.6954L21.3026 39.6311L21.2907 34.6246L20.0431 35.1434L20.0536 39.1158L14.7364 44.4479Z" fill="#E7CB97"/>
<path d="M29.5955 44.4584L22.0668 44.4446L16.7529 39.1112L16.7667 35.1401L15.5196 34.6208L15.5039 39.6258L21.5475 45.6917L30.1102 45.7074L36.1761 39.6638L36.1918 34.6588L34.9428 35.1735L34.929 39.1445L29.5955 44.4584Z" fill="#E7CB97"/>
<path d="M1.86317 69.7211L1.87699 65.5913L7.2104 60.2774L14.7392 60.2912L20.053 65.6246L20.0392 69.9326L21.2863 69.9326L21.302 65.11L15.2584 59.0441L6.69573 59.0284L0.629883 65.072L0.629965 69.7211H1.86317Z" fill="#E7CB97"/>
<path d="M15.5039 69.9668L16.7675 69.9668V65.5921L22.1009 60.2783L29.6297 60.2921L34.9436 65.6255V69.7414H36.1926V65.1108L30.1489 59.045L21.5863 59.0293L15.5204 65.0729L15.5039 69.9668Z" fill="#E7CB97"/>
<path d="M0.619219 35.6722L5.02341 35.686L10.3373 41.0194L10.3235 48.5482L4.99005 53.8621L0.619112 53.8483V55.0954L5.50472 55.1111L11.5706 49.0675L11.5863 40.5048L5.54266 34.4389L0.618652 34.4232L0.619219 35.6722Z" fill="#E7CB97"/>
<path d="M0.614746 50.4044L5.02282 50.4182L10.3367 55.7516L10.3229 63.2804L4.98946 68.5943L0.614805 68.5804V69.8275L5.50413 69.8433L11.57 63.7996L11.5857 55.237L5.54207 49.1711L0.614805 49.1554L0.614746 50.4044Z" fill="#E7CB97"/>
<path d="M26.6269 48.515L26.6408 40.9862L31.9742 35.6724L36.192 35.6862V34.4391L31.4595 34.4234L25.3936 40.467L25.3779 49.0297L31.4216 55.0955L36.192 55.0974V53.8484L31.9408 53.8484L26.6269 48.515Z" fill="#E7CB97"/>
<path d="M26.6274 63.2456L26.6412 55.7149L31.9767 50.3997L36.192 50.4119V49.1645L31.4618 49.1504L25.3937 55.1956L25.3779 63.7604L31.4238 69.8278L36.1898 69.8383L36.192 68.5899L31.9433 68.5804L26.6274 63.2456Z" fill="#E7CB97"/>
<path fill-rule="evenodd" clip-rule="evenodd" d="M46.399 34.3212L60.0847 34.296L69.7443 24.601L69.7191 10.9153L60.0241 1.25578L46.3384 1.28089L36.6789 10.9759L36.704 24.6617L46.399 34.3212ZM35.4502 25.1837L45.8816 35.5769L60.6068 35.5499L71 25.1185L70.973 10.3932L60.5416 3.43323e-05L45.8163 0.0270576L35.4231 10.4585L35.4502 25.1837Z" fill="#E7CB97"/>
<path d="M56.8783 10.0247L64.4084 10.0352L69.7405 4.71801L69.751 0.74558L71 0.230269L70.988 5.23681L64.9237 11.2842L56.3595 11.2722L50.3121 5.20792L50.3241 0.201381L51.5717 0.720179L51.5611 4.69261L56.8783 10.0247Z" fill="#E7CB97"/>
<path d="M42.0197 10.0352L49.5485 10.0214L54.8623 4.68795L54.8485 0.716883L56.0956 0.197632L56.1113 5.20262L50.0677 11.2685L41.505 11.2842L35.4392 5.24056L35.4235 0.235571L36.6725 0.750241L36.6863 4.72131L42.0197 10.0352Z" fill="#E7CB97"/>
<path d="M69.7516 35.2984L69.7378 31.1686L64.4043 25.8547L56.8756 25.8685L51.5617 31.2019L51.5755 35.5099L50.3284 35.5099L50.3127 30.6872L56.3563 24.6214L64.919 24.6057L70.9849 30.6493L70.9848 35.2984H69.7516Z" fill="#E7CB97"/>
<path d="M56.1113 35.5437L54.8477 35.5437V31.169L49.5143 25.8552L41.9855 25.869L36.6717 31.2024V35.3183H35.4227V30.6877L41.4663 24.6219L50.029 24.6062L56.0948 30.6498L56.1113 35.5437Z" fill="#E7CB97"/>
<path d="M70.9955 1.24912L66.5913 1.26294L61.2775 6.59635L61.2913 14.1251L66.6247 19.439L70.9956 19.4252V20.6723L66.11 20.688L60.0442 14.6444L60.0285 6.08168L66.0721 0.0158348L70.9961 0.000118256L70.9955 1.24912Z" fill="#E7CB97"/>
<path d="M71 15.9813L66.5919 15.9951L61.2781 21.3285L61.2919 28.8573L66.6253 34.1712L70.9999 34.1573V35.4044L66.1106 35.4202L60.0448 29.3765L60.0291 20.8139L66.0727 14.748L70.9999 14.7323L71 15.9813Z" fill="#E7CB97"/>
<path d="M44.9878 14.0918L44.974 6.56302L39.6406 1.24915L35.4227 1.26297V0.0158596L40.1553 0.000150681L46.2211 6.04377L46.2368 14.6065L40.1932 20.6723L35.4227 20.6742V19.4252L39.6739 19.4252L44.9878 14.0918Z" fill="#E7CB97"/>
<path d="M44.9873 28.8225L44.9735 21.2918L39.6381 15.9766L35.4227 15.9888V14.7414L40.1529 14.7273L46.2211 20.7725L46.2368 29.3373L40.1909 35.4047L35.425 35.4152L35.4227 34.1668L39.6714 34.1573L44.9873 28.8225Z" fill="#E7CB97"/>
</svg>
