<svg width="59" height="39" viewBox="0 0 59 39" fill="none" xmlns="http://www.w3.org/2000/svg">
<path fill-rule="evenodd" clip-rule="evenodd" d="M26.231 34.8897L20.7824 29.4503L29.5 20.7474L38.2176 29.4504L32.769 34.8898C32.2992 35.3589 31.7533 35.7059 31.1711 35.9308C29.516 36.5701 27.5666 36.223 26.231 34.8897ZM31.7456 37.3589C32.5155 37.0588 33.2372 36.5984 33.859 35.9776L39.467 30.379L45.8456 36.7468C48.8548 39.7509 53.7336 39.7509 56.7428 36.7468C59.752 33.7427 59.752 28.8721 56.7428 25.868L50.3642 19.5001L56.7431 13.132C59.7523 10.1278 59.7523 5.2572 56.7431 2.25309C53.7339 -0.75103 48.8551 -0.751029 45.8459 2.25309L39.4672 8.62109L39.3077 8.46185L33.8591 3.02241C32.9938 2.15862 31.9354 1.6053 30.8226 1.36244C30.7379 1.34396 30.653 1.32727 30.5677 1.31238C28.6562 0.978453 26.6173 1.54844 25.1409 3.02233L19.6923 8.46177L19.5327 8.62111L13.1541 2.25319C10.1449 -0.750923 5.26606 -0.750923 2.25688 2.25319C-0.752294 5.25731 -0.752294 10.1279 2.25688 13.1321L8.63577 19.5002L2.25722 25.868C-0.751955 28.8722 -0.751954 33.7428 2.25722 36.7469C5.2664 39.751 10.1452 39.751 13.1544 36.7469L19.533 30.3791L25.141 35.9777C26.9265 37.7603 29.535 38.2207 31.7456 37.3589ZM30.7493 19.5001L39.467 10.797L48.1848 19.5001L39.467 28.2032L30.7493 19.5001ZM49.2745 18.4122L40.5568 9.70914L46.9356 3.34097C49.343 0.937681 53.2461 0.937681 55.6534 3.34097C58.0607 5.74427 58.0607 9.64078 55.6534 12.0441L49.2745 18.4122ZM49.2745 20.588L40.5568 29.2911L46.9353 35.6589C49.3426 38.0622 53.2457 38.0622 55.6531 35.6589C58.0604 33.2556 58.0604 29.3591 55.6531 26.9558L49.2745 20.588ZM12.0644 3.34108L18.4432 9.70924L9.72548 18.4123L3.3466 12.0442C0.939261 9.64089 0.93926 5.74438 3.3466 3.34108C5.75394 0.937788 9.65701 0.937788 12.0644 3.34108ZM32.769 4.11022C32.1201 3.46246 31.3264 3.04748 30.4919 2.8653C30.4375 2.85342 30.3829 2.84253 30.3281 2.83262C28.8867 2.57205 27.3453 2.99794 26.231 4.1103L20.7823 9.5499L29.5 18.253L38.2178 9.5499L32.769 4.11022ZM10.8152 19.5002L19.533 10.7971L28.2507 19.5002L19.533 28.2033L10.8152 19.5002ZM9.72548 20.5881L18.4432 29.2912L12.0647 35.659C9.65736 38.0623 5.75428 38.0623 3.34694 35.659C0.939601 33.2557 0.9396 29.3592 3.34694 26.9559L9.72548 20.5881Z" fill="#E7CB97"/>
</svg>
