<svg width="649" height="570" viewBox="0 0 649 570" fill="none" xmlns="http://www.w3.org/2000/svg">
<path fill-rule="evenodd" clip-rule="evenodd" d="M45.7284 30.8028L36.9785 30.8189L30.8028 37.0173L30.8189 45.7671L37.0173 51.9428L45.7671 51.9268L51.9428 45.7284L51.9268 36.9785L45.7284 30.8028ZM52.7284 36.6448L46.0592 30L36.6448 30.0173L30 36.6865L30.0173 46.1009L36.6865 52.7457L46.1009 52.7284L52.7457 46.0592L52.7284 36.6448Z" fill="#F8F2E7"/>
<path d="M39.0286 46.3365L34.2143 46.3298L30.8053 49.7293L30.7985 52.269L30 52.5984L30.0077 49.3976L33.8848 45.5312L39.3602 45.5389L43.2266 49.416L43.2189 52.6169L42.4213 52.2852L42.428 49.7455L39.0286 46.3365Z" fill="#F8F2E7"/>
<path d="M48.5284 46.3298L43.7149 46.3386L40.3176 49.7485L40.3264 52.2873L39.5291 52.6193L39.519 49.4194L43.383 45.5413L48.8574 45.5312L52.7356 49.3952L52.7456 52.5951L51.9471 52.266L51.9382 49.7272L48.5284 46.3298Z" fill="#F8F2E7"/>
<path d="M30.7983 30.1793L30.8071 32.8197L34.2169 36.217L39.0304 36.2082L42.4278 32.7983L42.4189 30.0441L43.2162 30.0441L43.2263 33.1274L39.3624 37.0055L33.8879 37.0156L30.0098 33.1516L30.0098 30.1793H30.7983Z" fill="#F8F2E7"/>
<path d="M39.519 30.0212L40.3269 30.0213V32.8181L43.7368 36.2155L48.5502 36.2067L51.9476 32.7968V30.1653H52.7461V33.1259L48.8822 37.004L43.4077 37.014L39.5296 33.1501L39.519 30.0212Z" fill="#F8F2E7"/>
<path d="M30.0028 51.9471L32.8186 51.9382L36.2159 48.5284L36.2071 43.7149L32.7972 40.3176L30.0027 40.3264V39.5291L33.1263 39.519L37.0044 43.383L37.0145 48.8574L33.1506 52.7356L30.0024 52.7456L30.0028 51.9471Z" fill="#F8F2E7"/>
<path d="M30 42.5282L32.8183 42.5194L36.2156 39.1096L36.2068 34.2961L32.7969 30.8988L30 30.9076V30.1103L33.126 30.1002L37.0041 33.9641L37.0142 39.4386L33.1502 43.3167L30 43.3268L30 42.5282Z" fill="#F8F2E7"/>
<path d="M46.6306 43.7362L46.6394 48.5497L50.0493 51.947L52.7459 51.9382V52.7355L49.7202 52.7456L45.8421 48.8816L45.832 43.4072L49.696 39.529L52.7459 39.5278V40.3264L50.0279 40.3264L46.6306 43.7362Z" fill="#F8F2E7"/>
<path d="M46.6309 34.3183L46.6397 39.133L50.0509 42.5312L52.7459 42.5234V43.321L49.7217 43.33L45.8421 39.465L45.832 33.9892L49.6974 30.1101L52.7445 30.1034L52.7459 30.9015L50.0295 30.9076L46.6309 34.3183Z" fill="#F8F2E7"/>
<path fill-rule="evenodd" clip-rule="evenodd" d="M59.2716 30.8028L68.0215 30.8189L74.1972 37.0173L74.1811 45.7671L67.9827 51.9428L59.2329 51.9268L53.0572 45.7284L53.0732 36.9785L59.2716 30.8028ZM52.2716 36.6448L58.9408 30L68.3552 30.0173L75 36.6865L74.9827 46.1009L68.3135 52.7457L58.8991 52.7284L52.2543 46.0592L52.2716 36.6448Z" fill="#F8F2E7"/>
<path d="M65.9714 46.3365L70.7857 46.3298L74.1947 49.7293L74.2015 52.269L75 52.5984L74.9923 49.3976L71.1152 45.5312L65.6398 45.5389L61.7734 49.416L61.7811 52.6169L62.5787 52.2852L62.572 49.7455L65.9714 46.3365Z" fill="#F8F2E7"/>
<path d="M56.4716 46.3298L61.2851 46.3386L64.6824 49.7485L64.6736 52.2873L65.4709 52.6193L65.481 49.4194L61.617 45.5413L56.1426 45.5312L52.2644 49.3952L52.2544 52.5951L53.0529 52.266L53.0618 49.7272L56.4716 46.3298Z" fill="#F8F2E7"/>
<path d="M74.2017 30.1789L74.1929 32.8193L70.7831 36.2167L65.9696 36.2078L62.5722 32.798L62.5811 30.0437L61.7838 30.0437L61.7737 33.127L65.6376 37.0051L71.1121 37.0152L74.9902 33.1513L74.9902 30.1789H74.2017Z" fill="#F8F2E7"/>
<path d="M65.481 30.0212L64.6731 30.0213V32.8181L61.2632 36.2155L56.4498 36.2067L53.0524 32.7968V30.1653H52.2539V33.1259L56.1178 37.004L61.5923 37.014L65.4704 33.1501L65.481 30.0212Z" fill="#F8F2E7"/>
<path d="M74.9972 51.9471L72.1814 51.9382L68.7841 48.5284L68.7929 43.7149L72.2028 40.3176L74.9973 40.3264V39.5291L71.8737 39.519L67.9956 43.383L67.9855 48.8574L71.8494 52.7356L74.9976 52.7456L74.9972 51.9471Z" fill="#F8F2E7"/>
<path d="M75 42.5282L72.1817 42.5194L68.7844 39.1096L68.7932 34.2961L72.2031 30.8988L75 30.9076V30.1103L71.874 30.1002L67.9959 33.9641L67.9858 39.4386L71.8498 43.3167L75 43.3268L75 42.5282Z" fill="#F8F2E7"/>
<path d="M58.3694 43.7362L58.3606 48.5497L54.9507 51.947L52.2541 51.9382V52.7355L55.2798 52.7456L59.1579 48.8816L59.168 43.4072L55.304 39.529L52.2541 39.5278V40.3264L54.9721 40.3264L58.3694 43.7362Z" fill="#F8F2E7"/>
<path d="M58.3691 34.3183L58.3603 39.133L54.9491 42.5312L52.2541 42.5234V43.321L55.2783 43.33L59.1579 39.465L59.168 33.9892L55.3026 30.1101L52.2555 30.1034L52.2541 30.9015L54.9705 30.9076L58.3691 34.3183Z" fill="#F8F2E7"/>
<path fill-rule="evenodd" clip-rule="evenodd" d="M45.7284 52.8109L36.9785 52.827L30.8028 59.0254L30.8189 67.7752L37.0173 73.9509L45.7671 73.9348L51.9428 67.7364L51.9268 58.9866L45.7284 52.8109ZM52.7284 58.6528L46.0592 52.0081L36.6448 52.0253L30 58.6946L30.0173 68.109L36.6865 74.7537L46.1009 74.7365L52.7457 68.0673L52.7284 58.6528Z" fill="#F8F2E7"/>
<path d="M39.0286 68.3446L34.2143 68.3378L30.8053 71.7373L30.7985 74.277L30 74.6065L30.0077 71.4056L33.8848 67.5393L39.3602 67.547L43.2266 71.4241L43.2189 74.625L42.4213 74.2933L42.428 71.7536L39.0286 68.3446Z" fill="#F8F2E7"/>
<path d="M48.5284 68.3378L43.7149 68.3467L40.3176 71.7565L40.3264 74.2954L39.5291 74.6274L39.519 71.4275L43.383 67.5494L48.8574 67.5393L52.7356 71.4032L52.7456 74.6031L51.9471 74.2741L51.9382 71.7352L48.5284 68.3378Z" fill="#F8F2E7"/>
<path d="M30.7983 52.1861L30.8071 54.8265L34.2169 58.2239L39.0304 58.215L42.4278 54.8052L42.4189 52.0509L43.2162 52.0509L43.2263 55.1342L39.3624 59.0123L33.8879 59.0224L30.0098 55.1585L30.0098 52.1861H30.7983Z" fill="#F8F2E7"/>
<path d="M39.519 52.0293L40.3269 52.0293V54.8262L43.7368 58.2236L48.5502 58.2147L51.9476 54.8049V52.1734H52.7461V55.1339L48.8822 59.012L43.4077 59.0221L39.5296 55.1582L39.519 52.0293Z" fill="#F8F2E7"/>
<path d="M30.0028 73.9551L32.8186 73.9463L36.2159 70.5364L36.2071 65.723L32.7972 62.3256L30.0027 62.3345V61.5371L33.1263 61.5271L37.0044 65.391L37.0145 70.8655L33.1506 74.7436L30.0024 74.7537L30.0028 73.9551Z" fill="#F8F2E7"/>
<path d="M30 64.5363L32.8183 64.5275L36.2156 61.1176L36.2068 56.3042L32.7969 52.9068L30 52.9156V52.1183L33.126 52.1083L37.0041 55.9722L37.0142 61.4467L33.1502 65.3248L30 65.3348L30 64.5363Z" fill="#F8F2E7"/>
<path d="M46.6306 65.7443L46.6394 70.5577L50.0493 73.9551L52.7459 73.9462V74.7436L49.7202 74.7536L45.8421 70.8897L45.832 65.4152L49.696 61.5371L52.7459 61.5359V62.3344L50.0279 62.3344L46.6306 65.7443Z" fill="#F8F2E7"/>
<path d="M46.6309 56.3264L46.6397 61.141L50.0509 64.5393L52.7459 64.5315V65.329L49.7217 65.338L45.8421 61.4731L45.832 55.9972L49.6974 52.1181L52.7445 52.1115L52.7459 52.9096L50.0295 52.9156L46.6309 56.3264Z" fill="#F8F2E7"/>
<path fill-rule="evenodd" clip-rule="evenodd" d="M603.272 30.8028L612.021 30.8189L618.197 37.0173L618.181 45.7671L611.983 51.9428L603.233 51.9268L597.057 45.7284L597.073 36.9785L603.272 30.8028ZM596.272 36.6448L602.941 30L612.355 30.0173L619 36.6865L618.983 46.1009L612.314 52.7457L602.899 52.7284L596.254 46.0592L596.272 36.6448Z" fill="#F8F2E7"/>
<path d="M609.971 46.3365L614.786 46.3298L618.195 49.7293L618.201 52.269L619 52.5984L618.992 49.3976L615.115 45.5312L609.64 45.5389L605.773 49.416L605.781 52.6169L606.579 52.2852L606.572 49.7455L609.971 46.3365Z" fill="#F8F2E7"/>
<path d="M600.472 46.3298L605.285 46.3386L608.682 49.7485L608.674 52.2873L609.471 52.6193L609.481 49.4194L605.617 45.5413L600.143 45.5312L596.264 49.3952L596.254 52.5951L597.053 52.266L597.062 49.7272L600.472 46.3298Z" fill="#F8F2E7"/>
<path d="M618.202 30.1793L618.193 32.8197L614.783 36.217L609.97 36.2082L606.572 32.7983L606.581 30.0441L605.784 30.0441L605.774 33.1274L609.638 37.0055L615.112 37.0156L618.99 33.1516L618.99 30.1793H618.202Z" fill="#F8F2E7"/>
<path d="M609.481 30.0212L608.673 30.0213V32.8181L605.263 36.2155L600.45 36.2067L597.052 32.7968V30.1653H596.254V33.1259L600.118 37.004L605.592 37.014L609.47 33.1501L609.481 30.0212Z" fill="#F8F2E7"/>
<path d="M618.997 51.9471L616.181 51.9382L612.784 48.5284L612.793 43.7149L616.203 40.3176L618.997 40.3264V39.5291L615.874 39.519L611.996 43.383L611.986 48.8574L615.849 52.7356L618.998 52.7456L618.997 51.9471Z" fill="#F8F2E7"/>
<path d="M619 42.5282L616.182 42.5194L612.784 39.1096L612.793 34.2961L616.203 30.8988L619 30.9076V30.1103L615.874 30.1002L611.996 33.9641L611.986 39.4386L615.85 43.3167L619 43.3268L619 42.5282Z" fill="#F8F2E7"/>
<path d="M602.369 43.7362L602.361 48.5497L598.951 51.947L596.254 51.9382V52.7355L599.28 52.7456L603.158 48.8816L603.168 43.4072L599.304 39.529L596.254 39.5278V40.3264L598.972 40.3264L602.369 43.7362Z" fill="#F8F2E7"/>
<path d="M602.369 34.3183L602.36 39.133L598.949 42.5312L596.254 42.5234V43.321L599.278 43.33L603.158 39.465L603.168 33.9892L599.303 30.1101L596.256 30.1034L596.254 30.9015L598.97 30.9076L602.369 34.3183Z" fill="#F8F2E7"/>
<path fill-rule="evenodd" clip-rule="evenodd" d="M589.728 30.8028L580.979 30.8189L574.803 37.0173L574.819 45.7671L581.017 51.9428L589.767 51.9268L595.943 45.7284L595.927 36.9785L589.728 30.8028ZM596.728 36.6448L590.059 30L580.645 30.0173L574 36.6865L574.017 46.1009L580.686 52.7457L590.101 52.7284L596.746 46.0592L596.728 36.6448Z" fill="#F8F2E7"/>
<path d="M583.029 46.3365L578.214 46.3298L574.805 49.7293L574.799 52.269L574 52.5984L574.008 49.3976L577.885 45.5312L583.36 45.5389L587.227 49.416L587.219 52.6169L586.421 52.2852L586.428 49.7455L583.029 46.3365Z" fill="#F8F2E7"/>
<path d="M592.528 46.3298L587.715 46.3386L584.318 49.7485L584.326 52.2873L583.529 52.6193L583.519 49.4194L587.383 45.5413L592.857 45.5312L596.736 49.3952L596.746 52.5951L595.947 52.266L595.938 49.7272L592.528 46.3298Z" fill="#F8F2E7"/>
<path d="M574.798 30.1789L574.807 32.8193L578.217 36.2167L583.03 36.2078L586.428 32.798L586.419 30.0437L587.216 30.0437L587.226 33.127L583.362 37.0051L577.888 37.0152L574.01 33.1513L574.01 30.1789H574.798Z" fill="#F8F2E7"/>
<path d="M583.519 30.0212L584.327 30.0213V32.8181L587.737 36.2155L592.55 36.2067L595.948 32.7968V30.1653H596.746V33.1259L592.882 37.004L587.408 37.014L583.53 33.1501L583.519 30.0212Z" fill="#F8F2E7"/>
<path d="M574.003 51.9471L576.819 51.9382L580.216 48.5284L580.207 43.7149L576.797 40.3176L574.003 40.3264V39.5291L577.126 39.519L581.004 43.383L581.014 48.8574L577.151 52.7356L574.002 52.7456L574.003 51.9471Z" fill="#F8F2E7"/>
<path d="M574 42.5282L576.818 42.5194L580.216 39.1096L580.207 34.2961L576.797 30.8988L574 30.9076V30.1103L577.126 30.1002L581.004 33.9641L581.014 39.4386L577.15 43.3167L574 43.3268L574 42.5282Z" fill="#F8F2E7"/>
<path d="M590.631 43.7362L590.639 48.5497L594.049 51.947L596.746 51.9382V52.7355L593.72 52.7456L589.842 48.8816L589.832 43.4072L593.696 39.529L596.746 39.5278V40.3264L594.028 40.3264L590.631 43.7362Z" fill="#F8F2E7"/>
<path d="M590.631 34.3183L590.64 39.133L594.051 42.5312L596.746 42.5234V43.321L593.722 43.33L589.842 39.465L589.832 33.9892L593.697 30.1101L596.744 30.1034L596.746 30.9015L594.03 30.9076L590.631 34.3183Z" fill="#F8F2E7"/>
<path fill-rule="evenodd" clip-rule="evenodd" d="M603.272 52.8109L612.021 52.827L618.197 59.0254L618.181 67.7752L611.983 73.9509L603.233 73.9348L597.057 67.7364L597.073 58.9866L603.272 52.8109ZM596.272 58.6528L602.941 52.0081L612.355 52.0253L619 58.6946L618.983 68.109L612.314 74.7537L602.899 74.7365L596.254 68.0673L596.272 58.6528Z" fill="#F8F2E7"/>
<path d="M609.971 68.3446L614.786 68.3378L618.195 71.7373L618.201 74.277L619 74.6065L618.992 71.4056L615.115 67.5393L609.64 67.547L605.773 71.4241L605.781 74.625L606.579 74.2933L606.572 71.7536L609.971 68.3446Z" fill="#F8F2E7"/>
<path d="M600.472 68.3378L605.285 68.3467L608.682 71.7565L608.674 74.2954L609.471 74.6274L609.481 71.4275L605.617 67.5494L600.143 67.5393L596.264 71.4032L596.254 74.6031L597.053 74.2741L597.062 71.7352L600.472 68.3378Z" fill="#F8F2E7"/>
<path d="M618.202 52.1861L618.193 54.8265L614.783 58.2239L609.97 58.215L606.572 54.8052L606.581 52.0509L605.784 52.0509L605.774 55.1342L609.638 59.0123L615.112 59.0224L618.99 55.1585L618.99 52.1861H618.202Z" fill="#F8F2E7"/>
<path d="M609.481 52.0293L608.673 52.0293V54.8262L605.263 58.2236L600.45 58.2147L597.052 54.8049V52.1734H596.254V55.1339L600.118 59.012L605.592 59.0221L609.47 55.1582L609.481 52.0293Z" fill="#F8F2E7"/>
<path d="M618.997 73.9551L616.181 73.9463L612.784 70.5364L612.793 65.723L616.203 62.3256L618.997 62.3345V61.5371L615.874 61.5271L611.996 65.391L611.986 70.8655L615.849 74.7436L618.998 74.7537L618.997 73.9551Z" fill="#F8F2E7"/>
<path d="M619 64.5363L616.182 64.5275L612.784 61.1176L612.793 56.3042L616.203 52.9068L619 52.9156V52.1183L615.874 52.1083L611.996 55.9722L611.986 61.4467L615.85 65.3248L619 65.3348L619 64.5363Z" fill="#F8F2E7"/>
<path d="M602.369 65.7443L602.361 70.5577L598.951 73.9551L596.254 73.9462V74.7436L599.28 74.7536L603.158 70.8897L603.168 65.4152L599.304 61.5371L596.254 61.5359V62.3344L598.972 62.3344L602.369 65.7443Z" fill="#F8F2E7"/>
<path d="M602.369 56.3264L602.36 61.141L598.949 64.5393L596.254 64.5315V65.329L599.278 65.338L603.158 61.4731L603.168 55.9972L599.303 52.1181L596.256 52.1115L596.254 52.9096L598.97 52.9156L602.369 56.3264Z" fill="#F8F2E7"/>
<path fill-rule="evenodd" clip-rule="evenodd" d="M45.7284 534.951L36.9785 534.935L30.8028 528.736L30.8189 519.987L37.0173 513.811L45.7671 513.827L51.9428 520.025L51.9268 528.775L45.7284 534.951ZM52.7284 529.109L46.0592 535.754L36.6448 535.736L30 529.067L30.0173 519.653L36.6865 513.008L46.1009 513.025L52.7457 519.694L52.7284 529.109Z" fill="#F8F2E7"/>
<path d="M39.0286 519.417L34.2143 519.424L30.8053 516.024L30.7985 513.485L30 513.155L30.0077 516.356L33.8848 520.222L39.3602 520.215L43.2266 516.338L43.2189 513.137L42.4213 513.468L42.428 516.008L39.0286 519.417Z" fill="#F8F2E7"/>
<path d="M48.5284 519.424L43.7149 519.415L40.3176 516.005L40.3264 513.466L39.5291 513.134L39.519 516.334L43.383 520.212L48.8574 520.222L52.7356 516.358L52.7456 513.159L51.9471 513.488L51.9382 516.027L48.5284 519.424Z" fill="#F8F2E7"/>
<path d="M30.7983 535.574L30.8071 532.934L34.2169 529.537L39.0304 529.545L42.4278 532.955L42.4189 535.71L43.2162 535.71L43.2263 532.626L39.3624 528.748L33.8879 528.738L30.0098 532.602L30.0098 535.574H30.7983Z" fill="#F8F2E7"/>
<path d="M39.519 535.732L40.3269 535.732V532.936L43.7368 529.538L48.5502 529.547L51.9476 532.957V535.588H52.7461V532.628L48.8822 528.75L43.4077 528.74L39.5296 532.604L39.519 535.732Z" fill="#F8F2E7"/>
<path d="M30.0028 513.807L32.8186 513.815L36.2159 517.225L36.2071 522.039L32.7972 525.436L30.0027 525.427V526.225L33.1263 526.235L37.0044 522.371L37.0145 516.896L33.1506 513.018L30.0024 513.008L30.0028 513.807Z" fill="#F8F2E7"/>
<path d="M30 523.225L32.8183 523.234L36.2156 526.644L36.2068 531.458L32.7969 534.855L30 534.846V535.643L33.126 535.653L37.0041 531.79L37.0142 526.315L33.1502 522.437L30 522.427L30 523.225Z" fill="#F8F2E7"/>
<path d="M46.6306 522.017L46.6394 517.204L50.0493 513.807L52.7459 513.815V513.018L49.7202 513.008L45.8421 516.872L45.832 522.346L49.696 526.225L52.7459 526.226V525.427L50.0279 525.427L46.6306 522.017Z" fill="#F8F2E7"/>
<path d="M46.6309 531.435L46.6397 526.621L50.0509 523.222L52.7459 523.23V522.433L49.7217 522.424L45.8421 526.289L45.832 531.764L49.6974 535.644L52.7445 535.65L52.7459 534.852L50.0295 534.846L46.6309 531.435Z" fill="#F8F2E7"/>
<path fill-rule="evenodd" clip-rule="evenodd" d="M59.2716 534.951L68.0215 534.935L74.1972 528.736L74.1811 519.987L67.9827 513.811L59.2329 513.827L53.0572 520.025L53.0732 528.775L59.2716 534.951ZM52.2716 529.109L58.9408 535.754L68.3552 535.736L75 529.067L74.9827 519.653L68.3135 513.008L58.8991 513.025L52.2543 519.694L52.2716 529.109Z" fill="#F8F2E7"/>
<path d="M65.9714 519.417L70.7857 519.424L74.1947 516.024L74.2015 513.485L75 513.155L74.9923 516.356L71.1152 520.222L65.6398 520.215L61.7734 516.338L61.7811 513.137L62.5787 513.468L62.572 516.008L65.9714 519.417Z" fill="#F8F2E7"/>
<path d="M56.4716 519.424L61.2851 519.415L64.6824 516.005L64.6736 513.466L65.4709 513.134L65.481 516.334L61.617 520.212L56.1426 520.222L52.2644 516.358L52.2544 513.159L53.0529 513.488L53.0618 516.027L56.4716 519.424Z" fill="#F8F2E7"/>
<path d="M74.2017 535.575L74.1929 532.934L70.7831 529.537L65.9696 529.546L62.5722 532.956L62.5811 535.71L61.7838 535.71L61.7737 532.627L65.6376 528.749L71.1121 528.738L74.9902 532.602L74.9902 535.575H74.2017Z" fill="#F8F2E7"/>
<path d="M65.481 535.732L64.6731 535.732V532.936L61.2632 529.538L56.4498 529.547L53.0524 532.957V535.588H52.2539V532.628L56.1178 528.75L61.5923 528.74L65.4704 532.604L65.481 535.732Z" fill="#F8F2E7"/>
<path d="M74.9972 513.807L72.1814 513.815L68.7841 517.225L68.7929 522.039L72.2028 525.436L74.9973 525.427V526.225L71.8737 526.235L67.9956 522.371L67.9855 516.896L71.8494 513.018L74.9976 513.008L74.9972 513.807Z" fill="#F8F2E7"/>
<path d="M75 523.225L72.1817 523.234L68.7844 526.644L68.7932 531.458L72.2031 534.855L75 534.846V535.643L71.874 535.653L67.9959 531.79L67.9858 526.315L71.8498 522.437L75 522.427L75 523.225Z" fill="#F8F2E7"/>
<path d="M58.3694 522.017L58.3606 517.204L54.9507 513.807L52.2541 513.815V513.018L55.2798 513.008L59.1579 516.872L59.168 522.346L55.304 526.225L52.2541 526.226V525.427L54.9721 525.427L58.3694 522.017Z" fill="#F8F2E7"/>
<path d="M58.3691 531.435L58.3603 526.621L54.9491 523.222L52.2541 523.23V522.433L55.2783 522.424L59.1579 526.289L59.168 531.764L55.3026 535.644L52.2555 535.65L52.2541 534.852L54.9705 534.846L58.3691 531.435Z" fill="#F8F2E7"/>
<path fill-rule="evenodd" clip-rule="evenodd" d="M45.7284 512.943L36.9785 512.927L30.8028 506.728L30.8189 497.978L37.0173 491.803L45.7671 491.819L51.9428 498.017L51.9268 506.767L45.7284 512.943ZM52.7284 507.101L46.0592 513.746L36.6448 513.728L30 507.059L30.0173 497.645L36.6865 491L46.1009 491.017L52.7457 497.686L52.7284 507.101Z" fill="#F8F2E7"/>
<path d="M39.0286 497.409L34.2143 497.416L30.8053 494.016L30.7985 491.477L30 491.147L30.0077 494.348L33.8848 498.214L39.3602 498.207L43.2266 494.33L43.2189 491.129L42.4213 491.46L42.428 494L39.0286 497.409Z" fill="#F8F2E7"/>
<path d="M48.5284 497.416L43.7149 497.407L40.3176 493.997L40.3264 491.458L39.5291 491.126L39.519 494.326L43.383 498.204L48.8574 498.214L52.7356 494.35L52.7456 491.151L51.9471 491.48L51.9382 494.018L48.5284 497.416Z" fill="#F8F2E7"/>
<path d="M30.7983 513.568L30.8071 510.927L34.2169 507.53L39.0304 507.539L42.4278 510.949L42.4189 513.703L43.2162 513.703L43.2263 510.619L39.3624 506.741L33.8879 506.731L30.0098 510.595L30.0098 513.568H30.7983Z" fill="#F8F2E7"/>
<path d="M39.519 513.724L40.3269 513.724V510.927L43.7368 507.53L48.5502 507.539L51.9476 510.949V513.58H52.7461V510.62L48.8822 506.742L43.4077 506.732L39.5296 510.595L39.519 513.724Z" fill="#F8F2E7"/>
<path d="M30.0028 491.799L32.8186 491.807L36.2159 495.217L36.2071 500.031L32.7972 503.428L30.0027 503.419V504.217L33.1263 504.227L37.0044 500.363L37.0145 494.888L33.1506 491.01L30.0024 491L30.0028 491.799Z" fill="#F8F2E7"/>
<path d="M30 501.217L32.8183 501.226L36.2156 504.636L36.2068 509.449L32.7969 512.847L30 512.838V513.635L33.126 513.645L37.0041 509.781L37.0142 504.307L33.1502 500.429L30 500.419L30 501.217Z" fill="#F8F2E7"/>
<path d="M46.6306 500.009L46.6394 495.196L50.0493 491.799L52.7459 491.807V491.01L49.7202 491L45.8421 494.864L45.832 500.338L49.696 504.217L52.7459 504.218V503.419L50.0279 503.419L46.6306 500.009Z" fill="#F8F2E7"/>
<path d="M46.6309 509.427L46.6397 504.613L50.0509 501.214L52.7459 501.222V500.425L49.7217 500.416L45.8421 504.281L45.832 509.756L49.6974 513.636L52.7445 513.642L52.7459 512.844L50.0295 512.838L46.6309 509.427Z" fill="#F8F2E7"/>
<path fill-rule="evenodd" clip-rule="evenodd" d="M603.272 534.951L612.021 534.935L618.197 528.736L618.181 519.987L611.983 513.811L603.233 513.827L597.057 520.025L597.073 528.775L603.272 534.951ZM596.272 529.109L602.941 535.754L612.355 535.736L619 529.067L618.983 519.653L612.314 513.008L602.899 513.025L596.254 519.694L596.272 529.109Z" fill="#F8F2E7"/>
<path d="M609.971 519.417L614.786 519.424L618.195 516.024L618.201 513.485L619 513.155L618.992 516.356L615.115 520.222L609.64 520.215L605.773 516.338L605.781 513.137L606.579 513.468L606.572 516.008L609.971 519.417Z" fill="#F8F2E7"/>
<path d="M600.472 519.424L605.285 519.415L608.682 516.005L608.674 513.466L609.471 513.134L609.481 516.334L605.617 520.212L600.143 520.222L596.264 516.358L596.254 513.159L597.053 513.488L597.062 516.027L600.472 519.424Z" fill="#F8F2E7"/>
<path d="M618.202 535.574L618.193 532.934L614.783 529.537L609.97 529.545L606.572 532.955L606.581 535.71L605.784 535.71L605.774 532.626L609.638 528.748L615.112 528.738L618.99 532.602L618.99 535.574H618.202Z" fill="#F8F2E7"/>
<path d="M609.481 535.732L608.673 535.732V532.936L605.263 529.538L600.45 529.547L597.052 532.957V535.588H596.254V532.628L600.118 528.75L605.592 528.74L609.47 532.604L609.481 535.732Z" fill="#F8F2E7"/>
<path d="M618.997 513.807L616.181 513.815L612.784 517.225L612.793 522.039L616.203 525.436L618.997 525.427V526.225L615.874 526.235L611.996 522.371L611.986 516.896L615.849 513.018L618.998 513.008L618.997 513.807Z" fill="#F8F2E7"/>
<path d="M619 523.225L616.182 523.234L612.784 526.644L612.793 531.458L616.203 534.855L619 534.846V535.643L615.874 535.653L611.996 531.79L611.986 526.315L615.85 522.437L619 522.427L619 523.225Z" fill="#F8F2E7"/>
<path d="M602.369 522.017L602.361 517.204L598.951 513.807L596.254 513.815V513.018L599.28 513.008L603.158 516.872L603.168 522.346L599.304 526.225L596.254 526.226V525.427L598.972 525.427L602.369 522.017Z" fill="#F8F2E7"/>
<path d="M602.369 531.435L602.36 526.621L598.949 523.222L596.254 523.23V522.433L599.278 522.424L603.158 526.289L603.168 531.764L599.303 535.644L596.256 535.65L596.254 534.852L598.97 534.846L602.369 531.435Z" fill="#F8F2E7"/>
<path fill-rule="evenodd" clip-rule="evenodd" d="M589.728 534.951L580.979 534.935L574.803 528.736L574.819 519.987L581.017 513.811L589.767 513.827L595.943 520.025L595.927 528.775L589.728 534.951ZM596.728 529.109L590.059 535.754L580.645 535.736L574 529.067L574.017 519.653L580.686 513.008L590.101 513.025L596.746 519.694L596.728 529.109Z" fill="#F8F2E7"/>
<path d="M583.029 519.417L578.214 519.424L574.805 516.024L574.799 513.485L574 513.155L574.008 516.356L577.885 520.222L583.36 520.215L587.227 516.338L587.219 513.137L586.421 513.468L586.428 516.008L583.029 519.417Z" fill="#F8F2E7"/>
<path d="M592.528 519.424L587.715 519.415L584.318 516.005L584.326 513.466L583.529 513.134L583.519 516.334L587.383 520.212L592.857 520.222L596.736 516.358L596.746 513.159L595.947 513.488L595.938 516.027L592.528 519.424Z" fill="#F8F2E7"/>
<path d="M574.798 535.575L574.807 532.934L578.217 529.537L583.03 529.546L586.428 532.956L586.419 535.71L587.216 535.71L587.226 532.627L583.362 528.749L577.888 528.738L574.01 532.602L574.01 535.575H574.798Z" fill="#F8F2E7"/>
<path d="M583.519 535.732L584.327 535.732V532.936L587.737 529.538L592.55 529.547L595.948 532.957V535.588H596.746V532.628L592.882 528.75L587.408 528.74L583.53 532.604L583.519 535.732Z" fill="#F8F2E7"/>
<path d="M574.003 513.807L576.819 513.815L580.216 517.225L580.207 522.039L576.797 525.436L574.003 525.427V526.225L577.126 526.235L581.004 522.371L581.014 516.896L577.151 513.018L574.002 513.008L574.003 513.807Z" fill="#F8F2E7"/>
<path d="M574 523.225L576.818 523.234L580.216 526.644L580.207 531.458L576.797 534.855L574 534.846V535.643L577.126 535.653L581.004 531.79L581.014 526.315L577.15 522.437L574 522.427L574 523.225Z" fill="#F8F2E7"/>
<path d="M590.631 522.017L590.639 517.204L594.049 513.807L596.746 513.815V513.018L593.72 513.008L589.842 516.872L589.832 522.346L593.696 526.225L596.746 526.226V525.427L594.028 525.427L590.631 522.017Z" fill="#F8F2E7"/>
<path d="M590.631 531.435L590.64 526.621L594.051 523.222L596.746 523.23V522.433L593.722 522.424L589.842 526.289L589.832 531.764L593.697 535.644L596.744 535.65L596.746 534.852L594.03 534.846L590.631 531.435Z" fill="#F8F2E7"/>
<path fill-rule="evenodd" clip-rule="evenodd" d="M603.272 512.943L612.021 512.927L618.197 506.728L618.181 497.978L611.983 491.803L603.233 491.819L597.057 498.017L597.073 506.767L603.272 512.943ZM596.272 507.101L602.941 513.746L612.355 513.728L619 507.059L618.983 497.645L612.314 491L602.899 491.017L596.254 497.686L596.272 507.101Z" fill="#F8F2E7"/>
<path d="M609.971 497.409L614.786 497.416L618.195 494.016L618.201 491.477L619 491.147L618.992 494.348L615.115 498.214L609.64 498.207L605.773 494.33L605.781 491.129L606.579 491.46L606.572 494L609.971 497.409Z" fill="#F8F2E7"/>
<path d="M600.472 497.416L605.285 497.407L608.682 493.997L608.674 491.458L609.471 491.126L609.481 494.326L605.617 498.204L600.143 498.214L596.264 494.35L596.254 491.151L597.053 491.48L597.062 494.018L600.472 497.416Z" fill="#F8F2E7"/>
<path d="M618.202 513.568L618.193 510.927L614.783 507.53L609.97 507.539L606.572 510.949L606.581 513.703L605.784 513.703L605.774 510.619L609.638 506.741L615.112 506.731L618.99 510.595L618.99 513.568H618.202Z" fill="#F8F2E7"/>
<path d="M609.481 513.724L608.673 513.724V510.927L605.263 507.53L600.45 507.539L597.052 510.949V513.58H596.254V510.62L600.118 506.742L605.592 506.732L609.47 510.595L609.481 513.724Z" fill="#F8F2E7"/>
<path d="M618.997 491.799L616.181 491.807L612.784 495.217L612.793 500.031L616.203 503.428L618.997 503.419V504.217L615.874 504.227L611.996 500.363L611.986 494.888L615.849 491.01L618.998 491L618.997 491.799Z" fill="#F8F2E7"/>
<path d="M619 501.217L616.182 501.226L612.784 504.636L612.793 509.449L616.203 512.847L619 512.838V513.635L615.874 513.645L611.996 509.781L611.986 504.307L615.85 500.429L619 500.419L619 501.217Z" fill="#F8F2E7"/>
<path d="M602.369 500.009L602.361 495.196L598.951 491.799L596.254 491.807V491.01L599.28 491L603.158 494.864L603.168 500.338L599.304 504.217L596.254 504.218V503.419L598.972 503.419L602.369 500.009Z" fill="#F8F2E7"/>
<path d="M602.369 509.427L602.36 504.613L598.949 501.214L596.254 501.222V500.425L599.278 500.416L603.158 504.281L603.168 509.756L599.303 513.636L596.256 513.642L596.254 512.844L598.97 512.838L602.369 509.427Z" fill="#F8F2E7"/>
</svg>
