<svg width="828" height="663" viewBox="0 0 828 663" fill="none" xmlns="http://www.w3.org/2000/svg">
<path fill-rule="evenodd" clip-rule="evenodd" d="M45.6729 66.049L41.7942 62.1438L48 55.8955L54.2058 62.1439L50.3271 66.0491C49.9926 66.3859 49.6041 66.635 49.1896 66.7965C48.0114 67.2554 46.6237 67.0063 45.6729 66.049ZM49.5986 67.8218C50.1466 67.6063 50.6604 67.2758 51.103 66.8301L55.0952 62.8106L59.6358 67.3823C61.778 69.5391 65.251 69.5391 67.3932 67.3823C69.5353 65.2255 69.5353 61.7287 67.3932 59.5719L62.8525 55.0001L67.3934 50.4281C69.5355 48.2713 69.5355 44.7744 67.3934 42.6176C65.2513 40.4608 61.7782 40.4608 59.6361 42.6176L55.0953 47.1895L54.9817 47.0752L51.1031 43.1699C50.4871 42.5498 49.7337 42.1525 48.9415 41.9782C48.8812 41.9649 48.8207 41.9529 48.7601 41.9422C47.3994 41.7025 45.9479 42.1117 44.8969 43.1699L41.0183 47.0751L40.9046 47.1895L36.3639 42.6177C34.2218 40.4609 30.7487 40.4609 28.6066 42.6177C26.4645 44.7745 26.4645 48.2713 28.6066 50.4281L33.1475 55.0002L28.6068 59.5719C26.4647 61.7287 26.4647 65.2256 28.6068 67.3824C30.749 69.5392 34.222 69.5392 36.3642 67.3824L40.9048 62.8106L44.897 66.8301C46.168 68.1099 48.0249 68.4405 49.5986 67.8218ZM48.8893 55.0001L55.0952 48.7517L61.301 55.0001L55.0952 61.2485L48.8893 55.0001ZM62.0768 54.219L55.8709 47.9707L60.4118 43.3986C62.1255 41.6732 64.904 41.6732 66.6177 43.3986C68.3314 45.1241 68.3314 47.9216 66.6177 49.647L62.0768 54.219ZM62.0768 55.7811L55.8709 62.0295L60.4116 66.6013C62.1253 68.3267 64.9037 68.3267 66.6174 66.6013C68.3311 64.8759 68.3311 62.0784 66.6174 60.3529L62.0768 55.7811ZM35.5882 43.3987L40.1291 47.9707L33.9232 54.2191L29.3823 49.6471C27.6686 47.9217 27.6686 45.1242 29.3823 43.3987C31.096 41.6733 33.8745 41.6733 35.5882 43.3987ZM50.3271 43.9509C49.8652 43.4859 49.3001 43.1879 48.7061 43.0571C48.6673 43.0486 48.6285 43.0408 48.5895 43.0337C47.5634 42.8466 46.4661 43.1524 45.6729 43.951L41.7942 47.8563L48 54.1047L54.2059 47.8563L50.3271 43.9509ZM34.699 55.0002L40.9048 48.7518L47.1107 55.0002L40.9048 61.2485L34.699 55.0002ZM33.9232 55.7812L40.1291 62.0296L35.5884 66.6013C33.8747 68.3268 31.0963 68.3268 29.3826 66.6014C27.6689 64.8759 27.6689 62.0784 29.3826 60.353L33.9232 55.7812Z" fill="white"/>
<path fill-rule="evenodd" clip-rule="evenodd" d="M774.673 617.049L770.794 613.144L777 606.896L783.206 613.144L779.327 617.049C778.993 617.386 778.604 617.635 778.19 617.796C777.011 618.255 775.624 618.006 774.673 617.049ZM778.599 618.822C779.147 618.606 779.66 618.276 780.103 617.83L784.095 613.811L788.636 618.382C790.778 620.539 794.251 620.539 796.393 618.382C798.535 616.226 798.535 612.729 796.393 610.572L791.852 606L796.393 601.428C798.536 599.271 798.536 595.774 796.393 593.618C794.251 591.461 790.778 591.461 788.636 593.618L784.095 598.19L783.982 598.075L780.103 594.17C779.487 593.55 778.734 593.153 777.941 592.978C777.881 592.965 777.821 592.953 777.76 592.942C776.399 592.702 774.948 593.112 773.897 594.17L770.018 598.075L769.905 598.19L765.364 593.618C763.222 591.461 759.749 591.461 757.607 593.618C755.464 595.774 755.464 599.271 757.607 601.428L762.147 606L757.607 610.572C755.465 612.729 755.465 616.226 757.607 618.382C759.749 620.539 763.222 620.539 765.364 618.382L769.905 613.811L773.897 617.83C775.168 619.11 777.025 619.44 778.599 618.822ZM777.889 606L784.095 599.752L790.301 606L784.095 612.248L777.889 606ZM791.077 605.219L784.871 598.971L789.412 594.399C791.126 592.673 793.904 592.673 795.618 594.399C797.331 596.124 797.331 598.922 795.618 600.647L791.077 605.219ZM791.077 606.781L784.871 613.03L789.412 617.601C791.125 619.327 793.904 619.327 795.617 617.601C797.331 615.876 797.331 613.078 795.617 611.353L791.077 606.781ZM764.588 594.399L769.129 598.971L762.923 605.219L758.382 600.647C756.669 598.922 756.669 596.124 758.382 594.399C760.096 592.673 762.874 592.673 764.588 594.399ZM779.327 594.951C778.865 594.486 778.3 594.188 777.706 594.057C777.667 594.049 777.628 594.041 777.59 594.034C776.563 593.847 775.466 594.152 774.673 594.951L770.794 598.856L777 605.105L783.206 598.856L779.327 594.951ZM763.699 606L769.905 599.752L776.111 606L769.905 612.249L763.699 606ZM762.923 606.781L769.129 613.03L764.588 617.601C762.875 619.327 760.096 619.327 758.383 617.601C756.669 615.876 756.669 613.078 758.383 611.353L762.923 606.781Z" fill="white"/>
<path fill-rule="evenodd" clip-rule="evenodd" d="M43.6729 623.049L39.7942 619.144L46 612.896L52.2058 619.144L48.3271 623.049C47.9926 623.386 47.6041 623.635 47.1896 623.796C46.0114 624.255 44.6237 624.006 43.6729 623.049ZM47.5986 624.822C48.1466 624.606 48.6604 624.276 49.103 623.83L53.0952 619.811L57.6358 624.382C59.778 626.539 63.251 626.539 65.3932 624.382C67.5353 622.226 67.5353 618.729 65.3932 616.572L60.8525 612L65.3934 607.428C67.5355 605.271 67.5355 601.774 65.3934 599.618C63.2513 597.461 59.7782 597.461 57.6361 599.618L53.0953 604.19L52.9817 604.075L49.1031 600.17C48.4871 599.55 47.7337 599.153 46.9415 598.978C46.8812 598.965 46.8207 598.953 46.7601 598.942C45.3994 598.702 43.9479 599.112 42.8969 600.17L39.0183 604.075L38.9046 604.19L34.3639 599.618C32.2218 597.461 28.7487 597.461 26.6066 599.618C24.4645 601.774 24.4645 605.271 26.6066 607.428L31.1475 612L26.6068 616.572C24.4647 618.729 24.4647 622.226 26.6068 624.382C28.749 626.539 32.222 626.539 34.3642 624.382L38.9048 619.811L42.897 623.83C44.168 625.11 46.0249 625.44 47.5986 624.822ZM46.8893 612L53.0952 605.752L59.301 612L53.0952 618.248L46.8893 612ZM60.0768 611.219L53.8709 604.971L58.4118 600.399C60.1255 598.673 62.904 598.673 64.6177 600.399C66.3314 602.124 66.3314 604.922 64.6177 606.647L60.0768 611.219ZM60.0768 612.781L53.8709 619.03L58.4116 623.601C60.1253 625.327 62.9037 625.327 64.6174 623.601C66.3311 621.876 66.3311 619.078 64.6174 617.353L60.0768 612.781ZM33.5882 600.399L38.1291 604.971L31.9232 611.219L27.3823 606.647C25.6686 604.922 25.6686 602.124 27.3823 600.399C29.096 598.673 31.8745 598.673 33.5882 600.399ZM48.3271 600.951C47.8652 600.486 47.3001 600.188 46.7061 600.057C46.6673 600.049 46.6285 600.041 46.5895 600.034C45.5634 599.847 44.4661 600.152 43.6729 600.951L39.7942 604.856L46 611.105L52.2059 604.856L48.3271 600.951ZM32.699 612L38.9048 605.752L45.1107 612L38.9048 618.249L32.699 612ZM31.9232 612.781L38.1291 619.03L33.5884 623.601C31.8747 625.327 29.0963 625.327 27.3826 623.601C25.6689 621.876 25.6689 619.078 27.3826 617.353L31.9232 612.781Z" fill="white"/>
<path fill-rule="evenodd" clip-rule="evenodd" d="M774.673 66.049L770.794 62.1438L777 55.8955L783.206 62.1439L779.327 66.0491C778.993 66.3859 778.604 66.635 778.19 66.7965C777.011 67.2554 775.624 67.0063 774.673 66.049ZM778.599 67.8218C779.147 67.6063 779.66 67.2758 780.103 66.8301L784.095 62.8106L788.636 67.3823C790.778 69.5391 794.251 69.5391 796.393 67.3823C798.535 65.2255 798.535 61.7287 796.393 59.5719L791.852 55.0001L796.393 50.4281C798.536 48.2713 798.536 44.7744 796.393 42.6176C794.251 40.4608 790.778 40.4608 788.636 42.6176L784.095 47.1895L783.982 47.0752L780.103 43.1699C779.487 42.5498 778.734 42.1525 777.941 41.9782C777.881 41.9649 777.821 41.9529 777.76 41.9422C776.399 41.7025 774.948 42.1117 773.897 43.1699L770.018 47.0751L769.905 47.1895L765.364 42.6177C763.222 40.4609 759.749 40.4609 757.607 42.6177C755.464 44.7745 755.464 48.2713 757.607 50.4281L762.147 55.0002L757.607 59.5719C755.465 61.7287 755.465 65.2256 757.607 67.3824C759.749 69.5392 763.222 69.5392 765.364 67.3824L769.905 62.8106L773.897 66.8301C775.168 68.1099 777.025 68.4405 778.599 67.8218ZM777.889 55.0001L784.095 48.7517L790.301 55.0001L784.095 61.2485L777.889 55.0001ZM791.077 54.219L784.871 47.9707L789.412 43.3986C791.126 41.6732 793.904 41.6732 795.618 43.3986C797.331 45.1241 797.331 47.9216 795.618 49.647L791.077 54.219ZM791.077 55.7811L784.871 62.0295L789.412 66.6013C791.125 68.3267 793.904 68.3267 795.617 66.6013C797.331 64.8759 797.331 62.0784 795.617 60.3529L791.077 55.7811ZM764.588 43.3987L769.129 47.9707L762.923 54.2191L758.382 49.6471C756.669 47.9217 756.669 45.1242 758.382 43.3987C760.096 41.6733 762.874 41.6733 764.588 43.3987ZM779.327 43.9509C778.865 43.4859 778.3 43.1879 777.706 43.0571C777.667 43.0486 777.628 43.0408 777.59 43.0337C776.563 42.8466 775.466 43.1524 774.673 43.951L770.794 47.8563L777 54.1047L783.206 47.8563L779.327 43.9509ZM763.699 55.0002L769.905 48.7518L776.111 55.0002L769.905 61.2485L763.699 55.0002ZM762.923 55.7812L769.129 62.0296L764.588 66.6013C762.875 68.3268 760.096 68.3268 758.383 66.6014C756.669 64.8759 756.669 62.0784 758.383 60.353L762.923 55.7812Z" fill="white"/>
</svg>
