<svg width="27" height="31" viewBox="0 0 27 31" fill="none" xmlns="http://www.w3.org/2000/svg">
<path fill-rule="evenodd" clip-rule="evenodd" d="M9.63809 0.607175C7.77789 1.21435 5.91768 2.057 5.91768 3.84544V6.52278C5.13213 6.61577 4.68508 6.68627 4.68508 6.68627C2.71053 6.68627 1.07992 8.19839 0.970398 10.131L0.00584602 27.1506C-0.112629 29.2411 1.58469 31 3.72053 31H23.2795C25.4153 31 27.1126 29.2411 26.9942 27.1506L26.0296 10.131C25.9201 8.19839 24.2895 6.68627 22.3149 6.68627C22.3149 6.68627 21.7596 6.59871 20.7993 6.49005V3.84545C20.7993 2.057 18.9391 1.21435 17.0789 0.607175C17.0789 0.607175 14.8315 0 13.3585 0C11.8856 0 9.63809 0.607175 9.63809 0.607175ZM20.7993 8.5098V9.24256C20.7993 9.78227 20.2441 10.3333 19.5592 10.3333C18.8743 10.3333 18.319 9.83871 18.319 9.24256V8.5098H13.4998C11.2928 8.5098 9.30488 8.63012 7.77789 8.76369V9.25042C7.77792 9.72164 7.77795 10.3333 6.90982 10.3333C6.03686 10.3333 5.91768 9.83871 5.91768 9.24256V8.95416C5.13213 9.04714 4.68508 9.11765 4.68508 9.11765C4.0269 9.11765 2.71957 9.68912 2.68306 10.3333L1.71851 27.3529C1.62996 28.5686 3.00858 28.5686 3.72053 28.5686H19.9814C21.2215 28.5686 22.6596 28.5282 22.6596 26.7047V10.3333C22.6596 9.11765 21.4575 8.5098 20.7993 8.5098ZM7.77789 6.33232C9.30488 6.19875 11.2928 6.07843 13.4998 6.07843C15.2943 6.07843 16.9441 6.15798 18.319 6.25952V3.84545C18.319 3.29705 17.7943 3.07253 17.2276 2.83001C17.1783 2.8089 17.1286 2.78764 17.0789 2.76602C17.0789 2.76602 14.8594 2.05821 13.3585 2.05821C11.8576 2.05821 9.63809 2.76602 9.63809 2.76602C9.48431 2.83295 9.29239 2.8964 9.09071 2.96308C8.47918 3.16528 7.77789 3.39714 7.77789 3.84544V6.33232ZM25.7599 27.9608L24.5198 10.9412L23.8997 27.9608L24.2895 28.3429C24.427 28.4777 24.6371 28.5111 24.811 28.4259L25.7599 27.9608Z" fill="#F2F2F2"/>
</svg>
