<svg width="54" height="54" viewBox="0 0 54 54" fill="none" xmlns="http://www.w3.org/2000/svg">
<path fill-rule="evenodd" clip-rule="evenodd" d="M24.1393 15.4505C22.7614 15.901 21.3835 16.5262 21.3835 17.8531V19.8395C20.8016 19.9085 20.4704 19.9608 20.4704 19.9608C19.0078 19.9608 17.7999 21.0827 17.7188 22.5166L17.0043 35.144C16.9166 36.695 18.1738 38 19.7559 38H34.2441C35.8262 38 37.0834 36.695 36.9957 35.144L36.2812 22.5166C36.2001 21.0827 34.9922 19.9608 33.5296 19.9608C33.5296 19.9608 33.1182 19.8958 32.4069 19.8152V17.8531C32.4069 16.5262 31.029 15.901 29.651 15.4505C29.651 15.4505 27.9863 15 26.8952 15C25.8041 15 24.1393 15.4505 24.1393 15.4505ZM32.4069 21.3137V21.8574C32.4069 22.2578 31.9956 22.6667 31.4883 22.6667C30.9809 22.6667 30.5697 22.2997 30.5697 21.8574V21.3137H26.9999C25.3651 21.3137 23.8925 21.403 22.7614 21.5021V21.8632C22.7614 22.2128 22.7614 22.6667 22.1184 22.6667C21.4717 22.6667 21.3835 22.2997 21.3835 21.8574V21.6434C20.8016 21.7124 20.4704 21.7647 20.4704 21.7647C19.9829 21.7647 19.0145 22.1887 18.9875 22.6667L18.273 35.2941C18.2074 36.1961 19.2286 36.1961 19.7559 36.1961H31.801C32.7196 36.1961 33.7849 36.1661 33.7849 34.8131V22.6667C33.7849 21.7647 32.8944 21.3137 32.4069 21.3137ZM22.7614 19.6982C23.8925 19.5991 25.3651 19.5098 26.9999 19.5098C28.3291 19.5098 29.5512 19.5688 30.5697 19.6442V17.8531C30.5697 17.4462 30.181 17.2796 29.7612 17.0997C29.7246 17.084 29.6878 17.0682 29.651 17.0522C29.651 17.0522 28.007 16.5271 26.8952 16.5271C25.7834 16.5271 24.1393 17.0522 24.1393 17.0522C24.0254 17.1019 23.8833 17.1489 23.7339 17.1984C23.2809 17.3484 22.7614 17.5205 22.7614 17.8531V19.6982ZM36.0814 35.7451L35.1628 23.1176L34.7035 35.7451L34.9923 36.0286C35.0941 36.1286 35.2497 36.1534 35.3785 36.0902L36.0814 35.7451Z" fill="#333333"/>
</svg>
