<svg width="20" height="22" viewBox="0 0 20 22" fill="none" xmlns="http://www.w3.org/2000/svg">
<path d="M8.475 3.99517C9.44662 3.0164 10.3199 1.97634 10.9123 0.863896C12.4245 2.41487 13.6225 3.62122 14.5895 4.59065C14.8104 4.81213 15.0191 5.021 15.2164 5.21862C15.9781 5.98117 16.5723 6.57612 17.0602 7.08123C18.2307 8.29301 18.7681 8.96541 19.4888 10.1487C19.4065 10.813 18.9314 11.6266 18.1207 12.5759C17.2695 13.5727 16.1323 14.6261 14.9517 15.6982C14.8296 15.8091 14.7071 15.9201 14.5844 16.0313C13.5316 16.9855 12.4685 17.949 11.6092 18.8672C10.9896 19.5293 10.4383 20.2054 10.0768 20.8718C7.66502 17.1659 3.55475 14.2676 0.500131 12.9846C0.496969 12.1995 0.873971 11.3764 1.57477 10.4762C2.35789 9.47017 3.48326 8.44617 4.72959 7.36388C4.94984 7.17262 5.17378 6.97962 5.39969 6.78491C6.43792 5.89009 7.518 4.95921 8.475 3.99517Z" stroke="#F2E2C5"/>
<path fill-rule="evenodd" clip-rule="evenodd" d="M5.01094 12.2707C6.62784 12.9667 8.93911 14.7487 10.087 17C10.4242 15.1752 14.9306 12.3738 15 10.4697C14.2135 9.04281 13.8848 8.92866 10.3845 5C9.32314 7.79191 4.74736 9.94649 5.01094 12.2707Z" fill="#E7CB97"/>
</svg>
