<svg width="176" height="70" viewBox="0 0 176 70" fill="none" xmlns="http://www.w3.org/2000/svg">
<path fill-rule="evenodd" clip-rule="evenodd" d="M94.2019 33.7646L80.7382 33.7399L71.2354 24.2021L71.2601 10.7384L80.7979 1.23557L94.2616 1.26028L103.764 10.7981L103.74 24.2618L94.2019 33.7646ZM104.973 24.7754L94.711 35L80.2246 34.9734L70 24.7112L70.0266 10.2248L80.2888 0.000195342L94.7752 0.0267799L105 10.289L104.973 24.7754Z" fill="#DB5B35"/>
<path d="M83.8926 9.86222L76.4847 9.87257L71.2391 4.64165L71.2287 0.733657L70 0.226705L70.0118 5.15204L75.9777 11.1013L84.403 11.0895L90.3523 5.12362L90.3405 0.198284L89.1132 0.708668L89.1236 4.61666L83.8926 9.86222Z" fill="#DB5B35"/>
<path d="M98.5115 9.87257L91.1049 9.85898L85.8772 4.61208L85.8908 0.705427L84.6639 0.194598L84.6484 5.1184L90.594 11.0859L99.0178 11.1013L104.985 5.15573L105.001 0.231922L103.772 0.738245L103.758 4.6449L98.5115 9.87257Z" fill="#DB5B35"/>
<path d="M71.2279 34.7263L71.2415 30.6634L76.4884 25.4357L83.8951 25.4493L89.1228 30.6962L89.1092 34.9343L90.336 34.9343L90.3515 30.1899L84.4059 24.2225L75.9821 24.207L70.0146 30.1526L70.0147 34.7263H71.2279Z" fill="#DB5B35"/>
<path d="M84.6484 34.9673L85.8916 34.9673V30.6636L91.1385 25.4359L98.5451 25.4495L103.773 30.6964V34.7456H105.002V30.1901L99.0559 24.2226L90.6321 24.2072L84.6647 30.1527L84.6484 34.9673Z" fill="#DB5B35"/>
<path d="M70.0045 1.22873L74.3372 1.24232L79.5649 6.48922L79.5513 13.8959L74.3044 19.1236L70.0044 19.11V20.3368L74.8107 20.3523L80.7782 14.4067L80.7936 5.9829L74.848 0.0154457L70.0039 -1.71661e-05L70.0045 1.22873Z" fill="#DB5B35"/>
<path d="M70 15.7224L74.3366 15.736L79.5643 20.9829L79.5507 28.3895L74.3038 33.6172L70.0001 33.6036V34.8305L74.8101 34.8459L80.7775 28.9004L80.793 20.4766L74.8474 14.5091L70.0001 14.4936L70 15.7224Z" fill="#DB5B35"/>
<path d="M95.5891 13.8632L95.6027 6.45658L100.85 1.2289L104.999 1.2425V0.0156174L100.343 0.000162125L94.3758 5.94575L94.3604 14.3695L100.306 20.337L104.999 20.3389V19.1101L100.817 19.1101L95.5891 13.8632Z" fill="#DB5B35"/>
<path d="M95.5896 28.3549L95.6032 20.9463L100.852 15.7173L104.999 15.7293V14.5021L100.346 14.4883L94.3758 20.4354L94.3604 28.8613L100.308 34.8303L104.997 34.8406L104.999 33.6124L100.819 33.6031L95.5896 28.3549Z" fill="#DB5B35"/>
<path fill-rule="evenodd" clip-rule="evenodd" d="M59.2019 68.7646L45.7382 68.7399L36.2354 59.2021L36.2601 45.7384L45.7979 36.2356L59.2616 36.2603L68.7644 45.7981L68.7397 59.2618L59.2019 68.7646ZM69.9732 59.7754L59.711 70L45.2246 69.9734L35 59.7112L35.0266 45.2248L45.2888 35.0002L59.7752 35.0268L69.9998 45.289L69.9732 59.7754Z" fill="#DB5B35"/>
<path d="M48.8926 44.8625L41.4847 44.8728L36.2391 39.6419L36.2287 35.7339L35 35.2269L35.0118 40.1523L40.9777 46.1016L49.403 46.0898L55.3523 40.1239L55.3405 35.1985L54.1132 35.7089L54.1236 39.6169L48.8926 44.8625Z" fill="#DB5B35"/>
<path d="M63.5115 44.8728L56.1049 44.8592L50.8772 39.6123L50.8908 35.7057L49.6639 35.1948L49.6484 40.1186L55.594 46.0861L64.0178 46.1016L69.9853 40.156L70.0007 35.2322L68.772 35.7385L68.7584 39.6451L63.5115 44.8728Z" fill="#DB5B35"/>
<path d="M36.2279 69.7263L36.2415 65.6634L41.4884 60.4357L48.8951 60.4493L54.1228 65.6962L54.1092 69.9343L55.336 69.9343L55.3515 65.1899L49.4059 59.2225L40.9821 59.207L35.0146 65.1526L35.0147 69.7263H36.2279Z" fill="#DB5B35"/>
<path d="M49.6484 69.9673L50.8916 69.9673V65.6636L56.1385 60.4359L63.5451 60.4495L68.7728 65.6964V69.7456H70.0015V65.1901L64.0559 59.2226L55.6321 59.2072L49.6647 65.1527L49.6484 69.9673Z" fill="#DB5B35"/>
<path d="M35.0045 36.2287L39.3372 36.2423L44.5649 41.4892L44.5513 48.8959L39.3044 54.1236L35.0044 54.11V55.3368L39.8107 55.3523L45.7782 49.4067L45.7936 40.9829L39.848 35.0154L35.0039 35L35.0045 36.2287Z" fill="#DB5B35"/>
<path d="M35 50.7224L39.3366 50.736L44.5643 55.9829L44.5507 63.3895L39.3038 68.6172L35.0001 68.6036V69.8305L39.8101 69.8459L45.7775 63.9004L45.793 55.4766L39.8474 49.5091L35.0001 49.4936L35 50.7224Z" fill="#DB5B35"/>
<path d="M60.5891 48.8632L60.6027 41.4566L65.8496 36.2289L69.9991 36.2425V35.0156L65.3433 35.0002L59.3758 40.9458L59.3604 49.3695L65.3059 55.337L69.9991 55.3389V54.1101L65.8168 54.1101L60.5891 48.8632Z" fill="#DB5B35"/>
<path d="M60.5896 63.3549L60.6032 55.9463L65.8521 50.7173L69.9991 50.7293V49.5021L65.3455 49.4883L59.3758 55.4354L59.3604 63.8613L65.3082 69.8303L69.9968 69.8406L69.9991 68.6124L65.8192 68.6031L60.5896 63.3549Z" fill="#DB5B35"/>
<path fill-rule="evenodd" clip-rule="evenodd" d="M24.2019 33.7646L10.7382 33.7399L1.23537 24.2021L1.26008 10.7384L10.7979 1.23557L24.2616 1.26028L33.7644 10.7981L33.7397 24.2618L24.2019 33.7646ZM34.9732 24.7754L24.711 35L10.2246 34.9734L0 24.7112L0.0265868 10.2248L10.2888 0.000195342L24.7752 0.0267799L34.9998 10.289L34.9732 24.7754Z" fill="#DB5B35"/>
<path d="M13.8926 9.86222L6.48466 9.87257L1.23909 4.64165L1.22874 0.733657L0 0.226705L0.0117715 5.15204L5.9777 11.1013L14.403 11.0895L20.3523 5.12362L20.3405 0.198284L19.1132 0.708668L19.1236 4.61666L13.8926 9.86222Z" fill="#DB5B35"/>
<path d="M28.5115 9.87257L21.1049 9.85898L15.8772 4.61208L15.8908 0.705427L14.6639 0.194598L14.6484 5.1184L20.594 11.0859L29.0178 11.1013L34.9853 5.15573L35.0007 0.231922L33.772 0.738245L33.7584 4.6449L28.5115 9.87257Z" fill="#DB5B35"/>
<path d="M1.22891 34.7263L1.2425 30.6634L6.4894 25.4357L13.8961 25.4493L19.1237 30.6962L19.1101 34.9343L20.337 34.9343L20.3525 30.1899L14.4069 24.2225L5.98308 24.207L0.015625 30.1526L0.0157054 34.7263H1.22891Z" fill="#DB5B35"/>
<path d="M14.6484 34.9673L15.8916 34.9673V30.6636L21.1385 25.4359L28.5451 25.4495L33.7728 30.6964V34.7456H35.0015V30.1901L29.0559 24.2226L20.6321 24.2072L14.6647 30.1527L14.6484 34.9673Z" fill="#DB5B35"/>
<path d="M0.00348727 1.22873L4.33624 1.24232L9.56393 6.48922L9.55033 13.8959L4.30342 19.1236L0.0033814 19.11V20.3368L4.80974 20.3523L10.7772 14.4067L10.7927 5.9829L4.84707 0.0154457L0.00292969 -1.71661e-05L0.00348727 1.22873Z" fill="#DB5B35"/>
<path d="M0 15.7224L4.33657 15.736L9.56425 20.9829L9.55066 28.3895L4.30376 33.6172L5.76403e-05 33.6036V34.8305L4.81008 34.8459L10.7775 28.9004L10.793 20.4766L4.8474 14.5091L5.76403e-05 14.4936L0 15.7224Z" fill="#DB5B35"/>
<path d="M25.5891 13.8632L25.6027 6.45658L30.8496 1.2289L34.9991 1.2425V0.0156174L30.3433 0.000162125L24.3758 5.94575L24.3604 14.3695L30.3059 20.337L34.9991 20.3389V19.1101L30.8168 19.1101L25.5891 13.8632Z" fill="#DB5B35"/>
<path d="M25.5896 28.3549L25.6032 20.9463L30.8521 15.7173L34.9991 15.7293V14.5021L30.3455 14.4883L24.3758 20.4354L24.3604 28.8613L30.3082 34.8303L34.9968 34.8406L34.9991 33.6124L30.8192 33.6031L25.5896 28.3549Z" fill="#DB5B35"/>
<path fill-rule="evenodd" clip-rule="evenodd" d="M59.2019 33.7646L45.7382 33.7399L36.2354 24.2021L36.2601 10.7384L45.7979 1.23557L59.2616 1.26028L68.7644 10.7981L68.7397 24.2618L59.2019 33.7646ZM69.9732 24.7754L59.711 35L45.2246 34.9734L35 24.7112L35.0266 10.2248L45.2888 0.000195342L59.7752 0.0267799L69.9998 10.289L69.9732 24.7754Z" fill="#E7CB97"/>
<path d="M48.8926 9.86222L41.4847 9.87257L36.2391 4.64165L36.2287 0.733657L35 0.226705L35.0118 5.15204L40.9777 11.1013L49.403 11.0895L55.3523 5.12362L55.3405 0.198284L54.1132 0.708668L54.1236 4.61666L48.8926 9.86222Z" fill="#E7CB97"/>
<path d="M63.5115 9.87257L56.1049 9.85898L50.8772 4.61208L50.8908 0.705427L49.6639 0.194598L49.6484 5.1184L55.594 11.0859L64.0178 11.1013L69.9853 5.15573L70.0007 0.231922L68.772 0.738245L68.7584 4.6449L63.5115 9.87257Z" fill="#E7CB97"/>
<path d="M36.2289 34.7263L36.2425 30.6634L41.4894 25.4357L48.8961 25.4493L54.1237 30.6962L54.1101 34.9343L55.337 34.9343L55.3525 30.1899L49.4069 24.2225L40.9831 24.207L35.0156 30.1526L35.0157 34.7263H36.2289Z" fill="#E7CB97"/>
<path d="M49.6484 34.9673L50.8916 34.9673V30.6636L56.1385 25.4359L63.5451 25.4495L68.7728 30.6964V34.7456H70.0015V30.1901L64.0559 24.2226L55.6321 24.2072L49.6647 30.1527L49.6484 34.9673Z" fill="#E7CB97"/>
<path d="M35.0035 1.22873L39.3362 1.24232L44.5639 6.48922L44.5503 13.8959L39.3034 19.1236L35.0034 19.11V20.3368L39.8097 20.3523L45.7772 14.4067L45.7927 5.9829L39.8471 0.0154457L35.0029 -1.71661e-05L35.0035 1.22873Z" fill="#E7CB97"/>
<path d="M35 15.7224L39.3366 15.736L44.5643 20.9829L44.5507 28.3895L39.3038 33.6172L35.0001 33.6036V34.8305L39.8101 34.8459L45.7775 28.9004L45.793 20.4766L39.8474 14.5091L35.0001 14.4936L35 15.7224Z" fill="#E7CB97"/>
<path d="M60.5891 13.8632L60.6027 6.45658L65.8496 1.2289L69.9991 1.2425V0.0156174L65.3433 0.000162125L59.3758 5.94575L59.3604 14.3695L65.3059 20.337L69.9991 20.3389V19.1101L65.8168 19.1101L60.5891 13.8632Z" fill="#E7CB97"/>
<path d="M60.5896 28.3549L60.6032 20.9463L65.8521 15.7173L69.9991 15.7293V14.5021L65.3455 14.4883L59.3758 20.4354L59.3604 28.8613L65.3082 34.8303L69.9968 34.8406L69.9991 33.6124L65.8192 33.6031L60.5896 28.3549Z" fill="#E7CB97"/>
<path fill-rule="evenodd" clip-rule="evenodd" d="M94.2019 68.7646L80.7382 68.7399L71.2354 59.2021L71.2601 45.7384L80.7979 36.2356L94.2616 36.2603L103.764 45.7981L103.74 59.2618L94.2019 68.7646ZM104.973 59.7754L94.711 70L80.2246 69.9734L70 59.7112L70.0266 45.2248L80.2888 35.0002L94.7752 35.0268L105 45.289L104.973 59.7754Z" fill="#E7CB97"/>
<path d="M83.8926 44.8622L76.4847 44.8726L71.2391 39.6417L71.2287 35.7337L70 35.2267L70.0118 40.152L75.9777 46.1013L84.403 46.0895L90.3523 40.1236L90.3405 35.1983L89.1132 35.7087L89.1236 39.6167L83.8926 44.8622Z" fill="#E7CB97"/>
<path d="M98.5115 44.8726L91.1049 44.859L85.8772 39.6121L85.8908 35.7054L84.6639 35.1946L84.6484 40.1184L90.594 46.0859L99.0178 46.1013L104.985 40.1557L105.001 35.2319L103.772 35.7382L103.758 39.6449L98.5115 44.8726Z" fill="#E7CB97"/>
<path d="M71.2289 69.7263L71.2425 65.6634L76.4894 60.4357L83.8961 60.4493L89.1237 65.6962L89.1101 69.9343L90.337 69.9343L90.3525 65.1899L84.4069 59.2225L75.9831 59.207L70.0156 65.1526L70.0157 69.7263H71.2289Z" fill="#E7CB97"/>
<path d="M84.6484 69.9673L85.8916 69.9673V65.6636L91.1385 60.4359L98.5451 60.4495L103.773 65.6964V69.7456H105.002V65.1901L99.0559 59.2226L90.6321 59.2072L84.6647 65.1527L84.6484 69.9673Z" fill="#E7CB97"/>
<path d="M70.0035 36.2287L74.3362 36.2423L79.5639 41.4892L79.5503 48.8959L74.3034 54.1236L70.0034 54.11V55.3368L74.8097 55.3523L80.7772 49.4067L80.7927 40.9829L74.8471 35.0154L70.0029 35L70.0035 36.2287Z" fill="#E7CB97"/>
<path d="M70 50.7224L74.3366 50.736L79.5643 55.9829L79.5507 63.3895L74.3038 68.6172L70.0001 68.6036V69.8305L74.8101 69.8459L80.7775 63.9004L80.793 55.4766L74.8474 49.5091L70.0001 49.4936L70 50.7224Z" fill="#E7CB97"/>
<path d="M95.5891 48.8632L95.6027 41.4566L100.85 36.2289L104.999 36.2425V35.0156L100.343 35.0002L94.3758 40.9458L94.3604 49.3695L100.306 55.337L104.999 55.3389V54.1101L100.817 54.1101L95.5891 48.8632Z" fill="#E7CB97"/>
<path d="M95.5896 63.3549L95.6032 55.9463L100.852 50.7173L104.999 50.7293V49.5021L100.346 49.4883L94.3758 55.4354L94.3604 63.8613L100.308 69.8303L104.997 69.8406L104.999 68.6124L100.819 68.6031L95.5896 63.3549Z" fill="#E7CB97"/>
<path fill-rule="evenodd" clip-rule="evenodd" d="M129.202 33.7646L115.738 33.7399L106.235 24.2021L106.26 10.7384L115.798 1.23557L129.262 1.26028L138.764 10.7981L138.74 24.2618L129.202 33.7646ZM139.973 24.7754L129.711 35L115.225 34.9734L105 24.7112L105.027 10.2248L115.289 0.000195342L129.775 0.0267799L140 10.289L139.973 24.7754Z" fill="#E7CB97"/>
<path d="M118.893 9.86222L111.485 9.87257L106.239 4.64165L106.229 0.733657L105 0.226705L105.012 5.15204L110.978 11.1013L119.403 11.0895L125.352 5.12362L125.341 0.198284L124.113 0.708668L124.124 4.61666L118.893 9.86222Z" fill="#E7CB97"/>
<path d="M133.512 9.87257L126.105 9.85898L120.877 4.61208L120.891 0.705427L119.664 0.194598L119.648 5.1184L125.594 11.0859L134.018 11.1013L139.985 5.15573L140.001 0.231922L138.772 0.738245L138.758 4.6449L133.512 9.87257Z" fill="#E7CB97"/>
<path d="M106.229 34.7263L106.243 30.6634L111.489 25.4357L118.896 25.4493L124.124 30.6962L124.11 34.9343L125.337 34.9343L125.352 30.1899L119.407 24.2225L110.983 24.207L105.016 30.1526L105.016 34.7263H106.229Z" fill="#E7CB97"/>
<path d="M119.648 34.9673L120.892 34.9673V30.6636L126.138 25.4359L133.545 25.4495L138.773 30.6964V34.7456H140.002V30.1901L134.056 24.2226L125.632 24.2072L119.665 30.1527L119.648 34.9673Z" fill="#E7CB97"/>
<path d="M105.003 1.22873L109.336 1.24232L114.564 6.48922L114.55 13.8959L109.303 19.1236L105.003 19.11V20.3368L109.81 20.3523L115.777 14.4067L115.793 5.9829L109.847 0.0154457L105.003 -1.71661e-05L105.003 1.22873Z" fill="#E7CB97"/>
<path d="M105 15.7224L109.337 15.736L114.564 20.9829L114.551 28.3895L109.304 33.6172L105 33.6036V34.8305L109.81 34.8459L115.778 28.9004L115.793 20.4766L109.847 14.5091L105 14.4936L105 15.7224Z" fill="#E7CB97"/>
<path d="M130.589 13.8632L130.603 6.45658L135.85 1.2289L139.999 1.2425V0.0156174L135.343 0.000162125L129.376 5.94575L129.36 14.3695L135.306 20.337L139.999 20.3389V19.1101L135.817 19.1101L130.589 13.8632Z" fill="#E7CB97"/>
<path d="M130.59 28.3549L130.603 20.9463L135.852 15.7173L139.999 15.7293V14.5021L135.346 14.4883L129.376 20.4354L129.36 28.8613L135.308 34.8303L139.997 34.8406L139.999 33.6124L135.819 33.6031L130.59 28.3549Z" fill="#E7CB97"/>
<path fill-rule="evenodd" clip-rule="evenodd" d="M129.203 68.7646L115.739 68.7399L106.236 59.2021L106.261 45.7384L115.799 36.2356L129.263 36.2603L138.765 45.7981L138.741 59.2618L129.203 68.7646ZM139.974 59.7754L129.712 70L115.226 69.9734L105.001 59.7112L105.028 45.2248L115.29 35.0002L129.776 35.0268L140.001 45.289L139.974 59.7754Z" fill="#DB5B35"/>
<path d="M118.893 44.8625L111.485 44.8728L106.239 39.6419L106.229 35.7339L105 35.2269L105.012 40.1523L110.978 46.1016L119.403 46.0898L125.352 40.1239L125.341 35.1985L124.113 35.7089L124.124 39.6169L118.893 44.8625Z" fill="#DB5B35"/>
<path d="M133.512 44.8728L126.105 44.8592L120.877 39.6123L120.891 35.7057L119.664 35.1948L119.648 40.1186L125.594 46.0861L134.018 46.1016L139.985 40.156L140.001 35.2322L138.772 35.7385L138.758 39.6451L133.512 44.8728Z" fill="#DB5B35"/>
<path d="M106.228 69.7263L106.242 65.6634L111.488 60.4357L118.895 60.4493L124.123 65.6962L124.109 69.9343L125.336 69.9343L125.351 65.1899L119.406 59.2225L110.982 59.207L105.015 65.1526L105.015 69.7263H106.228Z" fill="#DB5B35"/>
<path d="M119.648 69.9673L120.892 69.9673V65.6636L126.138 60.4359L133.545 60.4495L138.773 65.6964V69.7456H140.002V65.1901L134.056 59.2226L125.632 59.2072L119.665 65.1527L119.648 69.9673Z" fill="#DB5B35"/>
<path d="M105.004 36.2287L109.337 36.2423L114.565 41.4892L114.551 48.8959L109.304 54.1236L105.004 54.11V55.3368L109.811 55.3523L115.778 49.4067L115.794 40.9829L109.848 35.0154L105.004 35L105.004 36.2287Z" fill="#DB5B35"/>
<path d="M105 50.7224L109.337 50.736L114.564 55.9829L114.551 63.3895L109.304 68.6172L105 68.6036V69.8305L109.81 69.8459L115.778 63.9004L115.793 55.4766L109.847 49.5091L105 49.4936L105 50.7224Z" fill="#DB5B35"/>
<path d="M130.59 48.8632L130.604 41.4566L135.851 36.2289L140 36.2425V35.0156L135.344 35.0002L129.377 40.9458L129.361 49.3695L135.307 55.337L140 55.3389V54.1101L135.818 54.1101L130.59 48.8632Z" fill="#DB5B35"/>
<path d="M130.591 63.3549L130.604 55.9463L135.853 50.7173L140 50.7293V49.5021L135.347 49.4883L129.377 55.4354L129.361 63.8613L135.309 69.8303L139.998 69.8406L140 68.6124L135.82 68.6031L130.591 63.3549Z" fill="#DB5B35"/>
<path fill-rule="evenodd" clip-rule="evenodd" d="M164.202 33.7646L150.738 33.7399L141.235 24.2021L141.26 10.7384L150.798 1.23557L164.262 1.26028L173.764 10.7981L173.74 24.2618L164.202 33.7646ZM174.973 24.7754L164.711 35L150.225 34.9734L140 24.7112L140.027 10.2248L150.289 0.000195342L164.775 0.0267799L175 10.289L174.973 24.7754Z" fill="#DA521F"/>
<path d="M153.893 9.86222L146.485 9.87257L141.239 4.64165L141.229 0.733657L140 0.226705L140.012 5.15204L145.978 11.1013L154.403 11.0895L160.352 5.12362L160.341 0.198284L159.113 0.708668L159.124 4.61666L153.893 9.86222Z" fill="#DA521F"/>
<path d="M168.512 9.87257L161.105 9.85898L155.877 4.61208L155.891 0.705427L154.664 0.194598L154.648 5.1184L160.594 11.0859L169.018 11.1013L174.985 5.15573L175.001 0.231922L173.772 0.738245L173.758 4.6449L168.512 9.87257Z" fill="#DA521F"/>
<path d="M141.228 34.7263L141.242 30.6634L146.488 25.4357L153.895 25.4493L159.123 30.6962L159.109 34.9343L160.336 34.9343L160.351 30.1899L154.406 24.2225L145.982 24.207L140.015 30.1526L140.015 34.7263H141.228Z" fill="#DA521F"/>
<path d="M154.648 34.9673L155.892 34.9673V30.6636L161.138 25.4359L168.545 25.4495L173.773 30.6964V34.7456H175.002V30.1901L169.056 24.2226L160.632 24.2072L154.665 30.1527L154.648 34.9673Z" fill="#DA521F"/>
<path d="M140.003 1.22873L144.336 1.24232L149.564 6.48922L149.55 13.8959L144.303 19.1236L140.003 19.11V20.3368L144.81 20.3523L150.777 14.4067L150.793 5.9829L144.847 0.0154457L140.003 -1.71661e-05L140.003 1.22873Z" fill="#DA521F"/>
<path d="M140 15.7224L144.337 15.736L149.564 20.9829L149.551 28.3895L144.304 33.6172L140 33.6036V34.8305L144.81 34.8459L150.778 28.9004L150.793 20.4766L144.847 14.5091L140 14.4936L140 15.7224Z" fill="#DA521F"/>
<path d="M165.589 13.8632L165.603 6.45658L170.85 1.2289L174.999 1.2425V0.0156174L170.343 0.000162125L164.376 5.94575L164.36 14.3695L170.306 20.337L174.999 20.3389V19.1101L170.817 19.1101L165.589 13.8632Z" fill="#DA521F"/>
<path d="M165.59 28.3549L165.603 20.9463L170.852 15.7173L174.999 15.7293V14.5021L170.346 14.4883L164.376 20.4354L164.36 28.8613L170.308 34.8303L174.997 34.8406L174.999 33.6124L170.819 33.6031L165.59 28.3549Z" fill="#DA521F"/>
</svg>
