<svg width="38" height="37" viewBox="0 0 38 37" fill="none" xmlns="http://www.w3.org/2000/svg">
<path fill-rule="evenodd" clip-rule="evenodd" d="M26.4327 1.30597L12.1995 1.3321L2.15363 11.4149L2.17975 25.6481L12.2626 35.694L26.4958 35.6679L36.5417 25.5851L36.5156 11.3519L26.4327 1.30597ZM37.8196 10.8089L26.9709 0L11.6566 0.0281066L0.847656 10.8768L0.875762 26.1911L11.7245 37L27.0387 36.9719L37.8477 26.1232L37.8196 10.8089Z" fill="#DA521F"/>
<path d="M15.5342 26.5743L7.7029 26.5634L2.15756 32.0932L2.14662 36.2246L0.847656 36.7605L0.8601 31.5537L7.16698 25.2644L16.0738 25.2768L22.3631 31.5837L22.3506 36.7905L21.0532 36.251L21.0641 32.1196L15.5342 26.5743Z" fill="#DA521F"/>
<path d="M30.9874 26.5634L23.1574 26.5777L17.631 32.1245L17.6454 36.2544L16.3484 36.7944L16.332 31.5892L22.6174 25.2807L31.5226 25.2644L37.8311 31.5498L37.8474 36.755L36.5485 36.2197L36.5341 32.0898L30.9874 26.5634Z" fill="#DA521F"/>
<path d="M2.1459 0.289513L2.16027 4.58457L7.70703 10.111L15.537 10.0966L21.0634 4.54988L21.049 0.0695907L22.346 0.0695801L22.3624 5.08514L16.077 11.3936L7.17177 11.41L0.863281 5.12459L0.863366 0.289513H2.1459Z" fill="#DA521F"/>
<path d="M16.332 0.034668L17.6462 0.0347002V4.58433L23.1929 10.1108L31.0229 10.0964L36.5493 4.54963V0.269042H37.8483V5.08489L31.5629 11.3934L22.6577 11.4097L16.3492 5.12435L16.332 0.034668Z" fill="#DA521F"/>
<path d="M0.852518 35.7008L5.43288 35.6865L10.9593 30.1397L10.945 22.3098L5.39819 16.7833L0.852406 16.7977V15.5007L5.93345 15.4844L12.2419 21.7698L12.2583 30.675L5.9729 36.9834L0.851929 36.9998L0.852518 35.7008Z" fill="#DA521F"/>
<path d="M0.847656 20.3795L5.43206 20.3652L10.9585 14.8184L10.9441 6.98848L5.39737 1.46205L0.847717 1.47642V0.179431L5.93262 0.163086L12.2411 6.44846L12.2575 15.3537L5.97208 21.6622L0.847717 21.6785L0.847656 20.3795Z" fill="#DA521F"/>
<path d="M27.9 22.3445L27.9144 30.1744L33.4612 35.7009L37.8478 35.6865V36.9835L32.9259 36.9998L26.6174 30.7144L26.6011 21.8092L32.8864 15.5007L37.8478 15.4988V16.7977L33.4265 16.7977L27.9 22.3445Z" fill="#DA521F"/>
<path d="M27.9005 7.02455L27.9149 14.8565L33.4638 20.3843L37.8478 20.3717V21.669L32.9283 21.6836L26.6174 15.3966L26.6011 6.48916L32.8888 0.179052L37.8454 0.168215L37.8478 1.46653L33.4291 1.47638L27.9005 7.02455Z" fill="#DA521F"/>
</svg>
