<svg width="126" height="118" viewBox="0 0 126 118" fill="none" xmlns="http://www.w3.org/2000/svg">
<path d="M1.09831 85.5787C1.09831 85.5787 -0.376074 77.8179 21.8797 83.3201C38.5591 87.4436 46.4374 83.9274 46.4374 83.9274L54.606 95.7796L27.5205 101.706H9.03355L1.09831 85.5787Z" fill="#005920"/>
<path d="M59.9249 118C93.0206 118 119.85 91.5848 119.85 59C119.85 26.4152 93.0206 0 59.9249 0C26.8293 0 0 26.4152 0 59C0 91.5848 26.8293 118 59.9249 118Z" fill="#3A683D"/>
<path d="M59.9246 115.87C91.8253 115.87 117.686 90.4084 117.686 59C117.686 27.5916 91.8253 2.13007 59.9246 2.13007C28.0238 2.13007 2.16309 27.5916 2.16309 59C2.16309 90.4084 28.0238 115.87 59.9246 115.87Z" fill="#FAFAF4"/>
<path d="M59.9259 12.9619C50.6827 12.9613 41.6469 15.6595 33.9612 20.715C26.2755 25.7706 20.285 32.9566 16.7473 41.3642C13.2097 49.7718 12.2837 59.0235 14.0865 67.9493C15.8894 76.875 20.34 85.074 26.8756 91.5093C33.4113 97.9447 41.7384 102.327 50.8039 104.103C59.8694 105.879 69.2662 104.968 77.806 101.486C86.3457 98.0035 93.6449 92.1062 98.7804 84.5396C103.916 76.9729 106.657 68.0768 106.658 58.9763C106.657 46.7733 101.734 35.0699 92.9704 26.4407C84.2066 17.8114 72.3203 12.963 59.9259 12.9619Z" fill="#3A683D"/>
<path d="M90.9425 71.6247V89.5138H72.773L59.9259 102.164L47.0775 89.5138H28.908V71.6247L16.0591 58.9755L28.908 46.3258V28.4358H47.0775L59.9259 15.7861L72.773 28.4358H90.9425V46.3258L103.793 58.9755L90.9425 71.6247Z" fill="#FAFAF4"/>
<path fill-rule="evenodd" clip-rule="evenodd" d="M59.9257 18.6841L60.7617 19.5074L60.4949 19.7696L59.9257 19.2092L59.3564 19.7696L59.0895 19.5074L59.9257 18.6841ZM62.7432 21.9835L61.338 20.5998L61.6049 20.3376L63.0101 21.7212L62.7432 21.9835ZM58.5132 20.5998L57.1077 21.9835L56.8408 21.7213L58.2463 20.3376L58.5132 20.5998ZM64.9915 24.1973L63.5863 22.8137L63.8532 22.5514L65.2584 23.9351L64.9915 24.1973ZM56.2645 22.8138L54.859 24.1974L54.5922 23.9352L55.9976 22.5515L56.2645 22.8138ZM67.2399 26.4112L65.8347 25.0275L66.1015 24.7653L67.5068 26.1489L67.2399 26.4112ZM54.0158 25.0277L52.6103 26.4113L52.3435 26.1491L53.7489 24.7654L54.0158 25.0277ZM69.4882 28.625L68.083 27.2414L68.3499 26.9791L69.7551 28.3628L69.4882 28.625ZM51.7671 27.2416L50.3616 28.6252L50.0948 28.363L51.5002 26.9793L51.7671 27.2416ZM71.0339 30.1471L70.3313 29.4552L70.5982 29.193L71.3008 29.8848C71.4224 30.0045 71.5575 30.1079 71.7025 30.1935L71.5084 30.5117C71.3371 30.4106 71.1775 30.2884 71.0339 30.1471ZM49.5184 29.4555L48.8157 30.1473C48.6721 30.2886 48.5125 30.4107 48.3412 30.5118L48.1472 30.1936C48.2922 30.108 48.4272 30.0047 48.5488 29.885L49.2515 29.1932L49.5184 29.4555ZM72.7727 30.8562C72.5695 30.8562 72.3689 30.8314 72.1751 30.7836L72.2669 30.4237C72.4309 30.4642 72.6007 30.4851 72.7727 30.4851H73.7664V30.8562H72.7727ZM47.6746 30.7836C47.4808 30.8314 47.2803 30.8562 47.0771 30.8562H46.0834V30.4851H47.0771C47.2491 30.4851 47.4188 30.4642 47.5829 30.4237L47.6746 30.7836ZM30.9889 30.4851H32.1712V30.8562H31.3661V31.6491H30.9889V30.4851ZM35.3512 30.8562H33.3637V30.4851H35.3512V30.8562ZM38.5311 30.8562H36.5436V30.4851H38.5311V30.8562ZM41.711 30.8562H39.7236V30.4851H41.711V30.8562ZM44.8909 30.8562H42.9035V30.4851H44.8909V30.8562ZM76.9463 30.8562H74.9589V30.4851H76.9463V30.8562ZM80.1262 30.8562H78.1387V30.4851H80.1262V30.8562ZM83.306 30.8562H81.3186V30.4851H83.306V30.8562ZM86.4859 30.8562H84.4985V30.4851H86.4859V30.8562ZM88.4835 30.8562H87.6784V30.4851H88.8607V31.6491H88.4835V30.8562ZM31.3661 32.8232V34.7801H30.9889V32.8232H31.3661ZM88.4835 34.7801V32.8232H88.8607V34.7801H88.4835ZM31.3661 35.9542V37.911H30.9889V35.9542H31.3661ZM88.4835 37.911V35.9542H88.8607V37.911H88.4835ZM31.3661 39.0852V41.042H30.9889V39.0852H31.3661ZM88.4835 41.042V39.0852H88.8607V41.042H88.4835ZM31.3661 42.2161V44.173H30.9889V42.2161H31.3661ZM88.4835 44.173V42.2161H88.8607V44.173H88.4835ZM31.3661 45.3471V46.3255C31.3661 46.5254 31.341 46.7228 31.2925 46.9135L30.9265 46.8234C30.9676 46.6619 30.9889 46.4948 30.9889 46.3255V45.3471H31.3661ZM88.4835 46.3255V45.3471H88.8607V46.3255C88.8607 46.4948 88.882 46.662 88.9232 46.8235L88.5572 46.9136C88.5087 46.7229 88.4835 46.5255 88.4835 46.3255ZM31.0165 47.5697C30.9138 47.7384 30.7898 47.8956 30.6462 48.037L29.9434 48.7288L29.6766 48.4666L30.3793 47.7747C30.5009 47.655 30.6059 47.522 30.6928 47.3791L31.0165 47.5697ZM89.2036 48.0372C89.06 47.8958 88.936 47.7386 88.8333 47.5699L89.157 47.3793C89.2439 47.5221 89.3489 47.6552 89.4705 47.775C89.4705 47.775 89.4705 47.7749 89.4705 47.775L90.1733 48.4668L89.9065 48.7291L89.2036 48.0372ZM29.1002 49.5591L27.6947 50.9427L27.4278 50.6805L28.8333 49.2968L29.1002 49.5591ZM92.1555 50.9429L90.7499 49.5593L91.0167 49.297L92.4224 50.6806L92.1555 50.9429ZM26.8514 51.7729L25.446 53.1566L25.1791 52.8944L26.5846 51.5107L26.8514 51.7729ZM94.4046 53.1568L92.9989 51.7731L93.2658 51.5108L94.6714 52.8945L94.4046 53.1568ZM24.6027 53.9868L23.1972 55.3705L22.9304 55.1083L24.3358 53.7246L24.6027 53.9868ZM96.6536 55.3706L95.248 53.987L95.5148 53.7247L96.9205 55.1083L96.6536 55.3706ZM22.354 56.2007L20.9485 57.5844L20.6816 57.3222L22.0871 55.9385L22.354 56.2007ZM98.9027 57.5845L97.497 56.2008L97.7639 55.9385L99.1695 57.3222L98.9027 57.5845ZM19.5357 58.9753L20.1052 58.4146L19.8384 58.1524L19.0024 58.9753L19.8384 59.7983L20.1052 59.536L19.5357 58.9753ZM100.316 58.9753L99.7461 58.4147L100.013 58.1524L100.849 58.9753L100.013 59.7983L99.7461 59.536L100.316 58.9753ZM97.497 61.7498L98.9027 60.3662L99.1695 60.6285L97.7639 62.0121L97.497 61.7498ZM20.9485 60.3662L22.3539 61.7498L22.0871 62.0121L20.6816 60.6284L20.9485 60.3662ZM95.248 63.9635L96.6536 62.5799L96.9205 62.8422L95.5148 64.2258L95.248 63.9635ZM23.1972 62.5799L24.6026 63.9636L24.3357 64.2258L22.9303 62.8422L23.1972 62.5799ZM92.9989 66.1773L94.4046 64.7937L94.6714 65.056L93.2658 66.4396L92.9989 66.1773ZM25.4459 64.7937L26.8513 66.1773L26.5844 66.4396L25.179 65.056L25.4459 64.7937ZM90.7499 68.3911L92.1555 67.0075L92.4224 67.2698L91.0167 68.6534L90.7499 68.3911ZM27.6946 67.0075L29.1 68.3911L28.8331 68.6534L27.4277 67.2698L27.6946 67.0075ZM89.2037 69.913L89.9065 69.2212L90.1733 69.4835L89.4705 70.1753C89.3489 70.2951 89.2439 70.4281 89.1569 70.571L88.8333 70.3804C88.936 70.2117 89.06 70.0545 89.2037 69.913ZM29.9433 69.2213L30.646 69.9131C30.7896 70.0545 30.9137 70.2116 31.0164 70.3804L30.6927 70.571C30.6057 70.4281 30.5007 70.2951 30.3791 70.1753L29.6764 69.4835L29.9433 69.2213ZM31.2924 71.0366C31.341 71.2274 31.3661 71.4248 31.3661 71.6247V72.6031H30.9889V71.6247C30.9889 71.4554 30.9676 71.2883 30.9265 71.1267L31.2924 71.0366ZM88.4835 71.6247C88.4835 71.4248 88.5086 71.2274 88.5572 71.0366L88.9231 71.1267C88.882 71.2883 88.8607 71.4554 88.8607 71.6247V72.6031H88.4835V71.6247ZM31.3661 73.7772V75.734H30.9889V73.7772H31.3661ZM88.4835 75.734V73.7772H88.8607V75.734H88.4835ZM31.3661 76.9081V78.8649H30.9889V76.9081H31.3661ZM88.4835 78.8649V76.9081H88.8607V78.8649H88.4835ZM31.3661 80.039V81.9958H30.9889V80.039H31.3661ZM88.4835 81.9958V80.039H88.8607V81.9958H88.4835ZM31.3661 83.1698V85.1266H30.9889V83.1698H31.3661ZM88.4835 85.1266V83.1698H88.8607V85.1266H88.4835ZM31.3661 87.0936V86.3007H30.9889V87.4647H32.1712V87.0936H31.3661ZM88.4835 87.0936V86.3007H88.8607V87.4647H87.6784V87.0936H88.4835ZM33.3637 87.0936H35.3512V87.4647H33.3637V87.0936ZM36.5436 87.0936H38.5311V87.4647H36.5436V87.0936ZM39.7236 87.0936H41.711V87.4647H39.7236V87.0936ZM42.9035 87.0936H44.8909V87.4647H42.9035V87.0936ZM46.0834 87.0936H47.0771C47.1779 87.0936 47.2784 87.0997 47.3781 87.1118L47.3319 87.48C47.2476 87.4698 47.1625 87.4646 47.0771 87.4647H46.0834V87.0936ZM72.1751 87.1663C72.3689 87.1184 72.5695 87.0936 72.7727 87.0936H73.7664V87.4647H72.7727C72.6008 87.4647 72.431 87.4857 72.2669 87.5262L72.1751 87.1663ZM74.9589 87.0936H76.9463V87.4647H74.9589V87.0936ZM78.1387 87.0936H80.1262V87.4647H78.1387V87.0936ZM81.3186 87.0936H83.306V87.4647H81.3186V87.0936ZM84.4985 87.0936H86.4859V87.4647H84.4985V87.0936ZM47.733 87.1813C47.8297 87.2076 47.925 87.2399 48.0181 87.2779C48.1113 87.3159 48.2018 87.3594 48.2891 87.4081L48.103 87.7309C48.029 87.6896 47.9524 87.6528 47.8736 87.6206C47.7948 87.5885 47.7141 87.5612 47.6322 87.5388L47.733 87.1813ZM71.034 87.8027C71.1776 87.6614 71.3371 87.5393 71.5085 87.4382L71.7025 87.7564C71.5575 87.842 71.4224 87.9453 71.3008 88.065C71.3008 88.065 71.3008 88.065 71.3008 88.065L70.5982 88.7569L70.3313 88.4946L71.034 87.8027ZM48.5899 87.6061C48.669 87.6669 48.7445 87.7326 48.8157 87.8028L49.5184 88.4946L49.2515 88.7569L48.5488 88.065C48.4885 88.0056 48.4246 87.9499 48.3576 87.8985L48.5899 87.6061ZM50.3616 89.3249L51.7671 90.7086L51.5002 90.9709L50.0948 89.5871L50.3616 89.3249ZM68.083 90.7086L69.4882 89.3249L69.7551 89.5871L68.3499 90.9709L68.083 90.7086ZM52.6103 91.5389L54.0158 92.9226L53.7489 93.1849L52.3435 91.8011L52.6103 91.5389ZM65.8347 92.9226L67.2399 91.5389L67.5068 91.8011L66.1016 93.1848L65.8347 92.9226ZM54.859 93.7528L56.2645 95.1366L55.9976 95.3988L54.5922 94.0151L54.859 93.7528ZM63.5863 95.1366L64.9915 93.7528L65.2584 94.0151L63.8532 95.3988L63.5863 95.1366ZM57.1077 95.9668L58.5132 97.3506L58.2463 97.6128L56.8408 96.2291L57.1077 95.9668ZM61.338 97.3506L62.7432 95.9668L63.0101 96.2291L61.6049 97.6128L61.338 97.3506ZM59.9257 98.7413L59.3564 98.1808L59.0895 98.4431L59.9257 99.2663L60.7617 98.4431L60.4948 98.1808L59.9257 98.7413Z" fill="#207F16"/>
<path d="M70.2444 46.4191C67.7206 46.7011 66.333 50.8704 66.2213 51.2196C66.28 51.0638 66.6223 50.3916 68.3836 49.4963C70.4 48.4661 74.4287 50.6689 74.4287 50.6689C72.5719 52.2794 69.1557 52.4258 66.3673 52.1303C63.5773 51.8334 63.7302 45.9797 63.5773 41.4432C63.419 36.9031 62.49 37.3431 62.49 37.3431C62.49 37.3431 62.6455 35.2879 60.6333 44.6621C58.6148 54.031 47.7622 56.3728 47.7622 56.3728C53.8114 57.2553 58.1503 54.4723 59.6966 51.5453C61.2499 48.6145 62.3304 42.464 62.3304 42.464C62.3304 51.2538 63.1093 53.4473 65.4367 54.4723C67.7629 55.5024 72.2594 54.0364 75.5159 52.863C76.9677 52.4115 78.499 52.2626 80.0124 52.4258L81.8706 49.6448C81.8706 49.6448 79.2321 49.7871 77.3767 49.0598C75.5159 48.3257 72.8815 46.1288 70.2444 46.4191Z" fill="#3A683D"/>
<path d="M50.3981 51.8395C51.0208 50.3767 49.9322 42.464 49.9322 40.4123C49.8942 39.2908 50.1613 38.1798 50.7057 37.194C49.6239 36.6063 48.8517 33.9696 48.8517 33.9696C48.434 34.7772 47.9675 35.5594 47.4548 36.3121C47.4548 36.3121 50.555 50.8173 48.5366 52.5669C46.5243 54.3231 42.4909 54.622 40.1676 53.1611C37.8388 51.6937 40.319 47.004 40.319 47.004C38.9227 48.6145 37.8388 50.5198 37.995 52.5669C38.1491 54.622 39.6996 56.6663 43.4214 56.8154C47.1403 56.9631 49.7753 53.303 50.3981 51.8395Z" fill="#3A683D"/>
<path d="M55.0506 44.8099C56.7545 45.9797 57.6863 49.6448 57.6863 49.6448C58.616 41.4432 51.0212 39.1 51.0212 39.1C51.0212 39.1 50.8636 39.5372 51.0212 41.7313C51.1741 43.9348 53.3405 43.6379 55.0506 44.8099Z" fill="#3A683D"/>
<path d="M126 89.9716L122.78 88.3909C117.258 85.6496 111.323 83.8048 105.203 82.9275C70.5188 78.1162 35.8346 95.897 1.15039 85.4377V85.4488C1.2182 87.1177 1.48188 88.7734 1.93618 90.3827C5.61661 104.419 19.103 113.677 33.7943 112.721C58.2457 111.131 82.697 103.432 107.148 107.433C112.076 108.264 116.833 109.879 121.234 112.214C122.201 112.721 122.921 113.083 122.921 113.083L114.84 97.5491L126 89.9716Z" fill="url(#paint0_linear)"/>
<path d="M51.6181 75.3813C51.9438 75.3813 52.1067 75.2246 52.1067 74.9114C52.1067 74.8922 52.1165 74.8827 52.1359 74.8827H52.2234C52.2429 74.8827 52.2526 74.8922 52.2526 74.9114V76.2458C52.2526 76.2649 52.2429 76.2745 52.2234 76.2745H52.1359C52.1165 76.2745 52.1067 76.2649 52.1067 76.2458C52.1067 76.0258 52.0435 75.8739 51.9171 75.7902C51.849 75.7448 51.7518 75.722 51.6254 75.722H50.1885C50.1302 75.722 50.101 75.7543 50.101 75.8189V77.6627C50.101 77.8253 50.1995 77.946 50.3964 78.025C50.5957 78.1015 50.721 78.1397 50.772 78.1397C50.8255 78.1397 50.8522 78.1493 50.8522 78.1684V78.2545C50.8522 78.2737 50.8425 78.2832 50.8231 78.2832H48.8319C48.8125 78.2832 48.8027 78.2737 48.8027 78.2545V78.1684C48.8027 78.1493 48.8234 78.1397 48.8647 78.1397C48.9061 78.1397 48.9705 78.1206 49.058 78.0824C49.1455 78.0441 49.2221 77.9879 49.2878 77.9138C49.3558 77.8372 49.3899 77.7452 49.3899 77.6376V73.7635C49.3899 73.608 49.306 73.4968 49.1382 73.4299C49.041 73.3892 48.945 73.3689 48.8501 73.3689H48.8356C48.8161 73.3689 48.8064 73.3593 48.8064 73.3402V73.2541C48.8064 73.235 48.8161 73.2254 48.8356 73.2254H52.2745C52.3037 73.2302 52.3255 73.2374 52.3401 73.2469C52.3547 73.2541 52.362 73.2744 52.362 73.3079V74.176C52.362 74.2047 52.3572 74.2226 52.3474 74.2298C52.3401 74.237 52.3255 74.2406 52.3037 74.2406H52.2599C52.255 74.2382 52.238 74.1736 52.2088 74.0469C52.1821 73.9177 52.1396 73.8185 52.0812 73.7491C51.9815 73.6439 51.8685 73.5853 51.7421 73.5734C51.691 73.5686 51.629 73.5662 51.5561 73.5662H50.1739C50.1253 73.5662 50.101 73.5901 50.101 73.6379V75.2988C50.101 75.3538 50.1302 75.3813 50.1885 75.3813H51.6181Z" fill="#3A683D"/>
<path d="M57.4238 77.9747C57.2123 78.1015 56.9813 78.2007 56.7309 78.2725C56.4805 78.3442 56.258 78.3801 56.0635 78.3801C55.6648 78.3801 55.2843 78.3167 54.9221 78.19C54.4261 78.013 54.0274 77.7511 53.7259 77.4044C53.3418 76.962 53.1497 76.4012 53.1497 75.722C53.1497 75.2318 53.2774 74.7858 53.5326 74.3841C53.7879 73.9799 54.1404 73.6607 54.5902 73.4263C55.0424 73.1919 55.5274 73.0748 56.0453 73.0748C56.5656 73.0748 57.0311 73.1884 57.442 73.4155C57.8529 73.6427 58.1823 73.9548 58.4303 74.3518C58.6783 74.7487 58.8023 75.1792 58.8023 75.6431C58.8023 76.1047 58.6795 76.5447 58.4339 76.9632C58.1884 77.3793 57.8517 77.7165 57.4238 77.9747ZM53.9156 75.6073C53.9156 76.0042 54.0043 76.3988 54.1818 76.791C54.3617 77.1808 54.6182 77.4989 54.9512 77.7452C55.2843 77.9915 55.6697 78.1146 56.1073 78.1146C56.7297 78.1146 57.2147 77.8803 57.5624 77.4116C57.876 76.9883 58.0328 76.4478 58.0328 75.7902C58.0328 75.1326 57.8407 74.5658 57.4566 74.0899C57.2694 73.858 57.0396 73.6726 56.7674 73.5339C56.4975 73.3928 56.224 73.3223 55.9468 73.3223C55.6721 73.3223 55.446 73.3522 55.2685 73.412C55.0935 73.4717 54.9342 73.5542 54.7908 73.6595C54.6473 73.7623 54.5209 73.8855 54.4115 74.0289C54.3021 74.1724 54.2109 74.3279 54.138 74.4953C53.9897 74.8396 53.9156 75.2103 53.9156 75.6073Z" fill="#3A683D"/>
<path d="M63.8786 77.9747C63.6671 78.1015 63.4361 78.2007 63.1857 78.2725C62.9353 78.3442 62.7129 78.3801 62.5184 78.3801C62.1196 78.3801 61.7392 78.3167 61.3769 78.19C60.8809 78.013 60.4822 77.7511 60.1808 77.4044C59.7966 76.962 59.6046 76.4012 59.6046 75.722C59.6046 75.2318 59.7322 74.7858 59.9875 74.3841C60.2428 73.9799 60.5953 73.6607 61.0451 73.4263C61.4973 73.1919 61.9823 73.0748 62.5001 73.0748C63.0204 73.0748 63.486 73.1884 63.8968 73.4155C64.3077 73.6427 64.6372 73.9548 64.8851 74.3518C65.1331 74.7487 65.2571 75.1792 65.2571 75.6431C65.2571 76.1047 65.1343 76.5447 64.8888 76.9632C64.6432 77.3793 64.3065 77.7165 63.8786 77.9747ZM60.3704 75.6073C60.3704 76.0042 60.4591 76.3988 60.6366 76.791C60.8165 77.1808 61.073 77.4989 61.4061 77.7452C61.7392 77.9915 62.1245 78.1146 62.5621 78.1146C63.1845 78.1146 63.6695 77.8803 64.0172 77.4116C64.3308 76.9883 64.4876 76.4478 64.4876 75.7902C64.4876 75.1326 64.2956 74.5658 63.9114 74.0899C63.7242 73.858 63.4945 73.6726 63.2222 73.5339C62.9523 73.3928 62.6788 73.3223 62.4017 73.3223C62.1269 73.3223 61.9008 73.3522 61.7234 73.412C61.5483 73.4717 61.3891 73.5542 61.2456 73.6595C61.1022 73.7623 60.9758 73.8855 60.8664 74.0289C60.757 74.1724 60.6658 74.3279 60.5928 74.4953C60.4445 74.8396 60.3704 75.2103 60.3704 75.6073Z" fill="#3A683D"/>
<path d="M65.8224 73.2434C65.8224 73.2242 65.8321 73.2147 65.8515 73.2147H65.9318L67.1024 73.1896C67.2434 73.1848 67.3966 73.1824 67.5619 73.1824H68.0177C68.4408 73.1824 68.758 73.1979 68.9696 73.229C69.1835 73.2601 69.3926 73.2972 69.5968 73.3402C69.8035 73.3809 70.0223 73.4753 70.2532 73.6236C70.4866 73.7719 70.6884 73.9512 70.8586 74.1617C71.2184 74.6112 71.3983 75.0967 71.3983 75.618C71.3983 76.1393 71.2597 76.6069 70.9826 77.0206C70.5839 77.6208 70.0065 78.013 69.2504 78.1971C69.0097 78.2545 68.7629 78.2832 68.5101 78.2832H65.8515C65.8321 78.2832 65.8224 78.2737 65.8224 78.2545V78.1541C65.8224 78.135 65.8321 78.1254 65.8515 78.1254H65.9318C66.3742 78.1254 66.5955 77.9867 66.5955 77.7093V73.7778C66.5955 73.6439 66.5432 73.5435 66.4387 73.4765C66.3341 73.4072 66.2162 73.3725 66.0849 73.3725H65.8515C65.8321 73.3725 65.8224 73.3629 65.8224 73.3438V73.2434ZM67.3978 73.351C67.337 73.351 67.3066 73.3833 67.3066 73.4478V77.8348C67.3066 78.0118 67.4756 78.1039 67.8135 78.111C67.9132 78.1134 68.0177 78.1146 68.1271 78.1146C68.9027 78.1146 69.5117 77.9006 69.9542 77.4725C70.3991 77.0445 70.6216 76.4753 70.6216 75.7651C70.6216 75.0525 70.4161 74.4725 70.0052 74.0253C69.5968 73.5758 69.0583 73.351 68.3897 73.351H67.3978Z" fill="#3A683D"/>
<path d="M26.1074 21.3362C26.3143 21.5478 26.5711 21.5173 26.878 21.2446C26.8907 21.2325 26.9032 21.2328 26.9155 21.2453L26.9706 21.3017C26.9829 21.3143 26.9827 21.3266 26.9699 21.3387L25.4512 22.7777C25.4384 22.7897 25.4259 22.7895 25.4137 22.7769L25.3585 22.7205C25.3463 22.708 25.38 22.664 25.4596 22.5886C25.5392 22.5132 25.613 22.4099 25.6812 22.2789C25.7882 22.081 25.7835 21.9224 25.6671 21.8033L24.5709 20.6819C24.5556 20.6662 24.5433 20.6583 24.5339 20.6581C24.5245 20.6579 24.5119 20.6654 24.496 20.6804L22.6143 22.4634C22.5983 22.4784 22.5903 22.4906 22.5901 22.4998C22.5899 22.5091 22.5975 22.5215 22.6128 22.5372L23.7319 23.6821C23.9158 23.8702 24.1486 23.8307 24.4303 23.5638C24.4431 23.5517 24.4556 23.5519 24.4678 23.5645L24.523 23.6209C24.5352 23.6334 24.5358 23.645 24.5247 23.6555L23.2065 24.9045C23.1938 24.9166 23.1813 24.9163 23.169 24.9038L23.1139 24.8474C23.1016 24.8348 23.1114 24.8135 23.1432 24.7833C23.4091 24.5314 23.4325 24.2934 23.2134 24.0692L20.7615 21.5607C20.5822 21.3773 20.3766 21.385 20.1446 21.5837C20.1097 21.6138 20.086 21.6226 20.0738 21.6101L20.0301 21.5654C20.0179 21.5528 20.0173 21.5413 20.0285 21.5307L21.2272 20.3949C21.2399 20.3829 21.2524 20.3831 21.2647 20.3956L21.3084 20.4403C21.3175 20.4497 21.307 20.4687 21.2768 20.4974C21.0491 20.7131 21.0433 20.9314 21.2593 21.1524L22.321 22.2386C22.3363 22.2543 22.3486 22.2622 22.358 22.2624C22.3674 22.2626 22.38 22.2551 22.3959 22.24L24.2777 20.4571C24.2936 20.442 24.3016 20.4299 24.3018 20.4206C24.302 20.4114 24.2944 20.399 24.2791 20.3833L23.1807 19.2595C23.1637 19.2484 23.149 19.2381 23.1367 19.2287C23.1245 19.2161 23.1037 19.1996 23.0744 19.179C23.0112 19.1363 22.9125 19.1467 22.7785 19.2104C22.6429 19.2724 22.506 19.3598 22.3679 19.4726C22.3552 19.4847 22.3427 19.4845 22.3304 19.4719L22.2867 19.4272C22.2745 19.4147 22.2739 19.4032 22.2851 19.3926L23.6629 18.0871C23.6757 18.075 23.6881 18.0753 23.7004 18.0878L23.7441 18.1325C23.7533 18.1419 23.7427 18.1609 23.7125 18.1896C23.4769 18.4128 23.4671 18.6349 23.6831 18.8559L26.1074 21.3362Z" fill="#3A683D"/>
<path d="M28.2826 20.3155C28.2935 20.3292 28.292 20.3414 28.2781 20.3522L26.944 21.3796C26.9301 21.3903 26.9177 21.3888 26.9068 21.3751L26.8578 21.3134C26.8469 21.2997 26.8528 21.2841 26.8754 21.2667C27.1057 21.0728 27.1673 20.8238 27.0603 20.5196L25.7143 16.6644C25.7133 16.6597 25.7107 16.6547 25.7067 16.6496L25.6106 16.5869C25.6038 16.5783 25.6038 16.5713 25.6108 16.566L26.1329 16.1639C26.1378 16.1629 26.1435 16.1613 26.1501 16.159C26.1584 16.1553 26.1677 16.1564 26.178 16.1623L29.7057 18.3621C29.7668 18.3896 29.8193 18.4168 29.8632 18.4438C29.9088 18.4694 29.9534 18.4903 29.997 18.5063C30.0946 18.5444 30.2062 18.5454 30.3319 18.5094C30.4433 18.4871 30.532 18.4506 30.5981 18.3996C30.6121 18.3889 30.6252 18.3912 30.6374 18.4067L30.6844 18.4658C30.6953 18.4795 30.6937 18.4917 30.6798 18.5024L29.0821 19.7329C29.0682 19.7436 29.0558 19.7421 29.0449 19.7284L28.9959 19.6667C28.985 19.653 29.0104 19.6197 29.0721 19.5667C29.1338 19.5136 29.1841 19.4693 29.2232 19.4337C29.4447 19.2217 29.5016 19.048 29.3941 18.9127C29.386 18.9024 29.3747 18.8918 29.3603 18.8807L28.0964 18.0896C28.0919 18.0876 28.0823 18.0825 28.0676 18.0746C28.0004 18.0324 27.9407 18.0314 27.8885 18.0716L26.9617 18.7854C26.9095 18.8256 26.8911 18.8854 26.9064 18.9647C26.9107 18.9807 26.9135 18.9896 26.9149 18.9913L27.4196 20.421L27.438 20.4441C27.4734 20.4886 27.5288 20.5108 27.6044 20.5106C27.7746 20.5094 27.9493 20.4397 28.1285 20.3016L28.1964 20.2494C28.2103 20.2386 28.2227 20.2401 28.2336 20.2538L28.2826 20.3155ZM27.5731 17.8548C27.6044 17.8306 27.6099 17.8057 27.5895 17.78C27.5786 17.7663 27.5629 17.7536 27.5423 17.7418L26.3162 16.9878C26.2621 16.9549 26.2307 16.9419 26.222 16.9486C26.2132 16.9553 26.2184 16.99 26.2373 17.0527L26.7069 18.3852C26.7135 18.4077 26.725 18.4292 26.7414 18.4498C26.7563 18.4686 26.7769 18.468 26.803 18.4479L27.5731 17.8548Z" fill="#3A683D"/>
<path d="M31.0211 18.2884C31.0062 18.298 30.9939 18.2954 30.9843 18.2808L30.941 18.2152C30.9314 18.2006 30.934 18.1885 30.9489 18.179L31.016 18.1362C31.1761 18.0338 31.2941 17.9117 31.37 17.7699C31.4003 17.7116 31.4127 17.644 31.4071 17.5673C31.4003 17.4887 31.3734 17.4138 31.3265 17.3426L29.4178 14.4476C29.3433 14.3345 29.2117 14.2954 29.023 14.3304C28.8899 14.3533 28.7646 14.4022 28.6473 14.4772L28.5859 14.5164C28.571 14.5259 28.5587 14.5234 28.5491 14.5088L28.5058 14.4431C28.4962 14.4286 28.4988 14.4165 28.5137 14.407L30.4046 13.1985C30.4195 13.189 30.4318 13.1916 30.4414 13.2061L30.4847 13.2718C30.4943 13.2864 30.4917 13.2985 30.4768 13.308L30.3567 13.3847C30.1649 13.5073 30.0129 13.6421 29.9007 13.789C29.8675 13.8309 29.8558 13.8734 29.8656 13.9164C29.8761 13.9564 29.9084 14.0174 29.9625 14.0995L31.9631 17.1341C31.9873 17.1628 32.0233 17.1812 32.0711 17.1896C32.119 17.1979 32.1615 17.1901 32.1987 17.1663L33.302 16.4613C33.4677 16.3554 33.5675 16.1555 33.6014 15.8616C33.6105 15.7831 33.6191 15.6817 33.6271 15.5573C33.6338 15.4311 33.6411 15.3578 33.6488 15.3373C33.6795 15.2555 33.7099 15.2374 33.7399 15.283C33.7471 15.2939 33.7516 15.3066 33.7532 15.3212L33.8654 16.4007C33.8703 16.4442 33.8616 16.4731 33.8393 16.4874L31.0211 18.2884Z" fill="#3A683D"/>
<path d="M35.6731 15.4366C35.6813 15.4519 35.6777 15.4637 35.6621 15.4719L34.1654 16.2529C34.1498 16.2611 34.1378 16.2575 34.1295 16.2421L34.0923 16.1729C34.084 16.1576 34.0926 16.1433 34.118 16.13C34.3793 15.9789 34.4844 15.7443 34.4333 15.4264L33.7958 11.3989C33.7956 11.3941 33.794 11.3888 33.7909 11.383L33.7075 11.3047C33.7023 11.2951 33.7036 11.2883 33.7115 11.2842L34.2972 10.9785C34.3022 10.9784 34.3081 10.9777 34.315 10.9766C34.3238 10.9744 34.3328 10.9771 34.3419 10.9847L37.4226 13.7593C37.4779 13.7969 37.5247 13.8328 37.5631 13.8669C37.6034 13.9 37.6436 13.9282 37.6837 13.9516C37.773 14.0059 37.8827 14.0262 38.0129 14.0124C38.1265 14.0098 38.2204 13.9891 38.2946 13.9503C38.3102 13.9422 38.3227 13.9467 38.332 13.964L38.3677 14.0303C38.376 14.0457 38.3723 14.0575 38.3567 14.0656L36.5642 15.0011C36.5485 15.0092 36.5366 15.0056 36.5283 14.9902L36.4911 14.9211C36.4828 14.9057 36.5138 14.8772 36.5839 14.8357C36.6541 14.7941 36.7116 14.7592 36.7564 14.7309C37.0123 14.5605 37.0994 14.3993 37.0177 14.2475C37.0114 14.236 37.0023 14.2236 36.9901 14.2102L35.8868 13.2132C35.8828 13.2104 35.8742 13.2038 35.8611 13.1934C35.8025 13.1403 35.7439 13.1291 35.6853 13.1596L34.6456 13.7022C34.587 13.7328 34.5582 13.7885 34.5591 13.8692C34.5605 13.8857 34.5617 13.8949 34.5628 13.8968L34.8046 15.3914L34.8186 15.4173C34.8454 15.4673 34.8961 15.4987 34.9706 15.5115C35.1383 15.5397 35.3227 15.5013 35.5238 15.3963L35.6 15.3566C35.6156 15.3484 35.6276 15.352 35.6358 15.3674L35.6731 15.4366ZM35.4135 12.8917C35.4487 12.8733 35.4585 12.8497 35.443 12.8209C35.4347 12.8056 35.4215 12.7903 35.4033 12.7752L34.3307 11.8212C34.2833 11.7795 34.2547 11.7612 34.2449 11.7663C34.2351 11.7714 34.234 11.8065 34.2415 11.8715L34.4661 13.2643C34.4686 13.2876 34.4761 13.3108 34.4885 13.3338C34.4999 13.3549 34.5202 13.3579 34.5495 13.3426L35.4135 12.8917Z" fill="#3A683D"/>
<path d="M38.7326 13.9135C38.7163 13.9203 38.7047 13.9156 38.6979 13.8996L38.667 13.8274C38.6601 13.8114 38.6649 13.8 38.6812 13.7933L38.7545 13.7629C38.9296 13.6902 39.067 13.5908 39.1665 13.4646C39.2066 13.4126 39.2306 13.3483 39.2387 13.2718C39.2459 13.1934 39.2328 13.115 39.1993 13.0369L37.8388 9.85644C37.7857 9.73218 37.6635 9.67078 37.4723 9.67221C37.3376 9.67141 37.2062 9.69762 37.0778 9.75083L37.0106 9.7787C36.9943 9.78545 36.9827 9.78082 36.9759 9.76478L36.945 9.69264C36.9382 9.67661 36.9429 9.66521 36.9592 9.65845L39.0276 8.80076C39.0439 8.79401 39.0555 8.79864 39.0623 8.81468L39.0932 8.88682C39.1 8.90285 39.0953 8.91425 39.079 8.92101L38.9476 8.97548C38.7378 9.06248 38.5649 9.16839 38.4289 9.29323C38.3889 9.32869 38.3699 9.36842 38.3719 9.41241C38.3751 9.45355 38.396 9.51921 38.4346 9.60939L39.8607 12.9431C39.8793 12.9755 39.9114 13 39.9568 13.0165C40.0023 13.0331 40.0454 13.0329 40.0861 13.016L41.2929 12.5156C41.4742 12.4404 41.6074 12.2613 41.6926 11.9782C41.7154 11.9027 41.7418 11.8045 41.7716 11.6836C41.8005 11.5607 41.8206 11.4898 41.8317 11.471C41.8763 11.3959 41.9094 11.3834 41.9308 11.4335C41.9359 11.4455 41.938 11.4588 41.9371 11.4734L41.8563 12.5545C41.8534 12.5982 41.8398 12.6251 41.8153 12.6352L38.7326 13.9135Z" fill="#3A683D"/>
<path d="M45.7702 8.59514C46.0544 8.51308 46.1558 8.33538 46.0744 8.06205C46.0694 8.04535 46.0754 8.03456 46.0924 8.02966L46.1687 8.00761C46.1857 8.00271 46.1967 8.00861 46.2016 8.0253L46.5484 9.18958C46.5534 9.20627 46.5474 9.21707 46.5304 9.22197L46.4541 9.24402C46.4371 9.24891 46.4262 9.24302 46.4212 9.22633C46.364 9.03437 46.2694 8.91779 46.1374 8.87661C46.0662 8.85411 45.9754 8.85879 45.8651 8.89063L44.6117 9.25255C44.5608 9.26725 44.5437 9.30276 44.5605 9.3591L45.0396 10.9678C45.0819 11.1097 45.1992 11.1903 45.3915 11.2095C45.5853 11.2261 45.7045 11.2279 45.749 11.2151C45.7957 11.2016 45.8215 11.2032 45.8265 11.2199L45.8488 11.295C45.8538 11.3117 45.8478 11.3225 45.8308 11.3274L44.0938 11.8289C44.0768 11.8338 44.0659 11.8279 44.0609 11.8112L44.0385 11.7361C44.0335 11.7194 44.0491 11.7059 44.0851 11.6955C44.1212 11.6851 44.1724 11.6521 44.2388 11.5967C44.3053 11.5413 44.3575 11.473 44.3955 11.3917C44.435 11.3078 44.4407 11.2189 44.4128 11.125L43.4059 7.74486C43.3655 7.60923 43.2635 7.53334 43.0997 7.51717C43.0043 7.50619 42.9153 7.51265 42.8326 7.53653L42.8198 7.5402C42.8029 7.5451 42.7919 7.53921 42.7869 7.52251L42.7645 7.4474C42.7596 7.43071 42.7656 7.41991 42.7825 7.41501L45.7826 6.54879C45.8093 6.54562 45.8302 6.54636 45.8454 6.55104C45.86 6.55362 45.8717 6.56952 45.8804 6.59873L46.106 7.35614C46.1134 7.38118 46.1139 7.39805 46.1072 7.40676C46.1027 7.41486 46.0909 7.42166 46.0719 7.42717L46.0337 7.43819C46.0288 7.43733 45.9972 7.38528 45.9388 7.28205C45.8819 7.17611 45.819 7.10024 45.7501 7.05442C45.6358 6.98773 45.5219 6.96508 45.4085 6.98649C45.3627 6.99518 45.308 7.00871 45.2444 7.02708L44.0387 7.37522C43.9963 7.38747 43.9813 7.41446 43.9937 7.45619L44.4253 8.90528C44.4396 8.95327 44.4722 8.96992 44.5231 8.95522L45.7702 8.59514Z" fill="#3A683D"/>
<path d="M51.7456 9.70702C51.5787 9.85576 51.3896 9.98322 51.1784 10.0894C50.9673 10.1955 50.7748 10.265 50.6012 10.2977C50.2451 10.3647 49.8944 10.3721 49.5489 10.3198C49.0753 10.2451 48.6739 10.0783 48.3445 9.8193C47.9248 9.48878 47.656 9.02027 47.5382 8.41375C47.4532 7.97595 47.4898 7.5562 47.6481 7.1545C47.806 6.75067 48.0654 6.4063 48.4264 6.1214C48.7896 5.8361 49.2024 5.64992 49.6648 5.56286C50.1294 5.4754 50.5648 5.49858 50.9711 5.63239C51.3774 5.76621 51.7257 5.98953 52.016 6.30235C52.3063 6.61518 52.4917 6.97875 52.5722 7.39306C52.6522 7.80523 52.6189 8.21882 52.4722 8.63384C52.3251 9.04671 52.0829 9.40444 51.7456 9.70702ZM48.2022 8.1825C48.271 8.53702 48.4187 8.87448 48.6452 9.19488C48.8735 9.51274 49.1577 9.75366 49.4978 9.91764C49.838 10.0816 50.2034 10.1268 50.5942 10.0533C51.15 9.94863 51.5425 9.65781 51.7716 9.18078C51.9783 8.75006 52.0246 8.24105 51.9105 7.65375C51.7965 7.06645 51.5267 6.5926 51.1011 6.23219C50.8937 6.0565 50.6564 5.92961 50.3892 5.85152C50.1238 5.77088 49.8673 5.75386 49.6198 5.80045C49.3745 5.84664 49.1777 5.91134 49.0296 5.99456C48.8837 6.07738 48.7558 6.17783 48.6459 6.29591C48.5357 6.41185 48.4442 6.54309 48.3713 6.68962C48.2985 6.83615 48.2441 6.99029 48.208 7.15204C48.1353 7.4845 48.1333 7.82799 48.2022 8.1825Z" fill="#3A683D"/>
<path d="M57.4231 9.12026C57.2395 9.24974 57.0362 9.35562 56.8132 9.43792C56.5902 9.52022 56.3902 9.56807 56.2131 9.58148C55.85 9.60897 55.499 9.57775 55.1602 9.48782C54.696 9.36159 54.3144 9.1517 54.0153 8.85814C53.6342 8.48357 53.4196 7.98845 53.3715 7.37277C53.3368 6.92837 53.4214 6.51526 53.6255 6.13346C53.8293 5.7495 54.1277 5.43579 54.5207 5.19234C54.916 4.94871 55.3493 4.80905 55.8209 4.77335C56.2947 4.73749 56.7267 4.80837 57.117 4.98599C57.5072 5.16361 57.8293 5.42381 58.0832 5.76658C58.3371 6.10934 58.4805 6.49101 58.5134 6.91157C58.546 7.32997 58.4654 7.73732 58.2714 8.13362C58.0773 8.52775 57.7945 8.85663 57.4231 9.12026ZM54.0608 7.21592C54.0889 7.57579 54.1976 7.92737 54.387 8.27066C54.5784 8.61162 54.8345 8.88226 55.1553 9.08259C55.476 9.28292 55.8356 9.368 56.2342 9.33783C56.8009 9.29493 57.226 9.04904 57.5094 8.60018C57.7651 8.19485 57.8696 7.6941 57.8231 7.09794C57.7765 6.50178 57.5615 6.00124 57.178 5.59632C56.9911 5.39894 56.7688 5.24677 56.511 5.13981C56.2552 5.03051 56.0012 4.98541 55.7488 5.00451C55.4986 5.02345 55.2948 5.06614 55.1374 5.13257C54.9823 5.19883 54.8431 5.2846 54.7199 5.38987C54.5966 5.49298 54.4901 5.61334 54.4007 5.75095C54.3112 5.88857 54.2392 6.03576 54.1846 6.19254C54.0739 6.51493 54.0327 6.85606 54.0608 7.21592Z" fill="#3A683D"/>
<path d="M59.1359 4.72564C59.1365 4.70826 59.1456 4.69984 59.1633 4.7004L59.2362 4.7027L60.3007 4.71346C60.429 4.71316 60.5682 4.71538 60.7184 4.72012L61.1327 4.7332C61.5171 4.74533 61.8049 4.76856 61.9962 4.80287C62.1897 4.83726 62.3786 4.87694 62.5629 4.92192C62.7495 4.96479 62.9456 5.0569 63.1511 5.19826C63.3588 5.33969 63.5368 5.50846 63.6853 5.70457C63.9989 6.12344 64.148 6.56975 64.1326 7.04349C64.1172 7.51723 63.9774 7.9381 63.7133 8.3061C63.3332 8.84011 62.7969 9.17994 62.1044 9.32558C61.884 9.37084 61.6589 9.38983 61.4291 9.38258L59.0133 9.30633C58.9956 9.30577 58.987 9.2968 58.9876 9.27941L58.9906 9.18814C58.9912 9.17076 59.0003 9.16234 59.0179 9.1629L59.0909 9.1652C59.4929 9.17789 59.6981 9.0582 59.7063 8.80612L59.8226 5.23351C59.8266 5.11181 59.7821 5.01904 59.689 4.9552C59.5961 4.88918 59.49 4.85429 59.3707 4.85052L59.1586 4.84383C59.1409 4.84327 59.1324 4.8343 59.1329 4.81691L59.1359 4.72564ZM60.5643 4.86862C60.5091 4.86688 60.4805 4.89534 60.4786 4.95402L60.3488 8.9406C60.3436 9.10141 60.4944 9.18993 60.8013 9.20614C60.8918 9.21117 60.9867 9.21526 61.0862 9.21839C61.7909 9.24064 62.3507 9.06361 62.7654 8.68732C63.1824 8.31109 63.4014 7.80027 63.4224 7.15485C63.4435 6.50726 63.274 5.97439 62.9138 5.55623C62.556 5.13597 62.0733 4.91625 61.4657 4.89707L60.5643 4.86862Z" fill="#3A683D"/>
<path d="M70.4831 10.2809C70.4692 10.2962 70.4411 10.2959 70.3988 10.2801C70.359 10.2624 70.3107 10.2489 70.2538 10.2394C70.1969 10.2299 70.1138 10.2282 70.0047 10.2343C69.8981 10.2386 69.7291 10.2457 69.4977 10.2557C69.2659 10.2679 69.058 10.2586 68.8741 10.228C68.4581 10.1587 68.0706 9.99606 67.7115 9.74001C67.3549 9.48217 67.0897 9.15795 66.9158 8.76736C66.7423 8.37461 66.6955 7.94564 66.7754 7.48042C66.8553 7.0152 67.0448 6.61344 67.3439 6.27513C67.7804 5.77888 68.3568 5.50439 69.073 5.45163C69.3011 5.43449 69.5247 5.44415 69.7436 5.4806C70.0436 5.53054 70.3909 5.63909 70.7856 5.80624C70.9052 5.85703 71.0049 5.90562 71.0848 5.95199C71.1669 5.99873 71.2177 6.02374 71.2374 6.02702L71.3404 6.0177L71.4422 6.03465C71.4685 6.03903 71.4785 6.05944 71.4722 6.09588L71.3004 7.09599C71.2967 7.11743 71.2752 7.12487 71.2358 7.1183C71.1964 7.11174 71.1741 7.10363 71.169 7.09396C71.1643 7.08214 71.1598 7.06926 71.1554 7.0553C71.1514 7.0392 71.1463 7.02292 71.1401 7.00645C71.1362 6.99035 71.1309 6.97514 71.1243 6.96082C71.12 6.94687 71.1173 6.93649 71.1162 6.92969C70.8986 6.22971 70.4559 5.82413 69.7882 5.71294C69.1861 5.61269 68.6831 5.7219 68.2793 6.04057C67.8756 6.35924 67.6204 6.82836 67.514 7.44794C67.408 8.06537 67.5029 8.62696 67.7989 9.13271C68.097 9.63882 68.5669 9.94528 69.2084 10.0521C69.5587 10.1104 69.8947 10.0616 70.2165 9.90572C70.5405 9.75017 70.81 9.53814 71.025 9.26963C71.0316 9.2575 71.0458 9.25325 71.0677 9.2569L71.1104 9.26401C71.1323 9.26765 71.1411 9.28234 71.1366 9.30807C71.1322 9.33379 71.1214 9.35735 71.1042 9.37875L70.4831 10.2809Z" fill="#3A683D"/>
<path d="M70.7684 10.4459L70.7918 10.3575C70.7963 10.3407 70.8071 10.3345 70.8242 10.3389L70.8947 10.357C70.9862 10.3738 71.079 10.3942 71.1731 10.4184C71.2678 10.4405 71.3564 10.4509 71.439 10.4497C71.6277 10.4442 71.7489 10.3405 71.8024 10.1386L72.6843 6.81235C72.7395 6.60407 72.6495 6.43937 72.4144 6.31826C72.3477 6.2854 72.2794 6.25436 72.2095 6.22515L72.1421 6.20784C72.125 6.20344 72.1187 6.19283 72.1231 6.176L72.1432 6.10026C72.1477 6.08343 72.1585 6.07721 72.1756 6.08161L75.2263 6.86565C75.2648 6.87555 75.2907 6.89006 75.3039 6.90918C75.3177 6.9262 75.3205 6.9584 75.3126 7.00579L75.1277 7.93581C75.1221 7.95685 75.1033 7.96325 75.0712 7.955C75.0391 7.94676 75.0181 7.93124 75.0081 7.90846C75.0009 7.88413 75.0041 7.80294 75.0179 7.6649C75.0338 7.52741 75.0267 7.40761 74.9967 7.30551C74.9666 7.2034 74.8873 7.12347 74.7587 7.0657L73.421 6.7219C73.3932 6.71476 73.3757 6.72486 73.3684 6.75221L72.9358 8.38376C72.9303 8.4048 72.9382 8.41807 72.9596 8.42357L74.0695 8.70882C74.3561 8.78247 74.5429 8.6552 74.6299 8.32699C74.6344 8.31016 74.6451 8.30395 74.6623 8.30834L74.7392 8.32813C74.7564 8.33253 74.7627 8.34314 74.7582 8.35997L74.4001 9.71066C74.3957 9.72749 74.3849 9.7337 74.3678 9.72931L74.2908 9.70952C74.2737 9.70512 74.2673 9.69451 74.2718 9.67768C74.3544 9.36631 74.3101 9.16279 74.139 9.06713C74.091 9.04132 74.0381 9.02099 73.9804 9.00615L72.8801 8.72337C72.8587 8.71787 72.8452 8.72564 72.8396 8.74668L72.4322 10.2836C72.3903 10.4413 72.4404 10.5497 72.5824 10.6087C72.6235 10.626 72.6676 10.6407 72.7146 10.6528L73.7829 10.9273C74.0031 10.9839 74.1996 10.9322 74.3723 10.7721C74.4962 10.6578 74.5912 10.5148 74.6573 10.3431C74.6794 10.2858 74.7193 10.2646 74.777 10.2794C74.8027 10.286 74.8119 10.303 74.8046 10.3304L74.4176 11.3635C74.397 11.3897 74.3781 11.4005 74.361 11.3961L70.7874 10.4777C70.7702 10.4733 70.7639 10.4627 70.7684 10.4459Z" fill="#3A683D"/>
<path d="M74.8136 11.5199C74.797 11.5141 74.796 11.4907 74.8107 11.4497L74.824 11.4128C74.8298 11.3964 74.8411 11.3911 74.8578 11.3969C74.8703 11.4012 74.8908 11.4061 74.9194 11.4114C74.9479 11.4167 74.9776 11.4224 75.0082 11.4285C75.0388 11.4345 75.0674 11.4399 75.0939 11.4445C75.1211 11.447 75.1403 11.4491 75.1514 11.4506C75.3809 11.4775 75.5299 11.3956 75.5983 11.2049L76.7644 7.95751C76.8277 7.7812 76.8007 7.63112 76.6834 7.50727C76.6142 7.43243 76.5306 7.37797 76.4327 7.34388L76.3139 7.30253C76.2972 7.29673 76.2918 7.28563 76.2977 7.26923L76.3242 7.19542C76.3301 7.17902 76.3455 7.17517 76.3706 7.18388L78.1031 7.73505L78.4188 7.84493C78.7788 7.99792 79.0397 8.23749 79.2016 8.56367C79.3662 8.88852 79.3856 9.22623 79.2598 9.5768C79.1346 9.92532 78.8891 10.1455 78.5233 10.2372C78.4103 10.2648 78.2921 10.2836 78.1689 10.2938L78.5694 12.1457C78.6384 12.4695 78.7919 12.7339 79.03 12.9391C79.0507 12.9532 79.057 12.9715 79.0489 12.9941C79.0305 13.0453 78.987 13.059 78.9182 13.0351C78.4493 12.8719 78.1393 12.5667 77.988 12.1197C77.9556 12.0208 77.9264 11.9126 77.9006 11.7952L77.5393 10.2649L76.8076 9.97215L76.7826 9.96344C76.7513 9.95256 76.7305 9.96147 76.7202 9.99017L76.2112 11.4078C76.1707 11.5206 76.1728 11.6159 76.2175 11.6937C76.2622 11.7716 76.3601 11.8483 76.5111 11.9239C76.5506 11.9446 76.5983 11.9716 76.6543 12.0049C76.7111 12.0362 76.7499 12.0555 76.7707 12.0627C76.7936 12.0707 76.8022 12.0829 76.7963 12.0993L76.7698 12.1731C76.7639 12.1895 76.7526 12.1948 76.7359 12.189L74.8136 11.5199ZM77.7883 7.80882C77.7633 7.80011 77.7358 7.79171 77.7059 7.78361C77.6788 7.77418 77.643 7.76287 77.5985 7.74969C77.5548 7.73446 77.527 7.74324 77.5152 7.77605L76.8461 9.6396L76.8192 9.73404C76.81 9.77926 76.8217 9.80871 76.8543 9.82236L77.1665 9.95178C77.7521 10.1556 78.1789 10.0735 78.447 9.70557C78.5329 9.5902 78.6057 9.44948 78.6654 9.28342C78.7817 8.9595 78.7702 8.66836 78.6309 8.40999C78.4936 8.15235 78.2656 7.96804 77.9468 7.85707C77.9176 7.84691 77.8902 7.83851 77.8644 7.83185C77.8394 7.82315 77.814 7.81547 77.7883 7.80882Z" fill="#3A683D"/>
<path d="M80.1341 13.392C80.1414 13.3761 80.1541 13.3722 80.1723 13.3803L80.2568 13.4181C80.454 13.5063 80.6311 13.5353 80.7882 13.5052C80.9473 13.476 81.0524 13.406 81.1036 13.2951L82.6196 10.0071C82.6388 9.96553 82.6402 9.93871 82.6239 9.92665C82.6106 9.91352 82.5927 9.89957 82.5704 9.88482L81.4112 9.36672C81.2058 9.32267 81.0178 9.40938 80.8471 9.62685C80.7547 9.74315 80.6968 9.81876 80.6734 9.85368C80.6509 9.88662 80.6316 9.8995 80.6155 9.8923L80.5612 9.86802C80.5491 9.86262 80.5449 9.85596 80.5485 9.84804L80.5937 9.75003L81.1327 8.87326C81.1731 8.81727 81.2074 8.79557 81.2355 8.80817C81.2637 8.82076 81.2848 8.85405 81.2987 8.90805C81.3136 8.96006 81.3663 9.0063 81.4568 9.04678L84.7109 10.5012C84.7974 10.5399 84.8543 10.5534 84.8816 10.5417C84.9088 10.53 84.9346 10.5188 84.9589 10.5082C84.9841 10.4956 85.0088 10.4947 85.033 10.5055C85.0591 10.5172 85.0707 10.5343 85.0676 10.5568C85.0665 10.5802 85.0629 10.6036 85.0569 10.6272L84.7413 11.6038L84.6961 11.7018C84.6925 11.7098 84.6846 11.711 84.6725 11.7056L84.6182 11.6813C84.6021 11.6741 84.5979 11.6544 84.6055 11.622C84.6646 11.4095 84.6905 11.2324 84.6831 11.0906C84.6766 10.9468 84.6143 10.8318 84.4963 10.7456L83.3341 10.2262C83.3081 10.2193 83.2847 10.2148 83.2639 10.2127C83.2459 10.2094 83.2274 10.2286 83.2082 10.2702L81.6922 13.5582C81.6411 13.669 81.6557 13.7926 81.7361 13.9288C81.8185 14.066 81.9583 14.1786 82.1555 14.2668L82.243 14.3059C82.2591 14.3131 82.2635 14.3246 82.2562 14.3404L82.2234 14.4117C82.2161 14.4276 82.2044 14.4319 82.1883 14.4247L80.1145 13.4978C80.0984 13.4906 80.094 13.4791 80.1013 13.4632L80.1341 13.392Z" fill="#3A683D"/>
<path d="M85.2624 11.4184C85.3863 11.1877 85.3128 11.0018 85.0419 10.8609C84.9987 10.8384 84.9813 10.8195 84.9895 10.8041L85.0267 10.7349C85.035 10.7195 85.0469 10.7159 85.0626 10.7241L86.5376 11.4917C86.5533 11.4999 86.557 11.5116 86.5488 11.527L86.5116 11.5962C86.5034 11.6116 86.4561 11.5968 86.3697 11.5519C86.2833 11.507 86.1894 11.4925 86.0879 11.5085C85.9864 11.5246 85.8907 11.6162 85.8009 11.7835L84.1488 14.8606C84.0249 15.0913 84.0994 15.2777 84.3722 15.4197C84.4134 15.4411 84.4299 15.4595 84.4217 15.4749L84.3845 15.5441C84.3763 15.5595 84.3643 15.5631 84.3486 15.5549L82.8736 14.7873C82.8579 14.7791 82.8542 14.7673 82.8624 14.752L82.8996 14.6827C82.9078 14.6674 82.9552 14.6821 83.0415 14.7271C83.1279 14.772 83.2218 14.7865 83.3233 14.7705C83.4249 14.7544 83.5205 14.6628 83.6103 14.4955L85.2624 11.4184Z" fill="#3A683D"/>
<path d="M88.1668 14.7163C88.4199 14.8676 88.6215 14.8215 88.7717 14.578C88.7809 14.5631 88.793 14.5602 88.8081 14.5692L88.8761 14.6099C88.8912 14.6189 88.8942 14.6308 88.885 14.6457L88.2454 15.6831C88.2362 15.6979 88.2241 15.7008 88.209 15.6918L88.141 15.6512C88.1259 15.6421 88.1229 15.6302 88.1321 15.6153C88.2375 15.4443 88.2612 15.2969 88.2031 15.1731C88.172 15.1062 88.1073 15.0433 88.0091 14.9846L86.8927 14.3173C86.8473 14.2902 86.8092 14.3018 86.7783 14.352L85.8945 15.7853C85.8165 15.9117 85.8351 16.0513 85.9503 16.2041C86.0685 16.3562 86.1475 16.4441 86.1871 16.4678C86.2287 16.4926 86.2449 16.5125 86.2357 16.5273L86.1944 16.5943C86.1853 16.6091 86.1731 16.6121 86.158 16.603L84.6109 15.6783C84.5958 15.6693 84.5928 15.6573 84.602 15.6424L84.6433 15.5755C84.6525 15.5606 84.6731 15.5628 84.7052 15.582C84.7373 15.6012 84.7966 15.6162 84.8829 15.6271C84.9692 15.638 85.0557 15.6299 85.1422 15.6028C85.2318 15.5749 85.3024 15.5191 85.354 15.4355L87.211 12.4239C87.2855 12.303 87.2736 12.1776 87.1754 12.0477C87.1193 11.9709 87.0544 11.9105 86.9808 11.8665L86.9694 11.8597C86.9543 11.8507 86.9513 11.8387 86.9605 11.8238L87.0018 11.7569C87.0109 11.742 87.0231 11.7391 87.0382 11.7482L89.7102 13.3453C89.7306 13.3625 89.7441 13.3783 89.7509 13.3925C89.7588 13.4048 89.7547 13.424 89.7386 13.4501L89.3225 14.1249C89.3088 14.1472 89.2964 14.1589 89.2854 14.1599C89.2763 14.1621 89.2632 14.1581 89.2462 14.148L89.2122 14.1277C89.2096 14.1235 89.2273 14.0654 89.2654 13.9534C89.3065 13.8406 89.3211 13.7436 89.309 13.6626C89.282 13.5345 89.2222 13.4365 89.1297 13.3685C89.0923 13.3411 89.0453 13.3104 88.9886 13.2765L87.9147 12.6346C87.877 12.6121 87.8466 12.6194 87.8237 12.6565L87.0276 13.9476C87.0012 13.9904 87.0107 14.0253 87.056 14.0524L88.1668 14.7163Z" fill="#3A683D"/>
<path d="M90.7869 14.6996C90.9376 14.4849 90.8875 14.2922 90.6366 14.1215C90.5966 14.0943 90.5816 14.0735 90.5917 14.0592L90.6369 13.9948C90.6469 13.9805 90.6592 13.9783 90.6738 13.9882L92.0399 14.9176C92.0545 14.9275 92.0567 14.9396 92.0467 14.9539L92.0015 15.0183C91.9914 15.0327 91.9464 15.0126 91.8664 14.9582C91.7864 14.9038 91.6952 14.8787 91.5928 14.8831C91.4904 14.8874 91.3845 14.9674 91.2753 15.1231L89.2654 17.9868C89.1147 18.2015 89.1657 18.3948 89.4184 18.5668C89.4566 18.5927 89.4706 18.6129 89.4606 18.6272L89.4154 18.6916C89.4053 18.7059 89.3931 18.7081 89.3785 18.6982L88.0123 17.7688C87.9978 17.7589 87.9955 17.7468 88.0056 17.7325L88.0508 17.668C88.0608 17.6537 88.1059 17.6738 88.1858 17.7282C88.2658 17.7826 88.357 17.8077 88.4595 17.8033C88.5619 17.799 88.6677 17.719 88.777 17.5633L90.7869 14.6996Z" fill="#3A683D"/>
<path d="M89.4066 18.6504L89.4638 18.5785C89.4747 18.5648 89.4871 18.5633 89.501 18.574L89.5585 18.6182C89.6356 18.6694 89.7125 18.7245 89.7891 18.7834C89.867 18.8407 89.9441 18.8849 90.0204 18.916C90.1958 18.9848 90.3488 18.937 90.4795 18.7725L92.6314 16.064C92.7661 15.8944 92.7501 15.7081 92.5832 15.505C92.5353 15.4488 92.4851 15.3936 92.4328 15.3395L92.378 15.2972C92.364 15.2865 92.3625 15.2743 92.3734 15.2606L92.4224 15.1989C92.4333 15.1852 92.4457 15.1837 92.4596 15.1944L94.9423 17.1065C94.9736 17.1306 94.9915 17.1541 94.9959 17.1768C95.0017 17.1978 94.9913 17.2285 94.9648 17.2688L94.4198 18.0502C94.4061 18.0674 94.3863 18.0659 94.3602 18.0458C94.3341 18.0257 94.3211 18.0032 94.3211 17.9784C94.3243 17.9533 94.36 17.88 94.4284 17.7587C94.4985 17.6387 94.5403 17.5259 94.554 17.4205C94.5677 17.315 94.5272 17.2106 94.4325 17.1074L93.3438 16.2689C93.3212 16.2515 93.3011 16.2539 93.2834 16.2762L92.2278 17.6048C92.2142 17.6219 92.2161 17.6372 92.2335 17.6506L93.1368 18.3462C93.37 18.5258 93.5928 18.482 93.8051 18.2148C93.816 18.2011 93.8284 18.1996 93.8423 18.2103L93.905 18.2585C93.9189 18.2693 93.9204 18.2815 93.9095 18.2952L93.0357 19.395C93.0248 19.4087 93.0124 19.4102 92.9985 19.3995L92.9358 19.3513C92.9219 19.3405 92.9204 19.3283 92.9313 19.3146C93.1327 19.0611 93.1743 18.857 93.0559 18.7023C93.0223 18.6598 92.982 18.6205 92.935 18.5843L92.0396 17.8947C92.0222 17.8813 92.0067 17.8831 91.993 17.9003L90.9988 19.1517C90.8967 19.2802 90.8989 19.3993 91.0053 19.5089C91.0361 19.5408 91.0706 19.5716 91.1089 19.601L91.9782 20.2706C92.1575 20.4086 92.3586 20.4379 92.5817 20.3584C92.7415 20.302 92.8864 20.2079 93.0164 20.0761C93.0598 20.0321 93.1049 20.0282 93.1519 20.0644C93.1728 20.0805 93.1744 20.0997 93.1567 20.122L92.3846 20.919C92.3551 20.935 92.3334 20.9376 92.3194 20.9269L89.4112 18.6871C89.3973 18.6763 89.3958 18.6641 89.4066 18.6504Z" fill="#3A683D"/>
<path d="M95.8949 17.8641C95.907 17.8515 95.9195 17.8512 95.9324 17.8632L95.9856 17.9128L96.7778 18.6194C96.8743 18.7034 96.9774 18.7964 97.087 18.8986L97.3893 19.1802C97.6698 19.4416 97.8703 19.6479 97.9908 19.7991C98.1129 19.9518 98.228 20.1055 98.3361 20.2601C98.4473 20.4146 98.5324 20.6122 98.5914 20.8529C98.652 21.095 98.6719 21.3382 98.6512 21.5823C98.6043 22.1017 98.4153 22.5335 98.0842 22.878C97.7532 23.2224 97.3644 23.4456 96.9179 23.5477C96.2724 23.6979 95.6405 23.6003 95.0222 23.2548C94.8262 23.144 94.6443 23.0105 94.4767 22.8543L92.7138 21.2118C92.7009 21.1998 92.7006 21.1875 92.7127 21.1748L92.7765 21.1085C92.7887 21.0958 92.8012 21.0955 92.8141 21.1075L92.8673 21.1571C93.1607 21.4305 93.3954 21.4755 93.5716 21.2923L96.0681 18.6949C96.1532 18.6064 96.1823 18.5078 96.1555 18.399C96.1302 18.2885 96.074 18.1928 95.987 18.1117L95.8322 17.9675C95.8193 17.9555 95.8189 17.9431 95.8311 17.9305L95.8949 17.8641ZM96.8712 18.9086C96.8309 18.871 96.7902 18.8736 96.7492 18.9162L93.9634 21.8146C93.851 21.9315 93.9046 22.0967 94.1241 22.3102C94.1887 22.3734 94.2573 22.4388 94.3298 22.5064C94.8441 22.9855 95.3838 23.2204 95.949 23.2109C96.5159 23.203 97.0248 22.9644 97.4758 22.4952C97.9283 22.0244 98.1604 21.5144 98.1719 20.9651C98.1865 20.4157 97.9722 19.9345 97.5289 19.5214L96.8712 18.9086Z" fill="#3A683D"/>
<path fill-rule="evenodd" clip-rule="evenodd" d="M93.2807 104.244C92.9636 104.243 92.6464 104.243 92.3292 104.244L92.3283 104.244C92.0077 104.244 91.687 104.246 91.3662 104.248L91.3629 103.877C91.6846 103.875 92.0062 103.873 92.3278 103.873C92.6461 103.872 92.9645 103.872 93.2827 103.873L93.2807 104.244ZM96.3247 104.31C95.6909 104.286 95.0568 104.269 94.4225 104.257L94.4292 103.886C95.0661 103.898 95.7028 103.915 96.3392 103.939L96.3247 104.31ZM90.2116 104.264C89.5706 104.276 88.9293 104.293 88.2878 104.315L88.2748 103.944C88.9182 103.922 89.5615 103.905 90.2046 103.893L90.2116 104.264ZM87.1339 104.359C86.4932 104.386 85.8524 104.419 85.2115 104.455L85.1897 104.085C85.8323 104.048 86.4749 104.016 87.1174 103.988L87.1339 104.359ZM99.3647 104.475C98.732 104.431 98.0988 104.392 97.4653 104.361L97.4846 103.99C98.1207 104.022 98.7565 104.06 99.3917 104.105L99.3647 104.475ZM84.0587 104.525C83.4186 104.567 82.7785 104.612 82.1385 104.662L82.109 104.292C82.7505 104.242 83.3922 104.196 84.0339 104.155L84.0587 104.525ZM102.397 104.74C101.767 104.675 101.135 104.616 100.503 104.563L100.535 104.193C101.169 104.246 101.804 104.305 102.437 104.371L102.397 104.74ZM80.9872 104.754C80.3478 104.808 79.7086 104.866 79.0696 104.926L79.0334 104.557C79.6737 104.496 80.3143 104.439 80.955 104.385L80.9872 104.754ZM105.42 105.104C104.791 105.018 104.162 104.938 103.532 104.865L103.576 104.496C104.209 104.57 104.841 104.65 105.472 104.736L105.42 105.104ZM77.9199 105.039C77.2813 105.103 76.6431 105.171 76.0051 105.241L75.9631 104.872C76.6021 104.802 77.2416 104.734 77.8814 104.67L77.9199 105.039ZM107.489 105.411C107.176 105.361 106.863 105.312 106.549 105.265L106.606 104.899C106.921 104.946 107.236 104.994 107.55 105.045L107.551 105.045C107.828 105.091 108.104 105.139 108.379 105.19L108.31 105.554C108.037 105.504 107.763 105.456 107.489 105.411ZM74.8571 105.371C74.2193 105.444 73.5819 105.52 72.945 105.599L72.8982 105.23C73.536 105.152 74.1743 105.076 74.8132 105.002L74.8571 105.371ZM71.7985 105.742C71.1614 105.823 70.5248 105.906 69.8889 105.991L69.8381 105.624C70.4748 105.539 71.1121 105.455 71.7501 105.374L71.7985 105.742ZM110.92 106.11C110.38 105.979 109.837 105.858 109.293 105.746L109.37 105.382C109.919 105.495 110.466 105.618 111.011 105.75L110.92 106.11ZM68.7437 106.146C68.1071 106.233 67.4712 106.322 66.8361 106.412L66.7824 106.044C67.418 105.954 68.0545 105.866 68.6917 105.779L68.7437 106.146ZM113.494 106.812C112.962 106.651 112.427 106.499 111.89 106.357L111.988 105.998C112.53 106.142 113.069 106.295 113.605 106.457L113.494 106.812ZM65.692 106.575C65.0557 106.667 64.4203 106.759 63.7859 106.852L63.7301 106.485C64.3649 106.392 65.0006 106.299 65.6374 106.208L65.692 106.575ZM62.6424 107.021C62.0062 107.116 61.3711 107.211 60.7371 107.306L60.6802 106.939C61.3143 106.844 61.9497 106.749 62.5861 106.655L62.6424 107.021ZM116.022 107.657C115.501 107.466 114.976 107.285 114.448 107.112L114.567 106.76C115.099 106.934 115.628 107.117 116.154 107.309L116.022 107.657ZM59.5939 107.478L57.6696 107.768L57.6125 107.401L59.5368 107.111L59.5939 107.478ZM56.5032 107.943C55.8565 108.04 55.2083 108.137 54.5588 108.234L54.5026 107.867C55.1518 107.77 55.7998 107.673 56.4463 107.576L56.5032 107.943ZM117.731 108.32C117.474 108.214 117.216 108.111 116.957 108.01L117.097 107.665C117.357 107.767 117.617 107.871 117.876 107.977L117.731 108.32ZM53.3918 108.406C52.7442 108.501 52.0955 108.595 51.4459 108.689L51.3915 108.321C52.0406 108.228 52.6889 108.134 53.3361 108.039L53.3918 108.406ZM50.2778 108.855C49.6292 108.946 48.9798 109.036 48.3298 109.125L48.2781 108.757C48.9274 108.669 49.5762 108.579 50.2243 108.488L50.2778 108.855ZM47.1602 109.282C46.5103 109.368 45.86 109.453 45.2094 109.535L45.1615 109.167C45.8111 109.085 46.4606 109 47.1098 108.914L47.1602 109.282ZM44.038 109.68C43.3867 109.759 42.7353 109.836 42.084 109.909L42.0408 109.541C42.691 109.467 43.3414 109.391 43.9917 109.311L44.038 109.68ZM40.9106 110.039C40.2577 110.11 39.6051 110.177 38.953 110.241L38.9157 109.872C39.5664 109.808 40.2178 109.741 40.8695 109.67L40.9106 110.039ZM37.7774 110.352C37.123 110.412 36.4691 110.468 35.8162 110.52L35.7858 110.15C36.4372 110.098 37.0895 110.042 37.7425 109.983L37.7774 110.352ZM34.6384 110.609C34.3108 110.632 33.9835 110.655 33.6565 110.676C33.4551 110.689 33.2528 110.7 33.0502 110.709L33.0331 110.339C33.2331 110.33 33.4327 110.319 33.6315 110.306C33.9577 110.285 34.2842 110.262 34.611 110.239L34.6384 110.609ZM32.322 110.733C32.1191 110.737 31.9165 110.739 31.7148 110.739V110.368C31.9139 110.368 32.1139 110.366 32.3142 110.362L32.322 110.733Z" fill="#FAFAF4"/>
<path fill-rule="evenodd" clip-rule="evenodd" d="M93.3147 84.5049C92.9875 84.5027 92.6602 84.5022 92.333 84.5035L92.3322 84.5035C92.0182 84.5035 91.704 84.5049 91.3896 84.5077L91.3863 84.1366C91.7016 84.1339 92.0168 84.1325 92.3318 84.1325C92.6603 84.1311 92.9888 84.1316 93.3173 84.1338L93.3147 84.5049ZM96.4551 84.5809C95.8012 84.5537 95.147 84.5336 94.4926 84.5206L94.5002 84.1496C95.1574 84.1626 95.8144 84.1828 96.471 84.2101L96.4551 84.5809ZM90.2584 84.5233C89.6309 84.5351 89.0026 84.5521 88.3736 84.5739L88.3603 84.2031C88.9913 84.1812 89.6216 84.1641 90.2512 84.1523L90.2584 84.5233ZM87.243 84.6183C86.6158 84.6457 85.988 84.6777 85.3597 84.714L85.3375 84.3436C85.9676 84.3071 86.5972 84.275 87.2263 84.2475L87.243 84.6183ZM99.5908 84.7659C98.9383 84.716 98.2852 84.6732 97.6317 84.6375L97.6527 84.267C98.3089 84.3028 98.9647 84.3458 99.62 84.3959L99.5908 84.7659ZM84.2302 84.7838C83.6035 84.825 82.9764 84.8702 82.349 84.9193L82.3191 84.5494C82.948 84.5002 83.5767 84.4548 84.205 84.4135L84.2302 84.7838ZM102.718 85.0597C102.068 84.9872 101.416 84.9217 100.765 84.8633L100.799 84.4938C101.453 84.5524 102.107 84.6181 102.76 84.691L102.718 85.0597ZM81.221 85.0113C80.595 85.0646 79.9687 85.1214 79.3424 85.1814L79.3058 84.8121C79.9334 84.752 80.561 84.695 81.1885 84.6416L81.221 85.0113ZM104.86 85.3245C104.536 85.2805 104.212 85.2383 103.888 85.1978L103.935 84.8297C104.261 84.8704 104.587 84.9128 104.912 84.957L104.914 84.9572C105.216 85.0005 105.518 85.0462 105.819 85.0944L105.759 85.4607C105.46 85.4129 105.16 85.3675 104.86 85.3245ZM78.216 85.2928C77.5906 85.3564 76.9653 85.4231 76.34 85.4925L76.2977 85.1238C76.9241 85.0543 77.5506 84.9875 78.1771 84.9237L78.216 85.2928ZM75.2152 85.6202C74.5906 85.6927 73.9661 85.7677 73.3419 85.8449L73.2948 85.4768C73.9199 85.3995 74.5454 85.3243 75.171 85.2517L75.2152 85.6202ZM108.619 85.9951C108.027 85.8683 107.432 85.7511 106.835 85.6436L106.903 85.2786C107.504 85.3868 108.103 85.5048 108.7 85.6326L108.619 85.9951ZM72.2186 85.9862C71.5946 86.066 70.9709 86.1477 70.3476 86.2312L70.2967 85.8635C70.9207 85.78 71.5451 85.6981 72.17 85.6182L72.2186 85.9862ZM111.447 86.6784C110.862 86.5207 110.274 86.3726 109.684 86.234L109.772 85.8731C110.366 86.0126 110.958 86.1618 111.547 86.3206L111.447 86.6784ZM69.2256 86.3833C68.602 86.4689 67.979 86.5559 67.3566 86.6441L67.3028 86.2769C67.9257 86.1885 68.5493 86.1014 69.1735 86.0158L69.2256 86.3833ZM66.2356 86.8044C65.6123 86.8942 64.9897 86.985 64.368 87.0766L64.3121 86.7096C64.9342 86.618 65.5572 86.5271 66.1809 86.4372L66.2356 86.8044ZM114.234 87.5086C113.658 87.3205 113.079 87.1418 112.497 86.9727L112.604 86.6168C113.19 86.7871 113.773 86.967 114.353 87.1564L114.234 87.5086ZM63.2476 87.2423C62.6244 87.3349 62.0021 87.428 61.3808 87.5213L61.3238 87.1545C61.9452 87.0612 62.5678 86.968 63.1912 86.8754L63.2476 87.2423ZM60.2606 87.6899L58.3747 87.9741L58.3176 87.6073L60.2035 87.3231L60.2606 87.6899ZM116.972 88.4833C116.407 88.2653 115.839 88.0566 115.267 87.8573L115.393 87.5075C115.969 87.7082 116.541 87.9183 117.11 88.1378L116.972 88.4833ZM57.2314 88.1461C56.5972 88.2413 55.9619 88.3364 55.3255 88.4309L55.2691 88.064C55.9053 87.9695 56.5404 87.8745 57.1744 87.7793L57.2314 88.1461ZM54.1815 88.6C53.5467 88.6934 52.9109 88.7861 52.2742 88.8777L52.2196 88.5105C52.8558 88.419 53.4912 88.3264 54.1257 88.2331L54.1815 88.6ZM4.73178 88.9063C4.41309 88.832 4.09478 88.7558 3.77686 88.6779L3.86807 88.3178C4.18461 88.3954 4.50155 88.4712 4.81885 88.5453L4.73178 88.9063ZM119.653 89.5996C119.101 89.3524 118.545 89.1143 117.985 88.8855L118.129 88.5428C118.693 88.7732 119.253 89.0129 119.81 89.2619L119.653 89.5996ZM51.1292 89.0412C50.4936 89.1311 49.8571 89.2199 49.2198 89.307L49.1679 88.9395C49.8045 88.8524 50.4404 88.7638 51.0755 88.6739L51.1292 89.0412ZM7.80408 89.5657C7.16172 89.4398 6.52066 89.3067 5.88103 89.1664L5.96312 88.8042C6.59998 88.9439 7.23825 89.0764 7.87783 89.2018L7.80408 89.5657ZM48.0734 89.462C47.4368 89.547 46.7995 89.6303 46.1615 89.7115L46.1131 89.3435C46.7502 89.2624 47.3868 89.1793 48.0227 89.0943L48.0734 89.462ZM10.8986 90.1155C10.252 90.0124 9.60646 89.9022 8.96215 89.7848L9.03088 89.4199C9.67239 89.5368 10.3151 89.6466 10.959 89.7492L10.8986 90.1155ZM45.0134 89.8553C44.3757 89.9338 43.7373 90.01 43.0985 90.0837L43.0545 89.7152C43.6923 89.6416 44.3297 89.5655 44.9666 89.4871L45.0134 89.8553ZM121.46 90.4478C121.189 90.3143 120.916 90.1831 120.643 90.0542L120.806 89.7196C121.081 89.8494 121.356 89.9815 121.629 90.1159L121.46 90.4478ZM41.9485 90.2135C41.3095 90.2839 40.67 90.3516 40.0302 90.4162L39.9917 90.047C40.6303 89.9826 41.2686 89.915 41.9065 89.8447L41.9485 90.2135ZM14.0113 90.5548C13.3613 90.4748 12.7121 90.3876 12.064 90.2932L12.1193 89.9261C12.7646 90.0201 13.4109 90.107 14.0582 90.1866L14.0113 90.5548ZM38.8783 90.529C38.238 90.5898 37.5974 90.6473 36.9566 90.7012L36.9245 90.3315C37.5638 90.2777 38.203 90.2203 38.842 90.1597L38.8783 90.529ZM17.1382 90.8832C16.4855 90.8263 15.8336 90.7623 15.1825 90.691L15.2242 90.3222C15.8725 90.3932 16.5216 90.457 17.1714 90.5135L17.1382 90.8832ZM35.8026 90.7943C35.1612 90.8438 34.5195 90.8895 33.8778 90.931L33.853 90.5608C34.4931 90.5193 35.1332 90.4737 35.7731 90.4243L35.8026 90.7943ZM20.275 91.1001C19.6207 91.0665 18.9668 91.0257 18.3135 90.9776L18.3417 90.6076C18.9921 90.6555 19.6432 90.6961 20.2947 90.7296L20.275 91.1001ZM32.7219 91.0014C32.0794 91.0379 31.4368 91.0702 30.7943 91.0977L30.7778 90.727C31.4185 90.6995 32.0593 90.6674 32.7002 90.6309L32.7219 91.0014ZM29.6369 91.1423C28.9935 91.1642 28.3502 91.1812 27.7071 91.1931L27.7001 90.8221C28.3411 90.8103 28.9824 90.7933 29.6239 90.7714L29.6369 91.1423ZM23.4178 91.2054C22.7626 91.1951 22.1076 91.1775 21.4531 91.1527L21.4677 90.7819C22.1193 90.8066 22.7714 90.8241 23.4238 90.8344L23.4178 91.2054ZM26.5488 91.2087C26.227 91.2115 25.9052 91.2129 25.5834 91.2129H25.5818V90.8418H25.5834C25.904 90.8418 26.2247 90.8404 26.5455 90.8377L26.5488 91.2087ZM25.5764 90.8418L25.5781 90.8418L25.5798 90.8418V91.2108L25.5798 91.2129C25.5798 91.2129 25.5798 91.2129 25.5798 91.2129C25.5795 91.2129 25.5793 91.2129 25.579 91.2129M25.579 91.2129C25.2516 91.2158 24.9243 91.2168 24.597 91.216L24.598 90.845C24.9241 90.8457 25.2502 90.8447 25.5764 90.8418" fill="#FAFAF4"/>
<path d="M28.4763 98.1511C28.4563 98.1519 28.426 98.1166 28.3854 98.045C28.385 98.0366 28.4349 97.9977 28.535 97.9284C28.6349 97.8562 28.8319 97.6796 29.126 97.3985C29.4201 97.1174 29.6619 96.8541 29.8515 96.6087L30.0919 96.598C30.1292 96.5963 30.1523 96.601 30.1614 96.6118C30.1705 96.6227 30.1758 96.6437 30.1772 96.6746L30.4131 101.828C30.4212 102.005 30.4444 102.104 30.4827 102.125C30.6267 102.201 30.9134 102.229 31.3428 102.21C31.3657 102.209 31.3777 102.219 31.3787 102.242L31.3833 102.343C31.3844 102.366 31.3734 102.378 31.3505 102.379L28.7655 102.493C28.7426 102.494 28.7306 102.484 28.7296 102.461L28.7249 102.36C28.7239 102.337 28.7348 102.325 28.7577 102.324C28.9005 102.31 29.0248 102.298 29.1306 102.291C29.2362 102.281 29.3475 102.267 29.4643 102.251C29.5812 102.234 29.6619 102.212 29.7066 102.185C29.7541 102.157 29.781 102.118 29.7873 102.067C29.7935 102.016 29.7948 101.95 29.791 101.868L29.5851 97.3696C29.5877 97.3639 29.5572 97.3878 29.4937 97.4414C29.135 97.7508 28.8044 97.9855 28.5019 98.1457L28.4763 98.1511Z" fill="#FAFAF4"/>
<path d="M33.4102 99.3367C33.3511 98.6429 33.4924 97.9722 33.8341 97.3245C34.1756 96.674 34.5876 96.3289 35.0702 96.289C35.45 96.2577 35.802 96.3729 36.1262 96.6346C36.4531 96.8933 36.7132 97.2467 36.9067 97.6946C37.1001 98.1425 37.2182 98.6179 37.261 99.1207C37.3263 99.8875 37.2079 100.573 36.9056 101.178C36.7069 101.579 36.447 101.871 36.1261 102.053C35.9612 102.143 35.7874 102.195 35.6046 102.211C35.2591 102.239 34.9261 102.128 34.6057 101.877C34.285 101.624 34.0187 101.299 33.8067 100.904C33.5974 100.505 33.4763 100.113 33.4435 99.7286L33.4102 99.3367ZM35.5963 101.961C36.3959 101.895 36.7262 101.046 36.5872 99.4139C36.5291 98.7314 36.4757 98.2733 36.427 98.0397C36.325 97.5503 36.1801 97.1832 35.9925 96.9384C35.7601 96.6408 35.4512 96.5079 35.0657 96.5397C34.3403 96.5996 34.009 97.3525 34.0718 98.7984C34.0809 99.007 34.0979 99.2573 34.1228 99.5495C34.1881 100.316 34.3229 100.903 34.5272 101.311C34.7659 101.783 35.1222 102 35.5963 101.961Z" fill="#FAFAF4"/>
<path d="M38.706 98.8893C38.6268 98.1974 38.7486 97.523 39.0713 96.8659C39.3937 96.2061 39.7955 95.8494 40.2767 95.796C40.6555 95.754 41.0107 95.8592 41.3424 96.1117C41.6766 96.3611 41.947 96.707 42.1533 97.1493C42.3597 97.5916 42.4916 98.0634 42.549 98.5648C42.6366 99.3295 42.5381 100.018 42.2536 100.631C42.0666 101.038 41.8153 101.337 41.4998 101.528C41.3376 101.622 41.1654 101.68 40.9831 101.7C40.6385 101.738 40.3025 101.637 39.9749 101.395C39.647 101.151 39.3713 100.834 39.148 100.444C38.9271 100.052 38.7947 99.6638 38.7508 99.28L38.706 98.8893ZM40.9675 101.451C41.7649 101.362 42.0703 100.504 41.884 98.8769C41.806 98.1963 41.7394 97.7399 41.6839 97.5078C41.5677 97.0214 41.4122 96.6586 41.2176 96.4192C40.9766 96.1282 40.6639 96.0041 40.2795 96.0468C39.5562 96.1271 39.2469 96.889 39.3517 98.3326C39.3669 98.5408 39.3912 98.7905 39.4245 99.0819C39.5121 99.8465 39.6639 100.43 39.88 100.831C40.1323 101.297 40.4948 101.503 40.9675 101.451Z" fill="#FAFAF4"/>
<path d="M50.7627 99.887C50.6804 100.063 50.5711 100.212 50.4347 100.333C50.3013 100.453 50.1508 100.525 49.9833 100.548C49.6569 100.592 49.3473 100.458 49.0545 100.145C48.7614 99.8293 48.5825 99.4411 48.5177 98.9804C48.453 98.5196 48.5083 98.0895 48.6837 97.69C48.859 97.2905 49.107 97.069 49.4278 97.0253C49.8139 96.9727 50.1427 97.1101 50.4143 97.4374C50.6859 97.7646 50.8546 98.1628 50.9205 98.6319C50.986 99.0982 50.9334 99.5165 50.7627 99.887ZM49.0377 98.9437C49.1031 99.41 49.2057 99.7589 49.3452 99.9903C49.4843 100.219 49.6845 100.315 49.9456 100.28C50.3203 100.229 50.4919 99.8954 50.4604 99.2793C50.4494 99.0987 50.433 98.9302 50.4111 98.7738C50.3632 98.4332 50.3184 98.186 50.2765 98.0323C50.1283 97.4919 49.8796 97.2455 49.5305 97.293C49.3488 97.3178 49.2207 97.3836 49.146 97.4905C49.0713 97.5974 49.0175 97.7499 48.9846 97.9479C48.9541 98.1427 48.9718 98.4746 49.0377 98.9437ZM48.9842 94.2685L49.5377 94.1932L45.7527 101.261L45.2035 101.335L48.9842 94.2685ZM46.0606 97.8295C45.9783 98.0057 45.869 98.1543 45.7327 98.2753C45.5992 98.396 45.4487 98.4677 45.2812 98.4905C44.9548 98.5349 44.6452 98.4006 44.3525 98.0876C44.0593 97.7718 43.8804 97.3836 43.8157 96.9229C43.751 96.4621 43.8063 96.032 43.9816 95.6325C44.1569 95.2331 44.405 95.0115 44.7258 94.9678C45.1118 94.9153 45.4406 95.0526 45.7122 95.3799C45.9838 95.7071 46.1526 96.1053 46.2185 96.5744C46.284 97.0407 46.2313 97.4591 46.0606 97.8295ZM44.3356 96.8862C44.4011 97.3525 44.5036 97.7014 44.6432 97.9328C44.7823 98.1614 44.9824 98.258 45.2436 98.2224C45.6183 98.1714 45.7899 97.8379 45.7583 97.2218C45.7474 97.0412 45.731 96.8727 45.709 96.7163C45.6612 96.3757 45.6163 96.1285 45.5745 95.9749C45.4263 95.4344 45.1776 95.188 44.8284 95.2355C44.6468 95.2603 44.5186 95.3261 44.4439 95.433C44.3693 95.5399 44.3155 95.6924 44.2825 95.8904C44.252 96.0852 44.2697 96.4171 44.3356 96.8862Z" fill="#FAFAF4"/>
<path d="M60.2711 98.7613C60.2604 98.7857 60.2259 98.7966 60.1675 98.794C60.1115 98.7882 60.0467 98.7908 59.973 98.8019C59.8994 98.813 59.797 98.8441 59.6658 98.8953C59.537 98.9432 59.3329 99.0195 59.0535 99.1244C58.7745 99.232 58.516 99.3037 58.2781 99.3396C57.7399 99.4206 57.198 99.3754 56.6524 99.2038C56.1092 99.0289 55.6506 98.7359 55.2765 98.3246C54.9019 97.9105 54.6677 97.4011 54.5737 96.7965C54.4798 96.1918 54.5462 95.6215 54.7731 95.0854C55.1033 94.3 55.6962 93.7316 56.5519 93.3802C56.8243 93.2679 57.1022 93.1904 57.3854 93.1477C57.7735 93.0893 58.2438 93.084 58.7962 93.132C58.9637 93.1467 59.106 93.1666 59.2229 93.1917C59.3427 93.2165 59.4154 93.2269 59.4409 93.2231L59.5632 93.1704L59.6949 93.1506C59.7289 93.1455 59.7495 93.1666 59.7569 93.214L59.9589 94.5138C59.9632 94.5417 59.9399 94.5594 59.8889 94.5671C59.8379 94.5748 59.8073 94.5737 59.7971 94.5638C59.7864 94.5512 59.7756 94.5371 59.7645 94.5217C59.7529 94.5035 59.74 94.4855 59.7256 94.4677C59.7141 94.4494 59.7014 94.4328 59.6874 94.4178C59.6763 94.4024 59.6687 94.3907 59.6646 94.3828C59.1094 93.6081 58.3998 93.2858 57.5358 93.4159C56.7568 93.5333 56.1857 93.8688 55.8224 94.4226C55.4591 94.9764 55.3401 95.6559 55.4652 96.4611C55.5899 97.2636 55.9379 97.917 56.5091 98.4212C57.0831 98.925 57.7851 99.1144 58.615 98.9894C59.0682 98.9211 59.4598 98.7267 59.7898 98.4061C60.1225 98.085 60.3653 97.7162 60.518 97.2997C60.521 97.2822 60.5367 97.2712 60.565 97.267L60.6203 97.2586C60.6486 97.2544 60.6654 97.269 60.6706 97.3024C60.6758 97.3358 60.6722 97.3692 60.66 97.4024L60.2711 98.7613Z" fill="#FAFAF4"/>
<path d="M60.7068 98.8204L60.6889 98.7033C60.6855 98.681 60.6952 98.6682 60.7179 98.6648L60.8114 98.651C60.9291 98.6251 61.0503 98.6029 61.175 98.5845C61.2993 98.5633 61.4103 98.5313 61.5081 98.4883C61.7303 98.3871 61.821 98.2027 61.7803 97.9351L61.1091 93.5278C61.067 93.2519 60.8745 93.1007 60.5315 93.0744C60.435 93.0687 60.3375 93.066 60.239 93.0663L60.1498 93.0795C60.1271 93.0828 60.114 93.0733 60.1106 93.051L60.0954 92.9507C60.092 92.9284 60.1016 92.9155 60.1243 92.9122L64.1669 92.3154C64.2179 92.3079 64.2562 92.3122 64.2818 92.3283C64.3071 92.3417 64.3272 92.3787 64.3422 92.4392L64.6034 93.6405C64.6076 93.6684 64.5885 93.6854 64.546 93.6917C64.5035 93.698 64.4704 93.69 64.4467 93.6679C64.4255 93.6425 64.3873 93.5441 64.3322 93.3727C64.28 93.2008 64.2095 93.0616 64.1208 92.955C64.0321 92.8483 63.8962 92.7929 63.713 92.7886L61.9404 93.0503C61.9035 93.0557 61.8879 93.0765 61.8934 93.1128L62.2226 95.2746C62.2269 95.3025 62.2432 95.3143 62.2715 95.3101L63.7423 95.093C64.1221 95.0369 64.2788 94.7915 64.2126 94.3566C64.2092 94.3343 64.2188 94.3215 64.2415 94.3181L64.3435 94.3031C64.3662 94.2997 64.3792 94.3092 64.3826 94.3315L64.6552 96.1211C64.6586 96.1434 64.6489 96.1563 64.6263 96.1596L64.5242 96.1747C64.5016 96.178 64.4885 96.1685 64.4851 96.1462C64.4223 95.7337 64.2642 95.5133 64.0107 95.4852C63.9401 95.4785 63.8666 95.4808 63.7901 95.4921L62.332 95.7074C62.3037 95.7115 62.2916 95.7276 62.2959 95.7554L62.606 97.7918C62.6378 98.0009 62.7536 98.1049 62.9534 98.1039C63.0114 98.1039 63.0715 98.0993 63.1339 98.0901L64.5494 97.8811C64.8413 97.8381 65.0487 97.6777 65.1716 97.4002C65.2602 97.2019 65.2994 96.9837 65.2893 96.7458C65.2859 96.6665 65.3224 96.6212 65.399 96.6099C65.433 96.6049 65.4527 96.6205 65.4582 96.6567L65.5319 98.0824C65.5209 98.1239 65.504 98.1464 65.4813 98.1497L60.7459 98.8488C60.7232 98.8522 60.7102 98.8427 60.7068 98.8204Z" fill="#FAFAF4"/>
<path d="M66.0868 98.0579C66.064 98.061 66.0487 98.0347 66.0408 97.9788L66.0337 97.9286C66.0306 97.9062 66.0404 97.8935 66.0632 97.8904C66.0803 97.8881 66.107 97.8816 66.1433 97.8709C66.1796 97.8603 66.2173 97.8494 66.2564 97.8384C66.2955 97.8274 66.3318 97.8167 66.3653 97.8065C66.3983 97.7934 66.4217 97.7845 66.4356 97.7798C66.7174 97.6759 66.84 97.4941 66.8034 97.2344L66.1805 92.8117C66.1467 92.5716 66.0243 92.4147 65.8134 92.3411C65.6878 92.2956 65.558 92.282 65.424 92.3003L65.2615 92.3225C65.2387 92.3257 65.2257 92.316 65.2226 92.2937L65.2084 92.1932C65.2052 92.1709 65.2208 92.1573 65.255 92.1527L67.5943 91.7692L68.0263 91.7103C68.5357 91.6749 68.9831 91.7973 69.3684 92.0777C69.7562 92.3548 69.9837 92.7321 70.051 93.2096C70.1178 93.6842 69.9675 94.0818 69.6 94.4024C69.4859 94.5005 69.3607 94.5915 69.2243 94.6756L70.8123 96.5718C71.0887 96.904 71.4269 97.1182 71.827 97.2144C71.8596 97.2185 71.878 97.2359 71.8823 97.2666C71.8922 97.3364 71.85 97.3778 71.7559 97.3906C71.1144 97.4782 70.5703 97.3092 70.1238 96.8835C70.0262 96.7887 69.9268 96.6813 69.8256 96.5614L68.4783 95.0123L67.4539 95.1052L67.4197 95.1098C67.3769 95.1157 67.3583 95.1381 67.3638 95.1772L67.6357 97.108C67.6574 97.2615 67.7177 97.37 67.8167 97.4333C67.9157 97.4966 68.0755 97.5274 68.2962 97.5258C68.3544 97.5263 68.426 97.5294 68.5111 97.5348C68.5957 97.5375 68.6523 97.5369 68.6808 97.533C68.7122 97.5287 68.7294 97.5377 68.7326 97.5601L68.7467 97.6606C68.7499 97.6829 68.7401 97.6957 68.7172 97.6988L66.0868 98.0579ZM67.2748 92.0391C67.2406 92.0438 67.2038 92.0502 67.1642 92.0585C67.1272 92.0635 67.0789 92.0716 67.0194 92.0825C66.9595 92.0907 66.9327 92.1171 66.939 92.1618L67.2965 94.6998L67.3228 94.8243C67.3396 94.8817 67.371 94.9087 67.417 94.9053L67.8568 94.8709C68.6581 94.7615 69.1021 94.4163 69.1888 93.8353C69.2182 93.652 69.2169 93.4473 69.1851 93.2211C69.123 92.7799 68.9328 92.4516 68.6148 92.2361C68.2995 92.0201 67.9238 91.942 67.4875 92.0015C67.4476 92.007 67.4107 92.0134 67.3769 92.0209C67.3427 92.0256 67.3087 92.0316 67.2748 92.0391Z" fill="#FAFAF4"/>
<path d="M73.3149 96.9666C73.3122 96.9442 73.3236 96.9315 73.3493 96.9285L73.4688 96.9145C73.7476 96.8819 73.9639 96.7969 74.1176 96.6597C74.2741 96.5221 74.3429 96.375 74.324 96.2182L73.7623 91.5704C73.7551 91.5116 73.7385 91.4809 73.7122 91.4783C73.6884 91.4726 73.6591 91.4689 73.6243 91.4673L71.9852 91.6594C71.7274 91.7463 71.578 91.9668 71.5371 92.3208C71.5139 92.5108 71.5012 92.633 71.4991 92.6871C71.4966 92.7385 71.484 92.7655 71.4613 92.7682L71.3844 92.7772C71.3674 92.7792 71.3582 92.7746 71.3568 92.7634L71.3401 92.6249L71.3397 91.2964C71.3463 91.2076 71.3695 91.1609 71.4093 91.1563C71.4491 91.1516 71.4952 91.1746 71.5475 91.2252C71.5995 91.2731 71.6895 91.2895 71.8175 91.2745L76.4188 90.7354C76.5411 90.7211 76.6134 90.6984 76.6356 90.6675C76.6579 90.6365 76.6788 90.607 76.6986 90.5792C76.7179 90.5485 76.7447 90.5312 76.7788 90.5272C76.8158 90.5229 76.8403 90.5342 76.8522 90.5612C76.867 90.5878 76.8791 90.6162 76.8885 90.6463L77.2047 91.9378L77.2215 92.0764C77.2228 92.0876 77.215 92.0941 77.1979 92.0961L77.1211 92.1052C77.0983 92.1078 77.0801 92.0887 77.0665 92.0477C76.9871 91.7731 76.895 91.5596 76.79 91.4073C76.6847 91.2522 76.5371 91.1658 76.3474 91.1483L74.7041 91.3408C74.6707 91.3504 74.6416 91.3609 74.6171 91.3723C74.595 91.3806 74.5875 91.4141 74.5946 91.4729L75.1563 96.1207C75.1752 96.2775 75.2757 96.4048 75.4578 96.5027C75.6428 96.6002 75.8747 96.6327 76.1535 96.6L76.2773 96.5855C76.3001 96.5828 76.3128 96.5927 76.3155 96.6151L76.3277 96.7158C76.3304 96.7382 76.3204 96.7508 76.2976 96.7534L73.3653 97.097C73.3425 97.0996 73.3298 97.0898 73.3271 97.0674L73.3149 96.9666Z" fill="#FAFAF4"/>
<path d="M77.4259 91.3308C77.3917 90.9943 77.1778 90.8454 76.7843 90.8842C76.7216 90.8904 76.6891 90.8823 76.6868 90.8599L76.6765 90.7589C76.6742 90.7364 76.6845 90.7241 76.7073 90.7219L78.8501 90.5104C78.8729 90.5082 78.8855 90.5183 78.8878 90.5407L78.898 90.6417C78.9003 90.6641 78.8387 90.6815 78.7133 90.6939C78.5878 90.7063 78.4763 90.7569 78.3788 90.8459C78.2813 90.9348 78.245 91.1013 78.2698 91.3453L78.7267 95.8342C78.761 96.1708 78.9763 96.3195 79.3726 96.2804C79.4325 96.2745 79.4636 96.2828 79.4659 96.3052L79.4761 96.4062C79.4784 96.4286 79.4682 96.441 79.4454 96.4432L77.3026 96.6547C77.2798 96.6569 77.2672 96.6468 77.2649 96.6244L77.2546 96.5234C77.2524 96.501 77.314 96.4836 77.4394 96.4712C77.5649 96.4588 77.6764 96.4081 77.7739 96.3192C77.8714 96.2303 77.9077 96.0638 77.8829 95.8198L77.4259 91.3308Z" fill="#FAFAF4"/>
<path d="M82.8417 92.7374C83.2263 92.708 83.4041 92.5093 83.3751 92.1411C83.3733 92.1186 83.3839 92.1065 83.4069 92.1048L83.5102 92.0969C83.5331 92.0951 83.5455 92.1055 83.5473 92.128L83.6709 93.6961C83.6727 93.7186 83.6621 93.7307 83.6391 93.7325L83.5358 93.7404C83.5128 93.7421 83.5005 93.7318 83.4987 93.7093C83.4783 93.4507 83.3896 93.278 83.2326 93.191C83.1481 93.1438 83.0311 93.1258 82.8819 93.1372L81.1856 93.2669C81.1168 93.2721 81.0853 93.3127 81.0913 93.3886L81.2621 95.5553C81.2772 95.7464 81.4046 95.8795 81.6444 95.9544C81.8869 96.0264 82.0382 96.06 82.0985 96.0554C82.1616 96.0506 82.1941 96.0594 82.1959 96.0819L82.2038 96.1831C82.2056 96.2056 82.195 96.2177 82.172 96.2194L79.8214 96.3991C79.7984 96.4008 79.7861 96.3905 79.7843 96.368L79.7763 96.2668C79.7746 96.2443 79.7981 96.2312 79.8469 96.2275C79.8957 96.2238 79.9699 96.1955 80.0697 96.1426C80.1695 96.0898 80.2547 96.0168 80.3253 95.9238C80.3986 95.8277 80.4303 95.7164 80.4203 95.59L80.0613 91.0373C80.0469 90.8546 79.9376 90.7315 79.7334 90.668C79.6148 90.629 79.4996 90.6137 79.3876 90.6223L79.3704 90.6236C79.3474 90.6254 79.3351 90.615 79.3333 90.5925L79.3253 90.4913C79.3236 90.4689 79.3341 90.4567 79.3571 90.455L83.4169 90.1447C83.4518 90.1477 83.4783 90.1542 83.4964 90.1641C83.5143 90.1712 83.5248 90.1945 83.5279 90.2338L83.6083 91.2539C83.611 91.2877 83.6069 91.3092 83.5961 91.3185C83.5881 91.3276 83.5712 91.3331 83.5454 91.3351L83.4937 91.339C83.4878 91.3366 83.4617 91.2623 83.4155 91.116C83.372 90.9666 83.3126 90.8539 83.2373 90.7776C83.1098 90.663 82.9709 90.6043 82.8206 90.6017C82.7599 90.6007 82.6865 90.6034 82.6004 90.61L80.9687 90.7347C80.9113 90.7391 80.8848 90.7694 80.8892 90.8256L81.0431 92.7773C81.0482 92.842 81.0852 92.8717 81.1541 92.8664L82.8417 92.7374Z" fill="#FAFAF4"/>
<path d="M85.392 90.7187C85.3745 90.3809 85.1683 90.2219 84.7734 90.2416C84.7104 90.2448 84.6783 90.2351 84.6772 90.2126L84.672 90.1112C84.6708 90.0887 84.6817 90.0769 84.7046 90.0757L86.8553 89.9681C86.8782 89.9669 86.8902 89.9776 86.8914 90.0001L86.8966 90.1015C86.8978 90.124 86.8354 90.1384 86.7095 90.1447C86.5835 90.151 86.4697 90.1962 86.3679 90.2804C86.266 90.3645 86.2214 90.529 86.2341 90.7739L86.4668 95.2795C86.4842 95.6174 86.6918 95.7763 87.0896 95.7564C87.1497 95.7534 87.1804 95.7631 87.1815 95.7857L87.1868 95.887C87.1879 95.9095 87.1771 95.9214 87.1542 95.9225L85.0034 96.0302C84.9805 96.0313 84.9685 96.0206 84.9673 95.9981L84.9621 95.8968C84.9609 95.8742 85.0233 95.8598 85.1493 95.8535C85.2752 95.8472 85.3891 95.802 85.4909 95.7179C85.5927 95.6338 85.6373 95.4692 85.6246 95.2243L85.392 90.7187Z" fill="#FAFAF4"/>
<path d="M87.1633 95.8668L87.161 95.7484C87.1606 95.7259 87.1719 95.7144 87.1949 95.7139L87.2899 95.7122C87.4106 95.7014 87.5343 95.6949 87.661 95.6925C87.7875 95.6873 87.9024 95.6696 88.0054 95.6395C88.2401 95.5674 88.3549 95.3961 88.3496 95.1255L88.2632 90.6699C88.2578 90.3909 88.0859 90.2165 87.7477 90.1467C87.6523 90.1288 87.5556 90.1137 87.4575 90.1015L87.3668 90.1032C87.3438 90.1036 87.332 90.0925 87.3316 90.07L87.3296 89.9685C87.3292 89.946 87.3405 89.9345 87.3635 89.9341L91.4693 89.8568C91.5211 89.8559 91.5587 89.865 91.5821 89.8843C91.6055 89.9008 91.6207 89.94 91.6276 90.0019L91.7291 91.2263C91.7297 91.2545 91.7083 91.269 91.6652 91.2698C91.622 91.2707 91.5901 91.2586 91.5695 91.2336C91.5516 91.2057 91.5266 91.1033 91.4944 90.9263C91.465 90.7492 91.4132 90.6022 91.339 90.4852C91.2647 90.3682 91.1366 90.2959 90.9547 90.2683L89.1544 90.3021C89.117 90.3028 89.0986 90.3215 89.0993 90.3581L89.1417 92.5437C89.1423 92.5719 89.1569 92.5857 89.1857 92.5852L90.6795 92.5571C91.0652 92.5498 91.2538 92.3263 91.2453 91.8867C91.2448 91.8642 91.2561 91.8527 91.2791 91.8522L91.3828 91.8503C91.4058 91.8499 91.4175 91.8609 91.4179 91.8835L91.4531 93.6928C91.4535 93.7153 91.4422 93.7268 91.4192 93.7272L91.3156 93.7292C91.2925 93.7296 91.2808 93.7186 91.2804 93.696C91.2723 93.2789 91.1438 93.0403 90.895 92.9801C90.8256 92.9645 90.7521 92.9574 90.6744 92.9589L89.1935 92.9868C89.1647 92.9873 89.1506 93.0017 89.1512 93.0298L89.1911 95.0886C89.1952 95.2999 89.2968 95.4178 89.496 95.4423C89.5537 95.4497 89.6142 95.4528 89.6775 95.4516L91.1152 95.4245C91.4117 95.4189 91.6395 95.2864 91.7985 95.0268C91.913 94.8414 91.9809 94.6301 92.0022 94.3929C92.0093 94.3138 92.0517 94.2736 92.1294 94.2721C92.1639 94.2714 92.1816 94.2894 92.1823 94.3261L92.0674 95.7492C92.0509 95.7889 92.0311 95.809 92.0081 95.8095L87.1985 95.8999C87.1755 95.9004 87.1638 95.8893 87.1633 95.8668Z" fill="#FAFAF4"/>
<path d="M92.8023 89.8417C92.8032 89.8192 92.8152 89.8084 92.8382 89.8093L92.9331 89.813L94.3193 89.8372C94.4864 89.8381 94.6677 89.8423 94.8633 89.8499L95.4027 89.8709C95.9032 89.8904 96.2778 89.9233 96.5266 89.9696C96.7783 90.0161 97.0239 90.0693 97.2635 90.1294C97.5061 90.1868 97.7605 90.3081 98.0268 90.4934C98.2959 90.6787 98.5262 90.8993 98.7176 91.155C99.1221 91.701 99.312 92.2811 99.2874 92.8951C99.2628 93.5091 99.0767 94.0533 98.7293 94.5279C98.2292 95.2165 97.5275 95.6518 96.6242 95.8339C96.3367 95.8905 96.0434 95.9129 95.7442 95.9013L92.5987 95.779C92.5757 95.7781 92.5647 95.7664 92.5656 95.7438L92.5703 95.6255C92.5712 95.603 92.5832 95.5922 92.6062 95.5931L92.7011 95.5968C93.2246 95.6171 93.4929 95.4639 93.5061 95.1372L93.6918 90.5068C93.6981 90.3491 93.641 90.2284 93.5205 90.1447C93.4001 90.0582 93.2622 90.0119 93.1069 90.0059L92.8307 89.9952C92.8077 89.9943 92.7966 89.9825 92.7976 89.96L92.8023 89.8417ZM94.6612 90.0409C94.5893 90.0381 94.5518 90.0748 94.5488 90.1508L94.3415 95.3178C94.3331 95.5262 94.5287 95.6424 94.9282 95.6664C95.046 95.6738 95.1697 95.6801 95.2991 95.6851C96.2167 95.7208 96.9474 95.4967 97.4911 95.0129C98.0378 94.5292 98.3279 93.8691 98.3614 93.0326C98.3951 92.1932 98.1794 91.5008 97.7144 90.9552C97.2524 90.4069 96.6259 90.1173 95.8348 90.0866L94.6612 90.0409Z" fill="#FAFAF4"/>
<path d="M10.9098 60.7239V62.565H9.03991L7.71793 63.867L6.39549 62.565H4.52556V60.7239L3.20312 59.4219L4.52556 58.1203V56.2788H6.39549L7.71793 54.9772L9.03991 56.2788H10.9098V58.1203L12.2327 59.4219L10.9098 60.7239Z" fill="#3A683D"/>
<path d="M115.339 60.7239V62.565H113.469L112.147 63.867L110.824 62.565H108.954V60.7239L107.632 59.4219L108.954 58.1203V56.2788H110.824L112.147 54.9772L113.469 56.2788H115.339V58.1203L116.661 59.4219L115.339 60.7239Z" fill="#3A683D"/>
<defs>
<linearGradient id="paint0_linear" x1="1.15039" y1="97.5831" x2="126" y2="97.5831" gradientUnits="userSpaceOnUse">
<stop offset="0.00086" stop-color="#588959"/>
<stop offset="0.2309" stop-color="#49814F"/>
<stop offset="0.67264" stop-color="#216B36"/>
<stop offset="1" stop-color="#005920"/>
</linearGradient>
</defs>
</svg>
