<svg width="54" height="54" viewBox="0 0 54 54" fill="none" xmlns="http://www.w3.org/2000/svg">
<path d="M17.6544 24.6284L17.6548 24.6281L26.3798 15.903C26.3801 15.9028 26.3804 15.9025 26.3807 15.9022C26.4786 15.8055 26.6104 15.7509 26.748 15.75H28.252C28.3896 15.7509 28.5214 15.8055 28.6193 15.9022C28.6196 15.9025 28.6199 15.9028 28.6202 15.903L37.3452 24.6281L37.3456 24.6284C37.924 25.2061 38.2493 25.9899 38.25 26.8073V36.7222C38.25 36.8622 38.1944 36.9964 38.0954 37.0954C37.9964 37.1944 37.8622 37.25 37.7222 37.25H32.6111C32.4711 37.25 32.3369 37.1944 32.2379 37.0954C32.1389 36.9964 32.0833 36.8622 32.0833 36.7222V29.6944C32.0833 29.3261 31.937 28.9728 31.6765 28.7124C31.4512 28.487 31.1564 28.3471 30.8425 28.3135L27.7432 27.2509L27.5 27.1675L27.2568 27.2509L24.1575 28.3135C23.8436 28.3471 23.5488 28.487 23.3235 28.7124C23.063 28.9728 22.9167 29.3261 22.9167 29.6944V36.7222C22.9167 36.8622 22.8611 36.9964 22.7621 37.0954C22.6631 37.1944 22.5289 37.25 22.3889 37.25H17.2778C17.1378 37.25 17.0036 37.1944 16.9046 37.0954C16.8056 36.9964 16.75 36.8622 16.75 36.7222V26.807C16.7508 25.9896 17.0761 25.206 17.6544 24.6284Z" stroke="#F2F2F2" stroke-width="1.5"/>
</svg>
