<svg width="61" height="60" viewBox="0 0 61 60" fill="none" xmlns="http://www.w3.org/2000/svg">
<path fill-rule="evenodd" clip-rule="evenodd" d="M20.7446 28.9411L9.20419 28.9199L1.05889 20.7447L1.08007 9.20431L9.25532 1.05901L20.7957 1.08019L28.941 9.25544L28.9198 20.7958L20.7446 28.9411ZM29.9771 21.236L21.1809 30L8.76397 29.9772L0 21.181L0.0227887 8.76409L8.81899 0.000120163L21.2359 0.0229073L29.9999 8.81911L29.9771 21.236Z" fill="#DB5B35"/>
<path d="M11.908 8.4533L5.55829 8.46217L1.06208 3.97852L1.05321 0.628799L0 0.194269L0.0100898 4.41599L5.12375 9.51538L12.3455 9.50529L17.4449 4.39163L17.4348 0.169909L16.3828 0.607381L16.3917 3.9571L11.908 8.4533Z" fill="#DB5B35"/>
<path d="M24.4386 8.46217L18.09 8.45052L13.6091 3.95317L13.6208 0.604603L12.5692 0.166749L12.5559 4.38716L17.6521 9.50213L24.8726 9.51538L29.9875 4.41915L30.0008 0.198741L28.9476 0.632732L28.9359 3.9813L24.4386 8.46217Z" fill="#DB5B35"/>
<path d="M1.0529 29.7655L1.06455 26.2831L5.5619 21.8022L11.9105 21.8138L16.3913 26.3112L16.3797 29.9438L17.4313 29.9438L17.4446 25.8772L12.3483 20.7622L5.12791 20.749L0.0129395 25.8452L0.0130084 29.7655H1.0529Z" fill="#DB5B35"/>
<path d="M12.5559 29.9719L13.6214 29.9719V26.283L18.1188 21.8021L24.4674 21.8138L28.9482 26.3112V29.7819H30.0014V25.8772L24.9052 20.7622L17.6848 20.7489L12.5698 25.8452L12.5559 29.9719Z" fill="#DB5B35"/>
<path d="M0.00340762 1.05317L3.7172 1.06482L8.19808 5.56217L8.18643 11.9107L3.68907 16.3916L0.00331687 16.38V17.4316L4.12306 17.4448L9.23804 12.3486L9.25129 5.12818L4.15506 0.0132122L0.00292969 -4.19617e-05L0.00340762 1.05317Z" fill="#DB5B35"/>
<path d="M0 13.4763L3.71707 13.4879L8.19794 17.9853L8.18629 24.3338L3.68894 28.8147L4.9406e-05 28.8031V29.8547L4.12293 29.8679L9.2379 24.7717L9.25115 17.5513L4.15492 12.4363L4.9406e-05 12.4231L0 13.4763Z" fill="#DB5B35"/>
<path d="M21.9341 11.8828L21.9457 5.53423L26.4431 1.05335L29.9998 1.06501V0.0133934L26.0091 0.000146866L20.8941 5.09637L20.8809 12.3168L25.9771 17.4318L29.9998 17.4333V16.3801L26.4149 16.3801L21.9341 11.8828Z" fill="#DB5B35"/>
<path d="M21.9345 24.3041L21.9461 17.9539L26.4452 13.4719L29.9998 13.4822V12.4303L26.011 12.4184L20.8941 17.516L20.8809 24.7382L25.979 29.8545L29.9978 29.8633L29.9998 28.8106L26.417 28.8026L21.9345 24.3041Z" fill="#DB5B35"/>
<path fill-rule="evenodd" clip-rule="evenodd" d="M50.7446 28.9411L39.2042 28.9199L31.0589 20.7447L31.0801 9.20431L39.2553 1.05901L50.7957 1.08019L58.941 9.25544L58.9198 20.7958L50.7446 28.9411ZM59.9771 21.236L51.1809 30L38.764 29.9772L30 21.181L30.0228 8.76409L38.819 0.000120163L51.2359 0.0229073L59.9999 8.81911L59.9771 21.236Z" fill="#E7CB97"/>
<path d="M41.908 8.4533L35.5583 8.46217L31.0621 3.97852L31.0532 0.628799L30 0.194269L30.0101 4.41599L35.1238 9.51538L42.3455 9.50529L47.4449 4.39163L47.4348 0.169909L46.3828 0.607381L46.3917 3.9571L41.908 8.4533Z" fill="#E7CB97"/>
<path d="M54.4386 8.46217L48.09 8.45052L43.6091 3.95317L43.6208 0.604603L42.5692 0.166749L42.5559 4.38716L47.6521 9.50213L54.8726 9.51538L59.9875 4.41915L60.0008 0.198741L58.9476 0.632732L58.9359 3.9813L54.4386 8.46217Z" fill="#E7CB97"/>
<path d="M31.0529 29.7655L31.0646 26.2831L35.5619 21.8022L41.9105 21.8138L46.3913 26.3112L46.3797 29.9438L47.4313 29.9438L47.4446 25.8772L42.3483 20.7622L35.1279 20.749L30.0129 25.8452L30.013 29.7655H31.0529Z" fill="#E7CB97"/>
<path d="M42.5559 29.9719L43.6214 29.9719V26.283L48.1188 21.8021L54.4674 21.8138L58.9482 26.3112V29.7819H60.0014V25.8772L54.9052 20.7622L47.6848 20.7489L42.5698 25.8452L42.5559 29.9719Z" fill="#E7CB97"/>
<path d="M30.0034 1.05317L33.7172 1.06482L38.1981 5.56217L38.1864 11.9107L33.6891 16.3916L30.0033 16.38V17.4316L34.1231 17.4448L39.238 12.3486L39.2513 5.12818L34.1551 0.0132122L30.0029 -4.19617e-05L30.0034 1.05317Z" fill="#E7CB97"/>
<path d="M30 13.4763L33.7171 13.4879L38.1979 17.9853L38.1863 24.3338L33.6889 28.8147L30 28.8031V29.8547L34.1229 29.8679L39.2379 24.7717L39.2512 17.5513L34.1549 12.4363L30 12.4231L30 13.4763Z" fill="#E7CB97"/>
<path d="M51.9341 11.8828L51.9457 5.53423L56.4431 1.05335L59.9998 1.06501V0.0133934L56.0091 0.000146866L50.8941 5.09637L50.8809 12.3168L55.9771 17.4318L59.9998 17.4333V16.3801L56.4149 16.3801L51.9341 11.8828Z" fill="#E7CB97"/>
<path d="M51.9345 24.3041L51.9461 17.9539L56.4452 13.4719L59.9998 13.4822V12.4303L56.011 12.4184L50.8941 17.516L50.8809 24.7382L55.979 29.8545L59.9978 29.8633L59.9998 28.8106L56.417 28.8026L51.9345 24.3041Z" fill="#E7CB97"/>
<path fill-rule="evenodd" clip-rule="evenodd" d="M50.7453 58.9411L39.2049 58.9199L31.0596 50.7447L31.0808 39.2043L39.2561 31.059L50.7964 31.0802L58.9417 39.2554L58.9205 50.7958L50.7453 58.9411ZM59.9778 51.236L51.1816 60L38.7647 59.9772L30.0007 51.181L30.0235 38.7641L38.8197 30.0001L51.2366 30.0229L60.0006 38.8191L59.9778 51.236Z" fill="#DB5B35"/>
<path d="M41.908 38.4535L35.5583 38.4624L31.0621 33.9788L31.0532 30.629L30 30.1945L30.0101 34.4162L35.1238 39.5156L42.3455 39.5055L47.4449 34.3919L47.4348 30.1702L46.3828 30.6076L46.3917 33.9573L41.908 38.4535Z" fill="#DB5B35"/>
<path d="M54.4388 38.4624L48.0902 38.4508L43.6094 33.9534L43.621 30.6048L42.5694 30.167L42.5562 34.3874L47.6524 39.5024L54.8728 39.5156L59.9878 34.4194L60.001 30.199L58.9478 30.633L58.9362 33.9815L54.4388 38.4624Z" fill="#DB5B35"/>
<path d="M31.0529 59.7655L31.0646 56.2831L35.5619 51.8022L41.9105 51.8138L46.3913 56.3112L46.3797 59.9438L47.4313 59.9438L47.4446 55.8772L42.3483 50.7622L35.1279 50.749L30.0129 55.8452L30.013 59.7655H31.0529Z" fill="#DB5B35"/>
<path d="M42.5562 59.9722L43.6217 59.9721V56.2833L48.119 51.8024L54.4676 51.814L58.9485 56.3114V59.7821H60.0017V55.8774L54.9055 50.7624L47.685 50.7492L42.5701 55.8454L42.5562 59.9722Z" fill="#DB5B35"/>
<path d="M30.0034 31.0532L33.7172 31.0648L38.1981 35.5622L38.1864 41.9107L33.6891 46.3916L30.0033 46.38V47.4316L34.1231 47.4448L39.238 42.3486L39.2513 35.1282L34.1551 30.0132L30.0029 30L30.0034 31.0532Z" fill="#DB5B35"/>
<path d="M30 43.4765L33.7171 43.4882L38.1979 47.9855L38.1863 54.3341L33.6889 58.815L30 58.8033V59.8549L34.1229 59.8682L39.2379 54.7719L39.2512 47.5515L34.1549 42.4366L30 42.4233L30 43.4765Z" fill="#DB5B35"/>
<path d="M51.9341 41.8828L51.9457 35.5342L56.4431 31.0534L59.9998 31.065V30.0134L56.0091 30.0001L50.8941 35.0964L50.8809 42.3168L55.9771 47.4318L59.9998 47.4333V46.3801L56.4149 46.3801L51.9341 41.8828Z" fill="#DB5B35"/>
<path d="M51.9345 54.3044L51.9461 47.9542L56.4452 43.4721L59.9998 43.4824V42.4305L56.011 42.4187L50.8941 47.5162L50.8809 54.7385L55.979 59.8547L59.9978 59.8635L59.9998 58.8108L56.417 58.8029L51.9345 54.3044Z" fill="#DB5B35"/>
</svg>
