<svg width="48" height="47" viewBox="0 0 48 47" fill="none" xmlns="http://www.w3.org/2000/svg">
<path fill-rule="evenodd" clip-rule="evenodd" d="M32.4998 45.3411L14.4199 45.3079L1.65893 32.5L1.69211 14.4201L14.5 1.65916L32.5799 1.69234L45.3408 14.5002L45.3077 32.5801L32.4998 45.3411ZM46.9641 33.2698L33.1834 47L13.7302 46.9643L0 33.1836L0.0357023 13.7304L13.8164 0.000225067L33.2696 0.0359268L46.9998 13.8166L46.9641 33.2698Z" fill="#FAFAF4"/>
<path d="M18.6559 13.2435L8.70797 13.2574L1.66393 6.23305L1.65003 0.98517L0 0.304406L0.0158074 6.91843L8.02721 14.9075L19.3412 14.8917L27.3303 6.88026L27.3145 0.266242L25.6663 0.951614L25.6802 6.1995L18.6559 13.2435Z" fill="#FAFAF4"/>
<path d="M38.287 13.2574L28.341 13.2392L21.3209 6.19334L21.3392 0.947263L19.6917 0.261292L19.6709 6.87326L27.655 14.8867L38.967 14.9075L46.9804 6.92338L47.0012 0.311413L45.3511 0.991332L45.3329 6.23741L38.287 13.2574Z" fill="#FAFAF4"/>
<path d="M1.64977 46.6325L1.66803 41.1766L8.71388 34.1566L18.66 34.1749L25.68 41.2207L25.6617 46.9119L27.3092 46.9119L27.33 40.5408L19.3459 32.5273L8.03396 32.5066L0.0205078 40.4907L0.0206158 46.6325H1.64977Z" fill="#FAFAF4"/>
<path d="M19.6709 46.9561L21.3402 46.956V41.1768L28.3861 34.1568L38.3321 34.175L45.3522 41.2209V46.6583H47.0022V40.5409L39.0181 32.5275L27.7062 32.5067L19.6927 40.4908L19.6709 46.9561Z" fill="#FAFAF4"/>
<path d="M0.00514328 1.65008L5.82342 1.66834L12.8435 8.71418L12.8252 18.6603L5.77935 25.6803L0.00500112 25.662V27.3096L6.45926 27.3303L14.4727 19.3462L14.4935 8.03426L6.50939 0.0208168L0.00439453 5.34058e-05L0.00514328 1.65008Z" fill="#FAFAF4"/>
<path d="M0 21.113L5.8234 21.1312L12.8434 28.1771L12.8252 38.1232L5.77933 45.1432L7.74027e-05 45.1249V46.7724L6.45925 46.7932L14.4727 38.8091L14.4935 27.4972L6.50938 19.4837L7.74027e-05 19.4629L0 21.113Z" fill="#FAFAF4"/>
<path d="M34.3634 18.6164L34.3817 8.67031L41.4275 1.65028L46.9997 1.66854V0.0210133L40.7476 0.000259399L32.7341 7.98434L32.7134 19.2963L40.6975 27.3098L46.9997 27.3123V25.6622L41.3834 25.6622L34.3634 18.6164Z" fill="#FAFAF4"/>
<path d="M34.364 38.0765L34.3823 28.1279L41.4308 21.1061L46.9997 21.1222V19.4742L40.7506 19.4556L32.7341 27.4418L32.7134 38.7566L40.7005 46.7721L46.9966 46.7859L46.9997 45.1367L41.3867 45.1242L34.364 38.0765Z" fill="#FAFAF4"/>
</svg>
