<svg width="91" height="86" viewBox="0 0 91 86" fill="none" xmlns="http://www.w3.org/2000/svg">
<path d="M0.793017 62.3709C0.793017 62.3709 -0.271812 56.7147 15.8018 60.7248C27.848 63.7301 33.5379 61.1674 33.5379 61.1674L39.4375 69.8054L19.8757 74.1245H6.52403L0.793017 62.3709Z" fill="#005920"/>
<path d="M43.2791 86C67.1815 86 86.5582 66.7482 86.5582 43C86.5582 19.2518 67.1815 0 43.2791 0C19.3767 0 0 19.2518 0 43C0 66.7482 19.3767 86 43.2791 86Z" fill="#3A683D"/>
<path d="M43.279 84.4476C66.3185 84.4476 84.9956 65.8909 84.9956 43C84.9956 20.1091 66.3185 1.55243 43.279 1.55243C20.2395 1.55243 1.56238 20.1091 1.56238 43C1.56238 65.8909 20.2395 84.4476 43.279 84.4476Z" fill="#FAFAF4"/>
<path d="M43.2797 9.44678C36.6041 9.4464 30.0782 11.4128 24.5274 15.0974C18.9766 18.782 14.6502 24.0192 12.0952 30.1468C9.54022 36.2744 8.87147 43.0171 10.1735 49.5223C11.4756 56.0276 14.6899 62.0031 19.4101 66.6932C24.1303 71.3834 30.1443 74.5776 36.6916 75.8718C43.2389 77.166 50.0255 76.5022 56.1931 73.9643C62.3607 71.4263 67.6323 67.1282 71.3413 61.6136C75.0503 56.0989 77.0301 49.6153 77.0303 42.9827C77.0303 34.089 73.4745 25.5595 67.1452 19.2703C60.8158 12.9812 52.2312 9.44761 43.2797 9.44678Z" fill="#3A683D"/>
<path d="M65.6806 52.201V65.2388H52.5582L43.2798 74.4588L34.0003 65.2388H20.8779V52.201L11.5981 42.9821L20.8779 33.7628V20.7244H34.0003L43.2798 11.5051L52.5582 20.7244H65.6806V33.7628L74.9617 42.9821L65.6806 52.201Z" fill="#FAFAF4"/>
<path fill-rule="evenodd" clip-rule="evenodd" d="M43.2793 13.6172L43.8831 14.2172L43.6904 14.4084L43.2793 13.9999L42.8682 14.4084L42.6754 14.2172L43.2793 13.6172ZM45.3142 16.0218L44.2993 15.0134L44.492 14.8223L45.5069 15.8307L45.3142 16.0218ZM42.2591 15.0134L41.2441 16.0219L41.0514 15.8308L42.0664 14.8223L42.2591 15.0134ZM46.938 17.6353L45.9231 16.6269L46.1158 16.4358L47.1307 17.4442L46.938 17.6353ZM40.6351 16.627L39.6201 17.6354L39.4273 17.4443L40.4423 16.4358L40.6351 16.627ZM48.5618 19.2488L47.5469 18.2404L47.7397 18.0493L48.7545 19.0577L48.5618 19.2488ZM39.011 18.2405L37.996 19.2489L37.8033 19.0578L38.8183 18.0493L39.011 18.2405ZM50.1856 20.8623L49.1707 19.8539L49.3634 19.6628L50.3783 20.6712L50.1856 20.8623ZM37.387 19.854L36.3719 20.8625L36.1792 20.6713L37.1942 19.6629L37.387 19.854ZM51.3019 21.9716L50.7945 21.4674L50.9873 21.2762L51.4947 21.7805C51.5825 21.8677 51.68 21.943 51.7848 22.0054L51.6446 22.2373C51.5209 22.1636 51.4056 22.0746 51.3019 21.9716ZM35.7629 21.4675L35.2554 21.9718C35.1517 22.0748 35.0365 22.1637 34.9127 22.2374L34.7726 22.0055C34.8773 21.9431 34.9749 21.8678 35.0627 21.7806L35.5702 21.2764L35.7629 21.4675ZM52.5577 22.4884C52.411 22.4884 52.2661 22.4703 52.1261 22.4355L52.1924 22.1732C52.3109 22.2027 52.4335 22.218 52.5577 22.218H53.2754V22.4884H52.5577ZM34.4313 22.4355C34.2913 22.4704 34.1465 22.4884 33.9998 22.4884H33.2821V22.218H33.9998C34.124 22.218 34.2466 22.2027 34.365 22.1732L34.4313 22.4355ZM22.3805 22.218H23.2344V22.4884H22.653V23.0663H22.3805V22.218ZM25.531 22.4884H24.0957V22.218H25.531V22.4884ZM27.8276 22.4884H26.3923V22.218H27.8276V22.4884ZM30.1243 22.4884H28.6889V22.218H30.1243V22.4884ZM32.4209 22.4884H30.9855V22.218H32.4209V22.4884ZM55.572 22.4884H54.1366V22.218H55.572V22.4884ZM57.8685 22.4884H56.4332V22.218H57.8685V22.4884ZM60.1651 22.4884H58.7298V22.218H60.1651V22.4884ZM62.4617 22.4884H61.0263V22.218H62.4617V22.4884ZM63.9044 22.4884H63.3229V22.218H64.1768V23.0663H63.9044V22.4884ZM22.653 23.922V25.3482H22.3805V23.922H22.653ZM63.9044 25.3482V23.922H64.1768V25.3482H63.9044ZM22.653 26.2039V27.6301H22.3805V26.2039H22.653ZM63.9044 27.6301V26.2039H64.1768V27.6301H63.9044ZM22.653 28.4858V29.912H22.3805V28.4858H22.653ZM63.9044 29.912V28.4858H64.1768V29.912H63.9044ZM22.653 30.7677V32.1939H22.3805V30.7677H22.653ZM63.9044 32.1939V30.7677H64.1768V32.1939H63.9044ZM22.653 33.0496V33.7627C22.653 33.9083 22.6348 34.0522 22.5998 34.1912L22.3355 34.1256C22.3652 34.0079 22.3805 33.886 22.3805 33.7627V33.0496H22.653ZM63.9044 33.7627V33.0496H64.1768V33.7627C64.1768 33.886 64.1922 34.0079 64.2219 34.1256L63.9576 34.1913C63.9226 34.0522 63.9044 33.9084 63.9044 33.7627ZM22.4005 34.6694C22.3263 34.7924 22.2367 34.9069 22.133 35.01L21.6255 35.5142L21.4327 35.3231L21.9402 34.8189C22.0281 34.7316 22.1039 34.6346 22.1667 34.5305L22.4005 34.6694ZM64.4245 35.0102C64.3207 34.9071 64.2312 34.7925 64.157 34.6695L64.3908 34.5306C64.4536 34.6348 64.5294 34.7317 64.6172 34.819C64.6172 34.819 64.6172 34.819 64.6172 34.819L65.1248 35.3232L64.9321 35.5144L64.4245 35.0102ZM21.0164 36.1193L20.0014 37.1278L19.8086 36.9366L20.8237 35.9282L21.0164 36.1193ZM66.5564 37.1279L65.5412 36.1195L65.7339 35.9283L66.7491 36.9367L66.5564 37.1279ZM19.3923 37.7328L18.3773 38.7413L18.1846 38.5501L19.1996 37.5417L19.3923 37.7328ZM68.1807 38.7414L67.1655 37.7329L67.3582 37.5418L68.3734 38.5502L68.1807 38.7414ZM17.7683 39.3463L16.7532 40.3548L16.5605 40.1636L17.5755 39.1552L17.7683 39.3463ZM69.805 40.3548L68.7898 39.3464L68.9826 39.1553L69.9978 40.1637L69.805 40.3548ZM16.1442 40.9599L15.1291 41.9683L14.9364 41.7772L15.9514 40.7687L16.1442 40.9599ZM71.4293 41.9683L70.4142 40.9599L70.6069 40.7687L71.6221 41.7772L71.4293 41.9683ZM14.1088 42.982L14.5201 42.5734L14.3274 42.3822L13.7236 42.982L14.3274 43.5818L14.5201 43.3906L14.1088 42.982ZM72.4498 42.982L72.0385 42.5734L72.2312 42.3822L72.835 42.982L72.2312 43.5818L72.0385 43.3906L72.4498 42.982ZM70.4142 45.0041L71.4293 43.9957L71.6221 44.1868L70.6069 45.1952L70.4142 45.0041ZM15.1291 43.9957L16.1441 45.0041L15.9514 45.1952L14.9364 44.1868L15.1291 43.9957ZM68.7898 46.6175L69.805 45.6091L69.9978 45.8003L68.9826 46.8086L68.7898 46.6175ZM16.7532 45.6091L17.7682 46.6175L17.5755 46.8086L16.5604 45.8002L16.7532 45.6091ZM67.1655 48.2309L68.1807 47.2225L68.3734 47.4137L67.3582 48.4221L67.1655 48.2309ZM18.3772 47.2225L19.3923 48.2309L19.1995 48.4221L18.1845 47.4137L18.3772 47.2225ZM65.5412 49.8443L66.5564 48.8359L66.7491 49.0271L65.7339 50.0355L65.5412 49.8443ZM20.0013 48.8359L21.0163 49.8443L20.8236 50.0355L19.8085 49.0271L20.0013 48.8359ZM64.4245 50.9536L64.9321 50.4494L65.1248 50.6405L64.6172 51.1447C64.5294 51.232 64.4536 51.329 64.3908 51.4331L64.157 51.2942C64.2312 51.1712 64.3208 51.0566 64.4245 50.9536ZM21.6253 50.4494L22.1328 50.9536C22.2366 51.0567 22.3262 51.1712 22.4004 51.2942L22.1666 51.4331C22.1038 51.329 22.0279 51.232 21.9401 51.1447L21.4326 50.6405L21.6253 50.4494ZM22.5997 51.7725C22.6348 51.9115 22.653 52.0553 22.653 52.201V52.9141H22.3805V52.2011C22.3805 52.0777 22.3651 51.9558 22.3354 51.8381L22.5997 51.7725ZM63.9044 52.201C63.9044 52.0553 63.9225 51.9115 63.9576 51.7725L64.2219 51.8381C64.1922 51.9558 64.1768 52.0777 64.1768 52.2011V52.9141H63.9044V52.201ZM22.653 53.7698V55.196H22.3805V53.7698H22.653ZM63.9044 55.196V53.7698H64.1768V55.196H63.9044ZM22.653 56.0516V57.4778H22.3805V56.0516H22.653ZM63.9044 57.4778V56.0516H64.1768V57.4778H63.9044ZM22.653 58.3335V59.7596H22.3805V58.3335H22.653ZM63.9044 59.7596V58.3335H64.1768V59.7596H63.9044ZM22.653 60.6153V62.0414H22.3805V60.6153H22.653ZM63.9044 62.0414V60.6153H64.1768V62.0414H63.9044ZM22.653 63.475V62.8971H22.3805V63.7454H23.2344V63.475H22.653ZM63.9044 63.475V62.8971H64.1768V63.7454H63.3229V63.475H63.9044ZM24.0957 63.475H25.531V63.7454H24.0957V63.475ZM26.3923 63.475H27.8276V63.7454H26.3923V63.475ZM28.6889 63.475H30.1243V63.7454H28.6889V63.475ZM30.9855 63.475H32.4209V63.7454H30.9855V63.475ZM33.2821 63.475H33.9998C34.0726 63.475 34.1452 63.4794 34.2172 63.4882L34.1838 63.7566C34.1229 63.7492 34.0614 63.7454 33.9998 63.7454H33.2821V63.475ZM52.1261 63.528C52.2661 63.4931 52.4109 63.475 52.5577 63.475H53.2754V63.7454H52.5577C52.4335 63.7454 52.3109 63.7607 52.1924 63.7903L52.1261 63.528ZM54.1366 63.475H55.572V63.7454H54.1366V63.475ZM56.4332 63.475H57.8685V63.7454H56.4332V63.475ZM58.7298 63.475H60.1651V63.7454H58.7298V63.475ZM61.0263 63.475H62.4617V63.7454H61.0263V63.475ZM34.4734 63.5389C34.5433 63.5581 34.6121 63.5816 34.6794 63.6093C34.7467 63.637 34.812 63.6687 34.8751 63.7042L34.7407 63.9394C34.6873 63.9094 34.632 63.8825 34.575 63.8591C34.5181 63.8356 34.4599 63.8158 34.4007 63.7995L34.4734 63.5389ZM51.302 63.9918C51.4057 63.8888 51.5209 63.7998 51.6446 63.7261L51.7848 63.9581C51.6801 64.0204 51.5825 64.0957 51.4947 64.183C51.4947 64.183 51.4947 64.1829 51.4947 64.183L50.9873 64.6872L50.7945 64.4961L51.302 63.9918ZM35.0923 63.8485C35.1495 63.8928 35.204 63.9407 35.2554 63.9919L35.7629 64.4961L35.5702 64.6872L35.0627 64.183C35.0191 64.1396 34.9729 64.0991 34.9246 64.0616L35.0923 63.8485ZM36.3719 65.1012L37.387 66.1096L37.1942 66.3008L36.1792 65.2923L36.3719 65.1012ZM49.1707 66.1097L50.1856 65.1012L50.3783 65.2923L49.3635 66.3008L49.1707 66.1097ZM37.996 66.7147L39.011 67.7232L38.8183 67.9144L37.8033 66.9059L37.996 66.7147ZM47.5469 67.7232L48.5618 66.7148L48.7545 66.9059L47.7397 67.9144L47.5469 67.7232ZM39.6201 68.3283L40.6351 69.3368L40.4423 69.528L39.4273 68.5195L39.6201 68.3283ZM45.9231 69.3368L46.938 68.3283L47.1307 68.5195L46.1159 69.5279L45.9231 69.3368ZM41.2441 69.9419L42.2591 70.9504L42.0664 71.1415L41.0514 70.133L41.2441 69.9419ZM44.2993 70.9504L45.3142 69.9419L45.5069 70.133L44.4921 71.1415L44.2993 70.9504ZM43.2793 71.964L42.8682 71.5555L42.6754 71.7466L43.2793 72.3466L43.8831 71.7466L43.6904 71.5555L43.2793 71.964Z" fill="#207F16"/>
<path d="M50.7321 33.8309C48.9094 34.0365 47.9073 37.0751 47.8266 37.3296C47.8689 37.216 48.1162 36.7261 49.3882 36.0736C50.8445 35.3228 53.7541 36.9282 53.7541 36.9282C52.4131 38.1019 49.9458 38.2087 47.932 37.9933C45.917 37.7769 46.0274 33.5107 45.917 30.2044C45.8027 26.8955 45.1318 27.2162 45.1318 27.2162C45.1318 27.2162 45.244 25.7184 43.7908 32.5503C42.333 39.3786 34.495 41.0853 34.495 41.0853C38.8638 41.7284 41.9975 39.7001 43.1143 37.567C44.2361 35.431 45.0164 30.9484 45.0164 30.9484C45.0164 37.3545 45.579 38.9531 47.2599 39.7001C48.9399 40.451 52.1874 39.3825 54.5394 38.5273C55.5878 38.1982 56.6938 38.0897 57.7868 38.2087L59.1288 36.1818C59.1288 36.1818 57.2232 36.2855 55.8833 35.7554C54.5394 35.2205 52.6367 33.6194 50.7321 33.8309Z" fill="#3A683D"/>
<path d="M36.3984 37.7813C36.8482 36.7153 36.062 30.9483 36.062 29.453C36.0345 28.6357 36.2274 27.8259 36.6206 27.1075C35.8393 26.6792 35.2816 24.7575 35.2816 24.7575C34.98 25.3461 34.643 25.9162 34.2727 26.4647C34.2727 26.4647 36.5117 37.0363 35.054 38.3114C33.6007 39.5914 30.6877 39.8093 29.0098 38.7446C27.3278 37.6751 29.1191 34.2572 29.1191 34.2572C28.1107 35.4309 27.3278 36.8195 27.4406 38.3114C27.5519 39.8093 28.6718 41.2992 31.3597 41.4078C34.0456 41.5155 35.9487 38.8479 36.3984 37.7813Z" fill="#3A683D"/>
<path d="M39.7585 32.6581C40.9892 33.5106 41.6621 36.1818 41.6621 36.1818C42.3336 30.2043 36.8484 28.4966 36.8484 28.4966C36.8484 28.4966 36.7346 28.8152 36.8484 30.4143C36.9588 32.0202 38.5235 31.8039 39.7585 32.6581Z" fill="#3A683D"/>
<path d="M90.9998 65.5725L88.6744 64.4205C84.6863 62.4226 80.3995 61.0781 75.9798 60.4387C50.9301 56.9322 25.8804 69.8911 0.830688 62.2682V62.2762C0.879658 63.4926 1.0701 64.6993 1.3982 65.8722C4.05629 76.1017 13.7965 82.8491 24.4069 82.1527C42.0662 80.9936 59.7254 75.3829 77.3847 78.2984C80.9435 78.9043 84.3794 80.0812 87.5579 81.7831C88.2561 82.1526 88.7765 82.4166 88.7765 82.4166L82.94 71.0951L90.9998 65.5725Z" fill="url(#paint0_linear)"/>
<path d="M37.2796 54.9388C37.5149 54.9388 37.6326 54.8247 37.6326 54.5963C37.6326 54.5824 37.6396 54.5754 37.6536 54.5754H37.7168C37.7309 54.5754 37.7379 54.5824 37.7379 54.5963V55.5689C37.7379 55.5828 37.7309 55.5898 37.7168 55.5898H37.6536C37.6396 55.5898 37.6326 55.5828 37.6326 55.5689C37.6326 55.4085 37.5869 55.2979 37.4956 55.2369C37.4464 55.2037 37.3762 55.1872 37.2849 55.1872H36.2472C36.205 55.1872 36.184 55.2107 36.184 55.2578V56.6015C36.184 56.72 36.2551 56.8081 36.3973 56.8656C36.5413 56.9213 36.6317 56.9492 36.6686 56.9492C36.7072 56.9492 36.7265 56.9562 36.7265 56.9701V57.0329C36.7265 57.0468 36.7195 57.0538 36.7055 57.0538H35.2674C35.2534 57.0538 35.2463 57.0468 35.2463 57.0329V56.9701C35.2463 56.9562 35.2613 56.9492 35.2911 56.9492C35.321 56.9492 35.3675 56.9353 35.4307 56.9074C35.4939 56.8795 35.5492 56.8386 35.5966 56.7845C35.6458 56.7288 35.6704 56.6617 35.6704 56.5832V53.7598C35.6704 53.6465 35.6098 53.5654 35.4886 53.5166C35.4184 53.487 35.3491 53.4722 35.2806 53.4722H35.27C35.256 53.4722 35.249 53.4652 35.249 53.4513V53.3885C35.249 53.3746 35.256 53.3676 35.27 53.3676H37.7537C37.7748 53.3711 37.7906 53.3763 37.8011 53.3833C37.8117 53.3885 37.8169 53.4033 37.8169 53.4277V54.0604C37.8169 54.0813 37.8134 54.0944 37.8064 54.0996C37.8011 54.1049 37.7906 54.1075 37.7748 54.1075H37.7432C37.7397 54.1057 37.7274 54.0587 37.7063 53.9663C37.687 53.8722 37.6563 53.7998 37.6141 53.7493C37.5421 53.6726 37.4605 53.6299 37.3692 53.6212C37.3323 53.6177 37.2875 53.616 37.2349 53.616H36.2366C36.2015 53.616 36.184 53.6334 36.184 53.6683V54.8787C36.184 54.9188 36.205 54.9388 36.2472 54.9388H37.2796Z" fill="#3A683D"/>
<path d="M41.4726 56.829C41.3199 56.9213 41.1531 56.9937 40.9722 57.046C40.7914 57.0982 40.6307 57.1244 40.4902 57.1244C40.2023 57.1244 39.9275 57.0782 39.6659 56.9858C39.3077 56.8569 39.0197 56.666 38.802 56.4133C38.5245 56.0909 38.3858 55.6822 38.3858 55.1872C38.3858 54.8299 38.478 54.5048 38.6624 54.212C38.8467 53.9175 39.1013 53.6848 39.4262 53.514C39.7528 53.3432 40.1031 53.2578 40.4771 53.2578C40.8528 53.2578 41.1891 53.3406 41.4858 53.5062C41.7826 53.6717 42.0205 53.8992 42.1996 54.1885C42.3787 54.4778 42.4682 54.7915 42.4682 55.1297C42.4682 55.466 42.3796 55.7867 42.2022 56.0917C42.0249 56.395 41.7817 56.6407 41.4726 56.829ZM38.9389 55.1035C38.9389 55.3928 39.003 55.6804 39.1312 55.9662C39.2611 56.2503 39.4464 56.4821 39.6869 56.6617C39.9275 56.8412 40.2058 56.9309 40.5218 56.9309C40.9713 56.9309 41.3216 56.7601 41.5727 56.4185C41.7992 56.11 41.9125 55.7161 41.9125 55.2369C41.9125 54.7576 41.7738 54.3445 41.4964 53.9977C41.3611 53.8286 41.1952 53.6935 40.9986 53.5924C40.8037 53.4896 40.6061 53.4382 40.406 53.4382C40.2075 53.4382 40.0442 53.46 39.9161 53.5036C39.7896 53.5471 39.6746 53.6073 39.571 53.6839C39.4674 53.7589 39.3761 53.8486 39.2971 53.9532C39.2181 54.0578 39.1523 54.1711 39.0996 54.2931C38.9925 54.5441 38.9389 54.8142 38.9389 55.1035Z" fill="#3A683D"/>
<path d="M46.1345 56.829C45.9817 56.9213 45.8149 56.9937 45.6341 57.046C45.4532 57.0982 45.2925 57.1244 45.1521 57.1244C44.8641 57.1244 44.5893 57.0782 44.3277 56.9858C43.9695 56.8569 43.6815 56.666 43.4638 56.4133C43.1864 56.0909 43.0477 55.6822 43.0477 55.1872C43.0477 54.8299 43.1398 54.5048 43.3242 54.212C43.5086 53.9175 43.7632 53.6848 44.088 53.514C44.4146 53.3432 44.7649 53.2578 45.1389 53.2578C45.5147 53.2578 45.8509 53.3406 46.1476 53.5062C46.4444 53.6717 46.6823 53.8992 46.8614 54.1885C47.0405 54.4778 47.1301 54.7915 47.1301 55.1297C47.1301 55.466 47.0414 55.7867 46.864 56.0917C46.6867 56.395 46.4435 56.6407 46.1345 56.829ZM43.6008 55.1035C43.6008 55.3928 43.6648 55.6804 43.793 55.9662C43.923 56.2503 44.1082 56.4821 44.3488 56.6617C44.5893 56.8412 44.8676 56.9309 45.1837 56.9309C45.6332 56.9309 45.9835 56.7601 46.2346 56.4185C46.4611 56.11 46.5743 55.7161 46.5743 55.2369C46.5743 54.7576 46.4356 54.3445 46.1582 53.9977C46.023 53.8286 45.857 53.6935 45.6604 53.5924C45.4655 53.4896 45.268 53.4382 45.0678 53.4382C44.8694 53.4382 44.7061 53.46 44.5779 53.5036C44.4515 53.5471 44.3365 53.6073 44.2329 53.6839C44.1293 53.7589 44.038 53.8486 43.959 53.9532C43.8799 54.0578 43.8141 54.1711 43.7614 54.2931C43.6543 54.5441 43.6008 54.8142 43.6008 55.1035Z" fill="#3A683D"/>
<path d="M47.5383 53.3807C47.5383 53.3667 47.5453 53.3598 47.5594 53.3598H47.6173L48.4628 53.3415C48.5646 53.338 48.6752 53.3362 48.7946 53.3362H49.1238C49.4294 53.3362 49.6585 53.3476 49.8113 53.3702C49.9658 53.3929 50.1168 53.4199 50.2643 53.4513C50.4135 53.4809 50.5716 53.5497 50.7384 53.6578C50.9069 53.7659 51.0527 53.8966 51.1756 54.05C51.4354 54.3776 51.5654 54.7314 51.5654 55.1114C51.5654 55.4913 51.4653 55.832 51.2651 56.1336C50.9772 56.571 50.5601 56.8569 50.0141 56.9911C49.8402 57.0329 49.662 57.0538 49.4794 57.0538H47.5594C47.5453 57.0538 47.5383 57.0468 47.5383 57.0329V56.9597C47.5383 56.9457 47.5453 56.9388 47.5594 56.9388H47.6173C47.9369 56.9388 48.0967 56.8377 48.0967 56.6355V53.7702C48.0967 53.6726 48.0589 53.5994 47.9834 53.5506C47.9079 53.5001 47.8227 53.4748 47.7279 53.4748H47.5594C47.5453 53.4748 47.5383 53.4678 47.5383 53.4539V53.3807ZM48.6761 53.4591C48.6322 53.4591 48.6103 53.4826 48.6103 53.5297V56.727C48.6103 56.856 48.7323 56.9231 48.9763 56.9283C49.0483 56.9301 49.1238 56.9309 49.2029 56.9309C49.763 56.9309 50.2028 56.7749 50.5224 56.463C50.8437 56.151 51.0044 55.7362 51.0044 55.2186C51.0044 54.6992 50.856 54.2765 50.5593 53.9506C50.2643 53.6229 49.8754 53.4591 49.3925 53.4591H48.6761Z" fill="#3A683D"/>
<path d="M18.8554 15.5501C19.0048 15.7043 19.1903 15.682 19.4119 15.4833C19.4211 15.4745 19.4301 15.4747 19.439 15.4838L19.4788 15.525C19.4877 15.5341 19.4875 15.5431 19.4783 15.5519L18.3814 16.6006C18.3722 16.6094 18.3632 16.6093 18.3543 16.6001L18.3145 16.559C18.3057 16.5499 18.33 16.5178 18.3875 16.4628C18.445 16.4079 18.4983 16.3326 18.5476 16.2372C18.6248 16.0929 18.6214 15.9773 18.5373 15.8905L17.7457 15.0732C17.7346 15.0618 17.7257 15.056 17.7189 15.0559C17.7122 15.0557 17.703 15.0612 17.6915 15.0722L16.3325 16.3716C16.321 16.3826 16.3152 16.3914 16.3151 16.3981C16.315 16.4049 16.3204 16.4139 16.3315 16.4254L17.1397 17.2598C17.2725 17.3969 17.4406 17.3681 17.6442 17.1736C17.6534 17.1648 17.6624 17.1649 17.6712 17.1741L17.7111 17.2152C17.7199 17.2243 17.7203 17.2327 17.7123 17.2404L16.7603 18.1507C16.7511 18.1595 16.742 18.1593 16.7332 18.1502L16.6934 18.1091C16.6845 18.0999 16.6916 18.0844 16.7146 18.0624C16.9066 17.8788 16.9235 17.7053 16.7653 17.542L14.9944 15.7137C14.865 15.5801 14.7165 15.5856 14.5489 15.7305C14.5237 15.7524 14.5066 15.7588 14.4977 15.7497L14.4662 15.7171C14.4574 15.708 14.457 15.6996 14.465 15.6919L15.3308 14.8641C15.34 14.8553 15.349 14.8554 15.3578 14.8646L15.3894 14.8971C15.396 14.904 15.3884 14.9179 15.3666 14.9387C15.2022 15.0959 15.198 15.2551 15.354 15.4161L16.1207 16.2078C16.1318 16.2192 16.1407 16.225 16.1475 16.2251C16.1542 16.2252 16.1634 16.2198 16.1749 16.2088L17.5339 14.9094C17.5454 14.8984 17.5512 14.8895 17.5513 14.8828C17.5514 14.8761 17.546 14.867 17.5349 14.8556L16.7416 14.0365C16.7293 14.0285 16.7188 14.021 16.7099 14.0141C16.701 14.0049 16.686 13.9929 16.6649 13.9779C16.6192 13.9468 16.548 13.9544 16.4511 14.0007C16.3532 14.046 16.2544 14.1097 16.1546 14.1919C16.1454 14.2007 16.1364 14.2005 16.1275 14.1914L16.096 14.1588C16.0871 14.1497 16.0867 14.1412 16.0948 14.1336L17.0899 13.1821C17.0991 13.1733 17.1081 13.1735 17.117 13.1826L17.1485 13.2151C17.1551 13.222 17.1475 13.2359 17.1257 13.2568C16.9555 13.4195 16.9485 13.5813 17.1045 13.7424L18.8554 15.5501Z" fill="#3A683D"/>
<path d="M20.4263 14.8062C20.4341 14.8162 20.433 14.8251 20.423 14.8329L19.4595 15.5817C19.4495 15.5895 19.4405 15.5884 19.4326 15.5784L19.3972 15.5335C19.3894 15.5235 19.3936 15.5121 19.41 15.4994C19.5763 15.3581 19.6208 15.1766 19.5435 14.9549L18.5713 12.1452C18.5706 12.1418 18.5688 12.1381 18.5658 12.1344L18.4965 12.0887C18.4915 12.0825 18.4916 12.0774 18.4966 12.0735L18.8737 11.7804C18.8772 11.7797 18.8813 11.7785 18.8861 11.7768C18.8921 11.7742 18.8988 11.775 18.9062 11.7793L21.454 13.3825C21.4982 13.4025 21.5361 13.4224 21.5678 13.442C21.6007 13.4607 21.6329 13.4759 21.6645 13.4877C21.7349 13.5154 21.8155 13.5161 21.9063 13.4899C21.9867 13.4737 22.0508 13.447 22.0986 13.4099C22.1087 13.4021 22.1181 13.4038 22.1269 13.415L22.1609 13.4581C22.1687 13.4681 22.1676 13.477 22.1576 13.4848L21.0037 14.3816C20.9936 14.3894 20.9847 14.3883 20.9768 14.3783L20.9414 14.3334C20.9336 14.3234 20.9519 14.2991 20.9964 14.2604C21.041 14.2218 21.0773 14.1895 21.1055 14.1635C21.2655 14.009 21.3067 13.8824 21.229 13.7838C21.2231 13.7763 21.215 13.7686 21.2046 13.7605L20.2918 13.184C20.2885 13.1824 20.2816 13.1788 20.2709 13.173C20.2224 13.1422 20.1793 13.1415 20.1416 13.1708L19.4723 13.691C19.4346 13.7203 19.4213 13.7639 19.4323 13.8217C19.4354 13.8334 19.4375 13.8398 19.4385 13.8411L19.803 14.8831L19.8162 14.8999C19.8418 14.9324 19.8819 14.9485 19.9365 14.9484C20.0593 14.9475 20.1855 14.8967 20.315 14.7961L20.364 14.758C20.374 14.7502 20.383 14.7513 20.3909 14.7612L20.4263 14.8062ZM19.9138 13.0128C19.9365 12.9952 19.9404 12.977 19.9257 12.9583C19.9178 12.9483 19.9064 12.939 19.8916 12.9304L19.0061 12.3809C18.967 12.357 18.9443 12.3474 18.938 12.3523C18.9317 12.3572 18.9354 12.3825 18.9491 12.4282L19.2882 13.3994C19.293 13.4157 19.3013 13.4314 19.3131 13.4464C19.324 13.4602 19.3388 13.4597 19.3576 13.445L19.9138 13.0128Z" fill="#3A683D"/>
<path d="M22.4043 13.3288C22.3935 13.3358 22.3846 13.3339 22.3777 13.3233L22.3464 13.2754C22.3395 13.2648 22.3414 13.256 22.3521 13.2491L22.4006 13.2178C22.5162 13.1433 22.6014 13.0543 22.6562 12.9509C22.6782 12.9084 22.6871 12.8592 22.683 12.8032C22.6781 12.7459 22.6587 12.6914 22.6248 12.6395L21.2463 10.5296C21.1925 10.4471 21.0974 10.4187 20.9612 10.4442C20.865 10.4608 20.7746 10.4965 20.6899 10.5511L20.6455 10.5797C20.6347 10.5867 20.6259 10.5848 20.6189 10.5742L20.5877 10.5263C20.5807 10.5157 20.5826 10.5069 20.5934 10.5L21.959 9.61924C21.9698 9.6123 21.9786 9.61415 21.9856 9.62478L22.0169 9.67265C22.0238 9.68328 22.0219 9.69207 22.0111 9.69901L21.9244 9.75495C21.7859 9.84428 21.6761 9.94248 21.5951 10.0496C21.5711 10.0801 21.5626 10.1111 21.5697 10.1424C21.5773 10.1716 21.6006 10.216 21.6397 10.2759L23.0846 12.4875C23.1021 12.5084 23.1281 12.5219 23.1626 12.5279C23.1972 12.534 23.2279 12.5284 23.2548 12.511L24.0516 11.9972C24.1713 11.92 24.2433 11.7743 24.2678 11.5601C24.2744 11.5029 24.2806 11.429 24.2863 11.3384C24.2912 11.2464 24.2965 11.1929 24.302 11.178C24.3242 11.1184 24.3461 11.1052 24.3679 11.1384C24.3731 11.1464 24.3763 11.1557 24.3774 11.1662L24.4585 11.953C24.462 11.9847 24.4557 12.0058 24.4396 12.0162L22.4043 13.3288Z" fill="#3A683D"/>
<path d="M25.7639 11.2504C25.7699 11.2616 25.7672 11.2701 25.756 11.2761L24.675 11.8453C24.6637 11.8513 24.6551 11.8487 24.6491 11.8375L24.6222 11.787C24.6163 11.7758 24.6224 11.7654 24.6408 11.7558C24.8295 11.6456 24.9054 11.4747 24.8685 11.243L24.4081 8.30769C24.408 8.30415 24.4068 8.30027 24.4046 8.29607L24.3443 8.23901C24.3406 8.23201 24.3416 8.22702 24.3472 8.22405L24.7703 8.00125C24.7738 8.00116 24.7781 8.00071 24.7831 7.99988C24.7895 7.99831 24.7959 8.00028 24.8025 8.0058L27.0275 10.0279C27.0674 10.0554 27.1012 10.0815 27.1289 10.1064C27.1581 10.1305 27.1871 10.1511 27.2161 10.1681C27.2806 10.2077 27.3598 10.2225 27.4538 10.2124C27.5358 10.2105 27.6037 10.1954 27.6573 10.1672C27.6685 10.1612 27.6775 10.1646 27.6843 10.1772L27.71 10.2255C27.716 10.2367 27.7134 10.2453 27.7021 10.2512L26.4075 10.933C26.3962 10.9389 26.3876 10.9363 26.3816 10.9251L26.3547 10.8747C26.3487 10.8635 26.3711 10.8427 26.4218 10.8124C26.4725 10.7822 26.514 10.7567 26.5463 10.7361C26.7311 10.6118 26.794 10.4944 26.735 10.3838C26.7305 10.3754 26.7239 10.3663 26.7151 10.3566L25.9183 9.62998C25.9154 9.62792 25.9092 9.6231 25.8997 9.61553C25.8574 9.57683 25.8151 9.56862 25.7728 9.5909L25.0218 9.98637C24.9795 10.0087 24.9587 10.0492 24.9594 10.108C24.9604 10.1201 24.9613 10.1268 24.962 10.1282L25.1367 11.2174L25.1468 11.2364C25.1662 11.2728 25.2028 11.2956 25.2566 11.305C25.3777 11.3255 25.5109 11.2975 25.6561 11.221L25.7111 11.1921C25.7224 11.1861 25.7311 11.1888 25.737 11.2L25.7639 11.2504ZM25.5765 9.39561C25.6019 9.38224 25.609 9.36506 25.5977 9.34405C25.5918 9.33285 25.5822 9.32173 25.5691 9.3107L24.7945 8.61545C24.7602 8.58507 24.7395 8.57173 24.7325 8.57544C24.7254 8.57916 24.7246 8.6047 24.73 8.65208L24.8922 9.66718C24.894 9.68415 24.8994 9.70104 24.9084 9.71785C24.9166 9.73325 24.9313 9.73538 24.9525 9.72424L25.5765 9.39561Z" fill="#3A683D"/>
<path d="M27.9736 10.1403C27.9618 10.1453 27.9535 10.1419 27.9485 10.1302L27.9262 10.0776C27.9213 10.0659 27.9247 10.0576 27.9365 10.0527L27.9894 10.0305C28.1159 9.97761 28.2151 9.90515 28.287 9.81317C28.3159 9.77526 28.3333 9.72843 28.3391 9.67269C28.3443 9.61549 28.3349 9.5584 28.3107 9.50144L27.3281 7.1835C27.2898 7.09294 27.2015 7.04818 27.0634 7.04923C26.9661 7.04865 26.8712 7.06775 26.7785 7.10653L26.73 7.12684C26.7182 7.13176 26.7098 7.12838 26.7049 7.1167L26.6826 7.06412C26.6776 7.05243 26.6811 7.04413 26.6928 7.0392L28.1867 6.41411C28.1984 6.40918 28.2068 6.41256 28.2117 6.42425L28.234 6.47683C28.239 6.48851 28.2356 6.49682 28.2238 6.50174L28.1289 6.54145C27.9774 6.60485 27.8525 6.68204 27.7543 6.77303C27.7254 6.79887 27.7117 6.82782 27.7131 6.85988C27.7155 6.88986 27.7306 6.93772 27.7584 7.00345L28.7884 9.43313C28.8018 9.45672 28.825 9.47455 28.8578 9.48661C28.8906 9.49867 28.9217 9.49855 28.9512 9.48624L29.8228 9.12152C29.9537 9.06674 30.0499 8.93619 30.1114 8.7299C30.1279 8.67484 30.1469 8.60326 30.1684 8.51514C30.1894 8.42556 30.2038 8.37393 30.2119 8.36024C30.2441 8.30549 30.268 8.29637 30.2834 8.33289C30.2871 8.34165 30.2887 8.35134 30.288 8.36195L30.2297 9.14987C30.2276 9.1817 30.2177 9.20131 30.2 9.2087L27.9736 10.1403Z" fill="#3A683D"/>
<path d="M33.0561 6.26428C33.2614 6.20448 33.3346 6.07497 33.2758 5.87576C33.2722 5.86359 33.2766 5.85573 33.2888 5.85216L33.344 5.83609C33.3562 5.83252 33.3641 5.83681 33.3677 5.84898L33.6182 6.69752C33.6218 6.70969 33.6174 6.71756 33.6052 6.72113L33.55 6.7372C33.5378 6.74077 33.5299 6.73647 33.5263 6.7243C33.485 6.5844 33.4166 6.49944 33.3213 6.46942C33.2699 6.45303 33.2043 6.45643 33.1247 6.47964L32.2194 6.74342C32.1826 6.75413 32.1703 6.78001 32.1824 6.82107L32.5285 7.99352C32.559 8.09693 32.6437 8.15565 32.7826 8.16968C32.9226 8.18174 33.0086 8.18309 33.0408 8.17371C33.0745 8.1639 33.0932 8.16507 33.0968 8.17723L33.1129 8.23198C33.1165 8.24414 33.1122 8.25201 33.0999 8.25558L31.8454 8.62112C31.8331 8.62469 31.8252 8.62039 31.8216 8.60822L31.8055 8.55348C31.8019 8.54131 31.8131 8.53144 31.8391 8.52385C31.8652 8.51626 31.9022 8.49227 31.9501 8.45187C31.9981 8.41147 32.0358 8.36168 32.0632 8.30248C32.0918 8.24133 32.0959 8.17653 32.0757 8.1081L31.3486 5.64459C31.3194 5.54574 31.2457 5.49043 31.1274 5.47864C31.0585 5.47065 30.9942 5.47535 30.9345 5.49276L30.9253 5.49543C30.913 5.499 30.9051 5.49471 30.9015 5.48254L30.8854 5.4278C30.8818 5.41563 30.8861 5.40776 30.8984 5.40419L33.0651 4.77288C33.0843 4.77056 33.0995 4.77111 33.1105 4.77451C33.121 4.7764 33.1294 4.78799 33.1357 4.80928L33.2986 5.36128C33.304 5.37953 33.3043 5.39183 33.2995 5.39818C33.2963 5.40408 33.2878 5.40904 33.274 5.41305L33.2464 5.42109C33.2429 5.42046 33.2201 5.38253 33.1779 5.30729C33.1368 5.23008 33.0914 5.17478 33.0416 5.14139C32.959 5.09278 32.8768 5.07628 32.7949 5.09188C32.7618 5.09821 32.7223 5.10807 32.6764 5.12146L31.8056 5.37519C31.7749 5.38412 31.7641 5.40379 31.7731 5.4342L32.0848 6.49032C32.0951 6.5253 32.1187 6.53743 32.1554 6.52672L33.0561 6.26428Z" fill="#3A683D"/>
<path d="M37.3719 7.07462C37.2514 7.18302 37.1149 7.27591 36.9623 7.35329C36.8098 7.43066 36.6709 7.48126 36.5454 7.50509C36.2883 7.55394 36.0349 7.55931 35.7854 7.5212C35.4434 7.46679 35.1535 7.3452 34.9156 7.15645C34.6125 6.91557 34.4184 6.57411 34.3333 6.13207C34.2719 5.81299 34.2983 5.50707 34.4127 5.21431C34.5267 4.91999 34.714 4.66901 34.9748 4.46137C35.237 4.25344 35.5352 4.11775 35.8691 4.0543C36.2047 3.99056 36.5192 4.00745 36.8126 4.10498C37.1061 4.2025 37.3576 4.36526 37.5673 4.59325C37.7769 4.82124 37.9108 5.08622 37.9689 5.38817C38.0267 5.68857 38.0026 5.99 37.8967 6.29247C37.7905 6.59338 37.6155 6.85409 37.3719 7.07462ZM34.8128 5.96353C34.8625 6.2219 34.9692 6.46785 35.1328 6.70137C35.2976 6.93303 35.5029 7.10861 35.7486 7.22812C35.9942 7.34763 36.2582 7.38058 36.5404 7.32696C36.9418 7.25071 37.2252 7.03875 37.3908 6.69109C37.54 6.37717 37.5734 6.0062 37.4911 5.57817C37.4087 5.15014 37.2138 4.80479 36.9065 4.54211C36.7567 4.41407 36.5853 4.32159 36.3923 4.26468C36.2006 4.20591 36.0154 4.1935 35.8366 4.22746C35.6595 4.26112 35.5174 4.30828 35.4104 4.36893C35.305 4.42929 35.2126 4.5025 35.1333 4.58856C35.0537 4.67306 34.9876 4.76871 34.935 4.8755C34.8824 4.98229 34.8431 5.09463 34.817 5.21252C34.7645 5.45482 34.7631 5.70516 34.8128 5.96353Z" fill="#3A683D"/>
<path d="M41.4724 6.647C41.3398 6.74136 41.193 6.81853 41.0319 6.87851C40.8709 6.93849 40.7264 6.97337 40.5985 6.98314C40.3363 7.00317 40.0828 6.98042 39.8381 6.91488C39.5028 6.82288 39.2272 6.66991 39.0112 6.45596C38.736 6.18297 38.581 5.82211 38.5462 5.37341C38.5212 5.04951 38.5823 4.74844 38.7297 4.47018C38.8769 4.19034 39.0924 3.96171 39.3763 3.78427C39.6617 3.60672 39.9747 3.50493 40.3153 3.47891C40.6575 3.45277 40.9695 3.50443 41.2513 3.63388C41.5331 3.76334 41.7658 3.95297 41.9492 4.20279C42.1325 4.4526 42.2361 4.73076 42.2598 5.03728C42.2834 5.34221 42.2252 5.63909 42.0851 5.92792C41.9448 6.21517 41.7406 6.45486 41.4724 6.647ZM39.044 5.25909C39.0643 5.52137 39.1429 5.7776 39.2797 6.0278C39.4179 6.27629 39.6029 6.47354 39.8345 6.61954C40.0662 6.76554 40.3259 6.82755 40.6137 6.80557C41.0231 6.7743 41.3301 6.59509 41.5348 6.26795C41.7194 5.97254 41.7949 5.60759 41.7613 5.1731C41.7276 4.73861 41.5723 4.37381 41.2954 4.0787C41.1604 3.93485 40.9998 3.82395 40.8136 3.74599C40.6289 3.66633 40.4455 3.63346 40.2632 3.64739C40.0825 3.66119 39.9353 3.6923 39.8216 3.74071C39.7096 3.78901 39.6091 3.85152 39.5201 3.92824C39.431 4.00339 39.3542 4.09111 39.2895 4.1914C39.2249 4.29169 39.1729 4.39897 39.1335 4.51323C39.0536 4.7482 39.0237 4.99682 39.044 5.25909Z" fill="#3A683D"/>
<path d="M42.7093 3.44413C42.7097 3.43146 42.7163 3.42533 42.729 3.42574L42.7817 3.42742L43.5505 3.43526C43.6431 3.43504 43.7437 3.43666 43.8522 3.44011L44.1514 3.44964C44.429 3.45848 44.6369 3.47541 44.7751 3.50042C44.9148 3.52548 45.0512 3.5544 45.1844 3.58718C45.3191 3.61843 45.4607 3.68556 45.6091 3.78858C45.7591 3.89166 45.8877 4.01466 45.9949 4.15759C46.2215 4.46287 46.3292 4.78814 46.318 5.13341C46.3069 5.47868 46.2059 5.78541 46.0152 6.05362C45.7407 6.44282 45.3534 6.69049 44.8532 6.79664C44.694 6.82961 44.5314 6.84346 44.3655 6.83818L42.6207 6.7826C42.6079 6.78219 42.6018 6.77566 42.6022 6.76299L42.6043 6.69647C42.6047 6.6838 42.6113 6.67766 42.6241 6.67807L42.6767 6.67975C42.9671 6.689 43.1153 6.60176 43.1212 6.41804L43.2052 3.81428C43.2081 3.72558 43.1759 3.65797 43.1088 3.61144C43.0416 3.56332 42.965 3.53789 42.8788 3.53515L42.7257 3.53027C42.7129 3.52986 42.7067 3.52332 42.7071 3.51065L42.7093 3.44413ZM43.7409 3.54834C43.701 3.54707 43.6804 3.56781 43.679 3.61058L43.5853 6.51606C43.5815 6.63326 43.6904 6.69777 43.912 6.70958C43.9774 6.71325 44.046 6.71623 44.1178 6.71851C44.6268 6.73473 45.0311 6.60571 45.3306 6.33146C45.6317 6.05726 45.7899 5.68496 45.8051 5.21458C45.8203 4.7426 45.6979 4.35424 45.4378 4.04948C45.1793 3.74319 44.8307 3.58305 44.3919 3.56907L43.7409 3.54834Z" fill="#3A683D"/>
<path d="M50.9045 7.49286C50.8944 7.50403 50.8741 7.50383 50.8436 7.49227C50.8149 7.47941 50.7799 7.46953 50.7388 7.46262C50.6977 7.45571 50.6377 7.45447 50.5589 7.45891C50.4819 7.46205 50.3599 7.46725 50.1928 7.47453C50.0253 7.48336 49.8752 7.47662 49.7424 7.45431C49.442 7.40383 49.1621 7.28528 48.9027 7.09866C48.6452 6.91075 48.4536 6.67445 48.3281 6.38978C48.2028 6.10354 48.169 5.7909 48.2267 5.45184C48.2844 5.11279 48.4212 4.81998 48.6372 4.57341C48.9525 4.21174 49.3688 4.01168 49.886 3.97323C50.0508 3.96074 50.2123 3.96778 50.3704 3.99435C50.587 4.03075 50.8379 4.10986 51.1229 4.23168C51.2093 4.2687 51.2813 4.30411 51.339 4.3379C51.3983 4.37197 51.435 4.3902 51.4493 4.39259L51.5236 4.38579L51.5971 4.39815C51.6161 4.40134 51.6233 4.41621 51.6188 4.44277L51.4947 5.17166C51.4921 5.18729 51.4765 5.19271 51.4481 5.18793C51.4196 5.18315 51.4035 5.17723 51.3998 5.17018C51.3964 5.16157 51.3931 5.15218 51.39 5.14201C51.3871 5.13028 51.3834 5.11841 51.379 5.10641C51.3761 5.09468 51.3723 5.08359 51.3676 5.07315C51.3644 5.06298 51.3625 5.05542 51.3617 5.05047C51.2045 4.54031 50.8848 4.24472 50.4026 4.16368C49.9677 4.09062 49.6045 4.17021 49.3129 4.40246C49.0212 4.63471 48.837 4.97662 48.7601 5.42817C48.6835 5.87816 48.7521 6.28745 48.9658 6.65605C49.1812 7.02491 49.5205 7.24827 49.9838 7.32611C50.2368 7.36862 50.4795 7.33306 50.7119 7.21943C50.9459 7.10607 51.1405 6.95154 51.2958 6.75585C51.3006 6.747 51.3109 6.74391 51.3267 6.74657L51.3575 6.75175C51.3733 6.7544 51.3796 6.76511 51.3765 6.78386C51.3733 6.80261 51.3655 6.81978 51.353 6.83537L50.9045 7.49286Z" fill="#3A683D"/>
<path d="M51.1106 7.61308L51.1275 7.54868C51.1307 7.53641 51.1385 7.53188 51.1509 7.53509L51.2018 7.54831C51.2679 7.56053 51.3349 7.57546 51.4029 7.59308C51.4713 7.60917 51.5353 7.61676 51.5949 7.61585C51.7312 7.6119 51.8187 7.53632 51.8574 7.38912L52.4943 4.96493C52.5342 4.81313 52.4692 4.6931 52.2994 4.60483C52.2512 4.58088 52.2019 4.55826 52.1514 4.53697L52.1027 4.52435C52.0904 4.52115 52.0858 4.51341 52.089 4.50114L52.1035 4.44595C52.1067 4.43368 52.1145 4.42915 52.1269 4.43235L54.3302 5.00378C54.358 5.01099 54.3767 5.02156 54.3862 5.0355C54.3962 5.0479 54.3982 5.07137 54.3925 5.10591L54.2589 5.78372C54.2549 5.79905 54.2413 5.80372 54.2181 5.79771C54.195 5.7917 54.1798 5.78039 54.1726 5.76379C54.1674 5.74605 54.1697 5.68688 54.1797 5.58628C54.1911 5.48607 54.186 5.39876 54.1643 5.32435C54.1426 5.24993 54.0853 5.19167 53.9925 5.14957L53.0263 4.89901C53.0063 4.8938 52.9936 4.90116 52.9884 4.9211L52.676 6.11019C52.6719 6.12553 52.6776 6.1352 52.6931 6.1392L53.4947 6.3471C53.7017 6.40078 53.8366 6.30802 53.8994 6.06882C53.9027 6.05655 53.9105 6.05202 53.9228 6.05523L53.9784 6.06965C53.9908 6.07285 53.9953 6.08059 53.9921 6.09285L53.7335 7.07725C53.7303 7.08952 53.7225 7.09405 53.7101 7.09085L53.6545 7.07642C53.6422 7.07322 53.6376 7.06548 53.6408 7.05322C53.7004 6.82628 53.6685 6.67796 53.5449 6.60824C53.5102 6.58943 53.4721 6.57462 53.4304 6.5638L52.6357 6.3577C52.6202 6.3537 52.6105 6.35936 52.6065 6.37469L52.3122 7.49479C52.282 7.60979 52.3182 7.68878 52.4207 7.73175C52.4504 7.74436 52.4822 7.75507 52.5162 7.76389L53.2877 7.96398C53.4468 8.00524 53.5887 7.96752 53.7134 7.85081C53.8029 7.76757 53.8715 7.66335 53.9193 7.53816C53.9352 7.49643 53.964 7.48097 54.0057 7.49179C54.0242 7.49659 54.0309 7.50896 54.0256 7.5289L53.7462 8.28187C53.7312 8.30093 53.7176 8.30886 53.7053 8.30565L51.1243 7.63629C51.1119 7.63308 51.1074 7.62535 51.1106 7.61308Z" fill="#3A683D"/>
<path d="M54.0322 8.39584C54.0201 8.39161 54.0194 8.37455 54.03 8.34467L54.0396 8.31777C54.0439 8.30582 54.052 8.30196 54.0641 8.30619C54.0731 8.30936 54.0879 8.31289 54.1085 8.31677C54.1292 8.32065 54.1505 8.3248 54.1727 8.32921C54.1948 8.33363 54.2154 8.33751 54.2346 8.34087C54.2542 8.34273 54.2681 8.34423 54.2761 8.34538C54.4419 8.36493 54.5495 8.30523 54.5989 8.16628L55.441 5.79954C55.4868 5.67104 55.4673 5.56166 55.3826 5.47139C55.3326 5.41685 55.2722 5.37715 55.2015 5.35231L55.1157 5.32218C55.1036 5.31795 55.0997 5.30986 55.104 5.2979L55.1231 5.24411C55.1274 5.23216 55.1385 5.22936 55.1566 5.2357L56.4079 5.6374L56.6359 5.71749C56.8959 5.82898 57.0844 6.00359 57.2012 6.24131C57.3202 6.47807 57.3342 6.7242 57.2433 6.9797C57.1529 7.2337 56.9756 7.39415 56.7114 7.46103C56.6297 7.4811 56.5444 7.49484 56.4554 7.50224L56.7447 8.85191C56.7945 9.08791 56.9053 9.28066 57.0773 9.43016C57.0923 9.44045 57.0968 9.45382 57.091 9.47026C57.0777 9.50761 57.0462 9.51756 56.9966 9.50012C56.6579 9.38118 56.434 9.15881 56.3248 8.833C56.3013 8.76089 56.2803 8.68206 56.2616 8.59651L56.0007 7.4812L55.4722 7.26783L55.4542 7.26148C55.4316 7.25355 55.4166 7.26005 55.4091 7.28097L55.0415 8.31417C55.0123 8.39635 55.0138 8.46581 55.0461 8.52254C55.0784 8.57927 55.1491 8.63519 55.2581 8.69031C55.2866 8.70536 55.3211 8.72503 55.3616 8.74933C55.4025 8.77213 55.4306 8.78617 55.4456 8.79146C55.4622 8.79728 55.4683 8.80616 55.4641 8.81811L55.4449 8.8719C55.4407 8.88386 55.4325 8.88772 55.4205 8.88349L54.0322 8.39584ZM56.1805 5.69116C56.1625 5.68482 56.1426 5.6787 56.121 5.67279C56.1015 5.66592 56.0756 5.65768 56.0435 5.64807C56.0119 5.63697 55.9918 5.64337 55.9833 5.66728L55.5 7.02547L55.4806 7.09429C55.474 7.12725 55.4824 7.14871 55.506 7.15866L55.7315 7.25299C56.1544 7.40153 56.4626 7.34172 56.6562 7.07354C56.7183 6.98946 56.7709 6.8869 56.814 6.76587C56.898 6.5298 56.8897 6.31761 56.789 6.12931C56.6899 5.94153 56.5253 5.80721 56.295 5.72633C56.2739 5.71893 56.2541 5.7128 56.2355 5.70795C56.2174 5.70161 56.1991 5.69601 56.1805 5.69116Z" fill="#3A683D"/>
<path d="M57.8747 9.76024C57.88 9.74869 57.8892 9.74587 57.9022 9.75177L57.9633 9.7793C58.1057 9.84355 58.2337 9.8647 58.3471 9.84277C58.462 9.82149 58.5379 9.77044 58.5748 9.68963L59.6698 7.29332C59.6836 7.26301 59.6846 7.24347 59.6729 7.23468C59.6632 7.22511 59.6503 7.21494 59.6342 7.20419L58.7971 6.8266C58.6487 6.79449 58.5129 6.85769 58.3896 7.01618C58.3229 7.10094 58.281 7.15604 58.2642 7.1815C58.2479 7.20551 58.234 7.21489 58.2224 7.20965L58.1831 7.19195C58.1744 7.18801 58.1714 7.18316 58.174 7.17739L58.2066 7.10595L58.5959 6.46695C58.6251 6.42615 58.6498 6.41034 58.6702 6.41951C58.6905 6.42869 58.7057 6.45296 58.7158 6.49231C58.7265 6.53021 58.7646 6.56392 58.83 6.59342L61.1801 7.65343C61.2426 7.68162 61.2837 7.69145 61.3034 7.68292C61.3231 7.67439 61.3417 7.66625 61.3592 7.65851C61.3775 7.64932 61.3953 7.64866 61.4127 7.65653C61.4316 7.66505 61.44 7.67751 61.4377 7.69391C61.437 7.71096 61.4344 7.72808 61.43 7.74526L61.2021 8.45703L61.1695 8.52846C61.1668 8.53424 61.1612 8.53516 61.1524 8.53122L61.1132 8.51352C61.1016 8.50828 61.0985 8.49385 61.1041 8.47024C61.1467 8.31544 61.1654 8.18635 61.16 8.08298C61.1553 7.97817 61.1104 7.89436 61.0251 7.83155L60.1858 7.45297C60.167 7.44799 60.1501 7.44471 60.1351 7.44314C60.1221 7.44078 60.1087 7.45476 60.0949 7.48506L59 9.88137C58.963 9.96219 58.9736 10.0522 59.0317 10.1515C59.0912 10.2515 59.1921 10.3336 59.3346 10.3978L59.3978 10.4263C59.4094 10.4316 59.4126 10.44 59.4073 10.4515L59.3836 10.5035C59.3783 10.515 59.3699 10.5182 59.3582 10.5129L57.8605 9.83738C57.8489 9.83213 57.8457 9.82374 57.851 9.81219L57.8747 9.76024Z" fill="#3A683D"/>
<path d="M61.5784 8.32182C61.6678 8.15368 61.6148 8.01824 61.4191 7.9155C61.388 7.89912 61.3753 7.88533 61.3813 7.87412L61.4081 7.82367C61.4141 7.81246 61.4228 7.80984 61.4341 7.81579L62.4994 8.37526C62.5107 8.38121 62.5134 8.3898 62.5074 8.40101L62.4806 8.45145C62.4746 8.46266 62.4405 8.45189 62.3781 8.41913C62.3157 8.38637 62.2479 8.37584 62.1746 8.38753C62.1012 8.39922 62.0321 8.46602 61.9673 8.58792L60.7741 10.8306C60.6847 10.9987 60.7384 11.1345 60.9355 11.238C60.9652 11.2536 60.9771 11.2671 60.9712 11.2783L60.9443 11.3287C60.9384 11.3399 60.9297 11.3425 60.9184 11.3366L59.8531 10.7771C59.8418 10.7712 59.8391 10.7626 59.8451 10.7514L59.8719 10.7009C59.8779 10.6897 59.912 10.7005 59.9744 10.7333C60.0368 10.766 60.1046 10.7765 60.1779 10.7649C60.2513 10.7532 60.3203 10.6864 60.3852 10.5645L61.5784 8.32182Z" fill="#3A683D"/>
<path d="M63.6759 10.7254C63.8587 10.8357 64.0043 10.8021 64.1128 10.6246C64.1194 10.6138 64.1282 10.6116 64.1391 10.6182L64.1882 10.6478C64.1991 10.6544 64.2013 10.6631 64.1947 10.674L63.7327 11.43C63.7261 11.4408 63.7173 11.443 63.7064 11.4364L63.6573 11.4068C63.6464 11.4002 63.6442 11.3915 63.6508 11.3806C63.727 11.256 63.7441 11.1486 63.7021 11.0583C63.6797 11.0096 63.633 10.9638 63.562 10.921L62.7557 10.4346C62.723 10.4149 62.6954 10.4233 62.6731 10.4599L62.0348 11.5045C61.9785 11.5966 61.9919 11.6984 62.0751 11.8097C62.1605 11.9206 62.2175 11.9846 62.2462 12.0019C62.2762 12.02 62.2879 12.0345 62.2812 12.0453L62.2514 12.0941C62.2448 12.1049 62.2361 12.1071 62.2251 12.1005L61.1078 11.4265C61.0969 11.4199 61.0947 11.4112 61.1014 11.4004L61.1312 11.3516C61.1378 11.3408 61.1527 11.3424 61.1759 11.3563C61.1991 11.3703 61.2419 11.3813 61.3042 11.3893C61.3666 11.3972 61.429 11.3913 61.4915 11.3715C61.5562 11.3512 61.6072 11.3105 61.6444 11.2496L62.9856 9.05467C63.0394 8.9666 63.0308 8.87521 62.9599 8.78049C62.9194 8.72454 62.8725 8.68052 62.8193 8.64843L62.8112 8.64349C62.8002 8.63691 62.7981 8.62819 62.8047 8.61736L62.8345 8.56858C62.8411 8.55774 62.8499 8.55561 62.8608 8.5622L64.7906 9.7262C64.8053 9.73878 64.8151 9.75025 64.82 9.76061C64.8257 9.76961 64.8227 9.7836 64.8111 9.80257L64.5106 10.2944C64.5007 10.3106 64.4917 10.3192 64.4838 10.3199C64.4772 10.3215 64.4678 10.3186 64.4555 10.3112L64.431 10.2964C64.4291 10.2934 64.4419 10.2511 64.4694 10.1694C64.4991 10.0872 64.5096 10.0165 64.5008 9.9575C64.4813 9.86414 64.4382 9.79268 64.3714 9.74312C64.3444 9.72313 64.3104 9.70079 64.2695 9.6761L63.4939 9.20828C63.4666 9.19182 63.4447 9.19714 63.4281 9.22424L62.8532 10.1652C62.8341 10.1964 62.841 10.2218 62.8737 10.2416L63.6759 10.7254Z" fill="#3A683D"/>
<path d="M65.5682 10.7132C65.677 10.5567 65.6408 10.4163 65.4596 10.2919C65.4308 10.2721 65.4199 10.2569 65.4272 10.2465L65.4599 10.1996C65.4671 10.1891 65.476 10.1875 65.4865 10.1947L66.4732 10.8721C66.4837 10.8794 66.4853 10.8882 66.478 10.8986L66.4454 10.9456C66.4381 10.956 66.4056 10.9414 66.3479 10.9017C66.2901 10.862 66.2242 10.8438 66.1502 10.847C66.0763 10.8501 65.9998 10.9084 65.9209 11.0219L64.4694 13.109C64.3605 13.2655 64.3974 13.4064 64.5799 13.5317C64.6074 13.5506 64.6176 13.5653 64.6103 13.5757L64.5777 13.6227C64.5704 13.6331 64.5615 13.6347 64.551 13.6275L63.5644 12.9501C63.5538 12.9429 63.5522 12.9341 63.5595 12.9236L63.5921 12.8767C63.5994 12.8663 63.6319 12.8809 63.6897 12.9205C63.7474 12.9602 63.8133 12.9784 63.8873 12.9753C63.9613 12.9721 64.0377 12.9138 64.1166 12.8004L65.5682 10.7132Z" fill="#3A683D"/>
<path d="M64.5715 13.5927L64.6128 13.5403C64.6207 13.5303 64.6296 13.5292 64.6397 13.537L64.6812 13.5693C64.7369 13.6065 64.7924 13.6467 64.8477 13.6897C64.904 13.7314 64.9597 13.7636 65.0148 13.7863C65.1414 13.8364 65.252 13.8016 65.3463 13.6817L66.9005 11.7077C66.9978 11.5841 66.9862 11.4483 66.8657 11.3003C66.8311 11.2593 66.7949 11.2191 66.757 11.1796L66.7175 11.1489C66.7074 11.141 66.7063 11.1321 66.7142 11.1222L66.7496 11.0772C66.7574 11.0672 66.7664 11.0661 66.7764 11.074L68.5695 12.4675C68.5921 12.4851 68.605 12.5021 68.6082 12.5187C68.6124 12.534 68.6049 12.5564 68.5858 12.5858L68.1921 13.1553C68.1823 13.1678 68.1679 13.1667 68.1491 13.152C68.1302 13.1374 68.1208 13.121 68.1208 13.103C68.1231 13.0846 68.149 13.0312 68.1983 12.9428C68.2489 12.8553 68.2792 12.7732 68.289 12.6963C68.2989 12.6195 68.2696 12.5434 68.2013 12.4681L67.415 11.8571C67.3987 11.8444 67.3841 11.8461 67.3714 11.8624L66.609 12.8306C66.5992 12.8431 66.6006 12.8542 66.6131 12.864L67.2655 13.371C67.4339 13.5019 67.5948 13.47 67.7482 13.2752C67.756 13.2652 67.765 13.2641 67.7751 13.2719L67.8203 13.3071C67.8304 13.3149 67.8315 13.3238 67.8236 13.3338L67.1925 14.1354C67.1846 14.1454 67.1757 14.1465 67.1656 14.1387L67.1204 14.1035C67.1103 14.0957 67.1092 14.0868 67.1171 14.0768C67.2626 13.892 67.2926 13.7432 67.2071 13.6305C67.1828 13.5996 67.1537 13.5709 67.1198 13.5445L66.4731 13.0419C66.4605 13.0322 66.4493 13.0335 66.4395 13.046L65.7214 13.9581C65.6476 14.0517 65.6492 14.1385 65.7261 14.2184C65.7483 14.2417 65.7732 14.264 65.8009 14.2855L66.4287 14.7735C66.5582 14.8741 66.7035 14.8955 66.8646 14.8375C66.98 14.7964 67.0847 14.7278 67.1786 14.6317C67.2099 14.5997 67.2425 14.5969 67.2764 14.6233C67.2915 14.635 67.2927 14.649 67.2799 14.6652L66.7222 15.2461C66.7009 15.2577 66.6852 15.2596 66.6752 15.2518L64.5748 13.6194C64.5647 13.6116 64.5636 13.6027 64.5715 13.5927Z" fill="#3A683D"/>
<path d="M69.2576 13.0196C69.2663 13.0104 69.2754 13.0102 69.2847 13.0189L69.3231 13.055L69.8952 13.5701C69.9649 13.6313 70.0394 13.6991 70.1186 13.7735L70.3369 13.9788C70.5395 14.1693 70.6843 14.3196 70.7713 14.4298C70.8595 14.5411 70.9426 14.6531 71.0207 14.7658C71.101 14.8784 71.1625 15.0224 71.2051 15.1978C71.2488 15.3743 71.2632 15.5515 71.2482 15.7295C71.2143 16.108 71.0779 16.4227 70.8388 16.6737C70.5997 16.9248 70.3189 17.0875 69.9964 17.1619C69.5302 17.2713 69.0738 17.2002 68.6273 16.9484C68.4857 16.8676 68.3544 16.7703 68.2333 16.6565L66.9601 15.4594C66.9508 15.4507 66.9506 15.4417 66.9593 15.4325L67.0054 15.3841C67.0142 15.3749 67.0232 15.3747 67.0325 15.3834L67.0709 15.4195C67.2828 15.6188 67.4524 15.6516 67.5796 15.5181L69.3827 13.6251C69.4441 13.5606 69.4651 13.4887 69.4458 13.4094C69.4275 13.3289 69.3869 13.2591 69.3241 13.2L69.2123 13.0949C69.203 13.0862 69.2027 13.0772 69.2115 13.068L69.2576 13.0196ZM69.9627 13.7808C69.9335 13.7534 69.9042 13.7553 69.8746 13.7864L67.8626 15.8987C67.7814 15.9839 67.8201 16.1043 67.9787 16.26C68.0253 16.306 68.0748 16.3536 68.1272 16.4029C68.4986 16.7521 68.8884 16.9233 69.2967 16.9164C69.706 16.9106 70.0736 16.7368 70.3993 16.3948C70.7262 16.0517 70.8937 15.6799 70.9021 15.2796C70.9127 14.8792 70.7579 14.5285 70.4377 14.2274L69.9627 13.7808Z" fill="#3A683D"/>
<path fill-rule="evenodd" clip-rule="evenodd" d="M67.3696 75.9747C67.1406 75.9735 66.9115 75.9735 66.6824 75.9747L66.6818 75.9747C66.4502 75.9747 66.2186 75.9757 65.9869 75.9777L65.9846 75.7072C66.2169 75.7052 66.4492 75.7042 66.6814 75.7042C66.9113 75.7031 67.1412 75.7031 67.3711 75.7043L67.3696 75.9747ZM69.568 76.0226C69.1103 76.0051 68.6523 75.9923 68.1942 75.9842L68.1991 75.7138C68.6591 75.7219 69.1189 75.7348 69.5785 75.7524L69.568 76.0226ZM65.1531 75.989C64.6901 75.9976 64.2269 76.01 63.7637 76.0259L63.7542 75.7556C64.2189 75.7396 64.6835 75.7272 65.148 75.7186L65.1531 75.989ZM62.9302 76.0582C62.4675 76.0782 62.0047 76.1016 61.5419 76.1282L61.5262 75.8582C61.9902 75.8316 62.4543 75.8081 62.9184 75.788L62.9302 76.0582ZM71.7636 76.1431C71.3067 76.1104 70.8494 76.0825 70.3918 76.0593L70.4057 75.7892C70.8652 75.8125 71.3243 75.8406 71.7832 75.8733L71.7636 76.1431ZM60.7093 76.1793C60.247 76.2095 59.7847 76.2427 59.3225 76.2787L59.3012 76.0091C59.7645 75.973 60.2279 75.9397 60.6914 75.9095L60.7093 76.1793ZM73.9539 76.3359C73.4983 76.2882 73.0422 76.2452 72.5857 76.2069L72.6087 75.9374C73.067 75.9759 73.525 76.0191 73.9825 76.067L73.9539 76.3359ZM58.491 76.3464C58.0292 76.3856 57.5676 76.4274 57.1061 76.4716L57.0799 76.2024C57.5423 76.1581 58.005 76.1162 58.4678 76.0769L58.491 76.3464ZM76.1366 76.6009C75.6828 76.5382 75.2284 76.4802 74.7734 76.4268L74.8054 76.1583C75.2622 76.2118 75.7185 76.2701 76.1741 76.3331L76.1366 76.6009ZM56.2757 76.5537C55.8145 76.6006 55.3535 76.6499 54.8928 76.7011L54.8625 76.4323C55.324 76.381 55.7858 76.3317 56.2479 76.2846L56.2757 76.5537ZM77.631 76.8247C77.405 76.7883 77.1789 76.753 76.9526 76.7188L76.9935 76.4515C77.2209 76.4858 77.4481 76.5212 77.6752 76.5579L77.6759 76.558C77.8757 76.5914 78.0752 76.6266 78.2743 76.6635L78.2242 76.9294C78.0268 76.8928 77.8291 76.8579 77.631 76.8247ZM54.0637 76.7955C53.603 76.8491 53.1427 76.9045 52.6827 76.9617L52.6489 76.6933C53.1095 76.6361 53.5706 76.5806 54.032 76.5269L54.0637 76.7955ZM51.8547 77.0663C51.3945 77.1254 50.9348 77.186 50.4755 77.2479L50.4389 76.9799C50.8987 76.9179 51.359 76.8573 51.8197 76.7981L51.8547 77.0663ZM80.1093 77.3346C79.7192 77.2391 79.3273 77.1505 78.9338 77.0688L78.9896 76.8041C79.3862 76.8864 79.7813 76.9758 80.1745 77.0721L80.1093 77.3346ZM49.6485 77.3607C49.1887 77.4241 48.7294 77.4887 48.2708 77.5542L48.232 77.2866C48.691 77.221 49.1507 77.1563 49.6109 77.0928L49.6485 77.3607ZM81.968 77.846C81.5839 77.7285 81.1977 77.6179 80.8097 77.514L80.8806 77.2529C81.2718 77.3576 81.661 77.4691 82.0482 77.5876L81.968 77.846ZM47.4444 77.6733C46.9849 77.74 46.526 77.8075 46.0678 77.8754L46.0275 77.608C46.486 77.5399 46.9451 77.4724 47.405 77.4057L47.4444 77.6733ZM45.2419 77.9986C44.7825 78.0675 44.3238 78.1367 43.8659 78.2061L43.8248 77.9387C44.2828 77.8693 44.7416 77.8001 45.2013 77.7312L45.2419 77.9986ZM83.7943 78.4618C83.4175 78.3227 83.0383 78.1904 82.6569 78.0648L82.7427 77.8081C83.1272 77.9347 83.5094 78.0681 83.8892 78.2083L83.7943 78.4618ZM43.0402 78.3314L41.6505 78.5427L41.6093 78.2753L42.999 78.064L43.0402 78.3314ZM40.8081 78.6705C40.3411 78.7412 39.8729 78.8118 39.4038 78.882L39.3632 78.6146C39.8321 78.5444 40.3001 78.4738 40.767 78.4031L40.8081 78.6705ZM85.0279 78.9447C84.8424 78.8679 84.6563 78.7927 84.4695 78.7192L84.5699 78.4678C84.7582 78.5419 84.9458 78.6177 85.1328 78.6951L85.0279 78.9447ZM38.561 79.0076C38.0933 79.0769 37.6248 79.1457 37.1556 79.2137L37.1163 78.9461C37.5851 78.8781 38.0533 78.8094 38.5207 78.7402L38.561 79.0076ZM36.312 79.3348C35.8435 79.4015 35.3745 79.4672 34.9051 79.5317L34.8677 79.2638C35.3367 79.1994 35.8052 79.1337 36.2733 79.0671L36.312 79.3348ZM34.0604 79.6462C33.591 79.7091 33.1213 79.7705 32.6515 79.8303L32.6168 79.562C33.086 79.5023 33.5551 79.441 34.024 79.3782L34.0604 79.6462ZM31.8055 79.936C31.3351 79.9937 30.8646 80.0496 30.3942 80.1034L30.3631 79.8348C30.8326 79.7811 31.3023 79.7252 31.772 79.6676L31.8055 79.936ZM29.5468 80.1981C29.0752 80.2494 28.6039 80.2984 28.133 80.345L28.106 80.0758C28.576 80.0294 29.0464 79.9805 29.5171 79.9292L29.5468 80.1981ZM27.2839 80.426C26.8112 80.4696 26.3391 80.5104 25.8675 80.5483L25.8456 80.2787C26.316 80.241 26.7871 80.2002 27.2587 80.1568L27.2839 80.426ZM25.0169 80.6132C24.7803 80.6304 24.5439 80.6467 24.3077 80.6622C24.1622 80.6718 24.0161 80.6799 23.8698 80.6865L23.8575 80.4163C24.0019 80.4098 24.1461 80.4018 24.2896 80.3923C24.5252 80.3769 24.7611 80.3606 24.997 80.3435L25.0169 80.6132ZM23.3439 80.7038C23.1974 80.7068 23.0511 80.7083 22.9054 80.7083V80.4378C23.0492 80.4378 23.1936 80.4364 23.3383 80.4334L23.3439 80.7038Z" fill="#FAFAF4"/>
<path fill-rule="evenodd" clip-rule="evenodd" d="M67.3939 61.5883C67.1575 61.5866 66.9212 61.5863 66.6848 61.5873L66.6843 61.5873C66.4575 61.5873 66.2306 61.5883 66.0035 61.5903L66.0011 61.3198C66.2289 61.3178 66.4565 61.3168 66.684 61.3168C66.9213 61.3159 67.1585 61.3162 67.3957 61.3178L67.3939 61.5883ZM69.6619 61.6436C69.1897 61.6238 68.7172 61.6092 68.2446 61.5997L68.2501 61.3293C68.7247 61.3388 69.1992 61.3535 69.6734 61.3734L69.6619 61.6436ZM65.1866 61.6017C64.7334 61.6103 64.2796 61.6226 63.8253 61.6386L63.8157 61.3683C64.2714 61.3523 64.7266 61.3399 65.1814 61.3313L65.1866 61.6017ZM63.0088 61.6709C62.5558 61.6909 62.1023 61.7142 61.6486 61.7406L61.6326 61.4707C62.0876 61.4441 62.5423 61.4207 62.9967 61.4007L63.0088 61.6709ZM71.9266 61.7785C71.4553 61.7421 70.9837 61.7109 70.5117 61.6849L70.5268 61.4149C71.0008 61.441 71.4745 61.4723 71.9477 61.5088L71.9266 61.7785ZM60.8328 61.7915C60.3802 61.8215 59.9273 61.8545 59.4742 61.8903L59.4526 61.6207C59.9068 61.5849 60.3609 61.5518 60.8147 61.5217L60.8328 61.7915ZM74.1851 61.9926C73.7154 61.9397 73.2451 61.892 72.7744 61.8495L72.7991 61.5802C73.2718 61.6229 73.7441 61.6708 74.2158 61.7239L74.1851 61.9926ZM58.6595 61.9574C58.2074 61.9962 57.7551 62.0376 57.3027 62.0813L57.2763 61.8122C57.7296 61.7683 58.1829 61.7268 58.6361 61.6879L58.6595 61.9574ZM75.7324 62.1856C75.4983 62.1536 75.2642 62.1228 75.0298 62.0933L75.0641 61.825C75.2995 61.8546 75.5348 61.8856 75.77 61.9178L75.771 61.9179C75.9893 61.9495 76.2074 61.9828 76.425 62.0179L76.3813 62.2849C76.1654 62.25 75.949 62.2169 75.7324 62.1856ZM56.4892 62.1625C56.0376 62.2089 55.586 62.2575 55.1344 62.3081L55.1038 62.0393C55.5562 61.9887 56.0087 61.94 56.4612 61.8935L56.4892 62.1625ZM54.322 62.4011C53.8709 62.454 53.4199 62.5086 52.9691 62.5649L52.9351 62.2966C53.3865 62.2402 53.8383 62.1855 54.2901 62.1326L54.322 62.4011ZM78.4473 62.6744C78.0194 62.5819 77.5897 62.4965 77.1585 62.4181L77.2076 62.1521C77.6417 62.231 78.0743 62.317 78.5053 62.4101L78.4473 62.6744ZM52.1578 62.6679C51.7071 62.726 51.2567 62.7856 50.8065 62.8464L50.7698 62.5785C51.2204 62.5176 51.6714 62.4579 52.1227 62.3997L52.1578 62.6679ZM80.4896 63.1724C80.067 63.0574 79.6426 62.9495 79.2163 62.8485L79.2795 62.5854C79.7087 62.6871 80.1361 62.7958 80.5616 62.9115L80.4896 63.1724ZM49.9962 62.9573C49.5458 63.0196 49.0959 63.0831 48.6464 63.1474L48.6075 62.8797C49.0574 62.8153 49.5078 62.7518 49.9586 62.6894L49.9962 62.9573ZM47.8367 63.2642C47.3866 63.3296 46.9369 63.3958 46.4879 63.4625L46.4476 63.1951C46.8968 63.1283 47.3468 63.0621 47.7972 62.9966L47.8367 63.2642ZM82.5022 63.7774C82.0864 63.6403 81.6683 63.5101 81.2481 63.3868L81.3253 63.1275C81.7484 63.2516 82.1694 63.3827 82.5881 63.5207L82.5022 63.7774ZM45.6787 63.5833C45.2286 63.6508 44.7792 63.7187 44.3305 63.7867L44.2894 63.5193C44.7382 63.4513 45.1877 63.3834 45.638 63.3159L45.6787 63.5833ZM43.5215 63.9095L42.1595 64.1167L42.1182 63.8494L43.4803 63.6422L43.5215 63.9095ZM84.4797 64.4877C84.0717 64.3289 83.6611 64.1768 83.2482 64.0315L83.3392 63.7766C83.755 63.9229 84.1683 64.076 84.5792 64.236L84.4797 64.4877ZM41.3337 64.242C40.8757 64.3114 40.4168 64.3807 39.9572 64.4496L39.9165 64.1822C40.376 64.1133 40.8347 64.0441 41.2926 63.9747L41.3337 64.242ZM39.131 64.5729C38.6725 64.6409 38.2134 64.7084 37.7535 64.7752L37.7141 64.5076C38.1736 64.4409 38.6325 64.3734 39.0907 64.3054L39.131 64.5729ZM3.41733 64.7961C3.18717 64.7419 2.95727 64.6864 2.72766 64.6296L2.79354 64.3672C3.02215 64.4237 3.25105 64.479 3.48021 64.533L3.41733 64.7961ZM86.4163 65.3014C86.0173 65.1212 85.6154 64.9477 85.211 64.7809L85.3155 64.5311C85.7228 64.6991 86.1273 64.8738 86.5291 65.0552L86.4163 65.3014ZM36.9266 64.8944C36.4675 64.9599 36.0078 65.0246 35.5476 65.0881L35.5101 64.8203C35.9698 64.7568 36.4291 64.6922 36.8878 64.6267L36.9266 64.8944ZM5.63621 65.2767C5.17229 65.1849 4.7093 65.0879 4.24734 64.9856L4.30663 64.7217C4.76658 64.8235 5.22756 64.9201 5.68947 65.0115L5.63621 65.2767ZM34.7196 65.2011C34.2599 65.2631 33.7996 65.3237 33.3388 65.3829L33.3038 65.1147C33.764 65.0556 34.2237 64.995 34.683 64.9331L34.7196 65.2011ZM7.87116 65.6773C7.40415 65.6022 6.93793 65.5219 6.4726 65.4363L6.52223 65.1704C6.98555 65.2556 7.44974 65.3356 7.91473 65.4104L7.87116 65.6773ZM32.5096 65.4877C32.049 65.5449 31.588 65.6005 31.1266 65.6542L31.0949 65.3856C31.5555 65.332 32.0158 65.2765 32.4758 65.2194L32.5096 65.4877ZM87.7212 65.9195C87.5252 65.8223 87.3284 65.7266 87.1309 65.6327L87.2486 65.3888C87.4475 65.4834 87.6456 65.5797 87.843 65.6776L87.7212 65.9195ZM30.2961 65.7487C29.8346 65.8001 29.3727 65.8494 28.9107 65.8965L28.8828 65.6274C29.344 65.5805 29.805 65.5312 30.2657 65.48L30.2961 65.7487ZM10.1192 65.9975C9.64975 65.9392 9.18091 65.8757 8.71281 65.8069L8.75273 65.5393C9.21879 65.6079 9.6856 65.6711 10.1531 65.7292L10.1192 65.9975ZM28.0787 65.9787C27.6163 66.023 27.1536 66.0649 26.6908 66.1042L26.6676 65.8348C27.1294 65.7956 27.591 65.7537 28.0525 65.7095L28.0787 65.9787ZM12.3775 66.2368C11.9061 66.1954 11.4353 66.1487 10.9651 66.0968L10.9952 65.828C11.4634 65.8797 11.9322 65.9262 12.4015 65.9675L12.3775 66.2368ZM25.8574 66.1721C25.3941 66.2081 24.9307 66.2414 24.4672 66.2717L24.4493 66.0019C24.9116 65.9717 25.3739 65.9384 25.8361 65.9024L25.8574 66.1721ZM14.643 66.395C14.1704 66.3705 13.6982 66.3407 13.2264 66.3057L13.2467 66.036C13.7165 66.0709 14.1867 66.1005 14.6572 66.1249L14.643 66.395ZM23.6324 66.323C23.1684 66.3496 22.7043 66.3731 22.2402 66.3932L22.2284 66.123C22.6911 66.103 23.1539 66.0796 23.6167 66.053L23.6324 66.323ZM21.4044 66.4257C20.9397 66.4416 20.4751 66.4541 20.0106 66.4627L20.0055 66.1923C20.4685 66.1837 20.9317 66.1713 21.3949 66.1554L21.4044 66.4257ZM16.9128 66.4717C16.4396 66.4642 15.9666 66.4514 15.4939 66.4333L15.5044 66.163C15.975 66.1811 16.446 66.1938 16.9172 66.2013L16.9128 66.4717ZM19.1741 66.4741C18.9416 66.4761 18.7092 66.4771 18.4769 66.4771H18.4757V66.2067H18.4768C18.7084 66.2067 18.94 66.2057 19.1717 66.2037L19.1741 66.4741ZM18.4718 66.2067L18.473 66.2067L18.4742 66.2067V66.4756L18.4742 66.4771C18.4742 66.4771 18.4742 66.4771 18.4742 66.4771C18.474 66.4771 18.4738 66.4771 18.4736 66.4771M18.4736 66.4771C18.2372 66.4792 18.0008 66.48 17.7645 66.4794L17.7651 66.209C18.0006 66.2096 18.2362 66.2088 18.4718 66.2067" fill="#FAFAF4"/>
<path d="M20.5662 71.5338C20.5518 71.5345 20.5299 71.5087 20.5006 71.4566C20.5003 71.4504 20.5363 71.4221 20.6086 71.3715C20.6808 71.3189 20.8231 71.1902 21.0355 70.9853C21.2478 70.7805 21.4225 70.5886 21.5594 70.4097L21.7331 70.4019C21.7599 70.4007 21.7767 70.4041 21.7832 70.412C21.7898 70.42 21.7936 70.4352 21.7946 70.4578L21.965 74.2134C21.9709 74.3427 21.9876 74.415 22.0153 74.4302C22.1193 74.4852 22.3263 74.5057 22.6365 74.4918C22.653 74.4911 22.6617 74.4989 22.6624 74.5154L22.6658 74.5892C22.6665 74.6057 22.6586 74.6142 22.6421 74.615L20.7751 74.6986C20.7585 74.6993 20.7499 74.6915 20.7491 74.6751L20.7458 74.6012C20.745 74.5848 20.7529 74.5762 20.7695 74.5754C20.8726 74.5647 20.9623 74.5565 21.0387 74.551C21.115 74.5435 21.1954 74.5338 21.2798 74.5217C21.3642 74.5097 21.4225 74.4938 21.4548 74.4738C21.4891 74.4538 21.5085 74.4251 21.513 74.3879C21.5175 74.3507 21.5185 74.3023 21.5158 74.2428L21.367 70.9643C21.3689 70.9601 21.3469 70.9776 21.301 71.0166C21.0419 71.2421 20.8032 71.4132 20.5847 71.5299L20.5662 71.5338Z" fill="#FAFAF4"/>
<path d="M24.1297 72.3979C24.087 71.8923 24.189 71.4034 24.4358 70.9314C24.6824 70.4573 24.98 70.2057 25.3285 70.1767C25.6028 70.1539 25.8571 70.2378 26.0913 70.4286C26.3273 70.6172 26.5152 70.8747 26.6549 71.2011C26.7946 71.5276 26.8799 71.874 26.9108 72.2405C26.958 72.7994 26.8724 73.2992 26.6542 73.74C26.5106 74.0323 26.3229 74.2448 26.0911 74.3775C25.972 74.4431 25.8465 74.4814 25.7145 74.4924C25.465 74.5132 25.2245 74.4322 24.9931 74.2494C24.7615 74.0646 24.5691 73.8281 24.416 73.5399C24.2648 73.2494 24.1774 72.964 24.1537 72.6835L24.1297 72.3979ZM25.7085 74.3104C26.286 74.2623 26.5245 73.6436 26.4242 72.4542C26.3822 71.9567 26.3436 71.6229 26.3085 71.4526C26.2348 71.0959 26.1302 70.8284 25.9947 70.65C25.8268 70.4331 25.6037 70.3362 25.3253 70.3594C24.8014 70.4031 24.5622 70.9518 24.6075 72.0056C24.6141 72.1576 24.6263 72.3401 24.6443 72.553C24.6915 73.1118 24.7888 73.5398 24.9364 73.8367C25.1088 74.181 25.3661 74.339 25.7085 74.3104Z" fill="#FAFAF4"/>
<path d="M27.9544 72.0718C27.8972 71.5676 27.9851 71.076 28.2182 70.5972C28.4511 70.1163 28.7413 69.8563 29.0888 69.8174C29.3624 69.7868 29.6189 69.8635 29.8585 70.0475C30.0999 70.2293 30.2951 70.4813 30.4442 70.8037C30.5932 71.1261 30.6885 71.4699 30.7299 71.8354C30.7932 72.3927 30.722 72.8947 30.5166 73.3416C30.3815 73.6379 30.2 73.8556 29.9721 73.9949C29.855 74.0638 29.7306 74.1056 29.599 74.1204C29.3501 74.1483 29.1074 74.0742 28.8708 73.8981C28.634 73.7199 28.4349 73.489 28.2736 73.2052C28.1141 72.9191 28.0185 72.6363 27.9868 72.3566L27.9544 72.0718ZM29.5877 73.9387C30.1636 73.8742 30.3842 73.2489 30.2496 72.0628C30.1933 71.5667 30.1452 71.2341 30.1052 71.0649C30.0212 70.7105 29.9089 70.446 29.7683 70.2716C29.5943 70.0595 29.3685 69.9691 29.0908 70.0002C28.5685 70.0587 28.3451 70.614 28.4207 71.6661C28.4317 71.8178 28.4493 71.9999 28.4733 72.2122C28.5366 72.7695 28.6462 73.1945 28.8023 73.4871C28.9845 73.8264 29.2464 73.9769 29.5877 73.9387Z" fill="#FAFAF4"/>
<path d="M36.6617 72.799C36.6023 72.9274 36.5233 73.0358 36.4249 73.1239C36.3285 73.2119 36.2198 73.2641 36.0988 73.2807C35.8631 73.3131 35.6395 73.2153 35.4281 72.9871C35.2163 72.757 35.0871 72.474 35.0404 72.1382C34.9937 71.8025 35.0336 71.489 35.1602 71.1978C35.2868 70.9067 35.466 70.7452 35.6977 70.7134C35.9765 70.6751 36.214 70.7752 36.4101 71.0137C36.6063 71.2522 36.7281 71.5424 36.7757 71.8843C36.823 72.2241 36.785 72.529 36.6617 72.799ZM35.4159 72.1115C35.4632 72.4514 35.5372 72.7056 35.638 72.8743C35.7385 73.0409 35.883 73.1113 36.0717 73.0854C36.3423 73.0482 36.4662 72.8051 36.4434 72.3561C36.4355 72.2245 36.4236 72.1017 36.4078 71.9877C36.3732 71.7394 36.3408 71.5593 36.3106 71.4473C36.2036 71.0535 36.024 70.8739 35.7718 70.9085C35.6406 70.9265 35.548 70.9745 35.4941 71.0524C35.4402 71.1303 35.4013 71.2415 35.3775 71.3858C35.3555 71.5277 35.3683 71.7697 35.4159 72.1115ZM35.3773 68.7042L35.7771 68.6493L33.0434 73.8L32.6467 73.8545L35.3773 68.7042ZM33.2658 71.2995C33.2064 71.4279 33.1274 71.5362 33.029 71.6244C32.9326 71.7123 32.8239 71.7646 32.7029 71.7812C32.4672 71.8136 32.2436 71.7157 32.0321 71.4876C31.8204 71.2575 31.6912 70.9745 31.6445 70.6387C31.5977 70.3029 31.6377 69.9895 31.7643 69.6983C31.8909 69.4072 32.0701 69.2457 32.3017 69.2138C32.5805 69.1755 32.818 69.2756 33.0142 69.5142C33.2104 69.7527 33.3322 70.0429 33.3798 70.3847C33.4271 70.7246 33.3891 71.0295 33.2658 71.2995ZM32.02 70.612C32.0673 70.9519 32.1413 71.2061 32.2421 71.3748C32.3426 71.5414 32.4871 71.6118 32.6757 71.5858C32.9463 71.5487 33.0703 71.3056 33.0475 70.8566C33.0396 70.725 33.0277 70.6021 33.0119 70.4882C32.9773 70.2399 32.9449 70.0598 32.9147 69.9478C32.8077 69.5539 32.6281 69.3743 32.3759 69.409C32.2447 69.427 32.1521 69.475 32.0982 69.5529C32.0443 69.6308 32.0054 69.7419 31.9816 69.8862C31.9596 70.0282 31.9724 70.2701 32.02 70.612Z" fill="#FAFAF4"/>
<path d="M43.5293 71.9786C43.5215 71.9964 43.4966 72.0043 43.4544 72.0024C43.414 71.9982 43.3672 72.0001 43.314 72.0082C43.2608 72.0163 43.1868 72.0389 43.0921 72.0762C42.9991 72.1111 42.8516 72.1668 42.6499 72.2432C42.4484 72.3216 42.2617 72.3739 42.0899 72.4C41.7012 72.4591 41.3098 72.4261 40.9158 72.3011C40.5235 72.1737 40.1922 71.9601 39.922 71.6603C39.6515 71.3585 39.4824 70.9873 39.4145 70.5466C39.3466 70.1059 39.3946 69.6902 39.5585 69.2996C39.7969 68.7271 40.2252 68.3129 40.8432 68.0568C41.0399 67.9749 41.2406 67.9184 41.4452 67.8873C41.7254 67.8447 42.0651 67.8409 42.4641 67.8759C42.5851 67.8866 42.6878 67.9011 42.7723 67.9194C42.8588 67.9374 42.9113 67.945 42.9297 67.9422L43.018 67.9039L43.1131 67.8894C43.1377 67.8857 43.1526 67.9011 43.1579 67.9356L43.3038 68.8829C43.3069 68.9033 43.2901 68.9162 43.2532 68.9218C43.2164 68.9274 43.1943 68.9266 43.1869 68.9194C43.1792 68.9102 43.1714 68.9 43.1634 68.8887C43.155 68.8754 43.1457 68.8623 43.1353 68.8493C43.127 68.836 43.1178 68.8239 43.1077 68.813C43.0997 68.8017 43.0942 68.7932 43.0912 68.7874C42.6902 68.2228 42.1777 67.988 41.5538 68.0828C40.9912 68.1683 40.5787 68.4129 40.3163 68.8165C40.054 69.2201 39.968 69.7153 40.0584 70.3022C40.1484 70.8871 40.3997 71.3632 40.8122 71.7307C41.2268 72.0979 41.7338 72.2359 42.3332 72.1448C42.6605 72.0951 42.9433 71.9533 43.1816 71.7197C43.422 71.4857 43.5973 71.2169 43.7076 70.9134C43.7098 70.9006 43.7211 70.8926 43.7416 70.8895L43.7815 70.8834C43.8019 70.8803 43.814 70.891 43.8178 70.9153C43.8215 70.9397 43.819 70.964 43.8101 70.9882L43.5293 71.9786Z" fill="#FAFAF4"/>
<path d="M43.8438 72.0217L43.8309 71.9363C43.8284 71.9201 43.8354 71.9107 43.8518 71.9083L43.9193 71.8982C44.0044 71.8793 44.0919 71.8632 44.182 71.8498C44.2717 71.8343 44.3519 71.811 44.4225 71.7797C44.583 71.7059 44.6485 71.5715 44.6191 71.3765L44.1343 68.1644C44.104 67.9633 43.9649 67.8531 43.7172 67.8339C43.6475 67.8298 43.5771 67.8278 43.506 67.828L43.4415 67.8376C43.4251 67.84 43.4157 67.8331 43.4132 67.8169L43.4022 67.7437C43.3998 67.7275 43.4067 67.7181 43.4231 67.7157L46.3427 67.2807C46.3796 67.2753 46.4072 67.2784 46.4258 67.2902C46.444 67.2999 46.4585 67.3269 46.4693 67.3709L46.658 68.2465C46.661 68.2668 46.6472 68.2792 46.6165 68.2838C46.5858 68.2884 46.5619 68.2826 46.5449 68.2664C46.5295 68.248 46.5019 68.1762 46.4622 68.0513C46.4244 67.926 46.3735 67.8246 46.3095 67.7469C46.2454 67.6692 46.1473 67.6287 46.0149 67.6256L44.7347 67.8163C44.7081 67.8203 44.6968 67.8355 44.7008 67.8619L44.9386 69.4374C44.9416 69.4578 44.9534 69.4664 44.9739 69.4633L46.0361 69.3051C46.3104 69.2642 46.4236 69.0853 46.3758 68.7684C46.3733 68.7521 46.3803 68.7428 46.3966 68.7404L46.4703 68.7294C46.4867 68.7269 46.4961 68.7338 46.4986 68.7501L46.6954 70.0544C46.6979 70.0707 46.6909 70.08 46.6745 70.0825L46.6008 70.0934C46.5845 70.0959 46.5751 70.089 46.5726 70.0727C46.5272 69.772 46.413 69.6114 46.2299 69.5909C46.179 69.5861 46.1259 69.5877 46.0706 69.596L45.0176 69.7528C44.9971 69.7559 44.9884 69.7676 44.9915 69.7879L45.2154 71.272C45.2384 71.4244 45.3221 71.5002 45.4664 71.4995C45.5082 71.4995 45.5517 71.4961 45.5967 71.4894L46.619 71.3371C46.8298 71.3057 46.9796 71.1889 47.0684 70.9866C47.1324 70.8421 47.1607 70.6831 47.1534 70.5097C47.1509 70.4519 47.1773 70.4189 47.2326 70.4106C47.2571 70.407 47.2714 70.4184 47.2754 70.4448L47.3286 71.4838C47.3206 71.5141 47.3085 71.5305 47.2921 71.5329L43.872 72.0424C43.8556 72.0448 43.8462 72.0379 43.8438 72.0217Z" fill="#FAFAF4"/>
<path d="M47.7293 71.466C47.7128 71.4682 47.7017 71.449 47.6961 71.4083L47.6909 71.3717C47.6887 71.3554 47.6958 71.3461 47.7122 71.3439C47.7246 71.3422 47.7439 71.3374 47.7701 71.3297C47.7963 71.3219 47.8235 71.314 47.8518 71.306C47.8801 71.2979 47.9063 71.2902 47.9304 71.2827C47.9543 71.2732 47.9712 71.2667 47.9812 71.2633C48.1847 71.1875 48.2733 71.055 48.2469 70.8658L47.7969 67.6425C47.7725 67.4675 47.6841 67.3531 47.5318 67.2995C47.4411 67.2663 47.3474 67.2564 47.2506 67.2698L47.1332 67.2859C47.1168 67.2882 47.1074 67.2812 47.1051 67.2649L47.0949 67.1917C47.0926 67.1754 47.1038 67.1655 47.1285 67.1621L48.818 66.8827L49.13 66.8397C49.4979 66.8139 49.8211 66.9032 50.0993 67.1075C50.3794 67.3095 50.5437 67.5845 50.5923 67.9324C50.6406 68.2784 50.532 68.5681 50.2666 68.8017C50.1842 68.8732 50.0938 68.9396 49.9953 69.0009L51.1422 70.3829C51.3418 70.625 51.586 70.7811 51.875 70.8512C51.8985 70.8542 51.9118 70.8669 51.9149 70.8893C51.922 70.9401 51.8916 70.9702 51.8237 70.9796C51.3603 71.0435 50.9674 70.9203 50.6449 70.61C50.5744 70.5409 50.5026 70.4627 50.4295 70.3753L49.4565 69.2462L48.7166 69.314L48.6919 69.3174C48.661 69.3216 48.6476 69.338 48.6515 69.3665L48.848 70.7736C48.8636 70.8855 48.9071 70.9646 48.9786 71.0107C49.0502 71.0569 49.1656 71.0793 49.3249 71.0781C49.367 71.0785 49.4187 71.0807 49.4801 71.0847C49.5413 71.0867 49.5821 71.0862 49.6027 71.0834C49.6254 71.0803 49.6379 71.0868 49.6401 71.1031L49.6504 71.1764C49.6526 71.1927 49.6455 71.2019 49.6291 71.2042L47.7293 71.466ZM48.5873 67.0794C48.5626 67.0828 48.536 67.0875 48.5074 67.0935C48.4807 67.0972 48.4458 67.103 48.4028 67.111C48.3596 67.117 48.3402 67.1362 48.3448 67.1688L48.603 69.0185L48.6219 69.1092C48.6341 69.1511 48.6568 69.1708 48.69 69.1683L49.0076 69.1432C49.5863 69.0635 49.907 68.8119 49.9696 68.3884C49.9908 68.2549 49.9899 68.1056 49.9669 67.9408C49.9221 67.6193 49.7848 67.38 49.555 67.2229C49.3274 67.0655 49.056 67.0086 48.7409 67.052C48.7121 67.056 48.6855 67.0607 48.661 67.0661C48.6363 67.0695 48.6117 67.0739 48.5873 67.0794Z" fill="#FAFAF4"/>
<path d="M52.9494 70.6706C52.9475 70.6542 52.9558 70.645 52.9742 70.6428L53.0606 70.6326C53.262 70.6088 53.4182 70.5469 53.5291 70.4469C53.6422 70.3466 53.6919 70.2394 53.6782 70.1251L53.2725 66.7377C53.2674 66.6949 53.2553 66.6725 53.2363 66.6706C53.2192 66.6665 53.198 66.6638 53.1729 66.6626L51.9891 66.8026C51.8029 66.866 51.695 67.0266 51.6654 67.2846C51.6487 67.4231 51.6395 67.5121 51.638 67.5516C51.6362 67.5891 51.6271 67.6088 51.6107 67.6107L51.5552 67.6173C51.5429 67.6187 51.5362 67.6154 51.5353 67.6072L51.5232 67.5062L51.5229 66.538C51.5276 66.4733 51.5444 66.4393 51.5732 66.4359C51.6019 66.4325 51.6352 66.4492 51.673 66.4862C51.7105 66.521 51.7755 66.533 51.868 66.5221L55.1911 66.1292C55.2795 66.1188 55.3317 66.1022 55.3477 66.0797C55.3638 66.0571 55.3789 66.0356 55.3932 66.0153C55.4072 65.993 55.4265 65.9803 55.4512 65.9774C55.4779 65.9743 55.4956 65.9825 55.5042 66.0022C55.5148 66.0216 55.5236 66.0423 55.5304 66.0643L55.7588 67.0055L55.7708 67.1065C55.7718 67.1146 55.7661 67.1194 55.7538 67.1209L55.6983 67.1275C55.6819 67.1294 55.6687 67.1154 55.6589 67.0856C55.6016 66.8855 55.535 66.7299 55.4592 66.6189C55.3831 66.5058 55.2766 66.4429 55.1396 66.4301L53.9528 66.5704C53.9286 66.5774 53.9076 66.5851 53.8899 66.5934C53.8739 66.5994 53.8685 66.6238 53.8736 66.6667L54.2793 70.054C54.293 70.1683 54.3656 70.2611 54.4971 70.3324C54.6307 70.4035 54.7982 70.4272 54.9996 70.4034L55.089 70.3928C55.1054 70.3909 55.1146 70.398 55.1166 70.4144L55.1253 70.4878C55.1273 70.5041 55.1201 70.5132 55.1036 70.5152L52.9858 70.7656C52.9694 70.7675 52.9602 70.7603 52.9582 70.744L52.9494 70.6706Z" fill="#FAFAF4"/>
<path d="M55.9185 66.5632C55.8938 66.3179 55.7393 66.2094 55.4552 66.2377C55.4099 66.2422 55.3864 66.2363 55.3847 66.2199L55.3773 66.1464C55.3757 66.13 55.3831 66.121 55.3995 66.1194L56.9471 65.9653C56.9636 65.9636 56.9727 65.971 56.9743 65.9873L56.9817 66.0609C56.9834 66.0773 56.9389 66.09 56.8483 66.099C56.7577 66.108 56.6772 66.1449 56.6067 66.2098C56.5363 66.2746 56.5101 66.3959 56.528 66.5737L56.858 69.8453C56.8828 70.0906 57.0382 70.199 57.3245 70.1705C57.3677 70.1662 57.3902 70.1723 57.3918 70.1886L57.3993 70.2622C57.4009 70.2785 57.3935 70.2875 57.377 70.2892L55.8294 70.4433C55.813 70.4449 55.8039 70.4376 55.8023 70.4212L55.7948 70.3476C55.7932 70.3313 55.8377 70.3186 55.9283 70.3096C56.0189 70.3005 56.0994 70.2636 56.1698 70.1988C56.2402 70.134 56.2665 70.0126 56.2485 69.8348L55.9185 66.5632Z" fill="#FAFAF4"/>
<path d="M59.83 67.5883C60.1078 67.5668 60.2362 67.422 60.2152 67.1537C60.214 67.1373 60.2216 67.1284 60.2382 67.1272L60.3128 67.1214C60.3294 67.1201 60.3383 67.1277 60.3396 67.1441L60.4289 68.287C60.4302 68.3033 60.4225 68.3122 60.406 68.3135L60.3313 68.3192C60.3147 68.3205 60.3058 68.3129 60.3045 68.2966C60.2898 68.1081 60.2258 67.9822 60.1124 67.9188C60.0513 67.8844 59.9668 67.8713 59.8591 67.8797L58.634 67.9741C58.5842 67.978 58.5615 68.0075 58.5659 68.0628L58.6892 69.642C58.7001 69.7813 58.7921 69.8782 58.9653 69.9329C59.1404 69.9853 59.2497 70.0098 59.2933 70.0065C59.3389 70.003 59.3623 70.0094 59.3636 70.0258L59.3693 70.0995C59.3706 70.1159 59.363 70.1247 59.3464 70.126L57.6487 70.2569C57.6321 70.2582 57.6232 70.2507 57.6219 70.2343L57.6162 70.1605C57.6149 70.1441 57.6319 70.1346 57.6671 70.1319C57.7023 70.1292 57.756 70.1085 57.828 70.07C57.9001 70.0315 57.9616 69.9783 58.0127 69.9105C58.0656 69.8405 58.0884 69.7594 58.0812 69.6672L57.822 66.3492C57.8116 66.216 57.7326 66.1263 57.5851 66.08C57.4995 66.0516 57.4163 66.0405 57.3354 66.0467L57.323 66.0477C57.3064 66.049 57.2975 66.0414 57.2962 66.025L57.2904 65.9513C57.2891 65.9349 57.2968 65.9261 57.3134 65.9248L60.2455 65.6987C60.2707 65.7008 60.2898 65.7056 60.3029 65.7128C60.3158 65.718 60.3234 65.7349 60.3256 65.7636L60.3837 66.5071C60.3856 66.5316 60.3827 66.5473 60.3749 66.5541C60.3691 66.5607 60.3569 66.5648 60.3383 66.5662L60.3009 66.5691C60.2966 66.5674 60.2778 66.5132 60.2445 66.4065C60.213 66.2977 60.1701 66.2155 60.1157 66.1599C60.0237 66.0764 59.9234 66.0336 59.8148 66.0317C59.7709 66.0309 59.7179 66.033 59.6557 66.0378L58.4773 66.1286C58.4358 66.1318 58.4167 66.1539 58.4199 66.1949L58.531 67.6174C58.5347 67.6645 58.5614 67.6861 58.6112 67.6823L59.83 67.5883Z" fill="#FAFAF4"/>
<path d="M61.6721 66.117C61.6595 65.8708 61.5106 65.7549 61.2254 65.7693C61.1799 65.7716 61.1567 65.7645 61.1559 65.7481L61.1521 65.6743C61.1513 65.6579 61.1591 65.6492 61.1757 65.6484L62.729 65.5699C62.7455 65.5691 62.7542 65.5769 62.755 65.5933L62.7588 65.6672C62.7597 65.6836 62.7146 65.6941 62.6237 65.6987C62.5327 65.7033 62.4505 65.7362 62.3769 65.7975C62.3034 65.8588 62.2712 65.9787 62.2803 66.1572L62.4484 69.441C62.461 69.6872 62.6109 69.803 62.8982 69.7885C62.9416 69.7863 62.9638 69.7935 62.9646 69.8099L62.9684 69.8837C62.9692 69.9001 62.9614 69.9088 62.9448 69.9096L61.3915 69.9881C61.375 69.9889 61.3663 69.9811 61.3655 69.9647L61.3617 69.8908C61.3608 69.8744 61.4059 69.8639 61.4968 69.8593C61.5878 69.8547 61.67 69.8218 61.7436 69.7605C61.8171 69.6992 61.8493 69.5793 61.8402 69.4008L61.6721 66.117Z" fill="#FAFAF4"/>
<path d="M62.9515 69.869L62.9498 69.7828C62.9495 69.7663 62.9576 69.7579 62.9743 69.7576L63.0429 69.7563C63.1301 69.7485 63.2194 69.7437 63.3109 69.742C63.4023 69.7382 63.4852 69.7253 63.5596 69.7034C63.7292 69.6508 63.812 69.526 63.8082 69.3288L63.7458 66.0815C63.7419 65.8781 63.6178 65.751 63.3735 65.7002C63.3046 65.6871 63.2348 65.6761 63.1639 65.6672L63.0984 65.6684C63.0818 65.6687 63.0733 65.6607 63.073 65.6442L63.0716 65.5703C63.0712 65.5539 63.0794 65.5455 63.096 65.5452L66.0613 65.4889C66.0988 65.4882 66.1259 65.4949 66.1428 65.5089C66.1597 65.5209 66.1706 65.5495 66.1757 65.5946L66.249 66.487C66.2494 66.5075 66.234 66.5181 66.2028 66.5187C66.1716 66.5193 66.1486 66.5105 66.1337 66.4923C66.1208 66.472 66.1027 66.3973 66.0795 66.2683C66.0583 66.1393 66.0208 66.0321 65.9672 65.9468C65.9136 65.8615 65.8211 65.8089 65.6897 65.7887L64.3894 65.8134C64.3624 65.8139 64.3492 65.8275 64.3497 65.8542L64.3803 67.4471C64.3807 67.4676 64.3913 67.4777 64.4121 67.4773L65.4909 67.4568C65.7695 67.4516 65.9057 67.2887 65.8995 66.9683C65.8992 66.9519 65.9074 66.9435 65.924 66.9432L65.9988 66.9417C66.0155 66.9414 66.0239 66.9495 66.0242 66.9659L66.0496 68.2846C66.0499 68.301 66.0418 68.3094 66.0251 68.3097L65.9503 68.3111C65.9337 68.3114 65.9252 68.3034 65.9249 68.2869C65.919 67.9829 65.8263 67.809 65.6466 67.7652C65.5965 67.7538 65.5433 67.7486 65.4872 67.7497L64.4177 67.77C64.3969 67.7704 64.3867 67.7809 64.3871 67.8014L64.416 69.3019C64.4189 69.4559 64.4923 69.5418 64.6361 69.5596C64.6778 69.565 64.7215 69.5673 64.7673 69.5664L65.8056 69.5467C66.0197 69.5426 66.1842 69.446 66.2991 69.2569C66.3818 69.1217 66.4308 68.9677 66.4462 68.7948C66.4513 68.7372 66.4819 68.7079 66.5381 68.7068C66.563 68.7063 66.5757 68.7194 66.5763 68.7461L66.4933 69.7833C66.4813 69.8123 66.4671 69.8269 66.4504 69.8273L62.9769 69.8932C62.9602 69.8935 62.9518 69.8855 62.9515 69.869Z" fill="#FAFAF4"/>
<path d="M67.0242 65.4779C67.0248 65.4615 67.0335 65.4536 67.0501 65.4542L67.1186 65.4569L68.1198 65.4746C68.2405 65.4752 68.3714 65.4783 68.5127 65.4839L68.9022 65.4991C69.2637 65.5133 69.5343 65.5373 69.714 65.5711C69.8957 65.6049 70.0731 65.6438 70.2462 65.6876C70.4214 65.7294 70.6051 65.8178 70.7974 65.9528C70.9918 66.0879 71.1581 66.2486 71.2963 66.435C71.5885 66.833 71.7256 67.2557 71.7079 67.7032C71.6901 68.1507 71.5557 68.5474 71.3048 68.8932C70.9436 69.3951 70.4368 69.7124 69.7844 69.8451C69.5768 69.8863 69.3649 69.9026 69.1489 69.8942L66.8771 69.805C66.8605 69.8044 66.8525 69.7958 66.8532 69.7794L66.8566 69.6932C66.8573 69.6768 66.8659 69.6689 66.8825 69.6695L66.9511 69.6722C67.3292 69.6871 67.523 69.5754 67.5324 69.3373L67.6666 65.9626C67.6711 65.8476 67.6299 65.7597 67.5429 65.6987C67.4559 65.6357 67.3563 65.6019 67.2441 65.5975L67.0447 65.5897C67.0281 65.5891 67.0201 65.5805 67.0207 65.5641L67.0242 65.4779ZM68.3667 65.6231C68.3148 65.621 68.2877 65.6477 68.2855 65.7032L68.1358 69.4689C68.1298 69.6208 68.271 69.7055 68.5595 69.723C68.6446 69.7284 68.7339 69.7329 68.8274 69.7366C69.4901 69.7626 70.0179 69.5993 70.4106 69.2467C70.8053 68.8942 71.0148 68.4131 71.0391 67.8034C71.0634 67.1917 70.9076 66.687 70.5718 66.2894C70.2381 65.8898 69.7856 65.6787 69.2143 65.6563L68.3667 65.6231Z" fill="#FAFAF4"/>
<path d="M7.87931 44.2564V45.5982H6.52881L5.57404 46.5471L4.61895 45.5982H3.26845V44.2564L2.31335 43.3074L3.26845 42.3588V41.0167H4.61895L5.57404 40.0681L6.52881 41.0167H7.87931V42.3588L8.83473 43.3074L7.87931 44.2564Z" fill="#3A683D"/>
<path d="M83.3 44.2564V45.5982H81.9495L80.9947 46.5471L80.0396 45.5982H78.6891V44.2564L77.734 43.3074L78.6891 42.3588V41.0167H80.0396L80.9947 40.0681L81.9495 41.0167H83.3V42.3588L84.2554 43.3074L83.3 44.2564Z" fill="#3A683D"/>
<defs>
<linearGradient id="paint0_linear" x1="0.830688" y1="71.1199" x2="90.9998" y2="71.1199" gradientUnits="userSpaceOnUse">
<stop offset="0.00086" stop-color="#588959"/>
<stop offset="0.2309" stop-color="#49814F"/>
<stop offset="0.67264" stop-color="#216B36"/>
<stop offset="1" stop-color="#005920"/>
</linearGradient>
</defs>
</svg>
