<svg width="108" height="42" viewBox="0 0 108 42" fill="none" xmlns="http://www.w3.org/2000/svg">
<path fill-rule="evenodd" clip-rule="evenodd" d="M14.4208 8.23638C14.4377 8.29712 14.4515 8.35866 14.4623 8.4208C14.4654 8.46825 14.4654 8.51585 14.4623 8.5633C14.4701 8.62171 14.4701 8.68093 14.4623 8.73934V8.91537C14.4601 9.18625 14.4153 9.45505 14.3296 9.71172C14.2414 9.96264 14.1186 10.1997 13.9647 10.4159C13.8046 10.6369 13.63 10.8469 13.4423 11.0446C13.2338 11.2626 13.0093 11.4644 12.7706 11.6481C12.7303 11.6916 12.6859 11.7309 12.6379 11.7655L12.5135 11.8828L12.2316 12.1091C11.5765 12.6205 10.3077 13.6432 9.56965 11.2709C9.50869 11.0745 9.431 10.8837 9.33745 10.7009C9.06087 10.282 8.69899 9.92757 8.276 9.66142C5.47311 7.78372 3.43313 9.5776 3.43313 12.6121C3.43232 13.2641 3.52164 13.9131 3.69849 14.5401C3.87659 15.1658 4.13888 15.7637 4.478 16.3172C4.86881 16.9189 5.29239 17.4982 5.74676 18.0524C6.24432 18.656 6.8165 19.3098 7.47991 19.9888C8.2068 20.3326 8.9614 20.613 9.7355 20.8271C10.3338 21.0049 10.9529 21.1008 11.5765 21.1121C11.9913 21.115 12.4045 21.0586 12.8038 20.9444C13.1646 20.8422 13.5064 20.6807 13.8155 20.4666V20.936C13.548 21.1322 13.2906 21.342 13.0442 21.5647L11.8999 22.6125C11.4686 22.9981 11.0706 23.3502 10.6891 23.6688C10.3381 23.9646 9.96366 24.2309 9.56965 24.4651C9.25687 24.6627 8.91554 24.8097 8.55795 24.901C8.18737 25.0011 7.80544 25.0518 7.42186 25.0519L7.08187 25.01C6.89943 25.01 6.63407 24.9429 6.25261 24.901C5.79094 24.7606 5.34382 24.5753 4.9175 24.3477C4.44619 24.1088 3.99664 23.8283 3.5741 23.5095C3.16462 23.2238 2.78159 22.9011 2.42973 22.5455C2.05036 22.1381 1.70373 21.7009 1.39315 21.2378C1.10695 20.794 0.85998 20.3255 0.655115 19.8379C0.44666 19.3486 0.274796 18.8443 0.140972 18.329C0.107802 17.8205 0.0746358 17.4181 0.0414655 17.1219C0.0414655 16.8286 0 16.6274 0 16.5352C0.00502414 15.2302 0.267197 13.9393 0.771211 12.7378C1.74974 10.3739 5.68872 6.46765 8.57454 5.81381C8.97495 5.72509 9.38363 5.68013 9.79354 5.67969C9.99625 5.6821 10.1985 5.69891 10.3989 5.72998C10.6789 5.76155 10.9562 5.81479 11.2282 5.88925C11.9363 6.13656 12.6063 6.48367 13.2184 6.92031C13.698 7.27814 14.106 7.72474 14.4208 8.23638Z" fill="url(#paint0_linear)"/>
<path fill-rule="evenodd" clip-rule="evenodd" d="M44.2912 11.2221C44.8137 12.2196 45.2863 13.2087 45.7341 14.1811C46.1819 15.1535 46.5634 16.1007 46.9697 17.048C47.3761 17.9952 47.7078 18.9005 48.0229 19.7975C48.338 20.6944 48.62 21.5662 48.8521 22.4296L48.2385 22.8655C48.0229 23.0248 47.7741 23.1924 47.5088 23.3684H47.4424H47.3761H47.318C47.318 23.3684 47.318 23.3684 47.2683 23.3684L47.1605 23.4271L47.0775 23.4858C46.9084 23.5791 46.745 23.6827 46.5883 23.7959L45.6595 24.4582C45.4819 23.7656 45.2688 23.0829 45.021 22.4128C44.7821 21.7352 44.5052 21.0719 44.1917 20.4261C43.9147 19.8342 43.5785 19.2724 43.1883 18.7496C42.7787 18.185 42.3149 17.6627 41.8034 17.1905C41.3065 16.7424 40.7479 16.3697 40.1449 16.084C39.5357 15.7922 38.8919 15.5809 38.2293 15.4553C37.9889 15.4134 37.7235 15.3798 37.4581 15.3547C37.183 15.3203 36.9061 15.3035 36.6289 15.3044C36.1615 15.3003 35.6958 15.3595 35.244 15.4804C34.8474 15.5905 34.4737 15.7723 34.1411 16.0169C33.9258 16.1579 33.7398 16.3402 33.5938 16.5534C33.4514 16.7683 33.3658 17.0165 33.345 17.2743C33.345 17.2743 33.345 17.3581 33.345 17.3916C33.3364 17.4303 33.3364 17.4704 33.345 17.509C33.3277 17.5834 33.3277 17.6609 33.345 17.7353C33.3844 17.8155 33.415 17.8999 33.4362 17.9868C33.8289 18.8219 34.4774 19.5068 35.2855 19.94C36.245 20.4116 37.304 20.639 38.3703 20.6022H38.7352C38.8676 20.614 39.0008 20.614 39.1332 20.6022H39.523L39.8961 20.5519L40.062 20.4932C40.1429 20.4677 40.2187 20.428 40.2859 20.3759L40.5596 20.2753C40.628 20.2617 40.6984 20.2617 40.7669 20.2753H40.8996C40.8996 20.2753 40.8996 20.2753 40.941 20.2753H40.9825C40.742 20.5687 40.4766 20.862 40.1947 21.1135C39.8993 21.4117 39.5864 21.6917 39.2576 21.9518C38.9674 22.1865 38.6357 22.4212 38.2874 22.6727C37.9391 22.9242 37.5328 23.1756 37.0933 23.4439C36.6537 23.7121 36.3303 23.8295 35.9655 24.0055C35.6098 24.1759 35.2443 24.3242 34.8708 24.4498C34.3899 24.4498 33.9421 24.3576 33.5357 24.2821C33.1294 24.2067 32.7065 24.148 32.3748 24.0642C32.0431 23.9804 31.6782 23.8546 31.3548 23.7289C31.0218 23.599 30.7024 23.4361 30.4011 23.2427C29.835 22.8691 29.3861 22.3398 29.1075 21.7171C28.9852 21.5585 28.9053 21.3709 28.8753 21.1722C28.841 20.9331 28.841 20.6903 28.8753 20.4513C28.8978 20.2169 28.9366 19.9844 28.9914 19.7555C29.0399 19.5607 29.1037 19.3701 29.1821 19.1855C29.6311 18.6391 30.113 18.1212 30.625 17.6347C31.4762 16.9395 32.3928 16.3302 33.3616 15.8157C34.3385 15.3052 35.3672 14.9033 36.4298 14.617C37.4468 14.3323 38.4933 14.1691 39.5479 14.1308C39.563 13.9327 39.563 13.7337 39.5479 13.5357C39.5409 13.3972 39.51 13.261 39.4566 13.1333C39.4378 12.986 39.3988 12.8421 39.3405 12.7058C39.2908 12.58 39.2245 12.4543 39.1664 12.3369L39.0586 12.1944L38.7601 11.7502H38.702C38.4907 11.5114 38.2665 11.2847 38.0303 11.0712C37.8298 10.8942 37.6194 10.7291 37.4001 10.5766C37.2213 10.4374 37.019 10.3323 36.803 10.2664C36.5854 10.1991 36.3589 10.1652 36.1313 10.1658C35.9692 10.1652 35.8076 10.1849 35.6503 10.2245C35.4652 10.2669 35.2867 10.3346 35.1196 10.4257C35.0887 10.4535 35.0518 10.4736 35.0118 10.4844C34.9571 10.4962 34.9006 10.4962 34.846 10.4844V10.2161C35.1931 10.0843 35.5242 9.91276 35.8328 9.70481C36.0722 9.08706 36.2716 8.45423 36.4298 7.81034C36.8776 7.4415 37.2757 7.12297 37.624 6.85472C37.964 6.59486 38.2542 6.3853 38.4532 6.22603C38.6588 6.06982 38.8926 5.9559 39.1415 5.89072C39.4111 5.81318 39.6906 5.77646 39.9708 5.78175C40.1771 5.79136 40.381 5.83088 40.5761 5.89911C40.7849 5.96066 40.9855 6.04794 41.1732 6.15897L44.2912 11.2221Z" fill="url(#paint1_linear)"/>
<path fill-rule="evenodd" clip-rule="evenodd" d="M63.2979 24.4801C63.2979 24.0861 63.2564 23.6418 63.2481 23.1388C63.2398 22.6359 63.2481 22.0994 63.2481 21.5126C63.2481 21.1941 63.2481 20.8923 63.2481 20.5989C63.2481 20.3055 63.2481 20.0121 63.2481 19.7607C63.2481 19.5092 63.2896 19.2074 63.2896 18.9224C63.2896 18.6374 63.2896 18.3775 63.2896 18.126C63.2896 17.6175 63.2896 17.1313 63.2896 16.6675C63.2896 16.2064 63.2398 15.7705 63.1984 15.3598C62.7609 15.6928 62.3428 16.051 61.9462 16.4328C61.5233 16.8351 61.1169 17.271 60.636 17.774L60.1716 18.3021C60.0057 18.4781 59.8564 18.6542 59.6989 18.8302L59.2511 19.3331C59.1239 19.4673 59.0161 19.593 58.9277 19.7104L58.4301 20.2385L57.9657 20.7749C57.5345 21.2611 57.0867 21.7138 56.6306 22.1413C56.1745 22.5688 55.7019 22.9796 55.2458 23.2981C54.309 24.0033 53.2602 24.542 52.1443 24.8908L51.8209 24.8154C51.7205 24.786 51.6291 24.7312 51.5556 24.6561C51.4675 24.617 51.3885 24.5599 51.3234 24.4884C51.255 24.4142 51.199 24.3293 51.1575 24.237C51.0948 24.151 51.042 24.0582 51 23.9603C50.9585 23.8514 50.9087 23.734 50.859 23.5915C50.8547 23.5722 50.8547 23.5521 50.859 23.5328C50.8541 23.5136 50.8541 23.4934 50.859 23.4741C50.8537 23.455 50.8537 23.4347 50.859 23.4155C50.8628 23.4062 50.8649 23.3962 50.8649 23.3861C50.8649 23.376 50.8628 23.3661 50.859 23.3568L50.8092 23.2394C50.7895 23.191 50.7755 23.1403 50.7678 23.0885C50.7014 22.5018 50.6351 21.9234 50.577 21.3533C50.519 20.7833 50.4526 20.2217 50.4195 19.6768C50.216 16.01 50.2437 12.3338 50.5024 8.67048C51.6302 7.62265 54.7648 6.99396 56.1911 5.76172V5.97128C55.9755 8.48606 54.7897 17.4303 56.1911 18.344C57.5926 19.2577 59.674 17.5979 60.7769 16.6088C64.4008 13.348 65.4125 10.4392 67.9915 6.54968L68.3978 7.22867C68.1159 7.89928 68.2237 15.1335 68.2154 15.3682C68.2154 16.131 68.2154 16.8603 68.2154 17.5476C68.2293 18.2214 68.2875 18.8935 68.3895 19.5595C68.4962 20.19 68.6374 20.8141 68.8125 21.4288C68.925 21.5707 69.0628 21.6901 69.2188 21.7809C69.3897 21.8626 69.5771 21.9028 69.7661 21.8982C69.9068 21.91 70.0483 21.91 70.189 21.8982C70.33 21.882 70.4673 21.8424 70.5954 21.7809C70.7004 21.7431 70.8087 21.715 70.9188 21.697C71.0559 21.6704 71.1943 21.6508 71.3334 21.6384V21.9317C70.9447 22.058 70.5696 22.2237 70.2139 22.4263C69.7827 22.6694 69.3017 22.9712 68.771 23.34C68.2403 23.7089 67.6847 24.0693 67.2452 24.3376C66.8057 24.6058 66.4159 24.8321 66.1257 24.9914C65.7822 25.1634 65.4205 25.2956 65.0476 25.3854C64.65 25.4741 64.2441 25.5191 63.8369 25.5195L63.2979 24.4801Z" fill="url(#paint2_linear)"/>
<path fill-rule="evenodd" clip-rule="evenodd" d="M34.7708 2.41157C34.1452 3.38086 33.3565 4.23197 32.4406 4.92635C31.6485 5.53067 30.724 5.93321 29.7455 6.09991C29.4547 6.08147 29.1716 5.99847 28.9162 5.85682C28.667 5.7239 28.447 5.54141 28.2694 5.32033C28.0617 5.05313 27.8706 4.77317 27.6972 4.48207C27.5065 4.16353 27.3157 3.80308 27.125 3.4091V3.36719H27.3074H27.3821V3.32527V3.28336C27.4256 3.25946 27.4649 3.22829 27.4982 3.19115L27.6143 3.09894C27.6357 3.10661 27.6591 3.10661 27.6806 3.09894C27.7086 3.08351 27.7317 3.06022 27.7469 3.03188V2.80555H28.1367V2.76364H28.2113H28.1035V2.72173H28.1699H28.2196C28.2196 2.72173 28.2196 2.72173 28.2694 2.67143V2.62952H28.3357C28.3357 2.62952 28.3357 2.57922 28.3855 2.57922L29.0655 2.06788C29.3029 1.88869 29.5274 1.6926 29.7372 1.4811L30.044 1.20448C30.1524 1.10447 30.2548 0.998109 30.3508 0.885937L30.6328 0.592546C30.7399 0.495921 30.8346 0.38609 30.9147 0.265625L34.7708 2.41157Z" fill="url(#paint3_linear)"/>
<path fill-rule="evenodd" clip-rule="evenodd" d="M16.693 0.64546V29.3726L15.8637 29.9175C15.5237 30.1438 15.1091 30.3953 14.6281 30.6971C14.1472 30.9988 13.6579 31.3342 13.2847 31.594C12.9116 31.8539 12.6213 32.0886 12.3891 32.2814L12.1818 4.61881C12.1378 4.45663 12.0613 4.30529 11.9572 4.1741C11.8531 4.04291 11.7235 3.93465 11.5765 3.856C11.1894 3.65771 10.7577 3.56524 10.3243 3.58775H9.89307L10.515 3.11833C10.797 2.90038 11.1618 2.60699 11.6096 2.23815C12.0171 1.89021 12.4434 1.56558 12.8867 1.26577C13.2507 1.01518 13.6301 0.788388 14.0228 0.586783C14.3597 0.398466 14.7193 0.254781 15.0925 0.15927C15.4658 0.0722343 15.846 0.0189341 16.2286 0L16.693 0.64546Z" fill="url(#paint4_linear)"/>
<path fill-rule="evenodd" clip-rule="evenodd" d="M71.5733 7.71485C71.5657 7.77327 71.5657 7.83246 71.5733 7.89088C71.5665 7.93814 71.5665 7.98614 71.5733 8.03339C71.5615 8.09146 71.5615 8.15136 71.5733 8.20942V8.41899C71.5748 8.68993 71.6196 8.95885 71.706 9.21534C71.7906 9.46784 71.9137 9.70543 72.0709 9.91947C72.233 10.1416 72.4074 10.3543 72.5933 10.5566C72.8022 10.7741 73.0267 10.9759 73.265 11.1601L73.3894 11.2775C73.4391 11.3098 73.4838 11.3494 73.5221 11.3948L73.804 11.6128L74.0445 11.8056C74.0853 11.8228 74.122 11.8485 74.1523 11.881L74.2518 11.9816C74.2764 11.9876 74.3019 11.9876 74.3265 11.9816C74.3645 11.9994 74.3984 12.0251 74.426 12.057L74.5006 12.1241C74.5158 12.1452 74.5357 12.1624 74.5587 12.1744L74.6167 12.2163H74.6913C74.9193 12.3337 75.1383 12.4682 75.3464 12.6187C75.6035 12.8031 75.9021 13.0294 76.2255 13.306C76.5489 13.5827 76.922 13.8844 77.204 14.0856C77.4221 14.2518 77.6491 14.4057 77.884 14.5467C78.0982 14.6796 78.3299 14.7812 78.5723 14.8484C78.8224 14.9239 79.0824 14.9606 79.3435 14.9574C79.1859 14.7814 79.0118 14.597 78.821 14.4125C78.6303 14.2281 78.3981 14.0353 78.1493 13.8341C77.88 13.6195 77.6225 13.39 77.3781 13.1468C77.1542 12.9204 76.9552 12.7109 76.7811 12.5097C76.6293 12.3287 76.5113 12.1214 76.4328 11.8978C76.3567 11.6796 76.3174 11.4501 76.3167 11.2188C76.318 11.0252 76.3487 10.8329 76.4079 10.6488C76.4702 10.4501 76.5479 10.2567 76.6401 10.0704C76.919 9.65339 77.2804 9.29945 77.7015 9.03092C78.224 8.69387 78.7799 8.41293 79.3601 8.19266C79.9393 8.17732 80.512 8.31915 81.0186 8.6034C81.5371 8.90892 81.9685 9.34501 82.2708 9.86918C82.3705 10.2073 82.448 10.5518 82.5029 10.9002C82.5628 11.2575 82.5933 11.6192 82.5942 11.9816C82.5985 13.2927 82.2332 14.5779 81.541 15.6867C81.1552 16.2898 80.7343 16.8692 80.2805 17.4219C79.783 18.0338 79.2108 18.6793 78.5474 19.3667C77.8175 19.703 77.0635 19.9833 76.2918 20.2049C75.6924 20.3764 75.0737 20.4693 74.4509 20.4816C74.0364 20.4871 73.6232 20.4335 73.2236 20.3223C72.8603 20.2155 72.5161 20.0514 72.2036 19.8361V20.3055C72.4742 20.4975 72.7319 20.7075 72.9748 20.9342C73.2982 21.2192 73.6797 21.5713 74.1275 21.982C74.5752 22.3928 74.9567 22.7281 75.3382 23.0382C75.6855 23.3513 76.0602 23.6319 76.4577 23.8765C76.7704 24.0741 77.1118 24.2211 77.4694 24.3124C77.8398 24.413 78.2218 24.4637 78.6054 24.4633H78.9371L79.7664 24.3543C80.2678 24.2213 80.7542 24.0359 81.2176 23.8011C81.6862 23.5573 82.1354 23.277 82.561 22.9628C82.9512 22.6661 83.3147 22.3351 83.6473 21.9737C84.0282 21.5677 84.375 21.1302 84.6839 20.666C84.9463 20.2368 85.1711 19.7852 85.3556 19.3164C85.565 18.8283 85.7342 18.3237 85.8614 17.8075C85.9029 17.2962 85.9361 16.8938 85.9693 16.6004C86.0024 16.307 86.0107 16.1142 86.0107 16.0136C86.0213 14.7112 85.7731 13.42 85.281 12.2163C84.7661 10.9927 84.0164 9.88436 83.0751 8.95547H83.0005V8.91356H82.9508L82.9093 8.87165L82.8678 8.82135C82.8715 8.81498 82.8734 8.80775 82.8734 8.8004C82.8734 8.79304 82.8715 8.78581 82.8678 8.77944C82.8624 8.77219 82.8595 8.76336 82.8595 8.75429C82.8595 8.74522 82.8624 8.7364 82.8678 8.72915H82.8098C82.7866 8.71745 82.7667 8.70018 82.7517 8.67885L82.6771 8.63694L82.6356 8.59502L82.561 8.51958H82.5195C82.5232 8.51321 82.5251 8.50598 82.5251 8.49862C82.5251 8.49126 82.5232 8.48404 82.5195 8.47767C82.4034 8.37707 82.2376 8.24295 82.022 8.08368L81.2674 7.44661C80.8748 7.15601 80.4934 6.87659 80.123 6.60835C79.7642 6.37113 79.3902 6.15831 79.0035 5.97127C78.6539 5.77854 78.2801 5.63472 77.8923 5.54376C77.4915 5.45849 77.0829 5.41634 76.6733 5.41802C76.468 5.41718 76.2629 5.43118 76.0596 5.45993C75.7964 5.49441 75.5359 5.54763 75.2801 5.6192C74.5702 5.86842 73.8977 6.21537 73.2816 6.65026C72.6446 6.87998 72.0625 7.24271 71.5733 7.71485Z" fill="url(#paint5_linear)"/>
<path fill-rule="evenodd" clip-rule="evenodd" d="M71.5733 24.0317C71.5657 24.0901 71.5657 24.1493 71.5733 24.2077C71.5665 24.255 71.5665 24.303 71.5733 24.3502C71.5615 24.4111 71.5615 24.4738 71.5733 24.5347C73.9118 23.9982 81.1513 23.227 82.2791 27.1081C83.4069 30.9893 79.841 35.65 76.2338 36.6308C75.6344 36.8022 75.0156 36.8952 74.3928 36.9074C73.9783 36.913 73.5652 36.8593 73.1655 36.7481C72.8023 36.6414 72.4581 36.4773 72.1455 36.2619V36.7313C72.4139 36.9294 72.6713 37.142 72.9167 37.3684C73.2401 37.6451 73.6216 37.9971 74.0694 38.4079C74.5172 38.8186 74.8987 39.1539 75.2801 39.4641C75.6291 39.7627 76.0038 40.0292 76.3996 40.2604C76.7138 40.4573 77.0546 40.6069 77.4113 40.7047C77.7829 40.7985 78.1644 40.8463 78.5474 40.8472H78.8791C79.0698 40.8472 79.3352 40.7801 79.7084 40.7466C80.2089 40.607 80.6948 40.419 81.1596 40.185C81.6282 39.9412 82.0774 39.6609 82.503 39.3467C82.8932 39.05 83.2567 38.719 83.5893 38.3576C83.9702 37.9516 84.3169 37.5142 84.6259 37.0499C84.912 36.609 85.159 36.1433 85.3639 35.6584C85.5721 35.167 85.7413 34.6597 85.8698 34.1411C85.9112 33.6298 85.9444 33.2274 85.9776 32.934C86.0107 32.6406 86.019 32.4478 86.019 32.3472C86.0303 31.0475 85.7821 29.7588 85.2893 28.5583C84.2195 25.9429 81.0766 23.2437 78.6055 22.0534C78.2572 21.8597 77.8829 21.7185 77.4942 21.6343C77.0944 21.5419 76.6853 21.4969 76.2752 21.5002C76.07 21.4993 75.8649 21.5133 75.6616 21.5421C75.399 21.5806 75.1388 21.6338 74.8821 21.7013C74.1722 21.9506 73.4997 22.2975 72.8836 22.7324C72.3685 23.0766 71.9237 23.5177 71.5733 24.0317Z" fill="url(#paint6_linear)"/>
<path fill-rule="evenodd" clip-rule="evenodd" d="M14.1559 22.4944C14.1482 22.436 14.1482 22.3768 14.1559 22.3184C14.1486 22.2684 14.1486 22.2176 14.1559 22.1675C14.144 22.1095 14.144 22.0496 14.1559 21.9915V21.8238C14.1536 21.5389 14.1984 21.2556 14.2885 20.9856C14.3767 20.7347 14.4996 20.4976 14.6534 20.2814C14.8136 20.0604 14.9881 19.8504 15.1758 19.6527C15.3805 19.4307 15.6054 19.2286 15.8475 19.0492C15.8849 19.0059 15.9266 18.9665 15.9719 18.9318L16.1046 18.8145L16.3866 18.5882L16.5275 18.4708L16.6353 18.3954C16.6642 18.3578 16.6977 18.324 16.7349 18.2948C16.7527 18.2692 16.7793 18.2513 16.8095 18.2445L16.909 18.1774L16.9836 18.102C17.0028 18.0981 17.0225 18.0981 17.0417 18.102L17.0997 18.0517L17.1744 18.0098C17.4024 17.9005 17.6191 17.7685 17.8212 17.6158C18.0865 17.423 18.3851 17.1966 18.7085 16.92C19.0319 16.6434 19.4051 16.35 19.687 16.1404C19.969 15.9309 20.1929 15.7884 20.367 15.6878C20.5791 15.5488 20.8113 15.4442 21.0553 15.3776C21.3067 15.3091 21.5661 15.2752 21.8265 15.277C21.669 15.4531 21.4948 15.6291 21.3041 15.8219C21.1134 16.0147 20.8812 16.1991 20.6324 16.3919C20.3836 16.5847 20.0851 16.8613 19.8612 17.0793C19.6373 17.2972 19.4382 17.5152 19.2641 17.7164C19.1122 17.9004 18.9943 18.1105 18.9158 18.3367C18.8391 18.5518 18.7998 18.7786 18.7997 19.0073C18.7963 19.204 18.8272 19.3998 18.8909 19.5857C18.9857 19.9294 19.1495 20.2496 19.372 20.5265C19.5946 20.8034 19.8712 21.031 20.1846 21.1951C20.7052 21.5355 21.2614 21.8166 21.8431 22.0334C22.4223 22.0487 22.995 21.9069 23.5016 21.6227C24.0198 21.3204 24.4513 20.8871 24.7538 20.3653C24.8526 20.0269 24.9301 19.6825 24.986 19.3342C25.0457 18.9741 25.0762 18.6096 25.0772 18.2445C25.078 17.5924 24.9887 16.9435 24.8118 16.3165C24.6177 15.6883 24.3387 15.0903 23.9826 14.5394C23.5928 13.9391 23.172 13.3599 22.7221 12.8042C22.2246 12.2006 21.6524 11.5468 20.989 10.8678C20.2621 10.524 19.5075 10.2435 18.7334 10.0295C18.1324 9.851 17.5104 9.75514 16.8841 9.74451C16.472 9.74213 16.0616 9.79857 15.6651 9.91217C15.3023 10.016 14.9581 10.1773 14.6451 10.39V9.92055C14.9158 9.7286 15.1734 9.51857 15.4163 9.29185C15.7397 9.00684 16.1212 8.66316 16.569 8.24403C17.0168 7.8249 17.3983 7.50636 17.7714 7.18782C18.1267 6.89372 18.5038 6.62749 18.8992 6.39147C19.2138 6.19733 19.5546 6.05049 19.9109 5.95558C20.2814 5.855 20.6634 5.80427 21.047 5.80469L21.3787 5.85499L22.208 5.95558C22.7109 6.08769 23.1976 6.27607 23.6592 6.51721C24.1296 6.75779 24.579 7.03822 25.0026 7.35547C25.3926 7.64931 25.7562 7.97752 26.0889 8.33624C26.4658 8.74572 26.8123 9.1828 27.1255 9.64392C27.4117 10.0877 27.6587 10.5562 27.8635 11.0438C28.0741 11.5343 28.2433 12.0418 28.3694 12.5611C28.4108 13.064 28.444 13.4664 28.4772 13.7598C28.5104 14.0532 28.4772 14.2544 28.4772 14.3549C28.4884 15.6547 28.2402 16.9433 27.7474 18.1439C27.2479 19.3047 26.5361 20.3599 25.6494 21.2538C25.6494 21.2538 25.5831 21.2538 25.5748 21.3041C25.5748 21.3041 25.5748 21.3041 25.525 21.3041H25.4836C25.4872 21.312 25.4892 21.3206 25.4892 21.3293C25.4892 21.338 25.4872 21.3466 25.4836 21.3544C25.4799 21.3608 25.478 21.368 25.478 21.3754C25.478 21.3827 25.4799 21.39 25.4836 21.3963C25.4648 21.3893 25.4442 21.3893 25.4255 21.3963L25.3675 21.4382H25.2928V21.4802L25.2182 21.5556C25.2236 21.5629 25.2265 21.5717 25.2265 21.5807C25.2265 21.5898 25.2236 21.5986 25.2182 21.6059L24.7206 22.0083C24.5133 22.1759 24.2562 22.3855 23.966 22.637C23.6758 22.8884 23.1948 23.1986 22.8216 23.4752C22.4609 23.7067 22.0871 23.9166 21.7021 24.1039C21.352 24.2953 20.9783 24.439 20.5909 24.5314C20.1911 24.6238 19.782 24.6688 19.3719 24.6655C19.1668 24.6622 18.962 24.6482 18.7583 24.6236C18.4949 24.5859 18.2345 24.5298 17.9787 24.456C17.2689 24.2068 16.5964 23.8598 15.9802 23.4249C15.313 23.2509 14.6907 22.9336 14.1559 22.4944Z" fill="url(#paint7_linear)"/>
<path fill-rule="evenodd" clip-rule="evenodd" d="M102.927 10.5842C103.45 11.5902 103.923 12.5709 104.37 13.5433C104.818 14.5157 105.2 15.4713 105.606 16.4102C106.012 17.349 106.344 18.2711 106.659 19.1596C106.974 20.0482 107.256 20.9284 107.488 21.7918L106.875 22.2277C106.659 22.3869 106.41 22.5546 106.145 22.7306L106.079 22.7725L106.012 22.8228H105.954H105.904C105.904 22.8228 105.904 22.8228 105.863 22.8228L105.755 22.8815L105.672 22.9402C105.503 23.0335 105.34 23.1371 105.183 23.2504L104.254 23.9126C104.077 23.2201 103.864 22.5373 103.616 21.8672C103.375 21.193 103.098 20.5326 102.786 19.8889C102.509 19.2971 102.173 18.7354 101.783 18.2124C101.039 17.8564 100.257 17.5865 99.4529 17.4077C98.9576 16.9597 98.3985 16.5896 97.7943 16.3096C97.184 16.0187 96.5407 15.8048 95.8788 15.6725C95.6383 15.6725 95.3729 15.597 95.1075 15.5719C94.8314 15.5543 94.5544 15.5543 94.2783 15.5719C93.8109 15.5678 93.3452 15.627 92.8934 15.7479C92.4972 15.8551 92.1235 16.034 91.7905 16.276C91.5749 16.4202 91.3891 16.6052 91.2432 16.8209C91.0984 17.0346 91.0125 17.2834 90.9944 17.5418V17.6592C90.9868 17.6979 90.9868 17.7378 90.9944 17.7765C90.9778 17.8482 90.9778 17.9228 90.9944 17.9945C91.0338 18.0747 91.0644 18.159 91.0856 18.2459C91.4934 19.0748 92.1611 19.7439 92.9846 20.1488C93.9428 20.6244 95.0028 20.852 96.0695 20.811H96.4344H96.8324H97.2221H97.5953C97.6465 20.7811 97.7027 20.7612 97.7612 20.7523C97.8405 20.7232 97.9158 20.6838 97.9851 20.635L98.2587 20.526C98.3275 20.5165 98.3973 20.5165 98.466 20.526H98.5573H98.5987H98.6236H98.6651C98.4246 20.8194 98.1592 21.1128 97.8358 21.3643C97.5404 21.6625 97.2275 21.9424 96.8987 22.2025C96.6085 22.4372 96.2768 22.6803 95.9285 22.9234C95.5802 23.1665 95.1739 23.4264 94.7344 23.703L93.6066 24.2563C93.2525 24.4302 92.8867 24.5786 92.512 24.7005C92.031 24.7005 91.5832 24.6083 91.1769 24.5413C90.7705 24.4742 90.3476 24.3988 90.0159 24.3149C89.6697 24.2234 89.3291 24.1114 88.9959 23.9796C88.6614 23.8532 88.3417 23.6901 88.0423 23.4934C87.4713 23.1254 87.0211 22.5945 86.7486 21.9678C86.625 21.8101 86.5449 21.6221 86.5164 21.4229C86.4822 21.1839 86.4822 20.9411 86.5164 20.702C86.5388 20.4704 86.5776 20.2407 86.6325 20.0147C86.6798 19.8168 86.7436 19.6233 86.8232 19.4363C87.5409 18.5585 88.3407 17.7528 89.2115 17.0305C90.0605 16.3297 90.9773 15.7175 91.9481 15.2031C92.8987 14.6879 93.9027 14.2803 94.9417 13.9876C95.9578 13.6988 97.0048 13.5356 98.0597 13.5014C98.075 13.3005 98.075 13.0987 98.0597 12.8978C98.0527 12.7594 98.0218 12.6232 97.9685 12.4955C97.9485 12.3511 97.9095 12.2102 97.8524 12.0763C97.801 11.9503 97.7429 11.8272 97.6782 11.7075L97.5704 11.5566L97.2719 11.1207H97.2139C97.0047 10.8826 96.7804 10.6585 96.5422 10.4501C96.3437 10.2681 96.1331 10.1 95.9119 9.94717C95.7312 9.81116 95.5294 9.70636 95.3148 9.63701C95.0972 9.56966 94.8708 9.53575 94.6432 9.53642C94.481 9.53577 94.3195 9.55548 94.1622 9.5951C93.9768 9.64053 93.7982 9.71102 93.6315 9.80466L93.5154 9.86334C93.4632 9.8721 93.41 9.8721 93.3578 9.86334V9.5951C93.7065 9.4668 94.038 9.29503 94.3446 9.08376C94.7178 8.84067 95.1739 8.53051 95.6051 8.16168C96.0363 7.79284 96.4344 7.46592 96.7992 7.20606C97.1641 6.9462 97.4295 6.72825 97.6285 6.56898C97.834 6.41278 98.0679 6.29886 98.3168 6.23368C98.5876 6.1632 98.8664 6.12938 99.146 6.13309C99.3535 6.13092 99.5602 6.15915 99.7597 6.21691C99.9688 6.28144 100.169 6.37152 100.357 6.48516L102.927 10.5842Z" fill="url(#paint8_linear)"/>
<path fill-rule="evenodd" clip-rule="evenodd" d="M91.0031 6.81793C90.5698 7.49292 90.0257 8.08824 89.3944 8.57827C88.8473 9.00908 88.2036 9.29698 87.5202 9.41653C87.3423 9.39488 87.1704 9.3379 87.0144 9.24888C86.8424 9.15713 86.6902 9.03176 86.5666 8.88004C86.4224 8.69268 86.2895 8.49674 86.1685 8.29326C86.0359 8.06693 85.9032 7.82384 85.7705 7.54721H85.8203H85.8783L85.9612 7.48015L86.0359 7.41309H86.0856L86.1271 7.36279H86.1851H86.2349H86.2764H86.3261L86.8071 7.01072C86.9697 6.88313 87.1248 6.74598 87.2715 6.59998C87.3445 6.54012 87.4137 6.47573 87.4788 6.40718C87.5568 6.34098 87.6289 6.26806 87.6944 6.18923L87.8934 5.98805C87.964 5.91899 88.0279 5.84319 88.0841 5.76172L91.0031 6.81793Z" fill="#00B0BD"/>
<path fill-rule="evenodd" clip-rule="evenodd" d="M30.8737 37.7587C31.944 38.1993 32.8535 38.9634 33.4776 39.9466C33.6434 39.1083 35.9654 37.809 35.9654 36.9288C35.559 36.2666 35.3932 36.2163 33.602 34.4141C33.1127 35.7218 30.7327 36.7193 30.8737 37.7587Z" fill="url(#paint9_linear)"/>
<path fill-rule="evenodd" clip-rule="evenodd" d="M41.8688 40.4344L40.2103 41.6498C40.2103 41.4067 40.1523 41.1385 40.1357 40.8116C40.1191 40.4846 40.1357 40.2332 40.0859 39.9146C40.0362 39.5961 40.0859 39.2692 40.0859 38.9255C40.0859 38.5818 40.0859 38.2297 40.0859 37.8693C40.0859 37.5088 40.0859 37.1735 40.0279 36.8382C39.9698 36.5029 39.9698 36.2011 39.9284 35.9077C39.8821 35.6253 39.8212 35.3455 39.7459 35.0695C39.6718 34.7973 39.5775 34.5311 39.464 34.2731C39.3915 34.2135 39.3104 34.1654 39.2235 34.1306C39.1419 34.097 39.0546 34.0799 38.9664 34.0803C38.8671 34.0759 38.7687 34.1022 38.6845 34.1558V34.2228L38.6016 33.9965L39.5386 33.284C39.7957 33.0912 39.9947 32.9403 40.144 32.8397C40.3284 32.7071 40.5194 32.584 40.7162 32.4709C40.9099 32.3498 41.1123 32.2433 41.3215 32.1523L41.6698 32.5044L41.8688 40.4344Z" fill="url(#paint10_linear)"/>
<path fill-rule="evenodd" clip-rule="evenodd" d="M51.116 34.5405C51.1489 34.6984 51.1738 34.8579 51.1906 35.0183C51.1986 35.1663 51.1986 35.3146 51.1906 35.4626C51.1916 35.8102 51.1498 36.1565 51.0662 36.4937C50.9809 36.8197 50.8526 37.1326 50.6847 37.4241C50.5094 37.714 50.3184 37.9938 50.1126 38.2624C49.9136 38.5148 49.6945 38.7503 49.4574 38.9665C49.2004 39.2012 48.9184 39.4443 48.6282 39.7042C48.3379 39.9641 47.9648 40.2407 47.5833 40.5425C47.2018 40.8442 46.8453 41.1125 46.5633 41.3807C46.2814 41.649 46.0492 41.825 45.875 42.001L45.6428 41.7579C45.8916 41.5651 46.1321 41.3807 46.3643 41.1879C46.5965 40.9951 46.8121 40.8023 47.0277 40.6011C47.2433 40.4 47.376 40.2574 47.5667 40.0395L48.1887 39.2851C48.3671 39.0565 48.5253 38.8124 48.6614 38.5558C48.7942 38.3068 48.9105 38.0491 49.0096 37.7846C49.1101 37.5129 49.1851 37.2322 49.2335 36.9463C49.2819 36.6865 49.3069 36.4227 49.3082 36.1584C49.3082 36.041 49.3082 35.9069 49.3082 35.7644C49.2961 35.5983 49.274 35.4331 49.2418 35.2698C49.1759 35.0326 49.0812 34.8045 48.9599 34.5908C48.8419 34.3716 48.7 34.1663 48.537 33.9789C48.3768 33.7889 48.1991 33.6149 48.0062 33.4592C47.8075 33.3082 47.5934 33.1789 47.3677 33.0736H47.235H47.1023C46.9369 33.0732 46.7752 33.1228 46.638 33.2161C46.4771 33.3356 46.3417 33.4867 46.2399 33.6603C46.2399 33.7945 46.2399 33.9034 46.2399 33.9873C46.2372 34.0347 46.2372 34.0823 46.2399 34.1298C46.2333 34.6341 46.3501 35.1323 46.5799 35.58C46.8302 36.0328 47.1755 36.4248 47.5916 36.7284L48.2053 36.9966L48.0311 37.1727C47.9565 37.2481 47.8653 37.3319 47.774 37.4409C47.6828 37.5499 47.5336 37.6756 47.4257 37.7678C47.3233 37.8571 47.2121 37.9357 47.094 38.0025C46.9968 38.0679 46.8906 38.1188 46.7789 38.1534C46.6602 38.1871 46.5374 38.2041 46.414 38.2037H46.1902L45.9994 38.0025L45.9165 38.078L45.6511 37.8433C45.5695 37.7665 45.492 37.6853 45.4189 37.6002C45.3454 37.529 45.2762 37.4534 45.2116 37.3738C45.1462 37.2964 45.0853 37.2153 45.0292 37.1307C44.9184 36.9852 44.829 36.8243 44.7638 36.6529C44.6938 36.4676 44.6384 36.277 44.598 36.0829C44.598 35.9488 44.598 35.8398 44.5565 35.756C44.5151 35.6722 44.5565 35.5967 44.5565 35.538C44.5571 35.3654 44.5794 35.1936 44.6229 35.0267C44.6677 34.8711 44.7318 34.7218 44.8136 34.5824C44.8828 34.4434 44.9691 34.3138 45.0707 34.1968C45.1783 34.0712 45.2947 33.9536 45.4189 33.8448L45.8419 33.5095L46.3892 33.1155L46.8536 32.7969L47.2516 32.5035C47.5342 32.352 47.8281 32.2231 48.1306 32.1179C48.3523 32.0406 48.5845 31.9982 48.8189 31.9922C48.9707 31.9914 49.1217 32.014 49.2667 32.0593C49.3953 32.1107 49.5155 32.1814 49.6233 32.2688C49.969 32.5282 50.2738 32.8391 50.5272 33.1909C50.7799 33.6134 50.9778 34.067 51.116 34.5405Z" fill="url(#paint11_linear)"/>
<path fill-rule="evenodd" clip-rule="evenodd" d="M60.1795 34.5345C60.2124 34.6924 60.2373 34.8518 60.2541 35.0123C60.2621 35.1603 60.2621 35.3086 60.2541 35.4566C60.2565 35.8048 60.2119 36.1517 60.1214 36.4876C60.0397 36.8149 59.9112 37.1283 59.74 37.4181C59.5705 37.7118 59.3792 37.992 59.1678 38.2564C58.9734 38.5127 58.7539 38.7487 58.5127 38.9605C58.2639 39.1952 57.9819 39.4383 57.6834 39.6982C57.3849 39.958 57.02 40.2347 56.6385 40.5364C56.2571 40.8382 55.9005 41.1064 55.6185 41.3747C55.3366 41.6429 55.1044 41.819 54.922 41.995L54.6898 41.7519C54.9468 41.5591 55.1873 41.3747 55.4195 41.1819C55.6517 40.9891 55.8673 40.7963 56.0746 40.5951C56.2673 40.4183 56.45 40.2308 56.622 40.0335L57.2439 39.279C57.4198 39.0503 57.5752 38.8063 57.7083 38.5497C57.8479 38.3042 57.9645 38.046 58.0566 37.7785C58.1597 37.5071 58.2374 37.2264 58.2888 36.9403C58.3371 36.6804 58.3621 36.4167 58.3634 36.1523C58.3634 36.035 58.3634 35.9008 58.3634 35.7583C58.3634 35.6158 58.3634 35.4482 58.297 35.2638C58.2311 35.0266 58.1364 34.7985 58.0151 34.5848C57.8914 34.3692 57.7499 34.1645 57.5922 33.9728C57.4313 33.7808 57.2506 33.6065 57.0532 33.4531C56.8573 33.3022 56.646 33.173 56.4229 33.0675H56.282H56.1576C55.9922 33.0672 55.8304 33.1168 55.6932 33.21C55.5303 33.3273 55.3945 33.4789 55.2951 33.6543C55.2951 33.7884 55.2951 33.8974 55.2951 33.9812C55.2924 34.0287 55.2924 34.0763 55.2951 34.1237C55.2885 34.6281 55.4053 35.1262 55.6351 35.5739C55.8821 36.0266 56.2247 36.4186 56.6385 36.7223L57.2605 36.9906L57.078 37.1666L56.821 37.4349C56.7141 37.5505 56.6005 37.6596 56.481 37.7618C56.3757 37.8513 56.2618 37.9299 56.141 37.9965C56.0455 38.065 55.9388 38.1161 55.8259 38.1474C55.7073 38.1822 55.5844 38.1992 55.461 38.1977C55.5024 38.1977 55.5024 38.1977 55.461 38.1977H55.2371L55.0464 37.9965L54.9551 38.0719L54.6732 37.7534L54.4327 37.5103L54.2254 37.284L54.043 37.0409C53.9379 36.8931 53.8515 36.7326 53.7859 36.5631C53.7159 36.3778 53.6604 36.1872 53.62 35.9931C53.62 35.8589 53.62 35.75 53.62 35.6661C53.613 35.5937 53.613 35.5207 53.62 35.4482C53.6159 35.2753 53.6383 35.1028 53.6864 34.9368C53.7277 34.78 53.7919 34.6302 53.8771 34.4926C53.9432 34.3537 54.0268 34.2241 54.1259 34.107C54.2386 33.9834 54.3576 33.8659 54.4825 33.7549C54.5986 33.6543 54.7395 33.5453 54.9054 33.4196L55.4527 33.0256L55.9171 32.7071L56.3151 32.4137C56.595 32.2624 56.8861 32.1334 57.1858 32.0281C57.4105 31.9513 57.6453 31.9089 57.8824 31.9023C58.0314 31.9021 58.1796 31.9248 58.3219 31.9694C58.454 32.0189 58.5772 32.0896 58.6868 32.179C59.0429 32.4652 59.351 32.8077 59.599 33.1933C59.8513 33.6119 60.0465 34.063 60.1795 34.5345Z" fill="url(#paint12_linear)"/>
<path fill-rule="evenodd" clip-rule="evenodd" d="M67.6098 35.066C67.434 35.2204 67.2679 35.3855 67.1123 35.5606C67.0045 35.6947 66.8801 35.8372 66.9464 35.8875C67.2615 36.1223 69.0196 36.2145 69.0196 38.0586C69.0288 38.159 69.0288 38.26 69.0196 38.3604C69.0114 38.4393 68.9889 38.5161 68.9532 38.5867C68.8244 38.791 68.6831 38.9869 68.5303 39.1735C68.3727 39.3579 68.2069 39.534 68.0162 39.7184C67.8254 39.9028 67.6596 40.0621 67.4688 40.2213C67.2781 40.3806 67.0791 40.5231 66.8635 40.6656C66.6479 40.8081 66.4571 40.9171 66.2415 41.0345C66.0278 41.1558 65.8062 41.2622 65.5781 41.353L64.8981 41.5961C64.6716 41.6736 64.4384 41.7297 64.2016 41.7637C63.9101 41.7316 63.6281 41.6403 63.3723 41.4955C63.1493 41.3573 62.9617 41.1677 62.825 40.9422C62.7584 40.8299 62.7081 40.7086 62.6757 40.5818C62.6384 40.4481 62.6189 40.31 62.6177 40.171C62.6229 39.9196 62.6677 39.6706 62.7504 39.4334C62.9387 38.9253 63.2247 38.4601 63.592 38.0644C63.9592 37.6687 64.4003 37.3505 64.8899 37.1282C64.665 36.94 64.4169 36.7822 64.1518 36.6587L63.6377 36.3486C63.505 36.2648 63.3972 36.1809 63.3143 36.1222C63.2157 36.0316 63.1342 35.9237 63.0738 35.8037C63.0001 35.6761 62.947 35.5374 62.9162 35.393C62.908 35.1222 62.9528 34.8524 63.0482 34.5992C63.1435 34.346 63.2875 34.1143 63.4718 33.9176C63.6699 33.7006 63.8863 33.5015 64.1186 33.3225C64.3847 33.1098 64.6615 32.9111 64.9479 32.7273C64.8554 32.9165 64.7857 33.1164 64.7406 33.3225C64.6898 33.5423 64.6648 33.7674 64.6659 33.9931V34.2194C64.6585 34.2468 64.6585 34.2758 64.6659 34.3032C64.755 34.4622 64.8607 34.6112 64.9811 34.7475C65.1183 34.9023 65.2681 35.0453 65.4289 35.175C65.5909 35.3026 65.7661 35.4122 65.9513 35.5019C66.1207 35.5898 66.2986 35.66 66.482 35.7115C66.6837 35.6042 66.8485 35.4376 66.9547 35.2337C67.3196 34.5128 66.8966 33.1464 66.0591 33.2303L66.5898 32.7776C68.4805 31.1933 70.1059 32.9117 67.6098 35.066ZM67.1123 38.6622C67.0341 38.4973 66.9367 38.3425 66.822 38.2011C66.7031 38.0623 66.5632 37.9435 66.4074 37.8491C66.2389 37.7414 66.0644 37.6434 65.885 37.5557C65.6927 37.461 65.493 37.3825 65.2879 37.321C65.0883 37.483 64.9239 37.6851 64.8052 37.9144C64.6865 38.1437 64.616 38.3954 64.5981 38.6536C64.5802 38.9118 64.6153 39.1709 64.7012 39.4147C64.787 39.6586 64.9219 39.8818 65.0972 40.0705C65.2463 40.1838 65.4111 40.2742 65.5864 40.3387C65.7486 40.3983 65.9197 40.4295 66.0923 40.4309C66.1747 40.4436 66.2586 40.4436 66.3411 40.4309C66.4197 40.4114 66.4952 40.3803 66.5649 40.3387C66.7514 40.2351 66.8998 40.0734 66.9879 39.8777C67.0903 39.6109 67.1356 39.3252 67.1205 39.0394V38.7712C67.1123 38.7041 67.1123 38.6706 67.1123 38.6622Z" fill="url(#paint13_linear)"/>
<defs>
<linearGradient id="paint0_linear" x1="1429.89" y1="628.883" x2="1431.96" y2="1145.15" gradientUnits="userSpaceOnUse">
<stop stop-color="#DA521F"/>
<stop offset="1" stop-color="#B11116"/>
</linearGradient>
<linearGradient id="paint1_linear" x1="2756.4" y1="604.75" x2="2757.62" y2="1102.49" gradientUnits="userSpaceOnUse">
<stop stop-color="#DA521F"/>
<stop offset="1" stop-color="#B11116"/>
</linearGradient>
<linearGradient id="paint2_linear" x1="3487.46" y1="637.418" x2="3488.95" y2="1164.36" gradientUnits="userSpaceOnUse">
<stop stop-color="#DA521F"/>
<stop offset="1" stop-color="#B11116"/>
</linearGradient>
<linearGradient id="paint3_linear" x1="1001.66" y1="187.08" x2="1001.97" y2="342.33" gradientUnits="userSpaceOnUse">
<stop stop-color="#DA521F"/>
<stop offset="1" stop-color="#B11116"/>
</linearGradient>
<linearGradient id="paint4_linear" x1="731.569" y1="1037.52" x2="743.827" y2="1898.95" gradientUnits="userSpaceOnUse">
<stop stop-color="#DA521F"/>
<stop offset="1" stop-color="#B11116"/>
</linearGradient>
<linearGradient id="paint5_linear" x1="2744.18" y1="613.154" x2="2746.19" y2="1121.09" gradientUnits="userSpaceOnUse">
<stop stop-color="#DA521F"/>
<stop offset="1" stop-color="#B11116"/>
</linearGradient>
<linearGradient id="paint6_linear" x1="2745.01" y1="639.45" x2="2747.08" y2="1155.44" gradientUnits="userSpaceOnUse">
<stop stop-color="#DA521F"/>
<stop offset="1" stop-color="#B11116"/>
</linearGradient>
<linearGradient id="paint7_linear" x1="1674.43" y1="611.432" x2="1676.42" y2="1114.07" gradientUnits="userSpaceOnUse">
<stop stop-color="#DA521F"/>
<stop offset="1" stop-color="#B11116"/>
</linearGradient>
<linearGradient id="paint8_linear" x1="4434.48" y1="597.701" x2="4435.62" y2="1092.72" gradientUnits="userSpaceOnUse">
<stop stop-color="#DA521F"/>
<stop offset="1" stop-color="#B11116"/>
</linearGradient>
<linearGradient id="paint9_linear" x1="695.045" y1="212.285" x2="695.525" y2="359.671" gradientUnits="userSpaceOnUse">
<stop stop-color="#DA521F"/>
<stop offset="1" stop-color="#B11116"/>
</linearGradient>
<linearGradient id="paint10_linear" x1="490.956" y1="336.832" x2="493.164" y2="590.208" gradientUnits="userSpaceOnUse">
<stop stop-color="#DA521F"/>
<stop offset="1" stop-color="#B11116"/>
</linearGradient>
<linearGradient id="paint11_linear" x1="1028" y1="353.176" x2="1029.21" y2="619.908" gradientUnits="userSpaceOnUse">
<stop stop-color="#DA521F"/>
<stop offset="1" stop-color="#B11116"/>
</linearGradient>
<linearGradient id="paint12_linear" x1="1107.77" y1="355.473" x2="1108.84" y2="624.44" gradientUnits="userSpaceOnUse">
<stop stop-color="#DA521F"/>
<stop offset="1" stop-color="#B11116"/>
</linearGradient>
<linearGradient id="paint13_linear" x1="1147.95" y1="339.859" x2="1149.1" y2="595.695" gradientUnits="userSpaceOnUse">
<stop stop-color="#DA521F"/>
<stop offset="1" stop-color="#B11116"/>
</linearGradient>
</defs>
</svg>
