<svg width="238" height="84" viewBox="0 0 238 84" fill="none" xmlns="http://www.w3.org/2000/svg">
<g clip-path="url(#clip0)">
<path fill-rule="evenodd" clip-rule="evenodd" d="M44.2812 72.9679C48.2132 65.6865 47.6933 55.6884 41.4866 49.8698C36.6555 45.3492 29.0623 43.2704 21.0791 41.7965C16.1506 40.8506 9.82472 39.1897 9.16397 35.428C8.3949 31.3694 11.0054 26.7388 17.2446 25.5289C17.2464 25.061 17.2101 24.5938 17.1363 24.132C9.96553 23.0981 1.68991 27.9267 0.357576 35.571C-2.16627 50.0128 8.78485 55.1054 20.1584 57.9652C33.4167 61.2869 46.5776 65.9945 36.688 84L42.0065 81.8772C43.5555 79.0834 46.4801 75.7617 52.9468 71.1091C63.0205 63.8717 73.8417 60.506 76.4413 46.3501C77.0831 43.2006 76.9482 39.9389 76.0486 36.8551C75.1491 33.7713 73.5128 30.9611 71.2853 28.6746C64.862 22.0092 53.9542 21.0522 44.8553 19.1164C35.5831 17.1366 30.8279 8.18331 40.3167 2.3538C38.4644 0.252973 30.7954 1.91383 26.0618 7.23739C18.3278 15.9377 21.5774 28.2786 34.0342 30.7974C49.1989 33.9102 68.2307 42.5115 57.5504 58.2951C53.5425 64.2786 47.0109 68.5573 44.2812 72.9679Z" fill="url(#paint0_linear)"/>
<path fill-rule="evenodd" clip-rule="evenodd" d="M39.9699 8.71121C42.7314 9.84419 45.0755 11.8245 46.6749 14.3757C47.1082 12.1759 53.055 8.87619 53.1741 6.55538C52.0909 4.83953 51.701 4.70754 47.0757 -0.0440674C45.6567 3.29965 39.6125 5.92844 39.9699 8.71121Z" fill="#00B0BD"/>
<path fill-rule="evenodd" clip-rule="evenodd" d="M27.7949 74.6397C29.7578 75.4501 31.4236 76.8609 32.561 78.6764C32.8751 77.1145 37.0996 74.7277 37.1646 73.1108C36.428 71.8899 36.0814 71.7909 32.8318 68.4472C31.8352 70.823 27.5458 72.6599 27.7949 74.6397Z" fill="#00B0BD"/>
<path fill-rule="evenodd" clip-rule="evenodd" d="M49.6645 15.8057C51.1167 16.4047 52.3504 17.4461 53.1958 18.7864C53.4232 17.6865 56.5645 15.8717 56.6078 14.6728C56.0662 13.7708 55.8279 13.6938 53.3582 11.2191C52.665 12.9789 49.4804 14.2988 49.6645 15.8057Z" fill="url(#paint1_linear)"/>
<path fill-rule="evenodd" clip-rule="evenodd" d="M116.4 30.5553C116.422 30.635 116.44 30.7158 116.454 30.7973C116.458 30.8596 116.458 30.9221 116.454 30.9843C116.464 31.061 116.464 31.1386 116.454 31.2153V31.4463C116.451 31.8017 116.393 32.1544 116.281 32.4912C116.166 32.8204 116.005 33.1315 115.804 33.4151C115.595 33.7052 115.367 33.9808 115.122 34.24C114.85 34.5262 114.556 34.7909 114.244 35.032C114.192 35.089 114.134 35.1406 114.071 35.186L113.909 35.3399L113.54 35.6369C112.685 36.3079 111.027 37.6498 110.063 34.537C109.984 34.2793 109.882 34.029 109.76 33.7891C109.399 33.2394 108.926 32.7744 108.374 32.4252C104.712 29.9614 102.048 32.3152 102.048 36.2969C102.047 37.1524 102.163 38.0039 102.394 38.8267C102.627 39.6476 102.97 40.4322 103.412 41.1585C103.923 41.948 104.476 42.7081 105.07 43.4353C105.72 44.2272 106.467 45.0851 107.334 45.9761C108.283 46.4272 109.269 46.7952 110.28 47.076C111.061 47.3094 111.87 47.4352 112.685 47.4499C113.227 47.4538 113.766 47.3798 114.288 47.23C114.759 47.0958 115.206 46.884 115.609 46.603V47.219C115.26 47.4764 114.924 47.7517 114.602 48.0439L113.107 49.4188C112.544 49.9247 112.024 50.3867 111.526 50.8047C111.067 51.1929 110.578 51.5423 110.063 51.8496C109.655 52.1088 109.209 52.3018 108.742 52.4215C108.258 52.5529 107.759 52.6194 107.258 52.6195L106.814 52.5645C106.575 52.5645 106.229 52.4765 105.731 52.4215C105.127 52.2373 104.543 51.9942 103.987 51.6956C103.371 51.3821 102.784 51.014 102.232 50.5957C101.697 50.2208 101.197 49.7974 100.737 49.3308C100.241 48.7963 99.7887 48.2225 99.383 47.6149C99.0092 47.0326 98.6866 46.4179 98.419 45.7781C98.1467 45.1361 97.9222 44.4743 97.7474 43.7982C97.704 43.131 97.6607 42.603 97.6174 42.2144C97.6174 41.8294 97.5632 41.5654 97.5632 41.4444C97.5698 39.7321 97.9123 38.0383 98.5706 36.4619C99.8488 33.3601 104.994 28.2345 108.763 27.3766C109.287 27.2602 109.82 27.2012 110.356 27.2006C110.621 27.2038 110.885 27.2258 111.147 27.2666C111.512 27.308 111.874 27.3779 112.23 27.4756C113.155 27.8001 114.03 28.2556 114.829 28.8285C115.456 29.298 115.989 29.884 116.4 30.5553Z" fill="url(#paint2_linear)"/>
<path fill-rule="evenodd" clip-rule="evenodd" d="M155.417 34.4821C156.1 35.791 156.717 37.0889 157.302 38.3648C157.887 39.6407 158.385 40.8835 158.916 42.1264C159.447 43.3693 159.88 44.5572 160.292 45.7341C160.703 46.911 161.072 48.0549 161.375 49.1879L160.573 49.7598C160.292 49.9688 159.967 50.1888 159.62 50.4198H159.534H159.447H159.371C159.371 50.4198 159.371 50.4198 159.306 50.4198L159.165 50.4967L159.057 50.5737C158.836 50.6962 158.623 50.8321 158.418 50.9807L157.205 51.8496C156.973 50.9409 156.694 50.0451 156.371 49.1659C156.059 48.2768 155.697 47.4064 155.287 46.5591C154.926 45.7823 154.486 45.0452 153.977 44.3593C153.442 43.6183 152.836 42.9331 152.168 42.3134C151.519 41.7255 150.789 41.2364 150.001 40.8616C149.206 40.4788 148.365 40.2015 147.499 40.0366C147.185 39.9816 146.839 39.9376 146.492 39.9046C146.133 39.8595 145.771 39.8374 145.409 39.8386C144.798 39.8333 144.19 39.9109 143.6 40.0696C143.082 40.2141 142.594 40.4526 142.159 40.7736C141.878 40.9586 141.635 41.1977 141.444 41.4775C141.258 41.7595 141.146 42.0851 141.119 42.4234C141.119 42.4234 141.119 42.5334 141.119 42.5774C141.108 42.6281 141.108 42.6807 141.119 42.7314C141.097 42.8291 141.097 42.9307 141.119 43.0284C141.171 43.1336 141.211 43.2443 141.238 43.3583C141.751 44.4541 142.598 45.3528 143.654 45.9211C144.907 46.54 146.291 46.8384 147.683 46.7901H148.16C148.333 46.8055 148.507 46.8055 148.68 46.7901H149.189L149.676 46.7241L149.893 46.6471C149.999 46.6136 150.098 46.5614 150.186 46.4931L150.543 46.3611C150.632 46.3433 150.724 46.3433 150.814 46.3611H150.987C150.987 46.3611 150.987 46.3611 151.041 46.3611H151.095C150.781 46.7461 150.435 47.131 150.066 47.461C149.681 47.8523 149.272 48.2196 148.842 48.5609C148.463 48.8689 148.03 49.1769 147.575 49.5068C147.12 49.8368 146.589 50.1668 146.015 50.5187C145.441 50.8707 145.019 51.0247 144.542 51.2557C144.078 51.4792 143.6 51.6739 143.112 51.8386C142.484 51.8386 141.899 51.7176 141.368 51.6187C140.838 51.5197 140.285 51.4427 139.852 51.3327C139.419 51.2227 138.942 51.0577 138.52 50.8927C138.085 50.7223 137.667 50.5086 137.274 50.2548C136.534 49.7645 135.948 49.07 135.584 48.2529C135.424 48.0449 135.32 47.7987 135.281 47.538C135.236 47.2243 135.236 46.9057 135.281 46.5921C135.31 46.2845 135.361 45.9795 135.432 45.6791C135.496 45.4235 135.579 45.1734 135.682 44.9312C136.268 44.2143 136.898 43.5347 137.566 42.8964C138.678 41.9841 139.875 41.1846 141.141 40.5096C142.417 39.8397 143.761 39.3123 145.149 38.9367C146.477 38.5632 147.844 38.349 149.222 38.2988C149.241 38.0388 149.241 37.7778 149.222 37.5178C149.212 37.3361 149.172 37.1575 149.102 36.9899C149.078 36.7966 149.027 36.6078 148.951 36.4289C148.886 36.2639 148.799 36.0989 148.723 35.945L148.582 35.758L148.193 35.175H148.117C147.841 34.8618 147.548 34.5643 147.239 34.2841C146.977 34.0519 146.703 33.8352 146.416 33.6351C146.183 33.4525 145.918 33.3146 145.636 33.2282C145.352 33.1398 145.056 33.0953 144.759 33.0962C144.547 33.0953 144.336 33.1212 144.131 33.1732C143.889 33.2288 143.655 33.3176 143.437 33.4372C143.397 33.4736 143.349 33.5 143.296 33.5142C143.225 33.5296 143.151 33.5296 143.08 33.5142V33.1622C143.533 32.9892 143.966 32.7641 144.369 32.4912C144.682 31.6807 144.942 30.8503 145.149 30.0055C145.734 29.5215 146.254 29.1035 146.709 28.7516C147.153 28.4106 147.532 28.1356 147.792 27.9266C148.06 27.7217 148.366 27.5722 148.691 27.4867C149.043 27.3849 149.408 27.3367 149.774 27.3437C150.043 27.3563 150.31 27.4081 150.565 27.4977C150.837 27.5784 151.099 27.6929 151.345 27.8386L155.417 34.4821Z" fill="url(#paint3_linear)"/>
<path fill-rule="evenodd" clip-rule="evenodd" d="M180.244 51.8825C180.244 51.3656 180.19 50.7826 180.179 50.1227C180.168 49.4627 180.179 48.7588 180.179 47.9889C180.179 47.5709 180.179 47.1749 180.179 46.79C180.179 46.405 180.179 46.02 180.179 45.6901C180.179 45.3601 180.233 44.9641 180.233 44.5902C180.233 44.2162 180.233 43.8752 180.233 43.5452C180.233 42.878 180.233 42.24 180.233 41.6314C180.233 41.0264 180.168 40.4545 180.114 39.9155C179.543 40.3524 178.997 40.8225 178.479 41.3234C177.926 41.8514 177.395 42.4233 176.767 43.0833L176.161 43.7762C175.944 44.0072 175.749 44.2382 175.543 44.4692L174.958 45.1291C174.792 45.3051 174.651 45.4701 174.536 45.6241L173.886 46.317L173.279 47.0209C172.716 47.6589 172.131 48.2528 171.535 48.8138C170.94 49.3748 170.322 49.9137 169.726 50.3317C168.503 51.257 167.133 51.9638 165.675 52.4215L165.253 52.3225C165.122 52.284 165.002 52.212 164.906 52.1135C164.791 52.0622 164.688 51.9873 164.603 51.8935C164.514 51.7962 164.44 51.6847 164.386 51.5636C164.304 51.4508 164.235 51.3291 164.18 51.2006C164.126 51.0576 164.061 50.9036 163.996 50.7166C163.991 50.6913 163.991 50.665 163.996 50.6396C163.99 50.6144 163.99 50.5879 163.996 50.5627C163.989 50.5375 163.989 50.5108 163.996 50.4857C164.001 50.4735 164.004 50.4604 164.004 50.4472C164.004 50.4339 164.001 50.4209 163.996 50.4087L163.931 50.2547C163.906 50.1911 163.887 50.1247 163.877 50.0567C163.79 49.2868 163.704 48.5278 163.628 47.7799C163.552 47.0319 163.466 46.295 163.422 45.5801C163.156 40.7687 163.193 35.945 163.531 31.1383C165.004 29.7634 169.098 28.9385 170.961 27.3216V27.5966C170.68 30.8963 169.131 42.6323 170.961 43.8312C172.792 45.0301 175.511 42.8523 176.951 41.5544C181.685 37.2758 183.006 33.4591 186.375 28.3555L186.906 29.2464C186.538 30.1264 186.678 39.6186 186.668 39.9265C186.668 40.9275 186.668 41.8844 186.668 42.7863C186.686 43.6704 186.762 44.5522 186.895 45.4261C187.034 46.2534 187.219 47.0723 187.448 47.8789C187.595 48.0651 187.775 48.2218 187.978 48.3408C188.201 48.4481 188.446 48.5009 188.693 48.4948C188.877 48.5103 189.062 48.5103 189.246 48.4948C189.43 48.4736 189.609 48.4216 189.776 48.3408C189.914 48.2913 190.055 48.2544 190.199 48.2308C190.378 48.1959 190.559 48.1702 190.74 48.1539V48.5388C190.233 48.7045 189.743 48.9219 189.278 49.1878C188.715 49.5067 188.087 49.9027 187.393 50.3867C186.7 50.8706 185.974 51.3436 185.4 51.6956C184.826 52.0475 184.317 52.3445 183.938 52.5535C183.489 52.7792 183.017 52.9526 182.53 53.0704C182.01 53.1869 181.48 53.2459 180.948 53.2464L180.244 51.8825Z" fill="url(#paint4_linear)"/>
<path fill-rule="evenodd" clip-rule="evenodd" d="M142.982 22.911C142.165 24.1829 141.134 25.2996 139.938 26.2108C138.903 27.0037 137.696 27.5319 136.418 27.7506C136.038 27.7264 135.668 27.6175 135.334 27.4317C135.009 27.2573 134.721 27.0178 134.489 26.7277C134.218 26.3771 133.969 26.0098 133.742 25.6278C133.493 25.2098 133.244 24.7369 132.995 24.2199V24.1649H133.233H133.33V24.1099V24.0549C133.387 24.0236 133.439 23.9827 133.482 23.934L133.634 23.813C133.662 23.823 133.692 23.823 133.72 23.813C133.757 23.7927 133.787 23.7622 133.807 23.725V23.428H134.316V23.373H134.414H134.273V23.318H134.359H134.424C134.424 23.318 134.424 23.318 134.489 23.252V23.197H134.576C134.576 23.197 134.576 23.131 134.641 23.131L135.529 22.4601C135.839 22.225 136.133 21.9677 136.407 21.6901L136.807 21.3272C136.949 21.196 137.083 21.0564 137.208 20.9092L137.577 20.5242C137.717 20.3975 137.84 20.2533 137.945 20.0953L142.982 22.911Z" fill="url(#paint5_linear)"/>
<path fill-rule="evenodd" clip-rule="evenodd" d="M119.368 20.6011V58.295L118.285 59.0099C117.841 59.3069 117.299 59.6369 116.671 60.0329C116.043 60.4288 115.404 60.8688 114.916 61.2098C114.429 61.5507 114.05 61.8587 113.747 62.1117L113.476 25.8147C113.418 25.6019 113.318 25.4033 113.182 25.2312C113.046 25.059 112.877 24.917 112.685 24.8138C112.179 24.5536 111.615 24.4323 111.049 24.4618H110.486L111.298 23.8459C111.667 23.5599 112.143 23.1749 112.728 22.691C113.26 22.2344 113.817 21.8085 114.396 21.4151C114.872 21.0863 115.368 20.7887 115.88 20.5241C116.321 20.2771 116.79 20.0885 117.278 19.9632C117.765 19.849 118.262 19.7791 118.762 19.7542L119.368 20.6011Z" fill="url(#paint6_linear)"/>
<path fill-rule="evenodd" clip-rule="evenodd" d="M191.054 29.8734C191.044 29.95 191.044 30.0277 191.054 30.1044C191.045 30.1664 191.045 30.2293 191.054 30.2913C191.039 30.3675 191.039 30.4461 191.054 30.5223V30.7973C191.056 31.1528 191.115 31.5057 191.228 31.8422C191.338 32.1735 191.499 32.4853 191.704 32.7661C191.916 33.0576 192.144 33.3367 192.387 33.6021C192.659 33.8876 192.953 34.1523 193.264 34.394L193.426 34.548C193.491 34.5904 193.55 34.6423 193.6 34.702L193.968 34.9879L194.282 35.2409C194.335 35.2635 194.383 35.2973 194.423 35.3399L194.553 35.4719C194.585 35.4798 194.618 35.4798 194.65 35.4719C194.7 35.4953 194.744 35.529 194.78 35.5709L194.878 35.6589C194.898 35.6866 194.924 35.7092 194.954 35.7249L195.03 35.7799H195.127C195.425 35.9339 195.711 36.1104 195.983 36.3078C196.319 36.5498 196.709 36.8468 197.131 37.2098C197.553 37.5727 198.041 37.9687 198.409 38.2327C198.694 38.4507 198.991 38.6526 199.297 38.8376C199.577 39.0121 199.88 39.1454 200.196 39.2336C200.523 39.3326 200.863 39.3808 201.204 39.3766C200.998 39.1456 200.771 38.9036 200.521 38.6616C200.272 38.4197 199.969 38.1667 199.644 37.9027C199.292 37.621 198.956 37.3199 198.637 37.0008C198.344 36.7038 198.084 36.4288 197.857 36.1648C197.659 35.9273 197.504 35.6553 197.402 35.3619C197.302 35.0757 197.251 34.7745 197.25 34.471C197.252 34.2169 197.292 33.9647 197.369 33.7231C197.451 33.4624 197.552 33.2087 197.673 32.9641C198.037 32.417 198.509 31.9526 199.059 31.6002C199.742 31.158 200.468 30.7893 201.225 30.5003C201.982 30.4802 202.73 30.6663 203.392 31.0393C204.069 31.4402 204.633 32.0124 205.027 32.7001C205.158 33.1438 205.259 33.5958 205.331 34.053C205.409 34.5218 205.449 34.9964 205.45 35.4719C205.456 37.1923 204.978 38.8786 204.074 40.3335C203.57 41.1249 203.021 41.8852 202.428 42.6103C201.778 43.4132 201.03 44.2602 200.164 45.1621C199.21 45.6035 198.226 45.9711 197.218 46.262C196.435 46.487 195.627 46.6089 194.813 46.625C194.272 46.6323 193.732 46.5619 193.21 46.416C192.735 46.2759 192.286 46.0606 191.877 45.778V46.394C192.231 46.6459 192.568 46.9215 192.885 47.2189C193.307 47.5929 193.806 48.0549 194.391 48.5938C194.975 49.1328 195.474 49.5727 195.972 49.9797C196.426 50.3905 196.915 50.7587 197.434 51.0796C197.843 51.3388 198.289 51.5318 198.756 51.6516C199.24 51.7835 199.739 51.8501 200.24 51.8495H200.673L201.756 51.7066C202.411 51.5321 203.046 51.2888 203.652 50.9806C204.264 50.6608 204.851 50.293 205.407 49.8807C205.916 49.4913 206.391 49.057 206.826 48.5828C207.323 48.0501 207.776 47.4762 208.18 46.867C208.522 46.3038 208.816 45.7112 209.057 45.0961C209.33 44.4557 209.551 43.7935 209.718 43.1163C209.772 42.4453 209.815 41.9174 209.859 41.5324C209.902 41.1474 209.913 40.8945 209.913 40.7625C209.926 39.0536 209.602 37.3592 208.959 35.7799C208.287 34.1743 207.308 32.7201 206.078 31.5012H205.981V31.4462H205.916L205.862 31.3912L205.807 31.3252C205.812 31.3169 205.815 31.3074 205.815 31.2978C205.815 31.2881 205.812 31.2786 205.807 31.2703C205.8 31.2607 205.797 31.2492 205.797 31.2373C205.797 31.2254 205.8 31.2138 205.807 31.2043H205.732C205.701 31.1889 205.675 31.1663 205.656 31.1383L205.558 31.0833L205.504 31.0283L205.407 30.9293H205.352C205.357 30.9209 205.36 30.9114 205.36 30.9018C205.36 30.8921 205.357 30.8826 205.352 30.8743C205.201 30.7423 204.984 30.5663 204.703 30.3573L203.717 29.5214C203.204 29.1401 202.706 28.7735 202.222 28.4215C201.753 28.1102 201.265 27.831 200.76 27.5856C200.303 27.3327 199.815 27.144 199.308 27.0246C198.785 26.9127 198.251 26.8574 197.716 26.8596C197.448 26.8585 197.18 26.8769 196.914 26.9146C196.571 26.9599 196.23 27.0297 195.896 27.1236C194.969 27.4506 194.09 27.9059 193.286 28.4765C192.454 28.7779 191.693 29.2539 191.054 29.8734Z" fill="url(#paint7_linear)"/>
<path fill-rule="evenodd" clip-rule="evenodd" d="M191.054 51.2887C191.044 51.3653 191.044 51.443 191.054 51.5197C191.045 51.5817 191.045 51.6446 191.054 51.7066C191.039 51.7865 191.039 51.8687 191.054 51.9486C194.109 51.2447 203.565 50.2328 205.038 55.3253C206.511 60.4179 201.854 66.5334 197.142 67.8203C196.359 68.0453 195.551 68.1672 194.737 68.1833C194.196 68.1906 193.656 68.1202 193.134 67.9743C192.66 67.8342 192.21 67.6189 191.802 67.3363V67.9523C192.152 68.2121 192.488 68.4912 192.809 68.7882C193.231 69.1512 193.73 69.6131 194.315 70.1521C194.9 70.6911 195.398 71.131 195.896 71.538C196.352 71.9298 196.841 72.2794 197.358 72.5829C197.769 72.8412 198.214 73.0376 198.68 73.1659C199.165 73.2889 199.664 73.3517 200.164 73.3528H200.597C200.846 73.3528 201.193 73.2648 201.68 73.2208C202.334 73.0377 202.969 72.7909 203.576 72.4839C204.188 72.1641 204.775 71.7963 205.331 71.384C205.841 70.9946 206.315 70.5603 206.75 70.0861C207.247 69.5534 207.7 68.9795 208.104 68.3703C208.478 67.7917 208.8 67.1807 209.068 66.5444C209.34 65.8997 209.561 65.234 209.729 64.5536C209.783 63.8826 209.826 63.3547 209.869 62.9697C209.913 62.5847 209.924 62.3318 209.924 62.1998C209.938 60.4943 209.614 58.8034 208.97 57.2282C207.573 53.7965 203.468 50.2548 200.24 48.6929C199.785 48.4388 199.296 48.2535 198.788 48.1429C198.266 48.0217 197.732 47.9627 197.196 47.967C196.928 47.9659 196.66 47.9842 196.394 48.0219C196.051 48.0725 195.712 48.1423 195.376 48.2309C194.449 48.5579 193.571 49.0132 192.766 49.5838C192.093 50.0355 191.512 50.6143 191.054 51.2887Z" fill="url(#paint8_linear)"/>
<path fill-rule="evenodd" clip-rule="evenodd" d="M116.054 49.2758C116.044 49.1992 116.044 49.1215 116.054 49.0448C116.044 48.9792 116.044 48.9125 116.054 48.8469C116.038 48.7707 116.038 48.6921 116.054 48.6159V48.3959C116.051 48.022 116.109 47.6503 116.227 47.296C116.342 46.9667 116.503 46.6557 116.704 46.3721C116.913 46.082 117.141 45.8064 117.386 45.5471C117.653 45.2557 117.947 44.9906 118.264 44.7552C118.312 44.6984 118.367 44.6468 118.426 44.6012L118.599 44.4472L118.968 44.1503L119.152 43.9963L119.293 43.8973C119.33 43.8479 119.374 43.8036 119.423 43.7653C119.446 43.7317 119.481 43.7082 119.52 43.6993L119.65 43.6113L119.748 43.5123C119.773 43.5073 119.798 43.5073 119.823 43.5123L119.899 43.4463L119.997 43.3913C120.295 43.248 120.578 43.0748 120.842 42.8744C121.188 42.6214 121.578 42.3244 122.001 41.9614C122.423 41.5985 122.91 41.2135 123.279 40.9385C123.647 40.6635 123.94 40.4766 124.167 40.3446C124.444 40.1623 124.747 40.025 125.066 39.9376C125.394 39.8477 125.733 39.8033 126.073 39.8056C125.868 40.0366 125.64 40.2676 125.391 40.5206C125.142 40.7735 124.839 41.0155 124.514 41.2685C124.189 41.5215 123.799 41.8844 123.506 42.1704C123.214 42.4564 122.954 42.7424 122.726 43.0063C122.528 43.2478 122.374 43.5235 122.271 43.8203C122.171 44.1025 122.12 44.4002 122.12 44.7002C122.115 44.9583 122.156 45.2152 122.239 45.4591C122.363 45.9101 122.577 46.3303 122.867 46.6936C123.158 47.057 123.519 47.3556 123.929 47.571C124.609 48.0176 125.335 48.3865 126.095 48.6709C126.852 48.691 127.6 48.5049 128.261 48.1319C128.938 47.7353 129.502 47.1667 129.897 46.4821C130.026 46.038 130.127 45.5862 130.2 45.1292C130.278 44.6566 130.318 44.1784 130.32 43.6993C130.321 42.8438 130.204 41.9923 129.973 41.1695C129.719 40.3453 129.355 39.5606 128.89 38.8377C128.381 38.05 127.831 37.2901 127.243 36.5609C126.593 35.769 125.846 34.911 124.979 34.0201C124.03 33.569 123.044 33.201 122.033 32.9202C121.248 32.686 120.436 32.5602 119.618 32.5462C119.079 32.5431 118.543 32.6171 118.025 32.7662C117.551 32.9025 117.102 33.1141 116.693 33.3932V32.7772C117.046 32.5253 117.383 32.2497 117.7 31.9523C118.123 31.5783 118.621 31.1273 119.206 30.5774C119.791 30.0274 120.289 29.6095 120.777 29.1915C121.241 28.8056 121.733 28.4563 122.25 28.1466C122.661 27.8918 123.106 27.6992 123.571 27.5746C124.055 27.4427 124.554 27.3761 125.055 27.3767L125.489 27.4426L126.572 27.5746C127.229 27.748 127.864 27.9952 128.467 28.3116C129.082 28.6273 129.669 28.9952 130.222 29.4115C130.732 29.797 131.206 30.2277 131.641 30.6984C132.133 31.2357 132.586 31.8092 132.995 32.4142C133.369 32.9966 133.692 33.6112 133.959 34.2511C134.234 34.8946 134.455 35.5606 134.62 36.2419C134.674 36.9019 134.717 37.4298 134.761 37.8148C134.804 38.1998 134.761 38.4637 134.761 38.5957C134.775 40.3011 134.451 41.9921 133.807 43.5673C133.155 45.0905 132.225 46.475 131.067 47.648C131.067 47.648 130.98 47.648 130.969 47.714C130.969 47.714 130.969 47.714 130.904 47.714H130.85C130.855 47.7243 130.858 47.7355 130.858 47.747C130.858 47.7584 130.855 47.7696 130.85 47.78C130.846 47.7883 130.843 47.7978 130.843 47.8075C130.843 47.8171 130.846 47.8266 130.85 47.8349C130.826 47.8257 130.799 47.8257 130.775 47.8349L130.699 47.8899H130.601V47.9449L130.504 48.0439C130.511 48.0534 130.515 48.065 130.515 48.0769C130.515 48.0888 130.511 48.1004 130.504 48.1099L129.854 48.6379C129.583 48.8579 129.247 49.1328 128.868 49.4628C128.489 49.7928 127.861 50.1998 127.373 50.5627C126.902 50.8664 126.414 51.1419 125.911 51.3877C125.454 51.6387 124.966 51.8273 124.459 51.9486C123.937 52.0698 123.403 52.1289 122.867 52.1246C122.599 52.1202 122.332 52.1018 122.066 52.0696C121.722 52.02 121.381 51.9465 121.047 51.8496C120.12 51.5226 119.242 51.0674 118.437 50.4967C117.565 50.2684 116.753 49.852 116.054 49.2758Z" fill="url(#paint9_linear)"/>
<path fill-rule="evenodd" clip-rule="evenodd" d="M232.011 33.6461C232.693 34.966 233.31 36.2529 233.895 37.5288C234.48 38.8047 234.979 40.0586 235.509 41.2905C236.04 42.5224 236.473 43.7323 236.885 44.8982C237.297 46.0641 237.665 47.219 237.968 48.3519L237.167 48.9238C236.885 49.1328 236.56 49.3528 236.213 49.5838L236.127 49.6388L236.04 49.7048H235.964H235.899C235.899 49.7048 235.899 49.7048 235.845 49.7048L235.704 49.7818L235.596 49.8588C235.375 49.9812 235.162 50.1171 234.957 50.2657L233.744 51.1347C233.512 50.226 233.233 49.3302 232.91 48.4509C232.596 47.5662 232.234 46.6996 231.826 45.8551C231.464 45.0786 231.025 44.3415 230.516 43.6553C229.544 43.1882 228.522 42.834 227.472 42.5994C226.825 42.0116 226.095 41.5259 225.306 41.1585C224.508 40.7769 223.668 40.4962 222.803 40.3226C222.489 40.3226 222.143 40.2236 221.796 40.1906C221.435 40.1675 221.074 40.1675 220.713 40.1906C220.102 40.1852 219.494 40.2629 218.904 40.4215C218.386 40.5622 217.898 40.797 217.463 41.1145C217.182 41.3036 216.939 41.5464 216.748 41.8294C216.559 42.1098 216.447 42.4363 216.423 42.7753V42.9293C216.413 42.9802 216.413 43.0325 216.423 43.0833C216.402 43.1774 216.402 43.2752 216.423 43.3693C216.475 43.4745 216.515 43.5852 216.543 43.6993C217.075 44.7868 217.947 45.6648 219.023 46.1961C220.275 46.8202 221.659 47.1187 223.053 47.065H223.529H224.049H224.558H225.046C225.112 47.0258 225.186 46.9997 225.262 46.988C225.366 46.9498 225.464 46.898 225.555 46.834L225.912 46.691C226.002 46.6785 226.093 46.6785 226.183 46.691H226.302H226.356H226.389H226.443C226.129 47.076 225.782 47.461 225.36 47.7909C224.974 48.1822 224.565 48.5495 224.136 48.8908C223.757 49.1988 223.323 49.5178 222.868 49.8368C222.413 50.1557 221.883 50.4967 221.309 50.8597L219.835 51.5856C219.373 51.8138 218.895 52.0086 218.406 52.1686C217.777 52.1686 217.192 52.0476 216.662 51.9596C216.131 51.8716 215.579 51.7726 215.145 51.6626C214.693 51.5424 214.248 51.3955 213.813 51.2226C213.376 51.0567 212.958 50.8428 212.567 50.5847C211.821 50.1017 211.233 49.4051 210.877 48.5829C210.716 48.3759 210.611 48.1292 210.574 47.8679C210.529 47.5543 210.529 47.2357 210.574 46.922C210.603 46.6181 210.654 46.3167 210.726 46.0201C210.788 45.7604 210.871 45.5065 210.975 45.2611C211.912 44.1094 212.957 43.0522 214.095 42.1044C215.203 41.1849 216.401 40.3816 217.669 39.7066C218.911 39.0307 220.222 38.4959 221.579 38.1117C222.907 37.7329 224.274 37.5187 225.652 37.4738C225.672 37.2102 225.672 36.9454 225.652 36.6819C225.643 36.5002 225.603 36.3215 225.533 36.1539C225.507 35.9645 225.456 35.7795 225.381 35.6039C225.314 35.4386 225.238 35.277 225.154 35.12L225.013 34.922L224.623 34.3501H224.547C224.274 34.0375 223.981 33.7436 223.67 33.4701C223.411 33.2313 223.136 33.0108 222.847 32.8102C222.611 32.6317 222.347 32.4942 222.067 32.4032C221.783 32.3148 221.487 32.2703 221.189 32.2712C220.978 32.2704 220.767 32.2962 220.561 32.3482C220.319 32.4078 220.086 32.5003 219.868 32.6232L219.716 32.7002C219.648 32.7117 219.579 32.7117 219.511 32.7002V32.3482C219.966 32.1799 220.399 31.9545 220.8 31.6773C221.287 31.3583 221.883 30.9513 222.446 30.4674C223.009 29.9834 223.529 29.5545 224.006 29.2135C224.482 28.8725 224.829 28.5865 225.089 28.3775C225.357 28.1726 225.663 28.0231 225.988 27.9376C226.342 27.8451 226.706 27.8007 227.071 27.8056C227.342 27.8028 227.612 27.8398 227.873 27.9156C228.146 28.0003 228.408 28.1185 228.653 28.2676L232.011 33.6461Z" fill="url(#paint10_linear)"/>
<path fill-rule="evenodd" clip-rule="evenodd" d="M216.433 28.7075C215.867 29.5932 215.157 30.3743 214.332 31.0173C213.617 31.5826 212.777 31.9603 211.884 32.1172C211.652 32.0888 211.427 32.014 211.223 31.8972C210.999 31.7768 210.8 31.6123 210.638 31.4133C210.45 31.1674 210.276 30.9103 210.118 30.6433C209.945 30.3463 209.772 30.0274 209.599 29.6644H209.663H209.739L209.848 29.5764L209.945 29.4884H210.01L210.064 29.4224H210.14H210.205H210.259H210.324L210.953 28.9605C211.165 28.793 211.367 28.6131 211.559 28.4215C211.654 28.343 211.745 28.2585 211.83 28.1685C211.932 28.0817 212.026 27.986 212.112 27.8825L212.371 27.6186C212.464 27.528 212.547 27.4285 212.621 27.3216L216.433 28.7075Z" fill="#00B0BD"/>
<path fill-rule="evenodd" clip-rule="evenodd" d="M137.892 69.2942C139.29 69.8722 140.478 70.8749 141.293 72.1649C141.509 71.065 144.542 69.3602 144.542 68.2052C144.012 67.3363 143.795 67.2703 141.455 64.9055C140.816 66.6214 137.707 67.9303 137.892 69.2942Z" fill="url(#paint11_linear)"/>
<path fill-rule="evenodd" clip-rule="evenodd" d="M152.254 72.8028L150.088 74.3977C150.088 74.0787 150.012 73.7268 149.99 73.2978C149.969 72.8688 149.99 72.5389 149.925 72.1209C149.86 71.7029 149.925 71.274 149.925 70.823C149.925 70.372 149.925 69.9101 149.925 69.4371C149.925 68.9641 149.925 68.5242 149.849 68.0842C149.774 67.6443 149.774 67.2483 149.719 66.8633C149.659 66.4927 149.579 66.1256 149.481 65.7634C149.384 65.4063 149.261 65.057 149.113 64.7185C149.018 64.6402 148.912 64.5771 148.799 64.5315C148.692 64.4874 148.578 64.4649 148.463 64.4655C148.333 64.4597 148.205 64.4943 148.095 64.5645V64.6525L147.986 64.3555L149.21 63.4206C149.546 63.1676 149.806 62.9696 150.001 62.8377C150.242 62.6636 150.491 62.5021 150.748 62.3537C151.002 62.1948 151.266 62.0551 151.539 61.9357L151.994 62.3977L152.254 72.8028Z" fill="url(#paint12_linear)"/>
<path fill-rule="evenodd" clip-rule="evenodd" d="M164.332 65.0706C164.375 65.2777 164.407 65.487 164.429 65.6975C164.44 65.8917 164.44 66.0863 164.429 66.2804C164.43 66.7365 164.376 67.191 164.267 67.6333C164.155 68.0611 163.987 68.4718 163.768 68.8542C163.539 69.2346 163.29 69.6018 163.021 69.9541C162.761 70.2853 162.475 70.5943 162.165 70.8781C161.829 71.186 161.461 71.505 161.082 71.846C160.703 72.187 160.215 72.5499 159.717 72.9459C159.219 73.3419 158.753 73.6938 158.385 74.0458C158.017 74.3978 157.713 74.6287 157.486 74.8597L157.182 74.5408C157.507 74.2878 157.822 74.0458 158.125 73.7928C158.428 73.5398 158.71 73.2869 158.991 73.0229C159.273 72.7589 159.446 72.5719 159.695 72.2859L160.508 71.296C160.741 70.9961 160.948 70.6759 161.125 70.3391C161.299 70.0124 161.451 69.6743 161.58 69.3272C161.712 68.9707 161.809 68.6024 161.873 68.2273C161.936 67.8863 161.968 67.5403 161.97 67.1934C161.97 67.0394 161.97 66.8634 161.97 66.6764C161.954 66.4585 161.925 66.2418 161.884 66.0275C161.797 65.7162 161.674 65.417 161.515 65.1365C161.361 64.8489 161.176 64.5795 160.963 64.3336C160.754 64.0844 160.522 63.856 160.27 63.6517C160.01 63.4535 159.73 63.2839 159.435 63.1457H159.262H159.089C158.873 63.1452 158.662 63.2103 158.482 63.3327C158.272 63.4895 158.095 63.6878 157.962 63.9157C157.962 64.0916 157.962 64.2346 157.962 64.3446C157.959 64.4069 157.959 64.4693 157.962 64.5316C157.954 65.1934 158.106 65.847 158.406 66.4344C158.733 67.0286 159.184 67.543 159.728 67.9413L160.53 68.2933L160.302 68.5243C160.205 68.6233 160.085 68.7332 159.966 68.8762C159.847 69.0192 159.652 69.1842 159.511 69.3052C159.377 69.4224 159.232 69.5255 159.078 69.6132C158.951 69.699 158.812 69.7657 158.666 69.8112C158.511 69.8554 158.351 69.8776 158.19 69.8771H157.897L157.648 69.6132L157.54 69.7122L157.193 69.4042C157.087 69.3034 156.985 69.197 156.89 69.0852C156.794 68.9918 156.704 68.8926 156.619 68.7882C156.534 68.6867 156.454 68.5802 156.381 68.4693C156.236 68.2784 156.119 68.0672 156.034 67.8423C155.943 67.5992 155.87 67.3491 155.818 67.0944C155.818 66.9184 155.818 66.7754 155.763 66.6654C155.709 66.5554 155.763 66.4564 155.763 66.3794C155.764 66.153 155.793 65.9275 155.85 65.7085C155.909 65.5043 155.992 65.3085 156.099 65.1255C156.19 64.9431 156.302 64.7731 156.435 64.6196C156.576 64.4548 156.728 64.3004 156.89 64.1576L157.442 63.7177L158.157 63.2007L158.764 62.7827L159.284 62.3978C159.653 62.199 160.037 62.0298 160.432 61.8918C160.722 61.7904 161.025 61.7347 161.331 61.7268C161.529 61.7258 161.727 61.7555 161.916 61.8148C162.084 61.8824 162.241 61.975 162.382 62.0898C162.833 62.4301 163.231 62.8381 163.562 63.2997C163.893 63.854 164.151 64.4492 164.332 65.0706Z" fill="url(#paint13_linear)"/>
<path fill-rule="evenodd" clip-rule="evenodd" d="M176.171 65.0705C176.214 65.2776 176.247 65.4869 176.269 65.6974C176.279 65.8916 176.279 66.0862 176.269 66.2804C176.272 66.7372 176.214 67.1924 176.095 67.6333C175.989 68.0627 175.821 68.474 175.597 68.8542C175.376 69.2395 175.126 69.6072 174.85 69.9541C174.596 70.2905 174.309 70.6 173.994 70.878C173.669 71.186 173.301 71.5049 172.911 71.8459C172.521 72.1869 172.044 72.5499 171.546 72.9458C171.048 73.3418 170.582 73.6938 170.214 74.0457C169.845 74.3977 169.542 74.6287 169.304 74.8597L169.001 74.5407C169.336 74.2877 169.65 74.0457 169.954 73.7927C170.257 73.5398 170.539 73.2868 170.809 73.0228C171.061 72.7909 171.3 72.5448 171.524 72.2859L172.337 71.296C172.567 70.9959 172.77 70.6756 172.943 70.339C173.126 70.0168 173.278 69.6781 173.398 69.3271C173.533 68.9709 173.635 68.6027 173.702 68.2272C173.765 67.8863 173.797 67.5402 173.799 67.1933C173.799 67.0393 173.799 66.8633 173.799 66.6763C173.799 66.4894 173.799 66.2694 173.712 66.0274C173.626 65.7162 173.503 65.4169 173.344 65.1365C173.183 64.8536 172.998 64.585 172.792 64.3335C172.582 64.0815 172.346 63.8529 172.088 63.6516C171.832 63.4536 171.556 63.284 171.264 63.1456H171.08H170.918C170.702 63.1451 170.491 63.2103 170.311 63.3326C170.098 63.4865 169.921 63.6854 169.791 63.9156C169.791 64.0916 169.791 64.2345 169.791 64.3445C169.788 64.4068 169.788 64.4692 169.791 64.5315C169.783 65.1933 169.935 65.8469 170.235 66.4344C170.558 67.0283 171.006 67.5427 171.546 67.9412L172.358 68.2932L172.12 68.5242L171.784 68.8762C171.645 69.0278 171.496 69.1711 171.34 69.3051C171.203 69.4225 171.054 69.5257 170.896 69.6131C170.771 69.703 170.632 69.77 170.485 69.8111C170.33 69.8568 170.169 69.879 170.008 69.8771C170.062 69.8771 170.062 69.8771 170.008 69.8771H169.715L169.466 69.6131L169.347 69.7121L168.979 69.2941L168.665 68.9752L168.394 68.6782L168.156 68.3592C168.018 68.1653 167.906 67.9547 167.82 67.7323C167.728 67.4891 167.656 67.239 167.603 66.9843C167.603 66.8083 167.603 66.6653 167.603 66.5554C167.594 66.4603 167.594 66.3645 167.603 66.2694C167.598 66.0425 167.627 65.8162 167.69 65.5984C167.744 65.3926 167.828 65.1961 167.939 65.0155C168.025 64.8333 168.135 64.6632 168.264 64.5095C168.411 64.3474 168.567 64.1932 168.73 64.0476C168.881 63.9156 169.066 63.7726 169.282 63.6076L169.997 63.0906L170.604 62.6727L171.124 62.2877C171.489 62.0892 171.869 61.92 172.261 61.7817C172.554 61.681 172.861 61.6254 173.171 61.6168C173.365 61.6165 173.559 61.6462 173.745 61.7048C173.917 61.7696 174.078 61.8625 174.222 61.9797C174.687 62.3553 175.089 62.8047 175.413 63.3106C175.743 63.8599 175.998 64.4519 176.171 65.0705Z" fill="url(#paint14_linear)"/>
<path fill-rule="evenodd" clip-rule="evenodd" d="M185.877 65.7635C185.647 65.966 185.43 66.1827 185.227 66.4125C185.086 66.5885 184.924 66.7755 185.01 66.8414C185.422 67.1494 187.718 67.2704 187.718 69.6902C187.73 69.8219 187.73 69.9545 187.718 70.0862C187.708 70.1897 187.678 70.2904 187.632 70.3832C187.463 70.6511 187.279 70.9083 187.079 71.1531C186.873 71.3951 186.657 71.626 186.408 71.868C186.158 72.11 185.942 72.319 185.693 72.528C185.444 72.737 185.184 72.9239 184.902 73.1109C184.62 73.2979 184.371 73.4409 184.09 73.5949C183.81 73.7541 183.521 73.8938 183.223 74.0129L182.335 74.3318C182.039 74.4335 181.734 74.5071 181.425 74.5518C181.044 74.5096 180.676 74.3899 180.342 74.1998C180.05 74.0185 179.805 73.7697 179.627 73.4739C179.54 73.3265 179.474 73.1673 179.432 73.0009C179.383 72.8255 179.358 72.6442 179.356 72.462C179.363 72.132 179.421 71.8053 179.529 71.4941C179.775 70.8275 180.149 70.2169 180.629 69.6978C181.108 69.1786 181.685 68.7611 182.324 68.4693C182.03 68.2224 181.706 68.0154 181.36 67.8534L180.688 67.4464C180.515 67.3364 180.374 67.2264 180.266 67.1494C180.137 67.0305 180.031 66.8889 179.952 66.7315C179.856 66.564 179.786 66.3821 179.746 66.1925C179.735 65.8372 179.794 65.4832 179.918 65.1509C180.043 64.8187 180.231 64.5148 180.472 64.2567C180.73 63.9719 181.013 63.7106 181.317 63.4757C181.664 63.1966 182.026 62.936 182.4 62.6948C182.279 62.9431 182.188 63.2053 182.129 63.4757C182.063 63.7641 182.03 64.0595 182.032 64.3556V64.6526C182.022 64.6886 182.022 64.7266 182.032 64.7626C182.148 64.9713 182.286 65.1667 182.443 65.3456C182.622 65.5487 182.818 65.7364 183.028 65.9065C183.24 66.0739 183.469 66.2177 183.71 66.3355C183.932 66.4508 184.164 66.5429 184.404 66.6105C184.667 66.4696 184.882 66.2511 185.021 65.9835C185.498 65.0376 184.945 63.2447 183.851 63.3547L184.545 62.7608C187.014 60.682 189.137 62.9368 185.877 65.7635ZM185.227 70.4821C185.125 70.2658 184.998 70.0627 184.848 69.8772C184.692 69.6951 184.51 69.5392 184.306 69.4152C184.086 69.2739 183.858 69.1454 183.624 69.0303C183.373 68.906 183.112 68.803 182.844 68.7223C182.583 68.935 182.369 69.2001 182.213 69.501C182.058 69.8019 181.966 70.1321 181.943 70.4709C181.92 70.8096 181.965 71.1497 182.078 71.4696C182.19 71.7895 182.366 72.0825 182.595 72.33C182.79 72.4787 183.005 72.5973 183.234 72.682C183.446 72.7601 183.669 72.8011 183.895 72.803C184.002 72.8195 184.112 72.8195 184.22 72.803C184.322 72.7773 184.421 72.7366 184.512 72.682C184.756 72.5461 184.949 72.3339 185.064 72.077C185.198 71.727 185.257 71.3521 185.238 70.9771V70.6251C185.227 70.5371 185.227 70.4931 185.227 70.4821Z" fill="url(#paint15_linear)"/>
</g>
<defs>
<linearGradient id="paint0_linear" x1="38.3886" y1="35.571" x2="38.478" y2="64.8726" gradientUnits="userSpaceOnUse">
<stop stop-color="#DA521F"/>
<stop offset="1" stop-color="#B11116"/>
</linearGradient>
<linearGradient id="paint1_linear" x1="390.949" y1="255.191" x2="391.608" y2="456.786" gradientUnits="userSpaceOnUse">
<stop stop-color="#DA521F"/>
<stop offset="1" stop-color="#B11116"/>
</linearGradient>
<linearGradient id="paint2_linear" x1="1965.32" y1="844.926" x2="1968.05" y2="1522.34" gradientUnits="userSpaceOnUse">
<stop stop-color="#DA521F"/>
<stop offset="1" stop-color="#B11116"/>
</linearGradient>
<linearGradient id="paint3_linear" x1="3698.03" y1="813.27" x2="3699.64" y2="1466.37" gradientUnits="userSpaceOnUse">
<stop stop-color="#DA521F"/>
<stop offset="1" stop-color="#B11116"/>
</linearGradient>
<linearGradient id="paint4_linear" x1="4652.96" y1="856.138" x2="4654.92" y2="1547.55" gradientUnits="userSpaceOnUse">
<stop stop-color="#DA521F"/>
<stop offset="1" stop-color="#B11116"/>
</linearGradient>
<linearGradient id="paint5_linear" x1="1405.95" y1="265.22" x2="1406.36" y2="468.93" gradientUnits="userSpaceOnUse">
<stop stop-color="#DA521F"/>
<stop offset="1" stop-color="#B11116"/>
</linearGradient>
<linearGradient id="paint6_linear" x1="1053.16" y1="1381.12" x2="1069.31" y2="2511.42" gradientUnits="userSpaceOnUse">
<stop stop-color="#DA521F"/>
<stop offset="1" stop-color="#B11116"/>
</linearGradient>
<linearGradient id="paint7_linear" x1="3682.07" y1="824.29" x2="3684.72" y2="1490.77" gradientUnits="userSpaceOnUse">
<stop stop-color="#DA521F"/>
<stop offset="1" stop-color="#B11116"/>
</linearGradient>
<linearGradient id="paint8_linear" x1="3683.15" y1="858.799" x2="3685.88" y2="1535.84" gradientUnits="userSpaceOnUse">
<stop stop-color="#DA521F"/>
<stop offset="1" stop-color="#B11116"/>
</linearGradient>
<linearGradient id="paint9_linear" x1="2284.74" y1="822.04" x2="2287.36" y2="1481.57" gradientUnits="userSpaceOnUse">
<stop stop-color="#DA521F"/>
<stop offset="1" stop-color="#B11116"/>
</linearGradient>
<linearGradient id="paint10_linear" x1="5889.98" y1="804.021" x2="5891.49" y2="1453.55" gradientUnits="userSpaceOnUse">
<stop stop-color="#DA521F"/>
<stop offset="1" stop-color="#B11116"/>
</linearGradient>
<linearGradient id="paint11_linear" x1="1005.45" y1="298.295" x2="1006.08" y2="491.686" gradientUnits="userSpaceOnUse">
<stop stop-color="#DA521F"/>
<stop offset="1" stop-color="#B11116"/>
</linearGradient>
<linearGradient id="paint12_linear" x1="738.862" y1="461.716" x2="741.773" y2="794.178" gradientUnits="userSpaceOnUse">
<stop stop-color="#DA521F"/>
<stop offset="1" stop-color="#B11116"/>
</linearGradient>
<linearGradient id="paint13_linear" x1="1440.36" y1="483.162" x2="1441.95" y2="833.15" gradientUnits="userSpaceOnUse">
<stop stop-color="#DA521F"/>
<stop offset="1" stop-color="#B11116"/>
</linearGradient>
<linearGradient id="paint14_linear" x1="1544.56" y1="486.184" x2="1545.97" y2="839.104" gradientUnits="userSpaceOnUse">
<stop stop-color="#DA521F"/>
<stop offset="1" stop-color="#B11116"/>
</linearGradient>
<linearGradient id="paint15_linear" x1="1597.04" y1="465.692" x2="1598.56" y2="801.384" gradientUnits="userSpaceOnUse">
<stop stop-color="#DA521F"/>
<stop offset="1" stop-color="#B11116"/>
</linearGradient>
<clipPath id="clip0">
<rect width="238" height="84" fill="white"/>
</clipPath>
</defs>
</svg>
