<svg width="112" height="131" viewBox="0 0 112 131" fill="none" xmlns="http://www.w3.org/2000/svg">
<g clip-path="url(#clip0)">
<path fill-rule="evenodd" clip-rule="evenodd" d="M61.0726 62.8049C64.4649 56.5402 64.0272 47.9319 58.6591 42.9192C54.4914 39.031 47.9247 37.2805 41.0317 35.9697C36.7735 35.1525 31.3118 33.7306 30.6931 30.488C30.0324 26.9969 32.2842 23.0106 37.6781 21.9352C37.6442 21.2912 37.6781 21.1507 37.5796 20.7323C31.4361 19.8579 24.2847 24.0256 23.1378 30.6122C20.9699 43.0483 30.4071 47.4285 40.2418 49.8882C51.6886 52.7533 63.045 56.8148 54.5188 72.2942L59.1131 70.4734C60.4474 68.0643 62.9771 65.2074 68.56 61.2064C77.2606 54.9712 86.6107 52.0767 88.8561 39.8923C89.8253 34.6067 88.6364 29.0693 84.4008 24.6842C78.8518 18.941 69.4113 18.1205 61.5701 16.4534C53.5641 14.7537 49.4545 7.04586 57.6479 2.02663C56.0551 0.214088 49.4319 1.64582 45.3368 6.23029C38.6571 13.7191 41.4679 24.341 52.2282 26.5278C65.3728 29.2017 81.766 36.6121 72.5372 50.2266C69.0786 55.3259 63.4311 59.0147 61.0677 62.8114L61.0726 62.8049Z" fill="url(#paint0_linear)"/>
<path fill-rule="evenodd" clip-rule="evenodd" d="M57.3477 7.49533C59.1909 8.21283 61.8256 10.0499 63.1341 12.3707C63.5186 10.4895 68.6556 7.60157 68.7347 5.63866C67.8382 4.16771 67.4634 4.05003 63.4733 0C62.2634 2.87817 57.0472 5.09931 57.3477 7.49533Z" fill="#00B2BF"/>
<path fill-rule="evenodd" clip-rule="evenodd" d="M46.8307 64.2449C48.1424 64.7565 50.0179 66.064 50.95 67.7147C51.2198 66.3761 54.8771 64.3201 54.932 62.9243C54.2939 61.8783 54.0274 61.7933 51.1875 58.9119C50.3264 60.9598 46.6142 62.5402 46.8258 64.2449H46.8307Z" fill="#00B2BF"/>
<path fill-rule="evenodd" clip-rule="evenodd" d="M65.7267 13.603C66.6959 13.9805 68.0868 14.9497 68.7766 16.1723C68.9753 15.1802 71.6843 13.6586 71.7247 12.6256C71.2514 11.8509 71.0543 11.7872 68.9527 9.6543C68.3146 11.1694 65.5668 12.3412 65.7267 13.603Z" fill="url(#paint1_linear)"/>
<path d="M15.0008 95.8278C15.0214 95.8878 15.0366 95.9497 15.0461 96.0125C15.0561 96.0625 15.0615 96.1134 15.0622 96.1645C15.0818 96.2241 15.0922 96.2864 15.0929 96.3492V96.5322C15.0932 96.8142 15.0468 97.0943 14.9556 97.3608C14.8669 97.6238 14.7395 97.8718 14.5776 98.0963C14.4098 98.326 14.2275 98.5444 14.0316 98.7501C13.8153 98.9771 13.582 99.187 13.3337 99.3777C13.2911 99.4213 13.2457 99.4623 13.198 99.5003C13.1507 99.5387 13.1054 99.5796 13.0623 99.6228L12.7748 99.8615C12.0866 100.401 10.7701 101.468 10.0011 99.0034C9.93539 98.7981 9.85439 98.5982 9.75882 98.4052C9.46806 97.9691 9.09133 97.5985 8.65226 97.3167C5.72836 95.3652 3.6057 97.2301 3.6057 100.398C3.59942 101.764 3.97822 103.105 4.69773 104.261C5.10208 104.89 5.54222 105.495 6.01591 106.072C6.52853 106.704 7.12947 107.377 7.81871 108.092C8.57704 108.447 9.36254 108.74 10.1675 108.967C10.7937 109.148 11.4404 109.245 12.0915 109.258C12.5213 109.264 12.9499 109.209 13.3644 109.094C13.743 108.984 14.1014 108.813 14.4258 108.587V109.078C14.1455 109.281 13.8759 109.5 13.6181 109.732C13.2842 110.028 12.8852 110.391 12.421 110.82C11.9773 111.229 11.5579 111.596 11.1626 111.923C10.7965 112.231 10.4064 112.508 9.99629 112.752C9.66773 112.959 9.30982 113.114 8.93496 113.211C8.54962 113.314 8.15265 113.366 7.75409 113.365C7.63707 113.356 7.52061 113.34 7.40516 113.319C7.21347 113.287 6.93562 113.252 6.57161 113.211C6.0484 113.07 5.54072 112.875 5.05635 112.629C4.56903 112.382 4.10274 112.095 3.66224 111.77C3.25591 111.462 2.87748 111.119 2.53145 110.743C2.13638 110.319 1.77603 109.863 1.45397 109.38C1.15587 108.918 0.89753 108.431 0.681802 107.924C0.465944 107.412 0.288817 106.884 0.151946 106.345C0.11156 105.814 0.076021 105.394 0.0453281 105.092C0.0146352 104.789 9.64107e-05 104.577 9.64107e-05 104.474C-0.0109461 103.116 0.246657 101.77 0.757726 100.515C1.77705 98.0538 5.87375 93.9777 8.88488 93.2977C9.30291 93.2047 9.72981 93.1587 10.1578 93.1604C10.3707 93.1624 10.5833 93.1777 10.7943 93.2062C11.0701 93.2422 11.3431 93.2968 11.6117 93.3697C12.3491 93.6294 13.0477 93.9907 13.6875 94.4434C14.2087 94.8154 14.6559 95.2834 15.0057 95.8229L15.0008 95.8278Z" fill="#DB5B35"/>
<path d="M46.1282 98.9464C46.6667 99.9891 47.1648 101.016 47.6225 102.027C48.0802 103.038 48.5109 104.035 48.9148 105.016C49.3176 105.997 49.6821 106.953 50.0084 107.883C50.3347 108.814 50.6331 109.728 50.9034 110.627C50.7063 110.771 50.4909 110.925 50.2572 111.088C50.0235 111.252 49.7677 111.425 49.4899 111.61C49.4705 111.628 49.4487 111.643 49.4253 111.655C49.4009 111.667 49.3786 111.682 49.359 111.701L49.3267 111.732H49.296C49.296 111.732 49.296 111.742 49.296 111.763H49.2346C49.2354 111.773 49.2354 111.783 49.2346 111.793H49.2056L49.1716 111.824L49.1539 111.838L49.1377 111.855C49.1183 111.855 49.107 111.855 49.1054 111.869C49.106 111.875 49.106 111.88 49.1054 111.886H49.0763L49.0424 111.915C49.0339 111.915 49.0253 111.916 49.0173 111.918C49.0092 111.921 49.0018 111.926 48.9956 111.932C48.9832 111.944 48.9757 111.96 48.9746 111.977H48.9471L48.9132 112.008H48.8825L48.8486 112.038L48.8324 112.054L48.8163 112.069L48.7985 112.085C48.7852 112.096 48.7685 112.101 48.7516 112.1L48.7355 112.115L48.7177 112.131L48.7016 112.146L48.6854 112.162H48.6547C48.6547 112.162 48.6547 112.172 48.6547 112.191H48.624C48.624 112.191 48.624 112.201 48.624 112.223H48.5933L48.561 112.254H48.5303C48.5303 112.273 48.5222 112.285 48.5109 112.285H48.4964L48.4802 112.299L48.4625 112.314L48.4463 112.33L48.4302 112.345C48.3913 112.363 48.3535 112.383 48.3171 112.406C48.2883 112.424 48.2608 112.445 48.2347 112.468H48.204C48.2047 112.478 48.2047 112.488 48.204 112.499H48.1749C48.1749 112.499 48.1749 112.509 48.1749 112.53H48.1442C48.1442 112.53 48.1442 112.54 48.1442 112.559H48.1135L48.0796 112.59L48.0473 112.621H48.0166C48.0166 112.621 48.0166 112.631 48.0166 112.652C47.8418 112.75 47.6734 112.859 47.5126 112.979C47.2617 113.152 46.9386 113.382 46.5434 113.669C46.356 112.953 46.1325 112.245 45.873 111.544C45.6136 110.839 45.3165 110.148 44.9829 109.475C44.6961 108.848 44.3476 108.252 43.9425 107.695C43.5118 107.107 43.0248 106.563 42.4887 106.071C41.9809 105.608 41.4089 105.222 40.7909 104.927C40.1564 104.626 39.4873 104.406 38.7991 104.273C38.5406 104.232 38.2724 104.196 37.9913 104.167C37.7108 104.135 37.4288 104.119 37.1465 104.119C36.6596 104.114 36.1743 104.177 35.7039 104.304C35.2907 104.415 34.9013 104.602 34.5554 104.856C34.3289 105.006 34.1336 105.198 33.9803 105.423C33.8325 105.648 33.7431 105.907 33.7202 106.175C33.7202 106.214 33.7105 106.255 33.7073 106.296C33.7028 106.338 33.7089 106.38 33.725 106.419C33.7153 106.497 33.7276 106.577 33.7606 106.649C33.7989 106.734 33.8302 106.821 33.8543 106.911C34.2602 107.783 34.9355 108.498 35.7782 108.949C36.6279 109.41 37.6995 109.64 38.9929 109.639H39.3725C39.5103 109.638 39.648 109.628 39.7845 109.609C39.9266 109.609 40.0623 109.609 40.1964 109.593C40.3305 109.576 40.4565 109.567 40.5792 109.547C40.6351 109.522 40.6929 109.502 40.7521 109.487C40.8382 109.459 40.9194 109.417 40.9928 109.364L41.2771 109.256C41.3461 109.228 41.4194 109.213 41.4936 109.21H41.584C41.5919 109.209 41.5999 109.21 41.6074 109.213C41.615 109.215 41.6219 109.22 41.6277 109.225C41.6336 109.23 41.6405 109.234 41.648 109.237C41.6555 109.239 41.6634 109.24 41.6713 109.24C41.6795 109.239 41.6878 109.24 41.6955 109.243C41.7033 109.246 41.7104 109.25 41.7165 109.256C41.7223 109.262 41.7292 109.266 41.7367 109.268C41.7442 109.271 41.7522 109.272 41.7601 109.271C41.5049 109.578 41.2303 109.884 40.9363 110.191C40.6318 110.507 40.308 110.804 39.967 111.08C39.6579 111.325 39.3187 111.576 38.9493 111.832C38.5799 112.088 38.1674 112.36 37.7119 112.649C37.307 112.854 36.9128 113.048 36.5294 113.231C36.1603 113.41 35.7799 113.564 35.3905 113.692C34.8898 113.651 34.4213 113.594 33.9997 113.528C33.578 113.463 33.1709 113.38 32.7962 113.298C32.434 113.199 32.0771 113.081 31.7268 112.945C31.3801 112.809 31.0474 112.639 30.7333 112.438C30.4399 112.241 30.1746 112.004 29.945 111.734C29.7096 111.456 29.5153 111.146 29.3683 110.812C29.243 110.646 29.1593 110.451 29.1243 110.245C29.0851 109.996 29.0813 109.743 29.113 109.493C29.1371 109.25 29.177 109.01 29.2326 108.772C29.2822 108.568 29.3492 108.368 29.4329 108.176C30.177 107.255 31.011 106.412 31.9222 105.66C32.8075 104.932 33.7627 104.295 34.7734 103.76C35.7645 103.222 36.8105 102.796 37.8928 102.488C38.9526 102.19 40.0436 102.02 41.143 101.981C41.1679 101.773 41.1744 101.562 41.1624 101.352C41.1582 101.21 41.1269 101.069 41.0703 100.939C41.0498 100.786 41.0091 100.636 40.9492 100.494C40.8938 100.363 40.8318 100.236 40.7634 100.112L40.6584 99.958L40.3353 99.4971C40.336 99.4873 40.336 99.4775 40.3353 99.4677V99.4367H40.3046C40.3046 99.4563 40.3046 99.4677 40.3046 99.4677C40.3046 99.4677 40.3046 99.4465 40.3046 99.4056L40.2788 99.3746C40.2781 99.3648 40.2781 99.3549 40.2788 99.3451H40.2481L40.2206 99.3141C40.2206 99.3141 40.2206 99.3043 40.2206 99.283H40.1899V99.252H40.1592V99.2226H40.1285V99.1915H40.0979C40.0979 99.1703 40.0979 99.1605 40.0979 99.1605L40.0704 99.1294C40.0704 99.1294 40.0704 99.1196 40.0704 99.1H40.0106V99.0689H39.9799C39.9799 99.0477 39.9799 99.0379 39.9799 99.0379C39.9799 99.0166 39.9799 99.0068 39.9799 99.0068H39.9492V98.9774H39.9185V98.9464L39.8911 98.9153H39.862C39.8613 98.905 39.8613 98.8946 39.862 98.8842C39.8613 98.8739 39.8613 98.8635 39.862 98.8532H39.9008C39.9008 98.8336 39.9008 98.8238 39.9008 98.8238H39.8701V98.7927H39.8394C39.8401 98.7824 39.8401 98.772 39.8394 98.7617L39.8135 98.7306H39.7974C39.7877 98.7306 39.7845 98.7208 39.7861 98.7012H39.7554V98.6701H39.7392C39.7399 98.6598 39.7399 98.6494 39.7392 98.6391V98.608H39.7102C39.7102 98.5884 39.7102 98.5786 39.7102 98.5786H39.6795L39.652 98.5476C39.6517 98.5421 39.6517 98.5367 39.652 98.5312C39.6524 98.5263 39.6524 98.5214 39.652 98.5165H39.6213C39.6213 98.5165 39.6213 98.5067 39.6213 98.4855H39.5906L39.5648 98.456C39.346 98.2065 39.1124 97.9708 38.8653 97.75C38.6562 97.5635 38.4367 97.3894 38.2078 97.2286C38.022 97.0849 37.8133 96.9744 37.5907 96.9017C37.3638 96.8302 37.1273 96.7943 36.8896 96.7955C36.7188 96.7962 36.5487 96.8165 36.3824 96.856C36.19 96.9033 36.0044 96.9753 35.8299 97.0701C35.7961 97.0973 35.7578 97.1183 35.7168 97.1322C35.6626 97.1527 35.6051 97.1632 35.5472 97.1632L35.5763 96.887C35.938 96.7494 36.2823 96.5689 36.6021 96.3493C36.993 96.0943 37.4308 95.7729 37.9154 95.385C38.3807 94.996 38.7942 94.6637 39.1561 94.388C39.5179 94.1118 39.82 93.8977 40.0591 93.7343C40.2751 93.5731 40.5189 93.4539 40.7779 93.3829C41.0535 93.3089 41.3377 93.2726 41.6228 93.275C41.8414 93.2741 42.059 93.3049 42.269 93.3665C42.4868 93.4335 42.6961 93.5262 42.8925 93.6428L46.1234 98.948L46.1282 98.9464Z" fill="#DB5B35"/>
<path d="M65.9234 112.773C65.8976 112.363 65.8814 111.899 65.875 111.377C65.8685 110.856 65.875 110.289 65.8847 109.676C65.8847 109.349 65.8992 109.032 65.9041 108.725C65.9089 108.418 65.917 108.112 65.9218 107.805C65.9267 107.497 65.9606 107.233 65.9654 106.947C65.9703 106.661 65.9654 106.384 65.9751 106.12C65.9751 105.587 65.9751 105.082 65.9525 104.601C65.9299 104.121 65.9008 103.666 65.8572 103.237C65.4013 103.585 64.965 103.959 64.5503 104.356C64.1099 104.774 63.6559 105.24 63.1885 105.752C63.027 105.935 62.8655 106.12 62.7039 106.303C62.5424 106.486 62.3808 106.67 62.2193 106.855C62.0578 107.04 61.8849 107.233 61.7508 107.376C61.6315 107.503 61.5193 107.636 61.4148 107.775C61.2371 107.958 61.0643 108.143 60.8979 108.326C60.7315 108.509 60.5748 108.695 60.4133 108.878C59.9751 109.38 59.5091 109.856 59.0175 110.304C58.5361 110.739 58.0574 111.143 57.5814 111.515C57.0918 111.88 56.5725 112.203 56.029 112.481C55.4888 112.758 54.9269 112.989 54.349 113.172C54.2294 113.151 54.1164 113.125 54.0065 113.095C53.9022 113.067 53.8077 113.011 53.7335 112.932C53.6419 112.896 53.5591 112.84 53.4912 112.768C53.4217 112.69 53.3625 112.602 53.3151 112.508C53.2545 112.415 53.2006 112.318 53.1536 112.217C53.1035 112.105 53.0534 111.977 53.005 111.833C52.9882 111.816 52.9746 111.795 52.9646 111.773C52.9567 111.753 52.9534 111.732 52.9549 111.711C52.9549 111.69 52.9549 111.68 52.942 111.68H52.9274C52.9274 111.68 52.9274 111.67 52.9274 111.649C52.9274 111.649 52.9274 111.639 52.9274 111.619C52.9192 111.611 52.9127 111.602 52.9083 111.591C52.9038 111.58 52.9016 111.569 52.9016 111.557C52.9019 111.546 52.8998 111.535 52.8957 111.524C52.8915 111.514 52.8853 111.505 52.8773 111.497L52.8273 111.374C52.8076 111.324 52.7914 111.273 52.7788 111.221C52.711 110.608 52.6463 110.005 52.5849 109.411C52.5252 108.818 52.4573 108.226 52.4234 107.633C52.2215 104.595 52.2215 99.5411 52.509 96.1596C53.6834 95.0662 56.953 94.3928 58.4392 93.1245V93.1539L58.4311 93.2471C58.4315 93.252 58.4315 93.2569 58.4311 93.2618C58.4311 93.2716 58.4311 93.288 58.4311 93.3076C58.4304 93.313 58.4304 93.3185 58.4311 93.3239C58.4308 93.3288 58.4308 93.3337 58.4311 93.3386C58.4315 93.3435 58.4315 93.3484 58.4311 93.3533C58.2098 95.9569 56.9773 105.304 58.4764 106.254C60.0401 107.234 62.1078 105.476 63.2532 104.444C67.0284 101.043 68.0849 98.0097 70.7681 93.927L71.1929 94.6331C70.9005 95.3358 71.0104 102.875 71.0023 103.132C70.9743 103.929 70.9808 104.686 71.0217 105.4C71.0366 106.104 71.0981 106.807 71.2059 107.502C71.3099 108.16 71.4566 108.81 71.6453 109.449C71.7593 109.6 71.9035 109.725 72.0685 109.817C72.2444 109.903 72.4384 109.945 72.6339 109.939C72.782 109.939 72.9298 109.929 73.0765 109.908C73.2222 109.891 73.364 109.849 73.4965 109.786C73.6066 109.743 73.7208 109.712 73.8374 109.694C73.9601 109.673 74.1039 109.653 74.2671 109.632L74.2412 109.939C73.8362 110.073 73.4455 110.248 73.0749 110.461C72.5576 110.751 72.0551 111.068 71.5693 111.41C70.9684 111.821 70.4385 112.168 69.9798 112.453C69.5226 112.739 69.1333 112.964 68.8167 113.128C68.4579 113.312 68.0781 113.451 67.6859 113.541C67.2742 113.636 66.853 113.683 66.4307 113.68L65.9234 112.773Z" fill="#DB5B35"/>
<path d="M36.2116 89.7495C35.5592 90.7665 34.7396 91.6631 33.7885 92.4005C32.9597 93.0279 31.995 93.4465 30.9744 93.6214C30.6868 93.5915 30.4079 93.5043 30.1538 93.3648C29.8969 93.2238 29.6684 93.0353 29.4801 92.8091C29.2638 92.5277 29.0657 92.2324 28.8873 91.9249C28.6902 91.598 28.4915 91.2172 28.2944 90.8054L28.3267 90.7612H28.3445L28.4027 90.7514C28.4027 90.7253 28.4027 90.7122 28.4027 90.7122H28.4398H28.4786C28.4779 90.6991 28.4779 90.686 28.4786 90.673H28.4964H28.5157L28.5464 90.6288H28.5852C28.5852 90.6288 28.5852 90.6158 28.5852 90.5912H28.6224C28.6649 90.5608 28.7054 90.5275 28.7435 90.4915C28.7816 90.4567 28.8215 90.4239 28.8631 90.3935H28.9002V90.3543H28.9374C28.9635 90.3483 28.9882 90.3372 29.0101 90.3216C29.0357 90.3018 29.058 90.2781 29.0763 90.2513H29.1134C29.1134 90.2513 29.1134 90.2382 29.1134 90.2137H29.1328H29.1522L29.1684 90.1908L29.1829 90.1679H29.2217L29.2524 90.1222H29.2911L29.3477 90.114C29.3606 90.114 29.3638 90.0977 29.3606 90.0715L29.4171 90.0617H29.4349L29.3218 90.0813H29.3412C29.3541 90.0813 29.3574 90.065 29.3541 90.0404H29.3719H29.3913L29.4236 89.9963H29.4608H29.4995C29.4992 89.9898 29.4992 89.9832 29.4995 89.9767C29.4988 89.9702 29.4988 89.9636 29.4995 89.9571L29.5561 89.9473C29.569 89.9473 29.5852 89.9293 29.6062 89.8999L29.6385 89.8558H29.6756H29.7144L29.7451 89.8116C29.7661 89.7822 29.7822 89.7659 29.7952 89.7642H29.8145C30.0455 89.6008 30.283 89.4161 30.5237 89.2314C30.769 89.0436 31.0021 88.84 31.2216 88.6218C31.3346 88.5237 31.4429 88.4273 31.5446 88.3309C31.6464 88.2345 31.7514 88.1266 31.8677 88.004C31.955 87.9108 32.0551 87.8095 32.1666 87.6984C32.2743 87.5923 32.3726 87.4769 32.4606 87.3535L36.2568 89.8639L36.2116 89.7495Z" fill="#DB5B35"/>
<path d="M17.3724 87.914V117.907C17.1705 118.049 16.8878 118.234 16.5389 118.474C16.19 118.714 15.7506 118.976 15.2466 119.291C14.6989 119.631 14.2337 119.945 13.8524 120.226C13.4712 120.507 13.1594 120.738 12.9236 120.945L12.7055 92.0539C12.658 91.8844 12.5771 91.7264 12.4677 91.5894C12.3584 91.4523 12.2227 91.339 12.069 91.2563C11.6648 91.0535 11.2161 90.9584 10.7654 90.9801H10.2808C10.4213 90.8788 10.6394 90.7137 10.9269 90.4898C11.2145 90.2659 11.5989 89.9586 12.0577 89.5696C12.4902 89.209 12.941 88.8713 13.4082 88.558C13.788 88.2988 14.1829 88.063 14.5907 87.8519C14.9426 87.6526 15.3198 87.503 15.7118 87.4073C16.1003 87.3172 16.4961 87.2625 16.8943 87.2439L17.3789 87.9189L17.3724 87.914Z" fill="#DB5B35"/>
<path d="M74.5482 95.2852C74.5286 95.3455 74.5135 95.4073 74.503 95.4699C74.4943 95.5207 74.4895 95.572 74.4885 95.6235C74.4681 95.6824 74.4577 95.7442 74.4578 95.8066V95.9913C74.4567 96.2728 74.5031 96.5525 74.5951 96.8183C74.6841 97.0816 74.8115 97.3301 74.9731 97.5554C75.1408 97.7851 75.3232 98.0035 75.5191 98.2091C75.7352 98.4364 75.9679 98.6467 76.2154 98.8384C76.2586 98.882 76.3045 98.923 76.3527 98.961C76.4 98.9994 76.4453 99.0403 76.4884 99.0835C76.5901 99.1653 76.6854 99.247 76.7759 99.3124C76.8664 99.3777 76.9536 99.4513 77.0344 99.5118C77.073 99.5318 77.1084 99.5577 77.1394 99.5886L77.246 99.6964C77.2676 99.7173 77.2935 99.7329 77.3219 99.7422C77.3627 99.7593 77.3992 99.7856 77.4285 99.819L77.4431 99.8337L77.519 99.9105C77.536 99.9293 77.5563 99.9448 77.5788 99.9563C77.6015 99.9689 77.6222 99.9849 77.6402 100.004L77.6854 100.049C77.709 100.067 77.7344 100.083 77.7613 100.095C78.0007 100.211 78.2289 100.35 78.443 100.509C78.7166 100.703 79.0246 100.943 79.367 101.23C79.7515 101.556 80.0891 101.828 80.3831 102.047C80.6117 102.219 80.8495 102.377 81.0955 102.522C81.3154 102.666 81.5549 102.776 81.8063 102.849C82.0694 102.923 82.3412 102.959 82.614 102.957C82.4525 102.772 82.2699 102.583 82.068 102.39C81.846 102.178 81.6131 101.979 81.3702 101.792C81.0882 101.567 80.8185 101.326 80.5624 101.071C80.3298 100.836 80.1231 100.618 79.9421 100.417C79.7868 100.224 79.664 100.007 79.5787 99.7733C79.4963 99.5478 79.4547 99.3092 79.4559 99.0688C79.4558 98.8658 79.4869 98.664 79.548 98.4706C79.6123 98.2648 79.6934 98.0648 79.7903 97.8725C80.0806 97.436 80.4574 97.0653 80.8968 96.7839C81.4361 96.4337 82.01 96.1412 82.6092 95.9112C83.2017 95.9026 83.7863 96.0502 84.3054 96.3394C84.8444 96.6588 85.2933 97.113 85.609 97.6584C85.7104 98.0112 85.7913 98.3697 85.8513 98.7322C85.912 99.1071 85.9422 99.4865 85.9418 99.8664C85.948 101.233 85.5698 102.573 84.8514 103.73C84.4473 104.358 84.0072 104.962 83.5332 105.538C83.0184 106.16 82.4207 106.828 81.7401 107.543C80.9814 107.897 80.196 108.189 79.3913 108.416C78.7646 108.597 78.1173 108.695 77.4657 108.707C77.0359 108.713 76.6073 108.658 76.1927 108.543C75.8152 108.433 75.4574 108.263 75.133 108.038V108.529C75.4134 108.732 75.683 108.95 75.9407 109.182C76.2735 109.48 76.6725 109.843 77.1378 110.271C77.5825 110.68 78.002 111.048 78.3962 111.376C78.7617 111.684 79.1518 111.96 79.5625 112.203C79.8909 112.409 80.2481 112.565 80.6222 112.664C81.0083 112.765 81.4057 112.816 81.8047 112.816C81.9217 112.807 82.0382 112.791 82.1536 112.77C82.3459 112.739 82.6237 112.705 82.9872 112.664C83.5102 112.521 84.0178 112.325 84.5024 112.08C84.9897 111.834 85.456 111.547 85.8966 111.222C86.3026 110.914 86.681 110.57 87.0273 110.194C87.4224 109.77 87.7823 109.313 88.1032 108.829C88.4025 108.368 88.6614 107.88 88.877 107.373C89.0924 106.861 89.2695 106.333 89.4069 105.794C89.4478 105.264 89.4833 104.845 89.5135 104.538C89.5426 104.23 89.5587 104.026 89.5587 103.925C89.5687 102.568 89.3111 101.224 88.8011 99.9694C88.2622 98.6922 87.4793 97.5353 86.4975 96.5649V96.5355H86.4668L86.4361 96.5045C86.4097 96.4922 86.3847 96.4768 86.3618 96.4587L86.315 96.4129C86.2984 96.4136 86.2822 96.4077 86.2697 96.3966L86.2245 96.3508L86.2099 96.3361L86.1647 96.2887H86.134V96.2658H86.1017C86.102 96.2559 86.0992 96.2462 86.0936 96.238C86.0881 96.2298 86.0802 96.2235 86.071 96.2201C86.0621 96.2158 86.0544 96.2092 86.049 96.2008C86.0436 96.1924 86.0406 96.1827 86.0403 96.1727C86.0196 96.1725 85.9991 96.1674 85.9806 96.158C85.9579 96.146 85.9372 96.1306 85.9192 96.1122C85.8927 96.1 85.8678 96.0846 85.8449 96.0665L85.798 96.0207L85.7237 95.9439C85.7174 95.938 85.71 95.9335 85.702 95.9307C85.6939 95.9279 85.6854 95.9268 85.6769 95.9275V95.8981H85.6478V95.8671H85.6171C85.5961 95.8671 85.5864 95.867 85.5864 95.8523C85.5864 95.8376 85.5767 95.836 85.5557 95.836C85.5559 95.8263 85.5532 95.8168 85.548 95.8087C85.5428 95.8005 85.5354 95.7941 85.5266 95.7902L85.4959 95.7755C85.3748 95.6726 85.2019 95.5353 84.9806 95.3604C84.7593 95.1855 84.496 94.9681 84.1923 94.7066C83.7884 94.3994 83.3894 94.1182 82.9953 93.8633C82.6205 93.6206 82.231 93.4023 81.8289 93.2095C81.4681 93.0061 81.0802 92.8564 80.6771 92.765C80.2593 92.6706 79.8323 92.624 79.4042 92.626C79.1913 92.6287 78.9788 92.644 78.7677 92.6718C78.4913 92.7072 78.2177 92.7618 77.9487 92.8353C77.2112 93.0941 76.5127 93.4549 75.8729 93.9074C75.3521 94.2798 74.905 94.7477 74.5547 95.2868L74.5482 95.2852Z" fill="#DB5B35"/>
<path d="M74.5482 112.301C74.5286 112.361 74.5135 112.423 74.503 112.486C74.4943 112.536 74.4895 112.587 74.4885 112.638C74.4682 112.697 74.4578 112.759 74.4578 112.822V112.848C76.8809 112.289 84.4346 111.485 85.6122 115.539C86.806 119.646 83.1681 124.415 79.3832 125.44C78.7565 125.621 78.1092 125.719 77.4576 125.731C77.0278 125.737 76.5992 125.682 76.1846 125.567C75.8067 125.457 75.4489 125.286 75.1249 125.061V125.551C75.4053 125.754 75.6749 125.973 75.9326 126.205C76.2654 126.5 76.6644 126.863 77.1297 127.293C77.5744 127.702 77.9939 128.069 78.3881 128.396C78.754 128.704 79.144 128.981 79.5544 129.225C79.8825 129.432 80.2399 129.586 80.6141 129.684C81 129.787 81.3975 129.839 81.7966 129.838C81.9136 129.829 82.0301 129.814 82.1455 129.792C82.3372 129.762 82.6151 129.726 82.9791 129.684C83.5023 129.543 84.01 129.348 84.4943 129.102C84.9816 128.856 85.4479 128.569 85.8885 128.244C86.2941 127.935 86.6724 127.591 87.0192 127.216C87.4143 126.792 87.7742 126.336 88.0951 125.852C88.3944 125.39 88.6533 124.903 88.8689 124.395C89.0843 123.883 89.2614 123.355 89.3988 122.817C89.4391 122.285 89.4747 121.865 89.5054 121.56C89.5361 121.254 89.5506 121.048 89.5506 120.947C89.5606 119.591 89.303 118.246 88.793 116.992C87.6719 114.27 84.399 111.449 81.8225 110.214C81.4613 110.011 81.0735 109.861 80.6707 109.769C80.2526 109.676 79.8257 109.63 79.3977 109.632C79.1848 109.634 78.9722 109.649 78.7612 109.678C78.485 109.714 78.2113 109.768 77.9422 109.841C77.2049 110.101 76.5065 110.462 75.8664 110.915C75.3456 111.287 74.8985 111.755 74.5482 112.294V112.301Z" fill="#DB5B35"/>
<path d="M14.723 110.699C14.7027 110.639 14.6875 110.577 14.6778 110.514C14.669 110.464 14.6642 110.412 14.6633 110.361C14.6429 110.302 14.6325 110.24 14.6326 110.178V109.995C14.6318 109.713 14.6776 109.434 14.7683 109.168C14.8579 108.904 14.9858 108.656 15.1479 108.431C15.3155 108.201 15.4973 107.983 15.6923 107.777C15.9086 107.55 16.1419 107.34 16.3902 107.149C16.4332 107.105 16.4785 107.064 16.5258 107.025C16.5748 106.988 16.6207 106.947 16.6632 106.902C16.7633 106.821 16.8602 106.739 16.9507 106.674C17.0412 106.608 17.1268 106.535 17.2076 106.474C17.2468 106.454 17.2828 106.428 17.3142 106.397L17.4208 106.29C17.4421 106.268 17.4682 106.253 17.4967 106.244C17.5368 106.226 17.5726 106.2 17.6017 106.167L17.6179 106.152L17.6938 106.075C17.7108 106.057 17.7311 106.041 17.7536 106.03C17.7762 106.018 17.7969 106.002 17.8149 105.984L17.8602 105.938C17.8832 105.919 17.9088 105.903 17.9361 105.891C18.1755 105.774 18.4037 105.636 18.6178 105.477C18.8908 105.283 19.1977 105.042 19.5418 104.756C19.9263 104.43 20.2645 104.157 20.5563 103.939C20.7854 103.768 21.0232 103.609 21.2687 103.464C21.4893 103.32 21.7293 103.21 21.9811 103.137C22.2443 103.065 22.5161 103.029 22.7888 103.031C22.6273 103.214 22.4458 103.403 22.2444 103.598C22.0228 103.809 21.7898 104.008 21.5466 104.194C21.2653 104.42 20.9958 104.661 20.7389 104.915C20.5062 105.15 20.2989 105.368 20.1169 105.569C19.9616 105.762 19.8388 105.979 19.7534 106.213C19.6724 106.438 19.6314 106.677 19.6323 106.917C19.6323 107.12 19.6628 107.322 19.7228 107.515C19.7884 107.721 19.8699 107.921 19.9667 108.113C20.2564 108.55 20.6327 108.921 21.0716 109.202C21.6114 109.552 22.1852 109.845 22.784 110.076C23.3772 110.085 23.9623 109.936 24.4818 109.647C25.02 109.327 25.4683 108.873 25.7838 108.328C25.8865 107.976 25.968 107.617 26.0277 107.255C26.0882 106.88 26.1185 106.501 26.1182 106.121C26.1203 105.445 26.029 104.773 25.8468 104.122C25.6607 103.469 25.3856 102.844 25.0294 102.267C24.6243 101.639 24.1836 101.035 23.7096 100.458C23.1959 99.8238 22.595 99.1494 21.9068 98.4346C21.1486 98.0792 20.363 97.7868 19.558 97.5602C18.9318 97.3793 18.2851 97.2816 17.634 97.2693C17.2042 97.2627 16.7756 97.3178 16.3611 97.4327C15.9826 97.5427 15.6243 97.7138 15.2997 97.9394V97.4491C15.5802 97.2457 15.8498 97.0275 16.1075 96.7953C16.4402 96.4989 16.8392 96.1361 17.3045 95.7068C17.7493 95.2982 18.1682 94.9305 18.5613 94.6036C18.9277 94.2965 19.3177 94.0194 19.7276 93.7749C20.0563 93.5683 20.4142 93.4134 20.7889 93.3157C21.1742 93.2124 21.5712 93.1602 21.9698 93.1604C22.0863 93.1694 22.2022 93.1847 22.3171 93.2062C22.5088 93.2378 22.7867 93.2737 23.1507 93.314C23.674 93.4554 24.1817 93.6504 24.6659 93.8959C25.1534 94.1421 25.6197 94.4292 26.06 94.7539C26.4663 95.062 26.8448 95.406 27.1908 95.782C27.585 96.207 27.9447 96.6634 28.2667 97.1467C28.5654 97.6085 28.8238 98.0957 29.0389 98.6029C29.2555 99.1147 29.4332 99.6426 29.5703 100.182C29.6107 100.713 29.6463 101.133 29.6753 101.439C29.7044 101.744 29.7206 101.95 29.7206 102.052C29.7313 103.408 29.4737 104.753 28.9629 106.007C28.4252 107.284 27.6428 108.441 26.661 109.411V109.442H26.6303L26.5996 109.472C26.5727 109.484 26.5472 109.499 26.5237 109.517L26.4784 109.565C26.4703 109.564 26.4621 109.565 26.4543 109.568C26.4466 109.57 26.4394 109.574 26.4332 109.58L26.388 109.625L26.3718 109.642L26.3266 109.687H26.2959V109.717H26.2668C26.2665 109.727 26.2635 109.737 26.2581 109.745C26.2527 109.753 26.2451 109.76 26.2361 109.764C26.227 109.768 26.2193 109.774 26.2138 109.782C26.2083 109.79 26.2054 109.8 26.2054 109.81C26.1846 109.81 26.1642 109.815 26.1456 109.825C26.123 109.837 26.1023 109.852 26.0843 109.87C26.0576 109.883 26.0322 109.899 26.0083 109.916L25.9631 109.964L25.8872 110.039C25.8814 110.045 25.8743 110.049 25.8664 110.052C25.8586 110.055 25.8502 110.056 25.842 110.055V110.086H25.8113V110.116H25.7806C25.7612 110.116 25.7515 110.116 25.7515 110.132C25.7515 110.148 25.7418 110.147 25.7208 110.147C25.7211 110.157 25.7182 110.166 25.7127 110.175C25.7072 110.183 25.6993 110.189 25.6901 110.192L25.6594 110.209C25.5399 110.31 25.367 110.449 25.1457 110.622C24.9244 110.796 24.6611 111.016 24.3574 111.276C23.9535 111.583 23.5545 111.864 23.1604 112.119C22.7853 112.362 22.3952 112.581 21.9924 112.773C21.6325 112.977 21.245 113.127 20.8422 113.218C20.4244 113.312 19.9974 113.359 19.5693 113.357C19.3564 113.355 19.1438 113.339 18.9328 113.311C18.6565 113.275 18.3829 113.22 18.1138 113.147C17.3764 112.888 16.6779 112.526 16.038 112.074C15.5172 111.701 15.0701 111.233 14.7198 110.694L14.723 110.699Z" fill="#DB5B35"/>
<path d="M107.224 98.2843C107.762 99.327 108.261 100.354 108.719 101.365C109.178 102.376 109.609 103.373 110.012 104.356C110.415 105.337 110.779 106.292 111.105 107.223C111.432 108.153 111.73 109.068 112 109.967L111.354 110.426C111.125 110.59 110.87 110.763 110.589 110.948C110.569 110.966 110.546 110.981 110.522 110.993C110.499 111.005 110.477 111.021 110.458 111.039L110.424 111.07H110.393C110.394 111.081 110.394 111.091 110.393 111.101H110.333C110.333 111.101 110.333 111.111 110.333 111.131H110.303L110.269 111.162L110.252 111.178L110.235 111.193C110.215 111.193 110.204 111.193 110.204 111.207C110.204 111.213 110.204 111.218 110.204 111.224H110.172L110.138 111.255C110.121 111.254 110.104 111.259 110.091 111.27C110.079 111.282 110.072 111.298 110.072 111.315H110.041L110.007 111.346H109.976L109.944 111.377L109.926 111.392L109.91 111.407L109.894 111.423C109.88 111.434 109.863 111.439 109.845 111.438L109.829 111.453L109.813 111.469L109.795 111.484C109.789 111.489 109.784 111.494 109.779 111.5H109.748C109.748 111.5 109.748 111.51 109.748 111.529H109.718C109.719 111.54 109.719 111.55 109.718 111.561H109.687L109.653 111.592H109.622C109.622 111.611 109.614 111.623 109.605 111.623H109.589L109.572 111.637L109.556 111.652L109.538 111.668L109.522 111.683C109.483 111.701 109.446 111.722 109.409 111.745C109.38 111.763 109.353 111.783 109.327 111.806H109.298C109.298 111.806 109.298 111.815 109.298 111.837H109.267C109.267 111.837 109.267 111.847 109.267 111.868H109.236C109.236 111.868 109.236 111.878 109.236 111.899H109.206L109.173 111.928L109.139 111.959H109.109C109.109 111.959 109.109 111.969 109.109 111.99C108.934 112.088 108.766 112.197 108.605 112.317C108.354 112.49 108.031 112.72 107.636 113.007C107.448 112.291 107.225 111.583 106.965 110.882C106.706 110.177 106.408 109.486 106.075 108.813C105.789 108.186 105.44 107.59 105.035 107.035C104.605 106.443 104.118 105.895 103.581 105.4C103.072 104.938 102.5 104.553 101.883 104.256C101.249 103.955 100.579 103.736 99.8912 103.603C99.6327 103.563 99.363 103.527 99.0835 103.496C98.8035 103.466 98.522 103.45 98.2403 103.451C97.7529 103.445 97.2671 103.507 96.7961 103.634C96.3828 103.745 95.9935 103.932 95.6475 104.186C95.4218 104.336 95.2266 104.529 95.0724 104.753C94.9247 104.978 94.8352 105.236 94.8123 105.505C94.8123 105.546 94.8043 105.587 94.7994 105.628C94.7949 105.669 94.8011 105.712 94.8172 105.75C94.8082 105.828 94.8205 105.907 94.8527 105.979C94.8909 106.064 94.9227 106.151 94.948 106.241C95.3529 107.113 96.0277 107.829 96.8704 108.279C97.7212 108.74 98.7933 108.969 100.087 108.968H100.465C100.603 108.968 100.741 108.958 100.878 108.939C101.019 108.939 101.156 108.939 101.289 108.923C101.421 108.906 101.549 108.898 101.671 108.877C101.727 108.852 101.785 108.832 101.844 108.816C101.93 108.789 102.012 108.747 102.085 108.694L102.369 108.586C102.435 108.553 102.506 108.532 102.579 108.524H102.67C102.678 108.523 102.686 108.524 102.694 108.527C102.702 108.529 102.709 108.533 102.715 108.539C102.721 108.544 102.727 108.549 102.735 108.552C102.743 108.554 102.751 108.556 102.759 108.555C102.766 108.554 102.774 108.555 102.782 108.558C102.789 108.56 102.796 108.564 102.802 108.57C102.808 108.575 102.815 108.579 102.822 108.582C102.83 108.584 102.838 108.585 102.846 108.584C102.592 108.892 102.317 109.198 102.022 109.504C101.718 109.821 101.394 110.118 101.053 110.394C100.744 110.639 100.407 110.884 100.035 111.145C99.6634 111.407 99.2531 111.672 98.7992 111.963C98.3943 112.167 98.0001 112.361 97.6167 112.544C97.2472 112.724 96.8662 112.878 96.4762 113.005C95.9754 112.965 95.5118 112.911 95.0853 112.842C94.6589 112.773 94.255 112.696 93.8738 112.61C93.5114 112.511 93.1544 112.393 92.8044 112.257C92.4584 112.121 92.1263 111.952 91.8125 111.752C91.5182 111.554 91.2524 111.317 91.0226 111.046C90.7964 110.778 90.6082 110.479 90.4636 110.158C90.3383 109.992 90.2546 109.797 90.2197 109.591C90.1813 109.342 90.1775 109.089 90.2084 108.839C90.232 108.597 90.2725 108.357 90.3295 108.12C90.3777 107.915 90.4442 107.715 90.5283 107.522C91.2738 106.602 92.1082 105.759 93.0192 105.007C93.9039 104.277 94.8592 103.641 95.8704 103.106C96.8612 102.569 97.9066 102.143 98.9882 101.834C100.048 101.536 101.139 101.366 102.238 101.328C102.263 101.119 102.27 100.909 102.259 100.7C102.254 100.557 102.222 100.416 102.166 100.285C102.146 100.132 102.105 99.9824 102.046 99.8403C101.99 99.7096 101.928 99.582 101.859 99.4578L101.754 99.3042L101.431 98.8449C101.431 98.8346 101.431 98.8242 101.431 98.8139V98.7828H101.402C101.401 98.7931 101.401 98.8035 101.402 98.8139C101.402 98.8139 101.402 98.7926 101.402 98.7517L101.374 98.7223C101.374 98.7223 101.374 98.7109 101.374 98.6913H101.343L101.316 98.6602C101.316 98.6602 101.316 98.6504 101.316 98.6292H101.287V98.5981C101.286 98.5883 101.286 98.5785 101.287 98.5687H101.256V98.5376H101.226C101.226 98.5273 101.226 98.5169 101.226 98.5066L101.198 98.4755C101.198 98.4755 101.198 98.4657 101.198 98.4461H101.138V98.4151H101.125C101.126 98.4047 101.126 98.3943 101.125 98.384C101.126 98.3737 101.126 98.3633 101.125 98.353H101.095V98.3235H101.066V98.2925L101.038 98.2614H101.007C101.007 98.2614 101.007 98.2516 101.007 98.2304C101.007 98.2304 101.007 98.2206 101.007 98.201H100.977C100.977 98.1906 100.977 98.1802 100.977 98.1699H100.964V98.1389H100.933C100.933 98.1192 100.933 98.1078 100.933 98.1078L100.906 98.0784H100.891C100.88 98.0784 100.877 98.0669 100.878 98.0473H100.848V98.0163H100.818C100.818 97.9967 100.818 97.9852 100.818 97.9852V97.9558H100.802C100.802 97.9346 100.802 97.9247 100.802 97.9247H100.772L100.744 97.8937C100.745 97.8888 100.745 97.8839 100.744 97.879C100.744 97.8735 100.744 97.8681 100.744 97.8626H100.715C100.714 97.8528 100.714 97.843 100.715 97.8332H100.684L100.657 97.8022C100.439 97.5523 100.205 97.3165 99.9574 97.0961C99.7487 96.9093 99.5292 96.7352 99.3 96.5747C99.1144 96.4307 98.9056 96.3201 98.6829 96.2479C98.4558 96.177 98.2194 96.1411 97.9818 96.1416C97.811 96.1423 97.6408 96.1626 97.4745 96.2021C97.2822 96.2495 97.0965 96.3214 96.9221 96.4162C96.889 96.4437 96.8512 96.4648 96.8106 96.4783C96.756 96.4996 96.6979 96.5101 96.6394 96.5094L96.6684 96.2331C97.03 96.0958 97.3743 95.9159 97.6942 95.6971C98.0852 95.4399 98.523 95.1179 99.0076 94.7311C99.4728 94.3421 99.8869 94.0098 100.25 93.7342C100.613 93.4585 100.913 93.2406 101.151 93.0804C101.367 92.9187 101.611 92.799 101.87 92.7274C102.146 92.6534 102.43 92.6171 102.715 92.6195C102.934 92.6185 103.151 92.6493 103.361 92.711C103.579 92.778 103.788 92.8707 103.985 92.9872L107.216 98.2925L107.224 98.2843Z" fill="#DB5B35"/>
<path d="M94.7995 94.3536C94.3472 95.0604 93.7778 95.683 93.1162 96.1939C92.5415 96.6303 91.8718 96.9212 91.1632 97.0421C90.9638 97.0218 90.7704 96.9613 90.5946 96.864C90.4154 96.767 90.2564 96.636 90.1261 96.4783C89.9761 96.283 89.8385 96.0783 89.7142 95.8654C89.5774 95.6333 89.4401 95.374 89.3022 95.0874L89.3249 95.0563H89.3329H89.3717C89.3717 95.0384 89.3717 95.0286 89.3717 95.0286H89.3976H89.4234C89.4234 95.0286 89.4234 95.0188 89.4234 95.0024H89.4363H89.4492L89.4702 94.9714H89.4977V94.9452H89.5236C89.5531 94.9243 89.5812 94.9014 89.6076 94.8766C89.6338 94.8523 89.6613 94.8293 89.6899 94.8079H89.7174V94.7801H89.7432C89.7614 94.7763 89.7785 94.7685 89.7933 94.7573C89.8117 94.7438 89.8275 94.7272 89.8402 94.7082H89.866V94.6821H89.8935L89.9032 94.6657L89.9145 94.651H89.9403L89.963 94.62H89.9888H90.0292C90.0292 94.62 90.0405 94.6085 90.0292 94.5922H90.0679H90.0825L90.0033 94.6053H90.0163C90.0243 94.6053 90.0276 94.5938 90.0243 94.5758H90.0518C90.0582 94.5651 90.0652 94.5547 90.0728 94.5448H90.0986H90.1261V94.5317C90.1257 94.5274 90.1257 94.523 90.1261 94.5186H90.1649C90.1746 94.5186 90.1859 94.5056 90.2004 94.4859L90.223 94.4549H90.2489H90.2747L90.2973 94.4238C90.3119 94.4042 90.3232 94.3928 90.3313 94.3912H90.3458C90.5073 94.2735 90.6689 94.1509 90.8304 94.0218C91.0006 93.8917 91.1624 93.7508 91.315 93.6001C91.3942 93.5315 91.4685 93.4644 91.5396 93.3974C91.6107 93.3304 91.6817 93.2552 91.7577 93.1703C91.8336 93.0853 91.8885 93.0346 91.9661 92.9578C92.0409 92.8841 92.1091 92.8037 92.1696 92.7175L94.8059 94.4598L94.7995 94.3536Z" fill="#00B2BF"/>
<path fill-rule="evenodd" clip-rule="evenodd" d="M32.147 126.649C33.0096 126.984 34.247 127.846 34.856 128.937C35.0337 128.056 37.4407 126.703 37.4763 125.785C37.0563 125.096 36.8818 125.041 35.0127 123.145C34.4425 124.487 32 125.521 32.147 126.649Z" fill="#DB5B35"/>
<path d="M43.6002 129.4L41.8539 130.667C41.82 130.412 41.7942 130.135 41.778 129.841C41.7618 129.547 41.7441 129.233 41.7279 128.9C41.7118 128.566 41.7118 128.235 41.7085 127.875C41.7053 127.515 41.6972 127.149 41.6892 126.773C41.6811 126.397 41.6617 126.04 41.6326 125.698C41.6035 125.356 41.5664 125.033 41.5244 124.717C41.4824 124.402 41.4113 124.142 41.3354 123.866C41.2582 123.583 41.1604 123.307 41.043 123.039C40.967 122.975 40.882 122.923 40.791 122.885C40.7062 122.851 40.6157 122.834 40.5244 122.835C40.4733 122.835 40.4224 122.841 40.3726 122.852C40.3236 122.865 40.2768 122.885 40.2337 122.911L40.1949 122.988L40.1077 122.745L41.0882 122.008C41.3532 121.808 41.5632 121.651 41.715 121.54C41.9089 121.404 42.107 121.276 42.3095 121.156C42.515 121.036 42.7264 120.927 42.9427 120.829L43.3094 121.2L43.6002 129.397V129.4Z" fill="#DB5B35"/>
<path d="M53.2393 123.253C53.2733 123.416 53.2975 123.59 53.3153 123.743C53.3315 123.896 53.3401 124.05 53.3411 124.204C53.3423 124.568 53.2973 124.93 53.207 125.281C53.1182 125.622 52.984 125.949 52.808 126.254C52.6294 126.559 52.4308 126.853 52.2135 127.131C52.0069 127.396 51.7783 127.642 51.5302 127.867C51.2685 128.107 50.9729 128.357 50.6433 128.635C50.3138 128.913 49.9519 129.194 49.5562 129.493C49.1604 129.792 48.7872 130.093 48.4916 130.345C48.196 130.596 47.9569 130.812 47.7711 130.998L47.5304 130.752C47.7921 130.556 48.0431 130.359 48.2832 130.163C48.5239 129.967 48.7533 129.761 48.973 129.549C49.1723 129.364 49.3606 129.167 49.5368 128.959C49.736 128.728 49.9514 128.467 50.183 128.177C50.364 127.937 50.5261 127.682 50.6676 127.416C50.8063 127.158 50.9267 126.89 51.0278 126.615C51.1342 126.331 51.2147 126.038 51.2685 125.739C51.3184 125.466 51.3439 125.189 51.3444 124.912C51.3444 124.793 51.3444 124.657 51.3267 124.503C51.3089 124.35 51.2895 124.176 51.2556 123.99C51.1887 123.742 51.091 123.503 50.9648 123.279C50.8381 123.054 50.6899 122.841 50.5222 122.645C50.1925 122.241 49.7773 121.918 49.3074 121.699C49.2603 121.682 49.2116 121.671 49.162 121.666C49.1173 121.664 49.0726 121.664 49.0279 121.666C48.8548 121.667 48.6859 121.72 48.5433 121.82C48.3733 121.942 48.2307 122.099 48.1249 122.281C48.1168 122.426 48.1104 122.539 48.1055 122.621C48.1007 122.702 48.1055 122.751 48.1055 122.768C48.0975 123.295 48.2197 123.817 48.4609 124.284C48.7182 124.758 49.077 125.167 49.5109 125.482L50.1571 125.765C50.1054 125.808 50.0424 125.866 49.9665 125.943C49.8906 126.02 49.8049 126.107 49.7016 126.226C49.5739 126.354 49.4544 126.466 49.3397 126.564C49.2319 126.658 49.1156 126.742 48.9924 126.814C48.8931 126.882 48.7841 126.934 48.6693 126.968C48.5457 127.003 48.4179 127.02 48.2897 127.019C48.3317 127.019 48.3349 127.019 48.2897 127.019L48.0554 127.001L47.8535 126.795L47.7647 126.872L47.4933 126.602C47.406 126.52 47.3317 126.438 47.2477 126.352C47.1637 126.265 47.0991 126.188 47.0313 126.115C46.9634 126.041 46.9004 125.951 46.8423 125.865C46.7312 125.708 46.6395 125.539 46.5693 125.36C46.4955 125.166 46.4388 124.967 46.3996 124.763C46.3819 124.628 46.3673 124.513 46.3544 124.423C46.3427 124.349 46.3362 124.274 46.335 124.199C46.3323 123.848 46.4244 123.503 46.6016 123.201C46.6742 123.058 46.7637 122.925 46.8681 122.804C46.9813 122.671 47.1039 122.547 47.2348 122.433C47.3608 122.33 47.5094 122.215 47.6774 122.088C47.8454 121.96 48.0361 121.823 48.2477 121.677L48.7323 121.338C48.8842 121.231 49.0247 121.132 49.1507 121.037C49.443 120.877 49.7477 120.742 50.0618 120.633C50.294 120.55 50.5377 120.505 50.7839 120.499C50.9411 120.497 51.0975 120.523 51.2459 120.576C51.382 120.625 51.5084 120.699 51.6191 120.793C51.9933 121.087 52.3161 121.442 52.5738 121.844C52.8542 122.283 53.0779 122.757 53.2393 123.253Z" fill="#DB5B35"/>
<path d="M62.6782 123.253C62.7121 123.416 62.738 123.59 62.7541 123.743C62.7703 123.896 62.779 124.05 62.78 124.204C62.7809 124.568 62.7364 124.929 62.6475 125.281C62.558 125.622 62.4238 125.949 62.2485 126.254C62.0694 126.559 61.8702 126.853 61.6524 127.131C61.4458 127.396 61.2172 127.642 60.9691 127.867C60.7074 128.107 60.4118 128.357 60.0838 128.635C59.7559 128.913 59.3908 129.194 58.995 129.493C58.5993 129.792 58.2277 130.093 57.9321 130.345C57.6365 130.596 57.3958 130.812 57.21 130.998L56.9709 130.752C57.2326 130.556 57.4846 130.359 57.7237 130.163C57.9628 129.967 58.1954 129.761 58.4135 129.549C58.6128 129.364 58.8011 129.167 58.9773 128.959C59.176 128.728 59.3924 128.468 59.6234 128.177C59.8046 127.937 59.9666 127.682 60.1081 127.416C60.2467 127.158 60.3676 126.89 60.4699 126.615C60.5758 126.331 60.6558 126.038 60.709 125.739C60.7589 125.466 60.7843 125.189 60.7849 124.912C60.7849 124.793 60.7849 124.657 60.7672 124.503C60.7494 124.35 60.7316 124.176 60.6977 123.99C60.6295 123.742 60.5313 123.503 60.4053 123.279C60.2792 123.053 60.1309 122.841 59.9627 122.645C59.633 122.241 59.2178 121.918 58.7479 121.699C58.7009 121.682 58.6521 121.671 58.6025 121.666C58.5584 121.664 58.5142 121.664 58.47 121.666C58.2969 121.667 58.128 121.72 57.9854 121.82C57.8158 121.942 57.6733 122.099 57.567 122.281C57.5589 122.426 57.5525 122.539 57.5492 122.621C57.546 122.702 57.5492 122.751 57.5492 122.768C57.5407 123.295 57.6623 123.816 57.903 124.284C58.1603 124.758 58.5191 125.167 58.953 125.482L59.5992 125.765C59.5491 125.808 59.4845 125.866 59.4086 125.943C59.3327 126.02 59.247 126.107 59.1437 126.226C59.0403 126.345 58.8965 126.466 58.7834 126.564C58.6748 126.658 58.558 126.742 58.4345 126.814C58.3353 126.882 58.2263 126.934 58.1114 126.968C57.9879 127.003 57.8601 127.02 57.7318 127.019C57.7738 127.019 57.777 127.019 57.7318 127.019L57.4976 127.001L57.2956 126.795L57.2068 126.872L56.9354 126.623C56.846 126.541 56.7636 126.458 56.6882 126.373C56.6123 126.296 56.5396 126.21 56.4734 126.136C56.4071 126.063 56.3425 125.973 56.2828 125.886C56.1717 125.73 56.0805 125.56 56.0114 125.381C55.9364 125.188 55.879 124.988 55.8401 124.784C55.8224 124.649 55.8078 124.534 55.7949 124.445C55.7844 124.37 55.7785 124.296 55.7771 124.221C55.7749 123.861 55.8711 123.508 56.055 123.201C56.1276 123.058 56.2171 122.925 56.3215 122.804C56.4351 122.671 56.5577 122.548 56.6882 122.433C56.8142 122.33 56.9629 122.215 57.1309 122.088C57.2989 121.96 57.4895 121.823 57.7011 121.677L58.1857 121.338C58.3376 121.231 58.4765 121.132 58.6025 121.037C58.8948 120.877 59.1995 120.742 59.5136 120.633C59.7458 120.55 59.9895 120.505 60.2357 120.499C60.3929 120.497 60.5492 120.523 60.6977 120.576C60.8338 120.625 60.9601 120.699 61.0708 120.793C61.4452 121.087 61.7684 121.442 62.0272 121.844C62.3064 122.284 62.5295 122.757 62.6911 123.253H62.6782Z" fill="#DB5B35"/>
<path d="M70.4323 123.804C70.2481 123.964 70.0749 124.137 69.9138 124.322C69.7958 124.462 69.6682 124.609 69.7361 124.66C70.0592 124.909 71.9007 125 71.9007 126.927C71.9017 127.032 71.8952 127.137 71.8813 127.241C71.8719 127.323 71.8484 127.403 71.8119 127.478C71.6779 127.691 71.53 127.894 71.3693 128.087C71.202 128.286 71.0246 128.476 70.8378 128.656C70.655 128.841 70.4625 129.017 70.2611 129.181C70.0607 129.346 69.8521 129.5 69.6359 129.643C69.4243 129.779 69.2078 129.91 68.9898 130.032C68.7671 130.156 68.5367 130.266 68.3 130.359C68.0641 130.454 67.8283 130.539 67.5908 130.616C67.3551 130.693 67.1144 130.753 66.8703 130.796C66.572 130.755 66.2841 130.657 66.0222 130.506C65.788 130.368 65.5919 130.173 65.452 129.938C65.3836 129.819 65.3294 129.692 65.2905 129.56C65.2521 129.42 65.233 129.275 65.2339 129.13C65.2361 128.869 65.2809 128.609 65.3664 128.362C65.8106 127.037 66.8364 126.36 67.6005 125.955C67.3639 125.76 67.1045 125.595 66.8283 125.464C66.6183 125.345 66.4406 125.239 66.2969 125.137C66.179 125.062 66.0653 124.981 65.956 124.894C65.8544 124.8 65.7687 124.689 65.7024 124.567C65.6313 124.431 65.577 124.287 65.5408 124.137C65.5383 123.853 65.5876 123.571 65.6862 123.305C65.7857 123.044 65.9337 122.805 66.1224 122.601C66.3303 122.375 66.5549 122.165 66.7944 121.973C67.0661 121.753 67.3492 121.548 67.6425 121.359C67.5466 121.554 67.4739 121.76 67.426 121.973C67.3747 122.204 67.3492 122.441 67.3501 122.678V122.908C67.3465 122.939 67.351 122.97 67.363 122.998C67.4599 123.164 67.5725 123.321 67.699 123.465C67.8409 123.625 67.9954 123.773 68.161 123.907C68.3315 124.039 68.5138 124.155 68.7054 124.253C68.884 124.343 69.0706 124.416 69.2628 124.471C69.4686 124.355 69.6369 124.181 69.7474 123.97C70.1351 123.219 69.6925 121.795 68.8169 121.883C69.0124 121.72 69.1949 121.556 69.3678 121.409C71.3402 119.755 73.0348 121.55 70.4372 123.792L70.4323 123.804ZM69.9008 127.563C69.8201 127.39 69.7181 127.229 69.5971 127.082C69.4744 126.938 69.3292 126.815 69.1675 126.718C68.9925 126.604 68.8106 126.501 68.6231 126.411C68.4223 126.314 68.215 126.233 68.0027 126.167C67.4228 126.695 67.0173 127.403 67.4147 128.414C67.5041 128.643 67.6344 128.854 67.7992 129.035C67.958 129.149 68.1306 129.242 68.3129 129.312C68.4809 129.375 68.6587 129.407 68.8379 129.408C68.9256 129.408 69.013 129.397 69.098 129.375C69.1797 129.353 69.2583 129.321 69.3322 129.279C69.5285 129.175 69.6827 129.005 69.7684 128.798C69.8743 128.532 69.9238 128.247 69.9138 127.96V127.679C69.9179 127.64 69.9135 127.6 69.9008 127.563Z" fill="#DB5B35"/>
</g>
<defs>
<linearGradient id="paint0_linear" x1="55.9856" y1="33.8908" x2="56.3907" y2="70.7087" gradientUnits="userSpaceOnUse">
<stop stop-color="#DB5B35"/>
<stop offset="1" stop-color="#B32E30"/>
</linearGradient>
<linearGradient id="paint1_linear" x1="2628.48" y1="3908.83" x2="2645.81" y2="2440.56" gradientUnits="userSpaceOnUse">
<stop stop-color="#DB5B35"/>
<stop offset="1" stop-color="#B32E30"/>
</linearGradient>
<clipPath id="clip0">
<rect width="112" height="131" fill="white"/>
</clipPath>
</defs>
</svg>
