<svg width="112" height="131" viewBox="0 0 112 131" fill="none" xmlns="http://www.w3.org/2000/svg">
<g clip-path="url(#clip0)">
<path fill-rule="evenodd" clip-rule="evenodd" d="M61.0656 62.8036C64.4628 56.5366 64.0306 47.9256 58.6647 42.9217C54.4992 39.0352 47.9329 37.2741 41.0424 35.9624C36.7809 35.1608 31.319 33.7276 30.7068 30.4848C30.0465 26.9991 32.3033 23.0033 37.6932 21.9831C37.7016 21.576 37.6694 21.1691 37.5972 20.7685C31.451 19.894 24.2965 24.0721 23.1921 30.6427C21.0313 43.0796 30.4667 47.464 40.2982 49.9174C51.7503 52.7837 63.1063 56.8524 54.5713 72.3256L59.1089 70.4431C60.4414 68.014 62.9743 65.1841 68.5563 61.1762C77.2594 54.9456 86.5627 52.055 88.8555 39.861C89.4106 37.1514 89.2944 34.345 88.5173 31.6918C87.7402 29.0387 86.3264 26.6212 84.4019 24.655C78.8439 18.9103 69.4086 18.0965 61.5938 16.4326C53.779 14.7687 49.4454 7.04424 57.6204 2.0282C56.0478 0.218542 49.4214 1.63955 45.34 6.2305C38.6536 13.7121 41.4626 24.2907 52.2304 26.5254C65.4352 29.1974 81.761 36.6061 72.5297 50.221C69.0724 55.3221 63.4304 59.0021 61.0656 62.8036Z" fill="#FEFEFE"/>
<path fill-rule="evenodd" clip-rule="evenodd" d="M57.3441 7.49369C59.7273 8.46675 61.7531 10.1642 63.1421 12.3518C63.5143 10.4815 68.6521 7.59086 68.7361 5.62331C67.8358 4.16586 67.4637 4.04441 63.4663 0C62.2658 2.87845 57.044 5.10106 57.3441 7.49369Z" fill="#FEFEFE"/>
<path fill-rule="evenodd" clip-rule="evenodd" d="M46.8174 64.249C48.5131 64.94 49.9528 66.1503 50.9348 67.7104C51.2109 66.3744 54.8602 64.3219 54.9202 62.9252C54.284 61.8807 54.0199 61.7956 51.1749 58.905C50.3106 60.9576 46.6013 62.5486 46.8174 64.249Z" fill="#FEFEFE"/>
<path fill-rule="evenodd" clip-rule="evenodd" d="M65.7242 13.6028C66.9792 14.1154 68.0451 15.0112 68.7732 16.1655C68.9773 15.1817 71.6783 13.6636 71.7263 12.6191C70.9059 11.5551 69.9764 10.5821 68.9533 9.71631C68.3171 11.2345 65.5681 12.4004 65.7242 13.6636" fill="#FEFEFE"/>
<path d="M15.0054 95.8271C15.011 95.8877 15.011 95.9487 15.0054 96.0092C15.0103 96.0618 15.0103 96.1146 15.0054 96.1671C15.0113 96.2277 15.0113 96.2887 15.0054 96.3493V96.5315C15.0035 96.812 14.959 97.0906 14.8734 97.3574C14.7817 97.622 14.6522 97.8715 14.4892 98.0982C14.3235 98.3286 14.1431 98.5477 13.949 98.7541C13.7335 98.9826 13.5007 99.1938 13.2528 99.3857L13.1087 99.5071C13.0592 99.541 13.0147 99.5819 12.9767 99.6286L12.6886 99.8593C12.0043 100.394 10.6839 101.463 9.91559 98.997C9.849 98.7933 9.76879 98.5945 9.6755 98.4019C9.38538 97.9647 9.00945 97.5927 8.57111 97.3088C5.72609 95.3655 3.60133 97.2238 3.60133 100.394C3.60081 101.071 3.69374 101.746 3.87743 102.398C4.0641 103.052 4.33877 103.677 4.69372 104.256C5.09731 104.883 5.53411 105.487 6.00219 106.066C6.51837 106.697 7.11859 107.377 7.80283 108.094C8.57804 108.452 9.38104 108.744 10.2037 108.968C10.8288 109.149 11.4744 109.247 12.1244 109.26C12.5542 109.263 12.9824 109.205 13.3968 109.09C13.7562 108.972 14.0961 108.8 14.4052 108.58V109.066C14.1254 109.273 13.8569 109.496 13.6009 109.734L12.4005 110.814C11.9563 111.227 11.5362 111.592 11.2 111.92C10.8246 112.23 10.4229 112.506 9.99962 112.746C9.67421 112.956 9.31754 113.112 8.94324 113.207C8.55227 113.316 8.14826 113.369 7.74281 113.365H7.39469L6.56639 113.256C6.04444 113.112 5.53779 112.917 5.05385 112.673C4.56552 112.399 4.09984 112.087 3.66135 111.737C3.25631 111.427 2.87875 111.082 2.53295 110.705C2.13964 110.28 1.77849 109.825 1.45256 109.345C1.15459 108.883 0.897505 108.395 0.68429 107.887C0.465345 107.377 0.288675 106.849 0.156101 106.309C0.156101 105.774 0.0720712 105.349 0.0480627 105.094C0.0202941 104.88 0.00426368 104.666 4.55284e-05 104.45C-0.0101122 103.093 0.246975 101.747 0.756316 100.491C1.77668 98.0618 5.87014 93.9567 8.88322 93.2765C9.30021 93.1774 9.72733 93.1285 10.1557 93.1308C10.3675 93.1149 10.5801 93.1149 10.7919 93.1308C11.0673 93.1701 11.3399 93.2268 11.6082 93.3008C12.3452 93.5599 13.0439 93.9195 13.6849 94.3696C14.2046 94.7461 14.6521 95.2153 15.0054 95.7542" fill="#FEFEFE"/>
<path d="M46.1201 98.9483C46.6603 99.9806 47.1644 101.013 47.6206 102.021C48.0768 103.029 48.5089 104.037 48.9171 105.009C49.3252 105.98 49.6853 106.952 50.0095 107.875C50.3336 108.798 50.6337 109.721 50.8978 110.62L50.2615 111.081C50.0335 111.252 49.7814 111.422 49.4933 111.604H49.4212H49.3012C49.2735 111.598 49.2449 111.598 49.2172 111.604C49.0405 111.699 48.8719 111.809 48.713 111.932L47.7526 112.612C47.5606 111.895 47.3325 111.191 47.0804 110.486C46.8283 109.782 46.5162 109.09 46.1921 108.41C45.9015 107.786 45.5517 107.192 45.1477 106.636C44.7159 106.048 44.2296 105.503 43.6952 105.009C42.7526 104.769 41.7704 104.736 40.8142 104.912C40.1801 104.606 39.5107 104.381 38.8215 104.244L38.0052 104.134C37.7291 104.134 37.453 104.134 37.1649 104.134C36.6788 104.129 36.1942 104.19 35.7244 104.317C35.2944 104.423 34.8875 104.608 34.5239 104.863C34.298 105.015 34.1025 105.209 33.9477 105.434C33.8001 105.658 33.7132 105.918 33.6956 106.187V106.308C33.6836 106.348 33.6836 106.39 33.6956 106.43C33.6718 106.505 33.6718 106.586 33.6956 106.661C33.6956 106.733 33.7557 106.818 33.7917 106.916C34.197 107.788 34.8709 108.504 35.7124 108.956C36.712 109.451 37.8171 109.689 38.9295 109.648H39.3136H39.7218H40.1299H40.5141H40.6821C40.7735 109.626 40.8593 109.584 40.9342 109.527L41.2103 109.43C41.2816 109.415 41.3551 109.415 41.4264 109.43H41.6065C41.3544 109.733 41.0783 110.037 40.7902 110.353C40.5021 110.669 40.1659 110.948 39.8178 111.239C39.4697 111.531 39.1696 111.737 38.7975 111.992C38.4253 112.247 38.0172 112.515 37.597 112.794L36.3966 113.377C36.0092 113.563 35.6078 113.717 35.1962 113.838C34.692 113.838 34.2238 113.741 33.8037 113.668C33.3835 113.596 32.9754 113.523 32.6032 113.438C32.2409 113.34 31.8843 113.223 31.5349 113.085C31.1897 112.956 30.8596 112.789 30.5505 112.588C30.257 112.389 29.9906 112.152 29.7582 111.883C29.5345 111.612 29.345 111.315 29.194 110.996C29.0731 110.827 28.9911 110.632 28.9539 110.426C28.9232 110.176 28.9232 109.923 28.9539 109.673C28.9772 109.431 29.0173 109.192 29.074 108.956C29.1275 108.749 29.1957 108.546 29.2781 108.349C30.0638 107.364 30.9489 106.464 31.919 105.665C32.8197 104.935 33.7887 104.297 34.812 103.758C36.7608 102.695 38.9256 102.1 41.1383 102.021C41.155 101.815 41.155 101.608 41.1383 101.402C41.1336 101.259 41.1009 101.119 41.0423 100.989C41.0237 100.834 40.9833 100.682 40.9222 100.539L40.8142 100.102L40.7061 99.9563L40.394 99.4948C40.1772 99.245 39.9446 99.0097 39.6978 98.7904C39.4903 98.6006 39.2696 98.4261 39.0375 98.2681C38.8548 98.1251 38.6471 98.018 38.4253 97.9523C38.2002 97.8796 37.9654 97.8428 37.7291 97.843C37.5578 97.82 37.3842 97.82 37.2129 97.843C37.0192 97.888 36.8331 97.9616 36.6607 98.0616H36.5527H36.3846V97.7823C36.7493 97.6481 37.0961 97.4686 37.417 97.2479C37.8011 96.9929 38.2453 96.6771 38.7254 96.2884C39.2056 95.8998 39.6017 95.5597 39.9259 95.2925L40.8382 94.6245C41.0554 94.4642 41.2994 94.3449 41.5584 94.2723C41.8323 94.1971 42.115 94.1603 42.3987 94.163C42.6143 94.1646 42.8285 94.1973 43.035 94.2601C43.2534 94.3275 43.463 94.4213 43.6592 94.5395L46.1201 98.9483Z" fill="#FEFEFE"/>
<path d="M65.9272 112.77C65.9272 112.357 65.9272 111.895 65.9272 111.373C65.9272 110.851 65.9272 110.292 65.9272 109.673C65.9272 109.345 65.9272 109.029 65.9272 108.725C65.9272 108.422 65.9272 108.106 65.9272 107.802C65.9272 107.498 65.9272 107.231 65.9272 106.94C65.9272 106.648 65.9272 106.381 65.9272 106.114C65.9272 105.58 65.9272 105.082 65.9272 104.596C65.9272 104.11 65.9273 103.661 65.8312 103.235C65.3991 103.563 64.9669 103.94 64.5227 104.353C64.0786 104.766 63.6344 105.239 63.1663 105.75L62.6741 106.296L62.1939 106.855L61.7258 107.377C61.5993 107.501 61.4829 107.635 61.3776 107.778L60.8614 108.324L60.3813 108.871C59.9477 109.378 59.4826 109.857 58.9888 110.304C58.5086 110.741 58.0284 111.142 57.5483 111.519C57.0582 111.88 56.5403 112.201 55.9997 112.478C55.4599 112.756 54.8976 112.988 54.3191 113.17L54.019 113.098C53.9188 113.063 53.8282 113.005 53.7549 112.927C53.6606 112.888 53.5749 112.83 53.5028 112.757C53.4347 112.677 53.3781 112.587 53.3348 112.49C53.2682 112.402 53.2156 112.303 53.1787 112.199C53.1153 112.078 53.063 111.952 53.0226 111.822V111.701C53.0141 111.649 53.0141 111.595 53.0226 111.543C52.9506 110.936 52.8906 110.328 52.8306 109.733C52.7706 109.138 52.6985 108.519 52.6625 107.96C52.4455 104.136 52.4736 100.303 52.7466 96.4826C53.947 95.3895 57.1881 94.7216 58.6767 93.4463V93.6406C58.4606 96.2519 57.2242 105.592 58.6767 106.539C60.1292 107.486 62.278 105.762 63.4784 104.729C67.2597 101.329 68.2801 98.3044 70.9931 94.2236L71.4132 94.928C71.1251 95.6203 71.2331 103.163 71.2331 103.43C71.2331 104.219 71.2331 104.984 71.2331 105.701C71.2548 106.404 71.3149 107.106 71.4132 107.802C71.5186 108.459 71.667 109.108 71.8574 109.745C71.9733 109.893 72.1159 110.016 72.2775 110.11C72.453 110.196 72.6467 110.238 72.8417 110.231H73.2859C73.4312 110.213 73.5729 110.172 73.706 110.11C73.8177 110.063 73.9346 110.03 74.0541 110.013H74.4743V110.316C74.0598 110.454 73.6581 110.629 73.2739 110.838C72.8297 111.081 72.3255 111.409 71.7733 111.786C71.2211 112.162 70.6449 112.551 70.1768 112.83C69.7086 113.11 69.3365 113.34 68.9763 113.51C68.6211 113.691 68.2465 113.83 67.8599 113.923C67.4465 114.018 67.0234 114.063 66.5995 114.057L65.9272 112.77Z" fill="#FEFEFE"/>
<path d="M36.2046 89.7423C35.5626 90.7629 34.7503 91.6629 33.8038 92.4021C32.9711 93.0261 32.0045 93.4423 30.9828 93.6167C30.6955 93.5931 30.4168 93.5061 30.1665 93.3616C29.9094 93.2203 29.6812 93.0306 29.4942 92.8029C29.2774 92.5236 29.077 92.2316 28.894 91.9285C28.702 91.5884 28.4979 91.2119 28.3058 90.7989H28.3778H28.4619L28.5819 90.7018C28.6164 90.6629 28.6569 90.6301 28.702 90.6046H28.774L28.846 90.5317H28.942H29.0141H28.906H28.9901H29.0501H29.1221L29.8424 89.9973C30.0857 89.8085 30.3182 89.6058 30.5386 89.3901L30.8507 89.0986C30.9647 88.9954 31.0729 88.886 31.1748 88.7707C31.2589 88.6856 31.3549 88.5763 31.4749 88.467C31.5807 88.3625 31.6771 88.2487 31.763 88.127L36.2046 89.7423Z" fill="#FEFEFE"/>
<path d="M17.3707 87.9082V117.907L16.5424 118.466C16.1823 118.709 15.7502 118.976 15.246 119.28C14.7418 119.583 14.2376 119.948 13.8535 120.215C13.4694 120.482 13.1572 120.737 12.9172 120.944L12.7011 92.0498C12.6538 91.8797 12.5731 91.7211 12.4638 91.5833C12.3545 91.4456 12.2188 91.3316 12.0649 91.2482C11.6725 91.0567 11.2398 90.965 10.8044 90.981H10.2762L10.9364 90.483C11.2246 90.2644 11.6087 89.9608 12.0649 89.5721C12.521 89.1835 12.9772 88.8434 13.3973 88.5519C13.7853 88.2966 14.186 88.0615 14.5978 87.8475C14.946 87.6457 15.3224 87.4983 15.7142 87.4103C16.107 87.3095 16.5095 87.2525 16.9146 87.2402L17.3707 87.9082Z" fill="#FEFEFE"/>
<path d="M74.5466 95.2805C74.5412 95.3411 74.5412 95.4021 74.5466 95.4627C74.5416 95.5111 74.5416 95.56 74.5466 95.6084C74.5352 95.6727 74.5352 95.7385 74.5466 95.8028V95.9485C74.547 96.2302 74.5957 96.5096 74.6907 96.7744C74.7756 97.0358 74.9013 97.2818 75.0628 97.5031C75.2332 97.737 75.4176 97.9601 75.615 98.1711C75.8335 98.3965 76.066 98.6075 76.3113 98.8027L76.4433 98.9241L76.5874 99.0456L76.8755 99.2763L77.1275 99.4707L77.2356 99.5435L77.3436 99.6528C77.3669 99.6612 77.3923 99.6612 77.4156 99.6528C77.4552 99.6713 77.4916 99.6959 77.5237 99.7257L77.5957 99.7986H77.6557C77.6557 99.7986 77.6557 99.7986 77.7278 99.7986H77.8118C78.0482 99.9145 78.2733 100.053 78.484 100.212C78.7601 100.406 79.0722 100.649 79.4084 100.928C79.7445 101.207 80.1406 101.535 80.4287 101.742C80.6531 101.917 80.8898 102.075 81.137 102.216C81.3603 102.359 81.6029 102.47 81.8572 102.543C82.1189 102.618 82.3897 102.655 82.6615 102.653C82.4935 102.471 82.3134 102.276 82.1093 102.082C81.9052 101.888 81.6291 102.021 81.3651 101.778C81.0844 101.554 80.8159 101.315 80.5608 101.062L79.9365 100.394C79.7847 100.199 79.6633 99.9819 79.5764 99.75C79.494 99.5246 79.4533 99.2859 79.4564 99.0456C79.452 98.8429 79.4846 98.6412 79.5524 98.4504C79.6137 98.2449 79.6941 98.0456 79.7925 97.8553C80.0781 97.4144 80.4549 97.0415 80.8969 96.7622C81.4396 96.4315 82.0149 96.1588 82.6135 95.9485C83.2043 95.9421 83.7869 96.0884 84.3061 96.3736C84.8444 96.6937 85.2911 97.1499 85.6026 97.6974C85.7105 98.0475 85.7948 98.4046 85.8546 98.7662C85.9129 99.1439 85.941 99.5257 85.9387 99.9079C85.9447 100.586 85.8516 101.261 85.6626 101.912C85.4811 102.568 85.2061 103.194 84.8463 103.77C84.4431 104.397 84.0063 105.001 83.5378 105.58C83.0216 106.211 82.4214 106.891 81.7252 107.596C80.9502 107.954 80.1471 108.247 79.3243 108.47C78.6951 108.651 78.0456 108.749 77.3916 108.762C76.9624 108.767 76.5345 108.714 76.1192 108.604C75.7447 108.486 75.3889 108.314 75.0628 108.094V108.58C75.3426 108.787 75.6111 109.01 75.8671 109.248L77.0675 110.329C77.5117 110.742 77.9318 111.106 78.2679 111.434C78.6438 111.744 79.0454 112.02 79.4684 112.26C79.7928 112.472 80.1498 112.628 80.5248 112.721C80.9169 112.824 81.3201 112.877 81.7252 112.879H82.0733L82.9136 112.77C83.4356 112.626 83.9422 112.431 84.4261 112.187C84.9131 111.939 85.3789 111.651 85.8186 111.325C86.2303 111.022 86.6123 110.681 86.959 110.304C87.3548 109.88 87.7123 109.421 88.0274 108.932C88.3459 108.442 88.6154 107.921 88.8317 107.377C89.0401 106.863 89.2165 106.335 89.3599 105.798C89.3599 105.264 89.4319 104.839 89.4679 104.584C89.5039 104.329 89.4679 104.074 89.4679 103.977C89.5297 102.611 89.3132 101.246 88.8317 99.9686C88.293 98.6951 87.5142 97.5401 86.5389 96.5679H86.4549C86.4352 96.5731 86.4145 96.5731 86.3948 96.5679H86.3108L85.7106 95.9485C85.5906 95.8513 85.4225 95.7056 85.1944 95.5356C84.9663 95.3655 84.7142 95.1469 84.4141 94.8797C84.114 94.6125 83.6098 94.2846 83.2137 94.0295C82.8282 93.7845 82.4272 93.5654 82.0133 93.3737C81.6373 93.1646 81.2328 93.0132 80.8129 92.9243C80.3943 92.836 79.968 92.7912 79.5404 92.7907C79.3286 92.7748 79.116 92.7748 78.9042 92.7907C78.6278 92.824 78.3548 92.8809 78.0879 92.9607C77.3488 93.2149 76.6494 93.5748 76.0112 94.0295C75.4915 94.406 75.044 94.8752 74.6907 95.4141" fill="#FEFEFE"/>
<path d="M74.546 112.296C74.5406 112.357 74.5406 112.418 74.546 112.478C74.5409 112.531 74.5409 112.584 74.546 112.636C74.5347 112.696 74.5347 112.758 74.546 112.818C76.9469 112.26 84.5216 111.458 85.71 115.515C86.8985 119.571 83.3092 124.381 79.4798 125.413C78.8506 125.594 78.201 125.692 77.5471 125.705C77.1173 125.707 76.6892 125.649 76.2747 125.535C75.8963 125.427 75.5389 125.254 75.2183 125.024V125.522C75.4985 125.725 75.7671 125.944 76.0226 126.178C76.3587 126.47 76.7548 126.834 77.223 127.271C77.6912 127.709 78.0873 128.049 78.4234 128.377C78.8052 128.678 79.2062 128.954 79.6239 129.202C79.9533 129.405 80.3088 129.56 80.6802 129.664C81.0727 129.764 81.476 129.812 81.8807 129.81H82.2288L83.0691 129.713C83.591 129.569 84.0977 129.374 84.5816 129.13C85.0661 128.877 85.5315 128.589 85.9741 128.267C86.3831 127.957 86.7647 127.612 87.1145 127.235C87.5074 126.812 87.8648 126.357 88.1829 125.875C88.4847 125.413 88.7458 124.925 88.9632 124.417C89.1733 123.903 89.3497 123.376 89.4914 122.838C89.4914 122.304 89.5634 121.891 89.5994 121.624C89.6354 121.356 89.5994 121.101 89.5994 121.004C89.6199 119.625 89.3583 118.256 88.8312 116.984C87.7148 114.264 84.4496 111.446 81.8687 110.207C81.4922 110.002 81.0876 109.854 80.6682 109.77C80.2511 109.671 79.8241 109.622 79.3958 109.624C79.2157 109.624 78.9996 109.624 78.7595 109.624C78.4842 109.663 78.2115 109.72 77.9433 109.794C77.2035 110.052 76.5041 110.416 75.8665 110.875C75.3447 111.244 74.8966 111.71 74.546 112.247" fill="#FEFEFE"/>
<path d="M14.7174 110.693C14.7117 110.632 14.7117 110.571 14.7174 110.511C14.7125 110.458 14.7125 110.405 14.7174 110.353C14.7115 110.292 14.7115 110.231 14.7174 110.171V109.989C14.7192 109.708 14.7638 109.429 14.8494 109.163C14.9411 108.898 15.0705 108.648 15.2336 108.422C15.3992 108.191 15.5797 107.972 15.7738 107.766C15.9893 107.537 16.222 107.326 16.47 107.134L16.6141 107.013C16.6636 106.979 16.7081 106.938 16.7461 106.891L17.0342 106.661L17.2863 106.466L17.3943 106.393L17.5024 106.284H17.5744C17.6154 106.269 17.6524 106.244 17.6824 106.211L17.7545 106.138H17.8145H17.8865C18.1255 106.02 18.3544 105.882 18.5708 105.725C18.8469 105.531 19.147 105.288 19.4951 104.997C19.8432 104.705 20.2153 104.402 20.5034 104.195C20.7915 103.989 21.0436 103.819 21.2237 103.709C21.669 103.321 22.2229 103.083 22.8083 103.029C22.6522 103.211 22.4601 103.406 22.2561 103.6C22.0363 103.813 21.8038 104.011 21.5598 104.195C21.2829 104.419 21.0184 104.658 20.7675 104.912C20.5275 105.155 20.3234 105.373 20.1433 105.58C19.9805 105.767 19.8578 105.986 19.7832 106.223C19.6958 106.448 19.651 106.687 19.6511 106.928C19.6527 107.13 19.6851 107.331 19.7472 107.523C19.8138 107.727 19.894 107.925 19.9873 108.118C20.2774 108.555 20.6533 108.927 21.0917 109.211C21.6332 109.561 22.2084 109.854 22.8083 110.086C23.4008 110.094 23.9848 109.943 24.5009 109.648C25.042 109.333 25.4929 108.881 25.8093 108.337C25.909 107.981 25.9892 107.62 26.0494 107.256C26.1122 106.883 26.1444 106.505 26.1455 106.126C26.146 105.449 26.0531 104.774 25.8694 104.122C25.6827 103.468 25.408 102.843 25.0531 102.264C24.6456 101.637 24.2048 101.033 23.7326 100.454C23.2164 99.8228 22.6162 99.1427 21.932 98.4261C21.1567 98.0684 20.3537 97.776 19.5311 97.5516C18.906 97.3709 18.2604 97.273 17.6104 97.2601C17.1805 97.2573 16.7523 97.3145 16.338 97.4302C15.9577 97.5427 15.5972 97.7148 15.2696 97.9403V97.4545C15.5518 97.2498 15.8204 97.0266 16.0739 96.7865L17.2743 95.7055C17.7184 95.2926 18.1386 94.9282 18.5347 94.6003C18.9102 94.2899 19.3119 94.0136 19.7352 93.7744C20.0606 93.5643 20.4172 93.4085 20.7915 93.3129C21.1825 93.2042 21.5865 93.151 21.992 93.155H22.3401L23.1684 93.2643C23.6903 93.4077 24.197 93.603 24.6809 93.8473C25.1706 94.0927 25.6402 94.377 26.0854 94.6975C26.4905 95.0078 26.868 95.3532 27.2138 95.7298C27.6072 96.1552 27.9683 96.6099 28.2942 97.0901C28.5922 97.5521 28.8493 98.0398 29.0625 98.5475C29.2814 99.0582 29.4581 99.5863 29.5907 100.126C29.5907 100.661 29.6747 101.086 29.6987 101.341C29.7092 101.543 29.7092 101.746 29.6987 101.948C29.7089 103.306 29.4518 104.652 28.9425 105.908C28.4035 107.184 27.6202 108.34 26.6376 109.308H26.5656H26.5056H26.4336L26.3615 109.381L25.8454 109.794C25.6213 109.964 25.3572 110.183 25.0531 110.45C24.6569 110.754 24.2488 111.045 23.8526 111.3C23.467 111.545 23.066 111.764 22.6522 111.956C22.2783 112.167 21.8728 112.315 21.4518 112.393C21.0348 112.492 20.6077 112.541 20.1793 112.539C19.9675 112.555 19.7549 112.555 19.5431 112.539C19.2668 112.506 18.9937 112.449 18.7268 112.369C17.9909 112.107 17.2926 111.748 16.6501 111.3C16.1304 110.924 15.6829 110.455 15.3296 109.916" fill="#FEFEFE"/>
<path d="M107.223 98.2803C107.763 99.3248 108.255 100.345 108.711 101.365C109.167 102.385 109.612 103.369 110.008 104.353C110.404 105.337 110.776 106.284 111.1 107.219C111.424 108.155 111.724 109.065 112 109.964L111.352 110.426L110.596 110.948C110.596 110.948 110.596 110.948 110.524 110.948H110.44H110.332H110.248C110.073 111.042 109.905 111.148 109.744 111.264L108.783 111.956C108.591 111.239 108.375 110.523 108.111 109.818C107.85 109.115 107.553 108.426 107.223 107.754C106.939 107.126 106.589 106.531 106.178 105.981C105.753 105.387 105.266 104.841 104.726 104.353C104.226 103.864 103.655 103.454 103.033 103.138C102.397 102.84 101.728 102.62 101.041 102.483C100.788 102.483 100.512 102.398 100.236 102.373C99.9564 102.355 99.6757 102.355 99.3959 102.373C98.9059 102.369 98.4175 102.43 97.9434 102.556C97.5117 102.663 97.1042 102.852 96.743 103.114C96.5176 103.262 96.322 103.451 96.1668 103.673C96.0225 103.9 95.9321 104.158 95.9027 104.426V105.665C95.8967 105.709 95.8967 105.754 95.9027 105.798C95.8901 105.871 95.8901 105.945 95.9027 106.017C95.9457 106.102 95.9779 106.191 95.9987 106.284C96.4076 107.154 97.0805 107.869 97.9194 108.325C98.9195 108.818 100.024 109.056 101.137 109.017H101.521H101.929H102.337H102.721H102.901C102.987 108.989 103.068 108.948 103.141 108.895L103.417 108.786C103.493 108.777 103.57 108.777 103.645 108.786H103.729H103.862C103.602 109.108 103.325 109.417 103.033 109.709C102.732 110.029 102.407 110.325 102.061 110.596C101.749 110.839 101.413 111.094 101.041 111.349L99.8401 112.163L98.6396 112.745C98.2499 112.926 97.8489 113.08 97.4392 113.207C96.935 113.207 96.4789 113.11 96.0467 113.037C95.6146 112.964 95.2184 112.891 94.8463 112.806C94.4835 112.711 94.1267 112.593 93.7779 112.454C93.4297 112.318 93.0959 112.147 92.7816 111.944C92.488 111.745 92.2216 111.508 91.9893 111.239C91.7667 110.97 91.581 110.672 91.4371 110.353C91.308 110.186 91.2214 109.99 91.185 109.782C91.1541 109.532 91.1541 109.279 91.185 109.029C91.185 108.774 91.257 108.531 91.305 108.312C91.3585 108.109 91.4267 107.91 91.5091 107.717C92.2585 106.799 93.0948 105.957 94.006 105.203C94.8865 104.47 95.84 103.831 96.851 103.296C97.8454 102.78 98.8918 102.372 99.9721 102.082C101.032 101.777 102.124 101.605 103.225 101.572C103.243 101.362 103.243 101.15 103.225 100.94C103.223 100.797 103.191 100.656 103.129 100.527C103.117 100.375 103.076 100.227 103.009 100.09C102.961 99.955 102.901 99.8249 102.829 99.7014L102.721 99.5435L102.409 99.0819V99.0212V98.9483C102.192 98.6986 101.96 98.4633 101.713 98.2439C101.504 98.0562 101.283 97.8817 101.053 97.7217C100.865 97.577 100.653 97.4661 100.428 97.3937C100.203 97.32 99.9684 97.2831 99.732 97.2844C99.5644 97.2665 99.3955 97.2665 99.2279 97.2844C99.0369 97.3381 98.8519 97.4113 98.6757 97.503C98.6398 97.5307 98.599 97.5513 98.5556 97.5638C98.5003 97.5763 98.4429 97.5763 98.3876 97.5638V97.2844C98.7472 97.1473 99.0896 96.968 99.4079 96.75C99.8606 96.4496 100.297 96.1253 100.716 95.7784C101.185 95.3898 101.605 95.0618 101.917 94.7825C102.229 94.5031 102.577 94.2845 102.817 94.1266C103.031 93.9615 103.276 93.8417 103.537 93.7744C103.811 93.6999 104.094 93.6632 104.378 93.6651C104.597 93.6659 104.816 93.6986 105.026 93.7623C105.243 93.8275 105.453 93.9171 105.65 94.0295L107.223 98.2803Z" fill="#FEFEFE"/>
<path d="M94.8339 94.3453C94.3848 95.0555 93.816 95.6803 93.1533 96.1914C92.5765 96.6271 91.906 96.9184 91.1966 97.0416C90.9984 97.0197 90.8065 96.9578 90.6324 96.8594C90.4509 96.7649 90.2913 96.6324 90.1642 96.4708C90.0102 96.2786 89.8698 96.0757 89.7441 95.8635C89.612 95.6328 89.468 95.3656 89.3359 95.0862L89.42 95.0133L89.504 94.9405H89.576H89.6721L90.1642 94.564C90.3326 94.4365 90.493 94.2986 90.6444 94.151L90.8725 93.9445C90.9504 93.8735 91.0227 93.7963 91.0886 93.7138L91.2926 93.5073C91.3675 93.4325 91.4358 93.3512 91.4967 93.2644L94.8339 94.3453Z" fill="#FEFEFE"/>
<path fill-rule="evenodd" clip-rule="evenodd" d="M32.1478 126.64C33.2441 127.111 34.1733 127.907 34.8127 128.923C34.9928 128.049 37.4056 126.701 37.4417 125.778C37.0215 125.085 36.8414 125.037 34.9688 123.13C34.4046 124.478 31.9677 125.559 32.1118 126.64" fill="#FEFEFE"/>
<path d="M43.5997 129.397L41.8471 130.611C41.8471 130.356 41.8471 130.089 41.7751 129.785C41.7031 129.482 41.7751 129.178 41.7751 128.85C41.7751 128.522 41.7751 128.182 41.7751 127.818C41.7751 127.453 41.7751 127.101 41.7751 126.725C41.7751 126.348 41.7751 125.984 41.7751 125.644C41.7751 125.304 41.7751 124.976 41.6671 124.672C41.6215 124.385 41.5573 124.101 41.475 123.822C41.4024 123.539 41.306 123.263 41.1869 122.996C41.1114 122.931 41.0264 122.877 40.9348 122.838C40.8476 122.821 40.7579 122.821 40.6707 122.838H40.5146H40.3706V122.923L40.2866 122.68L41.2709 121.94L41.8951 121.478C42.0872 121.332 42.2913 121.211 42.4833 121.089C42.6754 120.968 42.9035 120.859 43.1196 120.749L43.4917 121.126L43.5997 129.397Z" fill="#FEFEFE"/>
<path d="M53.239 123.251C53.2739 123.416 53.298 123.582 53.3111 123.749C53.3227 123.903 53.3227 124.057 53.3111 124.211C53.3168 124.572 53.2723 124.931 53.179 125.28C53.111 125.64 52.9896 125.988 52.8189 126.312C52.6425 126.619 52.4418 126.912 52.2187 127.186C52.0167 127.449 51.7917 127.693 51.5464 127.915L50.6581 128.693C50.322 128.96 49.9619 129.251 49.5657 129.543L48.4973 130.393L47.7771 131.049L47.537 130.794L48.2933 130.199C48.5334 130.004 48.7614 129.798 48.9895 129.579C49.1852 129.396 49.3696 129.202 49.5417 128.996L50.202 128.219C50.3789 127.975 50.5394 127.719 50.6821 127.454C50.8241 127.197 50.9446 126.929 51.0423 126.652C51.1525 126.37 51.2329 126.077 51.2823 125.778C51.3388 125.506 51.367 125.229 51.3664 124.952C51.3664 124.83 51.3664 124.697 51.3664 124.539C51.3525 124.367 51.3284 124.197 51.2943 124.029C51.234 123.777 51.1369 123.535 51.0062 123.312C50.8802 123.087 50.7314 122.875 50.5621 122.681C50.2404 122.274 49.8293 121.95 49.3617 121.733H49.2176H49.0856C48.9128 121.731 48.7441 121.787 48.6054 121.891C48.4305 122.008 48.2863 122.167 48.1852 122.353C48.1852 122.498 48.1852 122.608 48.1852 122.693V122.838C48.1795 123.365 48.2989 123.886 48.5334 124.357C48.7911 124.836 49.1521 125.252 49.5897 125.571L50.238 125.85L50.0459 126.033L49.7818 126.312L49.4217 126.652L49.0736 126.907C48.9675 126.972 48.8548 127.025 48.7374 127.065C48.6137 127.078 48.489 127.078 48.3653 127.065H48.0172L47.8131 126.859L47.7171 126.931L47.453 126.689C47.363 126.61 47.2788 126.524 47.2009 126.433L46.9848 126.191L46.7927 125.948C46.686 125.788 46.5974 125.617 46.5286 125.438C46.4527 125.244 46.3925 125.045 46.3486 124.842C46.3486 124.709 46.3486 124.6 46.3486 124.502C46.344 124.43 46.344 124.357 46.3486 124.284C46.3473 124.103 46.3715 123.923 46.4206 123.749C46.4626 123.587 46.5272 123.432 46.6127 123.288C46.6823 123.14 46.7756 123.004 46.8888 122.887C46.9994 122.753 47.1198 122.627 47.2489 122.511L47.6931 122.17L48.2573 121.758L48.7494 121.417L49.1576 121.114C49.454 120.963 49.7586 120.829 50.0699 120.713C50.3024 120.634 50.545 120.589 50.7902 120.579C50.9491 120.578 51.1072 120.603 51.2583 120.652C51.3902 120.711 51.5151 120.784 51.6305 120.871C52.0045 121.169 52.3287 121.526 52.5908 121.928C52.8677 122.368 53.0894 122.841 53.251 123.336" fill="#FEFEFE"/>
<path d="M62.6737 123.251C62.6737 123.421 62.6737 123.591 62.7578 123.749C62.8418 123.907 62.7578 124.065 62.7578 124.211C62.7575 124.571 62.7131 124.93 62.6257 125.279C62.5324 125.624 62.3952 125.955 62.2176 126.263C62.0411 126.568 61.8446 126.86 61.6294 127.138C61.4199 127.398 61.1912 127.641 60.9451 127.866C60.681 128.109 60.3929 128.364 60.0568 128.644C59.7207 128.923 59.3726 129.202 58.9644 129.494C58.5563 129.785 58.2082 130.101 57.9081 130.344C57.608 130.587 57.3679 130.818 57.1878 131L56.9477 130.745L57.692 130.15C57.9376 129.959 58.1702 129.752 58.3882 129.53C58.588 129.348 58.7765 129.153 58.9524 128.947C59.1445 128.717 59.3726 128.462 59.6007 128.17C59.7814 127.926 59.9458 127.671 60.0928 127.405C60.2249 127.138 60.3449 126.883 60.453 126.603C60.5576 126.319 60.638 126.027 60.693 125.729C60.7398 125.456 60.7639 125.18 60.7651 124.903C60.7651 124.782 60.7651 124.648 60.7651 124.49C60.7512 124.319 60.7271 124.148 60.693 123.98C60.6224 123.731 60.5258 123.491 60.4049 123.263C60.2923 123.055 60.1639 122.856 60.0208 122.668C59.854 122.465 59.6647 122.281 59.4566 122.122C59.2526 121.963 59.031 121.828 58.7964 121.721H58.6523H58.5203C58.3477 121.721 58.1796 121.776 58.0401 121.879C57.8681 121.999 57.7246 122.157 57.62 122.34C57.62 122.486 57.62 122.595 57.62 122.68C57.6157 122.729 57.6157 122.778 57.62 122.826C57.6125 123.355 57.7363 123.877 57.9801 124.344C58.2343 124.823 58.5912 125.238 59.0245 125.559L59.6727 125.838L59.4806 126.02L59.2165 126.3C59.1057 126.423 58.9852 126.536 58.8564 126.64C58.7484 126.735 58.6318 126.821 58.5083 126.895C58.4076 126.962 58.2986 127.015 58.1842 127.053C58.0564 127.065 57.9278 127.065 57.8 127.053H57.5599L57.3559 126.846L57.2718 126.919L56.9957 126.676L56.7556 126.421C56.6742 126.349 56.6017 126.268 56.5396 126.178C56.4691 126.103 56.4048 126.021 56.3475 125.935C56.2368 125.776 56.1442 125.605 56.0714 125.425C55.9941 125.234 55.9378 125.034 55.9033 124.83C55.9033 124.696 55.9033 124.587 55.9033 124.49C55.898 124.417 55.898 124.344 55.9033 124.271C55.9037 124.092 55.9239 123.912 55.9634 123.737C56.0093 123.574 56.078 123.419 56.1674 123.275C56.2327 123.128 56.322 122.992 56.4315 122.875C56.5433 122.737 56.6679 122.611 56.8037 122.498L57.2358 122.158C57.4039 122.025 57.5959 121.891 57.812 121.745L58.2922 121.405L58.7123 121.101C59.0077 120.948 59.3124 120.815 59.6247 120.701C59.8566 120.619 60.0995 120.574 60.3449 120.567C60.5 120.565 60.6543 120.589 60.8011 120.64C60.9343 120.695 61.0595 120.769 61.1732 120.859C61.5502 121.153 61.875 121.51 62.1336 121.915C62.4151 122.353 62.6372 122.827 62.7938 123.324" fill="#FEFEFE"/>
<path d="M69.889 127.526C69.7322 127.177 69.4776 126.881 69.1568 126.676C68.9822 126.565 68.8019 126.464 68.6166 126.373C68.4135 126.279 68.2051 126.198 67.9924 126.13C67.6582 126.382 67.4182 126.742 67.3114 127.15C67.2046 127.557 67.2373 127.99 67.4042 128.377C67.4901 128.607 67.6207 128.818 67.7883 128.996C67.9455 129.115 68.1195 129.209 68.3045 129.275C68.4738 129.338 68.6524 129.371 68.8327 129.373C68.9162 129.385 69.0012 129.385 69.0848 129.373C69.1686 129.351 69.2493 129.318 69.3248 129.275C69.5205 129.175 69.6739 129.007 69.757 128.802C69.8616 128.535 69.9107 128.25 69.901 127.964V127.684C69.901 127.611 69.901 127.575 69.901 127.563L69.889 127.526ZM70.4292 123.81C70.2452 123.972 70.0727 124.146 69.913 124.332C69.793 124.466 69.673 124.624 69.733 124.672C70.0691 124.915 71.9058 125.012 71.9058 126.931C71.9131 127.036 71.9131 127.142 71.9058 127.247C71.8962 127.332 71.8718 127.414 71.8337 127.49C71.7004 127.703 71.5519 127.906 71.3896 128.097C71.2232 128.297 71.0469 128.487 70.8614 128.668C70.6808 128.855 70.4883 129.029 70.2852 129.19C70.0931 129.348 69.877 129.506 69.661 129.652L69.0127 130.041C68.7865 130.162 68.5541 130.272 68.3165 130.368C68.085 130.466 67.8486 130.551 67.6082 130.624C67.3719 130.699 67.1314 130.759 66.888 130.806C66.5877 130.766 66.2981 130.667 66.0357 130.514C65.8026 130.376 65.6083 130.179 65.4715 129.943C65.4023 129.826 65.3497 129.699 65.3154 129.567C65.2769 129.428 65.2568 129.286 65.2554 129.142C65.2593 128.877 65.3039 128.615 65.3874 128.365C65.7875 127.29 66.5895 126.417 67.6202 125.935C67.3825 125.746 67.1248 125.583 66.852 125.45L66.3238 125.134L65.9757 124.891C65.8786 124.793 65.7939 124.682 65.7236 124.563C65.6512 124.429 65.5948 124.286 65.5555 124.138C65.5504 123.851 65.6035 123.566 65.7116 123.3C65.8117 123.04 65.9582 122.801 66.1437 122.595C66.3505 122.367 66.5753 122.156 66.816 121.964C67.068 121.77 67.3441 121.563 67.6562 121.357C67.568 121.553 67.4957 121.756 67.4402 121.964C67.3918 122.196 67.3677 122.432 67.3681 122.668V122.899C67.3648 122.931 67.3648 122.964 67.3681 122.996C67.4654 123.161 67.5779 123.315 67.7043 123.458C67.8456 123.623 68.0023 123.773 68.1724 123.907C68.3422 124.036 68.523 124.15 68.7126 124.247C68.888 124.341 69.0732 124.414 69.2648 124.466C69.4739 124.353 69.6451 124.179 69.757 123.968C70.1411 123.215 69.697 121.794 68.8207 121.879L69.3729 121.405C71.3295 119.766 73.0221 121.563 70.4172 123.798L70.4292 123.81Z" fill="#FEFEFE"/>
</g>
<defs>
<clipPath id="clip0">
<rect width="112" height="131" fill="white"/>
</clipPath>
</defs>
</svg>
