<svg width="421" height="508" viewBox="0 0 421 508" fill="none" xmlns="http://www.w3.org/2000/svg">
<g clip-path="url(#clip0)">
<rect width="421" height="508" fill="#DB5B35"/>
<path fill-rule="evenodd" clip-rule="evenodd" d="M47.9685 436.053L13.6969 436.116L-10.4923 460.394L-10.4295 494.666L13.8487 518.855L48.1204 518.792L72.3096 494.514L72.2467 460.243L47.9685 436.053ZM75.3865 458.935L49.2643 432.909L12.3896 432.976L-13.637 459.099L-13.5693 495.973L12.553 522L49.4277 521.932L75.4542 495.81L75.3865 458.935Z" fill="#F8F2E7"/>
<path d="M21.726 496.896L2.86909 496.87L-10.4834 510.185L-10.5097 520.133L-13.6375 521.423L-13.6075 508.886L1.57865 493.742L23.0251 493.772L38.1689 508.958L38.1389 521.496L35.0148 520.196L35.0411 510.249L21.726 496.896Z" fill="#F8F2E7"/>
<path d="M58.9348 496.87L40.0814 496.905L26.7745 510.26L26.8091 520.205L23.6861 521.505L23.6467 508.972L38.7811 493.782L60.2237 493.742L75.4137 508.877L75.4531 521.41L72.3253 520.121L72.2907 510.177L58.9348 496.87Z" fill="#F8F2E7"/>
<path d="M-10.5112 433.608L-10.4766 443.95L2.87924 457.257L21.7327 457.222L35.0396 443.866L35.005 433.078L38.128 433.078L38.1674 445.155L23.033 460.345L1.59041 460.385L-13.5996 445.25L-13.5994 433.608H-10.5112Z" fill="#F8F2E7"/>
<path d="M23.6467 432.991L26.811 432.991V443.946L40.1669 457.253L59.0204 457.218L72.3273 443.862V433.555H75.455V445.151L60.3207 460.341L38.8781 460.381L23.6881 445.246L23.6467 432.991Z" fill="#F8F2E7"/>
<path d="M-13.626 518.872L-2.5971 518.837L10.7099 505.481L10.6752 486.628L-2.68064 473.321L-13.6263 473.356V470.233L-1.39181 470.193L13.7982 485.328L13.8376 506.77L-1.2968 521.96L-13.6274 522L-13.626 518.872Z" fill="#F8F2E7"/>
<path d="M-13.6375 481.979L-2.5988 481.944L10.7081 468.588L10.6735 449.735L-2.68234 436.428L-13.6373 436.463V433.34L-1.39351 433.3L13.7965 448.435L13.8359 469.877L-1.2985 485.067L-13.6373 485.107L-13.6375 481.979Z" fill="#F8F2E7"/>
<path d="M51.501 486.711L51.5356 505.565L64.8915 518.872L75.4539 518.837V521.96L63.6027 521.999L48.4126 506.865L48.3733 485.423L63.5077 470.233L75.4539 470.228V473.356L64.808 473.356L51.501 486.711Z" fill="#F8F2E7"/>
<path d="M51.5022 449.823L51.5368 468.681L64.8978 481.992L75.4539 481.961V485.085L63.6085 485.12L48.4127 469.982L48.3733 448.534L63.5134 433.34L75.4481 433.314L75.4539 436.44L64.8142 436.464L51.5022 449.823Z" fill="#F8F2E7"/>
<path fill-rule="evenodd" clip-rule="evenodd" d="M47.4841 349.192L13.2125 349.255L-10.9767 373.533L-10.9138 407.805L13.3644 431.994L47.636 431.931L71.8252 407.653L71.7623 373.381L47.4841 349.192ZM74.9022 372.074L48.7799 346.047L11.9052 346.115L-14.1213 372.237L-14.0537 409.112L12.0686 435.139L48.9433 435.071L74.9698 408.949L74.9022 372.074Z" fill="#F8F2E7"/>
<path d="M21.2421 410.036L2.3852 410.01L-10.9673 423.325L-10.9936 433.273L-14.1213 434.563L-14.0914 422.026L1.09476 406.882L22.5412 406.912L37.685 422.098L37.655 434.635L34.5309 433.336L34.5573 423.389L21.2421 410.036Z" fill="#F8F2E7"/>
<path d="M58.451 410.01L39.5975 410.044L26.2906 423.4L26.3252 433.345L23.2022 434.645L23.1628 422.111L38.2972 406.921L59.7398 406.882L74.9298 422.016L74.9692 434.55L71.8414 433.261L71.8068 423.317L58.451 410.01Z" fill="#F8F2E7"/>
<path d="M-10.9951 346.744L-10.9605 357.086L2.39536 370.393L21.2488 370.358L34.5557 357.002L34.5211 346.214L37.6441 346.214L37.6835 358.291L22.5491 373.481L1.10653 373.52L-14.0835 358.386L-14.0833 346.744H-10.9951Z" fill="#F8F2E7"/>
<path d="M23.1628 346.132L26.3272 346.132V357.087L39.683 370.394L58.5365 370.359L71.8434 357.004V346.696H74.9711V358.292L59.8368 373.482L38.3942 373.522L23.2042 358.387L23.1628 346.132Z" fill="#F8F2E7"/>
<path d="M-14.1097 432.012L-3.08074 431.977L10.2262 418.621L10.1916 399.768L-3.16428 386.461L-14.1099 386.496V383.373L-1.87545 383.333L13.3146 398.468L13.3539 419.91L-1.78044 435.1L-14.1111 435.14L-14.1097 432.012Z" fill="#F8F2E7"/>
<path d="M-14.1213 395.12L-3.08269 395.085L10.2242 381.729L10.1896 362.876L-3.16623 349.569L-14.1212 349.604V346.481L-1.8774 346.441L13.3126 361.576L13.352 383.018L-1.78239 398.208L-14.1212 398.247L-14.1213 395.12Z" fill="#F8F2E7"/>
<path d="M51.0176 399.852L51.0522 418.705L64.4081 432.012L74.9705 431.977V435.1L63.1193 435.14L47.9292 420.005L47.8899 398.563L63.0243 383.373L74.9705 383.368V386.496L64.3246 386.496L51.0176 399.852Z" fill="#F8F2E7"/>
<path d="M51.0188 362.963L51.0534 381.821L64.4144 395.132L74.9705 395.101V398.225L63.1251 398.26L47.9293 383.122L47.8899 361.674L63.03 346.48L74.9647 346.454L74.9705 349.58L64.3308 349.604L51.0188 362.963Z" fill="#F8F2E7"/>
<path fill-rule="evenodd" clip-rule="evenodd" d="M134.128 436.053L99.8565 436.116L75.6673 460.394L75.7302 494.666L100.008 518.855L134.28 518.792L158.469 494.514L158.406 460.243L134.128 436.053ZM161.546 458.935L135.424 432.909L98.5492 432.976L72.5227 459.099L72.5904 495.973L98.7126 522L135.587 521.932L161.614 495.81L161.546 458.935Z" fill="#F8F2E7"/>
<path d="M107.886 496.896L89.0292 496.87L75.6768 510.185L75.6504 520.133L72.5227 521.423L72.5527 508.886L87.7388 493.742L109.185 493.772L124.329 508.958L124.299 521.496L121.175 520.196L121.201 510.249L107.886 496.896Z" fill="#F8F2E7"/>
<path d="M145.095 496.87L126.242 496.905L112.935 510.26L112.969 520.205L109.846 521.505L109.807 508.972L124.941 493.782L146.384 493.742L161.574 508.877L161.613 521.41L158.486 520.121L158.451 510.177L145.095 496.87Z" fill="#F8F2E7"/>
<path d="M75.6492 433.608L75.6838 443.95L89.0396 457.257L107.893 457.222L121.2 443.866L121.165 433.078L124.288 433.078L124.328 445.155L109.193 460.345L87.7508 460.385L72.5608 445.25L72.561 433.608H75.6492Z" fill="#F8F2E7"/>
<path d="M109.807 432.991L112.971 432.991V443.946L126.327 457.253L145.181 457.218L158.488 443.862V433.555H161.615V445.151L146.481 460.341L125.038 460.381L109.848 445.246L109.807 432.991Z" fill="#F8F2E7"/>
<path d="M72.5344 518.872L83.5633 518.837L96.8703 505.481L96.8356 486.628L83.4798 473.321L72.5341 473.356V470.233L84.7686 470.193L99.9586 485.328L99.998 506.77L84.8636 521.96L72.533 522L72.5344 518.872Z" fill="#F8F2E7"/>
<path d="M72.5227 481.979L83.5614 481.944L96.8683 468.588L96.8337 449.735L83.4778 436.428L72.5229 436.463V433.34L84.7666 433.3L99.9567 448.435L99.996 469.877L84.8617 485.067L72.5229 485.107L72.5227 481.979Z" fill="#F8F2E7"/>
<path d="M137.661 486.711L137.696 505.565L151.052 518.872L161.614 518.837V521.96L149.763 521.999L134.573 506.865L134.533 485.423L149.668 470.233L161.614 470.228V473.356L150.968 473.356L137.661 486.711Z" fill="#F8F2E7"/>
<path d="M137.662 449.823L137.697 468.681L151.058 481.992L161.614 481.961V485.085L149.769 485.12L134.573 469.982L134.533 448.534L149.674 433.34L161.608 433.314L161.614 436.44L150.974 436.464L137.662 449.823Z" fill="#F8F2E7"/>
<path fill-rule="evenodd" clip-rule="evenodd" d="M220.991 436.053L186.72 436.116L162.53 460.394L162.593 494.666L186.871 518.855L221.143 518.792L245.332 494.514L245.269 460.243L220.991 436.053ZM248.409 458.935L222.287 432.909L185.412 432.976L159.386 459.099L159.453 495.973L185.576 522L222.45 521.932L248.477 495.81L248.409 458.935Z" fill="#F8F2E7"/>
<path d="M194.749 496.896L175.892 496.87L162.539 510.185L162.513 520.133L159.385 521.423L159.415 508.886L174.601 493.742L196.048 493.772L211.192 508.958L211.162 521.496L208.038 520.196L208.064 510.249L194.749 496.896Z" fill="#F8F2E7"/>
<path d="M231.958 496.87L213.104 496.905L199.797 510.26L199.832 520.205L196.709 521.505L196.67 508.972L211.804 493.782L233.247 493.742L248.437 508.877L248.476 521.41L245.348 520.121L245.314 510.177L231.958 496.87Z" fill="#F8F2E7"/>
<path d="M162.512 433.608L162.546 443.95L175.902 457.257L194.756 457.222L208.063 443.866L208.028 433.078L211.151 433.078L211.19 445.155L196.056 460.345L174.613 460.385L159.423 445.25L159.424 433.608H162.512Z" fill="#F8F2E7"/>
<path d="M196.67 432.991L199.834 432.991V443.946L213.19 457.253L232.043 457.218L245.35 443.862V433.555H248.478V445.151L233.344 460.341L211.901 460.381L196.711 445.246L196.67 432.991Z" fill="#F8F2E7"/>
<path d="M159.397 518.872L170.426 518.837L183.733 505.481L183.698 486.628L170.342 473.321L159.396 473.356V470.233L171.631 470.193L186.821 485.328L186.86 506.77L171.726 521.96L159.395 522L159.397 518.872Z" fill="#F8F2E7"/>
<path d="M159.385 481.979L170.424 481.944L183.731 468.588L183.696 449.735L170.34 436.428L159.385 436.463V433.34L171.629 433.3L186.819 448.435L186.859 469.877L171.724 485.067L159.385 485.107L159.385 481.979Z" fill="#F8F2E7"/>
<path d="M224.524 486.711L224.559 505.565L237.914 518.872L248.477 518.837V521.96L236.626 521.999L221.436 506.865L221.396 485.423L236.531 470.233L248.477 470.228V473.356L237.831 473.356L224.524 486.711Z" fill="#F8F2E7"/>
<path d="M224.525 449.823L224.56 468.681L237.921 481.992L248.477 481.961V485.085L236.631 485.12L221.436 469.982L221.396 448.534L236.536 433.34L248.471 433.314L248.477 436.44L237.837 436.464L224.525 449.823Z" fill="#F8F2E7"/>
<path fill-rule="evenodd" clip-rule="evenodd" d="M134.128 349.19L99.8565 349.253L75.6673 373.531L75.7302 407.803L100.008 431.992L134.28 431.929L158.469 407.651L158.406 373.379L134.128 349.19ZM161.546 372.072L135.424 346.046L98.5492 346.113L72.5227 372.236L72.5904 409.11L98.7126 435.137L135.587 435.069L161.614 408.947L161.546 372.072Z" fill="#F8F2E7"/>
<path d="M107.886 410.032L89.0292 410.005L75.6768 423.321L75.6504 433.268L72.5227 434.559L72.5527 422.021L87.7388 406.878L109.185 406.908L124.329 422.094L124.299 434.631L121.175 433.332L121.201 423.384L107.886 410.032Z" fill="#F8F2E7"/>
<path d="M145.095 410.005L126.242 410.04L112.935 423.396L112.969 433.34L109.846 434.64L109.807 422.107L124.941 406.917L146.384 406.878L161.574 422.012L161.613 434.545L158.486 433.257L158.451 423.312L145.095 410.005Z" fill="#F8F2E7"/>
<path d="M75.6492 346.744L75.6838 357.086L89.0396 370.393L107.893 370.358L121.2 357.002L121.165 346.214L124.288 346.214L124.328 358.291L109.193 373.481L87.7508 373.52L72.5608 358.386L72.561 346.744H75.6492Z" fill="#F8F2E7"/>
<path d="M109.807 346.127L112.971 346.128V357.082L126.327 370.389L145.181 370.355L158.488 356.999V346.692H161.615V358.288L146.481 373.478L125.038 373.517L109.848 358.383L109.807 346.127Z" fill="#F8F2E7"/>
<path d="M72.5344 432.007L83.5633 431.973L96.8703 418.617L96.8356 399.764L83.4798 386.457L72.5341 386.491V383.368L84.7686 383.329L99.9586 398.463L99.998 419.906L84.8636 435.096L72.533 435.135L72.5344 432.007Z" fill="#F8F2E7"/>
<path d="M72.5227 395.115L83.5614 395.081L96.8683 381.725L96.8337 362.871L83.4778 349.565L72.5229 349.599V346.476L84.7666 346.437L99.9567 361.571L99.996 383.014L84.8617 398.204L72.5229 398.243L72.5227 395.115Z" fill="#F8F2E7"/>
<path d="M137.661 399.847L137.696 418.7L151.052 432.007L161.614 431.973V435.096L149.763 435.135L134.573 420.001L134.533 398.558L149.668 383.368L161.614 383.363V386.491L150.968 386.491L137.661 399.847Z" fill="#F8F2E7"/>
<path d="M137.662 362.959L137.697 381.817L151.058 395.127L161.614 395.097V398.221L149.769 398.256L134.573 383.118L134.533 361.669L149.674 346.476L161.608 346.449L161.614 349.576L150.974 349.599L137.662 362.959Z" fill="#F8F2E7"/>
<path fill-rule="evenodd" clip-rule="evenodd" d="M220.507 349.192L186.235 349.255L162.046 373.533L162.109 407.805L186.387 431.994L220.659 431.931L244.848 407.653L244.785 373.381L220.507 349.192ZM247.925 372.074L221.803 346.047L184.928 346.115L158.901 372.237L158.969 409.112L185.091 435.139L221.966 435.071L247.993 408.949L247.925 372.074Z" fill="#F8F2E7"/>
<path d="M194.265 410.036L175.408 410.01L162.055 423.325L162.029 433.273L158.901 434.563L158.931 422.026L174.117 406.882L195.564 406.912L210.708 422.098L210.678 434.635L207.554 433.336L207.58 423.389L194.265 410.036Z" fill="#F8F2E7"/>
<path d="M231.474 410.01L212.62 410.044L199.314 423.4L199.348 433.345L196.225 434.645L196.186 422.111L211.32 406.921L232.763 406.882L247.953 422.016L247.992 434.55L244.864 433.261L244.83 423.317L231.474 410.01Z" fill="#F8F2E7"/>
<path d="M162.028 346.744L162.062 357.086L175.418 370.393L194.272 370.358L207.578 357.002L207.544 346.214L210.667 346.214L210.706 358.291L195.572 373.481L174.129 373.52L158.939 358.386L158.939 346.744H162.028Z" fill="#F8F2E7"/>
<path d="M196.186 346.132L199.35 346.132V357.087L212.706 370.394L231.559 370.359L244.866 357.004V346.696H247.994V358.292L232.86 373.482L211.417 373.522L196.227 358.387L196.186 346.132Z" fill="#F8F2E7"/>
<path d="M158.913 432.012L169.942 431.977L183.249 418.621L183.215 399.768L169.859 386.461L158.913 386.496V383.373L171.147 383.333L186.338 398.468L186.377 419.91L171.243 435.1L158.912 435.14L158.913 432.012Z" fill="#F8F2E7"/>
<path d="M158.901 395.12L169.94 395.085L183.247 381.729L183.212 362.876L169.856 349.569L158.902 349.604V346.481L171.145 346.441L186.335 361.576L186.375 383.018L171.24 398.208L158.902 398.247L158.901 395.12Z" fill="#F8F2E7"/>
<path d="M224.04 399.852L224.075 418.705L237.431 432.012L247.993 431.977V435.1L236.142 435.14L220.952 420.005L220.913 398.563L236.047 383.373L247.993 383.368V386.496L237.347 386.496L224.04 399.852Z" fill="#F8F2E7"/>
<path d="M224.042 362.963L224.076 381.821L237.437 395.132L247.993 395.101V398.225L236.148 398.26L220.952 383.122L220.913 361.674L236.053 346.48L247.987 346.454L247.993 349.58L237.354 349.604L224.042 362.963Z" fill="#F8F2E7"/>
<path fill-rule="evenodd" clip-rule="evenodd" d="M307.151 436.053L272.879 436.116L248.69 460.394L248.753 494.666L273.031 518.855L307.303 518.792L331.492 494.514L331.429 460.243L307.151 436.053ZM334.569 458.935L308.447 432.909L271.572 432.976L245.546 459.099L245.613 495.973L271.736 522L308.61 521.932L334.637 495.81L334.569 458.935Z" fill="#F8F2E7"/>
<path d="M280.909 496.896L262.052 496.87L248.7 510.185L248.673 520.133L245.546 521.423L245.576 508.886L260.762 493.742L282.208 493.772L297.352 508.958L297.322 521.496L294.198 520.196L294.224 510.249L280.909 496.896Z" fill="#F8F2E7"/>
<path d="M318.118 496.87L299.265 496.905L285.958 510.26L285.992 520.205L282.869 521.505L282.83 508.972L297.964 493.782L319.407 493.742L334.597 508.877L334.636 521.41L331.508 520.121L331.474 510.177L318.118 496.87Z" fill="#F8F2E7"/>
<path d="M248.672 433.608L248.707 443.95L262.063 457.257L280.916 457.222L294.223 443.866L294.188 433.078L297.311 433.078L297.351 445.155L282.216 460.345L260.774 460.385L245.584 445.25L245.584 433.608H248.672Z" fill="#F8F2E7"/>
<path d="M282.83 432.991L285.994 432.991V443.946L299.35 457.253L318.203 457.218L331.51 443.862V433.555H334.638V445.151L319.504 460.341L298.061 460.381L282.871 445.246L282.83 432.991Z" fill="#F8F2E7"/>
<path d="M245.557 518.872L256.586 518.837L269.893 505.481L269.858 486.628L256.502 473.321L245.557 473.356V470.233L257.791 470.193L272.981 485.328L273.021 506.77L257.886 521.96L245.556 522L245.557 518.872Z" fill="#F8F2E7"/>
<path d="M245.546 481.979L256.584 481.944L269.891 468.588L269.857 449.735L256.501 436.428L245.546 436.463V433.34L257.79 433.3L272.98 448.435L273.019 469.877L257.885 485.067L245.546 485.107L245.546 481.979Z" fill="#F8F2E7"/>
<path d="M310.684 486.711L310.719 505.565L324.075 518.872L334.637 518.837V521.96L322.786 521.999L307.596 506.865L307.557 485.423L322.691 470.233L334.637 470.228V473.356L323.991 473.356L310.684 486.711Z" fill="#F8F2E7"/>
<path d="M310.686 449.823L310.72 468.681L324.081 481.992L334.637 481.961V485.085L322.792 485.12L307.596 469.982L307.557 448.534L322.697 433.34L334.631 433.314L334.637 436.44L323.998 436.464L310.686 449.823Z" fill="#F8F2E7"/>
<path fill-rule="evenodd" clip-rule="evenodd" d="M394.014 436.053L359.743 436.116L335.554 460.394L335.616 494.666L359.895 518.855L394.166 518.792L418.355 494.514L418.293 460.243L394.014 436.053ZM421.432 458.935L395.31 432.909L358.435 432.976L332.409 459.099L332.477 495.973L358.599 522L395.474 521.932L421.5 495.81L421.432 458.935Z" fill="#F8F2E7"/>
<path d="M367.772 496.896L348.915 496.87L335.563 510.185L335.536 520.133L332.408 521.423L332.438 508.886L347.625 493.742L369.071 493.772L384.215 508.958L384.185 521.496L381.061 520.196L381.087 510.249L367.772 496.896Z" fill="#F8F2E7"/>
<path d="M404.981 496.87L386.127 496.905L372.82 510.26L372.855 520.205L369.732 521.505L369.693 508.972L384.827 493.782L406.27 493.742L421.46 508.877L421.499 521.41L418.371 520.121L418.337 510.177L404.981 496.87Z" fill="#F8F2E7"/>
<path d="M335.535 433.608L335.569 443.95L348.925 457.257L367.779 457.222L381.086 443.866L381.051 433.078L384.174 433.078L384.213 445.155L369.079 460.345L347.636 460.385L332.446 445.25L332.446 433.608H335.535Z" fill="#F8F2E7"/>
<path d="M369.693 432.991L372.857 432.991V443.946L386.213 457.253L405.066 457.218L418.373 443.862V433.555H421.501V445.151L406.367 460.341L384.924 460.381L369.734 445.246L369.693 432.991Z" fill="#F8F2E7"/>
<path d="M332.42 518.872L343.449 518.837L356.756 505.481L356.721 486.628L343.365 473.321L332.419 473.356V470.233L344.654 470.193L359.844 485.328L359.883 506.77L344.749 521.96L332.418 522L332.42 518.872Z" fill="#F8F2E7"/>
<path d="M332.408 481.979L343.447 481.944L356.754 468.588L356.719 449.735L343.364 436.428L332.409 436.463V433.34L344.652 433.3L359.842 448.435L359.882 469.877L344.747 485.067L332.409 485.107L332.408 481.979Z" fill="#F8F2E7"/>
<path d="M397.547 486.711L397.582 505.565L410.937 518.872L421.5 518.837V521.96L409.649 521.999L394.459 506.865L394.419 485.423L409.554 470.233L421.5 470.228V473.356L410.854 473.356L397.547 486.711Z" fill="#F8F2E7"/>
<path d="M397.548 449.823L397.583 468.681L410.944 481.992L421.5 481.961V485.085L409.654 485.12L394.459 469.982L394.419 448.534L409.559 433.34L421.494 433.314L421.5 436.44L410.86 436.464L397.548 449.823Z" fill="#F8F2E7"/>
<path fill-rule="evenodd" clip-rule="evenodd" d="M307.151 349.19L272.879 349.253L248.69 373.531L248.753 407.803L273.031 431.992L307.303 431.929L331.492 407.651L331.429 373.379L307.151 349.19ZM334.569 372.072L308.447 346.046L271.572 346.113L245.546 372.236L245.613 409.11L271.736 435.137L308.61 435.069L334.637 408.947L334.569 372.072Z" fill="#F8F2E7"/>
<path d="M280.909 410.032L262.052 410.005L248.7 423.321L248.673 433.268L245.546 434.559L245.576 422.021L260.762 406.878L282.208 406.908L297.352 422.094L297.322 434.631L294.198 433.332L294.224 423.384L280.909 410.032Z" fill="#F8F2E7"/>
<path d="M318.118 410.005L299.265 410.04L285.958 423.396L285.992 433.34L282.869 434.64L282.83 422.107L297.964 406.917L319.407 406.878L334.597 422.012L334.636 434.545L331.508 433.257L331.474 423.312L318.118 410.005Z" fill="#F8F2E7"/>
<path d="M248.672 346.744L248.707 357.086L262.063 370.393L280.916 370.358L294.223 357.002L294.188 346.214L297.311 346.214L297.351 358.291L282.216 373.481L260.774 373.52L245.584 358.386L245.584 346.744H248.672Z" fill="#F8F2E7"/>
<path d="M282.83 346.127L285.994 346.128V357.082L299.35 370.389L318.203 370.355L331.51 356.999V346.692H334.638V358.288L319.504 373.478L298.061 373.517L282.871 358.383L282.83 346.127Z" fill="#F8F2E7"/>
<path d="M245.557 432.007L256.586 431.973L269.893 418.617L269.858 399.764L256.502 386.457L245.557 386.491V383.368L257.791 383.329L272.981 398.463L273.021 419.906L257.886 435.096L245.556 435.135L245.557 432.007Z" fill="#F8F2E7"/>
<path d="M245.546 395.115L256.584 395.081L269.891 381.725L269.857 362.871L256.501 349.565L245.546 349.599V346.476L257.79 346.437L272.98 361.571L273.019 383.014L257.885 398.204L245.546 398.243L245.546 395.115Z" fill="#F8F2E7"/>
<path d="M310.684 399.847L310.719 418.7L324.075 432.007L334.637 431.973V435.096L322.786 435.135L307.596 420.001L307.557 398.558L322.691 383.368L334.637 383.363V386.491L323.991 386.491L310.684 399.847Z" fill="#F8F2E7"/>
<path d="M310.686 362.959L310.72 381.817L324.081 395.127L334.637 395.097V398.221L322.792 398.256L307.596 383.118L307.557 361.669L322.697 346.476L334.631 346.449L334.637 349.576L323.998 349.599L310.686 362.959Z" fill="#F8F2E7"/>
<path fill-rule="evenodd" clip-rule="evenodd" d="M393.53 349.192L359.258 349.255L335.069 373.533L335.132 407.805L359.41 431.994L393.682 431.931L417.871 407.653L417.808 373.381L393.53 349.192ZM420.948 372.074L394.826 346.047L357.951 346.115L331.924 372.237L331.992 409.112L358.114 435.139L394.989 435.071L421.015 408.949L420.948 372.074Z" fill="#F8F2E7"/>
<path d="M367.288 410.036L348.431 410.01L335.078 423.325L335.052 433.273L331.924 434.563L331.954 422.026L347.14 406.882L368.587 406.912L383.731 422.098L383.701 434.635L380.577 433.336L380.603 423.389L367.288 410.036Z" fill="#F8F2E7"/>
<path d="M404.497 410.01L385.643 410.044L372.336 423.4L372.371 433.345L369.248 434.645L369.208 422.111L384.343 406.921L405.785 406.882L420.975 422.016L421.015 434.55L417.887 433.261L417.852 423.317L404.497 410.01Z" fill="#F8F2E7"/>
<path d="M335.051 346.744L335.085 357.086L348.441 370.393L367.295 370.358L380.602 357.002L380.567 346.214L383.69 346.214L383.729 358.291L368.595 373.481L347.152 373.52L331.962 358.386L331.963 346.744H335.051Z" fill="#F8F2E7"/>
<path d="M369.208 346.132L372.373 346.132V357.087L385.729 370.394L404.582 370.359L417.889 357.004V346.696H421.017V358.292L405.882 373.482L384.44 373.522L369.25 358.387L369.208 346.132Z" fill="#F8F2E7"/>
<path d="M331.936 432.012L342.965 431.977L356.272 418.621L356.238 399.768L342.882 386.461L331.936 386.496V383.373L344.17 383.333L359.36 398.468L359.4 419.91L344.265 435.1L331.935 435.14L331.936 432.012Z" fill="#F8F2E7"/>
<path d="M331.924 395.12L342.963 395.085L356.27 381.729L356.235 362.876L342.879 349.569L331.924 349.604V346.481L344.168 346.441L359.358 361.576L359.398 383.018L344.263 398.208L331.924 398.247L331.924 395.12Z" fill="#F8F2E7"/>
<path d="M397.063 399.852L397.098 418.705L410.454 432.012L421.016 431.977V435.1L409.165 435.14L393.975 420.005L393.935 398.563L409.07 383.373L421.016 383.368V386.496L410.37 386.496L397.063 399.852Z" fill="#F8F2E7"/>
<path d="M397.064 362.963L397.099 381.821L410.46 395.132L421.016 395.101V398.225L409.17 398.26L393.975 383.122L393.935 361.674L409.075 346.48L421.01 346.454L421.016 349.58L410.376 349.604L397.064 362.963Z" fill="#F8F2E7"/>
<path fill-rule="evenodd" clip-rule="evenodd" d="M47.9685 263.03L13.6969 263.093L-10.4923 287.371L-10.4295 321.643L13.8487 345.832L48.1204 345.769L72.3096 321.491L72.2467 287.22L47.9685 263.03ZM75.3865 285.912L49.2643 259.886L12.3896 259.953L-13.637 286.076L-13.5693 322.95L12.553 348.977L49.4277 348.909L75.4542 322.787L75.3865 285.912Z" fill="#F8F2E7"/>
<path d="M21.726 323.873L2.86909 323.847L-10.4834 337.162L-10.5097 347.11L-13.6375 348.4L-13.6075 335.863L1.57865 320.719L23.0251 320.749L38.1689 335.935L38.1389 348.473L35.0148 347.173L35.0411 337.226L21.726 323.873Z" fill="#F8F2E7"/>
<path d="M58.9348 323.847L40.0814 323.882L26.7745 337.237L26.8091 347.182L23.6861 348.482L23.6467 335.949L38.7811 320.759L60.2237 320.719L75.4137 335.854L75.4531 348.387L72.3253 347.098L72.2907 337.154L58.9348 323.847Z" fill="#F8F2E7"/>
<path d="M-10.5112 260.585L-10.4766 270.927L2.87924 284.234L21.7327 284.2L35.0396 270.844L35.005 260.056L38.128 260.056L38.1674 272.132L23.033 287.322L1.59041 287.362L-13.5996 272.227L-13.5994 260.585H-10.5112Z" fill="#F8F2E7"/>
<path d="M23.6467 259.968L26.811 259.968V270.923L40.1669 284.23L59.0204 284.196L72.3273 270.84V260.533H75.455V272.129L60.3207 287.319L38.8781 287.358L23.6881 272.224L23.6467 259.968Z" fill="#F8F2E7"/>
<path d="M-13.626 345.849L-2.5971 345.814L10.7099 332.459L10.6752 313.605L-2.68064 300.298L-13.6263 300.333V297.21L-1.39181 297.17L13.7982 312.305L13.8376 333.747L-1.2968 348.937L-13.6274 348.977L-13.626 345.849Z" fill="#F8F2E7"/>
<path d="M-13.6375 308.956L-2.5988 308.922L10.7081 295.566L10.6735 276.712L-2.68234 263.405L-13.6373 263.44V260.317L-1.39351 260.278L13.7965 275.412L13.8359 296.855L-1.2985 312.045L-13.6373 312.084L-13.6375 308.956Z" fill="#F8F2E7"/>
<path d="M51.501 313.688L51.5356 332.542L64.8915 345.849L75.4539 345.814V348.937L63.6027 348.976L48.4126 333.842L48.3733 312.399L63.5077 297.209L75.4539 297.205V300.332L64.808 300.332L51.501 313.688Z" fill="#F8F2E7"/>
<path d="M51.5022 276.8L51.5368 295.658L64.8978 308.969L75.4539 308.938V312.062L63.6085 312.097L48.4127 296.959L48.3733 275.511L63.5134 260.317L75.4481 260.291L75.4539 263.417L64.8142 263.441L51.5022 276.8Z" fill="#F8F2E7"/>
<path fill-rule="evenodd" clip-rule="evenodd" d="M47.4841 176.169L13.2125 176.232L-10.9767 200.51L-10.9138 234.782L13.3644 258.971L47.636 258.908L71.8252 234.63L71.7623 200.359L47.4841 176.169ZM74.9022 199.051L48.7799 173.025L11.9052 173.092L-14.1213 199.215L-14.0537 236.089L12.0686 262.116L48.9433 262.048L74.9698 235.926L74.9022 199.051Z" fill="#F8F2E7"/>
<path d="M21.2421 237.013L2.3852 236.987L-10.9673 250.302L-10.9936 260.25L-14.1213 261.54L-14.0914 249.003L1.09476 233.859L22.5412 233.889L37.685 249.075L37.655 261.613L34.5309 260.314L34.5573 250.366L21.2421 237.013Z" fill="#F8F2E7"/>
<path d="M58.451 236.987L39.5975 237.022L26.2906 250.378L26.3252 260.322L23.2022 261.622L23.1628 249.089L38.2972 233.899L59.7398 233.859L74.9298 248.994L74.9692 261.527L71.8414 260.238L71.8068 250.294L58.451 236.987Z" fill="#F8F2E7"/>
<path d="M-10.9951 173.721L-10.9605 184.063L2.39536 197.37L21.2488 197.335L34.5557 183.979L34.5211 173.191L37.6441 173.191L37.6835 185.268L22.5491 200.458L1.10653 200.498L-14.0835 185.363L-14.0833 173.721H-10.9951Z" fill="#F8F2E7"/>
<path d="M23.1628 173.109L26.3272 173.109V184.064L39.683 197.371L58.5365 197.336L71.8434 183.981V173.673H74.9711V185.269L59.8368 200.459L38.3942 200.499L23.2042 185.364L23.1628 173.109Z" fill="#F8F2E7"/>
<path d="M-14.1097 258.989L-3.08074 258.955L10.2262 245.599L10.1916 226.745L-3.16428 213.438L-14.1099 213.473V210.35L-1.87545 210.311L13.3146 225.445L13.3539 246.887L-1.78044 262.078L-14.1111 262.117L-14.1097 258.989Z" fill="#F8F2E7"/>
<path d="M-14.1213 222.097L-3.08269 222.062L10.2242 208.707L10.1896 189.853L-3.16623 176.546L-14.1212 176.581V173.458L-1.8774 173.418L13.3126 188.553L13.352 209.995L-1.78239 225.185L-14.1212 225.225L-14.1213 222.097Z" fill="#F8F2E7"/>
<path d="M51.0176 226.829L51.0522 245.682L64.4081 258.989L74.9705 258.955V262.078L63.1193 262.117L47.9292 246.983L47.8899 225.54L63.0243 210.35L74.9705 210.345V213.473L64.3246 213.473L51.0176 226.829Z" fill="#F8F2E7"/>
<path d="M51.0188 189.94L51.0534 208.799L64.4144 222.109L74.9705 222.078V225.202L63.1251 225.237L47.9293 210.099L47.8899 188.651L63.03 173.457L74.9647 173.431L74.9705 176.557L64.3308 176.581L51.0188 189.94Z" fill="#F8F2E7"/>
<path fill-rule="evenodd" clip-rule="evenodd" d="M47.9685 90.0077L13.6969 90.0706L-10.4923 114.349L-10.4295 148.62L13.8487 172.81L48.1204 172.747L72.3096 148.469L72.2467 114.197L47.9685 90.0077ZM75.3865 112.89L49.2643 86.863L12.3896 86.9307L-13.637 113.053L-13.5693 149.928L12.553 175.954L49.4277 175.887L75.4542 149.764L75.3865 112.89Z" fill="#F8F2E7"/>
<path d="M21.726 150.85L2.86909 150.824L-10.4834 164.139L-10.5097 174.087L-13.6375 175.377L-13.6075 162.84L1.57865 147.696L23.0251 147.726L38.1689 162.912L38.1389 175.45L35.0148 174.151L35.0411 164.203L21.726 150.85Z" fill="#F8F2E7"/>
<path d="M58.9348 150.824L40.0814 150.859L26.7745 164.215L26.8091 174.159L23.6861 175.459L23.6467 162.926L38.7811 147.736L60.2237 147.696L75.4137 162.831L75.4531 175.364L72.3253 174.075L72.2907 164.131L58.9348 150.824Z" fill="#F8F2E7"/>
<path d="M-10.5112 87.562L-10.4766 97.904L2.87924 111.211L21.7327 111.176L35.0396 97.8204L35.005 87.0325L38.128 87.0325L38.1674 99.1093L23.033 114.299L1.59041 114.339L-13.5996 99.2043L-13.5994 87.562H-10.5112Z" fill="#F8F2E7"/>
<path d="M23.6467 86.9451L26.811 86.9451V97.9001L40.1669 111.207L59.0204 111.172L72.3273 97.8165V87.5094H75.455V99.1054L60.3207 114.295L38.8781 114.335L23.6881 99.2004L23.6467 86.9451Z" fill="#F8F2E7"/>
<path d="M-13.626 172.826L-2.5971 172.792L10.7099 159.436L10.6752 140.582L-2.68064 127.275L-13.6263 127.31V124.187L-1.39181 124.148L13.7982 139.282L13.8376 160.725L-1.2968 175.915L-13.6274 175.954L-13.626 172.826Z" fill="#F8F2E7"/>
<path d="M-13.6375 135.933L-2.5988 135.898L10.7081 122.543L10.6735 103.689L-2.68234 90.3821L-13.6373 90.4167V87.2938L-1.39351 87.2544L13.7965 102.389L13.8359 123.831L-1.2985 139.021L-13.6373 139.061L-13.6375 135.933Z" fill="#F8F2E7"/>
<path d="M51.501 140.665L51.5356 159.519L64.8915 172.826L75.4539 172.791V175.914L63.6027 175.954L48.4126 160.819L48.3733 139.377L63.5077 124.187L75.4539 124.182V127.31L64.808 127.31L51.501 140.665Z" fill="#F8F2E7"/>
<path d="M51.5022 103.777L51.5368 122.636L64.8978 135.946L75.4539 135.916V139.039L63.6085 139.075L48.4127 123.936L48.3733 102.488L63.5134 87.2944L75.4481 87.2683L75.4539 90.3945L64.8142 90.4182L51.5022 103.777Z" fill="#F8F2E7"/>
<path fill-rule="evenodd" clip-rule="evenodd" d="M47.4841 3.14632L13.2125 3.20922L-10.9767 27.4874L-10.9138 61.759L13.3644 85.9483L47.636 85.8854L71.8252 61.6072L71.7623 27.3356L47.4841 3.14632ZM74.9022 26.0282L48.7799 0.00170898L11.9052 0.0693861L-14.1213 26.1916L-14.0537 63.0664L12.0686 89.0929L48.9433 89.0252L74.9698 62.903L74.9022 26.0282Z" fill="#F8F2E7"/>
<path d="M21.2421 63.9905L2.3852 63.9642L-10.9673 77.2794L-10.9936 87.2271L-14.1213 88.5175L-14.0914 75.9802L1.09476 60.8364L22.5412 60.8664L37.685 76.0525L37.655 88.5898L34.5309 87.2907L34.5573 77.343L21.2421 63.9905Z" fill="#F8F2E7"/>
<path d="M58.451 63.9642L39.5975 63.9988L26.2906 77.3546L26.3252 87.2989L23.2022 88.5992L23.1628 76.0658L38.2972 60.8758L59.7398 60.8364L74.9298 75.9708L74.9692 88.5042L71.8414 87.2154L71.8068 77.2711L58.451 63.9642Z" fill="#F8F2E7"/>
<path d="M-10.9951 0.697783L-10.9605 11.0397L2.39536 24.3467L21.2488 24.3121L34.5557 10.9562L34.5211 0.168238L37.6441 0.168213L37.6835 12.245L22.5491 27.435L1.10653 27.4744L-14.0835 12.34L-14.0833 0.697783H-10.9951Z" fill="#F8F2E7"/>
<path d="M23.1628 0.0856934L26.3272 0.0857709V11.0407L39.683 24.3476L58.5365 24.313L71.8434 10.9571V0.650036H74.9711V12.246L59.8368 27.436L38.3942 27.4754L23.2042 12.341L23.1628 0.0856934Z" fill="#F8F2E7"/>
<path d="M-14.1097 85.9662L-3.08074 85.9316L10.2262 72.5757L10.1916 53.7223L-3.16428 40.4153L-14.1099 40.4499V37.327L-1.87545 37.2876L13.3146 52.422L13.3539 73.8645L-1.78044 89.0546L-14.1111 89.0939L-14.1097 85.9662Z" fill="#F8F2E7"/>
<path d="M-14.1213 49.0736L-3.08269 49.039L10.2242 35.6831L10.1896 16.8297L-3.16623 3.52276L-14.1212 3.55736V0.434377L-1.8774 0.39502L13.3126 15.5294L13.352 36.972L-1.78239 52.162L-14.1212 52.2013L-14.1213 49.0736Z" fill="#F8F2E7"/>
<path d="M51.0176 53.8051L51.0522 72.6586L64.4081 85.9655L74.9705 85.9309V89.0539L63.1193 89.0932L47.9292 73.9589L47.8899 52.5163L63.0243 37.3263L74.9705 37.3215V40.4493L64.3246 40.4493L51.0176 53.8051Z" fill="#F8F2E7"/>
<path d="M51.0188 16.9174L51.0534 35.7757L64.4144 49.086L74.9705 49.0555V52.1793L63.1251 52.2145L47.9293 37.0763L47.8899 15.6282L63.03 0.434301L74.9647 0.408208L74.9705 3.53437L64.3308 3.55809L51.0188 16.9174Z" fill="#F8F2E7"/>
<path fill-rule="evenodd" clip-rule="evenodd" d="M134.128 263.03L99.8565 263.093L75.6673 287.371L75.7302 321.643L100.008 345.832L134.28 345.769L158.469 321.491L158.406 287.22L134.128 263.03ZM161.546 285.912L135.424 259.886L98.5492 259.953L72.5227 286.076L72.5904 322.95L98.7126 348.977L135.587 348.909L161.614 322.787L161.546 285.912Z" fill="#F8F2E7"/>
<path d="M107.886 323.873L89.0292 323.847L75.6768 337.162L75.6504 347.11L72.5227 348.4L72.5527 335.863L87.7388 320.719L109.185 320.749L124.329 335.935L124.299 348.473L121.175 347.173L121.201 337.226L107.886 323.873Z" fill="#F8F2E7"/>
<path d="M145.095 323.847L126.242 323.882L112.935 337.237L112.969 347.182L109.846 348.482L109.807 335.949L124.941 320.759L146.384 320.719L161.574 335.854L161.613 348.387L158.486 347.098L158.451 337.154L145.095 323.847Z" fill="#F8F2E7"/>
<path d="M75.6492 260.585L75.6838 270.927L89.0396 284.234L107.893 284.2L121.2 270.844L121.165 260.056L124.288 260.056L124.328 272.132L109.193 287.322L87.7508 287.362L72.5608 272.227L72.561 260.585H75.6492Z" fill="#F8F2E7"/>
<path d="M109.807 259.968L112.971 259.968V270.923L126.327 284.23L145.181 284.196L158.488 270.84V260.533H161.615V272.129L146.481 287.319L125.038 287.358L109.848 272.224L109.807 259.968Z" fill="#F8F2E7"/>
<path d="M72.5344 345.849L83.5633 345.814L96.8703 332.459L96.8356 313.605L83.4798 300.298L72.5341 300.333V297.21L84.7686 297.17L99.9586 312.305L99.998 333.747L84.8636 348.937L72.533 348.977L72.5344 345.849Z" fill="#F8F2E7"/>
<path d="M72.5227 308.956L83.5614 308.922L96.8683 295.566L96.8337 276.712L83.4778 263.405L72.5229 263.44V260.317L84.7666 260.278L99.9567 275.412L99.996 296.855L84.8617 312.045L72.5229 312.084L72.5227 308.956Z" fill="#F8F2E7"/>
<path d="M137.661 313.688L137.696 332.542L151.052 345.849L161.614 345.814V348.937L149.763 348.976L134.573 333.842L134.533 312.399L149.668 297.209L161.614 297.205V300.332L150.968 300.332L137.661 313.688Z" fill="#F8F2E7"/>
<path d="M137.662 276.8L137.697 295.658L151.058 308.969L161.614 308.938V312.062L149.769 312.097L134.573 296.959L134.533 275.511L149.674 260.317L161.608 260.291L161.614 263.417L150.974 263.441L137.662 276.8Z" fill="#F8F2E7"/>
<path fill-rule="evenodd" clip-rule="evenodd" d="M220.991 263.03L186.72 263.093L162.53 287.371L162.593 321.643L186.871 345.832L221.143 345.769L245.332 321.491L245.269 287.22L220.991 263.03ZM248.409 285.912L222.287 259.886L185.412 259.953L159.386 286.076L159.453 322.95L185.576 348.977L222.45 348.909L248.477 322.787L248.409 285.912Z" fill="#F8F2E7"/>
<path d="M194.749 323.873L175.892 323.847L162.539 337.162L162.513 347.11L159.385 348.4L159.415 335.863L174.601 320.719L196.048 320.749L211.192 335.935L211.162 348.473L208.038 347.173L208.064 337.226L194.749 323.873Z" fill="#F8F2E7"/>
<path d="M231.958 323.847L213.104 323.882L199.797 337.237L199.832 347.182L196.709 348.482L196.67 335.949L211.804 320.759L233.247 320.719L248.437 335.854L248.476 348.387L245.348 347.098L245.314 337.154L231.958 323.847Z" fill="#F8F2E7"/>
<path d="M162.512 260.585L162.546 270.927L175.902 284.234L194.756 284.2L208.063 270.844L208.028 260.056L211.151 260.056L211.19 272.132L196.056 287.322L174.613 287.362L159.423 272.227L159.424 260.585H162.512Z" fill="#F8F2E7"/>
<path d="M196.67 259.968L199.834 259.968V270.923L213.19 284.23L232.043 284.196L245.35 270.84V260.533H248.478V272.129L233.344 287.319L211.901 287.358L196.711 272.224L196.67 259.968Z" fill="#F8F2E7"/>
<path d="M159.397 345.849L170.426 345.814L183.733 332.459L183.698 313.605L170.342 300.298L159.396 300.333V297.21L171.631 297.17L186.821 312.305L186.86 333.747L171.726 348.937L159.395 348.977L159.397 345.849Z" fill="#F8F2E7"/>
<path d="M159.385 308.956L170.424 308.922L183.731 295.566L183.696 276.712L170.34 263.405L159.385 263.44V260.317L171.629 260.278L186.819 275.412L186.859 296.855L171.724 312.045L159.385 312.084L159.385 308.956Z" fill="#F8F2E7"/>
<path d="M224.524 313.688L224.559 332.542L237.914 345.849L248.477 345.814V348.937L236.626 348.976L221.436 333.842L221.396 312.399L236.531 297.209L248.477 297.205V300.332L237.831 300.332L224.524 313.688Z" fill="#F8F2E7"/>
<path d="M224.525 276.8L224.56 295.658L237.921 308.969L248.477 308.938V312.062L236.631 312.097L221.436 296.959L221.396 275.511L236.536 260.317L248.471 260.291L248.477 263.417L237.837 263.441L224.525 276.8Z" fill="#F8F2E7"/>
<path fill-rule="evenodd" clip-rule="evenodd" d="M134.128 176.168L99.8565 176.23L75.6673 200.509L75.7302 234.78L100.008 258.97L134.28 258.907L158.469 234.628L158.406 200.357L134.128 176.168ZM161.546 199.049L135.424 173.023L98.5492 173.091L72.5227 199.213L72.5904 236.088L98.7126 262.114L135.587 262.046L161.614 235.924L161.546 199.049Z" fill="#F8F2E7"/>
<path d="M107.886 237.009L89.0292 236.982L75.6768 250.298L75.6504 260.245L72.5227 261.536L72.5527 248.998L87.7388 233.855L109.185 233.885L124.329 249.071L124.299 261.608L121.175 260.309L121.201 250.361L107.886 237.009Z" fill="#F8F2E7"/>
<path d="M145.095 236.982L126.242 237.017L112.935 250.373L112.969 260.317L109.846 261.618L109.807 249.084L124.941 233.894L146.384 233.855L161.574 248.989L161.613 261.523L158.486 260.234L158.451 250.289L145.095 236.982Z" fill="#F8F2E7"/>
<path d="M75.6492 173.721L75.6838 184.063L89.0396 197.37L107.893 197.335L121.2 183.979L121.165 173.191L124.288 173.191L124.328 185.268L109.193 200.458L87.7508 200.497L72.5608 185.363L72.561 173.721H75.6492Z" fill="#F8F2E7"/>
<path d="M109.807 173.105L112.971 173.105V184.06L126.327 197.367L145.181 197.332L158.488 183.976V173.669H161.615V185.265L146.481 200.455L125.038 200.494L109.848 185.36L109.807 173.105Z" fill="#F8F2E7"/>
<path d="M72.5344 258.984L83.5633 258.95L96.8703 245.594L96.8356 226.741L83.4798 213.434L72.5341 213.468V210.345L84.7686 210.306L99.9586 225.44L99.998 246.883L84.8636 262.073L72.533 262.112L72.5344 258.984Z" fill="#F8F2E7"/>
<path d="M72.5227 222.092L83.5614 222.058L96.8683 208.702L96.8337 189.848L83.4778 176.542L72.5229 176.576V173.453L84.7666 173.414L99.9567 188.548L99.996 209.991L84.8617 225.181L72.5229 225.22L72.5227 222.092Z" fill="#F8F2E7"/>
<path d="M137.661 226.824L137.696 245.678L151.052 258.985L161.614 258.95V262.073L149.763 262.112L134.573 246.978L134.533 225.535L149.668 210.345L161.614 210.341V213.468L150.968 213.468L137.661 226.824Z" fill="#F8F2E7"/>
<path d="M137.662 189.936L137.697 208.794L151.058 222.104L161.614 222.074V225.198L149.769 225.233L134.573 210.095L134.533 188.647L149.674 173.453L161.608 173.427L161.614 176.553L150.974 176.576L137.662 189.936Z" fill="#F8F2E7"/>
<path fill-rule="evenodd" clip-rule="evenodd" d="M220.507 176.169L186.235 176.232L162.046 200.51L162.109 234.782L186.387 258.971L220.659 258.908L244.848 234.63L244.785 200.359L220.507 176.169ZM247.925 199.051L221.803 173.025L184.928 173.092L158.901 199.215L158.969 236.089L185.091 262.116L221.966 262.048L247.993 235.926L247.925 199.051Z" fill="#F8F2E7"/>
<path d="M194.265 237.013L175.408 236.987L162.055 250.302L162.029 260.25L158.901 261.54L158.931 249.003L174.117 233.859L195.564 233.889L210.708 249.075L210.678 261.613L207.554 260.314L207.58 250.366L194.265 237.013Z" fill="#F8F2E7"/>
<path d="M231.474 236.987L212.62 237.022L199.314 250.378L199.348 260.322L196.225 261.622L196.186 249.089L211.32 233.899L232.763 233.859L247.953 248.994L247.992 261.527L244.864 260.238L244.83 250.294L231.474 236.987Z" fill="#F8F2E7"/>
<path d="M162.028 173.721L162.062 184.063L175.418 197.37L194.272 197.335L207.578 183.979L207.544 173.191L210.667 173.191L210.706 185.268L195.572 200.458L174.129 200.498L158.939 185.363L158.939 173.721H162.028Z" fill="#F8F2E7"/>
<path d="M196.186 173.109L199.35 173.109V184.064L212.706 197.371L231.559 197.336L244.866 183.981V173.673H247.994V185.269L232.86 200.459L211.417 200.499L196.227 185.364L196.186 173.109Z" fill="#F8F2E7"/>
<path d="M158.913 258.989L169.942 258.955L183.249 245.599L183.215 226.745L169.859 213.438L158.913 213.473V210.35L171.147 210.311L186.338 225.445L186.377 246.887L171.243 262.078L158.912 262.117L158.913 258.989Z" fill="#F8F2E7"/>
<path d="M158.901 222.097L169.94 222.062L183.247 208.707L183.212 189.853L169.856 176.546L158.902 176.581V173.458L171.145 173.418L186.335 188.553L186.375 209.995L171.24 225.185L158.902 225.225L158.901 222.097Z" fill="#F8F2E7"/>
<path d="M224.04 226.829L224.075 245.682L237.431 258.989L247.993 258.955V262.078L236.142 262.117L220.952 246.983L220.913 225.54L236.047 210.35L247.993 210.345V213.473L237.347 213.473L224.04 226.829Z" fill="#F8F2E7"/>
<path d="M224.042 189.94L224.076 208.799L237.437 222.109L247.993 222.078V225.202L236.148 225.237L220.952 210.099L220.913 188.651L236.053 173.457L247.987 173.431L247.993 176.557L237.354 176.581L224.042 189.94Z" fill="#F8F2E7"/>
<path fill-rule="evenodd" clip-rule="evenodd" d="M307.151 263.03L272.879 263.093L248.69 287.371L248.753 321.643L273.031 345.832L307.303 345.769L331.492 321.491L331.429 287.22L307.151 263.03ZM334.569 285.912L308.447 259.886L271.572 259.953L245.546 286.076L245.613 322.95L271.736 348.977L308.61 348.909L334.637 322.787L334.569 285.912Z" fill="#F8F2E7"/>
<path d="M280.909 323.873L262.052 323.847L248.7 337.162L248.673 347.11L245.546 348.4L245.576 335.863L260.762 320.719L282.208 320.749L297.352 335.935L297.322 348.473L294.198 347.173L294.224 337.226L280.909 323.873Z" fill="#F8F2E7"/>
<path d="M318.118 323.847L299.265 323.882L285.958 337.237L285.992 347.182L282.869 348.482L282.83 335.949L297.964 320.759L319.407 320.719L334.597 335.854L334.636 348.387L331.508 347.098L331.474 337.154L318.118 323.847Z" fill="#F8F2E7"/>
<path d="M248.672 260.585L248.707 270.927L262.063 284.234L280.916 284.2L294.223 270.844L294.188 260.056L297.311 260.056L297.351 272.132L282.216 287.322L260.774 287.362L245.584 272.227L245.584 260.585H248.672Z" fill="#F8F2E7"/>
<path d="M282.83 259.968L285.994 259.968V270.923L299.35 284.23L318.203 284.196L331.51 270.84V260.533H334.638V272.129L319.504 287.319L298.061 287.358L282.871 272.224L282.83 259.968Z" fill="#F8F2E7"/>
<path d="M245.557 345.849L256.586 345.814L269.893 332.459L269.858 313.605L256.502 300.298L245.557 300.333V297.21L257.791 297.17L272.981 312.305L273.021 333.747L257.886 348.937L245.556 348.977L245.557 345.849Z" fill="#F8F2E7"/>
<path d="M245.546 308.956L256.584 308.922L269.891 295.566L269.857 276.712L256.501 263.405L245.546 263.44V260.317L257.79 260.278L272.98 275.412L273.019 296.855L257.885 312.045L245.546 312.084L245.546 308.956Z" fill="#F8F2E7"/>
<path d="M310.684 313.688L310.719 332.542L324.075 345.849L334.637 345.814V348.937L322.786 348.976L307.596 333.842L307.557 312.399L322.691 297.209L334.637 297.205V300.332L323.991 300.332L310.684 313.688Z" fill="#F8F2E7"/>
<path d="M310.686 276.8L310.72 295.658L324.081 308.969L334.637 308.938V312.062L322.792 312.097L307.596 296.959L307.557 275.511L322.697 260.317L334.631 260.291L334.637 263.417L323.998 263.441L310.686 276.8Z" fill="#F8F2E7"/>
<path fill-rule="evenodd" clip-rule="evenodd" d="M394.014 263.03L359.743 263.093L335.554 287.371L335.616 321.643L359.895 345.832L394.166 345.769L418.355 321.491L418.293 287.22L394.014 263.03ZM421.432 285.912L395.31 259.886L358.435 259.953L332.409 286.076L332.477 322.95L358.599 348.977L395.474 348.909L421.5 322.787L421.432 285.912Z" fill="#F8F2E7"/>
<path d="M367.772 323.873L348.915 323.847L335.563 337.162L335.536 347.11L332.408 348.4L332.438 335.863L347.625 320.719L369.071 320.749L384.215 335.935L384.185 348.473L381.061 347.173L381.087 337.226L367.772 323.873Z" fill="#F8F2E7"/>
<path d="M404.981 323.847L386.127 323.882L372.82 337.237L372.855 347.182L369.732 348.482L369.693 335.949L384.827 320.759L406.27 320.719L421.46 335.854L421.499 348.387L418.371 347.098L418.337 337.154L404.981 323.847Z" fill="#F8F2E7"/>
<path d="M335.535 260.585L335.569 270.927L348.925 284.234L367.779 284.2L381.086 270.844L381.051 260.056L384.174 260.056L384.213 272.132L369.079 287.322L347.636 287.362L332.446 272.227L332.446 260.585H335.535Z" fill="#F8F2E7"/>
<path d="M369.693 259.968L372.857 259.968V270.923L386.213 284.23L405.066 284.196L418.373 270.84V260.533H421.501V272.129L406.367 287.319L384.924 287.358L369.734 272.224L369.693 259.968Z" fill="#F8F2E7"/>
<path d="M332.42 345.849L343.449 345.814L356.756 332.459L356.721 313.605L343.365 300.298L332.419 300.333V297.21L344.654 297.17L359.844 312.305L359.883 333.747L344.749 348.937L332.418 348.977L332.42 345.849Z" fill="#F8F2E7"/>
<path d="M332.408 308.956L343.447 308.922L356.754 295.566L356.719 276.712L343.364 263.405L332.409 263.44V260.317L344.652 260.278L359.842 275.412L359.882 296.855L344.747 312.045L332.409 312.084L332.408 308.956Z" fill="#F8F2E7"/>
<path d="M397.547 313.688L397.582 332.542L410.937 345.849L421.5 345.814V348.937L409.649 348.976L394.459 333.842L394.419 312.399L409.554 297.209L421.5 297.205V300.332L410.854 300.332L397.547 313.688Z" fill="#F8F2E7"/>
<path d="M397.548 276.8L397.583 295.658L410.944 308.969L421.5 308.938V312.062L409.654 312.097L394.459 296.959L394.419 275.511L409.559 260.317L421.494 260.291L421.5 263.417L410.86 263.441L397.548 276.8Z" fill="#F8F2E7"/>
<path fill-rule="evenodd" clip-rule="evenodd" d="M307.151 176.168L272.879 176.23L248.69 200.509L248.753 234.78L273.031 258.97L307.303 258.907L331.492 234.628L331.429 200.357L307.151 176.168ZM334.569 199.049L308.447 173.023L271.572 173.091L245.546 199.213L245.613 236.088L271.736 262.114L308.61 262.046L334.637 235.924L334.569 199.049Z" fill="#F8F2E7"/>
<path d="M280.909 237.009L262.052 236.982L248.7 250.298L248.673 260.245L245.546 261.536L245.576 248.998L260.762 233.855L282.208 233.885L297.352 249.071L297.322 261.608L294.198 260.309L294.224 250.361L280.909 237.009Z" fill="#F8F2E7"/>
<path d="M318.118 236.982L299.265 237.017L285.958 250.373L285.992 260.317L282.869 261.618L282.83 249.084L297.964 233.894L319.407 233.855L334.597 248.989L334.636 261.523L331.508 260.234L331.474 250.289L318.118 236.982Z" fill="#F8F2E7"/>
<path d="M248.672 173.721L248.707 184.063L262.063 197.37L280.916 197.335L294.223 183.979L294.188 173.191L297.311 173.191L297.351 185.268L282.216 200.458L260.774 200.497L245.584 185.363L245.584 173.721H248.672Z" fill="#F8F2E7"/>
<path d="M282.83 173.105L285.994 173.105V184.06L299.35 197.367L318.203 197.332L331.51 183.976V173.669H334.638V185.265L319.504 200.455L298.061 200.494L282.871 185.36L282.83 173.105Z" fill="#F8F2E7"/>
<path d="M245.557 258.984L256.586 258.95L269.893 245.594L269.858 226.741L256.502 213.434L245.557 213.468V210.345L257.791 210.306L272.981 225.44L273.021 246.883L257.886 262.073L245.556 262.112L245.557 258.984Z" fill="#F8F2E7"/>
<path d="M245.546 222.092L256.584 222.058L269.891 208.702L269.857 189.848L256.501 176.542L245.546 176.576V173.453L257.79 173.414L272.98 188.548L273.019 209.991L257.885 225.181L245.546 225.22L245.546 222.092Z" fill="#F8F2E7"/>
<path d="M310.684 226.824L310.719 245.678L324.075 258.985L334.637 258.95V262.073L322.786 262.112L307.596 246.978L307.557 225.535L322.691 210.345L334.637 210.341V213.468L323.991 213.468L310.684 226.824Z" fill="#F8F2E7"/>
<path d="M310.686 189.936L310.72 208.794L324.081 222.104L334.637 222.074V225.198L322.792 225.233L307.596 210.095L307.557 188.647L322.697 173.453L334.631 173.427L334.637 176.553L323.998 176.576L310.686 189.936Z" fill="#F8F2E7"/>
<path fill-rule="evenodd" clip-rule="evenodd" d="M393.53 176.169L359.258 176.232L335.069 200.51L335.132 234.782L359.41 258.971L393.682 258.908L417.871 234.63L417.808 200.359L393.53 176.169ZM420.948 199.051L394.826 173.025L357.951 173.092L331.924 199.215L331.992 236.089L358.114 262.116L394.989 262.048L421.015 235.926L420.948 199.051Z" fill="#F8F2E7"/>
<path d="M367.288 237.013L348.431 236.987L335.078 250.302L335.052 260.25L331.924 261.54L331.954 249.003L347.14 233.859L368.587 233.889L383.731 249.075L383.701 261.613L380.577 260.314L380.603 250.366L367.288 237.013Z" fill="#F8F2E7"/>
<path d="M404.497 236.987L385.643 237.022L372.336 250.378L372.371 260.322L369.248 261.622L369.208 249.089L384.343 233.899L405.785 233.859L420.975 248.994L421.015 261.527L417.887 260.238L417.852 250.294L404.497 236.987Z" fill="#F8F2E7"/>
<path d="M335.051 173.721L335.085 184.063L348.441 197.37L367.295 197.335L380.602 183.979L380.567 173.191L383.69 173.191L383.729 185.268L368.595 200.458L347.152 200.498L331.962 185.363L331.963 173.721H335.051Z" fill="#F8F2E7"/>
<path d="M369.208 173.109L372.373 173.109V184.064L385.729 197.371L404.582 197.336L417.889 183.981V173.673H421.017V185.269L405.882 200.459L384.44 200.499L369.25 185.364L369.208 173.109Z" fill="#F8F2E7"/>
<path d="M331.936 258.989L342.965 258.955L356.272 245.599L356.238 226.745L342.882 213.438L331.936 213.473V210.35L344.17 210.311L359.36 225.445L359.4 246.887L344.265 262.078L331.935 262.117L331.936 258.989Z" fill="#F8F2E7"/>
<path d="M331.924 222.097L342.963 222.062L356.27 208.707L356.235 189.853L342.879 176.546L331.924 176.581V173.458L344.168 173.418L359.358 188.553L359.398 209.995L344.263 225.185L331.924 225.225L331.924 222.097Z" fill="#F8F2E7"/>
<path d="M397.063 226.829L397.098 245.682L410.454 258.989L421.016 258.955V262.078L409.165 262.117L393.975 246.983L393.935 225.54L409.07 210.35L421.016 210.345V213.473L410.37 213.473L397.063 226.829Z" fill="#F8F2E7"/>
<path d="M397.064 189.94L397.099 208.799L410.46 222.109L421.016 222.078V225.202L409.17 225.237L393.975 210.099L393.935 188.651L409.075 173.457L421.01 173.431L421.016 176.557L410.376 176.581L397.064 189.94Z" fill="#F8F2E7"/>
<path fill-rule="evenodd" clip-rule="evenodd" d="M134.128 90.0077L99.8565 90.0706L75.6673 114.349L75.7302 148.62L100.008 172.81L134.28 172.747L158.469 148.469L158.406 114.197L134.128 90.0077ZM161.546 112.89L135.424 86.863L98.5492 86.9307L72.5227 113.053L72.5904 149.928L98.7126 175.954L135.587 175.887L161.614 149.764L161.546 112.89Z" fill="#F8F2E7"/>
<path d="M107.886 150.85L89.0292 150.824L75.6768 164.139L75.6504 174.087L72.5227 175.377L72.5527 162.84L87.7388 147.696L109.185 147.726L124.329 162.912L124.299 175.45L121.175 174.151L121.201 164.203L107.886 150.85Z" fill="#F8F2E7"/>
<path d="M145.095 150.824L126.242 150.859L112.935 164.215L112.969 174.159L109.846 175.459L109.807 162.926L124.941 147.736L146.384 147.696L161.574 162.831L161.613 175.364L158.486 174.075L158.451 164.131L145.095 150.824Z" fill="#F8F2E7"/>
<path d="M75.6492 87.562L75.6838 97.904L89.0396 111.211L107.893 111.176L121.2 97.8204L121.165 87.0325L124.288 87.0325L124.328 99.1093L109.193 114.299L87.7508 114.339L72.5608 99.2043L72.561 87.562H75.6492Z" fill="#F8F2E7"/>
<path d="M109.807 86.9451L112.971 86.9451V97.9001L126.327 111.207L145.181 111.172L158.488 97.8165V87.5094H161.615V99.1054L146.481 114.295L125.038 114.335L109.848 99.2004L109.807 86.9451Z" fill="#F8F2E7"/>
<path d="M72.5344 172.826L83.5633 172.792L96.8703 159.436L96.8356 140.582L83.4798 127.275L72.5341 127.31V124.187L84.7686 124.148L99.9586 139.282L99.998 160.725L84.8636 175.915L72.533 175.954L72.5344 172.826Z" fill="#F8F2E7"/>
<path d="M72.5227 135.933L83.5614 135.898L96.8683 122.543L96.8337 103.689L83.4778 90.3821L72.5229 90.4167V87.2938L84.7666 87.2544L99.9567 102.389L99.996 123.831L84.8617 139.021L72.5229 139.061L72.5227 135.933Z" fill="#F8F2E7"/>
<path d="M137.661 140.665L137.696 159.519L151.052 172.826L161.614 172.791V175.914L149.763 175.954L134.573 160.819L134.533 139.377L149.668 124.187L161.614 124.182V127.31L150.968 127.31L137.661 140.665Z" fill="#F8F2E7"/>
<path d="M137.662 103.777L137.697 122.636L151.058 135.946L161.614 135.916V139.039L149.769 139.075L134.573 123.936L134.533 102.488L149.674 87.2944L161.608 87.2683L161.614 90.3945L150.974 90.4182L137.662 103.777Z" fill="#F8F2E7"/>
<path fill-rule="evenodd" clip-rule="evenodd" d="M220.991 90.0077L186.72 90.0706L162.53 114.349L162.593 148.62L186.871 172.81L221.143 172.747L245.332 148.469L245.269 114.197L220.991 90.0077ZM248.409 112.89L222.287 86.863L185.412 86.9307L159.386 113.053L159.453 149.928L185.576 175.954L222.45 175.887L248.477 149.764L248.409 112.89Z" fill="#F8F2E7"/>
<path d="M194.749 150.85L175.892 150.824L162.539 164.139L162.513 174.087L159.385 175.377L159.415 162.84L174.601 147.696L196.048 147.726L211.192 162.912L211.162 175.45L208.038 174.151L208.064 164.203L194.749 150.85Z" fill="#F8F2E7"/>
<path d="M231.958 150.824L213.104 150.859L199.797 164.215L199.832 174.159L196.709 175.459L196.67 162.926L211.804 147.736L233.247 147.696L248.437 162.831L248.476 175.364L245.348 174.075L245.314 164.131L231.958 150.824Z" fill="#F8F2E7"/>
<path d="M162.512 87.562L162.546 97.904L175.902 111.211L194.756 111.176L208.063 97.8204L208.028 87.0325L211.151 87.0325L211.19 99.1093L196.056 114.299L174.613 114.339L159.423 99.2043L159.424 87.562H162.512Z" fill="#F8F2E7"/>
<path d="M196.67 86.9451L199.834 86.9451V97.9001L213.19 111.207L232.043 111.172L245.35 97.8165V87.5094H248.478V99.1054L233.344 114.295L211.901 114.335L196.711 99.2004L196.67 86.9451Z" fill="#F8F2E7"/>
<path d="M159.397 172.826L170.426 172.792L183.733 159.436L183.698 140.582L170.342 127.275L159.396 127.31V124.187L171.631 124.148L186.821 139.282L186.86 160.725L171.726 175.915L159.395 175.954L159.397 172.826Z" fill="#F8F2E7"/>
<path d="M159.385 135.933L170.424 135.898L183.731 122.543L183.696 103.689L170.34 90.3821L159.385 90.4167V87.2938L171.629 87.2544L186.819 102.389L186.859 123.831L171.724 139.021L159.385 139.061L159.385 135.933Z" fill="#F8F2E7"/>
<path d="M224.524 140.665L224.559 159.519L237.914 172.826L248.477 172.791V175.914L236.626 175.954L221.436 160.819L221.396 139.377L236.531 124.187L248.477 124.182V127.31L237.831 127.31L224.524 140.665Z" fill="#F8F2E7"/>
<path d="M224.525 103.777L224.56 122.636L237.921 135.946L248.477 135.916V139.039L236.631 139.075L221.436 123.936L221.396 102.488L236.536 87.2944L248.471 87.2683L248.477 90.3945L237.837 90.4182L224.525 103.777Z" fill="#F8F2E7"/>
<path fill-rule="evenodd" clip-rule="evenodd" d="M134.128 3.14461L99.8565 3.20751L75.6673 27.4857L75.7302 61.7573L100.008 85.9466L134.28 85.8837L158.469 61.6055L158.406 27.3338L134.128 3.14461ZM161.546 26.0265L135.424 0L98.5492 0.0676771L72.5227 26.1899L72.5904 63.0647L98.7126 89.0912L135.587 89.0235L161.614 62.9013L161.546 26.0265Z" fill="#F8F2E7"/>
<path d="M107.886 63.9861L89.0292 63.9598L75.6768 77.275L75.6504 87.2227L72.5227 88.5131L72.5527 75.9758L87.7388 60.832L109.185 60.862L124.329 76.0481L124.299 88.5854L121.175 87.2863L121.201 77.3386L107.886 63.9861Z" fill="#F8F2E7"/>
<path d="M145.095 63.9598L126.242 63.9944L112.935 77.3502L112.969 87.2945L109.846 88.5948L109.807 76.0614L124.941 60.8714L146.384 60.832L161.574 75.9664L161.613 88.4998L158.486 87.211L158.451 77.2667L145.095 63.9598Z" fill="#F8F2E7"/>
<path d="M75.6492 0.697783L75.6838 11.0397L89.0396 24.3467L107.893 24.3121L121.2 10.9562L121.165 0.168238L124.288 0.168213L124.328 12.245L109.193 27.435L87.7508 27.4744L72.5608 12.34L72.561 0.697783H75.6492Z" fill="#F8F2E7"/>
<path d="M109.807 0.0817871L112.971 0.0818646V11.0368L126.327 24.3437L145.181 24.3091L158.488 10.9532V0.64613H161.615V12.2421L146.481 27.4321L125.038 27.4714L109.848 12.3371L109.807 0.0817871Z" fill="#F8F2E7"/>
<path d="M72.5344 85.9618L83.5633 85.9272L96.8703 72.5713L96.8356 53.7179L83.4798 40.4109L72.5341 40.4455V37.3226L84.7686 37.2832L99.9586 52.4176L99.998 73.8601L84.8636 89.0502L72.533 89.0895L72.5344 85.9618Z" fill="#F8F2E7"/>
<path d="M72.5227 49.0697L83.5614 49.0351L96.8683 35.6792L96.8337 16.8258L83.4778 3.51885L72.5229 3.55346V0.430471L84.7666 0.391113L99.9567 15.5255L99.996 36.9681L84.8617 52.1581L72.5229 52.1974L72.5227 49.0697Z" fill="#F8F2E7"/>
<path d="M137.661 53.8012L137.696 72.6547L151.052 85.9616L161.614 85.927V89.05L149.763 89.0893L134.573 73.955L134.533 52.5124L149.668 37.3224L161.614 37.3176V40.4454L150.968 40.4453L137.661 53.8012Z" fill="#F8F2E7"/>
<path d="M137.662 16.913L137.697 35.7713L151.058 49.0816L161.614 49.0511V52.1749L149.769 52.2101L134.573 37.0719L134.533 15.6238L149.674 0.429907L161.608 0.403813L161.614 3.52998L150.974 3.55369L137.662 16.913Z" fill="#F8F2E7"/>
<path fill-rule="evenodd" clip-rule="evenodd" d="M220.507 3.14632L186.235 3.20922L162.046 27.4874L162.109 61.759L186.387 85.9483L220.659 85.8854L244.848 61.6072L244.785 27.3356L220.507 3.14632ZM247.925 26.0282L221.803 0.00170898L184.928 0.0693861L158.901 26.1916L158.969 63.0664L185.091 89.0929L221.966 89.0252L247.993 62.903L247.925 26.0282Z" fill="#F8F2E7"/>
<path d="M194.265 63.9905L175.408 63.9642L162.055 77.2794L162.029 87.2271L158.901 88.5175L158.931 75.9802L174.117 60.8364L195.564 60.8664L210.708 76.0525L210.678 88.5898L207.554 87.2907L207.58 77.343L194.265 63.9905Z" fill="#F8F2E7"/>
<path d="M231.474 63.9642L212.62 63.9988L199.314 77.3546L199.348 87.2989L196.225 88.5992L196.186 76.0658L211.32 60.8758L232.763 60.8364L247.953 75.9708L247.992 88.5042L244.864 87.2154L244.83 77.2711L231.474 63.9642Z" fill="#F8F2E7"/>
<path d="M162.028 0.697783L162.062 11.0397L175.418 24.3467L194.272 24.3121L207.578 10.9562L207.544 0.168238L210.667 0.168213L210.706 12.245L195.572 27.435L174.129 27.4744L158.939 12.34L158.939 0.697783H162.028Z" fill="#F8F2E7"/>
<path d="M196.186 0.0856934L199.35 0.0857709V11.0407L212.706 24.3476L231.559 24.313L244.866 10.9571V0.650036H247.994V12.246L232.86 27.436L211.417 27.4754L196.227 12.341L196.186 0.0856934Z" fill="#F8F2E7"/>
<path d="M158.913 85.9662L169.942 85.9316L183.249 72.5757L183.215 53.7223L169.859 40.4153L158.913 40.4499V37.327L171.147 37.2876L186.338 52.422L186.377 73.8645L171.243 89.0546L158.912 89.0939L158.913 85.9662Z" fill="#F8F2E7"/>
<path d="M158.901 49.0736L169.94 49.039L183.247 35.6831L183.212 16.8297L169.856 3.52276L158.902 3.55736V0.434377L171.145 0.39502L186.335 15.5294L186.375 36.972L171.24 52.162L158.902 52.2013L158.901 49.0736Z" fill="#F8F2E7"/>
<path d="M224.04 53.8051L224.075 72.6586L237.431 85.9655L247.993 85.9309V89.0539L236.142 89.0932L220.952 73.9589L220.913 52.5163L236.047 37.3263L247.993 37.3215V40.4493L237.347 40.4493L224.04 53.8051Z" fill="#F8F2E7"/>
<path d="M224.042 16.9174L224.076 35.7757L237.437 49.086L247.993 49.0555V52.1793L236.148 52.2145L220.952 37.0763L220.913 15.6282L236.053 0.434301L247.987 0.408208L247.993 3.53437L237.354 3.55809L224.042 16.9174Z" fill="#F8F2E7"/>
<path fill-rule="evenodd" clip-rule="evenodd" d="M307.151 90.0077L272.879 90.0706L248.69 114.349L248.753 148.62L273.031 172.81L307.303 172.747L331.492 148.469L331.429 114.197L307.151 90.0077ZM334.569 112.89L308.447 86.863L271.572 86.9307L245.546 113.053L245.613 149.928L271.736 175.954L308.61 175.887L334.637 149.764L334.569 112.89Z" fill="#F8F2E7"/>
<path d="M280.909 150.85L262.052 150.824L248.7 164.139L248.673 174.087L245.546 175.377L245.576 162.84L260.762 147.696L282.208 147.726L297.352 162.912L297.322 175.45L294.198 174.151L294.224 164.203L280.909 150.85Z" fill="#F8F2E7"/>
<path d="M318.118 150.824L299.265 150.859L285.958 164.215L285.992 174.159L282.869 175.459L282.83 162.926L297.964 147.736L319.407 147.696L334.597 162.831L334.636 175.364L331.508 174.075L331.474 164.131L318.118 150.824Z" fill="#F8F2E7"/>
<path d="M248.672 87.562L248.707 97.904L262.063 111.211L280.916 111.176L294.223 97.8204L294.188 87.0325L297.311 87.0325L297.351 99.1093L282.216 114.299L260.774 114.339L245.584 99.2043L245.584 87.562H248.672Z" fill="#F8F2E7"/>
<path d="M282.83 86.9451L285.994 86.9451V97.9001L299.35 111.207L318.203 111.172L331.51 97.8165V87.5094H334.638V99.1054L319.504 114.295L298.061 114.335L282.871 99.2004L282.83 86.9451Z" fill="#F8F2E7"/>
<path d="M245.557 172.826L256.586 172.792L269.893 159.436L269.858 140.582L256.502 127.275L245.557 127.31V124.187L257.791 124.148L272.981 139.282L273.021 160.725L257.886 175.915L245.556 175.954L245.557 172.826Z" fill="#F8F2E7"/>
<path d="M245.546 135.933L256.584 135.898L269.891 122.543L269.857 103.689L256.501 90.3821L245.546 90.4167V87.2938L257.79 87.2544L272.98 102.389L273.019 123.831L257.885 139.021L245.546 139.061L245.546 135.933Z" fill="#F8F2E7"/>
<path d="M310.684 140.665L310.719 159.519L324.075 172.826L334.637 172.791V175.914L322.786 175.954L307.596 160.819L307.557 139.377L322.691 124.187L334.637 124.182V127.31L323.991 127.31L310.684 140.665Z" fill="#F8F2E7"/>
<path d="M310.686 103.777L310.72 122.636L324.081 135.946L334.637 135.916V139.039L322.792 139.075L307.596 123.936L307.557 102.488L322.697 87.2944L334.631 87.2683L334.637 90.3945L323.998 90.4182L310.686 103.777Z" fill="#F8F2E7"/>
<path fill-rule="evenodd" clip-rule="evenodd" d="M394.014 90.0077L359.743 90.0706L335.554 114.349L335.616 148.62L359.895 172.81L394.166 172.747L418.355 148.469L418.293 114.197L394.014 90.0077ZM421.432 112.89L395.31 86.863L358.435 86.9307L332.409 113.053L332.477 149.928L358.599 175.954L395.474 175.887L421.5 149.764L421.432 112.89Z" fill="#F8F2E7"/>
<path d="M367.772 150.85L348.915 150.824L335.563 164.139L335.536 174.087L332.408 175.377L332.438 162.84L347.625 147.696L369.071 147.726L384.215 162.912L384.185 175.45L381.061 174.151L381.087 164.203L367.772 150.85Z" fill="#F8F2E7"/>
<path d="M404.981 150.824L386.127 150.859L372.82 164.215L372.855 174.159L369.732 175.459L369.693 162.926L384.827 147.736L406.27 147.696L421.46 162.831L421.499 175.364L418.371 174.075L418.337 164.131L404.981 150.824Z" fill="#F8F2E7"/>
<path d="M335.535 87.562L335.569 97.904L348.925 111.211L367.779 111.176L381.086 97.8204L381.051 87.0325L384.174 87.0325L384.213 99.1093L369.079 114.299L347.636 114.339L332.446 99.2043L332.446 87.562H335.535Z" fill="#F8F2E7"/>
<path d="M369.693 86.9451L372.857 86.9451V97.9001L386.213 111.207L405.066 111.172L418.373 97.8165V87.5094H421.501V99.1054L406.367 114.295L384.924 114.335L369.734 99.2004L369.693 86.9451Z" fill="#F8F2E7"/>
<path d="M332.42 172.826L343.449 172.792L356.756 159.436L356.721 140.582L343.365 127.275L332.419 127.31V124.187L344.654 124.148L359.844 139.282L359.883 160.725L344.749 175.915L332.418 175.954L332.42 172.826Z" fill="#F8F2E7"/>
<path d="M332.408 135.933L343.447 135.898L356.754 122.543L356.719 103.689L343.364 90.3821L332.409 90.4167V87.2938L344.652 87.2544L359.842 102.389L359.882 123.831L344.747 139.021L332.409 139.061L332.408 135.933Z" fill="#F8F2E7"/>
<path d="M397.547 140.665L397.582 159.519L410.937 172.826L421.5 172.791V175.914L409.649 175.954L394.459 160.819L394.419 139.377L409.554 124.187L421.5 124.182V127.31L410.854 127.31L397.547 140.665Z" fill="#F8F2E7"/>
<path d="M397.548 103.777L397.583 122.636L410.944 135.946L421.5 135.916V139.039L409.654 139.075L394.459 123.936L394.419 102.488L409.559 87.2944L421.494 87.2683L421.5 90.3945L410.86 90.4182L397.548 103.777Z" fill="#F8F2E7"/>
<path fill-rule="evenodd" clip-rule="evenodd" d="M307.151 3.14461L272.879 3.20751L248.69 27.4857L248.753 61.7573L273.031 85.9466L307.303 85.8837L331.492 61.6055L331.429 27.3338L307.151 3.14461ZM334.569 26.0265L308.447 0L271.572 0.0676771L245.546 26.1899L245.613 63.0647L271.736 89.0912L308.61 89.0235L334.637 62.9013L334.569 26.0265Z" fill="#F8F2E7"/>
<path d="M280.909 63.9861L262.052 63.9598L248.7 77.275L248.673 87.2227L245.546 88.5131L245.576 75.9758L260.762 60.832L282.208 60.862L297.352 76.0481L297.322 88.5854L294.198 87.2863L294.224 77.3386L280.909 63.9861Z" fill="#F8F2E7"/>
<path d="M318.118 63.9598L299.265 63.9944L285.958 77.3502L285.992 87.2945L282.869 88.5948L282.83 76.0614L297.964 60.8714L319.407 60.832L334.597 75.9664L334.636 88.4998L331.508 87.211L331.474 77.2667L318.118 63.9598Z" fill="#F8F2E7"/>
<path d="M248.672 0.697783L248.707 11.0397L262.063 24.3467L280.916 24.3121L294.223 10.9562L294.188 0.168238L297.311 0.168213L297.351 12.245L282.216 27.435L260.774 27.4744L245.584 12.34L245.584 0.697783H248.672Z" fill="#F8F2E7"/>
<path d="M282.83 0.0817871L285.994 0.0818646V11.0368L299.35 24.3437L318.203 24.3091L331.51 10.9532V0.64613H334.638V12.2421L319.504 27.4321L298.061 27.4714L282.871 12.3371L282.83 0.0817871Z" fill="#F8F2E7"/>
<path d="M245.557 85.9618L256.586 85.9272L269.893 72.5713L269.858 53.7179L256.502 40.4109L245.557 40.4455V37.3226L257.791 37.2832L272.981 52.4176L273.021 73.8601L257.886 89.0502L245.556 89.0895L245.557 85.9618Z" fill="#F8F2E7"/>
<path d="M245.546 49.0697L256.584 49.0351L269.891 35.6792L269.857 16.8258L256.501 3.51885L245.546 3.55346V0.430471L257.79 0.391113L272.98 15.5255L273.019 36.9681L257.885 52.1581L245.546 52.1974L245.546 49.0697Z" fill="#F8F2E7"/>
<path d="M310.684 53.8012L310.719 72.6547L324.075 85.9616L334.637 85.927V89.05L322.786 89.0893L307.596 73.955L307.557 52.5124L322.691 37.3224L334.637 37.3176V40.4454L323.991 40.4453L310.684 53.8012Z" fill="#F8F2E7"/>
<path d="M310.686 16.913L310.72 35.7713L324.081 49.0816L334.637 49.0511V52.1749L322.792 52.2101L307.596 37.0719L307.557 15.6238L322.697 0.429907L334.631 0.403813L334.637 3.52998L323.998 3.55369L310.686 16.913Z" fill="#F8F2E7"/>
<path fill-rule="evenodd" clip-rule="evenodd" d="M393.53 3.14632L359.258 3.20922L335.069 27.4874L335.132 61.759L359.41 85.9483L393.682 85.8854L417.871 61.6072L417.808 27.3356L393.53 3.14632ZM420.948 26.0282L394.826 0.00170898L357.951 0.0693861L331.924 26.1916L331.992 63.0664L358.114 89.0929L394.989 89.0252L421.015 62.903L420.948 26.0282Z" fill="#F8F2E7"/>
<path d="M367.288 63.9905L348.431 63.9642L335.078 77.2794L335.052 87.2271L331.924 88.5175L331.954 75.9802L347.14 60.8364L368.587 60.8664L383.731 76.0525L383.701 88.5898L380.577 87.2907L380.603 77.343L367.288 63.9905Z" fill="#F8F2E7"/>
<path d="M404.497 63.9642L385.643 63.9988L372.336 77.3546L372.371 87.2989L369.248 88.5992L369.208 76.0658L384.343 60.8758L405.785 60.8364L420.975 75.9708L421.015 88.5042L417.887 87.2154L417.852 77.2711L404.497 63.9642Z" fill="#F8F2E7"/>
<path d="M335.051 0.697783L335.085 11.0397L348.441 24.3467L367.295 24.3121L380.602 10.9562L380.567 0.168238L383.69 0.168213L383.729 12.245L368.595 27.435L347.152 27.4744L331.962 12.34L331.963 0.697783H335.051Z" fill="#F8F2E7"/>
<path d="M369.208 0.0856934L372.373 0.0857709V11.0407L385.729 24.3476L404.582 24.313L417.889 10.9571V0.650036H421.017V12.246L405.882 27.436L384.44 27.4754L369.25 12.341L369.208 0.0856934Z" fill="#F8F2E7"/>
<path d="M331.936 85.9662L342.965 85.9316L356.272 72.5757L356.238 53.7223L342.882 40.4153L331.936 40.4499V37.327L344.17 37.2876L359.36 52.422L359.4 73.8645L344.265 89.0546L331.935 89.0939L331.936 85.9662Z" fill="#F8F2E7"/>
<path d="M331.924 49.0736L342.963 49.039L356.27 35.6831L356.235 16.8297L342.879 3.52276L331.924 3.55736V0.434377L344.168 0.39502L359.358 15.5294L359.398 36.972L344.263 52.162L331.924 52.2013L331.924 49.0736Z" fill="#F8F2E7"/>
<path d="M397.063 53.8051L397.098 72.6586L410.454 85.9655L421.016 85.9309V89.0539L409.165 89.0932L393.975 73.9589L393.935 52.5163L409.07 37.3263L421.016 37.3215V40.4493L410.37 40.4493L397.063 53.8051Z" fill="#F8F2E7"/>
<path d="M397.064 16.9174L397.099 35.7757L410.46 49.086L421.016 49.0555V52.1793L409.17 52.2145L393.975 37.0763L393.935 15.6282L409.075 0.434301L421.01 0.408208L421.016 3.53437L410.376 3.55809L397.064 16.9174Z" fill="#F8F2E7"/>
</g>
<defs>
<clipPath id="clip0">
<rect width="421" height="508" fill="white"/>
</clipPath>
</defs>
</svg>
