<svg width="45" height="45" viewBox="0 0 45 45" fill="none" xmlns="http://www.w3.org/2000/svg">
<path fill-rule="evenodd" clip-rule="evenodd" d="M29.4426 21.7058L38.0978 21.6899L44.2068 15.5585L44.1909 6.90323L38.0595 0.794262L29.4042 0.810147L23.2952 6.94158L23.3111 15.5969L29.4426 21.7058ZM22.5182 15.927L29.1153 22.5L38.428 22.4829L45.001 15.8858L44.9839 6.57307L38.3867 9.22219e-05L29.074 0.0171823L22.5011 6.61433L22.5182 15.927Z" fill="#DB5B35"/>
<path d="M36.0697 6.33991L40.832 6.34657L44.2042 2.98383L44.2108 0.471539L45.0007 0.145641L44.9932 3.31193L41.1579 7.13647L35.7416 7.12891L31.9171 3.29366L31.9247 0.127371L32.7136 0.455475L32.707 2.96776L36.0697 6.33991Z" fill="#DB5B35"/>
<path d="M26.672 6.34657L31.4334 6.33783L34.7941 2.96481L34.7853 0.453391L35.574 0.125L35.584 3.29031L31.7618 7.12654L26.3465 7.13647L22.5103 3.3143L22.5003 0.148994L23.2902 0.474488L23.299 2.98591L26.672 6.34657Z" fill="#DB5B35"/>
<path d="M44.2112 22.3241L44.2025 19.7123L40.8295 16.3516L36.0681 16.3604L32.7074 19.7334L32.7161 22.4579L31.9274 22.4579L31.9175 19.4079L35.7397 15.5717L41.155 15.5617L44.9912 19.3839L44.9912 22.3241H44.2112Z" fill="#DB5B35"/>
<path d="M35.584 22.4789L34.7848 22.4789V19.7122L31.4118 16.3516L26.6504 16.3603L23.2897 19.7333V22.3364H22.4998V19.4078L26.322 15.5716L31.7373 15.5616L35.5735 19.3838L35.584 22.4789Z" fill="#DB5B35"/>
<path d="M44.9982 0.789878L42.2128 0.798616L38.8522 4.17163L38.8609 8.93305L42.2339 12.2937L44.9982 12.285V13.0737L41.9084 13.0836L38.0722 9.26144L38.0623 3.84614L41.8844 0.00990868L44.9985 -3.05176e-05L44.9982 0.789878Z" fill="#DB5B35"/>
<path d="M45.0007 10.1071L42.2129 10.1159L38.8523 13.4889L38.861 18.2503L42.234 21.611L45.0007 21.6022V22.3909L41.9085 22.4009L38.0723 18.5787L38.0624 13.1634L41.8845 9.32717L45.0007 9.31723L45.0007 10.1071Z" fill="#DB5B35"/>
<path d="M28.5502 8.91203L28.5414 4.15061L25.1684 0.789956L22.5009 0.798696V0.00998497L25.4939 4.95911e-05L29.3301 3.82222L29.3401 9.23753L25.5179 13.0738L22.5009 13.075V12.285L25.1895 12.285L28.5502 8.91203Z" fill="#DB5B35"/>
<path d="M28.5499 18.2281L28.5411 13.4654L25.1668 10.1039L22.5009 10.1116V9.32271L25.4925 9.31381L29.3301 13.137L29.3401 18.5537L25.5165 22.3909L22.5024 22.3975L22.5009 21.6079L25.1879 21.602L28.5499 18.2281Z" fill="#DB5B35"/>
<path fill-rule="evenodd" clip-rule="evenodd" d="M6.94256 21.7058L15.5978 21.6899L21.7068 15.5585L21.6909 6.90323L15.5595 0.794262L6.90421 0.810147L0.795239 6.94158L0.811124 15.5969L6.94256 21.7058ZM0.0181589 15.927L6.61531 22.5L15.928 22.4829L22.501 15.8858L22.4839 6.57307L15.8867 9.22219e-05L6.57405 0.0171823L0.00106878 6.61433L0.0181589 15.927Z" fill="#E7CB97"/>
<path d="M13.5697 6.33991L18.332 6.34657L21.7042 2.98383L21.7108 0.471539L22.5007 0.145641L22.4932 3.31193L18.6579 7.13647L13.2416 7.12891L9.41708 3.29366L9.42465 0.127371L10.2136 0.455475L10.207 2.96776L13.5697 6.33991Z" fill="#E7CB97"/>
<path d="M4.172 6.34657L8.93342 6.33783L12.2941 2.96481L12.2853 0.453391L13.074 0.125L13.084 3.29031L9.26181 7.12654L3.8465 7.13647L0.0102758 3.3143L0.000336647 0.148994L0.790243 0.474488L0.798984 2.98591L4.172 6.34657Z" fill="#E7CB97"/>
<path d="M21.7112 22.3241L21.7025 19.7123L18.3295 16.3516L13.5681 16.3604L10.2074 19.7334L10.2161 22.4579L9.42744 22.4579L9.4175 19.4079L13.2397 15.5717L18.655 15.5617L22.4912 19.3839L22.4912 22.3241H21.7112Z" fill="#E7CB97"/>
<path d="M13.084 22.4789L12.2848 22.4789V19.7122L8.91183 16.3516L4.1504 16.3603L0.789745 19.7333V22.3364H-0.000161171V19.4078L3.82201 15.5716L9.23732 15.5616L13.0735 19.3838L13.084 22.4789Z" fill="#E7CB97"/>
<path d="M22.4982 0.789878L19.7128 0.798616L16.3522 4.17163L16.3609 8.93305L19.7339 12.2937L22.4982 12.285V13.0737L19.4084 13.0836L15.5722 9.26144L15.5623 3.84614L19.3844 0.00990868L22.4985 -3.05176e-05L22.4982 0.789878Z" fill="#E7CB97"/>
<path d="M22.5007 10.1071L19.7129 10.1159L16.3523 13.4889L16.361 18.2503L19.734 21.611L22.5007 21.6022V22.3909L19.4085 22.4009L15.5723 18.5787L15.5624 13.1634L19.3845 9.32717L22.5007 9.31723L22.5007 10.1071Z" fill="#E7CB97"/>
<path d="M6.05018 8.91203L6.04144 4.15061L2.66843 0.789956L0.000907898 0.798696V0.00998497L2.99392 4.95911e-05L6.83015 3.82222L6.84009 9.23753L3.01792 13.0738L0.000907898 13.075V12.285L2.68952 12.285L6.05018 8.91203Z" fill="#E7CB97"/>
<path d="M6.04988 18.2281L6.04114 13.4654L2.66684 10.1039L0.000907898 10.1116V9.32271L2.99246 9.31381L6.83014 13.137L6.84009 18.5537L3.01646 22.3909L0.00235748 22.3975L0.000907898 21.6079L2.68795 21.602L6.04988 18.2281Z" fill="#E7CB97"/>
<path fill-rule="evenodd" clip-rule="evenodd" d="M6.94207 44.2058L15.5973 44.1899L21.7063 38.0585L21.6904 29.4032L15.559 23.2943L6.90372 23.3101L0.79475 29.4416L0.810635 38.0969L6.94207 44.2058ZM0.0176706 38.427L6.61482 45L15.9275 44.9829L22.5005 38.3858L22.4834 29.0731L15.8862 22.5001L6.57356 22.5172L0.000580503 29.1143L0.0176706 38.427Z" fill="#DB5B35"/>
<path d="M13.57 28.8402L18.3323 28.8468L21.7044 25.4841L21.7111 22.9718L22.501 22.6459L22.4934 25.8122L18.6582 29.6367L13.2419 29.6292L9.41733 25.7939L9.42489 22.6276L10.2139 22.9557L10.2072 25.468L13.57 28.8402Z" fill="#DB5B35"/>
<path d="M4.17224 28.8468L8.93366 28.8381L12.2943 25.4651L12.2856 22.9536L13.0743 22.6252L13.0842 25.7906L9.26206 29.6268L3.84675 29.6367L0.01052 25.8145L0.000580788 22.6492L0.790487 22.9747L0.799228 25.4862L4.17224 28.8468Z" fill="#DB5B35"/>
<path d="M21.7115 44.8241L21.7027 42.2123L18.3297 38.8516L13.5683 38.8604L10.2077 42.2334L10.2164 44.9579L9.42769 44.9579L9.41775 41.9079L13.2399 38.0717L18.6552 38.0617L22.4915 41.8839L22.4914 44.8241H21.7115Z" fill="#DB5B35"/>
<path d="M13.0842 44.9791L12.2851 44.9791V42.2125L8.91207 38.8518L4.15065 38.8605L0.789989 42.2335V44.8366H8.29697e-05V41.9081L3.82226 38.0718L9.23756 38.0619L13.0738 41.8841L13.0842 44.9791Z" fill="#DB5B35"/>
<path d="M22.4984 23.2899L19.7131 23.2986L16.3524 26.6716L16.3612 31.4331L19.7342 34.7937L22.4985 34.785V35.5737L19.4087 35.5836L15.5724 31.7614L15.5625 26.3461L19.3847 22.5099L22.4988 22.5L22.4984 23.2899Z" fill="#DB5B35"/>
<path d="M22.501 32.6074L19.7132 32.6161L16.3525 35.9891L16.3613 40.7506L19.7343 44.1112L22.5009 44.1025V44.8912L19.4088 44.9011L15.5726 41.0789L15.5626 35.6636L19.3848 31.8274L22.5009 31.8175L22.501 32.6074Z" fill="#DB5B35"/>
<path d="M6.05042 31.412L6.04168 26.6506L2.66867 23.29L0.00115204 23.2987V22.51L2.99416 22.5L6.83039 26.3222L6.84033 31.7375L3.01816 35.5738L0.00115204 35.575V34.785L2.68977 34.785L6.05042 31.412Z" fill="#DB5B35"/>
<path d="M6.05012 40.7282L6.04138 35.9656L2.66708 32.604L0.00115204 32.6117V31.8228L2.9927 31.8139L6.83039 35.6371L6.84033 41.0538L3.01671 44.891L0.00260162 44.8976L0.00115204 44.1081L2.68819 44.1021L6.05012 40.7282Z" fill="#DB5B35"/>
</svg>
