<svg width="138" height="47" viewBox="0 0 138 47" fill="none" xmlns="http://www.w3.org/2000/svg">
<path d="M26.4 11.3C26.4 11.8 15.3 31 11.8 37.3C9.5 41.4 6.95 45.15 6.95 45.65C6.95 45.85 6.95 46.05 7.3 46.05C7.75 46.05 7.7 45.65 9.9 45.15C13.05 44.4 12.65 45.3 14.65 41.15C19.3 31.5 25.6 18.9 32 7.5C34.8 5.1 36.4 2.7 36.4 1.6C36.4 1.1 36.3 0.699998 35.7 0.699998C34.8 0.699998 33.3 1.6 31.8 2.4C29.7 3.6 28.9 7.4 27.7 8.7C26 10.4 24.1 12.2 18.9 16.45C13.05 21.2 8.4 24.3 1.5 28.4C0.9 28.75 0.6 28.8 0.6 29.1C0.6 29.25 0.7 29.35 0.9 29.35C1.05 29.35 2.55 29.15 2.9 28.95C6.65 26.8 14.05 21.7 19.35 17.15C21.45 15.35 26.2 11.25 26.35 11.25C26.4 11.25 26.4 11.3 26.4 11.3ZM59.3941 2.45C64.1441 2.45 64.1441 5.15 64.1441 6.05C64.1441 8.75 62.3941 13.3 60.4441 17.5C57.5941 19.75 55.4441 22.05 51.1941 22.05C48.7441 22.05 46.8941 19.75 46.8941 15.55C46.8941 9.05 53.5941 2.45 59.3941 2.45ZM42.5941 15.9C42.5941 21.6 45.7441 23.6 48.8941 23.6C53.7941 23.6 57.1941 21 59.6941 19.3C56.6441 26.35 54.6941 32.15 52.0441 36.4C49.6441 40.25 45.7441 44.55 40.4941 44.55C36.7941 44.55 34.1941 42.15 34.1941 38.6C34.1941 35.1 36.0941 31.6 38.2941 31.6C38.6941 31.6 38.9941 31.7 39.1941 31.7C39.3941 31.7 39.4941 31.6 39.4941 31.4C39.4941 31 39.1941 31 38.7941 31C37.9941 31 36.6941 31.8 34.9941 32.1C32.4941 32.5 30.1941 34.8 30.1941 39C30.1941 43.55 33.5441 46.15 38.0941 46.15C44.8441 46.15 50.3941 41.6 54.2941 36.45C57.2941 32.45 59.5941 27.75 63.4441 19.4C64.2941 17.55 68.0941 10.4 68.0941 6.8C68.0941 2.4 64.5941 0.699998 61.5441 0.699998C52.1441 0.699998 42.5941 8.55 42.5941 15.9ZM93.9156 2.45C98.6656 2.45 98.6656 5.15 98.6656 6.05C98.6656 8.75 96.9156 13.3 94.9656 17.5C92.1156 19.75 89.9656 22.05 85.7156 22.05C83.2656 22.05 81.4156 19.75 81.4156 15.55C81.4156 9.05 88.1156 2.45 93.9156 2.45ZM77.1156 15.9C77.1156 21.6 80.2656 23.6 83.4156 23.6C88.3156 23.6 91.7156 21 94.2156 19.3C91.1656 26.35 89.2156 32.15 86.5656 36.4C84.1656 40.25 80.2656 44.55 75.0156 44.55C71.3156 44.55 68.7156 42.15 68.7156 38.6C68.7156 35.1 70.6156 31.6 72.8156 31.6C73.2156 31.6 73.5156 31.7 73.7156 31.7C73.9156 31.7 74.0156 31.6 74.0156 31.4C74.0156 31 73.7156 31 73.3156 31C72.5156 31 71.2156 31.8 69.5156 32.1C67.0156 32.5 64.7156 34.8 64.7156 39C64.7156 43.55 68.0656 46.15 72.6156 46.15C79.3656 46.15 84.9156 41.6 88.8156 36.45C91.8156 32.45 94.1156 27.75 97.9656 19.4C98.8156 17.55 102.616 10.4 102.616 6.8C102.616 2.4 99.1156 0.699998 96.0656 0.699998C86.6656 0.699998 77.1156 8.55 77.1156 15.9ZM118.937 20.7C122.187 24.55 124.937 28.2 124.937 32.75C124.937 39.85 118.637 43.65 112.537 43.65C106.837 43.65 104.237 39.75 104.237 35.85C104.237 29.25 109.787 25.25 115.337 22.5L118.937 20.7ZM129.937 15.1C131.187 14.65 131.837 14.55 131.837 14.35C131.837 14.2 131.587 14 131.437 14C131.187 14 130.537 14.35 129.587 14.75C127.487 15.6 123.737 17.35 121.637 18.3C120.037 16.45 119.237 13.85 119.237 11.3C119.237 5.75 122.837 2.3 128.037 2.3C131.737 2.3 133.437 5.3 133.437 7.9C133.437 11.1 131.137 13 129.437 13C128.937 13 128.737 12.8 128.437 12.8C128.037 12.8 127.837 13 127.837 13.2C127.837 13.5 128.037 13.7 128.537 13.7C132.237 13.7 137.337 11.2 137.337 6.7C137.337 4 134.637 0.699998 130.537 0.699998C124.637 0.699998 115.537 5.2 115.537 12.55C115.537 14.95 116.587 17.95 118.337 20L114.787 21.5C107.787 24.45 99.9871 29.7 99.9871 36.7C99.9871 41.85 103.437 46.25 110.587 46.25C115.787 46.25 128.737 39.5 128.737 31.1C128.737 26.15 125.387 21.95 122.237 18.9C125.537 17.05 128.937 15.5 129.937 15.1Z" fill="#BE3E18"/>
</svg>
