<svg width="73" height="68" viewBox="0 0 73 68" fill="none" xmlns="http://www.w3.org/2000/svg">
<g clip-path="url(#clip0)">
<path d="M63.266 20.6573C62.4272 18.8944 61.7021 17.0177 60.8775 15.2548C59.8397 12.9659 58.9013 10.6769 57.8635 8.38799C57.3375 7.25063 57.6502 5.99953 58.489 5.37398C59.4274 4.64892 60.8775 4.74844 61.8158 5.58724C62.4414 6.21279 62.9532 6.93786 63.266 7.77666C63.3655 7.87618 63.3655 8.08943 63.3655 8.18895C63.3655 12.2408 63.3655 16.3069 63.3655 20.3587C63.3797 20.444 63.3797 20.5578 63.266 20.6573C63.266 20.5578 63.266 20.5578 63.266 20.6573Z" fill="#00AF87"/>
<path d="M9.29785 20.5578C9.29785 19.8327 9.29785 19.1077 9.29785 18.3684C9.29785 14.9421 9.29785 11.6153 9.29785 8.17479C9.29785 7.86201 9.39737 7.44972 9.61063 7.13694C10.0229 6.41188 10.5489 5.68681 11.3735 5.16078C12.3119 4.63475 13.563 4.74848 14.288 5.37403C15.0131 5.99958 15.2263 7.25068 14.8141 8.17479C13.0511 12.2266 11.274 16.2927 9.51111 20.4441C9.41159 20.4441 9.41159 20.5578 9.29785 20.5578C9.41159 20.5578 9.29785 20.5578 9.29785 20.5578Z" fill="#00AF87"/>
<path d="M24.8939 54.6643C24.6806 54.6643 24.3679 54.6643 24.1688 54.6643C20.2165 54.6643 16.1646 54.6643 12.2123 54.6643C11.5868 54.6643 11.1745 54.4511 10.6484 54.1383C9.92336 53.5128 9.29781 52.6882 9.1983 51.6361C9.09878 50.7973 9.51107 50.0722 10.2361 49.6599C10.9612 49.2476 11.6863 49.1339 12.5251 49.1339C12.6246 49.1339 12.7383 49.1339 12.8379 49.2334C16.7902 50.9963 20.7425 52.6597 24.6948 54.4369C24.8939 54.5506 24.8939 54.5506 24.8939 54.6643C24.8939 54.5506 24.8939 54.6643 24.8939 54.6643Z" fill="#00AF87"/>
<path d="M47.7837 54.5507C48.6225 54.1384 49.5466 53.8256 50.3854 53.4133C53.3994 52.0627 56.4134 50.7121 59.4274 49.461C60.4653 49.0487 62.2282 49.3615 62.9675 50.186C63.4935 50.8116 63.593 52.0627 63.067 52.8873C62.7542 53.4133 62.3419 53.8256 61.9296 54.2379C61.6169 54.5507 61.0908 54.6502 60.579 54.7639C56.4134 54.7639 52.1625 54.7639 47.9969 54.7639C47.8832 54.6644 47.7837 54.6644 47.7837 54.5507C47.7837 54.6644 47.7837 54.5507 47.7837 54.5507Z" fill="#00AF87"/>
<path d="M7.74866 30.8509C7.33637 29.813 6.81034 28.7752 6.39804 27.7373C5.3602 25.3489 4.20862 22.8467 3.17078 20.4582C2.54523 19.0081 2.75849 17.5437 3.58307 16.1931C4.30814 15.1553 6.08527 14.743 7.12311 15.3543C7.53541 15.5676 7.84818 15.8803 7.84818 16.4917C7.84818 21.1691 7.84818 25.9602 7.84818 30.6376C7.84818 30.6376 7.84818 30.7371 7.74866 30.8509C7.84818 30.8509 7.74866 30.8509 7.74866 30.8509Z" fill="#00AF87"/>
<path d="M64.8296 30.8509C64.8296 29.9126 64.8296 28.9743 64.8296 27.9364C64.8296 24.1974 64.8296 20.3445 64.8296 16.6055C64.8296 15.7667 65.1424 15.3544 65.8674 15.1553C67.1185 14.743 68.7819 15.3686 69.2937 16.6055C69.9193 17.9561 70.0188 19.3067 69.3932 20.6573C67.9431 23.8846 66.5925 27.0976 65.1281 30.3249C65.1424 30.5382 65.0428 30.6377 64.8296 30.8509C64.9291 30.8509 64.8296 30.8509 64.8296 30.8509Z" fill="#00AF87"/>
<path d="M56.6123 49.1483C56.7118 49.0487 56.7118 48.935 56.8256 48.8355C60.0528 45.6082 63.2659 42.2814 66.6069 39.0542C67.1329 38.5281 67.858 38.4286 68.583 38.7414C69.7204 39.1537 70.2464 40.5043 69.8341 41.7554C69.4218 43.0065 68.583 43.9448 67.7584 44.7694C67.6589 44.8689 67.5452 44.8689 67.4457 44.8689C63.9056 46.2195 60.3798 47.6697 56.8398 49.0345C56.8256 49.0487 56.8256 49.1483 56.6123 49.1483Z" fill="#00AF87"/>
<path d="M15.9518 49.1483C14.9139 48.736 13.8761 48.3094 12.8382 47.8972C10.336 46.9588 7.84807 45.921 5.34588 44.9827C5.24636 44.9827 5.0331 44.8831 5.0331 44.7694C3.99526 43.7316 2.95742 42.58 2.74416 41.0303C2.53091 39.4807 4.1943 38.1158 5.65865 38.7414C5.8719 38.8409 5.97142 38.9546 6.18468 39.0542C9.41194 42.2814 12.625 45.4945 15.8523 48.8355C15.8523 48.935 15.9518 49.0487 15.9518 49.1483C15.9518 49.0487 15.9518 49.1483 15.9518 49.1483Z" fill="#00AF87"/>
<path d="M10.0231 40.618C9.9236 40.5185 9.80987 40.4048 9.71035 40.3052C6.9096 37.5045 4.09463 34.6895 1.39339 31.8888C0.355549 30.8509 0.142294 28.8748 1.08062 27.6237C1.80569 26.6853 3.05678 26.4863 4.19414 27.2114C4.81969 27.6237 5.33151 28.2492 5.64428 28.9743C7.09442 32.7134 8.65829 36.5662 10.1226 40.3052C10.0231 40.419 10.0231 40.5185 10.0231 40.618Z" fill="#00AF87"/>
<path d="M62.541 40.5185C62.9533 39.3811 63.3798 38.329 63.7921 37.1917C64.83 34.4904 65.9815 31.7892 67.0194 29.0738C67.3321 28.235 67.8582 27.6236 68.5832 27.1971C69.8343 26.3583 71.384 26.7848 71.91 28.1354C72.3223 29.0738 72.2228 30.1116 71.91 31.0499C71.8105 31.2632 71.5973 31.576 71.384 31.775C68.4695 34.6895 65.6688 37.4902 62.7543 40.4047C62.7543 40.5185 62.7543 40.5185 62.541 40.5185C62.6548 40.618 62.541 40.618 62.541 40.5185Z" fill="#00AF87"/>
<path d="M57.9633 11.8143C56.8259 10.677 55.6743 9.52538 54.537 8.38802C53.8119 7.66295 52.9731 7.0374 52.3476 6.1986C51.9353 5.67257 51.5087 5.06123 51.3097 4.43569C50.9969 3.39784 50.8974 2.24626 51.2102 1.20842C51.3097 0.369619 51.9353 -0.0426745 52.6603 0.0710617C52.8736 0.0710617 53.0726 0.284317 53.1864 0.383836C54.8497 4.12291 56.4136 7.8762 57.9633 11.6153C58.077 11.7148 57.9633 11.7148 57.9633 11.8143Z" fill="#00AF87"/>
<path d="M14.7144 11.6153C15.5532 9.73864 16.3777 7.76248 17.1028 5.90005C17.8279 4.13714 18.5529 2.36001 19.3918 0.597102C19.7045 -0.0284468 20.5291 -0.241702 21.0551 0.383847C21.2684 0.696621 21.4674 1.10891 21.5812 1.52121C21.7944 2.97134 21.6807 4.4357 20.7424 5.68679C20.4296 6.09909 19.9036 6.5256 19.4913 6.93789C18.0411 8.38803 16.5768 9.85238 15.1266 11.3025C15.0271 11.402 14.9134 11.6153 14.8139 11.7148C14.8139 11.7148 14.7144 11.7148 14.7144 11.6153Z" fill="#00AF87"/>
<path d="M56.1994 35.4998H55.915V34.3198H56.3273C56.5406 34.3198 56.7965 34.3483 56.7965 34.661C56.8107 34.8174 56.697 34.9454 56.5548 34.9738L56.8391 35.4998H56.5264L56.2847 35.0165H56.1852V35.4998H56.1994ZM56.1994 34.8316C56.2705 34.8459 56.3558 34.8316 56.4268 34.8174C56.5121 34.789 56.5264 34.7179 56.5264 34.661C56.5264 34.5757 56.4979 34.5331 56.4411 34.5189C56.37 34.5046 56.2847 34.4904 56.1994 34.5046V34.8316Z" fill="black"/>
<path d="M27.4386 38.4854C25.0644 38.4854 23.1309 40.4047 23.1309 42.7932C23.1309 45.1817 25.0502 47.1009 27.4386 47.1009C29.8129 47.1009 31.7322 45.1817 31.7464 42.7932C31.7464 40.4047 29.8129 38.4854 27.4386 38.4854ZM27.4386 45.7645C25.7895 45.7645 24.4531 44.4281 24.4531 42.779C24.4531 41.1298 25.7895 39.7934 27.4386 39.7934C29.0878 39.7934 30.4242 41.1298 30.4242 42.779C30.4242 44.4281 29.0878 45.7645 27.4386 45.7645ZM54.2093 34.0639H48.2808C44.7407 31.8176 40.6036 30.6661 36.4096 30.7656C32.116 30.6803 27.9078 31.8176 24.254 34.0639H18.6099C19.4771 35.0876 20.0884 36.296 20.387 37.604C17.5009 41.5563 18.3682 47.1009 22.3347 49.9728C26.1449 52.7451 31.4621 52.0485 34.4192 48.3805C35.1443 49.2619 35.8125 50.186 36.3954 51.167C36.3954 51.167 37.6749 49.2619 38.3857 48.3947C41.4708 52.1906 47.0439 52.7735 50.8399 49.6884C54.4936 46.7171 55.1903 41.4141 52.4179 37.604C52.7307 36.296 53.3278 35.0876 54.2093 34.0639ZM27.5382 49.9301C23.6 49.9301 20.4012 46.7313 20.4012 42.7932C20.4012 38.8551 23.6 35.6562 27.5382 35.6562C31.4763 35.6562 34.6751 38.8551 34.6751 42.7932C34.6751 46.7455 31.4763 49.9301 27.5382 49.9301ZM27.5524 33.936C30.3531 32.7844 33.3671 32.2015 36.3954 32.2299C39.3383 32.2015 42.267 32.7844 44.9824 33.936C40.2055 34.0782 36.3954 38.0021 36.3954 42.7932C36.3954 37.9168 32.443 33.9502 27.5524 33.936ZM45.2668 49.9301C41.3287 49.9301 38.1298 46.7313 38.1298 42.7932C38.1298 38.8551 41.3287 35.6562 45.2668 35.6562C49.2049 35.6562 52.4037 38.8551 52.4037 42.7932C52.4037 46.7455 49.2049 49.9301 45.2668 49.9301ZM45.2668 38.457C42.8925 38.457 40.959 40.3763 40.959 42.7648C40.959 45.139 42.8783 47.0725 45.2668 47.0725C47.641 47.0725 49.5745 45.1532 49.5745 42.7648C49.5603 40.3905 47.641 38.457 45.2668 38.457ZM45.2668 45.7361C43.6176 45.7361 42.2812 44.3997 42.2812 42.7505C42.2812 41.1014 43.6176 39.765 45.2668 39.765C46.916 39.765 48.2524 41.1014 48.2524 42.7505C48.2381 44.4139 46.9017 45.7361 45.2668 45.7361Z" fill="black"/>
<path d="M56.3846 33.8792C55.7875 33.8792 55.3184 34.3625 55.3184 34.9454C55.3184 35.5425 55.8017 36.0117 56.3846 36.0117C56.9817 36.0117 57.4509 35.5283 57.4509 34.9454C57.4509 34.3625 56.9675 33.8792 56.3846 33.8792ZM56.3846 35.8269C55.9013 35.8269 55.5174 35.443 55.5174 34.9596C55.5174 34.4763 55.9013 34.0924 56.3846 34.0924C56.868 34.0924 57.2519 34.4763 57.2519 34.9596C57.2519 35.4288 56.8538 35.8269 56.3846 35.8269Z" fill="black"/>
<path d="M45.267 41.3146C44.4709 41.3146 43.8169 41.9543 43.8169 42.7647C43.8169 43.5609 44.4567 44.2149 45.267 44.2149C46.0632 44.2149 46.7172 43.5751 46.7172 42.7647C46.703 41.9686 46.0632 41.3146 45.267 41.3146Z" fill="#00AF87"/>
<path d="M27.4384 41.3289C26.6423 41.3289 25.9883 41.9828 25.9883 42.779C25.9883 43.5751 26.6423 44.2291 27.4384 44.2291C28.2346 44.2291 28.8886 43.5751 28.8886 42.779C28.8886 41.9828 28.2346 41.3289 27.4384 41.3289Z" fill="#CC3333"/>
<path d="M27.5522 33.936C30.353 32.7845 33.367 32.2016 36.3952 32.23C39.3382 32.2016 42.2669 32.7845 44.9823 33.936C40.2054 34.0782 36.3952 38.0021 36.3952 42.7932C36.3952 37.9168 32.4429 33.9503 27.5522 33.936Z" fill="#FFCC99"/>
<path d="M11.8996 60.0953V59.1001H10.2788V57.6073L9.02774 57.9769V59.1001H8.0752V60.0953H9.02774V63.2941C9.02774 64.7158 9.61063 65.4409 10.748 65.4409C11.1034 65.4551 11.4731 65.3982 11.8143 65.2703L11.8569 65.2561L11.8001 64.2751L11.7432 64.2893C11.5299 64.3462 11.3167 64.3746 11.0892 64.3604C10.8617 64.3746 10.62 64.2893 10.4779 64.1045C10.3215 63.8344 10.2646 63.5216 10.2788 63.223V60.0953H11.8996Z" fill="black"/>
<path d="M16.2073 58.9863C16.1078 58.9721 15.9941 58.9579 15.8803 58.9579C15.4965 58.9579 15.1126 59.0858 14.814 59.3275C14.5297 59.5408 14.3164 59.8251 14.1743 60.1379L14.1032 59.0858H12.9658V59.1427C12.9943 59.6403 13.0227 60.2943 13.0227 61.0762V65.2845H14.3022V62.0145C14.2738 61.517 14.4302 61.0194 14.743 60.6355C15.0131 60.3369 15.3969 60.1521 15.795 60.1521C15.923 60.1521 16.0509 60.1663 16.1931 60.1948L16.25 60.209V58.9863H16.2073Z" fill="black"/>
<path d="M18.6384 59.1001H17.3589V65.2987H18.6384V59.1001Z" fill="black"/>
<path d="M17.9988 58.0907C18.4253 58.1049 18.7807 57.778 18.8092 57.3514C18.8092 57.3372 18.8092 57.3088 18.8092 57.2946C18.8092 57.0813 18.7381 56.8823 18.5817 56.7401C18.4253 56.5837 18.2263 56.5126 18.013 56.5126C17.7998 56.4984 17.5865 56.5837 17.4301 56.7401C17.2879 56.8823 17.2026 57.0813 17.2026 57.2946C17.2026 57.5078 17.2737 57.7069 17.4301 57.8633C17.5723 58.0196 17.7855 58.1049 17.9988 58.0907Z" fill="black"/>
<path d="M24.8372 59.8252C24.3822 59.2565 23.6856 58.9295 22.9605 58.9295C22.1217 58.9011 21.3256 59.2992 20.8564 59.9816L20.7995 59.0575H19.6479V59.1428C19.6764 59.6546 19.6906 60.3228 19.6906 61.1332V67.8009H20.9701V64.6306C21.155 64.858 21.3824 65.0571 21.6383 65.185C21.9938 65.3556 22.3776 65.4551 22.7615 65.4409C23.5292 65.4551 24.2685 65.1139 24.7661 64.5168C25.3205 63.8202 25.6049 62.9529 25.5622 62.0715C25.6191 61.2753 25.349 60.465 24.8372 59.8252ZM21.7094 60.3228C21.9653 60.138 22.2781 60.0242 22.6051 60.0242C23.0885 60.01 23.5434 60.2233 23.8277 60.6214C24.1547 61.0621 24.3111 61.6023 24.2969 62.1568C24.3253 62.7397 24.1547 63.3226 23.8277 63.7917C23.2733 64.4742 22.2639 64.5879 21.5815 64.0334C21.5388 63.9908 21.4819 63.9481 21.4393 63.9055C21.1265 63.5927 20.9701 63.1662 20.9701 62.7255V61.7445C20.9843 61.5028 21.0412 61.2753 21.1265 61.0479C21.2545 60.7493 21.4535 60.4934 21.7094 60.3228Z" fill="black"/>
<path d="M64.6164 60.2658H64.332V59.0574H64.7585C64.9718 59.0574 65.2419 59.0858 65.2419 59.4128C65.2561 59.5692 65.1424 59.7114 64.986 59.7256L65.2704 60.2658H64.9576L64.7017 59.7682H64.6022L64.6164 60.2658ZM64.6164 59.5834C64.6875 59.5976 64.7728 59.5834 64.8438 59.5692C64.9434 59.5408 64.9434 59.4697 64.9434 59.4128C64.9434 59.3275 64.9149 59.2848 64.8581 59.2706C64.7728 59.2564 64.7017 59.2564 64.6164 59.2564V59.5834Z" fill="#00AF87"/>
<path d="M64.8012 58.6167C64.1899 58.6167 63.7065 59.1143 63.7065 59.7114C63.7065 60.3227 64.2041 60.8061 64.8012 60.8061C65.4126 60.8061 65.896 60.3085 65.896 59.7114C65.896 59.1001 65.4126 58.6167 64.8012 58.6167ZM64.8012 60.6071C64.3037 60.6071 63.9056 60.209 63.9056 59.7114C63.9056 59.2138 64.3037 58.8157 64.8012 58.8157C65.2988 58.8157 65.6969 59.2138 65.6969 59.7114C65.6969 60.209 65.2988 60.6071 64.8012 60.6071Z" fill="#00AF87"/>
<path d="M31.2774 65.2276C31.2063 64.7442 31.1636 64.2608 31.1779 63.7775V61.5454C31.2205 60.8488 31.0073 60.1664 30.5523 59.6261C30.0689 59.1569 29.4007 58.901 28.7183 58.9579C27.9648 58.9437 27.2255 59.1285 26.5858 59.5266L26.5573 59.5408L26.8559 60.408L26.9128 60.3796C27.3961 60.0668 27.9648 59.9104 28.5477 59.9247C28.9174 59.8962 29.287 60.0242 29.5713 60.2659C29.813 60.536 29.941 60.8772 29.9125 61.2326V61.2895C28.9458 61.2326 27.979 61.4459 27.126 61.8866C26.5005 62.242 26.1166 62.9102 26.145 63.6211C26.145 64.1045 26.3299 64.5594 26.6853 64.8864C27.0691 65.2418 27.581 65.4409 28.107 65.4124C28.832 65.4409 29.5429 65.1281 29.9978 64.5594L30.1258 65.2703H31.3058L31.2774 65.2276ZM29.486 64.0618C29.1875 64.3319 28.8036 64.4741 28.4055 64.4599C28.1354 64.4741 27.8795 64.3746 27.6805 64.204C27.4956 64.0192 27.3961 63.749 27.4103 63.4789C27.4103 63.0951 27.6236 62.7396 27.9648 62.5548C28.5761 62.2847 29.2586 62.1567 29.9268 62.2136V63.1661C29.9268 63.5073 29.7562 63.8343 29.486 64.0618Z" fill="#00AF87"/>
<path d="M37.732 65.3272L37.7178 65.2419C37.6894 64.858 37.6751 64.3178 37.6751 63.6496V56.1998H36.3956V59.6972C36.225 59.4982 36.0117 59.3276 35.7701 59.1996C35.4146 59.0148 35.0308 58.9295 34.6469 58.9437C33.8792 58.9437 33.1541 59.2849 32.6707 59.882C32.1163 60.5645 31.8462 61.4317 31.8746 62.2989C31.8462 63.1235 32.1163 63.9197 32.6281 64.5594C33.41 65.4978 34.7322 65.7252 35.7843 65.1281C36.0828 64.9575 36.3245 64.7158 36.5093 64.4315L36.5804 65.3272H37.732ZM36.3956 61.6592V62.6259C36.424 63.0951 36.2392 63.55 35.9264 63.8912C35.6421 64.1898 35.2582 64.3604 34.846 64.3604C34.3626 64.3888 33.8934 64.1614 33.6091 63.7633C33.2963 63.3083 33.1399 62.7681 33.1541 62.2278C33.1257 61.6592 33.2963 61.0905 33.6233 60.6213C34.1493 59.9389 35.1161 59.8252 35.7843 60.337C35.8411 60.3796 35.8838 60.4223 35.9264 60.4649C36.2534 60.7777 36.4098 61.2042 36.3956 61.6592Z" fill="#00AF87"/>
<path d="M42.9499 59.1001C42.9499 59.1001 41.3576 62.3416 41.2438 62.7112C41.1017 62.2705 39.5236 59.1001 39.5236 59.1001H38.1445L41.2581 65.2987L44.3147 59.1001H42.9499Z" fill="#00AF87"/>
<path d="M46.2053 59.1001H44.9258V65.2987H46.2053V59.1001Z" fill="#00AF87"/>
<path d="M45.5652 58.0907C45.9917 58.1049 46.3471 57.778 46.3756 57.3514C46.3756 57.3372 46.3756 57.3088 46.3756 57.2946C46.3756 57.0813 46.3045 56.8823 46.1481 56.7401C45.9917 56.5837 45.7927 56.5126 45.5794 56.5126C45.3662 56.4984 45.1529 56.5837 44.9965 56.7401C44.8543 56.8823 44.769 57.0813 44.769 57.2946C44.769 57.5078 44.8401 57.7069 44.9965 57.8633C45.1387 58.0196 45.3377 58.1049 45.5652 58.0907Z" fill="#00AF87"/>
<path d="M51.224 62.4127C50.8685 62.0573 50.4278 61.8014 49.9444 61.6592C49.6032 61.5597 49.2905 61.4033 49.0061 61.1901C48.8639 61.0621 48.7929 60.8773 48.7929 60.6925C48.7929 60.4792 48.8782 60.2802 49.0488 60.138C49.2478 59.9816 49.5037 59.9105 49.7454 59.9248C50.2003 59.9248 50.6411 60.0527 51.0249 60.2802L51.0818 60.3086L51.4088 59.3703L51.3661 59.3419C50.8828 59.0717 50.3283 58.9438 49.7738 58.958C49.1909 58.9296 48.608 59.1286 48.1531 59.4983C47.755 59.8252 47.5418 60.3086 47.5418 60.8346C47.5418 61.6166 48.1104 62.2137 49.2478 62.6118C49.5606 62.6971 49.8591 62.8535 50.115 63.0525C50.2714 63.2089 50.3567 63.4221 50.3567 63.6496C50.3709 63.8913 50.2572 64.1046 50.0724 64.2467C49.8307 64.4173 49.5321 64.4884 49.2336 64.4742C48.6933 64.4742 48.1815 64.3178 47.7266 64.0335L47.6697 64.005L47.3569 65.0002L47.3996 65.0144C47.954 65.313 48.5796 65.4552 49.2051 65.4552C49.8307 65.4836 50.4562 65.2988 50.9538 64.9291C51.3804 64.6022 51.622 64.0903 51.6078 63.5501C51.6363 63.1236 51.4941 62.7255 51.224 62.4127Z" fill="#00AF87"/>
<path d="M57.465 59.8394C56.9106 59.2423 56.1286 58.9295 55.3325 58.958C54.5079 58.9295 53.7117 59.2565 53.1431 59.8536C52.546 60.5076 52.2332 61.3606 52.2758 62.2421C52.2474 63.0951 52.5459 63.9197 53.1146 64.5453C53.6691 65.1281 54.4368 65.4551 55.2472 65.4267C55.7874 65.4267 56.3135 65.2845 56.7826 65.0286C57.2518 64.7585 57.6356 64.3604 57.8915 63.877C58.1617 63.3368 58.3038 62.7397 58.2896 62.1284C58.3181 61.2896 58.0195 60.4792 57.465 59.8394ZM55.2472 64.4599C54.7638 64.4599 54.2946 64.2325 54.0103 63.8344C53.6691 63.3652 53.4843 62.7966 53.5127 62.2137C53.4843 61.6308 53.6549 61.0621 53.9961 60.5787C54.2946 60.1664 54.778 59.9247 55.2898 59.9389C55.8016 59.9247 56.2708 60.1664 56.5551 60.5929C56.8821 61.0621 57.0385 61.6165 57.0243 62.1852C57.0527 62.7823 56.8679 63.3652 56.5125 63.8344C56.2139 64.2183 55.7448 64.4599 55.2472 64.4599Z" fill="#00AF87"/>
<path d="M62.555 58.9863C62.4554 58.9721 62.3417 58.9579 62.228 58.9579C61.8441 58.9579 61.4602 59.0858 61.1617 59.3275C60.8773 59.5408 60.6641 59.8251 60.5219 60.1379L60.4508 59.0858H59.3135V59.1427C59.3419 59.6403 59.3703 60.2943 59.3703 61.0762V65.2845H60.6499V62.0145C60.6214 61.517 60.7778 61.0194 61.0906 60.6355C61.3607 60.3369 61.7446 60.1521 62.1427 60.1521C62.2706 60.1521 62.3986 60.1663 62.5407 60.1948L62.5976 60.209V58.9863H62.555Z" fill="#00AF87"/>
</g>
<defs>
<clipPath id="clip0">
<rect width="72.6632" height="68" fill="white"/>
</clipPath>
</defs>
</svg>
