<svg width="54" height="54" viewBox="0 0 54 54" fill="none" xmlns="http://www.w3.org/2000/svg">
<g clip-path="url(#clip0)">
<path d="M27.1098 36.4246L27.1098 36.4245L27.1007 36.4196C23.085 34.2606 19.7928 30.9683 17.6337 26.9526L17.6338 26.9526L17.6288 26.9436L17.2969 26.3461C16.2908 24.5012 15.7592 22.435 15.75 20.3335L15.75 19.4419L15.75 19.4413C15.7498 19.1884 15.7997 18.938 15.8967 18.7045C15.9937 18.4709 16.136 18.2589 16.3153 18.0806L16.3153 18.0806L16.3169 18.0791L18.57 15.8259L18.57 15.8259L18.5721 15.8239C18.5991 15.7967 18.6319 15.7761 18.6682 15.7636C18.7044 15.7511 18.743 15.7472 18.781 15.752C18.819 15.7568 18.8554 15.7703 18.8873 15.7915C18.9192 15.8125 18.9458 15.8407 18.9652 15.8737C18.9652 15.8737 18.9652 15.8738 18.9653 15.8739L21.9636 21.0176C21.9637 21.0179 21.9639 21.0181 21.964 21.0183C22.0282 21.1296 22.0539 21.259 22.0371 21.3864C22.0202 21.514 21.9615 21.6325 21.8703 21.7233L21.869 21.7246L20.5521 23.0415C20.5516 23.042 20.551 23.0426 20.5504 23.0431C20.3348 23.2571 20.1937 23.5347 20.1479 23.835C20.102 24.136 20.1542 24.4437 20.2969 24.7127C20.297 24.7128 20.2971 24.7129 20.2971 24.713L20.7636 25.5926L20.7636 25.5926L20.7662 25.5975C22.5114 28.8302 25.1661 31.4803 28.4017 33.22C28.4024 33.2204 28.403 33.2208 28.4037 33.2211L29.2796 33.6989L29.2795 33.6989L29.287 33.7029C29.556 33.8457 29.8639 33.8981 30.165 33.8521C30.4653 33.8063 30.7429 33.6652 30.9568 33.4496C30.9574 33.449 30.958 33.4484 30.9585 33.4479L32.2754 32.131L32.2767 32.1297C32.3675 32.0385 32.486 31.9798 32.6137 31.9629C32.741 31.9461 32.8703 31.9718 32.9815 32.0359C32.9818 32.0361 32.9821 32.0363 32.9824 32.0364L38.1261 35.0347C38.1262 35.0348 38.1264 35.0349 38.1265 35.0349C38.1594 35.0542 38.1875 35.0808 38.2085 35.1127C38.2297 35.1446 38.2432 35.181 38.248 35.219C38.2528 35.257 38.2489 35.2956 38.2364 35.3318C38.2239 35.3681 38.2033 35.4009 38.1761 35.4279L38.1741 35.43L35.9209 37.6831L35.9194 37.6847C35.7411 37.864 35.5291 38.0063 35.2955 38.1033C35.062 38.2003 34.8116 38.2502 34.5587 38.25H34.5581H33.6655C31.5859 38.2482 29.5387 37.7347 27.7044 36.7549L27.1098 36.4246Z" stroke="#F2F2F2" stroke-width="1.5"/>
</g>
<defs>
<clipPath id="clip0">
<rect width="24" height="24" fill="white" transform="translate(15 15)"/>
</clipPath>
</defs>
</svg>
