<svg width="97" height="98" viewBox="0 0 97 98" fill="none" xmlns="http://www.w3.org/2000/svg">
<path d="M12.0635 25.3277L11.6321 26.0498C11.1957 25.7349 10.5929 25.3473 9.82345 24.8869C9.60568 24.7569 9.2866 24.5482 8.86619 24.2609L8.84239 24.3009C9.19186 24.9246 9.46309 25.589 9.64993 26.2791C10.0219 27.3745 10.2831 27.9668 10.4337 28.056L10.0913 28.6292C9.57483 28.2701 8.97108 27.8838 8.28005 27.4704C7.63018 27.0693 6.94667 26.7254 6.23724 26.4427L6.60586 25.5785C7.0827 25.9102 7.70607 26.3063 8.47598 26.7669C8.74743 26.929 9.08726 27.1426 9.49545 27.4075L9.51934 27.3677C9.18617 26.7387 8.91622 26.0783 8.71347 25.396C8.33455 24.3154 8.06779 23.7292 7.9132 23.6375L8.14666 22.999C8.68997 23.3667 9.36934 23.7944 10.1848 24.282C10.8309 24.6681 11.4572 25.0166 12.0635 25.3277ZM7.9492 32.9813L7.67066 33.7747C7.18022 33.5532 6.51209 33.2937 5.66626 32.996C5.42705 32.912 5.07277 32.7712 4.60342 32.5735L4.58811 32.6175C5.05491 33.1589 5.45317 33.7558 5.77389 34.3947C6.35694 35.3938 6.7311 35.9222 6.89638 35.9797L6.67512 36.6096C6.09748 36.3609 5.42882 36.1028 4.66916 35.8355C3.95242 35.572 3.21409 35.3713 2.46254 35.2359L2.65141 34.3154C3.18467 34.5454 3.87455 34.8093 4.72106 35.1069C5.01933 35.2116 5.39483 35.3531 5.84757 35.5315L5.86317 35.4874C5.4112 34.9377 5.01491 34.3444 4.68015 33.7164C4.09317 32.7329 3.71484 32.2117 3.54515 32.1526L3.64665 31.4805C4.25241 31.7324 5.00343 32.016 5.89972 32.3313C6.60994 32.5806 7.29311 32.7973 7.9492 32.9813ZM4.86495 40.8489C5.02389 40.8705 5.39771 40.957 5.98915 41.1105C6.44225 41.2349 6.90184 41.3343 7.36586 41.4082L7.2937 41.9395C6.89932 41.8857 6.25401 41.8027 5.35778 41.6903L4.8857 45.1556C4.27022 45.0248 3.56361 44.9048 2.76587 44.7955C2.01058 44.6811 1.2466 44.6345 0.483012 44.6561L0.484973 43.7023C1.12841 43.8304 1.92083 43.959 2.86221 44.088C3.24073 44.1394 3.75191 44.2155 4.39255 44.3157L4.66179 42.3405C4.03198 42.2661 3.52014 42.2023 3.12629 42.1491C2.37115 42.035 1.60751 41.9869 0.84402 42.0052V41.0656C1.48798 41.1906 2.28067 41.3175 3.22209 41.4462C3.74692 41.5177 4.26001 41.572 4.76137 41.6091L4.86495 40.8489ZM1.86541 50.7969C0.986148 50.8538 0.570502 51.2501 0.618464 51.9856C0.666835 52.7353 1.15189 53.1485 2.07361 53.2251L1.86541 50.7969ZM1.80522 50.0144C1.93664 50.006 2.11963 50.0005 2.35118 49.9985L2.61511 53.2174C3.05063 53.1674 3.44992 52.9508 3.72942 52.6131C3.87568 52.4302 3.98441 52.2203 4.04937 51.9953C4.11432 51.7703 4.13422 51.5347 4.10793 51.302C4.08195 50.8508 3.99475 50.4052 3.84872 49.9775L4.51521 50.0131C4.68294 50.4321 4.77386 50.8779 4.78361 51.3291C4.82884 51.667 4.80367 52.0106 4.70969 52.3383C4.61572 52.666 4.45497 52.9707 4.23755 53.2333C4.03666 53.4567 3.79317 53.6377 3.52137 53.7657C3.24957 53.8937 2.95493 53.9662 2.65475 53.9788C2.0185 54.0343 1.38265 53.868 0.855114 53.5079C0.604339 53.3392 0.397373 53.1131 0.25134 52.8484C0.105307 52.5838 0.0244144 52.2882 0.0153559 51.986C-0.0185459 51.7324 0.00384616 51.4744 0.0809523 51.2303C0.158058 50.9863 0.287979 50.7623 0.461476 50.5741C0.823469 50.2258 1.30301 50.0261 1.80522 50.0144ZM5.44471 58.4913L5.66012 59.3009C5.04214 59.4187 4.3442 59.5817 3.56629 59.7899C3.09627 59.915 2.54437 60.0652 1.91059 60.2404L2.44017 62.2304C2.94757 62.1022 3.50108 61.9583 4.10068 61.7985C4.82825 61.6051 5.51452 61.3981 6.15948 61.1776L6.3745 61.9858C5.75608 62.1022 5.05771 62.2637 4.27939 62.4702C3.53834 62.6555 2.81536 62.9069 2.11909 63.2211L1.84539 62.3355L1.29861 60.2804L1.04356 59.6723C1.68729 59.5442 2.46808 59.3574 3.38592 59.1121C4.11333 58.9185 4.79959 58.7116 5.44471 58.4913ZM7.14318 66.6103L7.73021 66.3789C8.01055 66.5935 8.23096 66.8766 8.37026 67.201C8.53949 67.4971 8.64544 67.825 8.68139 68.1641C8.71735 68.5033 8.68254 68.8461 8.57915 69.1711C8.47776 69.4531 8.32137 69.7122 8.11905 69.9332C7.91674 70.1543 7.67252 70.333 7.40059 70.4589C6.82638 70.7492 6.16098 70.8018 5.54832 70.6052C5.23079 70.5042 4.93858 70.3363 4.69132 70.1129C4.44407 69.8896 4.24751 69.6158 4.11486 69.3102C3.97304 69.0363 3.87266 68.7429 3.81703 68.4395L4.53719 68.2324C4.56873 68.5731 4.66116 68.9053 4.81006 69.2134C4.8904 69.3976 5.01164 69.5611 5.16459 69.6915C5.31754 69.8219 5.49818 69.9157 5.6928 69.9658C6.10541 70.0648 6.53997 70.01 6.91501 69.8115C7.34257 69.6199 7.67856 69.2691 7.85158 68.8337C7.9331 68.6021 7.96413 68.3557 7.94259 68.1111C7.92106 67.8665 7.84745 67.6293 7.72672 67.4155C7.567 67.1235 7.37092 66.853 7.14318 66.6103ZM13.1553 75.8058L13.6911 76.454C13.2484 76.7597 12.6813 77.198 11.9898 77.7688C11.7942 77.9304 11.4908 78.1612 11.0793 78.4612L11.109 78.4971C11.8136 78.3766 12.5305 78.3435 13.2433 78.3985C14.4 78.4148 15.0456 78.367 15.1801 78.255L15.6056 78.7697C15.0943 79.1361 14.5282 79.5756 13.9072 80.0882C13.3116 80.5662 12.7587 81.0951 12.2547 81.6689L11.5638 81.0323C12.0361 80.6939 12.6181 80.2391 13.3099 79.668C13.5535 79.4665 13.8685 79.2178 14.2549 78.9219L14.2253 78.886C13.5212 78.9894 12.8085 79.0226 12.0978 78.9852C10.9525 78.9803 10.3108 79.0354 10.1726 79.1504L9.64934 78.7165C10.1776 78.3277 10.8081 77.8308 11.5407 77.2258C12.1208 76.7462 12.659 76.2729 13.1553 75.8058ZM22.0005 86.4325C21.6519 86.9033 21.8227 87.3946 22.5128 87.9064C22.6873 88.0285 22.8718 88.1357 23.0643 88.2268C23.3967 87.7779 23.7138 87.3397 24.0158 86.9123C23.8422 86.7363 23.655 86.5743 23.4559 86.4278C22.8303 85.9645 22.3451 85.9661 22.0005 86.4325ZM21.033 83.9547L21.6872 84.4389C21.2775 84.9166 20.8336 85.4793 20.3553 86.1269C19.8924 86.7343 19.4824 87.3801 19.1297 88.0574L18.3293 87.6226C18.7512 87.12 19.2451 86.4872 19.811 85.724C20.2591 85.119 20.6664 84.5293 21.033 83.9547ZM21.371 86.0663C21.4961 85.8827 21.6666 85.7346 21.8659 85.6365C22.0652 85.5384 22.2866 85.4936 22.5083 85.5065C22.98 85.5246 23.4345 85.6881 23.8096 85.9746C24.0131 86.1254 24.4025 86.4257 24.9777 86.8755C24.5772 87.3597 24.1371 87.9253 23.6574 88.5722C23.194 89.1792 22.7844 89.8254 22.4331 90.5035L21.647 90.0792C21.9026 89.777 22.2659 89.307 22.7368 88.6691C22.5367 88.5925 22.3477 88.4896 22.1748 88.363C21.0963 87.5644 20.8284 86.7989 21.371 86.0663ZM27.0188 92.9983L27.3421 92.377C27.7831 92.6388 28.2263 92.8744 28.6717 93.0839C28.8686 92.6941 29.114 92.1858 29.408 91.5591C29.7277 90.8775 30.0106 90.2189 30.2567 89.5833L31.0313 89.9464C30.7255 90.4963 30.4014 91.1356 30.0591 91.8643C29.7728 92.4747 29.5447 92.9911 29.3749 93.4138C29.8167 93.6209 30.2857 93.8131 30.7817 93.9902L30.4585 94.6115L27.0188 92.9983ZM36.2949 91.841L37.122 92.0403C37.1443 92.1271 37.1617 92.215 37.174 92.3038C37.1754 92.8121 37.2801 93.3147 37.4816 93.7813C37.5624 93.9299 37.6748 94.059 37.8109 94.1594C37.947 94.2598 38.1035 94.3292 38.2693 94.3626C38.3943 94.3926 38.5573 94.4286 38.7569 94.4701C38.9266 93.7664 39.0583 93.1196 39.1521 92.5296L39.9696 92.7267C39.7772 93.3259 39.5865 94.0168 39.3973 94.7995C39.2073 95.5393 39.0838 96.2946 39.0284 97.0565L38.0936 96.9618C38.2736 96.3859 38.4494 95.7431 38.6211 95.0333C38.4402 94.9832 38.2784 94.9409 38.1381 94.907C37.4626 94.7442 36.8543 95.1809 36.3132 96.2171C36.2742 96.2876 36.2233 96.3507 36.1626 96.4037L35.4075 96.2217C35.4557 96.1589 35.5383 96.0421 35.6571 95.8709C36.2348 95.0014 36.7596 94.5363 37.2316 94.4755L37.2426 94.4303C36.9686 94.2692 36.7584 94.0186 36.6476 93.7207C36.4958 93.2925 36.4041 92.8453 36.3752 92.392C36.358 92.207 36.3312 92.0231 36.2949 91.841ZM44.1964 97.8579C44.38 97.199 44.6405 96.564 44.9725 95.966C45.397 95.1357 45.765 94.2778 46.0741 93.398C46.2006 92.8502 46.4228 92.3289 46.7303 91.8582C46.9115 91.6932 47.1271 91.5705 47.3615 91.499C47.5959 91.4275 47.8433 91.409 48.0858 91.4448L48.1013 92.1038C47.9196 92.0924 47.7375 92.119 47.5666 92.1819C47.3957 92.2448 47.2398 92.3425 47.1088 92.469C46.9754 92.5967 46.8691 92.7499 46.7961 92.9195C46.7231 93.0891 46.685 93.2717 46.684 93.4563C46.6719 93.8044 46.9312 94.6416 47.4618 95.9681C47.9919 97.2954 48.2567 97.9727 48.2564 98L47.2842 97.9661C47.1393 97.3796 46.9611 96.8018 46.7506 96.2355C46.4998 95.6011 46.3241 94.9394 46.2271 94.2641L46.1805 94.2625C46.0532 94.8645 45.8647 95.452 45.618 96.0157C45.3544 96.6147 45.1641 97.2433 45.0514 97.888L44.1964 97.8579ZM54.1594 93.752C54.2934 94.3497 54.3929 94.8554 54.461 95.2704C54.5624 95.8881 54.6685 96.4552 54.7793 96.9715L55.587 96.8388C55.7216 96.4604 55.8726 95.9602 56.0399 95.338C56.21 94.6991 56.3232 94.0464 56.3782 93.3875L54.1594 93.752ZM52.5818 94.0111C52.5555 93.8494 52.5297 93.4644 52.5045 92.8558C52.4917 92.3871 52.4523 91.9195 52.3866 91.4553L52.9394 91.3646C53.0039 91.7573 53.1149 92.4064 53.2722 93.3121C53.6964 93.2602 54.2919 93.1717 55.0584 93.0465C55.5511 92.9656 56.0754 92.8702 56.6315 92.7603C56.6438 92.0969 56.6099 91.4335 56.5298 90.7748L57.0826 90.684C57.1283 90.9627 57.1952 91.3562 57.2831 91.8645C57.3713 92.372 57.4472 92.8177 57.5108 93.2016L57.0499 93.2772C56.8709 94.6681 56.5414 96.0354 56.0671 97.3552L54.7256 97.5756L54.1146 97.7671C54.0481 97.1144 53.9381 96.3192 53.7846 95.3815C53.7226 95.0045 53.611 94.5002 53.4499 93.8685L52.5818 94.0111ZM63.0455 93.318C63.1995 93.7534 63.4781 94.1339 63.8468 94.4121C64.0132 94.5347 64.2071 94.6145 64.4115 94.6447C64.6159 94.6749 64.8246 94.6544 65.0192 94.5851C65.2139 94.5159 65.3886 94.3999 65.528 94.2474C65.6674 94.0949 65.7673 93.9105 65.8188 93.7104C65.9197 93.2762 65.886 92.8217 65.7224 92.4071C65.5685 91.9705 65.2895 91.5889 64.92 91.3099C64.7545 91.1795 64.5571 91.0955 64.3483 91.0667C64.1395 91.0379 63.9268 91.0652 63.7321 91.1459C63.5366 91.2097 63.3613 91.3237 63.2237 91.4765C63.0861 91.6293 62.9911 91.8155 62.9482 92.0166C62.8483 92.4503 62.8823 92.904 63.0455 93.318ZM62.3406 93.7567C62.2018 93.4413 62.1295 93.1007 62.1282 92.7561C62.127 92.4115 62.1967 92.0703 62.3332 91.7539C62.4567 91.4776 62.6346 91.229 62.8562 91.0229C63.0778 90.8169 63.3387 90.6575 63.6232 90.5544C63.8817 90.4535 64.1575 90.4047 64.4349 90.4109C64.7123 90.417 64.9857 90.4778 65.2395 90.59C65.5196 90.7216 65.7689 90.9106 65.9714 91.1446C66.1739 91.3787 66.325 91.6526 66.415 91.9488C66.5548 92.2663 66.628 92.6091 66.6299 92.956C66.6318 93.303 66.5623 93.6466 66.426 93.9656C66.3039 94.2436 66.1268 94.4939 65.9053 94.7015C65.6838 94.9091 65.4224 95.0696 65.1371 95.1733C64.8784 95.2746 64.6021 95.323 64.3244 95.3158C64.0467 95.3086 63.7732 95.2458 63.5201 95.1313C63.2391 94.9963 62.9892 94.8044 62.7861 94.5678C62.5831 94.3312 62.4314 94.055 62.3406 93.7567ZM71.6498 89.4797C71.8618 89.8498 72.1894 90.14 72.5822 90.306C72.7664 90.3828 72.9668 90.4127 73.1654 90.393C73.364 90.3733 73.5546 90.3046 73.7201 90.1931C73.9266 90.0927 74.1049 89.9425 74.239 89.7561C74.3731 89.5697 74.4587 89.353 74.4883 89.1253C73.8977 88.252 73.406 87.4927 73.0133 86.8475C72.6566 86.804 72.2961 86.8903 71.9978 87.0906C71.7994 87.1946 71.6307 87.3473 71.5073 87.5342C71.384 87.7212 71.3101 87.9364 71.2925 88.1598C71.2704 88.6263 71.3954 89.088 71.6498 89.4797ZM70.9929 90.0116C70.649 89.4696 70.4974 88.8278 70.5625 88.1892C70.5924 87.8794 70.6974 87.5816 70.8684 87.3215C71.0393 87.0615 71.2711 86.8469 71.5436 86.6965C71.7011 86.5692 71.8824 86.4747 72.0769 86.4184C72.2715 86.3621 72.4753 86.3452 72.6765 86.3688L72.7161 86.3446C72.2625 85.6004 71.8501 84.9413 71.4789 84.3674L72.234 83.9071C72.6068 84.6574 73.1118 85.5557 73.7491 86.602C74.3391 87.6175 75.0177 88.5789 75.7767 89.4751L75.1308 90.0061L74.8282 89.6455L74.7882 89.6699C74.7236 89.9332 74.602 90.1791 74.4319 90.3903C74.2618 90.6015 74.0475 90.7727 73.804 90.892C73.5776 91.0429 73.3185 91.1377 73.0483 91.1688C72.778 91.1999 72.5042 91.1664 72.2494 91.0709C71.72 90.8749 71.2756 90.5003 70.9929 90.0116ZM77.1544 82.6877L77.7738 82.1236C78.163 82.6177 78.6292 83.1621 79.1724 83.7565C79.5001 84.1159 79.8877 84.5364 80.3353 85.0182L81.8575 83.6314C81.5096 83.2402 81.1268 82.8152 80.7089 82.3565C80.2019 81.8002 79.702 81.2866 79.2093 80.8155L79.8274 80.2523C80.2157 80.7475 80.6808 81.2929 81.2226 81.8885C81.7286 82.4608 82.2847 82.9866 82.8844 83.4598L82.2249 84.1107L80.6527 85.5431L80.2304 86.0495C79.8202 85.5373 79.2947 84.9304 78.654 84.2288C78.147 83.6725 77.6471 83.1589 77.1544 82.6877ZM87.2504 75.2904C88.0068 75.7423 88.5739 75.6516 88.9515 75.0183C89.3367 74.3735 89.1715 73.7582 88.4558 73.1723L87.2504 75.2904ZM86.856 75.969C86.7431 75.9015 86.5893 75.8022 86.3974 75.6726L88.0055 72.8715C87.6184 72.6658 87.1667 72.6177 86.745 72.7374C86.5208 72.8051 86.3122 72.9164 86.1311 73.0649C85.95 73.2133 85.8 73.3961 85.6897 73.6027C85.4551 73.9891 85.2743 74.4056 85.1521 74.8407L84.6232 74.4332C84.7229 73.993 84.9008 73.5743 85.1485 73.197C85.3028 72.8931 85.5184 72.6244 85.7817 72.4079C86.0449 72.1913 86.3501 72.0315 86.6781 71.9385C86.9703 71.8684 87.2735 71.8574 87.5699 71.9061C87.8664 71.9547 88.1502 72.0621 88.4046 72.2219C88.9601 72.5371 89.3894 73.0347 89.6197 73.6304C89.7306 73.9116 89.773 74.2152 89.7432 74.516C89.7134 74.8168 89.6123 75.1062 89.4483 75.3602C89.3324 75.5883 89.1677 75.7882 88.9658 75.9454C88.7639 76.1027 88.5298 76.2136 88.2802 76.2702C87.7845 76.3516 87.2763 76.2441 86.856 75.969ZM90.7446 65.263C91.2973 65.4572 91.7163 65.149 92.0015 64.3385C92.0667 64.1357 92.1147 63.9277 92.1449 63.7169C91.6179 63.5319 91.106 63.3571 90.608 63.1959C90.4911 63.4138 90.3916 63.6405 90.3104 63.874C90.0526 64.6084 90.1973 65.0714 90.7446 65.263ZM88.6629 66.9189L88.9325 66.1509C89.5097 66.4013 90.1783 66.6593 90.9384 66.9251C91.6553 67.1882 92.3934 67.3893 93.1446 67.5263L92.9655 68.4193C92.3607 68.1646 91.6102 67.8795 90.7139 67.5641C90.0038 67.3147 89.3201 67.0997 88.6629 66.9189ZM90.5805 65.9727C90.3681 65.9073 90.1764 65.7881 90.0238 65.6266C89.8712 65.4651 89.7631 65.2668 89.7099 65.0511C89.5881 64.5952 89.6101 64.1128 89.7731 63.6699C89.857 63.4308 90.029 62.9701 90.289 62.2878C90.8698 62.5274 91.5401 62.781 92.2998 63.0484C93.0166 63.3118 93.7549 63.5125 94.5065 63.648L94.3332 64.5243C93.969 64.3693 93.4127 64.161 92.6643 63.8993C92.6501 64.1132 92.6075 64.3242 92.5375 64.5267C92.0931 65.7927 91.4407 66.2747 90.5805 65.9727V65.9727ZM91.4083 57.5536L91.5193 56.7394C92.1069 56.8599 92.7873 56.9747 93.5603 57.0839L93.8644 54.8512C93.1695 54.7564 92.483 54.6866 91.8049 54.6419L91.9159 53.8275C92.5313 53.9583 93.238 54.0784 94.0359 54.1877C94.7912 54.302 95.5551 54.3486 96.3187 54.3269L96.3212 55.2489C96.099 55.2024 95.4788 55.0969 94.4608 54.9323L94.1579 57.1555C94.7431 57.2267 95.3328 57.2546 95.9221 57.2389L95.9245 58.1608C95.281 58.0311 94.4886 57.9026 93.5471 57.7754C92.8013 57.6738 92.0884 57.5998 91.4083 57.5536ZM93.4937 48.4918C94.0784 48.454 94.3433 48.0064 94.2884 47.1489C94.2622 46.8825 94.2215 46.6178 94.1663 46.3559C93.6091 46.3919 93.0698 46.4331 92.5485 46.4796C92.5317 46.7684 92.5315 47.0578 92.5481 47.3465C92.5998 48.1474 92.915 48.5292 93.4937 48.4918ZM93.6205 49.209C93.3978 49.2315 93.1731 49.195 92.969 49.1031C92.7649 49.0113 92.5886 48.8674 92.4577 48.6859C92.1673 48.3058 91.9987 47.8468 91.9737 47.3692C91.9575 47.1161 91.9322 46.5757 91.898 45.7481C92.5262 45.7396 93.2422 45.7094 94.0457 45.6576C94.8084 45.6195 95.5664 45.5151 96.311 45.3457L96.4966 46.2488C96.1006 46.2454 95.507 46.2693 94.7157 46.3203C94.7849 46.5798 94.8316 46.8448 94.8553 47.1124C94.9418 48.4514 94.5302 49.1503 93.6205 49.209ZM91.2246 40.9273L91.0145 40.1378C91.5716 40.0344 92.239 39.8796 93.0167 39.6731C93.6324 39.5093 94.2171 39.3405 94.7705 39.1666L94.5298 38.2622C94.167 38.2659 93.8102 38.2546 93.4588 38.2318C93.1071 38.209 92.7733 38.1716 92.4564 38.1231C92.1586 38.0783 91.8634 38.0171 91.5723 37.9399C91.3266 37.8759 91.0865 37.792 90.8544 37.689C90.6704 37.6084 90.4993 37.5012 90.3464 37.3709C90.2263 37.2724 90.1384 37.1401 90.0941 36.9912L90.8092 36.7512C90.8566 36.8479 90.9329 36.9274 91.0276 36.9787C91.1765 37.0689 91.3348 37.1425 91.4996 37.1984C91.7232 37.2756 91.951 37.3398 92.1819 37.3907C92.4404 37.4514 92.7197 37.5017 93.02 37.5447C93.321 37.5892 93.6367 37.6214 93.9688 37.6461C94.302 37.6686 94.6381 37.6772 94.9802 37.6709L95.3768 39.1616L95.6269 39.7509C94.9836 39.8806 94.2028 40.0674 93.2845 40.311C92.5571 40.5046 91.8704 40.7101 91.2246 40.9273ZM89.2097 31.7981C89.6324 31.5769 90.0141 31.3832 90.355 31.217C90.1711 30.8037 89.9338 30.4163 89.6492 30.0646C89.5249 29.8872 89.3418 29.7595 89.1324 29.7041C88.923 29.6487 88.7007 29.6692 88.505 29.762C88.1209 29.9486 88.0604 30.3128 88.3235 30.8546C88.4967 31.2649 88.8111 31.5996 89.2097 31.7981ZM88.7536 32.9457L88.4051 32.294C88.5185 32.1993 88.6425 32.1181 88.7747 32.0522L88.7543 32.0102C88.2298 31.7768 87.8142 31.3519 87.5924 30.8224C87.4377 30.5216 87.3949 30.1757 87.4716 29.8463C87.5133 29.6802 87.5932 29.5262 87.7051 29.3966C87.8169 29.2671 87.9576 29.1654 88.1157 29.0999C88.3207 28.9961 88.5484 28.9456 88.778 28.9529C89.0076 28.9602 89.2317 29.0252 89.4296 29.1418C89.8703 29.381 90.3395 29.9947 90.8373 30.983C90.9189 30.9547 90.9987 30.9213 91.0761 30.883C91.424 30.7141 91.6107 30.5093 91.6361 30.2686C91.6425 29.945 91.5613 29.6256 91.4012 29.3442C91.1875 28.9033 90.919 28.4912 90.6021 28.1175L91.2206 27.9064C91.5793 28.3196 91.8788 28.7808 92.1106 29.2765C92.3359 29.6754 92.4252 30.1368 92.3652 30.5909C92.3048 30.802 92.1954 30.9958 92.0458 31.1565C91.8962 31.3171 91.7107 31.4402 91.5045 31.5154C91.3716 31.58 91.1277 31.6912 90.7733 31.8472C90.419 32.0031 90.1837 32.1103 90.0683 32.1664C89.6067 32.3845 89.1665 32.6454 88.7536 32.9457V32.9457ZM86.2411 23.6355C86.5892 23.3892 86.8469 23.0355 86.9748 22.6286C87.0336 22.4379 87.0443 22.2356 87.0058 22.0398C86.9672 21.844 86.8807 21.6608 86.7539 21.5067C86.6342 21.3107 86.4678 21.1475 86.2694 21.0318C86.0711 20.9161 85.8471 20.8514 85.6176 20.8437C84.8047 21.5147 84.0958 22.0765 83.4908 22.5292C83.4816 22.8884 83.6019 23.2389 83.8297 23.5168C83.9522 23.7043 84.1203 23.8578 84.3181 23.9627C84.516 24.0677 84.7373 24.1207 84.9613 24.117C85.4278 24.0946 85.8755 23.9261 86.2411 23.6355V23.6355ZM86.8332 24.2386C86.3265 24.6326 85.7021 24.8447 85.0603 24.8409C84.7491 24.8406 84.4426 24.7645 84.1674 24.6191C83.8922 24.4738 83.6565 24.2636 83.4808 24.0067C83.3391 23.862 83.2277 23.6905 83.1531 23.5022C83.0785 23.3139 83.0423 23.1127 83.0466 22.9102L83.0186 22.8729C82.3211 23.3954 81.7044 23.8687 81.1685 24.293L80.6381 23.5852C81.3496 23.1427 82.1957 22.5543 83.1764 21.8201C84.1311 21.136 85.0234 20.3688 85.8431 19.5277L86.4333 20.1202L86.1031 20.4559L86.1312 20.4933C86.3995 20.5325 86.6559 20.63 86.8823 20.7792C87.1088 20.9283 87.2997 21.1253 87.4416 21.3563C87.6133 21.5674 87.7325 21.8162 87.7892 22.0822C87.8459 22.3483 87.8386 22.6241 87.7678 22.8868C87.6233 23.4326 87.2927 23.9107 86.8332 24.2386V24.2386ZM82.4059 15.6376C81.8409 16.0232 81.2326 16.341 80.5935 16.5846C79.7338 16.9459 78.8995 17.3649 78.0964 17.8387C77.6467 18.1762 77.1409 18.4317 76.6024 18.5935C76.3576 18.603 76.1136 18.5579 75.8882 18.4616C75.6629 18.3652 75.4618 18.22 75.2995 18.0364L75.7122 17.5223C75.8438 17.6481 76.0002 17.7451 76.1714 17.8071C76.3426 17.8691 76.5248 17.8948 76.7065 17.8826C76.8907 17.8709 77.0708 17.8222 77.2359 17.7395C77.401 17.6568 77.5478 17.5417 77.6675 17.4012C77.901 17.1428 78.2422 16.3354 78.691 14.9791C79.1407 13.6224 79.3746 12.9337 79.3926 12.9131L80.1141 13.5654C79.8471 14.1074 79.6111 14.6642 79.4072 15.2329C79.1902 15.8797 78.8984 16.4989 78.5375 17.0778L78.5721 17.109C79.0573 16.7305 79.5799 16.4027 80.1318 16.1305C80.7193 15.8423 81.2698 15.4841 81.7714 15.0638L82.4059 15.6376ZM75.5235 9.9102L75.1398 10.4959C74.7271 10.1915 74.3096 9.91287 73.8873 9.66C73.6524 10.0282 73.3575 10.5095 73.0024 11.1038C72.6164 11.7499 72.2692 12.377 71.9609 12.985L71.2265 12.5464C71.5856 12.0299 71.9718 11.4261 72.3852 10.7349C72.7309 10.1563 73.0093 9.6652 73.2206 9.2616C72.8017 9.01146 72.3542 8.77348 71.8783 8.54767L72.2619 7.96166L75.5235 9.9102ZM65.6098 8.65461C65.7768 8.20779 65.9319 7.80877 66.075 7.45755C65.6622 7.2725 65.2269 7.1423 64.7803 7.07029C64.5694 7.02098 64.3478 7.04799 64.1548 7.1465C63.9618 7.24501 63.81 7.40867 63.7262 7.60846C63.5645 8.00367 63.7624 8.3153 64.32 8.54336C64.7229 8.73334 65.1804 8.7728 65.6098 8.65459V8.65461ZM66.0358 9.81369L65.3414 9.561C65.3626 9.41474 65.4008 9.27146 65.4553 9.13411L65.4122 9.11646C64.8657 9.29258 64.2727 9.25348 63.754 9.00715C63.4381 8.88641 63.1754 8.65724 63.0128 8.36062C62.933 8.20919 62.8898 8.04117 62.8866 7.87004C62.8834 7.69891 62.9204 7.5294 62.9945 7.37511C63.0777 7.16103 63.2136 6.97136 63.3894 6.8236C63.5653 6.67584 63.7755 6.57475 64.0007 6.52964C64.4887 6.41353 65.2477 6.55741 66.2779 6.96126C66.3199 6.88582 66.357 6.80779 66.3891 6.72765C66.4621 6.60151 66.5011 6.45862 66.5023 6.31291C66.5035 6.16721 66.4669 6.02368 66.396 5.89636C66.185 5.65094 65.9114 5.46718 65.6044 5.36456C65.151 5.17886 64.676 5.05107 64.1907 4.98422L64.5104 4.41435C65.0533 4.48269 65.5841 4.62618 66.0875 4.8407C66.5214 4.98747 66.8958 5.27146 67.1541 5.64978C67.25 5.84724 67.2979 6.06462 67.2937 6.28412C67.2896 6.50363 67.2335 6.71904 67.1301 6.91272C67.0743 7.04954 66.9668 7.29513 66.8072 7.64766C66.6472 8.00019 66.5436 8.23699 66.4949 8.3559C66.2967 8.82643 66.143 9.31449 66.0358 9.81368V9.81369ZM58.0971 7.16611L57.2895 7.01423C57.4395 6.43323 57.5886 5.75953 57.7366 4.99314L55.5219 4.57664C55.3923 5.2658 55.288 5.94785 55.2089 6.62279L54.4013 6.47091C54.5631 5.86294 54.7187 5.16328 54.868 4.37193C55.0204 3.62338 55.1055 2.86271 55.1224 2.09899L56.0433 2.14319C55.9858 2.36261 55.8492 2.97657 55.6333 3.98507L57.8384 4.39974C57.9389 3.8189 57.9964 3.23145 58.0107 2.64215L58.9315 2.68641C58.7695 3.32229 58.6012 4.10724 58.4265 5.04123C58.2874 5.78105 58.1776 6.48934 58.0971 7.16609V7.16611ZM44.4697 1.2368C44.4612 1.04738 44.3883 0.86654 44.2629 0.724248C44.1985 0.658285 44.1205 0.607038 44.0344 0.574012C43.9483 0.540985 43.8561 0.52696 43.764 0.532901C43.672 0.538841 43.5823 0.564608 43.5012 0.60843C43.42 0.652253 43.3493 0.713096 43.2938 0.786797C43.1862 0.943444 43.1359 1.13245 43.1514 1.3219C43.1593 1.50777 43.2329 1.68481 43.3591 1.82155C43.4248 1.8857 43.5033 1.93532 43.5895 1.96719C43.6756 1.99906 43.7675 2.01248 43.8592 2.00656C43.9508 2.00065 44.0402 1.97554 44.1216 1.93286C44.2029 1.89018 44.2744 1.83088 44.3314 1.75882C44.4371 1.60635 44.4861 1.42163 44.4697 1.23679V1.2368ZM46.6661 5.03871C46.6578 4.84872 46.5836 4.66755 46.4561 4.52646C46.392 4.46048 46.3143 4.4092 46.2285 4.37613C46.1426 4.34306 46.0506 4.329 45.9588 4.33492C45.867 4.34083 45.7776 4.36659 45.6967 4.4104C45.6158 4.45422 45.5454 4.51505 45.4903 4.58871C45.3827 4.74539 45.3324 4.9344 45.348 5.12384C45.3562 5.30911 45.4284 5.48582 45.5523 5.62377C45.6149 5.69199 45.6928 5.74434 45.7796 5.7765C45.8665 5.80865 45.9597 5.8197 46.0516 5.80873C46.1446 5.8076 46.236 5.78457 46.3184 5.74152C46.4008 5.69847 46.472 5.63661 46.526 5.56094C46.6324 5.40861 46.6819 5.2238 46.6661 5.0387V5.03871ZM46.7951 0.0122165C46.8132 0.29107 46.2669 1.32031 45.1561 3.09994C44.0456 4.88142 43.502 5.95182 43.5252 6.31112L42.9695 6.30028C42.9498 5.99603 43.4946 4.95081 44.6038 3.16462C45.7139 1.37699 46.2586 0.322123 46.2377 0L46.7951 0.0122165ZM47.2046 4.98465C47.2278 5.2813 47.1322 5.57502 46.9389 5.8012C46.8308 5.92357 46.6981 6.02172 46.5494 6.08923C46.4008 6.15674 46.2396 6.19208 46.0763 6.19293C45.9147 6.21284 45.7507 6.19885 45.5949 6.15187C45.439 6.10489 45.2946 6.02595 45.1709 5.92007C45.0616 5.82235 44.9727 5.7039 44.9095 5.57158C44.8463 5.43927 44.8101 5.29573 44.8028 5.14928C44.7802 4.85224 44.8756 4.55828 45.0684 4.33119C45.2976 4.09868 45.604 3.95819 45.9298 3.93628C46.2555 3.91437 46.578 4.01256 46.8363 4.21229C46.9455 4.3104 47.0343 4.42915 47.0975 4.5617C47.1608 4.69425 47.1972 4.83799 47.2046 4.98465ZM45.0129 1.18241C45.0357 1.47946 44.9402 1.77347 44.7473 2.0005C44.64 2.12393 44.5076 2.22303 44.3589 2.29117C44.2102 2.3593 44.0487 2.39489 43.8851 2.39556C43.7233 2.41567 43.559 2.4015 43.403 2.35395C43.2469 2.30641 43.1027 2.22655 42.9795 2.11958C42.8703 2.02147 42.7815 1.90272 42.7182 1.77017C42.655 1.63762 42.6186 1.49388 42.6112 1.34722C42.5885 1.05017 42.684 0.756193 42.8768 0.529128C43.106 0.296558 43.4124 0.156009 43.7381 0.134067C44.0639 0.112125 44.3864 0.210308 44.6447 0.410047C44.7539 0.508163 44.8427 0.626909 44.9059 0.75946C44.9691 0.892011 45.0055 1.03575 45.0129 1.18241ZM37.2169 5.10948C37.1072 4.60211 36.857 4.1358 36.495 3.76378C36.3575 3.62238 36.1838 3.52149 35.9928 3.47213C35.8019 3.42276 35.601 3.42683 35.4122 3.48388C35.2299 3.52772 35.0631 3.62089 34.9302 3.75319C34.7973 3.8855 34.7033 4.05183 34.6587 4.23397C34.5408 4.6776 34.5491 5.14531 34.6824 5.58452C34.7921 6.09201 35.0422 6.55843 35.4043 6.93051C35.5418 7.0719 35.7155 7.17281 35.9065 7.22218C36.0974 7.27154 36.2983 7.26748 36.4871 7.21044C36.6594 7.16496 36.8175 7.07684 36.9468 6.95419C37.0761 6.83154 37.1725 6.67831 37.227 6.50862C37.3691 6.05251 37.3655 5.56349 37.2169 5.10948ZM37.9362 4.72376C38.1324 5.36913 38.1136 6.06078 37.8827 6.69455C37.7726 6.98029 37.5932 7.23422 37.3607 7.43351C37.1282 7.6328 36.8498 7.77123 36.5506 7.83636C36.2766 7.92548 35.9849 7.946 35.7012 7.89611C35.4174 7.84621 35.1502 7.72742 34.923 7.55017C34.4379 7.14362 34.1004 6.58834 33.963 5.97045C33.7669 5.325 33.7857 4.63334 34.0167 3.99952C34.1268 3.7138 34.3062 3.4599 34.5387 3.26063C34.7712 3.06136 35.0495 2.92296 35.3487 2.85784C35.6227 2.76879 35.9143 2.74831 36.1981 2.7982C36.4818 2.84809 36.749 2.96683 36.9761 3.144C37.4614 3.55052 37.7988 4.10583 37.9362 4.72376ZM28.3225 8.2779C28.0956 7.81095 27.7419 7.41728 27.3018 7.14192C27.1347 7.0372 26.942 6.98042 26.7448 6.97779C26.5476 6.97516 26.3535 7.02678 26.1836 7.127C26.0169 7.21291 25.877 7.34303 25.7793 7.50313C25.6816 7.66322 25.6299 7.84712 25.6297 8.03466C25.6205 8.49362 25.7396 8.94604 25.9735 9.34102C26.2005 9.80798 26.5542 10.2017 26.9943 10.4772C27.1614 10.5818 27.3541 10.6386 27.5513 10.6412C27.7485 10.6438 27.9426 10.5921 28.1124 10.4919C28.269 10.4068 28.4017 10.2837 28.4982 10.1339C28.5947 9.98406 28.6519 9.81235 28.6646 9.63459C28.6943 9.15781 28.5747 8.6836 28.3225 8.2779ZM28.9298 7.73232C29.2735 8.31268 29.4195 8.98899 29.3457 9.65946C29.3066 9.9632 29.1927 10.2525 29.0141 10.5013C28.8355 10.7501 28.5979 10.9506 28.3227 11.0848C28.0777 11.2365 27.7993 11.3256 27.5118 11.3445C27.2243 11.3635 26.9366 11.3115 26.6739 11.1933C26.106 10.9136 25.6463 10.4543 25.3662 9.88654C25.0225 9.30619 24.8765 8.62988 24.9504 7.95942C24.9895 7.6557 25.1035 7.36645 25.282 7.11766C25.4606 6.86887 25.6981 6.66833 25.9733 6.53404C26.2183 6.38246 26.4968 6.29331 26.7843 6.27442C27.0717 6.25554 27.3594 6.3075 27.6222 6.42572C28.19 6.70541 28.6497 7.16469 28.9298 7.73231V7.73232ZM22.2377 14.7649L21.5942 15.2471C21.2247 14.6975 20.8269 14.1379 20.4007 13.5682C19.9061 12.9078 19.5277 12.4312 19.2654 12.1385L18.7286 13.2103L18.3061 13.0155L18.9145 11.0034L19.2382 10.7608C19.8199 11.5908 20.3954 12.3857 20.9647 13.1457C21.3669 13.6826 21.7913 14.2224 22.2377 14.7649V14.7649Z" fill="#219653"/>
<path fill-rule="evenodd" clip-rule="evenodd" d="M67.2182 19.2756C66.0934 23.256 62.8395 26.6143 56.998 29.2171C48.7766 32.8817 38.8108 34.5777 33.1604 42.0448C28.8043 47.8017 27.292 55.5483 27.5101 62.6224C33.3508 48.2694 38.0384 45.5909 50.9457 39.7003C56.8494 37.0062 61.6739 33.8045 64.8529 29.828C62.0476 35.2719 56.2871 39.6674 47.8417 43.1096C49.18 44.6485 51.2644 45.4833 53.6639 46.0206C51.2017 46.4721 48.6969 46.0242 46.1133 43.9283C44.491 45.2168 42.8687 46.5055 41.2464 47.7944C43.8072 50.2333 47.1001 51.3139 50.9347 51.3878C47.6516 52.5809 43.9079 52.2605 39.3512 49.2685C38.0876 50.915 36.8242 52.5614 35.5609 54.2078C39.7141 57.2497 43.7339 57.4906 47.7052 56.7095C43.4716 59.1879 38.9608 59.3254 34.0599 56.1637C30.1712 62.7364 27.5773 69.993 26.4183 77.5414C26.8126 77.9357 27.2068 78.3298 27.6011 78.724C28.1466 74.5722 29.4863 71.3525 31.5818 69.0207C35.9316 64.1807 41.0423 64.9698 46.7734 63.6506C54.2153 61.9373 60.5649 58.4382 64.853 51.5697C70.8737 39.662 71.7496 28.8785 67.2182 19.2756Z" fill="#219653"/>
<path fill-rule="evenodd" clip-rule="evenodd" d="M78.5265 45.7159C77.9684 47.0925 76.9953 48.2611 75.7425 49.0592C76.8169 49.278 78.4662 52.2467 79.5864 52.2915C80.4259 51.7738 80.4935 51.5573 82.8057 49.2522C81.1631 48.5536 79.8942 45.5401 78.5265 45.7159" fill="#219653"/>
<path fill-rule="evenodd" clip-rule="evenodd" d="M16.4832 45.7159C15.9252 47.0925 14.9521 48.2611 13.6992 49.0592C14.7735 49.278 16.4229 52.2467 17.5432 52.2915C18.3827 51.7738 18.4503 51.5573 20.7625 49.2522C19.1199 48.5536 17.8509 45.5401 16.4833 45.7159" fill="#219653"/>
</svg>
