<svg width="321" height="287" viewBox="0 0 321 287" fill="none" xmlns="http://www.w3.org/2000/svg">
<g clip-path="url(#clip0)">
<rect width="321" height="287" fill="#00B0BD"/>
<path fill-rule="evenodd" clip-rule="evenodd" d="M47.9685 263.03L13.6969 263.093L-10.4923 287.372L-10.4295 321.643L13.8487 345.832L48.1204 345.77L72.3096 321.491L72.2467 287.22L47.9685 263.03ZM75.3865 285.912L49.2643 259.886L12.3896 259.954L-13.637 286.076L-13.5693 322.951L12.553 348.977L49.4277 348.909L75.4542 322.787L75.3865 285.912Z" fill="#F8F2E7"/>
<path d="M-10.5112 260.585L-10.4766 270.927L2.87924 284.234L21.7327 284.2L35.0396 270.844L35.005 260.056L38.128 260.056L38.1674 272.133L23.033 287.323L1.59041 287.362L-13.5996 272.228L-13.5994 260.585H-10.5112Z" fill="#F8F2E7"/>
<path d="M23.6469 259.968L26.8112 259.968V270.923L40.167 284.23L59.0205 284.196L72.3274 270.84V260.533H75.4551V272.129L60.3208 287.319L38.8782 287.358L23.6882 272.224L23.6469 259.968Z" fill="#F8F2E7"/>
<path d="M-13.6375 308.956L-2.5988 308.922L10.7081 295.566L10.6735 276.712L-2.68234 263.405L-13.6373 263.44V260.317L-1.39351 260.278L13.7965 275.412L13.8359 296.855L-1.2985 312.045L-13.6373 312.084L-13.6375 308.956Z" fill="#F8F2E7"/>
<path d="M51.5022 276.8L51.5368 295.659L64.8978 308.969L75.4539 308.938V312.062L63.6085 312.097L48.4127 296.959L48.3733 275.511L63.5134 260.317L75.4481 260.291L75.4539 263.417L64.8142 263.441L51.5022 276.8Z" fill="#F8F2E7"/>
<path fill-rule="evenodd" clip-rule="evenodd" d="M47.484 176.169L13.2124 176.232L-10.9768 200.51L-10.9139 234.782L13.3642 258.971L47.6359 258.908L71.8251 234.63L71.7622 200.359L47.484 176.169ZM74.902 199.051L48.7798 173.025L11.9051 173.092L-14.1215 199.215L-14.0538 236.089L12.0685 262.116L48.9432 262.048L74.9697 235.926L74.902 199.051Z" fill="#F8F2E7"/>
<path d="M21.2419 237.013L2.38508 236.987L-10.9674 250.302L-10.9937 260.25L-14.1215 261.54L-14.0915 249.003L1.09464 233.859L22.5411 233.889L37.6849 249.075L37.6549 261.613L34.5308 260.314L34.5571 250.366L21.2419 237.013Z" fill="#F8F2E7"/>
<path d="M58.4508 236.987L39.5974 237.022L26.2905 250.378L26.3251 260.322L23.2021 261.622L23.1627 249.089L38.2971 233.899L59.7397 233.859L74.9297 248.994L74.969 261.527L71.8413 260.238L71.8067 250.294L58.4508 236.987Z" fill="#F8F2E7"/>
<path d="M-10.9951 173.721L-10.9605 184.063L2.39536 197.37L21.2488 197.335L34.5557 183.979L34.5211 173.191L37.6441 173.191L37.6835 185.268L22.5491 200.458L1.10653 200.498L-14.0835 185.363L-14.0833 173.721H-10.9951Z" fill="#F8F2E7"/>
<path d="M23.1627 173.109L26.327 173.109V184.064L39.6829 197.371L58.5363 197.336L71.8433 183.981V173.673H74.971V185.269L59.8366 200.459L38.3941 200.499L23.204 185.364L23.1627 173.109Z" fill="#F8F2E7"/>
<path d="M-14.1097 258.989L-3.08074 258.955L10.2262 245.599L10.1916 226.745L-3.16428 213.438L-14.1099 213.473V210.35L-1.87545 210.311L13.3146 225.445L13.3539 246.887L-1.78044 262.078L-14.1111 262.117L-14.1097 258.989Z" fill="#F8F2E7"/>
<path d="M-14.1215 222.097L-3.08281 222.062L10.2241 208.707L10.1895 189.853L-3.16635 176.546L-14.1213 176.581V173.458L-1.87752 173.418L13.3125 188.553L13.3519 209.995L-1.78251 225.185L-14.1213 225.225L-14.1215 222.097Z" fill="#F8F2E7"/>
<path d="M51.0174 226.829L51.052 245.682L64.4079 258.989L74.9702 258.955V262.078L63.119 262.117L47.929 246.983L47.8896 225.54L63.024 210.35L74.9702 210.345V213.473L64.3243 213.473L51.0174 226.829Z" fill="#F8F2E7"/>
<path d="M51.0186 189.94L51.0532 208.799L64.4141 222.109L74.9702 222.078V225.202L63.1248 225.237L47.929 210.099L47.8896 188.651L63.0298 173.457L74.9645 173.431L74.9702 176.557L64.3306 176.581L51.0186 189.94Z" fill="#F8F2E7"/>
<path fill-rule="evenodd" clip-rule="evenodd" d="M47.9685 90.0077L13.6969 90.0706L-10.4923 114.349L-10.4295 148.62L13.8487 172.81L48.1204 172.747L72.3096 148.469L72.2467 114.197L47.9685 90.0077ZM75.3865 112.89L49.2643 86.863L12.3896 86.9307L-13.637 113.053L-13.5693 149.928L12.553 175.954L49.4277 175.887L75.4542 149.764L75.3865 112.89Z" fill="#F8F2E7"/>
<path d="M21.726 150.85L2.86909 150.824L-10.4834 164.139L-10.5097 174.087L-13.6375 175.377L-13.6075 162.84L1.57865 147.696L23.0251 147.726L38.1689 162.912L38.1389 175.45L35.0148 174.151L35.0411 164.203L21.726 150.85Z" fill="#F8F2E7"/>
<path d="M58.935 150.824L40.0815 150.859L26.7746 164.215L26.8092 174.159L23.6862 175.459L23.6469 162.926L38.7812 147.736L60.2238 147.696L75.4138 162.831L75.4532 175.364L72.3254 174.075L72.2908 164.131L58.935 150.824Z" fill="#F8F2E7"/>
<path d="M-10.5112 87.562L-10.4766 97.904L2.87924 111.211L21.7327 111.176L35.0396 97.8204L35.005 87.0325L38.128 87.0325L38.1674 99.1093L23.033 114.299L1.59041 114.339L-13.5996 99.2043L-13.5994 87.562H-10.5112Z" fill="#F8F2E7"/>
<path d="M23.6469 86.9451L26.8112 86.9451V97.9001L40.167 111.207L59.0205 111.172L72.3274 97.8165V87.5094H75.4551V99.1054L60.3208 114.295L38.8782 114.335L23.6882 99.2004L23.6469 86.9451Z" fill="#F8F2E7"/>
<path d="M-13.6259 172.826L-2.59698 172.792L10.71 159.436L10.6754 140.582L-2.68052 127.275L-13.6262 127.31V124.187L-1.39169 124.148L13.7984 139.282L13.8377 160.725L-1.29668 175.915L-13.6273 175.954L-13.6259 172.826Z" fill="#F8F2E7"/>
<path d="M-13.6375 135.933L-2.5988 135.898L10.7081 122.543L10.6735 103.689L-2.68234 90.3821L-13.6373 90.4167V87.2938L-1.39351 87.2544L13.7965 102.389L13.8359 123.831L-1.2985 139.021L-13.6373 139.061L-13.6375 135.933Z" fill="#F8F2E7"/>
<path d="M51.501 140.665L51.5356 159.519L64.8915 172.826L75.4539 172.791V175.914L63.6027 175.954L48.4126 160.819L48.3733 139.377L63.5077 124.187L75.4539 124.182V127.31L64.808 127.31L51.501 140.665Z" fill="#F8F2E7"/>
<path d="M51.5022 103.777L51.5368 122.636L64.8978 135.946L75.4539 135.916V139.039L63.6085 139.075L48.4127 123.936L48.3733 102.488L63.5134 87.2944L75.4481 87.2683L75.4539 90.3945L64.8142 90.4182L51.5022 103.777Z" fill="#F8F2E7"/>
<path fill-rule="evenodd" clip-rule="evenodd" d="M47.484 3.14632L13.2124 3.20922L-10.9768 27.4874L-10.9139 61.759L13.3642 85.9483L47.6359 85.8854L71.8251 61.6072L71.7622 27.3356L47.484 3.14632ZM74.902 26.0282L48.7798 0.00170898L11.9051 0.0693861L-14.1215 26.1916L-14.0538 63.0664L12.0685 89.0929L48.9432 89.0252L74.9697 62.903L74.902 26.0282Z" fill="#F8F2E7"/>
<path d="M21.2419 63.9905L2.38508 63.9642L-10.9674 77.2794L-10.9937 87.2271L-14.1215 88.5175L-14.0915 75.9802L1.09464 60.8364L22.5411 60.8664L37.6849 76.0525L37.6549 88.5898L34.5308 87.2907L34.5571 77.343L21.2419 63.9905Z" fill="#F8F2E7"/>
<path d="M58.4508 63.9642L39.5974 63.9988L26.2905 77.3546L26.3251 87.2989L23.2021 88.5992L23.1627 76.0658L38.2971 60.8758L59.7397 60.8364L74.9297 75.9708L74.969 88.5042L71.8413 87.2154L71.8067 77.2711L58.4508 63.9642Z" fill="#F8F2E7"/>
<path d="M-10.9951 0.697783L-10.9605 11.0397L2.39536 24.3467L21.2488 24.3121L34.5557 10.9562L34.5211 0.168238L37.6441 0.168213L37.6835 12.245L22.5491 27.435L1.10653 27.4744L-14.0835 12.34L-14.0833 0.697783H-10.9951Z" fill="#F8F2E7"/>
<path d="M23.1627 0.0856934L26.327 0.0857709V11.0407L39.6829 24.3476L58.5363 24.313L71.8433 10.9571V0.650036H74.971V12.246L59.8366 27.436L38.3941 27.4754L23.204 12.341L23.1627 0.0856934Z" fill="#F8F2E7"/>
<path d="M-14.1097 85.9662L-3.08074 85.9316L10.2262 72.5757L10.1916 53.7223L-3.16428 40.4153L-14.1099 40.4499V37.327L-1.87545 37.2876L13.3146 52.422L13.3539 73.8645L-1.78044 89.0546L-14.1111 89.0939L-14.1097 85.9662Z" fill="#F8F2E7"/>
<path d="M-14.1215 49.0736L-3.08281 49.039L10.2241 35.6831L10.1895 16.8297L-3.16635 3.52276L-14.1213 3.55736V0.434377L-1.87752 0.39502L13.3125 15.5294L13.3519 36.972L-1.78251 52.162L-14.1213 52.2013L-14.1215 49.0736Z" fill="#F8F2E7"/>
<path d="M51.0174 53.8051L51.052 72.6586L64.4079 85.9655L74.9702 85.9309V89.0539L63.119 89.0932L47.929 73.9589L47.8896 52.5163L63.024 37.3263L74.9702 37.3215V40.4493L64.3243 40.4493L51.0174 53.8051Z" fill="#F8F2E7"/>
<path d="M51.0186 16.9174L51.0532 35.7757L64.4141 49.086L74.9702 49.0555V52.1793L63.1248 52.2145L47.929 37.0763L47.8896 15.6282L63.0298 0.434301L74.9645 0.408208L74.9702 3.53437L64.3306 3.55809L51.0186 16.9174Z" fill="#F8F2E7"/>
<path fill-rule="evenodd" clip-rule="evenodd" d="M134.128 263.03L99.8565 263.093L75.6673 287.372L75.7302 321.643L100.008 345.832L134.28 345.77L158.469 321.491L158.406 287.22L134.128 263.03ZM161.546 285.912L135.424 259.886L98.5492 259.954L72.5227 286.076L72.5904 322.951L98.7126 348.977L135.587 348.909L161.614 322.787L161.546 285.912Z" fill="#F8F2E7"/>
<path d="M75.6491 260.585L75.6837 270.927L89.0395 284.234L107.893 284.2L121.2 270.844L121.165 260.056L124.288 260.056L124.328 272.133L109.193 287.323L87.7507 287.362L72.5607 272.228L72.5609 260.585H75.6491Z" fill="#F8F2E7"/>
<path d="M109.807 259.968L112.971 259.968V270.923L126.327 284.23L145.181 284.196L158.488 270.84V260.533H161.615V272.129L146.481 287.319L125.038 287.358L109.848 272.224L109.807 259.968Z" fill="#F8F2E7"/>
<path d="M72.5227 308.956L83.5614 308.922L96.8683 295.566L96.8337 276.712L83.4778 263.405L72.5229 263.44V260.317L84.7666 260.278L99.9567 275.412L99.996 296.855L84.8617 312.045L72.5229 312.084L72.5227 308.956Z" fill="#F8F2E7"/>
<path d="M137.662 276.8L137.697 295.659L151.058 308.969L161.614 308.938V312.062L149.769 312.097L134.573 296.959L134.533 275.511L149.674 260.317L161.608 260.291L161.614 263.417L150.974 263.441L137.662 276.8Z" fill="#F8F2E7"/>
<path fill-rule="evenodd" clip-rule="evenodd" d="M220.991 263.03L186.72 263.093L162.53 287.372L162.593 321.643L186.872 345.832L221.143 345.77L245.332 321.491L245.27 287.22L220.991 263.03ZM248.409 285.912L222.287 259.886L185.412 259.954L159.386 286.076L159.454 322.951L185.576 348.977L222.451 348.909L248.477 322.787L248.409 285.912Z" fill="#F8F2E7"/>
<path d="M162.512 260.585L162.546 270.927L175.902 284.234L194.756 284.2L208.063 270.844L208.028 260.056L211.151 260.056L211.19 272.133L196.056 287.323L174.613 287.362L159.423 272.228L159.424 260.585H162.512Z" fill="#F8F2E7"/>
<path d="M196.67 259.968L199.834 259.968V270.923L213.19 284.23L232.043 284.196L245.35 270.84V260.533H248.478V272.129L233.344 287.319L211.901 287.358L196.711 272.224L196.67 259.968Z" fill="#F8F2E7"/>
<path d="M159.385 308.956L170.424 308.922L183.731 295.566L183.696 276.712L170.34 263.405L159.386 263.44V260.317L171.629 260.278L186.819 275.412L186.859 296.855L171.724 312.045L159.386 312.084L159.385 308.956Z" fill="#F8F2E7"/>
<path d="M224.525 276.8L224.56 295.659L237.921 308.969L248.477 308.938V312.062L236.631 312.097L221.436 296.959L221.396 275.511L236.536 260.317L248.471 260.291L248.477 263.417L237.837 263.441L224.525 276.8Z" fill="#F8F2E7"/>
<path fill-rule="evenodd" clip-rule="evenodd" d="M134.128 176.168L99.8565 176.23L75.6673 200.509L75.7302 234.78L100.008 258.97L134.28 258.907L158.469 234.628L158.406 200.357L134.128 176.168ZM161.546 199.049L135.424 173.023L98.5492 173.091L72.5227 199.213L72.5904 236.088L98.7126 262.114L135.587 262.046L161.614 235.924L161.546 199.049Z" fill="#F8F2E7"/>
<path d="M107.886 237.009L89.0292 236.982L75.6768 250.298L75.6504 260.245L72.5227 261.536L72.5527 248.998L87.7388 233.855L109.185 233.885L124.329 249.071L124.299 261.608L121.175 260.309L121.201 250.361L107.886 237.009Z" fill="#F8F2E7"/>
<path d="M145.095 236.982L126.242 237.017L112.935 250.373L112.969 260.317L109.846 261.618L109.807 249.084L124.941 233.894L146.384 233.855L161.574 248.989L161.613 261.523L158.486 260.234L158.451 250.289L145.095 236.982Z" fill="#F8F2E7"/>
<path d="M75.6491 173.721L75.6837 184.063L89.0395 197.37L107.893 197.335L121.2 183.979L121.165 173.191L124.288 173.191L124.328 185.268L109.193 200.458L87.7507 200.497L72.5607 185.363L72.5609 173.721H75.6491Z" fill="#F8F2E7"/>
<path d="M109.807 173.105L112.971 173.105V184.06L126.327 197.367L145.181 197.332L158.488 183.976V173.669H161.615V185.265L146.481 200.455L125.038 200.494L109.848 185.36L109.807 173.105Z" fill="#F8F2E7"/>
<path d="M72.5343 258.984L83.5632 258.95L96.8701 245.594L96.8355 226.741L83.4796 213.434L72.534 213.468V210.345L84.7685 210.306L99.9585 225.44L99.9979 246.883L84.8635 262.073L72.5328 262.112L72.5343 258.984Z" fill="#F8F2E7"/>
<path d="M72.5227 222.092L83.5614 222.058L96.8683 208.702L96.8337 189.848L83.4778 176.542L72.5229 176.576V173.453L84.7666 173.414L99.9567 188.548L99.996 209.991L84.8617 225.181L72.5229 225.22L72.5227 222.092Z" fill="#F8F2E7"/>
<path d="M137.661 226.824L137.696 245.678L151.052 258.985L161.614 258.95V262.073L149.763 262.112L134.573 246.978L134.533 225.535L149.668 210.345L161.614 210.341V213.468L150.968 213.468L137.661 226.824Z" fill="#F8F2E7"/>
<path d="M137.662 189.936L137.697 208.794L151.058 222.104L161.614 222.074V225.198L149.769 225.233L134.573 210.095L134.533 188.647L149.674 173.453L161.608 173.427L161.614 176.553L150.974 176.576L137.662 189.936Z" fill="#F8F2E7"/>
<path fill-rule="evenodd" clip-rule="evenodd" d="M220.507 176.169L186.235 176.232L162.046 200.51L162.109 234.782L186.387 258.971L220.659 258.908L244.848 234.63L244.785 200.359L220.507 176.169ZM247.925 199.051L221.803 173.025L184.928 173.092L158.901 199.215L158.969 236.089L185.091 262.116L221.966 262.048L247.993 235.926L247.925 199.051Z" fill="#F8F2E7"/>
<path d="M194.265 237.013L175.408 236.987L162.055 250.302L162.029 260.25L158.901 261.54L158.931 249.003L174.117 233.859L195.564 233.889L210.708 249.075L210.678 261.613L207.554 260.314L207.58 250.366L194.265 237.013Z" fill="#F8F2E7"/>
<path d="M231.474 236.987L212.62 237.022L199.313 250.378L199.348 260.322L196.225 261.622L196.186 249.089L211.32 233.899L232.763 233.859L247.953 248.994L247.992 261.527L244.864 260.238L244.83 250.294L231.474 236.987Z" fill="#F8F2E7"/>
<path d="M162.028 173.721L162.062 184.063L175.418 197.37L194.272 197.335L207.579 183.979L207.544 173.191L210.667 173.191L210.706 185.268L195.572 200.458L174.129 200.498L158.939 185.363L158.94 173.721H162.028Z" fill="#F8F2E7"/>
<path d="M196.186 173.109L199.35 173.109V184.064L212.706 197.371L231.559 197.336L244.866 183.981V173.673H247.994V185.269L232.86 200.459L211.417 200.499L196.227 185.364L196.186 173.109Z" fill="#F8F2E7"/>
<path d="M158.913 258.989L169.942 258.955L183.249 245.599L183.215 226.745L169.859 213.438L158.913 213.473V210.35L171.147 210.311L186.338 225.445L186.377 246.887L171.243 262.078L158.912 262.117L158.913 258.989Z" fill="#F8F2E7"/>
<path d="M158.901 222.097L169.94 222.062L183.247 208.707L183.212 189.853L169.856 176.546L158.902 176.581V173.458L171.145 173.418L186.335 188.553L186.375 209.995L171.24 225.185L158.902 225.225L158.901 222.097Z" fill="#F8F2E7"/>
<path d="M224.04 226.829L224.075 245.682L237.431 258.989L247.993 258.955V262.078L236.142 262.117L220.952 246.983L220.912 225.54L236.047 210.35L247.993 210.345V213.473L237.347 213.473L224.04 226.829Z" fill="#F8F2E7"/>
<path d="M224.041 189.94L224.076 208.799L237.437 222.109L247.993 222.078V225.202L236.148 225.237L220.952 210.099L220.912 188.651L236.053 173.457L247.987 173.431L247.993 176.557L237.353 176.581L224.041 189.94Z" fill="#F8F2E7"/>
<path fill-rule="evenodd" clip-rule="evenodd" d="M307.151 263.03L272.879 263.093L248.69 287.372L248.753 321.643L273.031 345.832L307.303 345.77L331.492 321.491L331.429 287.22L307.151 263.03ZM334.569 285.912L308.447 259.886L271.572 259.954L245.546 286.076L245.613 322.951L271.736 348.977L308.61 348.909L334.637 322.787L334.569 285.912Z" fill="#F8F2E7"/>
<path d="M248.672 260.585L248.707 270.927L262.063 284.234L280.916 284.2L294.223 270.844L294.188 260.056L297.311 260.056L297.351 272.133L282.216 287.323L260.774 287.362L245.584 272.228L245.584 260.585H248.672Z" fill="#F8F2E7"/>
<path d="M282.83 259.968L285.994 259.968V270.923L299.35 284.23L318.204 284.196L331.511 270.84V260.533H334.638V272.129L319.504 287.319L298.061 287.358L282.871 272.224L282.83 259.968Z" fill="#F8F2E7"/>
<path d="M245.546 308.956L256.584 308.922L269.891 295.566L269.857 276.712L256.501 263.405L245.546 263.44V260.317L257.79 260.278L272.98 275.412L273.019 296.855L257.885 312.045L245.546 312.084L245.546 308.956Z" fill="#F8F2E7"/>
<path d="M310.685 276.8L310.72 295.659L324.081 308.969L334.637 308.938V312.062L322.792 312.097L307.596 296.959L307.557 275.511L322.697 260.317L334.631 260.291L334.637 263.417L323.997 263.441L310.685 276.8Z" fill="#F8F2E7"/>
<path fill-rule="evenodd" clip-rule="evenodd" d="M307.151 176.168L272.879 176.23L248.69 200.509L248.753 234.78L273.031 258.97L307.303 258.907L331.492 234.628L331.429 200.357L307.151 176.168ZM334.569 199.049L308.447 173.023L271.572 173.091L245.546 199.213L245.613 236.088L271.736 262.114L308.61 262.046L334.637 235.924L334.569 199.049Z" fill="#F8F2E7"/>
<path d="M280.909 237.009L262.052 236.982L248.7 250.298L248.673 260.245L245.546 261.536L245.576 248.998L260.762 233.855L282.208 233.885L297.352 249.071L297.322 261.608L294.198 260.309L294.224 250.361L280.909 237.009Z" fill="#F8F2E7"/>
<path d="M318.118 236.982L299.265 237.017L285.958 250.373L285.992 260.317L282.869 261.618L282.83 249.084L297.964 233.894L319.407 233.855L334.597 248.989L334.636 261.523L331.509 260.234L331.474 250.289L318.118 236.982Z" fill="#F8F2E7"/>
<path d="M248.672 173.721L248.707 184.063L262.063 197.37L280.916 197.335L294.223 183.979L294.188 173.191L297.311 173.191L297.351 185.268L282.216 200.458L260.774 200.497L245.584 185.363L245.584 173.721H248.672Z" fill="#F8F2E7"/>
<path d="M282.83 173.105L285.994 173.105V184.06L299.35 197.367L318.204 197.332L331.511 183.976V173.669H334.638V185.265L319.504 200.455L298.061 200.494L282.871 185.36L282.83 173.105Z" fill="#F8F2E7"/>
<path d="M245.557 258.984L256.586 258.95L269.893 245.594L269.858 226.741L256.503 213.434L245.557 213.468V210.345L257.791 210.306L272.981 225.44L273.021 246.883L257.886 262.073L245.556 262.112L245.557 258.984Z" fill="#F8F2E7"/>
<path d="M245.546 222.092L256.584 222.058L269.891 208.702L269.857 189.848L256.501 176.542L245.546 176.576V173.453L257.79 173.414L272.98 188.548L273.019 209.991L257.885 225.181L245.546 225.22L245.546 222.092Z" fill="#F8F2E7"/>
<path d="M310.684 226.824L310.719 245.678L324.075 258.985L334.637 258.95V262.073L322.786 262.112L307.596 246.978L307.557 225.535L322.691 210.345L334.637 210.341V213.468L323.991 213.468L310.684 226.824Z" fill="#F8F2E7"/>
<path d="M310.685 189.936L310.72 208.794L324.081 222.104L334.637 222.074V225.198L322.792 225.233L307.596 210.095L307.557 188.647L322.697 173.453L334.631 173.427L334.637 176.553L323.997 176.576L310.685 189.936Z" fill="#F8F2E7"/>
<path fill-rule="evenodd" clip-rule="evenodd" d="M134.128 90.0077L99.8565 90.0706L75.6673 114.349L75.7302 148.62L100.008 172.81L134.28 172.747L158.469 148.469L158.406 114.197L134.128 90.0077ZM161.546 112.89L135.424 86.863L98.5492 86.9307L72.5227 113.053L72.5904 149.928L98.7126 175.954L135.587 175.887L161.614 149.764L161.546 112.89Z" fill="#F8F2E7"/>
<path d="M107.886 150.85L89.0292 150.824L75.6768 164.139L75.6504 174.087L72.5227 175.377L72.5527 162.84L87.7388 147.696L109.185 147.726L124.329 162.912L124.299 175.45L121.175 174.151L121.201 164.203L107.886 150.85Z" fill="#F8F2E7"/>
<path d="M145.095 150.824L126.242 150.859L112.935 164.215L112.969 174.159L109.846 175.459L109.807 162.926L124.941 147.736L146.384 147.696L161.574 162.831L161.613 175.364L158.486 174.075L158.451 164.131L145.095 150.824Z" fill="#F8F2E7"/>
<path d="M75.6491 87.562L75.6837 97.904L89.0395 111.211L107.893 111.176L121.2 97.8204L121.165 87.0325L124.288 87.0325L124.328 99.1093L109.193 114.299L87.7507 114.339L72.5607 99.2043L72.5609 87.562H75.6491Z" fill="#F8F2E7"/>
<path d="M109.807 86.9451L112.971 86.9451V97.9001L126.327 111.207L145.181 111.172L158.488 97.8165V87.5094H161.615V99.1054L146.481 114.295L125.038 114.335L109.848 99.2004L109.807 86.9451Z" fill="#F8F2E7"/>
<path d="M72.5343 172.826L83.5632 172.792L96.8701 159.436L96.8355 140.582L83.4796 127.275L72.534 127.31V124.187L84.7685 124.148L99.9585 139.282L99.9979 160.725L84.8635 175.915L72.5328 175.954L72.5343 172.826Z" fill="#F8F2E7"/>
<path d="M72.5227 135.933L83.5614 135.898L96.8683 122.543L96.8337 103.689L83.4778 90.3821L72.5229 90.4167V87.2938L84.7666 87.2544L99.9567 102.389L99.996 123.831L84.8617 139.021L72.5229 139.061L72.5227 135.933Z" fill="#F8F2E7"/>
<path d="M137.661 140.665L137.696 159.519L151.052 172.826L161.614 172.791V175.914L149.763 175.954L134.573 160.819L134.533 139.377L149.668 124.187L161.614 124.182V127.31L150.968 127.31L137.661 140.665Z" fill="#F8F2E7"/>
<path d="M137.662 103.777L137.697 122.636L151.058 135.946L161.614 135.916V139.039L149.769 139.075L134.573 123.936L134.533 102.488L149.674 87.2944L161.608 87.2683L161.614 90.3945L150.974 90.4182L137.662 103.777Z" fill="#F8F2E7"/>
<path fill-rule="evenodd" clip-rule="evenodd" d="M220.991 90.0077L186.72 90.0706L162.53 114.349L162.593 148.62L186.872 172.81L221.143 172.747L245.332 148.469L245.27 114.197L220.991 90.0077ZM248.409 112.89L222.287 86.863L185.412 86.9307L159.386 113.053L159.454 149.928L185.576 175.954L222.451 175.887L248.477 149.764L248.409 112.89Z" fill="#F8F2E7"/>
<path d="M194.749 150.85L175.892 150.824L162.539 164.139L162.513 174.087L159.385 175.377L159.415 162.84L174.601 147.696L196.048 147.726L211.192 162.912L211.162 175.45L208.038 174.151L208.064 164.203L194.749 150.85Z" fill="#F8F2E7"/>
<path d="M231.958 150.824L213.104 150.859L199.797 164.215L199.832 174.159L196.709 175.459L196.67 162.926L211.804 147.736L233.247 147.696L248.437 162.831L248.476 175.364L245.348 174.075L245.314 164.131L231.958 150.824Z" fill="#F8F2E7"/>
<path d="M162.512 87.562L162.546 97.904L175.902 111.211L194.756 111.176L208.063 97.8204L208.028 87.0325L211.151 87.0325L211.19 99.1093L196.056 114.299L174.613 114.339L159.423 99.2043L159.424 87.562H162.512Z" fill="#F8F2E7"/>
<path d="M196.67 86.9451L199.834 86.9451V97.9001L213.19 111.207L232.043 111.172L245.35 97.8165V87.5094H248.478V99.1054L233.344 114.295L211.901 114.335L196.711 99.2004L196.67 86.9451Z" fill="#F8F2E7"/>
<path d="M159.397 172.826L170.426 172.792L183.733 159.436L183.698 140.582L170.342 127.275L159.397 127.31V124.187L171.631 124.148L186.821 139.282L186.861 160.725L171.726 175.915L159.396 175.954L159.397 172.826Z" fill="#F8F2E7"/>
<path d="M159.385 135.933L170.424 135.898L183.731 122.543L183.696 103.689L170.34 90.3821L159.386 90.4167V87.2938L171.629 87.2544L186.819 102.389L186.859 123.831L171.724 139.021L159.386 139.061L159.385 135.933Z" fill="#F8F2E7"/>
<path d="M224.524 140.665L224.559 159.519L237.914 172.826L248.477 172.791V175.914L236.626 175.954L221.436 160.819L221.396 139.377L236.531 124.187L248.477 124.182V127.31L237.831 127.31L224.524 140.665Z" fill="#F8F2E7"/>
<path d="M224.525 103.777L224.56 122.636L237.921 135.946L248.477 135.916V139.039L236.631 139.075L221.436 123.936L221.396 102.488L236.536 87.2944L248.471 87.2683L248.477 90.3945L237.837 90.4182L224.525 103.777Z" fill="#F8F2E7"/>
<path fill-rule="evenodd" clip-rule="evenodd" d="M134.128 3.14461L99.8565 3.20751L75.6673 27.4857L75.7302 61.7573L100.008 85.9466L134.28 85.8837L158.469 61.6055L158.406 27.3338L134.128 3.14461ZM161.546 26.0265L135.424 0L98.5492 0.0676771L72.5227 26.1899L72.5904 63.0647L98.7126 89.0912L135.587 89.0235L161.614 62.9013L161.546 26.0265Z" fill="#F8F2E7"/>
<path d="M107.886 63.9861L89.0292 63.9598L75.6768 77.275L75.6504 87.2227L72.5227 88.5131L72.5527 75.9758L87.7388 60.832L109.185 60.862L124.329 76.0481L124.299 88.5854L121.175 87.2863L121.201 77.3386L107.886 63.9861Z" fill="#F8F2E7"/>
<path d="M145.095 63.9598L126.242 63.9944L112.935 77.3502L112.969 87.2945L109.846 88.5948L109.807 76.0614L124.941 60.8714L146.384 60.832L161.574 75.9664L161.613 88.4998L158.486 87.211L158.451 77.2667L145.095 63.9598Z" fill="#F8F2E7"/>
<path d="M75.6491 0.697783L75.6837 11.0397L89.0395 24.3467L107.893 24.3121L121.2 10.9562L121.165 0.168238L124.288 0.168213L124.328 12.245L109.193 27.435L87.7507 27.4744L72.5607 12.34L72.5609 0.697783H75.6491Z" fill="#F8F2E7"/>
<path d="M109.807 0.0817871L112.971 0.0818646V11.0368L126.327 24.3437L145.181 24.3091L158.488 10.9532V0.64613H161.615V12.2421L146.481 27.4321L125.038 27.4714L109.848 12.3371L109.807 0.0817871Z" fill="#F8F2E7"/>
<path d="M72.5343 85.9618L83.5632 85.9272L96.8701 72.5713L96.8355 53.7179L83.4796 40.4109L72.534 40.4455V37.3226L84.7685 37.2832L99.9585 52.4176L99.9979 73.8601L84.8635 89.0502L72.5328 89.0895L72.5343 85.9618Z" fill="#F8F2E7"/>
<path d="M72.5227 49.0697L83.5614 49.0351L96.8683 35.6792L96.8337 16.8258L83.4778 3.51885L72.5229 3.55346V0.430471L84.7666 0.391113L99.9567 15.5255L99.996 36.9681L84.8617 52.1581L72.5229 52.1974L72.5227 49.0697Z" fill="#F8F2E7"/>
<path d="M137.661 53.8012L137.696 72.6547L151.052 85.9616L161.614 85.927V89.05L149.763 89.0893L134.573 73.955L134.533 52.5124L149.668 37.3224L161.614 37.3176V40.4454L150.968 40.4453L137.661 53.8012Z" fill="#F8F2E7"/>
<path d="M137.662 16.913L137.697 35.7713L151.058 49.0816L161.614 49.0511V52.1749L149.769 52.2101L134.573 37.0719L134.533 15.6238L149.674 0.429907L161.608 0.403813L161.614 3.52998L150.974 3.55369L137.662 16.913Z" fill="#F8F2E7"/>
<path fill-rule="evenodd" clip-rule="evenodd" d="M220.507 3.14632L186.235 3.20922L162.046 27.4874L162.109 61.759L186.387 85.9483L220.659 85.8854L244.848 61.6072L244.785 27.3356L220.507 3.14632ZM247.925 26.0282L221.803 0.00170898L184.928 0.0693861L158.901 26.1916L158.969 63.0664L185.091 89.0929L221.966 89.0252L247.993 62.903L247.925 26.0282Z" fill="#F8F2E7"/>
<path d="M194.265 63.9905L175.408 63.9642L162.055 77.2794L162.029 87.2271L158.901 88.5175L158.931 75.9802L174.117 60.8364L195.564 60.8664L210.708 76.0525L210.678 88.5898L207.554 87.2907L207.58 77.343L194.265 63.9905Z" fill="#F8F2E7"/>
<path d="M231.474 63.9642L212.62 63.9988L199.313 77.3546L199.348 87.2989L196.225 88.5992L196.186 76.0658L211.32 60.8758L232.763 60.8364L247.953 75.9708L247.992 88.5042L244.864 87.2154L244.83 77.2711L231.474 63.9642Z" fill="#F8F2E7"/>
<path d="M162.028 0.697783L162.062 11.0397L175.418 24.3467L194.272 24.3121L207.579 10.9562L207.544 0.168238L210.667 0.168213L210.706 12.245L195.572 27.435L174.129 27.4744L158.939 12.34L158.94 0.697783H162.028Z" fill="#F8F2E7"/>
<path d="M196.186 0.0856934L199.35 0.0857709V11.0407L212.706 24.3476L231.559 24.313L244.866 10.9571V0.650036H247.994V12.246L232.86 27.436L211.417 27.4754L196.227 12.341L196.186 0.0856934Z" fill="#F8F2E7"/>
<path d="M158.913 85.9662L169.942 85.9316L183.249 72.5757L183.215 53.7223L169.859 40.4153L158.913 40.4499V37.327L171.147 37.2876L186.338 52.422L186.377 73.8645L171.243 89.0546L158.912 89.0939L158.913 85.9662Z" fill="#F8F2E7"/>
<path d="M158.901 49.0736L169.94 49.039L183.247 35.6831L183.212 16.8297L169.856 3.52276L158.902 3.55736V0.434377L171.145 0.39502L186.335 15.5294L186.375 36.972L171.24 52.162L158.902 52.2013L158.901 49.0736Z" fill="#F8F2E7"/>
<path d="M224.04 53.8051L224.075 72.6586L237.431 85.9655L247.993 85.9309V89.0539L236.142 89.0932L220.952 73.9589L220.912 52.5163L236.047 37.3263L247.993 37.3215V40.4493L237.347 40.4493L224.04 53.8051Z" fill="#F8F2E7"/>
<path d="M224.041 16.9174L224.076 35.7757L237.437 49.086L247.993 49.0555V52.1793L236.148 52.2145L220.952 37.0763L220.912 15.6282L236.053 0.434301L247.987 0.408208L247.993 3.53437L237.353 3.55809L224.041 16.9174Z" fill="#F8F2E7"/>
<path fill-rule="evenodd" clip-rule="evenodd" d="M307.151 90.0077L272.879 90.0706L248.69 114.349L248.753 148.62L273.031 172.81L307.303 172.747L331.492 148.469L331.429 114.197L307.151 90.0077ZM334.569 112.89L308.447 86.863L271.572 86.9307L245.546 113.053L245.613 149.928L271.736 175.954L308.61 175.887L334.637 149.764L334.569 112.89Z" fill="#F8F2E7"/>
<path d="M280.909 150.85L262.052 150.824L248.7 164.139L248.673 174.087L245.546 175.377L245.576 162.84L260.762 147.696L282.208 147.726L297.352 162.912L297.322 175.45L294.198 174.151L294.224 164.203L280.909 150.85Z" fill="#F8F2E7"/>
<path d="M318.118 150.824L299.265 150.859L285.958 164.215L285.992 174.159L282.869 175.459L282.83 162.926L297.964 147.736L319.407 147.696L334.597 162.831L334.636 175.364L331.509 174.075L331.474 164.131L318.118 150.824Z" fill="#F8F2E7"/>
<path d="M248.672 87.562L248.707 97.904L262.063 111.211L280.916 111.176L294.223 97.8204L294.188 87.0325L297.311 87.0325L297.351 99.1093L282.216 114.299L260.774 114.339L245.584 99.2043L245.584 87.562H248.672Z" fill="#F8F2E7"/>
<path d="M282.83 86.9451L285.994 86.9451V97.9001L299.35 111.207L318.204 111.172L331.511 97.8165V87.5094H334.638V99.1054L319.504 114.295L298.061 114.335L282.871 99.2004L282.83 86.9451Z" fill="#F8F2E7"/>
<path d="M245.557 172.826L256.586 172.792L269.893 159.436L269.858 140.582L256.503 127.275L245.557 127.31V124.187L257.791 124.148L272.981 139.282L273.021 160.725L257.886 175.915L245.556 175.954L245.557 172.826Z" fill="#F8F2E7"/>
<path d="M245.546 135.933L256.584 135.898L269.891 122.543L269.857 103.689L256.501 90.3821L245.546 90.4167V87.2938L257.79 87.2544L272.98 102.389L273.019 123.831L257.885 139.021L245.546 139.061L245.546 135.933Z" fill="#F8F2E7"/>
<path d="M310.684 140.665L310.719 159.519L324.075 172.826L334.637 172.791V175.914L322.786 175.954L307.596 160.819L307.557 139.377L322.691 124.187L334.637 124.182V127.31L323.991 127.31L310.684 140.665Z" fill="#F8F2E7"/>
<path d="M310.685 103.777L310.72 122.636L324.081 135.946L334.637 135.916V139.039L322.792 139.075L307.596 123.936L307.557 102.488L322.697 87.2944L334.631 87.2683L334.637 90.3945L323.997 90.4182L310.685 103.777Z" fill="#F8F2E7"/>
<path fill-rule="evenodd" clip-rule="evenodd" d="M307.151 3.14461L272.879 3.20751L248.69 27.4857L248.753 61.7573L273.031 85.9466L307.303 85.8837L331.492 61.6055L331.429 27.3338L307.151 3.14461ZM334.569 26.0265L308.447 0L271.572 0.0676771L245.546 26.1899L245.613 63.0647L271.736 89.0912L308.61 89.0235L334.637 62.9013L334.569 26.0265Z" fill="#F8F2E7"/>
<path d="M280.909 63.9861L262.052 63.9598L248.7 77.275L248.673 87.2227L245.546 88.5131L245.576 75.9758L260.762 60.832L282.208 60.862L297.352 76.0481L297.322 88.5854L294.198 87.2863L294.224 77.3386L280.909 63.9861Z" fill="#F8F2E7"/>
<path d="M318.118 63.9598L299.265 63.9944L285.958 77.3502L285.992 87.2945L282.869 88.5948L282.83 76.0614L297.964 60.8714L319.407 60.832L334.597 75.9664L334.636 88.4998L331.509 87.211L331.474 77.2667L318.118 63.9598Z" fill="#F8F2E7"/>
<path d="M248.672 0.697783L248.707 11.0397L262.063 24.3467L280.916 24.3121L294.223 10.9562L294.188 0.168238L297.311 0.168213L297.351 12.245L282.216 27.435L260.774 27.4744L245.584 12.34L245.584 0.697783H248.672Z" fill="#F8F2E7"/>
<path d="M282.83 0.0817871L285.994 0.0818646V11.0368L299.35 24.3437L318.204 24.3091L331.511 10.9532V0.64613H334.638V12.2421L319.504 27.4321L298.061 27.4714L282.871 12.3371L282.83 0.0817871Z" fill="#F8F2E7"/>
<path d="M245.557 85.9618L256.586 85.9272L269.893 72.5713L269.858 53.7179L256.503 40.4109L245.557 40.4455V37.3226L257.791 37.2832L272.981 52.4176L273.021 73.8601L257.886 89.0502L245.556 89.0895L245.557 85.9618Z" fill="#F8F2E7"/>
<path d="M245.546 49.0697L256.584 49.0351L269.891 35.6792L269.857 16.8258L256.501 3.51885L245.546 3.55346V0.430471L257.79 0.391113L272.98 15.5255L273.019 36.9681L257.885 52.1581L245.546 52.1974L245.546 49.0697Z" fill="#F8F2E7"/>
<path d="M310.684 53.8012L310.719 72.6547L324.075 85.9616L334.637 85.927V89.05L322.786 89.0893L307.596 73.955L307.557 52.5124L322.691 37.3224L334.637 37.3176V40.4454L323.991 40.4453L310.684 53.8012Z" fill="#F8F2E7"/>
<path d="M310.685 16.913L310.72 35.7713L324.081 49.0816L334.637 49.0511V52.1749L322.792 52.2101L307.596 37.0719L307.557 15.6238L322.697 0.429907L334.631 0.403813L334.637 3.52998L323.997 3.55369L310.685 16.913Z" fill="#F8F2E7"/>
</g>
<defs>
<clipPath id="clip0">
<rect width="321" height="287" fill="white"/>
</clipPath>
</defs>
</svg>
